<?xml version="1.0" encoding="utf-8"?>
<!-- Generator: Adobe Illustrator 21.1.0, SVG Export Plug-In . SVG Version: 6.00 Build 0)  -->
<svg version="1.1" id="Layer_1" xmlns="http://www.w3.org/2000/svg" xmlns:xlink="http://www.w3.org/1999/xlink" x="0px" y="0px"
	 viewBox="0 0 72 100" style="enable-background:new 0 0 72 100;" xml:space="preserve">
<style type="text/css">
	.st0{fill:url(#SVGID_1_);}
	.st1{fill-opacity:0;stroke:#7191A1;stroke-width:2;}
	.st2{fill:url(#SVGID_2_);}
	.st3{fill:url(#SVGID_3_);}
	.st4{fill-opacity:0;stroke:#7191A1;stroke-width:2;stroke-linejoin:bevel;}
	.st5{enable-background:new    ;}
	.st6{fill:#4C6C7B;}
</style>
<g>
	
		<linearGradient id="SVGID_1_" gradientUnits="userSpaceOnUse" x1="36" y1="97" x2="36" y2="-1" gradientTransform="matrix(1 0 0 1 0 2)">
		<stop  offset="0" style="stop-color:#C8D4DB"/>
		<stop  offset="0.139" style="stop-color:#D8E1E6"/>
		<stop  offset="0.359" style="stop-color:#EBF0F3"/>
		<stop  offset="0.617" style="stop-color:#F9FAFB"/>
		<stop  offset="1" style="stop-color:#FFFFFF"/>
	</linearGradient>
	<path class="st0" d="M45,1l27,26.7V99H0V1H45z"/>
	<path class="st1" d="M45,1l27,26.7V99H0V1H45z"/>
</g>
<g>
	<g>
		<linearGradient id="SVGID_2_" gradientUnits="userSpaceOnUse" x1="36.5" y1="62.9654" x2="36.5" y2="20.1875">
			<stop  offset="0" style="stop-color:#869BA6"/>
			<stop  offset="0.379" style="stop-color:#8399A4"/>
			<stop  offset="0.576" style="stop-color:#7B929E"/>
			<stop  offset="0.731" style="stop-color:#6D8694"/>
			<stop  offset="0.863" style="stop-color:#5A7785"/>
			<stop  offset="0.981" style="stop-color:#426373"/>
			<stop  offset="0.99" style="stop-color:#416271"/>
		</linearGradient>
		<path class="st2" d="M51.7,36.2H49v-3.6c0-6.9-5.6-12.5-12.5-12.5S24,25.8,24,32.7v3.6h-2.7c-0.5,0-0.9,0.4-0.9,0.9v22.3
			c0,2,1.6,3.6,3.6,3.6h25c2,0,3.6-1.6,3.6-3.6V37.1C52.5,36.6,52.1,36.2,51.7,36.2z M39.2,54.8c0,0.3-0.1,0.5-0.2,0.7
			c-0.2,0.2-0.4,0.3-0.7,0.3h-3.6c-0.3,0-0.5-0.1-0.7-0.3c-0.2-0.2-0.2-0.4-0.2-0.7l0.6-5.1c-0.9-0.7-1.5-1.7-1.5-2.9
			c0-2,1.6-3.6,3.6-3.6c2,0,3.6,1.6,3.6,3.6c0,1.2-0.5,2.2-1.5,2.9L39.2,54.8z M43.6,36.2H29.4v-3.6c0-3.9,3.2-7.1,7.1-7.1
			s7.1,3.2,7.1,7.1V36.2z"/>
	</g>
</g>
<g>
	
		<linearGradient id="SVGID_3_" gradientUnits="userSpaceOnUse" x1="45.0368" y1="25.8132" x2="58.5368" y2="12.3132" gradientTransform="matrix(1 0 0 1 0 2)">
		<stop  offset="0" style="stop-color:#FFFFFF"/>
		<stop  offset="0.35" style="stop-color:#FAFBFB"/>
		<stop  offset="0.532" style="stop-color:#EDF1F4"/>
		<stop  offset="0.675" style="stop-color:#DDE5E9"/>
		<stop  offset="0.799" style="stop-color:#C7D3DA"/>
		<stop  offset="0.908" style="stop-color:#ADBDC7"/>
		<stop  offset="1" style="stop-color:#92A5B0"/>
	</linearGradient>
	<path class="st3" d="M45,1l27,26.7H45V1z"/>
	<path class="st4" d="M45,1l27,26.7H45V1z"/>
</g>
<g class="st5">
	<path class="st6" d="M22.7,84.5l3.9,1.2c-0.6,2.2-1.6,3.8-3,4.9c-1.4,1.1-3.2,1.6-5.3,1.6c-2.7,0-4.8-0.9-6.6-2.7
		C10,87.7,9.2,85.2,9.2,82c0-3.3,0.9-5.9,2.6-7.8s4-2.8,6.8-2.8c2.5,0,4.4,0.7,6,2.2c0.9,0.9,1.6,2.1,2.1,3.7l-4,1
		c-0.2-1-0.7-1.9-1.5-2.5S19.4,75,18.4,75c-1.5,0-2.7,0.5-3.6,1.6c-0.9,1.1-1.4,2.8-1.4,5.2c0,2.5,0.5,4.3,1.4,5.4
		c0.9,1.1,2.1,1.6,3.6,1.6c1.1,0,2-0.3,2.8-1C21.8,87.1,22.4,86,22.7,84.5z"/>
	<path class="st6" d="M30.1,91.9v-20h8.5c2.1,0,3.7,0.2,4.7,0.5s1.7,1,2.3,1.9c0.6,0.9,0.9,2,0.9,3.2c0,1.5-0.4,2.7-1.3,3.7
		c-0.9,1-2.2,1.6-4,1.9c0.9,0.5,1.6,1.1,2.2,1.7c0.6,0.6,1.3,1.7,2.3,3.3l2.4,3.9h-4.8l-2.9-4.4c-1-1.6-1.8-2.5-2.1-2.9
		s-0.8-0.7-1.2-0.8c-0.4-0.2-1.1-0.2-2-0.2h-0.8v8.4H30.1z M34.2,80.3h3c1.9,0,3.2-0.1,3.6-0.2c0.5-0.2,0.9-0.4,1.1-0.8
		s0.4-0.9,0.4-1.5c0-0.7-0.2-1.2-0.5-1.6c-0.4-0.4-0.9-0.7-1.5-0.8c-0.3,0-1.3-0.1-3-0.1h-3.2V80.3z"/>
	<path class="st6" d="M54.8,91.9V75.2h-5.9v-3.4h15.9v3.4h-5.9v16.7H54.8z"/>
</g>
</svg>
