<?xml version="1.0" encoding="utf-8"?>
<!-- Generator: Adobe Illustrator 21.1.0, SVG Export Plug-In . SVG Version: 6.00 Build 0)  -->
<svg version="1.1" id="Layer_2" xmlns="http://www.w3.org/2000/svg" xmlns:xlink="http://www.w3.org/1999/xlink" x="0px" y="0px"
	 viewBox="0 0 72 100" style="enable-background:new 0 0 72 100;" xml:space="preserve">
<style type="text/css">
	.st0{fill:url(#SVGID_1_);}
	.st1{fill-opacity:0;stroke:#7191A1;stroke-width:2;}
	.st2{enable-background:new    ;}
	.st3{fill:#4C6C7B;}
	.st4{fill:url(#SVGID_2_);}
	.st5{fill-opacity:0;stroke:#7191A1;stroke-width:2;stroke-linejoin:bevel;}
</style>
<g>
	
		<linearGradient id="SVGID_1_" gradientUnits="userSpaceOnUse" x1="36" y1="2.2646" x2="36" y2="100.25" gradientTransform="matrix(1 0 0 -1 0 101)">
		<stop  offset="0" style="stop-color:#C8D4DB"/>
		<stop  offset="0.139" style="stop-color:#D8E1E6"/>
		<stop  offset="0.359" style="stop-color:#EBF0F3"/>
		<stop  offset="0.617" style="stop-color:#F9FAFB"/>
		<stop  offset="1" style="stop-color:#FFFFFF"/>
	</linearGradient>
	<path class="st0" d="M45,0.8l27,26.7v71.3H0v-98H45z"/>
	<path class="st1" d="M45,0.8l27,26.7v71.3H0v-98H45z"/>
</g>
<g class="st2">
	<path class="st3" d="M10.2,70h7.4c1.7,0,2.9,0.1,3.8,0.4c1.2,0.3,2.2,1,3,1.8c0.8,0.9,1.5,1.9,1.9,3.2s0.7,2.8,0.7,4.7
		c0,1.6-0.2,3-0.6,4.2c-0.5,1.4-1.2,2.6-2.1,3.5c-0.7,0.7-1.6,1.2-2.8,1.6c-0.9,0.3-2.1,0.4-3.6,0.4h-7.6V70z M14.3,73.3v13.1h3
		c1.1,0,1.9-0.1,2.4-0.2c0.7-0.2,1.2-0.4,1.6-0.8c0.4-0.4,0.8-1,1.1-1.9c0.3-0.9,0.4-2.1,0.4-3.6c0-1.5-0.1-2.7-0.4-3.5
		c-0.3-0.8-0.7-1.5-1.1-1.9s-1.1-0.8-1.9-0.9c-0.6-0.1-1.7-0.2-3.3-0.2H14.3z"/>
	<path class="st3" d="M48.5,89.8h-4.4l-1.8-4.5h-8l-1.7,4.5h-4.3L36.2,70h4.3L48.5,89.8z M41.1,82l-2.8-7.4L35.6,82H41.1z"/>
	<path class="st3" d="M53.1,89.8V73.3h-5.9V70h15.9v3.4h-5.9v16.5H53.1z"/>
</g>
<g>
	
		<linearGradient id="SVGID_2_" gradientUnits="userSpaceOnUse" x1="45.0692" y1="73.4575" x2="58.5692" y2="86.9575" gradientTransform="matrix(1 0 0 -1 0 101)">
		<stop  offset="0" style="stop-color:#FFFFFF"/>
		<stop  offset="0.35" style="stop-color:#FAFBFB"/>
		<stop  offset="0.532" style="stop-color:#EDF1F4"/>
		<stop  offset="0.675" style="stop-color:#DDE5E9"/>
		<stop  offset="0.799" style="stop-color:#C7D3DA"/>
		<stop  offset="0.908" style="stop-color:#ADBDC7"/>
		<stop  offset="1" style="stop-color:#92A5B0"/>
	</linearGradient>
	<path class="st4" d="M45,0.8l27,26.7H45V0.8z"/>
	<path class="st5" d="M45,0.8l27,26.7H45V0.8z"/>
</g>
</svg>
