<?xml version="1.0" encoding="utf-8"?>
<!-- Generator: Adobe Illustrator 21.1.0, SVG Export Plug-In . SVG Version: 6.00 Build 0)  -->
<svg version="1.1" id="Layer_3" xmlns="http://www.w3.org/2000/svg" xmlns:xlink="http://www.w3.org/1999/xlink" x="0px" y="0px"
	 viewBox="0 0 72 100" style="enable-background:new 0 0 72 100;" xml:space="preserve">
<style type="text/css">
	.st0{fill:url(#SVGID_1_);}
	.st1{fill-opacity:0;stroke:#01415E;stroke-width:2;}
	.st2{enable-background:new    ;}
	.st3{fill:#FFFFFF;}
	.st4{fill:url(#SVGID_2_);}
	.st5{fill:url(#SVGID_3_);}
	.st6{fill-opacity:0;stroke:#01415E;stroke-width:2;stroke-linejoin:bevel;}
</style>
<g>
	
		<linearGradient id="SVGID_1_" gradientUnits="userSpaceOnUse" x1="36" y1="0.7668" x2="36" y2="99.2496" gradientTransform="matrix(1 0 0 -1 0 100)">
		<stop  offset="5.000000e-03" style="stop-color:#002D44"/>
		<stop  offset="5.600001e-02" style="stop-color:#013852"/>
		<stop  offset="0.16" style="stop-color:#0A4D6B"/>
		<stop  offset="0.274" style="stop-color:#0F5E82"/>
		<stop  offset="0.398" style="stop-color:#0F6D96"/>
		<stop  offset="0.539" style="stop-color:#0D77A4"/>
		<stop  offset="0.711" style="stop-color:#0A7EAE"/>
		<stop  offset="1" style="stop-color:#0881B2"/>
	</linearGradient>
	<path class="st0" d="M45,0.8l27,26.9v71.6H0V0.8H45z"/>
	<path class="st1" d="M45,0.8l27,26.9v71.6H0V0.8H45z"/>
</g>
<g class="st2">
	<path class="st3" d="M6.9,71.3h7.4c1.7,0,2.9,0.1,3.8,0.4c1.2,0.3,2.2,1,3,1.8c0.8,0.9,1.5,2,1.9,3.2s0.7,2.8,0.7,4.7
		c0,1.6-0.2,3.1-0.6,4.2c-0.5,1.5-1.2,2.6-2.1,3.5c-0.7,0.7-1.6,1.2-2.8,1.6c-0.9,0.3-2.1,0.4-3.6,0.4H6.9V71.3z M11,74.7v13.2h3
		c1.1,0,1.9-0.1,2.4-0.2c0.7-0.2,1.2-0.4,1.6-0.8c0.4-0.4,0.8-1,1.1-1.9c0.3-0.9,0.4-2.1,0.4-3.7c0-1.5-0.1-2.7-0.4-3.5
		s-0.7-1.5-1.1-1.9c-0.5-0.5-1.1-0.8-1.9-0.9c-0.6-0.1-1.7-0.2-3.3-0.2H11z"/>
	<path class="st3" d="M26.3,81.4c0-2,0.3-3.7,0.9-5.1c0.5-1,1.1-1.9,1.9-2.7c0.8-0.8,1.7-1.4,2.6-1.8C33,71.2,34.4,71,36,71
		c3,0,5.3,0.9,7.1,2.7c1.8,1.8,2.7,4.4,2.7,7.6c0,3.2-0.9,5.7-2.6,7.6c-1.8,1.8-4.1,2.7-7.1,2.7c-3,0-5.4-0.9-7.1-2.7
		C27.2,87.1,26.3,84.6,26.3,81.4z M30.5,81.3c0,2.3,0.5,4,1.6,5.1c1,1.2,2.4,1.7,4,1.7c1.6,0,2.9-0.6,4-1.7c1-1.2,1.6-2.9,1.6-5.2
		c0-2.3-0.5-4-1.5-5.1c-1-1.1-2.3-1.7-4-1.7c-1.7,0-3,0.6-4,1.7C31,77.3,30.5,79,30.5,81.3z"/>
	<path class="st3" d="M61.8,83.9l3.9,1.2c-0.6,2.2-1.6,3.8-3,4.8c-1.4,1.1-3.2,1.6-5.3,1.6c-2.7,0-4.8-0.9-6.6-2.7
		c-1.7-1.8-2.6-4.3-2.6-7.4c0-3.3,0.9-5.9,2.6-7.7s4-2.8,6.8-2.8c2.5,0,4.4,0.7,6,2.2c0.9,0.9,1.6,2.1,2.1,3.7l-4,1
		c-0.2-1-0.7-1.8-1.5-2.4s-1.7-0.9-2.7-0.9c-1.5,0-2.7,0.5-3.6,1.6s-1.4,2.8-1.4,5.2c0,2.5,0.5,4.3,1.4,5.4c0.9,1.1,2.1,1.6,3.6,1.6
		c1.1,0,2-0.3,2.8-1C60.9,86.5,61.4,85.4,61.8,83.9z"/>
</g>
<linearGradient id="SVGID_2_" gradientUnits="userSpaceOnUse" x1="18.08" y1="48.4812" x2="55.0816" y2="85.4839" gradientTransform="matrix(1 0 0 -1 0 100)">
	<stop  offset="5.000000e-03" style="stop-color:#006186"/>
	<stop  offset="0.116" style="stop-color:#005F83"/>
	<stop  offset="0.239" style="stop-color:#005A7D"/>
	<stop  offset="0.369" style="stop-color:#005373"/>
	<stop  offset="0.502" style="stop-color:#004865"/>
	<stop  offset="0.639" style="stop-color:#003953"/>
	<stop  offset="0.779" style="stop-color:#00253C"/>
	<stop  offset="0.918" style="stop-color:#00031D"/>
	<stop  offset="1" style="stop-color:#000000"/>
</linearGradient>
<path class="st4" d="M64.4,25.6c-0.5,0-1,0.2-1.4,0.3c-0.5,0.2-1,0.4-1.4,0.6c-0.7,0.4-1.2,0.8-1.5,1.3c-0.3,0.5-0.6,1.1-0.8,1.7
	c-0.9,2.4-2.2,6.1-4,11.3C53.5,46,51.7,51.4,49.7,57H45l-8.7-24.5L28.4,57h-4.7c-2.6-7.6-4.6-13.3-6-17.3c-1.4-4.1-2.5-7.5-3.5-10.2
	c-0.3-0.8-0.6-1.4-1-1.8c-0.4-0.4-0.9-0.8-1.4-1.2c-0.4-0.3-0.9-0.5-1.3-0.6c-0.5-0.1-1-0.2-1.6-0.3v-1.8h17.6v1.8
	c-1,0.1-1.8,0.2-2.3,0.4c-0.5,0.1-0.9,0.2-1.2,0.4c-0.3,0.1-0.5,0.3-0.5,0.4c-0.1,0.1-0.1,0.3-0.1,0.4c0,0.2,0,0.4,0.1,0.6
	c0.1,0.2,0.1,0.4,0.2,0.7c0.4,1.2,1.1,3.5,2.3,6.9c1.1,3.4,2.5,7.6,4.2,12.5l7.5-24h4.9l8.7,24.7c1.3-4,2.3-7.3,3.1-9.7
	c0.8-2.5,1.4-4.7,1.9-6.5c0.3-1.1,0.6-2,0.7-2.8c0.2-0.7,0.3-1.4,0.3-1.9c0-0.3-0.2-0.6-0.5-0.8c-0.3-0.2-0.7-0.4-1.2-0.6
	c-0.4-0.1-1-0.3-1.7-0.3c-0.7-0.1-1.3-0.2-1.8-0.2v-2h13.3V25.6z"/>
<g>
	
		<linearGradient id="SVGID_3_" gradientUnits="userSpaceOnUse" x1="45.0353" y1="72.3554" x2="58.5353" y2="85.8554" gradientTransform="matrix(1 0 0 -1 0 100)">
		<stop  offset="5.000000e-03" style="stop-color:#DFF1FA"/>
		<stop  offset="0.3" style="stop-color:#DCEEF7"/>
		<stop  offset="0.443" style="stop-color:#D3E4EF"/>
		<stop  offset="0.553" style="stop-color:#C4D6E3"/>
		<stop  offset="0.647" style="stop-color:#B1C5D5"/>
		<stop  offset="0.73" style="stop-color:#9AB0C5"/>
		<stop  offset="0.805" style="stop-color:#819AB3"/>
		<stop  offset="0.875" style="stop-color:#64829F"/>
		<stop  offset="0.938" style="stop-color:#426C8C"/>
		<stop  offset="0.998" style="stop-color:#06577A"/>
		<stop  offset="1" style="stop-color:#015679"/>
	</linearGradient>
	<path class="st5" d="M45,0.8l27,26.9H45V0.8z"/>
	<path class="st6" d="M45,0.8l27,26.9H45V0.8z"/>
</g>
</svg>
