<?xml version="1.0" encoding="utf-8"?>
<!-- Generator: Adobe Illustrator 21.1.0, SVG Export Plug-In . SVG Version: 6.00 Build 0)  -->
<svg version="1.1" id="Layer_2" xmlns="http://www.w3.org/2000/svg" xmlns:xlink="http://www.w3.org/1999/xlink" x="0px" y="0px"
	 viewBox="0 0 72 100" style="enable-background:new 0 0 72 100;" xml:space="preserve">
<style type="text/css">
	.st0{fill:url(#SVGID_1_);}
	.st1{fill:url(#SVGID_2_);}
	.st2{fill-opacity:0;stroke:#01415E;stroke-width:2;}
	.st3{enable-background:new    ;}
	.st4{fill:#FFFFFF;}
	.st5{fill:url(#SVGID_3_);}
	.st6{fill:url(#SVGID_4_);}
	.st7{fill-opacity:0;stroke:#01415E;stroke-width:2;stroke-linejoin:bevel;}
</style>
<g>
	
		<linearGradient id="SVGID_1_" gradientUnits="userSpaceOnUse" x1="18.4339" y1="48.6067" x2="55.4157" y2="85.5896" gradientTransform="matrix(1 0 0 -1 0 100)">
		<stop  offset="5.000000e-03" style="stop-color:#006186"/>
		<stop  offset="0.116" style="stop-color:#005F83"/>
		<stop  offset="0.239" style="stop-color:#005A7D"/>
		<stop  offset="0.369" style="stop-color:#005373"/>
		<stop  offset="0.502" style="stop-color:#004865"/>
		<stop  offset="0.639" style="stop-color:#003953"/>
		<stop  offset="0.779" style="stop-color:#00253C"/>
		<stop  offset="0.918" style="stop-color:#00031D"/>
		<stop  offset="1" style="stop-color:#000000"/>
	</linearGradient>
	<path class="st0" d="M64.7,25.5c-0.5,0-1,0.2-1.4,0.3c-0.5,0.2-1,0.4-1.4,0.6c-0.7,0.4-1.2,0.8-1.5,1.3c-0.3,0.5-0.6,1.1-0.8,1.7
		c-0.9,2.4-2.2,6.1-4,11.3C53.8,45.9,52,51.3,50,56.8h-4.7l-8.7-24.4l-7.9,24.4H24c-2.6-7.6-4.6-13.3-6-17.3
		c-1.4-4.1-2.5-7.5-3.5-10.2c-0.3-0.8-0.6-1.4-1-1.8c-0.4-0.4-0.9-0.8-1.4-1.2c-0.4-0.3-0.9-0.5-1.3-0.6c-0.5-0.1-1-0.2-1.6-0.3
		v-1.8h17.6v1.8c-1,0.1-1.8,0.2-2.3,0.4c-0.5,0.1-0.9,0.2-1.2,0.4c-0.3,0.1-0.5,0.3-0.5,0.4c-0.1,0.1-0.1,0.3-0.1,0.4
		c0,0.2,0,0.4,0.1,0.6c0.1,0.2,0.1,0.4,0.2,0.7c0.4,1.2,1.1,3.5,2.3,6.9c1.1,3.4,2.5,7.6,4.2,12.5L37,23.7h4.9l8.7,24.6
		c1.3-4,2.3-7.3,3.1-9.7c0.8-2.5,1.4-4.7,1.9-6.5c0.3-1.1,0.6-2,0.7-2.8c0.2-0.7,0.3-1.4,0.3-1.9c0-0.3-0.2-0.6-0.5-0.8
		c-0.3-0.2-0.7-0.4-1.2-0.6c-0.4-0.1-1-0.3-1.7-0.3c-0.7-0.1-1.3-0.2-1.8-0.2v-2h13.3V25.5z"/>
	<g>
		
			<linearGradient id="SVGID_2_" gradientUnits="userSpaceOnUse" x1="36" y1="0.8181" x2="36" y2="99.1835" gradientTransform="matrix(1 0 0 -1 0 100)">
			<stop  offset="5.000000e-03" style="stop-color:#002D44"/>
			<stop  offset="5.600001e-02" style="stop-color:#013852"/>
			<stop  offset="0.16" style="stop-color:#0A4D6B"/>
			<stop  offset="0.274" style="stop-color:#0F5E82"/>
			<stop  offset="0.398" style="stop-color:#0F6D96"/>
			<stop  offset="0.539" style="stop-color:#0D77A4"/>
			<stop  offset="0.711" style="stop-color:#0A7EAE"/>
			<stop  offset="1" style="stop-color:#0881B2"/>
		</linearGradient>
		<path class="st1" d="M45,0.8l27,26.8v71.5H0V0.8H45z"/>
		<path class="st2" d="M45,0.8l27,26.8v71.5H0V0.8H45z"/>
	</g>
	<g class="st3">
		<path class="st4" d="M5.8,75.4h5.8c1.3,0,2.3,0.1,3,0.3c0.9,0.3,1.7,0.8,2.4,1.4c0.7,0.7,1.2,1.5,1.5,2.5s0.5,2.2,0.5,3.7
			c0,1.3-0.2,2.4-0.5,3.3c-0.4,1.1-1,2.1-1.7,2.8c-0.6,0.5-1.3,0.9-2.2,1.2c-0.7,0.2-1.6,0.3-2.8,0.3h-6V75.4z M9,78.1v10.4h2.4
			c0.9,0,1.5-0.1,1.9-0.1c0.5-0.1,0.9-0.3,1.3-0.7c0.3-0.3,0.6-0.8,0.8-1.5c0.2-0.7,0.3-1.7,0.3-2.9c0-1.2-0.1-2.1-0.3-2.8
			c-0.2-0.6-0.5-1.2-0.9-1.5c-0.4-0.4-0.9-0.6-1.5-0.7c-0.4-0.1-1.3-0.1-2.6-0.1H9z"/>
		<path class="st4" d="M21.1,83.4c0-1.6,0.2-2.9,0.7-4c0.4-0.8,0.8-1.5,1.5-2.1c0.6-0.6,1.3-1.1,2-1.4c1-0.4,2.1-0.6,3.4-0.6
			c2.3,0,4.2,0.7,5.6,2.1c1.4,1.4,2.1,3.4,2.1,6c0,2.5-0.7,4.5-2.1,5.9c-1.4,1.4-3.2,2.1-5.5,2.1c-2.3,0-4.2-0.7-5.6-2.1
			C21.8,87.8,21.1,85.8,21.1,83.4z M24.3,83.3c0,1.8,0.4,3.1,1.2,4c0.8,0.9,1.9,1.4,3.1,1.4s2.3-0.5,3.1-1.4
			c0.8-0.9,1.2-2.3,1.2-4.1c0-1.8-0.4-3.1-1.2-4c-0.8-0.9-1.8-1.3-3.2-1.3s-2.4,0.4-3.2,1.3C24.7,80.1,24.3,81.5,24.3,83.3z"/>
		<path class="st4" d="M48.9,85.3l3.1,1c-0.5,1.7-1.3,3-2.4,3.8c-1.1,0.8-2.5,1.2-4.2,1.2c-2.1,0-3.8-0.7-5.2-2.1
			c-1.3-1.4-2-3.4-2-5.8c0-2.6,0.7-4.6,2-6.1c1.4-1.4,3.1-2.2,5.3-2.2c1.9,0,3.5,0.6,4.7,1.7c0.7,0.7,1.3,1.6,1.6,2.9l-3.1,0.7
			c-0.2-0.8-0.6-1.5-1.2-1.9c-0.6-0.5-1.3-0.7-2.2-0.7c-1.2,0-2.1,0.4-2.8,1.2c-0.7,0.8-1.1,2.2-1.1,4c0,2,0.4,3.4,1.1,4.2
			c0.7,0.8,1.6,1.3,2.8,1.3c0.8,0,1.6-0.3,2.2-0.8C48.2,87.3,48.6,86.5,48.9,85.3z"/>
		<path class="st4" d="M53.1,91.1l5.4-8.2l-4.9-7.5h3.7l3.2,5l3.1-5h3.7L62.4,83l5.4,8h-3.8l-3.5-5.4l-3.5,5.4H53.1z"/>
	</g>
	
		<linearGradient id="SVGID_3_" gradientUnits="userSpaceOnUse" x1="17.3339" y1="48.6067" x2="54.3157" y2="85.5896" gradientTransform="matrix(1 0 0 -1 0 100)">
		<stop  offset="5.000000e-03" style="stop-color:#006186"/>
		<stop  offset="0.116" style="stop-color:#005F83"/>
		<stop  offset="0.239" style="stop-color:#005A7D"/>
		<stop  offset="0.369" style="stop-color:#005373"/>
		<stop  offset="0.502" style="stop-color:#004865"/>
		<stop  offset="0.639" style="stop-color:#003953"/>
		<stop  offset="0.779" style="stop-color:#00253C"/>
		<stop  offset="0.918" style="stop-color:#00031D"/>
		<stop  offset="1" style="stop-color:#000000"/>
	</linearGradient>
	<path class="st5" d="M63.6,25.5c-0.5,0-1,0.2-1.4,0.3c-0.5,0.2-1,0.4-1.4,0.6c-0.7,0.4-1.2,0.8-1.5,1.3c-0.3,0.5-0.6,1.1-0.8,1.7
		c-0.9,2.4-2.2,6.1-4,11.3c-1.8,5.2-3.6,10.5-5.6,16.1h-4.7l-8.7-24.4l-7.9,24.4h-4.7c-2.6-7.6-4.6-13.3-6-17.3
		c-1.4-4.1-2.5-7.5-3.5-10.2c-0.3-0.8-0.6-1.4-1-1.8c-0.4-0.4-0.9-0.8-1.4-1.2c-0.4-0.3-0.9-0.5-1.3-0.6c-0.5-0.1-1-0.2-1.6-0.3
		v-1.8h17.6v1.8c-1,0.1-1.8,0.2-2.3,0.4c-0.5,0.1-0.9,0.2-1.2,0.4c-0.3,0.1-0.5,0.3-0.5,0.4c-0.1,0.1-0.1,0.3-0.1,0.4
		c0,0.2,0,0.4,0.1,0.6c0.1,0.2,0.1,0.4,0.2,0.7c0.4,1.2,1.1,3.5,2.3,6.9c1.1,3.4,2.5,7.6,4.2,12.5l7.5-23.9h4.9l8.7,24.6
		c1.3-4,2.3-7.3,3.1-9.7c0.8-2.5,1.4-4.7,1.9-6.5c0.3-1.1,0.6-2,0.7-2.8c0.2-0.7,0.3-1.4,0.3-1.9c0-0.3-0.2-0.6-0.5-0.8
		c-0.3-0.2-0.7-0.4-1.2-0.6c-0.4-0.1-1-0.3-1.7-0.3c-0.7-0.1-1.3-0.2-1.8-0.2v-2h13.3V25.5z"/>
	<g>
		
			<linearGradient id="SVGID_4_" gradientUnits="userSpaceOnUse" x1="45.0433" y1="72.4478" x2="58.5433" y2="85.9478" gradientTransform="matrix(1 0 0 -1 0 100)">
			<stop  offset="5.000000e-03" style="stop-color:#DFF1FA"/>
			<stop  offset="0.3" style="stop-color:#DCEEF7"/>
			<stop  offset="0.443" style="stop-color:#D3E4EF"/>
			<stop  offset="0.553" style="stop-color:#C4D6E3"/>
			<stop  offset="0.647" style="stop-color:#B1C5D5"/>
			<stop  offset="0.73" style="stop-color:#9AB0C5"/>
			<stop  offset="0.805" style="stop-color:#819AB3"/>
			<stop  offset="0.875" style="stop-color:#64829F"/>
			<stop  offset="0.938" style="stop-color:#426C8C"/>
			<stop  offset="0.998" style="stop-color:#06577A"/>
			<stop  offset="1" style="stop-color:#015679"/>
		</linearGradient>
		<path class="st6" d="M45,0.7l27,26.8H45V0.7z"/>
		<path class="st7" d="M45,0.7l27,26.8H45V0.7z"/>
	</g>
</g>
</svg>
