<?xml version="1.0" encoding="utf-8"?>
<!-- Generator: Adobe Illustrator 21.1.0, SVG Export Plug-In . SVG Version: 6.00 Build 0)  -->
<svg version="1.1" id="Layer_1" xmlns="http://www.w3.org/2000/svg" xmlns:xlink="http://www.w3.org/1999/xlink" x="0px" y="0px"
	 viewBox="0 0 72 100" style="enable-background:new 0 0 72 100;" xml:space="preserve">
<style type="text/css">
	.st0{opacity:0.99;}
	.st1{fill:url(#SVGID_1_);}
	.st2{fill-opacity:0;stroke:#006E6C;stroke-width:2;}
	.st3{enable-background:new    ;}
	.st4{fill:#FFFFFF;}
	.st5{fill:url(#SVGID_2_);}
	.st6{fill:url(#SVGID_3_);}
	.st7{fill-opacity:0;stroke:#006E6C;stroke-width:2;stroke-linejoin:bevel;}
</style>
<g class="st0">
	
		<linearGradient id="SVGID_1_" gradientUnits="userSpaceOnUse" x1="36.2" y1="3.0053" x2="36.2" y2="101.0001" gradientTransform="matrix(1 0 0 -1 0 102)">
		<stop  offset="0" style="stop-color:#006B69"/>
		<stop  offset="0.124" style="stop-color:#00807F"/>
		<stop  offset="0.262" style="stop-color:#009393"/>
		<stop  offset="0.41" style="stop-color:#00A3A3"/>
		<stop  offset="0.571" style="stop-color:#00B0AF"/>
		<stop  offset="0.752" style="stop-color:#08B8B7"/>
		<stop  offset="1" style="stop-color:#14BBBB"/>
	</linearGradient>
	<path class="st1" d="M45.2,1l26.9,26.7V99H0.3V1H45.2z"/>
	<path class="st2" d="M45.2,1l26.9,26.7V99H0.3V1H45.2z"/>
</g>
<g class="st3">
	<path class="st4" d="M10.3,91.1V71.2h14.8v3.4H14.3V79h10v3.3h-10v5.4h11.2v3.3H10.3z"/>
	<path class="st4" d="M28.9,91.1V71.2h6.5c2.5,0,4.1,0.1,4.8,0.3c1.1,0.3,2.1,0.9,2.9,1.9c0.8,1,1.2,2.3,1.2,3.9
		c0,1.2-0.2,2.2-0.7,3.1s-1,1.5-1.7,2c-0.7,0.5-1.4,0.8-2.1,0.9c-1,0.2-2.4,0.3-4.2,0.3H33v7.5H28.9z M33,74.6v5.6h2.2
		c1.6,0,2.7-0.1,3.2-0.3c0.5-0.2,1-0.5,1.3-1c0.3-0.4,0.5-1,0.5-1.5c0-0.7-0.2-1.3-0.6-1.8c-0.4-0.5-1-0.8-1.6-0.9
		c-0.5-0.1-1.4-0.1-2.9-0.1H33z"/>
	<path class="st4" d="M46.5,84.6l3.9-0.4c0.2,1.3,0.7,2.3,1.4,2.9c0.7,0.6,1.7,0.9,2.9,0.9c1.3,0,2.3-0.3,2.9-0.8
		c0.7-0.5,1-1.2,1-1.9c0-0.5-0.1-0.9-0.4-1.2s-0.8-0.6-1.5-0.9c-0.5-0.2-1.5-0.5-3.2-0.9c-2.2-0.5-3.7-1.2-4.6-2
		c-1.2-1.1-1.8-2.4-1.8-4c0-1,0.3-2,0.9-2.8c0.6-0.9,1.4-1.5,2.5-2c1.1-0.5,2.4-0.7,3.9-0.7c2.5,0,4.4,0.5,5.7,1.6
		c1.3,1.1,1.9,2.5,2,4.4l-4,0.2c-0.2-1-0.5-1.8-1.1-2.2s-1.4-0.7-2.6-0.7c-1.2,0-2.1,0.2-2.8,0.7c-0.4,0.3-0.6,0.7-0.6,1.2
		c0,0.5,0.2,0.9,0.6,1.2c0.5,0.4,1.7,0.9,3.7,1.3c2,0.5,3.4,0.9,4.4,1.4c0.9,0.5,1.7,1.2,2.2,2s0.8,1.9,0.8,3.2c0,1.1-0.3,2.2-1,3.2
		c-0.6,1-1.5,1.7-2.7,2.2c-1.2,0.5-2.6,0.7-4.3,0.7c-2.5,0-4.5-0.6-5.8-1.7C47.6,88.5,46.8,86.8,46.5,84.6z"/>
</g>
<linearGradient id="SVGID_2_" gradientUnits="userSpaceOnUse" x1="36.5" y1="63" x2="36.5" y2="18.9091">
	<stop  offset="5.000000e-03" style="stop-color:#008281"/>
	<stop  offset="0.343" style="stop-color:#006A69"/>
	<stop  offset="1" style="stop-color:#003836"/>
</linearGradient>
<path class="st5" d="M55,18.9H18c-4.6,0-8.4,3.8-8.4,8.4v27.3c0,4.6,3.8,8.4,8.4,8.4H55c4.6,0,8.4-3.8,8.4-8.4V27.3
	C63.4,22.7,59.7,18.9,55,18.9z M57.8,54.6c0,1.5-1.3,2.8-2.8,2.8H18c-1.5,0-2.8-1.3-2.8-2.8V46l13.2-10.1l12,15.3l9.4-7.5l8.1,10.5
	V54.6z M57.8,45l-7.1-9.3l-9.5,7.5L29.3,28L15.2,38.9V27.3c0-1.5,1.3-2.8,2.8-2.8H55c1.5,0,2.8,1.3,2.8,2.8V45z M42.4,26.3
	c-2.9,0-5.3,2.4-5.3,5.3s2.4,5.3,5.3,5.3s5.3-2.4,5.3-5.3S45.3,26.3,42.4,26.3z"/>
<g class="st0">
	
		<linearGradient id="SVGID_3_" gradientUnits="userSpaceOnUse" x1="45.2139" y1="74.2291" x2="58.667" y2="87.6823" gradientTransform="matrix(1 0 0 -1 0 102)">
		<stop  offset="0" style="stop-color:#D6EDE8"/>
		<stop  offset="0.297" style="stop-color:#D3EBE6"/>
		<stop  offset="0.44" style="stop-color:#C7E3DF"/>
		<stop  offset="0.551" style="stop-color:#B7D8D5"/>
		<stop  offset="0.645" style="stop-color:#A0CBC9"/>
		<stop  offset="0.729" style="stop-color:#84BAB9"/>
		<stop  offset="0.804" style="stop-color:#62A7A7"/>
		<stop  offset="0.874" style="stop-color:#349394"/>
		<stop  offset="0.938" style="stop-color:#007F7F"/>
		<stop  offset="0.998" style="stop-color:#006B6A"/>
		<stop  offset="1" style="stop-color:#006B69"/>
	</linearGradient>
	<path class="st6" d="M45.2,1l26.9,26.7H45.2V1z"/>
	<path class="st7" d="M45.2,1l26.9,26.7H45.2V1z"/>
</g>
</svg>
