<?xml version="1.0" encoding="utf-8"?>
<!-- Generator: Adobe Illustrator 21.1.0, SVG Export Plug-In . SVG Version: 6.00 Build 0)  -->
<svg version="1.1" id="Layer_1" xmlns="http://www.w3.org/2000/svg" xmlns:xlink="http://www.w3.org/1999/xlink" x="0px" y="0px"
	 viewBox="0 0 72 100" style="enable-background:new 0 0 72 100;" xml:space="preserve">
<style type="text/css">
	.st0{fill:url(#SVGID_1_);}
	.st1{fill-opacity:0;stroke:#7191A1;stroke-width:2;}
	.st2{fill:url(#SVGID_2_);}
	.st3{fill:url(#SVGID_3_);}
	.st4{fill:url(#SVGID_4_);}
	.st5{fill:url(#SVGID_5_);}
	.st6{fill:url(#SVGID_6_);}
	.st7{fill-opacity:0;stroke:#7191A1;stroke-width:2;stroke-linejoin:bevel;}
	.st8{enable-background:new    ;}
	.st9{fill:#4C6C7B;}
</style>
<g>
	
		<linearGradient id="SVGID_1_" gradientUnits="userSpaceOnUse" x1="36" y1="97" x2="36" y2="-1" gradientTransform="matrix(1 0 0 1 0 2)">
		<stop  offset="0" style="stop-color:#C8D4DB"/>
		<stop  offset="0.139" style="stop-color:#D8E1E6"/>
		<stop  offset="0.359" style="stop-color:#EBF0F3"/>
		<stop  offset="0.617" style="stop-color:#F9FAFB"/>
		<stop  offset="1" style="stop-color:#FFFFFF"/>
	</linearGradient>
	<path class="st0" d="M45,1l27,26.7V99H0V1H45z"/>
	<path class="st1" d="M45,1l27,26.7V99H0V1H45z"/>
</g>
<linearGradient id="SVGID_2_" gradientUnits="userSpaceOnUse" x1="11.8" y1="33.75" x2="60.4" y2="33.75" gradientTransform="matrix(1 0 0 1 0 2)">
	<stop  offset="0" style="stop-color:#7291A1"/>
	<stop  offset="1" style="stop-color:#CAD5DB"/>
</linearGradient>
<path class="st2" d="M11.8,33.7h48.6v4.1H11.8V33.7z"/>
<linearGradient id="SVGID_3_" gradientUnits="userSpaceOnUse" x1="11.8" y1="57.85" x2="60.4" y2="57.85" gradientTransform="matrix(1 0 0 1 0 2)">
	<stop  offset="0" style="stop-color:#7291A1"/>
	<stop  offset="1" style="stop-color:#CAD5DB"/>
</linearGradient>
<path class="st3" d="M11.8,57.8h48.6v4.1H11.8V57.8z"/>
<linearGradient id="SVGID_4_" gradientUnits="userSpaceOnUse" x1="11.8" y1="46.05" x2="60.4" y2="46.05" gradientTransform="matrix(1 0 0 1 0 2)">
	<stop  offset="0" style="stop-color:#7291A1"/>
	<stop  offset="1" style="stop-color:#CAD5DB"/>
</linearGradient>
<path class="st4" d="M11.8,46h48.6v4.1H11.8V46z"/>
<linearGradient id="SVGID_5_" gradientUnits="userSpaceOnUse" x1="11.8" y1="21.65" x2="60.4" y2="21.65" gradientTransform="matrix(1 0 0 1 0 2)">
	<stop  offset="0" style="stop-color:#7291A1"/>
	<stop  offset="1" style="stop-color:#CAD5DB"/>
</linearGradient>
<path class="st5" d="M11.8,21.6h48.6v4.1H11.8V21.6z"/>
<g>
	
		<linearGradient id="SVGID_6_" gradientUnits="userSpaceOnUse" x1="45.0368" y1="25.8132" x2="58.5368" y2="12.3132" gradientTransform="matrix(1 0 0 1 0 2)">
		<stop  offset="0" style="stop-color:#FFFFFF"/>
		<stop  offset="0.35" style="stop-color:#FAFBFB"/>
		<stop  offset="0.532" style="stop-color:#EDF1F4"/>
		<stop  offset="0.675" style="stop-color:#DDE5E9"/>
		<stop  offset="0.799" style="stop-color:#C7D3DA"/>
		<stop  offset="0.908" style="stop-color:#ADBDC7"/>
		<stop  offset="1" style="stop-color:#92A5B0"/>
	</linearGradient>
	<path class="st6" d="M45,1l27,26.7H45V1z"/>
	<path class="st7" d="M45,1l27,26.7H45V1z"/>
</g>
<g class="st8">
	<path class="st9" d="M7.4,81.3c0-2,0.3-3.8,0.9-5.1c0.5-1,1.1-1.9,1.9-2.7c0.8-0.8,1.7-1.4,2.6-1.8c1.2-0.5,2.7-0.8,4.3-0.8
		c3,0,5.3,0.9,7.1,2.7c1.8,1.8,2.7,4.4,2.7,7.6c0,3.2-0.9,5.8-2.6,7.6c-1.8,1.8-4.1,2.7-7.1,2.7c-3,0-5.4-0.9-7.1-2.7
		C8.3,87,7.4,84.5,7.4,81.3z M11.6,81.2c0,2.3,0.5,4,1.6,5.2c1,1.2,2.4,1.8,4,1.8s2.9-0.6,4-1.7c1-1.2,1.6-2.9,1.6-5.2
		c0-2.3-0.5-4-1.5-5.1c-1-1.1-2.3-1.7-4-1.7s-3,0.6-4,1.7C12.1,77.1,11.6,78.9,11.6,81.2z"/>
	<path class="st9" d="M30,71.2h7.4c1.7,0,2.9,0.1,3.8,0.4c1.2,0.3,2.2,1,3,1.8c0.8,0.9,1.5,2,1.9,3.2s0.7,2.9,0.7,4.7
		c0,1.6-0.2,3.1-0.6,4.3c-0.5,1.5-1.2,2.6-2.1,3.5c-0.7,0.7-1.7,1.2-2.8,1.6c-0.9,0.3-2.1,0.4-3.6,0.4H30V71.2z M34.1,74.5v13.3h3
		c1.1,0,1.9-0.1,2.4-0.2c0.7-0.2,1.2-0.4,1.6-0.8c0.4-0.4,0.8-1,1.1-1.9s0.4-2.1,0.4-3.7s-0.1-2.7-0.4-3.6s-0.7-1.5-1.1-1.9
		s-1.1-0.8-1.9-0.9c-0.6-0.1-1.7-0.2-3.3-0.2H34.1z"/>
	<path class="st9" d="M54.8,91.2V74.5h-5.9v-3.4h15.9v3.4h-5.9v16.7H54.8z"/>
</g>
</svg>
