<?xml version="1.0" encoding="utf-8"?>
<!-- Generator: Adobe Illustrator 21.1.0, SVG Export Plug-In . SVG Version: 6.00 Build 0)  -->
<svg version="1.1" id="Layer_3" xmlns="http://www.w3.org/2000/svg" xmlns:xlink="http://www.w3.org/1999/xlink" x="0px" y="0px"
	 viewBox="0 0 72 100" style="enable-background:new 0 0 72 100;" xml:space="preserve">
<style type="text/css">
	.st0{fill:url(#SVGID_1_);}
	.st1{fill-opacity:0;stroke:#C15127;stroke-width:2;}
	.st2{enable-background:new    ;}
	.st3{fill:#FFFFFF;}
	.st4{fill:url(#SVGID_2_);}
	.st5{fill:url(#SVGID_3_);}
	.st6{fill-opacity:0;stroke:#C15127;stroke-width:2;stroke-linejoin:bevel;}
</style>
<g>
	<g>
		
			<linearGradient id="SVGID_1_" gradientUnits="userSpaceOnUse" x1="36" y1="0.5" x2="36" y2="99" gradientTransform="matrix(1 0 0 -1 0 100)">
			<stop  offset="0" style="stop-color:#CB5528"/>
			<stop  offset="3.200000e-02" style="stop-color:#CF5B27"/>
			<stop  offset="0.162" style="stop-color:#DB7026"/>
			<stop  offset="0.305" style="stop-color:#E68025"/>
			<stop  offset="0.468" style="stop-color:#EE8C23"/>
			<stop  offset="0.666" style="stop-color:#F49322"/>
			<stop  offset="1" style="stop-color:#F69622"/>
		</linearGradient>
		<path class="st0" d="M45,1l27,26.9v71.6H0V1H45z"/>
		<path class="st1" d="M45,1l27,26.9v71.6H0V1H45z"/>
	</g>
	<g class="st2">
		<path class="st3" d="M9.1,91.5V75.9h5.1c1.9,0,3.2,0.1,3.8,0.2c0.9,0.2,1.7,0.7,2.3,1.5c0.6,0.8,0.9,1.8,0.9,3.1
			c0,1-0.2,1.8-0.5,2.4c-0.4,0.7-0.8,1.2-1.3,1.5c-0.5,0.4-1.1,0.6-1.6,0.7c-0.8,0.2-1.9,0.2-3.3,0.2h-2.1v5.9H9.1z M12.3,78.5V83
			H14c1.3,0,2.1-0.1,2.5-0.2c0.4-0.2,0.8-0.4,1-0.8c0.2-0.3,0.4-0.8,0.4-1.2c0-0.6-0.2-1-0.5-1.4c-0.3-0.4-0.8-0.6-1.3-0.7
			c-0.4-0.1-1.1-0.1-2.3-0.1H12.3z"/>
		<path class="st3" d="M23.8,91.5V75.9h5.1c1.9,0,3.2,0.1,3.8,0.2c0.9,0.2,1.7,0.7,2.3,1.5c0.6,0.8,0.9,1.8,0.9,3.1
			c0,1-0.2,1.8-0.5,2.4c-0.4,0.7-0.8,1.2-1.3,1.5c-0.5,0.4-1.1,0.6-1.6,0.7c-0.8,0.2-1.9,0.2-3.3,0.2h-2.1v5.9H23.8z M26.9,78.5V83
			h1.7c1.3,0,2.1-0.1,2.5-0.2c0.4-0.2,0.8-0.4,1-0.8c0.2-0.3,0.4-0.8,0.4-1.2c0-0.6-0.2-1-0.5-1.4c-0.3-0.4-0.8-0.6-1.3-0.7
			c-0.4-0.1-1.1-0.1-2.3-0.1H26.9z"/>
		<path class="st3" d="M42,91.5v-13h-4.7v-2.7h12.5v2.7h-4.7v13H42z"/>
		<path class="st3" d="M50.3,91.5l5.4-8.2l-4.9-7.5h3.7l3.2,5l3.1-5h3.7l-4.9,7.6l5.4,8.1h-3.8l-3.5-5.4l-3.5,5.4H50.3z"/>
	</g>
	
		<linearGradient id="SVGID_2_" gradientUnits="userSpaceOnUse" x1="12.8274" y1="41.4883" x2="49.8259" y2="78.4868" gradientTransform="matrix(1 0 0 -1 0 100)">
		<stop  offset="5.000000e-03" style="stop-color:#D65B25"/>
		<stop  offset="0.418" style="stop-color:#D35A25"/>
		<stop  offset="0.679" style="stop-color:#CA5624"/>
		<stop  offset="0.897" style="stop-color:#BC4F22"/>
		<stop  offset="1" style="stop-color:#B34B21"/>
	</linearGradient>
	<path class="st4" d="M56.5,32.2c0,2.3-0.5,4.4-1.4,6c-1,1.7-2.3,3.1-4,4.1c-1.8,1.1-3.8,1.9-6,2.4c-2.3,0.5-4.8,0.7-7.6,0.7H34V57
		c0,0.7,0.1,1.3,0.4,1.8c0.3,0.5,0.8,0.9,1.5,1.2c0.4,0.2,1,0.3,1.9,0.5c0.9,0.2,1.6,0.3,2.2,0.4v2.3H17.5v-2.3
		c0.6-0.1,1.3-0.1,2.3-0.2c0.9-0.1,1.6-0.2,2-0.4c0.8-0.3,1.3-0.7,1.5-1.1c0.2-0.4,0.4-1.1,0.4-1.9V28.2c0-0.7-0.1-1.3-0.4-1.8
		c-0.2-0.5-0.7-0.9-1.5-1.2c-0.5-0.2-1.3-0.4-2.2-0.6c-0.9-0.2-1.6-0.3-2-0.4v-2.3h22.9c5.4,0,9.4,0.9,12,2.6
		C55.1,26.2,56.5,28.8,56.5,32.2z M45,33.7c0-3.1-0.6-5.4-1.9-7c-1.3-1.5-3.5-2.3-6.7-2.3H34v18.1h1.2c3.2,0,5.6-0.7,7.3-2.2
		C44.2,39,45,36.8,45,33.7z"/>
	<g>
		
			<linearGradient id="SVGID_3_" gradientUnits="userSpaceOnUse" x1="45.0341" y1="72.1023" x2="58.5341" y2="85.6023" gradientTransform="matrix(1 0 0 -1 0 100)">
			<stop  offset="0" style="stop-color:#FFFCE3"/>
			<stop  offset="0.383" style="stop-color:#FFFAE0"/>
			<stop  offset="0.521" style="stop-color:#FDF3D8"/>
			<stop  offset="0.62" style="stop-color:#FBEBCC"/>
			<stop  offset="0.699" style="stop-color:#F8DFBB"/>
			<stop  offset="0.767" style="stop-color:#F5D0A6"/>
			<stop  offset="0.828" style="stop-color:#F1BF8D"/>
			<stop  offset="0.882" style="stop-color:#ECAA72"/>
			<stop  offset="0.933" style="stop-color:#E79354"/>
			<stop  offset="0.977" style="stop-color:#E27C34"/>
			<stop  offset="1" style="stop-color:#DF6F26"/>
		</linearGradient>
		<path class="st5" d="M45,1l27,26.9H45V1z"/>
		<path class="st6" d="M45,1l27,26.9H45V1z"/>
	</g>
</g>
</svg>
