<?xml version="1.0" encoding="utf-8"?>
<!-- Generator: Adobe Illustrator 21.1.0, SVG Export Plug-In . SVG Version: 6.00 Build 0)  -->
<svg version="1.1" id="Layer_2" xmlns="http://www.w3.org/2000/svg" xmlns:xlink="http://www.w3.org/1999/xlink" x="0px" y="0px"
	 viewBox="0 0 72 100" style="enable-background:new 0 0 72 100;" xml:space="preserve">
<style type="text/css">
	.st0{fill:url(#SVGID_1_);}
	.st1{fill-opacity:0;stroke:#7191A1;stroke-width:2;}
	.st2{fill:url(#SVGID_2_);}
	.st3{fill:url(#SVGID_3_);}
	.st4{fill:url(#SVGID_4_);}
	.st5{fill:url(#SVGID_5_);}
	.st6{fill:url(#SVGID_6_);}
	.st7{fill:url(#SVGID_7_);}
	.st8{fill:url(#SVGID_8_);}
	.st9{fill:url(#SVGID_9_);}
	.st10{fill-opacity:0;stroke:#7191A1;stroke-width:2;stroke-linejoin:bevel;}
	.st11{enable-background:new    ;}
	.st12{fill:#4C6C7B;}
</style>
<g>
	
		<linearGradient id="SVGID_1_" gradientUnits="userSpaceOnUse" x1="36" y1="127.8" x2="36" y2="29.8" gradientTransform="matrix(1 0 0 1 0 -29)">
		<stop  offset="0" style="stop-color:#C8D4DB"/>
		<stop  offset="0.139" style="stop-color:#D8E1E6"/>
		<stop  offset="0.359" style="stop-color:#EBF0F3"/>
		<stop  offset="0.617" style="stop-color:#F9FAFB"/>
		<stop  offset="1" style="stop-color:#FFFFFF"/>
	</linearGradient>
	<path class="st0" d="M45,0.8l27,26.7v71.3H0v-98C0,0.8,45,0.8,45,0.8z"/>
	<path class="st1" d="M45,0.8l27,26.7v71.3H0v-98C0,0.8,45,0.8,45,0.8z"/>
</g>
<g>
	<linearGradient id="SVGID_2_" gradientUnits="userSpaceOnUse" x1="9.7014" y1="38.2582" x2="63.2985" y2="38.2582">
		<stop  offset="0" style="stop-color:#869BA6"/>
		<stop  offset="0.379" style="stop-color:#8399A4"/>
		<stop  offset="0.576" style="stop-color:#7B929E"/>
		<stop  offset="0.731" style="stop-color:#6D8694"/>
		<stop  offset="0.863" style="stop-color:#5A7785"/>
		<stop  offset="0.981" style="stop-color:#426373"/>
		<stop  offset="0.99" style="stop-color:#416271"/>
	</linearGradient>
	<path class="st2" d="M61.9,18.4c-0.5-2-2.9-3.1-4.8-3.2c-0.1,0-1.3-0.1-3.1-0.1c-6.2,0-13.3,1.3-16,3.3h-1.6h-1.6
		c-2.6-2-9.8-3.3-16-3.3c-1.9,0-3.1,0.1-3.1,0.1c-1.9,0.1-4.2,1.2-4.8,3.2c0,0-1.4,0-1.4,1.3c0,1.3,0,35.9,0,37.3c0,2,2,2,2,2h20.1
		c0,0,0,0,0,0c0,1.3,2.1,2.4,4.7,2.5c2.6,0,4.7-1.1,4.7-2.5c0,0,0,0,0,0h20.1c0,0,2,0,2-2c0-1.3,0-35.9,0-37.3
		C63.3,18.4,61.9,18.4,61.9,18.4z M34.5,56.9c-2-1.6-6.6-3.4-18.8-3.4c-1.5,0-2.5-1-2.8-2.4c0-0.2-0.1-30.4,0-30.6
		c0.3-1.4,1.4-2.5,2.9-2.6c0,0,1.2-0.1,3-0.1c9.9,0,15.7,1.7,15.7,4.5L34.5,56.9L34.5,56.9z M60.1,51.1c-0.3,1.4-1.3,2.4-2.8,2.4
		c-12.2,0-16.8,1.9-18.8,3.4V22.3c0-2.8,5.8-4.5,15.7-4.5c1.8,0,3,0.1,3,0.1c1.5,0.1,2.6,1.2,2.9,2.6C60.1,20.7,60.1,50.9,60.1,51.1
		z"/>
	<linearGradient id="SVGID_3_" gradientUnits="userSpaceOnUse" x1="41.729" y1="27.0489" x2="56.7623" y2="27.0489">
		<stop  offset="0" style="stop-color:#869BA6"/>
		<stop  offset="0.379" style="stop-color:#8399A4"/>
		<stop  offset="0.576" style="stop-color:#7B929E"/>
		<stop  offset="0.731" style="stop-color:#6D8694"/>
		<stop  offset="0.863" style="stop-color:#5A7785"/>
		<stop  offset="0.981" style="stop-color:#426373"/>
		<stop  offset="0.99" style="stop-color:#416271"/>
	</linearGradient>
	<path class="st3" d="M41.7,29.2c2.7-0.8,8.2-1.3,15-1.3v-3c-5.5,0-10.3,0.4-15,1.4V29.2z"/>
	<linearGradient id="SVGID_4_" gradientUnits="userSpaceOnUse" x1="41.729" y1="36.6591" x2="56.7623" y2="36.6591">
		<stop  offset="0" style="stop-color:#869BA6"/>
		<stop  offset="0.379" style="stop-color:#8399A4"/>
		<stop  offset="0.576" style="stop-color:#7B929E"/>
		<stop  offset="0.731" style="stop-color:#6D8694"/>
		<stop  offset="0.863" style="stop-color:#5A7785"/>
		<stop  offset="0.981" style="stop-color:#426373"/>
		<stop  offset="0.99" style="stop-color:#416271"/>
	</linearGradient>
	<path class="st4" d="M41.7,38.8c2.7-0.8,8.2-1.3,15-1.3v-3c-5.5,0-10.3,0.4-15,1.4V38.8z"/>
	<linearGradient id="SVGID_5_" gradientUnits="userSpaceOnUse" x1="41.729" y1="46.2683" x2="56.7623" y2="46.2683">
		<stop  offset="0" style="stop-color:#869BA6"/>
		<stop  offset="0.379" style="stop-color:#8399A4"/>
		<stop  offset="0.576" style="stop-color:#7B929E"/>
		<stop  offset="0.731" style="stop-color:#6D8694"/>
		<stop  offset="0.863" style="stop-color:#5A7785"/>
		<stop  offset="0.981" style="stop-color:#426373"/>
		<stop  offset="0.99" style="stop-color:#416271"/>
	</linearGradient>
	<path class="st5" d="M41.7,48.4c2.7-0.8,8.2-1.3,15-1.3v-3c-5.5,0-10.3,0.4-15,1.4V48.4z"/>
	<linearGradient id="SVGID_6_" gradientUnits="userSpaceOnUse" x1="16.2377" y1="27.0489" x2="31.271" y2="27.0489">
		<stop  offset="0" style="stop-color:#869BA6"/>
		<stop  offset="0.379" style="stop-color:#8399A4"/>
		<stop  offset="0.576" style="stop-color:#7B929E"/>
		<stop  offset="0.731" style="stop-color:#6D8694"/>
		<stop  offset="0.863" style="stop-color:#5A7785"/>
		<stop  offset="0.981" style="stop-color:#426373"/>
		<stop  offset="0.99" style="stop-color:#416271"/>
	</linearGradient>
	<path class="st6" d="M16.2,27.9c6.8,0,12.3,0.4,15,1.3v-2.9c-4.8-1-9.6-1.4-15-1.4V27.9z"/>
	<linearGradient id="SVGID_7_" gradientUnits="userSpaceOnUse" x1="16.2377" y1="36.6591" x2="31.271" y2="36.6591">
		<stop  offset="0" style="stop-color:#869BA6"/>
		<stop  offset="0.379" style="stop-color:#8399A4"/>
		<stop  offset="0.576" style="stop-color:#7B929E"/>
		<stop  offset="0.731" style="stop-color:#6D8694"/>
		<stop  offset="0.863" style="stop-color:#5A7785"/>
		<stop  offset="0.981" style="stop-color:#426373"/>
		<stop  offset="0.99" style="stop-color:#416271"/>
	</linearGradient>
	<path class="st7" d="M16.2,37.5c6.8,0,12.3,0.4,15,1.3v-2.9c-4.8-1-9.6-1.4-15-1.4V37.5z"/>
	<linearGradient id="SVGID_8_" gradientUnits="userSpaceOnUse" x1="16.2377" y1="46.2683" x2="31.271" y2="46.2683">
		<stop  offset="0" style="stop-color:#869BA6"/>
		<stop  offset="0.379" style="stop-color:#8399A4"/>
		<stop  offset="0.576" style="stop-color:#7B929E"/>
		<stop  offset="0.731" style="stop-color:#6D8694"/>
		<stop  offset="0.863" style="stop-color:#5A7785"/>
		<stop  offset="0.981" style="stop-color:#426373"/>
		<stop  offset="0.99" style="stop-color:#416271"/>
	</linearGradient>
	<path class="st8" d="M16.2,47.1c6.8,0,12.3,0.4,15,1.3v-2.9c-4.8-1-9.6-1.4-15-1.4V47.1z"/>
</g>
<g>
	
		<linearGradient id="SVGID_9_" gradientUnits="userSpaceOnUse" x1="45.075" y1="56.575" x2="58.575" y2="43.075" gradientTransform="matrix(1 0 0 1 0 -29)">
		<stop  offset="0" style="stop-color:#FFFFFF"/>
		<stop  offset="0.35" style="stop-color:#FAFBFB"/>
		<stop  offset="0.532" style="stop-color:#EDF1F4"/>
		<stop  offset="0.675" style="stop-color:#DDE5E9"/>
		<stop  offset="0.799" style="stop-color:#C7D3DA"/>
		<stop  offset="0.908" style="stop-color:#ADBDC7"/>
		<stop  offset="1" style="stop-color:#92A5B0"/>
	</linearGradient>
	<path class="st9" d="M45,0.8l27,26.7H45V0.8z"/>
	<path class="st10" d="M45,0.8l27,26.7H45V0.8z"/>
</g>
<g class="st11">
	<path class="st12" d="M20.2,89.8v-20h6.5c2.5,0,4.1,0.1,4.8,0.3c1.1,0.3,2.1,1,2.9,2c0.8,1,1.2,2.3,1.2,3.9c0,1.2-0.2,2.3-0.7,3.1
		c-0.4,0.8-1,1.5-1.7,2c-0.7,0.5-1.4,0.8-2.1,1c-1,0.2-2.4,0.3-4.2,0.3h-2.6v7.6H20.2z M24.2,73.1v5.7h2.2c1.6,0,2.7-0.1,3.2-0.3
		c0.5-0.2,1-0.5,1.3-1c0.3-0.4,0.5-1,0.5-1.6c0-0.7-0.2-1.3-0.6-1.8c-0.4-0.5-1-0.8-1.6-0.9c-0.5-0.1-1.5-0.1-2.9-0.1H24.2z"/>
	<path class="st12" d="M37.8,83.3l3.9-0.4c0.2,1.3,0.7,2.3,1.4,2.9s1.7,0.9,2.9,0.9c1.3,0,2.3-0.3,2.9-0.8s1-1.2,1-1.9
		c0-0.5-0.1-0.9-0.4-1.2s-0.8-0.6-1.5-0.9c-0.5-0.2-1.6-0.5-3.2-0.9c-2.2-0.5-3.7-1.2-4.6-2c-1.2-1.1-1.8-2.4-1.8-4
		c0-1,0.3-2,0.9-2.9s1.4-1.6,2.5-2s2.4-0.7,3.9-0.7c2.5,0,4.4,0.6,5.7,1.7s1.9,2.6,2,4.4l-4,0.2c-0.2-1-0.5-1.8-1.1-2.2
		s-1.4-0.7-2.6-0.7c-1.2,0-2.1,0.2-2.8,0.7c-0.4,0.3-0.6,0.7-0.6,1.2c0,0.5,0.2,0.9,0.6,1.2c0.5,0.4,1.8,0.9,3.7,1.3
		s3.4,0.9,4.4,1.4s1.7,1.2,2.2,2s0.8,1.9,0.8,3.2c0,1.1-0.3,2.2-1,3.2s-1.5,1.7-2.7,2.2s-2.6,0.7-4.4,0.7c-2.5,0-4.5-0.6-5.8-1.8
		S38.1,85.5,37.8,83.3z"/>
</g>
</svg>
