<?xml version="1.0" encoding="utf-8"?>
<!-- Generator: Adobe Illustrator 21.1.0, SVG Export Plug-In . SVG Version: 6.00 Build 0)  -->
<svg version="1.1" id="Layer_2" xmlns="http://www.w3.org/2000/svg" xmlns:xlink="http://www.w3.org/1999/xlink" x="0px" y="0px"
	 viewBox="0 0 72 100" style="enable-background:new 0 0 72 100;" xml:space="preserve">
<style type="text/css">
	.st0{fill:url(#SVGID_1_);}
	.st1{fill-opacity:0;stroke:#7191A1;stroke-width:2;}
	.st2{fill:url(#SVGID_2_);}
	.st3{fill-opacity:0;stroke:#7191A1;stroke-width:2;stroke-linejoin:bevel;}
	.st4{enable-background:new    ;}
	.st5{fill:#4C6C7B;}
</style>
<g>
	
		<linearGradient id="SVGID_1_" gradientUnits="userSpaceOnUse" x1="36" y1="127.8" x2="36" y2="29.8" gradientTransform="matrix(1 0 0 1 0 -29)">
		<stop  offset="0" style="stop-color:#C8D4DB"/>
		<stop  offset="0.139" style="stop-color:#D8E1E6"/>
		<stop  offset="0.359" style="stop-color:#EBF0F3"/>
		<stop  offset="0.617" style="stop-color:#F9FAFB"/>
		<stop  offset="1" style="stop-color:#FFFFFF"/>
	</linearGradient>
	<path class="st0" d="M45,0.8l27,26.7v71.3H0v-98L45,0.8z"/>
	<path class="st1" d="M45,0.8l27,26.7v71.3H0v-98L45,0.8z"/>
</g>
<g>
	
		<linearGradient id="SVGID_2_" gradientUnits="userSpaceOnUse" x1="45.075" y1="56.575" x2="58.575" y2="43.075" gradientTransform="matrix(1 0 0 1 0 -29)">
		<stop  offset="0" style="stop-color:#FFFFFF"/>
		<stop  offset="0.35" style="stop-color:#FAFBFB"/>
		<stop  offset="0.532" style="stop-color:#EDF1F4"/>
		<stop  offset="0.675" style="stop-color:#DDE5E9"/>
		<stop  offset="0.799" style="stop-color:#C7D3DA"/>
		<stop  offset="0.908" style="stop-color:#ADBDC7"/>
		<stop  offset="1" style="stop-color:#92A5B0"/>
	</linearGradient>
	<path class="st2" d="M45,0.8l27,26.7H45V0.8z"/>
	<path class="st3" d="M45,0.8l27,26.7H45V0.8z"/>
</g>
<g class="st4">
	<path class="st5" d="M9.3,89.8v-20h6.5c2.5,0,4.1,0.1,4.8,0.3c1.1,0.3,2.1,1,2.9,2c0.8,1,1.2,2.3,1.2,3.9c0,1.2-0.2,2.3-0.7,3.1
		c-0.4,0.8-1,1.5-1.7,2c-0.7,0.5-1.4,0.8-2.1,1c-1,0.2-2.4,0.3-4.2,0.3h-2.6v7.6H9.3z M13.4,73.1v5.7h2.2c1.6,0,2.7-0.1,3.2-0.3
		c0.5-0.2,1-0.5,1.3-1c0.3-0.4,0.5-1,0.5-1.6c0-0.7-0.2-1.3-0.6-1.8c-0.4-0.5-1-0.8-1.6-0.9c-0.5-0.1-1.5-0.1-2.9-0.1H13.4z"/>
	<path class="st5" d="M28,69.8h4v10.9c0,1.7,0,2.8,0.2,3.3c0.2,0.8,0.6,1.5,1.2,2c0.7,0.5,1.5,0.7,2.7,0.7c1.1,0,2-0.2,2.6-0.7
		s0.9-1,1.1-1.7s0.2-1.8,0.2-3.4V69.8h4v10.5c0,2.4-0.1,4.1-0.3,5.1s-0.6,1.8-1.2,2.5S41,89.1,40,89.5s-2.3,0.6-3.9,0.6
		c-1.9,0-3.4-0.2-4.4-0.7c-1-0.4-1.8-1-2.3-1.7s-1-1.4-1.1-2.2c-0.3-1.1-0.4-2.8-0.4-5.1V69.8z"/>
	<path class="st5" d="M48.2,69.8h8c1.6,0,2.8,0.1,3.5,0.2s1.5,0.4,2.1,0.8s1.1,1,1.5,1.7s0.6,1.5,0.6,2.3c0,0.9-0.3,1.8-0.8,2.6
		s-1.2,1.4-2.1,1.8c1.2,0.4,2.2,1,2.8,1.8s1,1.9,1,3c0,0.9-0.2,1.8-0.6,2.7s-1,1.5-1.7,2.1s-1.6,0.8-2.7,1c-0.7,0.1-2.3,0.1-4.9,0.1
		h-6.8V69.8z M52.3,73.1v4.6h2.7c1.6,0,2.6,0,2.9-0.1c0.7-0.1,1.2-0.3,1.6-0.7s0.6-0.9,0.6-1.6c0-0.6-0.2-1.1-0.5-1.5
		s-0.8-0.6-1.5-0.7c-0.4,0-1.6-0.1-3.5-0.1H52.3z M52.3,81.1v5.4H56c1.5,0,2.4,0,2.8-0.1c0.6-0.1,1.1-0.4,1.5-0.8s0.6-1,0.6-1.7
		c0-0.6-0.1-1.1-0.4-1.5s-0.7-0.7-1.3-0.9s-1.7-0.3-3.6-0.3H52.3z"/>
</g>
</svg>
