<?xml version="1.0" encoding="utf-8"?>
<!-- Generator: Adobe Illustrator 21.1.0, SVG Export Plug-In . SVG Version: 6.00 Build 0)  -->
<svg version="1.1" id="Layer_1" xmlns="http://www.w3.org/2000/svg" xmlns:xlink="http://www.w3.org/1999/xlink" x="0px" y="0px"
	 viewBox="0 0 72 100" style="enable-background:new 0 0 72 100;" xml:space="preserve">
<style type="text/css">
	.st0{fill:url(#SVGID_1_);}
	.st1{fill-opacity:0;stroke:#7187A1;stroke-width:2;}
	.st2{fill:url(#SVGID_2_);}
	.st3{fill-opacity:0;stroke:#7191A1;stroke-width:2;stroke-linejoin:bevel;}
	.st4{fill:#7291A1;}
	.st5{font-family:'TimesNewRomanPS-BoldMT';}
	.st6{font-size:43.5535px;}
	.st7{fill:#36454D;}
	.st8{enable-background:new    ;}
	.st9{fill:#4C627B;}
</style>
<g>
	
		<linearGradient id="SVGID_1_" gradientUnits="userSpaceOnUse" x1="36" y1="3.0046" x2="36" y2="100.9999" gradientTransform="matrix(1 0 0 -1 0 102)">
		<stop  offset="0" style="stop-color:#BEC0DB"/>
		<stop  offset="0.139" style="stop-color:#CECDE6"/>
		<stop  offset="0.359" style="stop-color:#E1DCF3"/>
		<stop  offset="0.617" style="stop-color:#EFE6FB"/>
		<stop  offset="1" style="stop-color:#F5F5FF"/>
	</linearGradient>
	<path class="st0" d="M45,1l26.9,26.7V99H0.1V1H45z"/>
	<path class="st1" d="M45,1l26.9,26.7V99H0.1V1H45z"/>
</g>
<g>
	
		<linearGradient id="SVGID_2_" gradientUnits="userSpaceOnUse" x1="44.7539" y1="74.2336" x2="58.1977" y2="87.6773" gradientTransform="matrix(1 0 0 -1 0 102)">
		<stop  offset="0" style="stop-color:#FFF5FF"/>
		<stop  offset="0.35" style="stop-color:#FAF1FB"/>
		<stop  offset="0.532" style="stop-color:#EDE7F4"/>
		<stop  offset="0.675" style="stop-color:#DDDBE9"/>
		<stop  offset="0.799" style="stop-color:#C7C9DA"/>
		<stop  offset="0.908" style="stop-color:#ADB3C7"/>
		<stop  offset="1" style="stop-color:#9291B0"/>
	</linearGradient>
	<path class="st2" d="M44.7,1l26.9,26.7H44.7V1z"/>
	<path class="st3" d="M44.7,1l26.9,26.7H44.7V1z"/>
</g>
<text transform="matrix(1.006 0 0 1 13.3604 51.0312)" class="st4 st5 st6">T</text>
<text transform="matrix(1.006 0 0 1 26.4893 59.5879)" class="st7 st5 st6">T</text>
<g class="st8">
	<path class="st9" d="M16.9,92.1V75.6h-5.9v-3.4h15.9v3.4h-5.9v16.5H16.9z"/>
	<path class="st9" d="M33.9,92.1V75.6H28v-3.4h15.9v3.4h-5.9v16.5H33.9z"/>
	<path class="st9" d="M46.5,92.1V72.2h13.7v3.4h-9.7v4.7h8.3v3.4h-8.3v8.4H46.5z"/>
</g>
</svg>
