<?xml version="1.0" encoding="utf-8"?>
<!-- Generator: Adobe Illustrator 22.1.0, SVG Export Plug-In . SVG Version: 6.00 Build 0)  -->
<svg version="1.1" id="Layer_1" xmlns="http://www.w3.org/2000/svg" xmlns:xlink="http://www.w3.org/1999/xlink" x="0px" y="0px"
	 viewBox="0 0 100 100" style="enable-background:new 0 0 100 100;" xml:space="preserve">
<style type="text/css">
	.st0{fill:#7A9ACE;}
</style>
<path class="st0" d="M43.5,65.1c4,1.5,10.6,1.3,15.3,0.6c0.8,1.9-0.4,4.5,0.4,6.6c0.4,1.1,1.7,1.9,3.8,3c0.4,0.2,1.1,0.2,1.5,0.4
	l0.4,0.4c0.8,0.6,2.5,1.7,3,1.7c0.6,0.2,1.3,0.2,1.7,0.2h2.1c3-0.2,5.9-1.1,6.8-2.1c1.5-1.9,0.6-6.2,0.4-10c-0.2-3.2-0.6-7.4,0-10
	c0.2-0.8,1.1-1.7,1.5-2.8c1.7-3.6,3.4-9.5,2.8-15.3c-0.4-2.5-1.7-4.9-1.9-6.8c4,0.4,7.9-0.4,11.2,0c2.1,0.2,3.8,1.7,5.7,1.5
	c0.4-1.1,1.7-1.7,1.7-3c0.2-1.5-0.4-3.2-1.1-4.2c-2.8-0.4-4.9,2.1-7.6,2.3c-0.8,0-1.9-0.2-3-0.4c-3.2-0.2-7.6,0.6-10.4,0
	c-1.9-0.4-3.6-2.5-5.5-3.4c-0.4-0.2-1.3,0-1.7-0.4c-0.6-0.2-1.1-0.6-1.5-0.6c-2.1-0.8-4.5-1.7-6.6-1.9c-4-1.1-9.5-1.1-14.6-0.6
	c-1.7,0.2-3.2,1.1-4.9,0.6c-1.3-0.2-1.5-1.1-2.3-1.5c-3.6-1.7-7.2,0.2-9.5,1.5c-1.7,0.8-3.8,2.1-5.5,2.3c-1.7,0.4-4.2,0-5.7,0
	c-1.9,0-4.5,0.4-6.6,0.6c-1.9,0.4-4.7,0.6-5.7,1.5c-3,1.7-3.8,9.5-4.9,14.2c-0.4,1.7-1.1,3.4-1.5,5.1c-0.6,3.8-1.1,7.9-1.1,11.5
	C0,63.6-0.8,74,3,76.8c0.8,0.6,3.6,1.5,4.5,1.1c0.2,0,1.3-1.1,1.5-1.5c0.2-0.6-0.4-1.5-0.4-2.3c0-1.7-0.4-3.8-0.4-5.5
	c0-4.5,0.8-9.3,1.9-11.2c0-0.2,0.6-0.2,0.6-0.4c0.2-0.4,0-0.8,0.4-1.1c0.8-0.8,2.1-1.7,3-1.9c2.5-1.1,4,0.2,5.1,1.7
	c2.1,2.8,2.5,7.4,2.8,11.9v2.8c0,1.1-0.4,2.1-0.4,2.8c0.6,1.7,3.6,2.5,4.9,3.4c0,0.6,0.2,1.5,0.6,1.9c0.6,1.1,1.7,1.7,2.3,2.1
	c3.2,1.7,11.2,0.6,12.7-1.5c0.2-0.2,0.4-0.4,0.4-0.8c0.2-0.6,0.6-1.3,0.6-1.7C44.4,72.5,42.9,69.1,43.5,65.1z M39.1,27.1
	C38.8,27.3,38.8,27.3,39.1,27.1"/>
</svg>
