<svg xmlns="http://www.w3.org/2000/svg" viewBox="0 0 100 100"><path d="M83.7 30.1c0-.7.3-1 1-1H98c.7 0 1 .3 1 1v66.7c0 .7-.2 1-1 1H84.9c-.8 0-1.1-.4-1.1-1.1l-.1-66.6zm-1-19.2c0-4.8 3.9-8.6 8.6-8.6 4.8 0 8.6 3.9 8.6 8.6.3 4.4-3 8.3-7.5 8.6h-1.3c-4.4.3-8.2-3.1-8.4-7.5v-1.1zM44.3 5.5c-.2-.7-.4-.8-1-.8H25.6c-.4 0-.7.3-.7.8 0 2.4-.3 4.7-.8 7l-24 84c-.2 1 0 1.3.8 1.3h12.4c.8 0 1.1-.2 1.3-.8l6.7-25.3h27L55.2 97c.2.6.6.7 1.3.7h14c.7 0 .8-.4.7-1.1L44.3 5.5zM24.7 57.9c3.5-13.1 8-29.8 9.8-39.7h.2c2.1 9.9 7.7 30.3 10.1 39.7H24.7z" fill="#ff7f18"/></svg>