<?xml version="1.0" encoding="utf-8"?>
<!-- Generator: Adobe Illustrator 22.1.0, SVG Export Plug-In . SVG Version: 6.00 Build 0)  -->
<svg version="1.1" id="Layer_1" xmlns="http://www.w3.org/2000/svg" xmlns:xlink="http://www.w3.org/1999/xlink" x="0px" y="0px"
	 viewBox="0 0 100 100" style="enable-background:new 0 0 100 100;" xml:space="preserve">
<style type="text/css">
	.st0{fill:#FF7F18;}
</style>
<path class="st0" d="M81.9,31.1c0-0.7,0.2-1,1-1h12.6c0.7,0,1,0.2,1,1v63c0,0.7-0.2,1-1,1H83c-0.8,0-1-0.4-1-1L81.9,31.1L81.9,31.1
	L81.9,31.1z M81,13c0-5.1,3.6-8.1,8.1-8.1c4.9,0,8.1,3.3,8.1,8.1c0,5.3-3.4,8.1-8.3,8.1C84.3,21.2,81,18.3,81,13z M45,57.4
	c-2.2-8.9-7.5-28.2-9.5-37.5h-0.2c-1.7,9.3-5.9,25.1-9.3,37.5H45L45,57.4z M22.8,70.3l-6.3,24c-0.2,0.7-0.4,0.8-1.2,0.8H3.6
	c-0.8,0-1-0.2-0.8-1.2l22.7-79.4c0.4-1.4,0.7-2.7,0.8-6.6c0-0.6,0.2-0.8,0.7-0.8h16.8c0.6,0,0.8,0.2,1,0.8l25.4,86.2
	c0.2,0.7,0,1-0.7,1H56.2c-0.7,0-1-0.2-1.2-0.7l-6.6-24L22.8,70.3L22.8,70.3z"/>
</svg>
