<svg xmlns="http://www.w3.org/2000/svg" viewBox="0 0 100 100"><path d="M81.9 31.1c0-.7.2-1 1-1h12.6c.7 0 1 .2 1 1v63c0 .7-.2 1-1 1H83c-.8 0-1-.4-1-1l-.1-63zM81 13c0-5.1 3.6-8.1 8.1-8.1 4.9 0 8.1 3.3 8.1 8.1 0 5.3-3.4 8.1-8.3 8.1-4.6.1-7.9-2.8-7.9-8.1zM45 57.4c-2.2-8.9-7.5-28.2-9.5-37.5h-.2C33.6 29.2 29.4 45 26 57.4h19zM22.8 70.3l-6.3 24c-.2.7-.4.8-1.2.8H3.6c-.8 0-1-.2-.8-1.2l22.7-79.4c.4-1.4.7-2.7.8-6.6 0-.6.2-.8.7-.8h16.8c.6 0 .8.2 1 .8l25.4 86.2c.2.7 0 1-.7 1H56.2c-.7 0-1-.2-1.2-.7l-6.6-24-25.6-.1z" fill="#ff7f18"/></svg>