<?xml version="1.0" encoding="utf-8"?>
<!-- Generator: Adobe Illustrator 22.1.0, SVG Export Plug-In . SVG Version: 6.00 Build 0)  -->
<svg version="1.1" id="Layer_1" xmlns="http://www.w3.org/2000/svg" xmlns:xlink="http://www.w3.org/1999/xlink" x="0px" y="0px"
	 viewBox="0 0 100 100" style="enable-background:new 0 0 100 100;" xml:space="preserve">
<style type="text/css">
	.st0{fill:#A4CA39;}
</style>
<path class="st0" d="M24.9,75c0,2.6,1.8,4.1,4.1,4.1h4.1v14.5c0,3.3,2.9,6.3,6.3,6.3c3.3,0,6.3-2.9,6.3-6.3V79.2h8.4v14.5
	c0,3.3,2.9,6.3,6.3,6.3c3.3,0,6.3-2.9,6.3-6.3V79.2h4.1c2.6,0,4.1-1.8,4.1-4.1V33.4H24.9V75z M14.4,33.4c-3.3,0-6.3,2.9-6.3,6.3V69
	c0,3.3,2.9,6.3,6.3,6.3s6.3-2.9,6.3-6.3V39.7C20.7,36.3,17.8,33.4,14.4,33.4z M85.6,33.4c-3.3,0-6.3,2.9-6.3,6.3V69
	c0,3.3,2.9,6.3,6.3,6.3c3.3,0,6.3-2.9,6.3-6.3V39.7C91.8,36.3,88.9,33.4,85.6,33.4z M64.5,9L70,3.5c0.8-0.8,0.8-2.2,0-2.9
	s-2.2-0.8-2.9,0l-6.3,6.3c-2.9-2-6.7-2.8-10.8-2.8s-7.9,0.8-11.2,2.6l-5.9-6.3c-0.8-0.4-2.6-0.4-3.3,0c-0.4,0.8-0.4,2.6,0,3.3
	l5.5,5.5c-5.9,4.5-10,11.8-10,20h50.1C75.1,20.8,70.8,13.4,64.5,9z M41.6,20.8h-4.1v-4.1h4.1V20.8z M62.6,20.8h-4.1v-4.1h4.1V20.8z"
	/>
</svg>
