<svg xmlns="http://www.w3.org/2000/svg" viewBox="0 0 100 100"><path d="M63.9 80.3V46.5L84 43.2c-3.1-16.9-18-29.6-35.7-29.6C28 13.6 11.6 29.9 11.6 50S28 86.4 48.1 86.4c1.9 0 3.8-.2 5.8-.5 1.4-2.4 4-4.4 7.5-5.2.6-.2 1.5-.4 2.5-.4zm-9.2-63.8l-3.8 17.1H47l-2.8-17.1c4.1-2.1 10.5 0 10.5 0zm-6.6 47.1c-7.5 0-13.6-6.1-13.6-13.6s6.1-13.6 13.6-13.6S61.7 42.5 61.7 50c-.2 7.5-6.1 13.6-13.6 13.6zm0-23.9c-5.8 0-10.3 4.7-10.3 10.3 0 5.8 4.7 10.3 10.3 10.3 5.8 0 10.3-4.7 10.3-10.3 0-5.8-4.6-10.3-10.3-10.3zm0 17.6c-4 0-7.3-3.3-7.3-7.3s3.3-7.3 7.3-7.3 7.3 3.3 7.3 7.3-3.3 7.3-7.3 7.3zm4.7 34.9c.2 1 .5 1.9 1 2.8-1.9.2-3.8.3-5.8.3C23.1 95.3 2.8 74.9 2.8 50S23.1 4.7 48.1 4.7c22.1 0 40.6 16 44.6 37.1l-4.4.7c-3.5-19-20.2-33.3-40.1-33.3C25.6 9.2 7.1 27.5 7.1 50s18.3 40.8 40.8 40.8c1.6 0 3-.2 4.5-.2.2.5.2 1.1.4 1.6zm44.4-48v39.2c0 3.3-2.4 5.9-6.3 6.8-4.2 1-8.2-.7-8.9-3.8-.9-3.1 1.9-6.6 6.1-7.7 1.9-.5 3.7-.3 5.2.2V55.2L72 59v29.5c0 2.8-2.6 5.6-6.1 6.5-4.2 1-8.4-.9-8.9-3.8-.9-3.1 1.9-6.6 6.1-7.5 1.9-.5 3.7-.3 5.2.2V49l28.9-4.8z" fill="#c6f"/></svg>