<svg id="Layer_1" xmlns="http://www.w3.org/2000/svg" viewBox="0 0 100 100"><style>.st3{fill:#ffc850}</style><path d="M5 16.2h90v67.5H5V16.2z" fill="#fffab4"/><path d="M63.5 72.5h6.3L58.6 61.2l-6.3 6.3 11.2 11.2v-6.2zm-27 0h-6.3l11.2-11.2 6.3 6.3-11.2 11.2v-6.3z" fill="#ff507d"/><path d="M20.8 29.8h58.5v9H20.8v-9z" fill="#ffdc64"/><path class="st3" d="M2.8 14v72h94.5V14H2.8zm90 60.8c-3.8 0-6.8 2.9-6.8 6.8H14c0-3.8-2.9-6.8-6.8-6.8V25.2c3.8 0 6.8-2.9 6.8-6.8h72c0 3.8 2.9 6.8 6.8 6.8v49.6z"/><circle class="st3" cx="50" cy="59" r="11.2"/></svg>