<svg xmlns="http://www.w3.org/2000/svg" viewBox="0 0 100 100"><path d="M37.2 95C17.1 95 8.1 75.7 8.1 54.9S17.1 15 37.2 15c6.2 0 11.3 1.5 15.2 4.3l-2.6 6.4c-2.8-1.9-7.1-3.2-11.4-3.2-14.1 0-19.5 16.3-19.5 32.6 0 16.1 5.6 32.3 19.5 32.3 4.3 0 8.6-1.5 11.4-3.2l2.6 6.8c-4 2.3-9.1 4-15.2 4zm44-55.9v54.8h-9.9V39.1h-6.9v-6.2h6.9v-8.6C71.3 12.7 77.7 5 89.8 5c.8 0 .8 0 2.1.2v6.4h-.8c-5.3 0-9.9 2.6-9.9 12.4v9h10.7v6.2c0-.1-10.7-.1-10.7-.1z" fill="#cbdbfd" stroke="#cbdbfd" stroke-width="5" stroke-miterlimit="10"/></svg>