<svg xmlns="http://www.w3.org/2000/svg" viewBox="0 0 100 100"><path d="M46.5 75.6v-8.7c0-.8-.3-.8-.7-.5-3.1 1-5.9 1.4-10.2 1.4-9.4 0-20.7-5.9-20.7-25.9 0-16.2 8.3-25.6 20.7-25.6 4.4 0 8.2.8 10.8 2 .3.1.8.1.8-.8V8.3c0-.6-.1-1-.7-1.2-2-1-5.9-1.5-11-1.5C15.8 5.7 3 20.3 3 42c0 25.4 14.6 36.2 31.2 36.2 4.6 0 9-.5 11.7-1.6.4 0 .6-.4.6-1zm20.6-40.3c1.7-.5 3.4-.8 5.6-.8 8.1 0 12.7 5.7 12.7 16.2 0 12.9-7.5 18-14.7 18-1.2 0-2.6-.1-3.5-.5l-.1-32.9zM74 24.4c-7.5 0-13.9 2.2-18.2 3.6-.2.1-.9.8-.9.9.2 1.5.6 4 .6 5.2v59.6c0 .5.5.7 1 .7l10.1-1c.5-.1.5-.6.5-1v-14c1 .1 2.2 0 3 0 13.6 0 27-9.5 27-28.6 0-14.5-8.1-25.4-23.1-25.4z" fill="#5fb66b"/></svg>