<svg xmlns="http://www.w3.org/2000/svg" viewBox="0 0 100 100"><path d="M46.5 75.7V67c0-.8-.3-.8-.7-.5-3.1 1-5.9 1.4-10.2 1.4-9.4 0-20.8-5.9-20.8-26 0-16.3 8.3-25.7 20.8-25.7 4.4 0 8.2.8 10.8 2 .3.1.8.1.8-.8V8.1c0-.6-.1-1-.7-1.2-2-1-5.9-1.5-11-1.5C15.7 5.5 2.8 20.2 2.8 42c0 25.5 14.7 36.4 31.3 36.4 4.6 0 9-.5 11.8-1.6.4-.1.6-.5.6-1.1zm20.7-40.5c1.7-.5 3.4-.8 5.6-.8 8.1 0 12.8 5.7 12.8 16.3 0 13-7.5 18.1-14.8 18.1-1.2 0-2.6-.1-3.5-.5l-.1-33.1zm6.9-10.9c-7.5 0-14 2.2-18.3 3.6-.2.1-.9.8-.9.9.2 1.5.6 4 .6 5.2v59.9c0 .5.5.7 1 .7l10.1-1c.5-.1.5-.6.5-1V78.5c1 .1 2.2 0 3 0 13.7 0 27.1-9.5 27.1-28.7.1-14.6-8-25.5-23.1-25.5z" fill="#5fb66b"/></svg>