<svg xmlns="http://www.w3.org/2000/svg" viewBox="0 0 100 100"><path d="M49.6 5.7c-8.3 0-14.9 7.9-14.9 17.5s6.8 17.5 14.9 17.5 14.9-7.9 14.9-17.5S57.7 5.7 49.6 5.7zm0 28.3c-4.5 0-8.3-4.9-8.3-10.7 0-6 3.8-10.7 8.3-10.7s8.3 4.9 8.3 10.7c0 6-3.8 10.7-8.3 10.7zm-30.3 3.4V9.1c0-1.9-1.5-3.4-3.4-3.4s-3.4 1.5-3.4 3.4v28.3c0 1.9 1.5 3.4 3.4 3.4s3.4-1.5 3.4-3.4zm-3.4 19.4C7.6 56.8 1 64.7 1 74.3s6.8 17.5 14.9 17.5 14.9-7.9 14.9-17.5c.2-9.6-6.6-17.5-14.9-17.5zm0 28.4c-4.5 0-8.3-4.9-8.3-10.7 0-6 3.8-10.7 8.3-10.7s8.3 4.9 8.3 10.7c.2 5.8-3.6 10.7-8.3 10.7zm36.9 3.2V60.2c0-1.9-1.5-3.4-3.4-3.4S46 58.3 46 60.2v28.3c0 1.9 1.5 3.4 3.4 3.4 1.9-.1 3.4-1.6 3.4-3.5zm34.5-48.6V11.6c0-1.9-1.5-3.4-3.4-3.4s-3.4 1.5-3.4 3.4v28.3c0 1.9 1.5 3.4 3.4 3.4 1.9-.1 3.4-1.6 3.4-3.5zm-3.2 19.4c-8.3 0-14.9 7.9-14.9 17.5S76 94.3 84.1 94.3 99 86.4 99 76.8c0-9.7-6.8-17.6-14.9-17.6zm0 28.5c-4.5 0-8.3-4.9-8.3-10.7 0-6 3.8-10.7 8.3-10.7s8.3 4.9 8.3 10.7c0 5.8-3.8 10.7-8.3 10.7z" fill="#bababa" stroke="#bababa" stroke-width="2" stroke-miterlimit="10"/></svg>