<svg id="Layer_1" xmlns="http://www.w3.org/2000/svg" viewBox="0 0 100 100"><style>.st1{fill:#fff}</style><path d="M94.6 13.2h-42v73.5h42c1.5 0 2.6-1.2 2.6-2.6V15.9c0-1.5-1.1-2.7-2.6-2.7z" fill="#2196f3"/><path class="st1" d="M52.6 26.4h36.8v5.3H52.6zm0 10.5h36.8v5.2H52.6zm0 10.5h36.8v5.2H52.6zm0 10.5h36.8v5.3H52.6zm0 10.5h36.8v5.2H52.6z"/><path fill="#0d47a1" d="M57.9 97.3L2.8 86.8V13.2L57.9 2.7z"/><path class="st1" d="M42.3 68h-7l-4.6-23.1c-.3-1.3-.4-2.7-.4-4h-.1c-.1 1.6-.3 3-.5 4L24.9 68h-7.3l-7.3-36h6.9l3.9 24c.2 1 .3 2.4.4 4.1h.1c0-1.3.3-2.7.6-4.2l5-23.9h6.7l4.6 24.2c.2.9.3 2.2.4 3.9h.1c.1-1.3.2-2.6.4-4l3.9-24h6.3L42.3 68z"/></svg>