<svg id="Layer_1" xmlns="http://www.w3.org/2000/svg" viewBox="0 0 100 100"><style>.st0{fill:#0cf}</style><ellipse class="st0" cx="46.1" cy="15.2" rx="44.3" ry="14.2"/><path class="st0" d="M42.8 79.9c-16.4-.4-32.4-3.5-40.9-9.7v12.9c2.5 7.2 21.5 12.7 44.3 12.7 4.3 0 8.4-.2 12.3-.6-7.2-2.6-12.9-8.2-15.7-15.3zm-1.7-6.3c-.2-1.2-.3-2.5-.3-3.8 0-4.3 1-8.4 2.8-12-16.7-.3-33.1-3.4-41.7-9.7v11.4c0 7.3 17.1 13.3 39.2 14.1zm5-22.1h1.8c5-5.5 12.1-8.9 20.1-8.9 4.8 0 9.2 1.2 13.1 3.4 5.8-2.4 9.3-5.4 9.3-8.7V26c-9.1 6.6-26.7 9.8-44.3 9.8S11 32.7 1.9 26v11.3c0 7.9 19.8 14.2 44.2 14.2z"/><circle cx="69.5" cy="70.3" r="26.7" fill="none" stroke="#0cf" stroke-width="5" stroke-miterlimit="10"/><path class="st0" d="M70.7 57.5L65 63.1c1.7-.5 3.5-.5 5.2-.1.2.1.5.2.7.2l2.8-2.8c1.7-1.7 4.3-1.7 6 0s1.7 4.3 0 6l-3.8 3.8-2.2 2.2c-.6.6-1.2.9-1.9 1.1-1.4.3-3 .1-4.1-1.1-.8-.8-1.1-1.7-1.2-2.7-.3.1-.7.3-.9.6L63 73c.4.9 1 1.8 1.7 2.5 1.1 1.1 2.5 1.8 3.8 2.2 2.2.6 4.6.3 6.5-.9.6-.3 1.2-.8 1.7-1.3l6-6c3.3-3.3 3.3-8.7 0-12.1-3.3-3.3-8.7-3.3-12 .1zm2.6 21.4c-1.9.6-3.9.5-5.8-.2l-2.8 2.8c-1.7 1.7-4.3 1.7-6 0-1.7-1.7-1.7-4.3 0-6l6-6c.6-.6 1.2-.9 1.9-1.1 1.4-.3 3-.1 4.1 1.1.8.8 1.1 1.7 1.2 2.7.3-.1.6-.3.9-.6l2.6-2.6c-.4-.9-1-1.8-1.7-2.5-1.1-1.1-2.5-1.8-3.8-2.2-2.2-.6-4.6-.3-6.6.9-.6.3-1.2.8-1.7 1.3l-6 5.9c-3.3 3.3-3.3 8.7 0 12.1 3.3 3.3 8.7 3.3 12.1 0l5.6-5.6z"/></svg>