<svg xmlns="http://www.w3.org/2000/svg" viewBox="0 0 100 100"><path d="M60.2 87.2c-.9-1.9-1-3.1-.3-4.7.4-.8 1.2-1.7 1.9-2 1.1-.6 3.2-.8 6.3-.8 3 0 3.9-.3 4.2-1.5.1-.5-.1-1.3-.5-1.8-.2-.2-.6-.5-1-.7-.7-.3-.7-.3-2-.3-1.4 0-1.4 0-2.9.5-2 .7-2.7.8-4.2.7-1.5-.1-2.1-.2-3.5-.9-2.5-1.2-4.8-3.5-5.6-5.7-.3-.7-.4-1.2-.3-1.7 0-.3.2-.2.6.6 1.6 2.9 4.2 5.3 6.6 6 .7.2 1.9.2 2.8.1.3-.1 1.5-.4 2.6-.7 1.1-.3 2.4-.6 2.9-.7 1-.2 2.9-.2 4.2-.1 1.4.1 2.2-.4 2.2-1.3 0-.6-.3-1.1-1-1.9-.6-.7-.7-.9-.7-1.5 0-.9.7-1.7 3.2-3.7 1.5-1.2 2-2.3 1.9-4.1-.1-1.1-.4-1.8-.9-2.4l-.4-.4-.7.1c-.4 0-1.1.1-1.6.1-.8 0-1 0-1.5-.3-1.6-.8-3.2-3-4.2-5.7-.5-1.5-1.2-2.7-2.6-4.8-1.8-2.6-2-2.9-1.6-3.7.1-.2.2-.8.2-1.3s.1-.9.1-.9.2.1.3.3c.4.6.6.7 1.7.4 1.4-.3 2.6-.2 3.5.2.3.2.7.3.7.3.2.1-.1-1.4-.6-3.1-.3-1-.6-1.9-.6-2.1 0-.6.7-.4 1.5.6.9 1.2 1.3 1.9 2 4.8.9 3.3 1.6 5 2.6 6.4.9 1.2 1.4 1.3 2.1.7.2-.2.5-.4.5-.4.1 0 .6.5 1.1 1 1.6 1.6 2.7 2.1 4.4 2.2.7 0 1 0 1.1-.1.2-.2.2-.2-.1-.3-1.1-.4-2.1-1.3-3.2-3-.8-1.3-2.3-4.2-3.1-6.2-1.1-2.6-2-4.2-3.5-5.8-2.4-2.6-4.9-3.8-7.9-3.8-1.6 0-2.3.2-3.9 1.1-1.6.8-2.4 1.1-3.2 1.2-.9.1-1.5-.1-4-1.1-4-1.7-5.9-2.2-8.8-2.2-1.9 0-2.3.1-5.7 1.5-1.4.6-2.9 1.2-3.5 1.3-3.7 1-5.4 1.9-7.5 4-3.1 3.2-4.8 7.4-5.5 14-.2 2.4-.7 3.7-2.5 6.6-.4.6-.8 1.3-.9 1.6-.6 1.2.2 1.3 2.5.1 2.1-1 3.1-1.8 4.4-3.7 1.2-1.7 1.4-1.8 1.9-1 .5.7.6.6 1.4-2 .5-1.8 1-2.9 1.3-3 .1 0 .3 0 .4.1.1.1.3.1.4.1.3-.1 1-.9 1.4-1.7.9-1.8 1.2-2.9 1.3-5.4.1-2.1.4-3.4 1.1-4.7 1.1-2.2 3.2-3.7 5.6-3.9.9-.1 1.3 0 1.3.3s-.3.5-1 .7c-.9.3-1.4.6-1.9 1.2-.9 1-1.3 2.3-1.6 4.9-.6 7.2-.8 7.8-2.1 10.7l-.7 1.4v1.2c0 1.3.2 2 .5 2 .1 0 .3-.3.6-.7.5-.9 1.2-1.6 1.5-1.6s.4.4.2 1.2c-.3 1.4-.1 3.7.6 6.8.4 2.1 1 3.8 1.2 3.8.1 0 .3-.3.5-.8.7-1.3 1.7-2.6 2-2.4.1 0 .1.2.1.4s.2 1.3.4 2.4c1.3 7.5 3.3 12.2 6.6 15.3 1.9 1.8 4.4 3 7 3.5 1.5.3 1.9.4 1.9.2zm10.3-34c.1-.1.2-1.2.4-2.4.6-3.9.4-5.6-.7-6.5-.3-.3-.9-.6-.7-.4 0 0-.1.1-.3.2-.8.3-.5 1.5.3 1.4.3 0 .4-.1.6-.4l.2-.3.1.4c.2 1.3-.6 2.4-1.9 2.4-1.1 0-1.9-.8-1.9-1.9 0-.9.7-1.8 1.6-1.9l.5-.1-.5-.1c-.3 0-.8-.1-1.3-.1-.9 0-1.5.2-1.7.6-.3.5 0 1 1.5 2.5s1.7 1.9 2.3 3.9c.6 2 .9 2.8 1.3 2.8 0 .2.1.1.2-.1zm-54.8-7.3c-.2-.5-.7-1.9-.8-2.5-.2-1-.2-2.3 0-2.5.3-.3.6-.1 1.6 1 2.1 2.1 3.7 2.9 6.1 3l1.2.1.6-.9c3-4.7 6.9-8.1 10.9-9.5 1.2-.4 1.7-.7 1.8-.9.1-.3 0-.4-.8-.8-.4-.2-.7-.5-.8-.6-.1-.5 2.5-1.1 6-1.4 1.9-.2 2.4-.3 2.4-.4 0 0-.4-.3-.9-.5-1.3-.7-1.4-1-.2-1.4.8-.2 3-.2 4.4 0 2.2.4 4.5 1.4 7 3 3.3 2.1 3.9 2.4 5.1 2.6 1.4.2 2.6-.3 4.3-1.9 1.4-1.3 2.2-1.7 2.7-1.4.2.1.2.2.2.6 0 .3.1.5.1.5.1 0 .8.1 1.7.1 1.7 0 1.6 0 1.9.5 0 .1.4.3.8.4.8.3 1.8.8 2.6 1.3.8.6.9.6.8.4-1.7-2.8-4.9-6.6-7.2-8.2-1.1-.8-2.9-1.8-3.9-2s-2.5-.2-3.3 0-1.8.8-2.2 1.2c-.2.2-.2.3-.1.4.1.1.2.1.9-.1.6-.2.9-.2 1.9-.3 1.9 0 2 .2.4.6-1.8.4-3 1.2-3.7 2.4-.2.3-.3.5-.3.5s-.3-.2-.7-.5c-3.3-2.7-6.7-4.4-9.9-5.1-.9-.2-1.4-.2-2.8-.2-1.6 0-1.8 0-3 .3-1.6.4-3.6 1.4-5 2.4-1.9 1.4-3.8 3.5-6 6.5-2.1 2.8-4.5 4.7-7.1 5.5-2.4.8-4.5.6-6.3-.6-1.1-.7-1.3-.8-1.7-.8s-.6.1-.7.8l-.2.6c-.2.2-1.1-1.2-1.5-2.3-.4-1.2-.5-2.1-.4-3.6.2-3.8 1.7-7.4 4.8-11.2 1-1.3 2.7-2.9 3.7-3.6 1.1-.8 1.2-.9 1.2-1.3 0-.3-.1-.4-.6-.9l-.6-.6c0-.1.3-.2 1.8-.4.8-.1 2.7-.2 4.2-.2 2.9-.1 4.2 0 6.5.4 1.6.3 3.9.2 4.7-.1l.5-.2-.9-.2c-.6-.2-1.7-.6-3.5-1.5-2.9-1.5-3.7-1.7-5.8-1.9-1.1-.1-3.8 0-4 .2 0 0 .1.2.4.4.2.2.4.5.4.6 0 .4-.2.4-3.4.7-2.2.2-5.1.9-7 1.8-1.4.6-1.4.7.1.6 1.4 0 2.2.1 2.5.4.2.2.2.2 0 .4-.1.1-.9.4-1.7.7-4 1.4-5.8 2.7-7.3 5.3-1.3 2.2-2.4 6.4-2.4 9.2 0 2.5.7 5.6 2 8.6.4 1 1 2.1 1.1 2.1v-1.1c-.1-1.8.4-3.4 1-3.8.4-.2.5 0 .9 1.3.8 2.9 2 5.3 3.4 6.8 1.3 1.2 2.3 1.7 2.1 1.2zm71.6-4c.8-.4 1.7-1.1 2.3-1.7.2-.2.8-.9 1.3-1.6 1-1.3 1.4-1.6 1.7-1.5.1.1.2.2.1.7 0 .3-.1.9-.1 1.3l-.1.7.2-.2c.7-.6 2.2-3.4 2.8-5.2.6-1.9.8-3.3.8-5.5-.1-2.1-.3-3.2-1-5-1.3-3.5-3.8-6.7-6.9-8.8-2.1-1.4-3.9-2.1-5.7-2.1-.9 0-1.1 0-1.9.4-2 .8-4.4 1.3-7.8 1.5l-1.6.1.5.2c.4.2.8.2 3.2.3 2.8.1 3.7.2 5.1.5 1.9.5 4.1 1.4 5.8 2.6 1.1.7 2.5 2.1 3.1 3 .9 1.3 1.7 3.4 1.7 4.4 0 .4 0 .4-.2.4-.1 0-.5-.2-.7-.4-.6-.5-.7-.5-.6-.1.1.5.9 2.7 1.3 3.9.4.9.4 1.1.4 2.1 0 .8 0 1.2-.2 1.6-.3.7-.5.6-.8 0-.2-.3-.5-.8-.8-1.1-.8-.8-1-.8-1.4.6-.1.5-.5 1.5-.8 2.1-.9 1.8-2.2 2.9-4 3.2-1.3.2-3.1-.1-4.7-.8l-.7-.3.3.3c.5.5 1.5 1.2 2.1 1.6 1.2.6 1.9.8 4.1.8l2 .1.1.3c.2.4 0 .9-.5 1.7l-.4.6c.2 0 1.1-.3 2-.7z" fill="#ffdd92"/><path d="M58.1 91.2c-2.4-.4-4.1-.9-6-1.8-3.3-1.6-5.9-4-7.3-6.7l-.4-.8-.3.6c-.4.8-.5.9-1 .6-.7-.3-1.5-1.2-2-2.2s-.9-2.1-1.2-3.9c-.3-1.5-.4-1.8-.6-1.8-.1 0-.3.4-.5.9-.5 1-.7 1.1-1.3.5-.9-.9-1.5-2.1-1.8-4.4-.3-2-.3-2.1-.5-2.1-.1 0-.3.4-.5.8s-.4.8-.5.8c-.2 0-1.1-2-1.4-3-.3-1.3-.4-3.6-.2-5.3.1-.7.2-1.3.2-1.5 0-.1-.2.1-.8.5-3.3 2.7-9 4.8-13.4 4.8-1.9 0-2.9-.3-3.2-1.1-.2-.6 0-1.1 1.1-2.4 1.7-2 2.8-3.8 3.7-6.2.3-.9 1.3-4.6 1.5-5.7l.1-.3h-.9c-2.7 0-5.7-.7-8-1.8-5.1-2.4-8.4-7.3-9.7-14.2C2 28.7 2.9 23 5.9 18.4c3.4-5.1 9.3-8.5 16.4-9.5 1.6-.2 4.7-.2 6.1 0 2.3.4 3.7.9 5.5 2.2.6.4 1.4.9 1.7 1.1.8.4 2.3.9 3.2 1 1.3.2 1.5.3 1.5.6 0 1.2-1.6 2-4.7 2.4-1 .1-2 .1-6.3-.1-1.4-.1-1.8 0-2.9.1-3.2.5-6 2-8.3 4.3-2.1 2.1-3.5 4.4-4.2 7-.2.9-.3 1.2-.3 2.6s0 1.6.3 2.4c1.3 3.6 4.9 4.9 8.7 3 1.8-.9 3.4-2.4 5-4.5 3.2-4.4 5-6.3 7.9-8 5.1-3.1 10.8-2.6 15.4 1.3.6.5.7.5.8.4s.5-.4.9-.6c2.5-1.8 5.6-2.6 8.4-2.2 1.7.3 4 1.3 5.8 2.5 1.8 1.3 3.1 2.6 6.3 6.5 2.2 2.7 3.6 4 5.2 4.8 1 .5 1.7.7 2.5.7 2.9 0 5.2-4.1 5.2-9.4 0-3-.8-5.6-2.3-7.2-1.5-1.6-3.4-2.6-5.9-3-.5-.1-1.8-.2-3-.3-2.7-.1-3.8-.3-4.6-.6-1.2-.4-2.2-1.2-2.6-1.9-.2-.4-.2-.4 0-.5.1-.1.7-.2 1.7-.2 2.9-.1 5.2-.6 9.1-1.9 2.9-1 3.8-1.1 5.4-.9 2.5.3 4.6 1.4 6.8 3.5 3.9 3.8 6.3 9.3 6.5 14.7.1 3.4-.4 5.2-2.8 9.9-1.9 3.8-3.6 5.7-6 6.9-1.3.7-2.7 1-5 1.4-.7.1-1.3.2-1.3.3 0 .3 1.3 2 2.2 2.9 1.1 1.1 1.9 1.6 3.3 2 .8.2 1.3.5 1.3.9 0 .6-1.1 1.4-2.4 1.9s-2.5.6-4.1.6c-3.2-.1-6.1-1.4-8.6-4-.6-.6-1.3-1.3-1.4-1.5s-.3-.4-.3-.4-.1.4-.1.9-.3 1.7-.5 2.6L71 55l.3.3c1.2 1.3 3 1.8 4.6 1.5.8-.2 1.2-.1 1.9.5.9.8 1.4 2.1 1.4 3.6 0 1.8-.5 2.9-2.1 4.5-1.7 1.7-2.2 2.1-2.4 2.7-.5.9-.3 1.5.7 2.4.9.8 1 1.2.8 1.9-.1.3-.3.6-.5.9-.4.5-2 1.6-2.8 1.9l-.6.2.3.4c.7.9.9 2.3.6 3.5-.3 1.1-1.4 2.2-2.3 2.4-.3 0-.6 0-1.1-.2-.8-.3-1.4-.3-2-.1-.7.2-1.1.6-1.4 1.3-.3.5-.3.6-.3 1.9 0 2.3-.4 3.7-1.6 4.8-1.2 1.1-2.7 1.7-4.8 1.8-.7.1-1.4.1-1.6 0zm1.9-3.8c-.9-1.9-1-3.1-.3-4.7.4-.8 1.2-1.7 1.9-2 1.1-.6 3.2-.8 6.3-.8 3 0 3.9-.3 4.2-1.5.1-.5-.1-1.3-.5-1.8-.2-.2-.6-.5-1-.7-.7-.3-.7-.3-2-.3-1.4 0-1.4 0-2.9.5-2 .7-2.7.8-4.2.7-1.5-.1-2.1-.2-3.5-.9-2.5-1.2-4.8-3.5-5.6-5.7-.3-.7-.4-1.2-.3-1.7 0-.3.2-.2.6.6 1.6 2.9 4.2 5.3 6.6 6 .7.2 1.9.2 2.8.1.3-.1 1.5-.4 2.6-.7 1.1-.3 2.4-.6 2.9-.7 1-.2 2.9-.2 4.2-.1 1.4.1 2.2-.4 2.2-1.3 0-.6-.3-1.1-1-1.9-.6-.7-.7-.9-.7-1.5 0-.9.7-1.7 3.2-3.7 1.5-1.2 2-2.3 1.9-4.1-.1-1.1-.4-1.8-.9-2.4l-.5-.6-.7.1c-.4 0-1.1.1-1.6.1-.8 0-1 0-1.5-.3-1.6-.8-3.2-3-4.2-5.7-.5-1.5-1.2-2.7-2.6-4.8-1.8-2.6-2-2.9-1.6-3.7.1-.2.2-.8.2-1.3s.1-.9.1-.9.2.1.3.3c.4.6.6.7 1.7.4 1.4-.3 2.6-.2 3.5.2.3.2.7.3.7.3.2.1-.1-1.4-.6-3.1-.3-1-.6-1.9-.6-2.1 0-.6.7-.4 1.5.6.9 1.2 1.3 1.9 2 4.8.9 3.3 1.6 5 2.6 6.4.9 1.2 1.4 1.3 2.1.7.2-.2.5-.4.5-.4.1 0 .6.5 1.1 1 1.6 1.6 2.7 2.1 4.4 2.2.7 0 1 0 1.1-.1.2-.2.2-.2-.1-.3-1.1-.4-2.1-1.3-3.2-3-.8-1.3-2.3-4.2-3.1-6.2-1.1-2.6-2-4.2-3.5-5.8-2.4-2.6-4.9-3.8-7.9-3.8-1.6 0-2.3.2-3.9 1.1-1.6.8-2.4 1.1-3.2 1.2-.9.1-1.5-.1-4-1.1-4-1.7-5.9-2.2-8.8-2.2-1.9 0-2.3.1-5.7 1.5-1.4.6-2.9 1.2-3.5 1.3-3.7 1-5.4 1.9-7.5 4-3.1 3.2-4.8 7.4-5.5 14-.2 2.4-.7 3.7-2.5 6.6-.4.6-.8 1.3-.9 1.6-.6 1.2.2 1.3 2.5.1 2.1-1 3.1-1.8 4.4-3.7 1.2-1.7 1.4-1.8 1.9-1 .5.7.6.6 1.4-2 .5-1.8 1-2.9 1.3-3 .1 0 .3 0 .4.1.1.1.3.1.4.1.3-.1 1-.9 1.4-1.7.9-1.8 1.2-2.9 1.3-5.4.1-2.1.4-3.4 1.1-4.7 1.1-2.2 3.2-3.7 5.6-3.9.9-.1 1.3 0 1.3.3s-.3.5-1 .7c-.9.3-1.4.6-1.9 1.2-.9 1-1.3 2.3-1.6 4.9-.6 7.2-.8 7.8-2.1 10.7l-.5 1.6v1.2c0 1.3.2 2 .5 2 .1 0 .3-.3.6-.7.5-.9 1.2-1.6 1.5-1.6s.4.4.2 1.2c-.3 1.4-.1 3.7.6 6.8.4 2.1 1 3.8 1.2 3.8.1 0 .3-.3.5-.8.7-1.3 1.7-2.6 2-2.4.1 0 .1.2.1.4s.2 1.3.4 2.4c1.3 7.5 3.3 12.2 6.6 15.3 1.9 1.8 4.4 3 7 3.5 1.4.2 1.9.3 1.8.2zm1.3-21.9c0-.1-.1-.4-.1-.6-.1-.6-.4-1.1-.8-1.2-.2-.1-.4 0-.8.2-.3.2-.6.4-.8.4-1 .3-2.5-1-2.3-2s2.1-1.6 3.4-1.1c1 .5 2.4 2.4 2.4 3.4 0 .8-.8 1.4-1 .9zm-6.2-.7c-1-1.2-1.2-3.5-.6-4.9.8-1.7 2.9-2.8 5-2.7 2.2.1 4.6 1.4 6.9 3.6.8.8.9.9.9 1.2 0 .7-.7 1-1.3.6-.2-.1-.8-.7-1.5-1.3-3-2.8-5-3.5-7-2.6-1.7.8-2.5 2.8-2.1 5.5.1.4.1.8.1.8 0 .2-.2 0-.4-.2zm-6.1-16c-1-.6-1.5-1.6-1.6-2.7-.1-1 .2-1.5.8-2.2.6-.6 1.2-.9 2.1-1.2.7-.2 2.4-.2 3-.1.3.1.4.1.5-.1.1-.1.2-.5.3-.9s.2-.7.3-.7c.2 0 .2.2.4 1.3.1.6.2.9.4 1.2.4.5.3 1.2-.2 1.4-.2.1-.4 0-1.1-.3-.9-.4-1.5-.5-1.8-.2-.4.4-.1 1.2.5 1.2.4 0 .6-.1.7-.4l.1-.3.1.4c.2.7-.1 1.6-.8 2.1-.4.3-.5.3-1.1.3s-.8 0-1.1-.3c-.4-.3-.9-1.1-.9-1.5 0-.5.2-1.1.6-1.4.3-.3.3-.4.1-.3-.9.3-1.4.9-1.6 1.6-.2.8.1 1.8.7 2.6.2.2.3.4.3.5.1.3-.3.3-.7 0zm21.3 4.6c.1-.1.2-1.2.4-2.4.6-3.9.4-5.6-.7-6.5-.3-.3-.9-.6-.7-.4 0 0-.1.1-.3.2-.8.3-.5 1.5.3 1.4.3 0 .4-.1.6-.4l.2-.3.1.4c.2 1.3-.6 2.4-1.9 2.4-1.1 0-1.9-.8-1.9-1.9 0-.9.7-1.8 1.6-1.9l.5-.1-.5-.1c-.3 0-.8-.1-1.3-.1-.9 0-1.5.2-1.7.6-.3.5 0 1 1.5 2.5s1.7 1.9 2.3 3.9c.6 2 .9 2.8 1.3 2.8 0 .1.2 0 .2-.1zm-54.8-7.3c-.2-.5-.7-1.9-.8-2.5-.2-1-.2-2.3 0-2.5.3-.3.6-.1 1.6 1 2.1 2.1 3.7 2.9 6.1 3l1.2.1.6-.9c3-4.7 6.9-8.1 10.9-9.5 1.2-.4 1.7-.7 1.8-.9.1-.3 0-.4-.8-.8-.4-.2-.7-.5-.8-.6-.1-.5 2.5-1.1 6-1.4 1.9-.2 2.4-.3 2.4-.4 0 0-.4-.3-.9-.5-1.3-.7-1.4-1-.2-1.4.8-.2 3-.2 4.4 0 2.2.4 4.5 1.4 7 3 3.3 2.1 3.9 2.4 5.1 2.6 1.4.2 2.6-.3 4.3-1.9 1.4-1.3 2.2-1.7 2.7-1.4.2.1.2.2.2.6 0 .3.1.5.1.5.1 0 .8.1 1.7.1 1.7 0 1.6 0 1.9.5 0 .1.4.3.8.4.8.3 1.8.8 2.6 1.3.8.6.9.6.8.4-1.7-2.8-4.9-6.6-7.2-8.2-1.1-.8-2.9-1.8-3.9-2s-2.5-.2-3.3 0-1.8.8-2.2 1.2c-.2.2-.2.3-.1.4.1.1.2.1.9-.1.6-.2.9-.2 1.9-.3 1.9 0 2 .2.4.6-1.8.4-3 1.2-3.7 2.4-.2.3-.3.5-.3.5s-.3-.2-.7-.5c-3.3-2.7-6.7-4.4-9.9-5.1-.9-.2-1.4-.2-2.8-.2-1.6 0-1.8 0-3 .3-1.6.4-3.6 1.4-5 2.4-1.9 1.4-3.8 3.5-6 6.5-2.1 2.8-4.5 4.7-7.1 5.5-2.4.8-4.5.6-6.3-.6-1.1-.7-1.3-.8-1.7-.8s-.6.1-.7.8l-.2.6c-.2.2-1.1-1.2-1.5-2.3-.4-1.2-.5-2.1-.4-3.6.2-3.8 1.7-7.4 4.8-11.2 1-1.3 2.7-2.9 3.7-3.6 1.1-.8 1.2-.9 1.2-1.3 0-.3-.1-.4-.6-.9l-.6-.6c0-.1.3-.2 1.8-.4.8-.1 2.7-.2 4.2-.2 2.9-.1 4.2 0 6.5.4 1.6.3 3.9.2 4.7-.1l.5-.2-.9-.2c-.6-.2-1.7-.6-3.5-1.5-2.9-1.5-3.7-1.7-5.8-1.9-1.1-.1-3.8 0-4 .2 0 0 .1.2.4.4.2.2.4.5.4.6 0 .4-.2.4-3.4.7-2.2.2-5.1.9-7 1.8-1.4.6-1.4.7.1.6 1.4 0 2.2.1 2.5.4.2.2.2.2 0 .4-.1.1-.9.4-1.7.7-4 1.4-5.8 2.7-7.3 5.3C6.1 24 5 28.2 5 31c0 2.5.7 5.6 2 8.6.4 1 1 2.1 1.1 2.1v-1.1c.4-1.6.9-3.2 1.5-3.6.4-.2.5 0 .9 1.3.8 2.9 2 5.3 3.4 6.8.8.9 1.8 1.4 1.6 1zM87.1 42c.8-.4 1.7-1.1 2.3-1.7.2-.2.8-.9 1.3-1.6 1-1.3 1.4-1.6 1.7-1.5.1.1.2.2.1.7 0 .3-.1.9-.1 1.3l-.1.7.2-.2c.7-.6 2.2-3.4 2.8-5.2.6-1.9.8-3.3.8-5.5-.1-2.1-.3-3.2-1-5-1.3-3.5-3.8-6.7-6.9-8.8-2.1-1.4-3.9-2.1-5.7-2.1-.9 0-1.1 0-1.9.4-2 .8-4.4 1.3-7.8 1.5l-1.6.1.5.2c.4.2.8.2 3.2.3 2.8.1 3.7.2 5.1.5 1.9.5 4.1 1.4 5.8 2.6 1.1.7 2.5 2.1 3.1 3 .9 1.3 1.7 3.4 1.7 4.4 0 .4 0 .4-.2.4-.1 0-.5-.2-.7-.4-.6-.5-.7-.5-.6-.1.1.5.9 2.7 1.3 3.9.4.9.4 1.1.4 2.1 0 .8 0 1.2-.2 1.6-.3.7-.5.6-.8 0-.2-.3-.5-.8-.8-1.1-.8-.8-1-.8-1.4.6-.1.5-.5 1.5-.8 2.1-.9 1.8-2.2 2.9-4 3.2-1.3.2-3.1-.1-4.7-.8l-.7-.3.3.3c.5.5 1.5 1.2 2.1 1.6 1.2.6 1.9.8 4.1.8l2 .1.1.3c.2.4 0 .9-.5 1.7l-.4.6c.2 0 1.1-.3 2-.7z" fill="#ca9f30"/></svg>