<?xml version="1.0" encoding="utf-8"?>
<!-- Generator: Adobe Illustrator 22.1.0, SVG Export Plug-In . SVG Version: 6.00 Build 0)  -->
<svg version="1.1" id="Layer_1" xmlns="http://www.w3.org/2000/svg" xmlns:xlink="http://www.w3.org/1999/xlink" x="0px" y="0px"
	 viewBox="0 0 100 100" style="enable-background:new 0 0 100 100;" xml:space="preserve">
<style type="text/css">
	.st0{fill:#E89131;}
</style>
<path class="st0" d="M13.6,40.9c3.8,0,7-1.3,9.7-4c2.7-2.7,4-5.9,4-9.7c0-3.8-1.3-7-4-9.7c-2.7-2.7-5.9-4-9.7-4c-3.8,0-7,1.3-9.7,4
	c-2.7,2.7-4,5.9-4,9.7c0,3.8,1.3,7,4,9.7C6.6,39.6,9.8,40.9,13.6,40.9z M34.1,61.4L22.7,50L0,72.7v13.6h100V54.5L70.5,25L34.1,61.4z
	"/>
</svg>
