<?xml version="1.0" encoding="utf-8"?>
<!-- Generator: Adobe Illustrator 22.1.0, SVG Export Plug-In . SVG Version: 6.00 Build 0)  -->
<svg version="1.1" id="Layer_1" xmlns="http://www.w3.org/2000/svg" xmlns:xlink="http://www.w3.org/1999/xlink" x="0px" y="0px"
	 viewBox="0 0 100 100" style="enable-background:new 0 0 100 100;" xml:space="preserve">
<style type="text/css">
	.st0{fill:#ED9B58;}
	.st1{fill:#6C97D3;}
</style>
<path class="st0" d="M2.3,75.6V45.4c0-2,0.6-3,2.4-4C27.5,28.8,50.1,16.2,72.9,3.6C76.1,1.8,79.1,0,83.1,0c6.4,0.2,11.8,3.8,13.8,10
	c2,6,0,13.2-5.4,16.4c-6,3.8-12.2,7-18.4,10.4C50.3,49.4,27.5,62,4.5,74.6C3.9,75,3.5,75.2,2.3,75.6z"/>
<path class="st1" d="M38.5,64c0.6-0.4,1.4-0.8,2-1.2c7.4-4.2,14.8-8.2,22.2-12.4c1.6-1,2.8-1,4.2,0.4c8.4,7.8,17.2,15.4,25.6,23.2
	c4.6,4.2,6,9.6,4.2,15.6c-1.8,5.8-6,9.2-12,10.2c-4,0.6-7.8-0.4-10.8-3C62.1,86.2,50.5,75.6,38.7,65C38.9,64.8,38.7,64.4,38.5,64z
	 M2.5,34.4c0-7.4-0.6-14.8,0.2-22C3.5,4.2,11.5-0.8,20.3,0.2c7.4,0.8,13.4,8.2,12.8,16c0,0.8-0.6,2-1.2,2.4
	c-9.4,5.4-19,10.6-28.6,15.8C3.1,34.4,2.9,34.2,2.5,34.4z M33.1,67.2c0,6.8,0.4,13.2-0.2,19.4c-0.6,7.4-7.6,13.2-15,13.4
	c-7.2,0.2-14.2-5.6-15.4-12.8c-0.4-2.2,0-3.6,2.2-4.8c8.6-4.6,17.2-9.4,25.8-14.2C31.1,68,31.9,67.6,33.1,67.2z"/>
</svg>
