<svg id="Layer_1" xmlns="http://www.w3.org/2000/svg" viewBox="0 0 100 100"><style>.st0{fill:#b9aba5}.st1{fill:#eeebe9}</style><path class="st0" d="M95.2 11.4c-.5-.4-1.1-.6-1.8-.5l-5 .9c-.2-.2-.5-.3-.8-.3-.4-.1-9.9-1.5-18.2-1.5-3.9 0-6.9.3-9.1 1-5.1 1.5-8.5 4.4-10.4 6.4-1.9-2-5.3-4.9-10.4-6.4-2.2-.6-5.1-1-9.1-1-8.3 0-17.8 1.4-18.2 1.5-.3 0-.6.2-.8.3l-5-.9c-.6-.1-1.3.1-1.8.5-.3.4-.6 1-.6 1.6v54.5c0 1.1.8 2 1.8 2.2l26.8 4.8v7.2c0 4.6 3.8 8.4 8.4 8.4h21c4.6 0 8.4-3.8 8.4-8.4V74l23.8-4.2c1-.2 1.8-1.1 1.8-2.2V13c0-.6-.3-1.2-.8-1.6z"/><path class="st1" d="M32.6 36.2v28.2h-1.7c-6.1 0-12.5.8-16 1.3V15.5c3.2-.4 9.8-1.2 15.7-1.2 3.5 0 6.1.3 7.8.8 5.4 1.6 8.5 5.1 9.4 6.4v6.3h-6.9c-4.6 0-8.3 3.7-8.3 8.4z"/><circle cx="51.5" cy="83.7" r="2.6" fill="#fff"/><path class="st0" d="M65.1 77.9H37.9V35.8h27.2v42.1z"/><path class="st1" d="M85.1 65.6c-3.2-.5-9-1.2-14.7-1.3V36.2c0-4.6-3.8-8.4-8.4-8.4h-9.8v-6.3c1-1.3 4-4.8 9.4-6.4 1.7-.5 4.4-.8 7.8-.8 5.8 0 12.5.8 15.7 1.2v50.1z"/><path d="M41.9 48v-6.2c0-1.2 1-2.2 2.2-2.2h15c1.2 0 2.2 1 2.2 2.2V48c0 1.2-1 2.2-2.2 2.2h-15c-1.2 0-2.2-1-2.2-2.2zm-.3 8.1c0-1.2 1-2.2 2.2-2.2h15.3c1.2 0 2.2 1 2.2 2.2s-1 2.2-2.2 2.2H43.8c-1.2 0-2.2-1-2.2-2.2zm0 7.9c0-1.2 1-2.2 2.2-2.2h6.3c1.2 0 2.2 1 2.2 2.2 0 1.2-1 2.2-2.2 2.2h-6.3c-1.2 0-2.2-1-2.2-2.2zm0 8c0-1.2 1-2.2 2.2-2.2H55c1.2 0 2.2 1 2.2 2.2 0 1.2-1 2.2-2.2 2.2H43.8c-1.2-.1-2.2-1-2.2-2.2z" fill="#9d8980"/></svg>