<svg xmlns="http://www.w3.org/2000/svg" viewBox="0 0 100 100"><path d="M0 7.538h15.5v12.3H0v-12.3zm20.5 0v85h59.2v-85H20.5zm14.4 18.9c.5 0 1 .1 1.4.4l15 10.6 15 10.6c1.2.8 1.5 2.6.8 3.9-.2.4-.5.7-.8.9l-15 10.6-15 10.6c-1.2.8-2.7.4-3.4-.9-.3-.5-.4-1-.4-1.5v-42.4c0-1.5 1-2.7 2.4-2.8zm49.9-18.9H100v12.3H84.8v-12.3zM0 25.438h15.5v12.6H0v-12.6zm84.8 0H100v12.6H84.8v-12.6zM0 43.738h15.5v12.6H0v-12.6zm84.8 0H100v12.6H84.8v-12.6zM0 61.938h15.5v12.6H0v-12.6zm84.8 0H100v12.6H84.8v-12.6zM0 80.138h15.5v12.3H0v-12.3zm84.8 0H100v12.3H84.8v-12.3z" fill="#f09"/></svg>