<svg xmlns="http://www.w3.org/2000/svg" viewBox="0 0 100 100"><path d="M34.9 60.6H16.4l-2.2 4.9c-.8 1.6-1.1 3-1.1 4.1 0 1.4.6 2.5 1.7 3.2.6.5 2.4.6 5 .9v1.4H2.7v-1.4c1.9-.3 3.5-.9 4.6-2.2 1.3-1.3 2.7-3.8 4.4-7.6l18.6-40.4h.8L50 64.8c1.7 3.9 3.3 6.5 4.4 7.4.9.8 2 1.3 3.6 1.4V75H32.8v-1.4h1.1c2 0 3.5-.3 4.3-.8.6-.5.8-.9.8-1.7 0-.5 0-.9-.2-1.4 0-.2-.5-1.1-1.1-2.8l-2.8-6.3zm-1.3-2.9l-7.7-17.3-8 17.3h15.7z" fill="#a0b4f9"/><path d="M97.3 41.6l-7.4 24.8-.8 3c0 .3-.2.6-.2.8 0 .3.2.6.3.8.2.3.5.3.6.3.5 0 1.3-.5 2.2-1.3.3-.3 1.3-1.4 2.8-3.5l1.4.6c-1.9 3.2-3.8 5.5-5.8 7.1-2 1.4-4.3 2.2-6.6 2.2-1.4 0-2.5-.3-3.3-1.1-.8-.8-1.1-1.6-1.1-2.8 0-.9.5-2.8 1.3-5.4l.9-3c-3 4.9-5.8 8.5-8.5 10.6-1.6 1.3-3.3 1.7-5 1.7-2.4 0-4.1-.9-5-2.8-1.1-1.9-1.6-3.9-1.6-6.3 0-3.5 1.1-7.6 3.3-12 2.2-4.6 5-8.2 8.7-10.9 3-2.2 5.7-3.5 8.4-3.5 1.4 0 2.5.5 3.5 1.3s1.6 2.2 1.9 4.4l1.4-4.6 8.6-.4zM85 48.7c0-2-.3-3.5-.9-4.4-.5-.6-1.1-.9-1.9-.9-.8 0-1.6.3-2.5 1.1-1.7 1.6-3.6 4.7-5.5 9.3-2 4.7-3 8.8-3 12.1 0 1.3.2 2.2.6 2.8.5.6.9.9 1.4.9 1.1 0 2.4-.6 3.5-1.9 1.7-1.9 3.2-4.1 4.6-6.8 2.4-4.4 3.7-8.5 3.7-12.2z" fill="#88eadb"/></svg>