<svg xmlns="http://www.w3.org/2000/svg" viewBox="0 0 100 100"><path d="M43.5 65.1c4 1.5 10.6 1.3 15.3.6.8 1.9-.4 4.5.4 6.6.4 1.1 1.7 1.9 3.8 3 .4.2 1.1.2 1.5.4l.4.4c.8.6 2.5 1.7 3 1.7.6.2 1.3.2 1.7.2h2.1c3-.2 5.9-1.1 6.8-2.1 1.5-1.9.6-6.2.4-10-.2-3.2-.6-7.4 0-10 .2-.8 1.1-1.7 1.5-2.8 1.7-3.6 3.4-9.5 2.8-15.3-.4-2.5-1.7-4.9-1.9-6.8 4 .4 7.9-.4 11.2 0 2.1.2 3.8 1.7 5.7 1.5.4-1.1 1.7-1.7 1.7-3 .2-1.5-.4-3.2-1.1-4.2-2.8-.4-4.9 2.1-7.6 2.3-.8 0-1.9-.2-3-.4-3.2-.2-7.6.6-10.4 0-1.9-.4-3.6-2.5-5.5-3.4-.4-.2-1.3 0-1.7-.4-.6-.2-1.1-.6-1.5-.6-2.1-.8-4.5-1.7-6.6-1.9-4-1.1-9.5-1.1-14.6-.6-1.7.2-3.2 1.1-4.9.6-1.3-.2-1.5-1.1-2.3-1.5-3.6-1.7-7.2.2-9.5 1.5-1.7.8-3.8 2.1-5.5 2.3-1.7.4-4.2 0-5.7 0-1.9 0-4.5.4-6.6.6-1.9.4-4.7.6-5.7 1.5-3 1.7-3.8 9.5-4.9 14.2-.4 1.7-1.1 3.4-1.5 5.1C.7 48.4.2 52.5.2 56.1 0 63.6-.8 74 3 76.8c.8.6 3.6 1.5 4.5 1.1.2 0 1.3-1.1 1.5-1.5.2-.6-.4-1.5-.4-2.3 0-1.7-.4-3.8-.4-5.5 0-4.5.8-9.3 1.9-11.2 0-.2.6-.2.6-.4.2-.4 0-.8.4-1.1.8-.8 2.1-1.7 3-1.9 2.5-1.1 4 .2 5.1 1.7 2.1 2.8 2.5 7.4 2.8 11.9v2.8c0 1.1-.4 2.1-.4 2.8.6 1.7 3.6 2.5 4.9 3.4 0 .6.2 1.5.6 1.9.6 1.1 1.7 1.7 2.3 2.1 3.2 1.7 11.2.6 12.7-1.5.2-.2.4-.4.4-.8.2-.6.6-1.3.6-1.7 1.3-4.1-.2-7.5.4-11.5zm-4.4-38c-.3.2-.3.2 0 0" fill="#7a9ace"/></svg>