<?xml version="1.0" encoding="utf-8"?>
<!-- Generator: Adobe Illustrator 22.1.0, SVG Export Plug-In . SVG Version: 6.00 Build 0)  -->
<svg version="1.1" id="Layer_1" xmlns="http://www.w3.org/2000/svg" xmlns:xlink="http://www.w3.org/1999/xlink" x="0px" y="0px"
	 viewBox="0 0 100 100" style="enable-background:new 0 0 100 100;" xml:space="preserve">
<style type="text/css">
	.st0{fill:#8093E0;}
</style>
<g>
	<path class="st0" d="M88,56.9c-1.8-11.6-13.9-19-23-24.7c-3.9-2.5-10.3-5.7-11.2-10.9c-0.3-2.1-0.3-4.4-0.4-6.5
		c0-0.8,0-1.7-0.1-2.6c-0.1-1.1-1.2,0.3-1.8-0.7c-1.5-2.4-0.9,0.7-0.8,2c0.3,2.9,0.8,5.8,0.7,8.8c0,5.6-1,11-2.4,16.5
		c-3.3,12.7-5.9,25.7-2.6,38.7c0.7,2.7,1.6,5.4,2.7,7.9c0.3,0.8,1,2.9,2,3.2c3.5,0.9,6.1,1.2,8.8,3.8c1.7,1.6,3,0.7,5-0.1
		c6.1-2.5,11.5-5.5,15.8-10.6C86.9,74.6,89.5,66.2,88,56.9 M81.5,68.6c-0.5,4.8-3.5,9-6.6,12.5c-2.2,2.6-5.2,5.9-8.5,7
		c-1.2,0.4,0.2-1.9,0.4-2.2c1-1.5,2.3-2.9,3.4-4.3c1.7-2.1,3.2-4.3,4.2-6.8c3.3-8.4,2.6-18.5-2.4-26.1c-2.7-4.1-6.4-7.6-10.1-10.7
		c-1.8-1.5-3.6-3-5.1-4.8c-0.3-0.4-3.4-4.5-2.5-5.1c0.3-0.2,7,6.9,7.8,7.4c2.8,2.1,5.7,4,8.2,6.4c3.5,3.2,7.1,6.8,9.1,11.2
		C81.7,58,82.1,63.4,81.5,68.6"/>
	<path class="st0" d="M48.1,0.1c1,0.7,1.2,4.6,1.2,8.2c0,3.6,0.3,19.1-0.8,23.3c-1.1,4.2-3.7,8.8-6.5,12.8c-2.8,4-6.1,12.6-6,17.9
		c0.1,5.3,3.1,13.9,5.5,17.5c2.4,3.6,6.4,8.6,5.5,9.8c-1.6,2-8-4.9-11.4-9c-3.4-4-6.7-12.3-6.9-18.7c-0.1-6.4,3.5-12.4,6.1-16
		c2.6-3.6,7.6-9.8,9-12.6s2.8-5.8,3.3-9.8c0.4-3.9,0-18,0-18S47.1-0.6,48.1,0.1"/>
	<path class="st0" d="M45.4,6.7c1,0.4,1.1,1.7,1.1,2.9s-0.3,6.3-0.7,11.2c-0.3,4.9-4.3,9.1-7.2,12c-2.9,2.9-11.4,12-14.5,16.5
		c-3.1,4.5-4.7,10.4-4.4,15.4c0.3,5.1,1.6,10,6.3,15.3c4.7,5.3,8,7.8,10.5,9c2.5,1.2,4.9,2.1,4.4,3.3c-0.6,1.1-2.9,0.3-5.5-0.6
		c-2.6-0.9-11.4-4.5-16.4-10.2c-5.1-5.7-7.6-13.4-7.4-20.7c0.2-7.3,2.2-10.3,5.6-15.1c3.4-4.7,12.7-11.7,15.6-13.5
		c2.9-1.8,6.9-4.8,8.8-7.3c1.9-2.5,2.9-4.5,2.8-7.9c-0.1-3.4,0.2-6.4,0.1-7.5C44.4,8.5,44.4,6.2,45.4,6.7 M45.7,94.8
		c0.5,0,0.2,2-0.6,2.9c-0.8,1-2.2,1.6-2.4,1.2c-0.2-0.4,1-0.6,1.9-1.6C45.4,96.4,45.2,94.8,45.7,94.8 M54.8,94.7
		c-0.5,0-0.2,2,0.6,2.9c0.8,1,2.2,1.6,2.4,1.2c0.2-0.4-1-0.6-1.9-1.6C55.2,96.4,55.4,94.7,54.8,94.7 M50.8,96.9
		c0,1.7,0.1,3.1-0.3,3.1c-0.5,0-0.3-1.4-0.3-3.1c0-1.7-0.2-3.1,0.3-3.1C50.9,93.7,50.8,95.1,50.8,96.9"/>
</g>
</svg>
