<?xml version="1.0" encoding="utf-8"?>
<!-- Generator: Adobe Illustrator 22.1.0, SVG Export Plug-In . SVG Version: 6.00 Build 0)  -->
<svg version="1.1" id="Layer_1" xmlns="http://www.w3.org/2000/svg" xmlns:xlink="http://www.w3.org/1999/xlink" x="0px" y="0px"
	 viewBox="0 0 100 100" style="enable-background:new 0 0 100 100;" xml:space="preserve">
<style type="text/css">
	.st0{fill:#DDC952;stroke:#DDC952;stroke-width:0.75;stroke-miterlimit:10;}
</style>
<path class="st0" d="M47.6,56.9c-6.3-6.2-12-11.6-15.2-24.5h22.4v-9.2H32.5V10.7h-9.8v12.7H0.4V33h22.9c0,0-0.2,1.7-0.5,3.3
	c-3.3,12.5-6.8,20.4-22.4,28.1l3.3,9.4C18.2,66,25.7,56.1,29.1,45.5c3.3,8.2,8.7,14.7,14.7,20.9C43.8,66.3,47.6,56.9,47.6,56.9z
	 M77.2,26.5H64.5L42,89.3h9.8L58,70.4h25.5l6.3,18.8h9.8C99.5,89.3,77.2,26.5,77.2,26.5z M61.3,61l9.8-25l9.8,25.2
	C80.8,61.2,61.3,61,61.3,61z"/>
</svg>
