<svg xmlns="http://www.w3.org/2000/svg" viewBox="0 0 100 100"><path d="M.1 7.1c0-.5 1.1-.9 1.8-.9 5.1-.3 12.6-.4 20.4-.4 21.9 0 30.5 12 30.5 27.4 0 20.1-14.6 28.7-32.5 28.7-3 0-4-.1-6.1-.1v30.4c0 .7-.3.9-.9.9H1c-.7 0-.9-.2-.9-.9V7.1zm14 42c1.8.1 3.3.1 6.4.1 9.3 0 18-3.3 18-15.8 0-10-6.2-15.1-16.8-15.1-3.1 0-6.1.1-7.6.3v30.5zm68.1-9.4c-6.3 0-8.4 3.1-8.4 5.7 0 2.9 1.4 4.8 9.8 9.1 12.4 6 16.3 11.7 16.3 20.2 0 12.7-9.7 19.5-22.7 19.5-6.9 0-12.8-1.4-16.2-3.4-.5-.3-.6-.6-.6-1.3V77.9c0-.8.4-1.1.9-.7C66.2 80.5 72 82 77.2 82c6.3 0 8.9-2.6 8.9-6.1 0-2.9-1.8-5.4-9.8-9.5-11.2-5.4-15.9-10.8-15.9-20 0-10.2 8-18.7 21.8-18.7 6.8 0 11.6 1 14.2 2.2.6.4.8 1 .8 1.6v10.8c0 .7-.4 1.1-1.2.8-3.6-2.1-8.7-3.4-13.8-3.4z" fill="#03c8ff"/></svg>