<?xml version="1.0" encoding="utf-8"?>
<!-- Generator: Adobe Illustrator 22.1.0, SVG Export Plug-In . SVG Version: 6.00 Build 0)  -->
<svg version="1.1" id="Layer_1" xmlns="http://www.w3.org/2000/svg" xmlns:xlink="http://www.w3.org/1999/xlink" x="0px" y="0px"
	 viewBox="0 0 100 100" style="enable-background:new 0 0 100 100;" xml:space="preserve">
<style type="text/css">
	.st0{fill:#31C5F0;}
</style>
<path class="st0" d="M80.5,40.2c-5.9,0-7.9,3-7.9,5.5c0,2.7,1.3,4.6,9.3,8.7C93.6,60,97.2,65.5,97.2,73.5c0,12-9.1,18.4-21.5,18.4
	c-6.5,0-12.1-1.3-15.3-3.2c-0.5-0.2-0.6-0.6-0.6-1.2V76.5c0-0.8,0.4-1,0.9-0.6c4.7,3.1,10.1,4.4,15,4.4c5.9,0,8.4-2.5,8.4-5.8
	c0-2.7-1.7-5.1-9.3-9c-10.6-5.1-15-10.2-15-18.9c0-9.6,7.6-17.7,20.7-17.7c6.4,0,10.9,1,13.4,2.1c0.6,0.4,0.8,1,0.8,1.5v10.3
	c0,0.6-0.4,1-1.1,0.8C90.2,41.5,85.3,40.2,80.5,40.2L80.5,40.2z M16.1,49.1c1.7,0.1,3.1,0.1,6,0.1c8.7,0,17-3.1,17-15
	c0-9.5-5.9-14.3-15.9-14.3c-3,0-5.8,0.1-7.2,0.2L16.1,49.1L16.1,49.1z M2.8,9.3c0-0.5,1-0.9,1.7-0.9c4.8-0.2,11.9-0.4,19.3-0.4
	c20.7,0,28.8,11.4,28.8,25.9c0,19-13.8,27.2-30.7,27.2C19,61.1,18,61,16,61v28.7c0,0.6-0.2,0.9-0.9,0.9H3.6c-0.6,0-0.9-0.2-0.9-0.9
	L2.8,9.3L2.8,9.3z"/>
</svg>
