<svg id="Layer_1" xmlns="http://www.w3.org/2000/svg" viewBox="0 0 100 100"><style>.st0{fill:#4596ec}.st1{fill:#9cf}</style><path class="st0" d="M27.2 40.9c-3.8.5-6.9 4.6-6.9 9.1s3.1 8.7 6.9 9.1c3.8.5 6.8-3.6 6.8-9.1s-3-9.6-6.8-9.1z"/><path class="st0" d="M0 14.6v71.6l55.9 9.9V3.8L0 14.6zm27.2 50.2c-6.1-.8-11-7.4-11-14.7s4.9-14 11-14.7c6.1-.8 11 5.8 11 14.7s-4.9 15.4-11 14.7z"/><path class="st1" d="M100 25.6L69.3 51l-8.4-6.7V23.1H100z"/><path class="st1" d="M100 30.4L69.3 55.9l-8.4-6.8V78H100V30.4z"/></svg>