<svg id="Layer_1" xmlns="http://www.w3.org/2000/svg" viewBox="0 0 100 100"><style>.st1{fill:#9cf}</style><path d="M0 14.6v71.6l55.9 9.9V3.8L0 14.6z" fill="#4596ec"/><path class="st1" d="M100 25.6L69.3 51l-8.4-6.7V23.1H100v2.5z"/><path class="st1" d="M100 30.4L69.3 55.9l-8.4-6.8V78H100V30.4z"/><path d="M38.5 36.9c-2.8-3.2-6.4-4.9-11-4.9-4.8 0-8.7 1.7-11.6 5.1s-4.3 7.9-4.3 13.3c0 5.2 1.4 9.4 4.3 12.7S22.5 68 27.1 68c4.7 0 8.4-1.7 11.3-5 2.9-3.3 4.3-7.8 4.3-13.2.1-5.4-1.3-9.6-4.2-12.9zm-5.4 21.4c-1.4 2-3.4 2.9-5.9 2.9-2.3 0-4.3-1-5.8-3s-2.2-4.8-2.2-8.1c0-3.4.8-6.1 2.2-8.2 1.4-2.1 3.4-3.1 6-3.1 2.4 0 4.3 1 5.8 3 1.4 2 2.1 4.8 2.1 8.4-.1 3.5-.8 6.1-2.2 8.1z" fill="#fff"/></svg>