<svg id="Layer_1" xmlns="http://www.w3.org/2000/svg" viewBox="0 0 100 100"><style>.st1{fill:#9cf}</style><path d="M0 14.6v71.6l55.9 9.9V3.8L0 14.6z" fill="#4596ec"/><path class="st1" d="M100 25.6L69.3 51l-8.4-6.7V23.1H100v2.5z"/><path class="st1" d="M100 30.4L69.3 55.9l-8.4-6.8V78H100V30.4z"/><path d="M37.4 38.2c-2.5-2.9-5.8-4.4-9.9-4.4-4.3 0-7.8 1.5-10.4 4.6-2.6 3.1-3.9 7.1-3.9 12 0 4.7 1.3 8.5 3.9 11.4 2.6 2.9 5.9 4.4 10 4.4 4.2 0 7.6-1.5 10.2-4.5 2.6-3 3.9-7 3.9-11.9 0-4.8-1.2-8.6-3.8-11.6zm-4.9 19.3c-1.3 1.8-3.1 2.6-5.3 2.6-2.1 0-3.9-.9-5.2-2.7-1.3-1.8-2-4.3-2-7.3 0-3.1.7-5.5 2-7.4 1.3-1.9 3.1-2.8 5.4-2.8 2.2 0 3.9.9 5.2 2.7 1.3 1.8 1.9 4.3 1.9 7.6-.1 3.1-.7 5.5-2 7.3z" fill="#fff"/></svg>