<?xml version="1.0" encoding="utf-8"?>
<!-- Generator: Adobe Illustrator 22.1.0, SVG Export Plug-In . SVG Version: 6.00 Build 0)  -->
<svg version="1.1" id="Layer_1" xmlns="http://www.w3.org/2000/svg" xmlns:xlink="http://www.w3.org/1999/xlink" x="0px" y="0px"
	 viewBox="0 0 100 100" style="enable-background:new 0 0 100 100;" xml:space="preserve">
<style type="text/css">
	.st0{fill:url(#SVGID_1_);}
</style>
<linearGradient id="SVGID_1_" gradientUnits="userSpaceOnUse" x1="1.262" y1="0.1466" x2="1.262" y2="2.6701" gradientTransform="matrix(39.6201 0 0 35.5033 0 -8.697510e-04)">
	<stop  offset="0" style="stop-color:#F88A36"/>
	<stop  offset="1" style="stop-color:#FD2020"/>
</linearGradient>
<path class="st0" d="M75.5,88.6c-11.8,6.8-28,7.5-44.3,0.5C17.9,83.5,7,73.7,0,62.4c3.4,2.9,7.3,5,11.5,7c16.9,7.9,33.7,7.3,45.5,0
	C40.2,56.7,25.8,39.8,15.2,26c-2.3-2.3-3.9-5-5.6-7.5C22.6,30.3,43,45.2,50.4,49.3C35,33,21.2,12.7,21.7,13.4
	C46.1,38,68.8,52.2,68.8,52.2c0.7,0.4,1.3,0.7,1.8,1.1c0.5-1.3,0.9-2.5,1.3-3.9C75.8,35,71.3,18.6,61.5,5.2
	C84.3,19,97.7,44.8,92.1,66.3c-0.2,0.5-0.4,1.1-0.5,1.8l0.2,0.2c11.3,14,8.1,28.9,6.8,26.2C92.5,82.6,81.2,86.2,75.5,88.6z"/>
</svg>
