<?xml version="1.0" encoding="utf-8"?>
<!-- Generator: Adobe Illustrator 22.1.0, SVG Export Plug-In . SVG Version: 6.00 Build 0)  -->
<svg version="1.1" id="Layer_1" xmlns="http://www.w3.org/2000/svg" xmlns:xlink="http://www.w3.org/1999/xlink" x="0px" y="0px"
	 viewBox="0 0 100 100" style="enable-background:new 0 0 100 100;" xml:space="preserve">
<style type="text/css">
	.st0{fill:#0090E0;stroke:#0090E0;stroke-width:1.75;stroke-miterlimit:10;}
</style>
<g>
	<path class="st0" d="M21.7,30.2H2.8v-9h48.3v9H32.1v48.6H21.7V30.2z"/>
	<path class="st0" d="M64,64c0,0,6.3,6.1,14.4,6.1c4.4,0,8.4-2.3,8.4-7c0-10.3-27.2-8.5-27.2-26.2c0-9.6,8.3-16.7,19.3-16.7
		c11.4,0,17.2,6.2,17.2,6.2l-4.5,8.5c0,0-5.5-5-12.7-5c-4.9,0-8.7,2.8-8.7,6.9c0,10.2,27.1,7.7,27.1,26.1c0,9.2-7,16.9-19,16.9
		c-12.8,0-19.9-7.9-19.9-7.9L64,64z"/>
</g>
</svg>
