<svg xmlns="http://www.w3.org/2000/svg" viewBox="0 0 100 100"><path d="M64.4 7.8v17.6h-1.8c-1.1-4-2.1-7-3.3-8.8s-3-3.2-5.1-4.2c-1.2-.5-3.3-.9-6.3-.9H43v50.3c0 3.3.2 5.5.5 6.2.4.9 1.1 1.6 2.1 2.1 1.1.7 2.5.9 4.4.9h2.1v1.8h-34V71h2.1c1.9 0 3.3-.4 4.6-1.1.9-.5 1.4-1.2 1.9-2.3.4-.7.5-2.8.5-6V11.5h-4.8c-4.4 0-7.6.9-9.5 2.8-2.8 2.6-4.6 6.3-5.3 11.1H6V7.8h58.4z" fill="#7dd0f9"/><path d="M94 27.2v17.6h-1.8c-1.1-4-2.1-7-3.3-8.8s-3-3.2-5.1-4.2c-1.2-.5-3.3-.9-6.3-.9h-4.9v50.3c0 3.3.2 5.5.5 6.2.4.9 1.1 1.6 2.1 2.1 1.1.7 2.5.9 4.4.9h2.1v1.8h-34v-1.8h2.1c1.9 0 3.3-.4 4.6-1.1.9-.5 1.4-1.2 1.9-2.3.4-.7.5-2.8.5-6V30.9H52c-4.4 0-7.6.9-9.5 2.8-2.8 2.6-4.6 6.3-5.3 11.1h-1.8V27.2H94z" fill="#8c7cd1"/></svg>