<svg xmlns="http://www.w3.org/2000/svg" viewBox="0 0 100 100"><path d="M17.2 54.4L7.8 25.2c-.3-1.1-.6-1.6-.8-1.6-.2-.2-.3-.2-.6-.3l-3.4-1-.2-4.2h17.6l.3 4.2-3.4 1v.3c0 .3.2 1.1.6 1.9l3.5 11.2L27.8 18l4.8-.2 5.8 18.8 4-11.2c.2-.8.6-1.6.6-1.9v-.2l-2.9-.8-.1-4.4h13.8l.3 4.2-3.7 1.1c-.2 0-.3.2-.6.2 0 .2-.3.3-.6 1.4L38.8 54l-5 .3-5.3-18-6.3 17.6-5 .5zm45.3-36.6h34.8v5.5H62.5v-5.5zm0 14.8h34.8V38H62.5v-5.4zm0 15.1h34.8v5.5H62.5v-5.5zM4.4 63.1h92.9v5.5H4.4v-5.5zm0 15h92.9v5.5H4.4v-5.5z" fill="#7db2c9"/></svg>