<svg xmlns="http://www.w3.org/2000/svg" viewBox="0 0 100 100"><path d="M68.4 4.9c-10.7 0-18 3.2-18 3.2-1 .4-1.5 1.6-1 2.6.3.7 1 1.2 1.8 1.2 8.5 0 11.4 1.5 14.5 3.7.5.4 1.1.9 1.6 1.4L2.8 27l10 66.4 32.5-5.2c.4 2.6 2.2 4.9 4.9 5.8l2.4.8c1.8.5 3.6.6 5.3-.2 1.6-.7 2.9-2.1 3.6-3.9v-.1s1.3-4.3 1.5-5.2l30.5-4.9-9.1-57.2c.2-.1.3-.1.5-.1.4 0 .7.1.7.1.3.2.2.1.3.2 0 .9.5 1.7 1.4 2l4.1 1.3c1.1.3 2.2-.2 2.5-1.3l3.2-9.9c.3-1.1-.2-2.2-1.3-2.5l-4.1-1.3c-1-.3-2 .2-2.4 1.1-.1.2-.1.2 0 .1h-.2c-.2 0-.9-.3-1.4-1-.6-.6-.9-1.3-.9-1.3-.2-.3-.4-.6-.7-.7C82 7.6 75.7 4.9 68.4 4.9zm0 4c6.2 0 11.8 2.4 15.2 4.4.2.4.4.7 1 1.4.9 1 2.3 2.3 4.4 2.3.9 0 1.9-.3 2.6-.8.1-.1.1-.2.2-.2l.9.3-2 6.1-1.1-.4c-.1-.1 0-.3-.1-.4-.4-.7-.9-1.1-1.5-1.5-1-.8-2.1-.9-3.1-.9-2.4 0-4.4 1.6-5.9 3.6s-2.7 4.6-3.8 7.6c-2.2 5.9-4.1 13.4-6 20-3.8 12.9-11.6 38.7-11.6 38.9-.4 1-.8 1.4-1.4 1.7-.6.3-1.4.3-2.5 0l-2.4-.8c-1.8-.6-2.7-2.4-2-4.1 0-.1 11-26.5 14.7-35.3 4.3-10.2 8.2-20.5 9.1-27.6.6-5.4-2.9-9.1-5.2-10.8-1.5-1.1-3.4-2-5.6-2.8 2.1-.3 3.6-.7 6.1-.7zm.7 11.9c.1.6.1 1.2.1 1.8-.7 6.1-4.5 16.4-8.8 26.5-3.6 8.8-14.3 34.3-14.6 34.9l-29.7 4.7-8.8-58.4 61.8-9.5zM81 27.3l7.9 49.9-24.7 3.9c2.3-7.8 5.9-19.7 8.8-29.6 2-6.8 3.8-14.2 5.9-19.7.8-1.7 1.5-3.3 2.1-4.5zm-36 3.4c-.6 0-1.2.1-1.6.5l-1.7 1.4c-1 .8-1.1 2.2-.3 3.1l15.1 17.1 3-6.7-4.8-5.3-8.1-9.3c-.5-.5-1.1-.7-1.6-.8zm-7.4 7.1c-.9 0-1.7.5-2.1 1.4l-1.2 2.9 6.2 2.5 1.2-3c.5-1.1-.1-2.4-1.2-2.8l-2-.8c-.3-.2-.6-.2-.9-.2zm-4.1 6.3L24.7 65l6.2 2.5 8.8-20.9-6.2-2.5zm44.1.5h-.1l-2 6.9 3.2-.5-1.1-6.4zm-27.7 4.3l-9.3 1.4-3 7.1L55 54.8l-5.1-5.9zm-22.3 3.4l-10.2 1.6 1 6.5 6.2-1 3-7.1zm46.3 4.4l-2.4 8.2c.2.1.4.1.6.2 4.3 1.4 5.1 4.1 5.1 4.1s1.1-1.6 1.1-5.4c0-4.4-2.9-6.4-4.4-7.1zm-50 10.4l-.1.4-1 10.5 6.9-8.1c.1-.1.2-.2.2-.4l-5.8-2.3-.2-.1z" fill="#bababa" stroke="#bababa" stroke-width=".75" stroke-miterlimit="10"/></svg>