<svg xmlns="http://www.w3.org/2000/svg" viewBox="0 0 100 100"><path d="M35.2 32.5h7.3v5h-2.8c-.8 0-1.5.7-1.5 1.5s.7 1.5 1.5 1.5h20.5c.8 0 1.5-.7 1.5-1.5s-.7-1.5-1.5-1.5h-2.8v-5h7.3c2.9 0 5.2-2.3 5.2-5.2V9.7c0-2.9-2.3-5.2-5.2-5.2H35.2c-2.9 0-5.2 2.3-5.2 5.2v17.5c0 3 2.3 5.3 5.2 5.3zm19.4 5h-9.1v-5h9.1v5zM32.9 9.7c0-1.3 1-2.3 2.3-2.3h29.6c1.3 0 2.3 1 2.3 2.3v17.5c0 1.3-1 2.3-2.3 2.3H35.2c-1.3 0-2.3-1-2.3-2.3V9.7zm6.5 49.9H9.7c-2.9 0-5.2 2.3-5.2 5.2v17.5c0 2.9 2.3 5.2 5.2 5.2H17v5h-2.8c-.8 0-1.5.7-1.5 1.5s.6 1.5 1.5 1.5h20.5c.8 0 1.5-.7 1.5-1.5s-.7-1.5-1.5-1.5h-2.6v-5h7.3c2.9 0 5.2-2.3 5.2-5.2V64.8c0-2.9-2.4-5.2-5.2-5.2zm-10.2 33h-9.1v-5h9.1v5zm12.5-10.3c0 1.3-1 2.3-2.3 2.3H9.7c-1.3 0-2.3-1-2.3-2.3V64.8c0-1.3 1-2.3 2.3-2.3h29.6c1.3 0 2.3 1 2.3 2.3v17.6l.1-.1zm48.6-22.7H60.6c-2.9 0-5.2 2.3-5.2 5.2v17.5c0 2.9 2.3 5.2 5.2 5.2h7.3v5h-2.8c-.8 0-1.5.7-1.5 1.5s.6 1.5 1.5 1.5h20.6c.8 0 1.5-.7 1.5-1.5s-.7-1.5-1.5-1.5H83v-5h7.3c2.9 0 5.2-2.3 5.2-5.2V64.8c0-2.9-2.3-5.2-5.2-5.2zm-10.2 33H71v-5h9.1v5zm12.5-10.3c0 1.3-1 2.3-2.3 2.3H60.6c-1.3 0-2.3-1-2.3-2.3V64.8c0-1.3 1-2.3 2.3-2.3h29.6c1.3 0 2.3 1 2.3 2.3-.1 0 .1 17.5.1 17.5zM74.1 55c0 .8.7 1.5 1.5 1.5S77 55.8 77 55v-5c0-.8-.7-1.5-1.5-1.5h-24V45c0-.8-.7-1.5-1.5-1.5s-1.5.7-1.5 1.5v3.6h-24c-.8 0-1.5.7-1.5 1.5v5c0 .8.7 1.5 1.5 1.5S26 55.8 26 55v-3.6h47.9V55h.2z" fill="#bababa" stroke="#bababa" stroke-width="3" stroke-miterlimit="10"/></svg>