<svg xmlns="http://www.w3.org/2000/svg" viewBox="0 0 800 220"><style type="text/css">  
	.st0{fill:#0F0D0E;}
</style><path class="st0" d="M154 94.9H86.8c-1.7 0-3.1 1.4-3.1 3.1v32.8c0 1.7 1.4 3.1 3.1 3.1H113v40.8c0 0-5.9 2-22.2 2 -19.2 0-46-7-46-66 0-59 27.9-66.7 54.1-66.7 22.7 0 32.5 4 38.7 5.9 2 0.6 3.8-1.3 3.8-3.1l7.5-31.7c0-0.8-0.3-1.8-1.2-2.5 -2.5-1.8-17.9-10.4-56.9-10.4C46 2.3 0 21.4 0 113.1c0 91.7 52.7 105.4 97 105.4 36.7 0 59-15.7 59-15.7 0.9-0.5 1-1.8 1-2.4V98C157.1 96.3 155.7 94.9 154 94.9z"/><path class="st0" d="M500.1 13.3c0-1.7-1.4-3.2-3.1-3.2h-37.8c-1.7 0-3.1 1.4-3.1 3.2 0 0 0 73.1 0 73.1h-59V13.3c0-1.7-1.4-3.2-3.1-3.2h-37.8c-1.7 0-3.1 1.4-3.1 3.2v197.9c0 1.7 1.4 3.2 3.1 3.2H394c1.7 0 3.1-1.4 3.1-3.2v-84.7h59c0 0-0.1 84.6-0.1 84.7 0 1.7 1.4 3.2 3.1 3.2H497c1.7 0 3.1-1.4 3.1-3.2V13.3z"/><path class="st0" d="M225.3 39.3c0-13.6-10.9-24.6-24.4-24.6 -13.5 0-24.4 11-24.4 24.6 0 13.6 10.9 24.6 24.4 24.6C214.4 63.9 225.3 52.9 225.3 39.3z"/><path class="st0" d="M222.6 169.5c0-5.1 0-91.4 0-91.4 0-1.7-1.4-3.2-3.1-3.2h-37.7c-1.7 0-3.3 1.8-3.3 3.5 0 0 0 109.9 0 130.9 0 3.8 2.4 5 5.5 5 0 0 16.1 0 34 0 3.7 0 4.6-1.8 4.6-5.1C222.6 202.3 222.6 174.8 222.6 169.5z"/><path class="st0" d="M643.9 75.3h-37.5c-1.7 0-3.1 1.4-3.1 3.2v97c0 0-9.5 7-23.1 7 -13.5 0-17.1-6.1-17.1-19.4 0-13.3 0-84.6 0-84.6 0-1.7-1.4-3.2-3.1-3.2h-38.1c-1.7 0-3.1 1.4-3.1 3.2 0 0 0 51.7 0 91 0 39.4 21.9 49 52.1 49 24.8 0 44.7-13.7 44.7-13.7s1 7.2 1.4 8.1c0.4 0.9 1.6 1.7 2.8 1.7l24.2-0.1c1.7 0 3.1-1.4 3.1-3.2l0-132.9C647 76.7 645.6 75.3 643.9 75.3z"/><path class="st0" d="M746.5 70.8c-21.3 0-35.8 9.5-35.8 9.5v-67c0-1.7-1.4-3.2-3.1-3.2h-37.9c-1.7 0-3.1 1.4-3.1 3.2v197.9c0 1.7 1.4 3.2 3.1 3.2 0 0 26.3 0 26.3 0 1.2 0 2.1-0.6 2.7-1.7 0.7-1.1 1.6-9.1 1.6-9.1s15.5 14.7 44.9 14.7c34.5 0 54.2-17.5 54.2-78.5C799.4 78.8 767.8 70.8 746.5 70.8zM731.7 182.3c-13-0.4-21.8-6.3-21.8-6.3v-62.7c0 0 8.7-5.3 19.4-6.3 13.5-1.2 26.5 2.9 26.5 35.1C755.7 176.2 749.9 182.9 731.7 182.3z"/><path class="st0" d="M331.3 75H303c0 0 0-37.5 0-37.5 0-1.4-0.7-2.1-2.4-2.1h-38.7c-1.5 0-2.3 0.7-2.3 2.1v38.7c0 0-19.4 4.7-20.7 5.1 -1.3 0.4-2.3 1.6-2.3 3v24.3c0 1.8 1.4 3.2 3.1 3.2h19.8c0 0 0 25.5 0 58.6 0 43.5 30.5 47.8 51.1 47.8 9.4 0 20.7-3 22.5-3.7 1.1-0.4 1.8-1.6 1.8-2.8l0-26.8c0-1.7-1.5-3.2-3.1-3.2 -1.7 0-5.9 0.7-10.2 0.7 -13.9 0-18.7-6.5-18.7-14.9 0-8.4 0-55.6 0-55.6h28.4c1.7 0 3.1-1.4 3.1-3.2V78.1C334.5 76.4 333.1 75 331.3 75z"/></svg>