<svg xmlns="http://www.w3.org/2000/svg" viewBox="0 0 100 100"><path d="M90 20H45L35 10H10C4.5 10 0 14.5 0 20v20h100V30c0-5.5-4.5-10-10-10z" fill="#ffa000"/><path d="M90 20H10C4.5 20 0 24.5 0 30v50c0 5.5 4.5 10 10 10h80c5.5 0 10-4.5 10-10V30c0-5.5-4.5-10-10-10z" fill="#ffca28"/><path d="M63.9 57.4c-4-1.5-8.6.4-10.3 4.4-1.5 4 .4 8.6 4.4 10.3.8.4 1.7.5 2.6.5 4.5.1 8.2-3.3 8.2-7.7V34.2c-.3 0-.4.1-.6.1-8.7 2.4-17.3 5-26 7.4-.8.3-.8.6-.8 1.3v21.5c-.6-.3-.9-.4-1.4-.5-3.2-1.2-6-.5-8.3 1.8-2.3 2.2-2.9 5.5-1.7 8.5 1.7 4 6.3 5.9 10.3 4.4 2.9-1.3 4.9-4.1 4.9-7.3v-20c0-.9.3-1.2 1.2-1.4 4.2-1.2 8.5-2.4 12.8-3.6l6.2-1.8v13.3c-.9-.2-1.1-.3-1.5-.5z" fill="#909"/></svg>