<?xml version="1.0" encoding="utf-8"?>
<!-- Generator: Adobe Illustrator 21.1.0, SVG Export Plug-In . SVG Version: 6.00 Build 0)  -->
<svg version="1.1" id="Layer_1" xmlns="http://www.w3.org/2000/svg" xmlns:xlink="http://www.w3.org/1999/xlink" x="0px" y="0px"
	 viewBox="0 0 76.7 100" style="enable-background:new 0 0 76.7 100;" xml:space="preserve">
<style type="text/css">
	.st0{display:none;}
	.st1{display:inline;}
	.st2{fill:#FFFFFF;stroke:#666666;stroke-linejoin:round;stroke-miterlimit:10;}
	.st3{fill:#E6E6E6;}
	.st4{fill:#666666;}
	.st5{fill:#E6E6E6;stroke:#666666;stroke-linejoin:round;stroke-miterlimit:10;}
	.st6{font-family:'MuseoSansRounded-700';}
	.st7{font-size:4.4282px;}
	.st8{fill:#FFFFFF;}
	.st9{fill:#E62F32;}
	.st10{fill:#FFFFFF;stroke:#000000;stroke-linejoin:round;stroke-miterlimit:10;}
	.st11{fill:#E62F32;stroke:#000000;stroke-linejoin:round;stroke-miterlimit:10;}
</style>
<g id="Icons_Outline" class="st0">
	<g class="st1">
		<polygon class="st2" points="28.8,64.5 28.8,35.5 45.3,35.5 50.8,41 50.8,64.5 		"/>
		<g>
			<path class="st3" d="M45.3,42c-0.3,0-1-0.7-1-1v-5c0-0.2,0.4-0.4,0.6-0.5c0.1,0,0.3,0,0.3,0c0.1,0,0.3,0.1,0.4,0.1l5,5
				c0.1,0.1,0.2,0.6,0.1,0.8S50.5,42,50.3,42H45.3z"/>
			<path class="st4" d="M45.3,36l5,5h-5V36 M45.3,35c-0.1,0-0.3,0-0.4,0.1c-0.4,0.2-0.6,0.5-0.6,0.9v5c0,0.6,0.4,1,1,1h5
				c0.4,0,0.8-0.2,0.9-0.6c0.2-0.4,0.1-0.8-0.2-1.1l-5-5C45.8,35.1,45.6,35,45.3,35L45.3,35z"/>
		</g>
		<rect x="25.8" y="40.5" class="st5" width="17" height="7"/>
		<text transform="matrix(1 0 0 1 28.4339 45.5415)" class="st4 st6 st7">PDF</text>
	</g>
</g>
<g id="expanded">
	<g>
		<path class="st8" d="M56,20V3.3H11.8v13.3h39.8c0.8,0,1.5,0.7,1.5,1.7v23.3c0,0.9-0.7,1.7-1.5,1.7H11.8v53.3h61.9V23.3H59
			C57.3,23.3,56,21.8,56,20z"/>
		<path d="M76.6,19.8c0-0.8-0.3-1.6-0.8-2.1L61.1,1c-0.6-0.6-1.3-1-2.1-1c0,0,0,0,0,0H10.3C9.5,0,8.8,0.7,8.8,1.7v15H1.5
			c-0.8,0-1.5,0.7-1.5,1.7v23.3c0,0.9,0.7,1.7,1.5,1.7h7.4v55c0,0.9,0.7,1.7,1.5,1.7h64.9c0.8,0,1.5-0.7,1.5-1.7V20
			C76.7,19.9,76.6,19.9,76.6,19.8z M73.7,96.7H11.8V43.3h39.8c0.8,0,1.5-0.7,1.5-1.7V18.3c0-0.9-0.7-1.7-1.5-1.7H11.8V3.3H56V20
			c0,1.8,1.3,3.3,2.9,3.3h14.7V96.7z M2.9,20h47.2v20H2.9V20z M59,20V3.3L73.7,20H59z"/>
		<polygon class="st3" points="59,3.3 59,20 73.7,20 		"/>
		<path class="st9" d="M15,28.1c0-1.1-0.6-1.8-1.5-1.8h-1.6v3.6h1.6C14.5,29.9,15,29.2,15,28.1z"/>
		<path class="st9" d="M28.6,29.9c0-2.3-1.2-3.6-3.1-3.6h-1.4v7.2h1.4C27.4,33.5,28.6,32.2,28.6,29.9z"/>
		<path class="st9" d="M50.1,40V20H2.9v20H50.1z M36.2,25.3c0-0.4,0.2-0.6,0.5-0.6H41c0.4,0,0.5,0.2,0.5,0.6v0.4
			c0,0.4-0.2,0.6-0.5,0.6h-3.1v3h2.5c0.4,0,0.5,0.2,0.5,0.6v0.4c0,0.4-0.2,0.6-0.5,0.6h-2.5v3.6c0,0.4-0.2,0.6-0.5,0.6h-0.6
			c-0.4,0-0.5-0.2-0.5-0.6V25.3z M22.4,25.3c0-0.4,0.2-0.6,0.5-0.6h2.6c2.9,0,4.7,1.9,4.7,5.2c0,3.3-1.9,5.2-4.7,5.2h-2.6
			c-0.4,0-0.5-0.2-0.5-0.6V25.3z M10.2,25.3c0-0.4,0.2-0.6,0.5-0.6h3c1.7,0,2.9,1.4,2.9,3.4s-1.2,3.5-2.9,3.5h-1.9v3
			c0,0.4-0.2,0.6-0.5,0.6h-0.6c-0.4,0-0.5-0.2-0.5-0.6V25.3z"/>
		<path class="st8" d="M10.7,35.1h0.6c0.4,0,0.5-0.2,0.5-0.6v-3h1.9c1.7,0,2.9-1.4,2.9-3.5s-1.2-3.4-2.9-3.4h-3
			c-0.4,0-0.5,0.2-0.5,0.6v9.2C10.2,34.9,10.4,35.1,10.7,35.1z M11.9,26.3h1.6c1,0,1.5,0.7,1.5,1.8c0,1.1-0.6,1.8-1.6,1.8h-1.6V26.3
			z"/>
		<path class="st8" d="M22.9,35.1h2.6c2.9,0,4.7-1.9,4.7-5.2c0-3.3-1.9-5.2-4.7-5.2h-2.6c-0.4,0-0.5,0.2-0.5,0.6v9.2
			C22.4,34.9,22.6,35.1,22.9,35.1z M24.1,26.3h1.4c1.9,0,3.1,1.3,3.1,3.6c0,2.4-1.2,3.6-3.1,3.6h-1.4V26.3z"/>
		<path class="st8" d="M36.8,35.1h0.6c0.4,0,0.5-0.2,0.5-0.6v-3.6h2.5c0.4,0,0.5-0.2,0.5-0.6v-0.4c0-0.4-0.2-0.6-0.5-0.6h-2.5v-3H41
			c0.4,0,0.5-0.2,0.5-0.6v-0.4c0-0.4-0.2-0.6-0.5-0.6h-4.2c-0.4,0-0.5,0.2-0.5,0.6v9.2C36.2,34.9,36.4,35.1,36.8,35.1z"/>
	</g>
</g>
<g id="Icons" class="st0">
	<g class="st1">
		<polygon class="st10" points="28.8,64.5 28.8,35.5 45.3,35.5 50.8,41 50.8,64.5 		"/>
		<g>
			<path class="st3" d="M45.3,41.5c-0.3,0-0.5-0.2-0.5-0.5v-5c0-0.2,0.1-0.4,0.3-0.5c0.1,0,0.1,0,0.2,0c0.1,0,0.3,0.1,0.4,0.1l5,5
				c0.1,0.1,0.2,0.4,0.1,0.5s-0.3,0.3-0.5,0.3H45.3z"/>
			<path d="M45.3,36l5,5h-5V36 M45.3,35c-0.1,0-0.3,0-0.4,0.1c-0.4,0.2-0.6,0.5-0.6,0.9v5c0,0.6,0.4,1,1,1h5c0.4,0,0.8-0.2,0.9-0.6
				c0.2-0.4,0.1-0.8-0.2-1.1l-5-5C45.8,35.1,45.6,35,45.3,35L45.3,35z"/>
		</g>
		<rect x="25.8" y="40.5" class="st11" width="17" height="7"/>
		<g>
			<path class="st8" d="M28.8,42.6c0-0.1,0.1-0.2,0.2-0.2h1c0.6,0,1,0.4,1,1s-0.4,1-1,1h-0.6v0.9c0,0.1-0.1,0.2-0.2,0.2H29
				c-0.1,0-0.2-0.1-0.2-0.2V42.6z M29.9,44c0.3,0,0.5-0.2,0.5-0.5c0-0.3-0.2-0.5-0.5-0.5h-0.5V44H29.9z"/>
			<path class="st8" d="M32.9,42.6c0-0.1,0.1-0.2,0.2-0.2H34c1,0,1.6,0.6,1.6,1.6c0,1-0.6,1.6-1.6,1.6h-0.9c-0.1,0-0.2-0.1-0.2-0.2
				V42.6z M34,45.1c0.6,0,1-0.4,1-1.1c0-0.7-0.4-1.1-1-1.1h-0.5v2.2H34z"/>
			<path class="st8" d="M37.6,42.6c0-0.1,0.1-0.2,0.2-0.2h1.4c0.1,0,0.2,0.1,0.2,0.2v0.1c0,0.1-0.1,0.2-0.2,0.2h-1.1v0.9H39
				c0.1,0,0.2,0.1,0.2,0.2v0.1c0,0.1-0.1,0.2-0.2,0.2h-0.9v1.1c0,0.1-0.1,0.2-0.2,0.2h-0.2c-0.1,0-0.2-0.1-0.2-0.2V42.6z"/>
		</g>
	</g>
</g>
</svg>
