<svg xmlns="http://www.w3.org/2000/svg" viewBox="0 0 100 100"><style type="text/css">  
	.st0{fill:#FFFFFF;}
	.st1{fill:#FEA500;}
	.st2{fill:#FEA500;stroke:#FEA500;stroke-width:3;stroke-miterlimit:10;}
</style><rect class="st0" width="100" height="100"/><path class="st1" d="M100 100H0V0h100V100zM9.7 90h80.7V10H9.7"/><path class="st2" d="M54.8 75.8l-4.5-14.5H33.6l-4.5 14.5H23l16.2-48h6.1l16.3 48H54.8zM43.5 39.3c-0.6-1.7-1.1-4.4-1.4-6.2H42c-0.3 1.6-0.8 4.2-1.5 6.2l-5.7 18.1H49L43.5 39.3z"/><path class="st2" d="M71.3 31c-2 0-3.7-1.5-3.7-3.4s1.7-3.4 3.7-3.4 3.7 1.5 3.7 3.4S73.3 31 71.3 31zM68.2 75.8V38.2h6.1v37.6H68.2z"/></svg>