<svg xmlns="http://www.w3.org/2000/svg" viewBox="0 0 100 100"><style type="text/css">  
	.st0{fill:#FFFFFF;}
	.st1{fill:#FEA500;}
	.st2{fill:#FEA500;stroke:#FEA500;stroke-width:3;stroke-miterlimit:10;}
</style><rect class="st0" width="100" height="100"/><path class="st1" d="M100 100H0V0h100V100zM9.7 90h80.7V10H9.7"/><path class="st2" d="M54.6 75l-4.4-14.1H34.1L29.7 75h-5.9l15.7-46.5h5.9L61.2 75H54.6zM43.7 39.6c-0.6-1.6-1.1-4.3-1.4-6h-0.1c-0.3 1.6-0.8 4.1-1.5 6l-5.5 17.5H49L43.7 39.6z"/><path class="st2" d="M70.6 31.6c-1.9 0-3.6-1.5-3.6-3.3s1.6-3.3 3.6-3.3c1.9 0 3.6 1.5 3.6 3.3S72.5 31.6 70.6 31.6zM67.6 75V38.6h5.9V75H67.6z"/></svg>