<svg xmlns="http://www.w3.org/2000/svg" viewBox="0 0 100 100"><style type="text/css">  
	.st0{fill:#FFFFFF;}
	.st1{fill:#8ED200;}
	.st2{fill:#8ED200;stroke:#8ED200;stroke-width:0.75;stroke-miterlimit:10;}
</style><rect class="st0" width="100" height="100"/><path class="st1" d="M100 100H0V0h100V100zM9.7 90h80.7V10H9.7"/><path class="st2" d="M69.2 25H30.7v5.1h4.5c-0.3 2.4-0.6 5.1-0.1 7.9 0.7 3.9 2.7 7.2 5.5 9.1 0.6 0.3 1.1 0.7 1.6 0.9 1.2 0.7 2.3 1.2 2.8 2.1 0.7 1.3-0.3 3.2-1.6 4.3 -0.7 0.7-1.6 1.2-2.3 1.8 -1 0.7-2.1 1.4-3.1 2.3 -3.2 3.2-3.9 7.6-4.3 12.4h-3V76h38.7v-5.1h-3c-0.3-4.8-1.1-9.2-4.3-12.4 -1-1-2.1-1.7-3.1-2.4 -0.9-0.6-1.7-1.1-2.3-1.8 -1.2-1.1-2.2-3-1.6-4.3 0.4-0.9 1.6-1.6 2.8-2.1 0.6-0.2 1.1-0.6 1.6-0.9 2.9-1.8 4.9-5.1 5.5-9.1 0.4-2.7 0.2-5.4-0.1-7.9h4.5v-5H69.2zM62.1 37.5c-0.6 3.1-2.1 5.8-4.3 7.2 -0.4 0.3-0.9 0.6-1.3 0.8 -1.4 0.8-3.1 1.7-4 3.3 -1.3 2.7 0.2 5.8 2.2 7.7 0.9 0.8 1.8 1.3 2.7 2 1 0.7 1.9 1.3 2.7 2 2.5 2.5 3.1 6.3 3.4 10.4H36.4c0.3-4.1 1-8 3.4-10.4 0.8-0.8 1.7-1.3 2.7-2 0.9-0.6 1.8-1.2 2.7-2 2-1.9 3.5-4.9 2.2-7.6 -0.9-1.8-2.4-2.7-4-3.3 -0.4-0.2-1-0.4-1.3-0.8 -2.2-1.4-3.8-4-4.3-7.2 -0.4-2.6-0.2-5.1 0.2-7.4h23.8C62.3 32.4 62.5 35 62.1 37.5z"/><polygon class="st2" points="59.5 68.9 40.4 68.9 49.5 61.8 "/><polygon class="st2" points="59.5 37.5 40.4 37.5 49.5 44.6 "/></svg>