<svg xmlns="http://www.w3.org/2000/svg" viewBox="0 0 100 100"><style type="text/css">  
	.st0{fill:#FFFFFF;}
	.st1{fill:#A4CA39;}
</style><rect class="st0" width="100" height="100"/><path d="M100 100H0V0h100V100zM9.7 90h80.7V10H9.7"/><path class="st1" d="M37.2 62.7c0 1.3 0.9 2.1 2.1 2.1h2.1v7.4c0 1.7 1.5 3.2 3.2 3.2 1.7 0 3.2-1.5 3.2-3.2v-7.4h4.3v7.4c0 1.7 1.5 3.2 3.2 3.2s3.2-1.5 3.2-3.2v-7.4h2.1c1.3 0 2.1-0.9 2.1-2.1V41.5H37.2V62.7zM31.9 41.5c-1.7 0-3.2 1.5-3.2 3.2v14.9c0 1.7 1.5 3.2 3.2 3.2s3.2-1.5 3.2-3.2V44.7C35.1 43 33.6 41.5 31.9 41.5zM68.1 41.5c-1.7 0-3.2 1.5-3.2 3.2v14.9c0 1.7 1.5 3.2 3.2 3.2 1.7 0 3.2-1.5 3.2-3.2V44.7C71.3 43 69.8 41.5 68.1 41.5zM57.4 29.1l2.8-2.8c0.4-0.4 0.4-1.1 0-1.5 -0.4-0.4-1.1-0.4-1.5 0l-3.2 3.2C54 27 52.1 26.6 50 26.6c-2.1 0-4 0.4-5.7 1.3l-3-3.2c-0.4-0.2-1.3-0.2-1.7 0 -0.2 0.4-0.2 1.3 0 1.7l2.8 2.8c-3 2.3-5.1 6-5.1 10.2h25.5C62.8 35.1 60.6 31.3 57.4 29.1zM45.7 35.1h-2.1V33h2.1V35.1zM56.4 35.1h-2.1V33h2.1V35.1z"/></svg>