<svg xmlns="http://www.w3.org/2000/svg" viewBox="0 0 100 100"><style type="text/css">  
	.st0{fill:#FFFFFF;}
	.st1{fill:#BABABA;}
	.st2{fill:#BABABA;stroke:#BABABA;stroke-miterlimit:10;}
</style><rect class="st0" width="100" height="100"/><path class="st1" d="M100 100H0V0h100V100zM9.7 90h80.7V10H9.7"/><path class="st2" d="M71 36.3L57.8 23.1c-0.4-0.4-0.9-0.6-1.4-0.6H30.4c-1.1 0-2 0.9-2 2v51.1c0 1.1 0.9 2 2 2h39.3c1.1 0 2-0.9 2-2V37.7C71.6 37.2 71.4 36.7 71 36.3L71 36.3zM67.1 38.6H55.5V27L67.1 38.6zM67.2 73.1H32.8V26.9h18.5v13.3c0 1.4 1.2 2.6 2.6 2.6h13.3V73.1z"/></svg>