<svg xmlns="http://www.w3.org/2000/svg" viewBox="0 0 100 100"><style type="text/css">  
	.st0{fill:#FFFFFF;}
	.st1{fill:#D5006E;}
</style><rect class="st0" width="100" height="100"/><path class="st1" d="M100 100H0V0h100V100zM9.7 90h80.7V10H9.7"/><path class="st1" d="M41.6 53.3c-1.5 1.2-3 2.3-4.6 3.5 -3 2.3-6 4.6-9 6.9 -0.4 0.3-0.7 0.3-1.2 0.1 -0.6-0.4-1.3-0.7-1.9-1 -0.3-0.2-0.5-0.4-0.5-0.8 0-8 0-15.9 0-23.9 0-0.3 0.2-0.6 0.5-0.8 0.7-0.4 1.4-0.7 2.1-1.1 0.4-0.2 0.7 0 1 0.2 2.5 1.9 5 3.8 7.4 5.7 2 1.6 4.1 3.1 6.1 4.7 0.1-0.1 0.3-0.3 0.4-0.4 7.4-7.2 14.8-14.5 22.3-21.7 0.4-0.4 0.7-0.4 1.2-0.2 3.1 1.3 6.3 2.5 9.4 3.8 0.2 0.1 0.4 0.4 0.5 0.7 0.1 0.2 0 0.4 0 0.6 0 13.7 0 27.4 0 41.1 0 1 0 1-1 1.4 -3 1.2-6 2.4-9 3.6 -0.5 0.2-0.9 0.1-1.3-0.2C56.9 68.2 49.6 61 42.2 53.9 42 53.7 41.9 53.5 41.6 53.3zM63 59.8c0-6.6 0-13.1 0-19.6 -4.4 3.3-8.7 6.5-13.1 9.8C54.3 53.3 58.6 56.5 63 59.8zM35.6 50c-2.2-2-4.3-3.9-6.5-5.8 0 3.9 0 7.8 0 11.7C31.3 53.9 33.4 52 35.6 50z"/></svg>