<svg xmlns="http://www.w3.org/2000/svg" viewBox="0 0 100 100"><style type="text/css">  
	.st0{fill:#FFFFFF;}
	.st1{fill:#D5006E;}
</style><rect class="st0" width="100" height="100"/><path class="st1" d="M100 100H0V0h100V100zM9.7 90h80.7V10H9.7"/><path class="st1" d="M61.7 29.8h3c0.5 0.1 1 0.1 1.4 0.2 3.2 0.4 6.3 1.3 9.2 2.6 0 0 0 0 0 0 0.2 0.1 0.4 0.2 0.6 0.2v36.3c-1.7-0.8-3.4-1.5-5.2-2.1 -0.4-0.1-0.8-0.2-1.2-0.4 -0.1 0-0.2 0-0.2 0 -0.3-0.1-0.6-0.1-0.9-0.2 -0.1 0-0.2 0-0.2 0 -0.5-0.1-1-0.2-1.6-0.3 -0.1-0.1-0.2-0.1-0.3-0.1 -0.1 0-0.2 0-0.3 0 -0.1-0.1-0.2-0.1-0.3-0.1 -0.6 0-1.2-0.1-1.8-0.1 -0.7 0-1.4 0-2.1 0 -1.3 0.1-2.6 0.2-3.9 0.5 -2.4 0.5-4.6 1.5-6.7 2.7 0-1.3 0-2.7 0-4 0-0.4 0-0.8 0-1.2 2.6-1.2 5.5-2 8.3-2.5 0-3.7 0-7.4 0-11 -2.9 0.2-5.7 1.1-8.3 2.3 0-1.2 0-2.4 0-3.5 1.1-0.5 2.2-1 3.3-1.3 0.9-0.3 1.9-0.5 2.8-0.8 0.7-0.1 1.4-0.2 2.1-0.3 0-3.9 0-7.7 0-11.6 -2.5 0.2-4.9 1-7.2 1.9 -0.4 0.1-0.7 0.3-1.1 0.4 0-0.1 0-0.2 0-0.4 0-1.6 0-3.1 0-4.7 2.9-1.3 6-2.1 9.1-2.5C60.8 29.9 61.3 29.9 61.7 29.8M62.7 34.7c0 3.9 0 7.9 0 11.8 1.3 0 2.6-0.1 3.9 0.1 1.5 0.2 2.9 0.6 4.3 1.1 0-3.9 0-7.7 0-11.6 -1.7-0.7-3.5-1.2-5.4-1.3C64.6 34.6 63.6 34.6 62.7 34.7M62.7 49.8c0 3.8 0 7.6 0 11.3 1.3 0 2.6 0 3.9 0.2 1.5 0.2 2.9 0.6 4.4 1 0-3.8 0-7.6 0-11.4 -2.1-0.8-4.3-1.3-6.6-1.2C63.8 49.8 63.2 49.7 62.7 49.8z"/><path class="st1" d="M24 33.7c0.6-0.3 1.2-0.6 1.7-0.9 0 0.6 0 1.2 0 1.7 -0.6 0.2-1.1 0.5-1.7 0.7V33.7z"/><path class="st1" d="M45.8 35c1.5-0.8 3.1-1.5 4.6-2.3 0 1.5 0 3 0 4.5 -1.5 0.8-2.9 1.5-4.4 2.3 -0.1 0-0.2 0.1-0.2 0.1C45.8 38.1 45.8 36.6 45.8 35z"/><path class="st1" d="M27.9 34.7c0.6-0.4 1.3-0.8 1.9-1.2 0.1 0 0.1 0.2 0.1 0.3 0 0.7 0 1.3 0 2 -0.6 0.4-1.3 0.7-1.9 1.1 -0.1 0.1-0.2 0.1-0.3 0.1 0-0.7 0-1.4 0-2.1C27.7 34.9 27.8 34.8 27.9 34.7z"/><path class="st1" d="M40.6 36.6c1.5-0.7 2.9-1.5 4.4-2.2 0.1 1.4 0 2.8 0 4.2 -1.5 0.7-2.9 1.4-4.4 2.2C40.6 39.5 40.6 38 40.6 36.6z"/><path class="st1" d="M37.9 35.6c0.6-0.3 1.2-0.6 1.8-0.8 0.1 1 0 2 0 2.9 0 0.3 0.1 0.6-0.1 0.8 -0.6 0.2-1.2 0.6-1.8 0.8l0 0 0 0c-0.6 0.3-1.1 0.6-1.7 0.8 0-1.2 0-2.5 0-3.7C36.6 36.1 37.3 35.9 37.9 35.6z"/><path class="st1" d="M31.7 36.6c1-0.5 2-1 3-1.4 0 0.9 0 1.9 0 2.8 -1 0.4-2 0.9-3 1.3C31.7 38.4 31.7 37.5 31.7 36.6z"/><path class="st1" d="M48.2 39.1c0.8-0.4 1.5-0.8 2.3-1.1 0 1.5 0 3 0 4.5l-0.1 0c0 0 0 0 0 0 -1.2 0.7-2.5 1.3-3.7 2 -0.2 0.1-0.5 0.3-0.7 0.4 0-1.2 0-2.4 0-3.5 0-0.4 0-0.8 0-1.1C46.6 39.9 47.4 39.5 48.2 39.1z"/><path class="st1" d="M45.8 45.5c1.5-0.7 3.1-1.5 4.6-2.2 0 1.5 0 3 0 4.5 -0.8 0.4-1.6 0.9-2.5 1.3 -0.4 0.2-0.7 0.4-1 0.5 0 0 0 0 0 0 -0.4 0.2-0.7 0.4-1.1 0.6C45.8 48.6 45.8 47.1 45.8 45.5z"/><path class="st1" d="M24.1 49.2c0.5-0.3 1.1-0.5 1.7-0.8 0 0.6 0 1.1 0 1.7 -0.5 0.2-1.1 0.5-1.6 0.7C24 50.3 24.1 49.8 24.1 49.2z"/><path class="st1" d="M49.4 49c0.3-0.2 0.7-0.3 1-0.5 0 1.5 0 3 0 4.5 -1.2 0.7-2.5 1.3-3.7 1.9 -0.3 0.1-0.6 0.4-0.9 0.4 0-1.5 0-3.1 0-4.6 0.6-0.3 1.3-0.6 1.9-0.9 0 0 0 0 0 0C48.3 49.6 48.9 49.3 49.4 49 49.4 49.1 49.4 49 49.4 49z"/><path class="st1" d="M29.8 49.3c0.1 0 0.1-0.1 0.2-0.1 0 0.7 0 1.4 0 2.2 0 0.2-0.1 0.2-0.3 0.3 -0.7 0.4-1.3 0.8-2 1.1 -0.1-0.7 0-1.4 0-2.1 0-0.1 0.1-0.2 0.2-0.3C28.5 50 29.1 49.7 29.8 49.3z"/><path class="st1" d="M40.6 52.3c1.4-0.7 2.9-1.5 4.3-2.2 0 0.1 0 0.3 0 0.4 0 1.3 0 2.5 0 3.8 -1.3 0.7-2.7 1.4-4 2 -0.1 0.1-0.3 0.1-0.4 0.1C40.6 55.1 40.6 53.7 40.6 52.3z"/><path class="st1" d="M36.2 52c1.1-0.5 2.2-1 3.3-1.5 0.1 0 0.2 0 0.2 0 0 1.2 0 2.4 0 3.6 -0.2 0.1-0.3 0.2-0.5 0.2 -1 0.5-2.1 1-3.1 1.5 -0.1-1.2 0-2.4 0-3.6C36 52.1 36.1 52.1 36.2 52z"/><path class="st1" d="M31.7 52.3c1-0.5 2-0.9 3-1.5 0 0.9 0 1.9 0 2.8 -1 0.4-2 0.9-3 1.3C31.7 54.1 31.7 53.2 31.7 52.3z"/><path class="st1" d="M45.8 56c1.5-0.8 3.1-1.5 4.6-2.3 0 1.5 0 3 0 4.5 -1.5 0.8-3.1 1.6-4.6 2.4C45.8 59.1 45.8 57.5 45.8 56z"/><path class="st1" d="M45.8 61.3c1.5-0.7 3.1-1.5 4.6-2.2 0 1.5 0 3 0 4.5 -1.6 0.8-3.1 1.6-4.6 2.4C45.8 64.4 45.8 62.9 45.8 61.3z"/><path class="st1" d="M24.1 64.9c0.5-0.3 1.1-0.5 1.6-0.8 0 0.6 0 1.1 0 1.7 -0.6 0.2-1.1 0.5-1.7 0.7C24.1 66 24 65.4 24.1 64.9z"/><path class="st1" d="M45.8 66.6c1.5-0.8 3.1-1.5 4.6-2.2 0 1.5 0 3 0 4.5 -1.5 0.8-3.1 1.6-4.6 2.4 -0.1-0.2 0-0.5 0-0.7C45.8 69.3 45.8 67.9 45.8 66.6z"/><path class="st1" d="M28.6 65.7c0.5-0.3 0.9-0.6 1.4-0.8 0 0.8 0 1.5 0 2.3 -0.7 0.4-1.5 0.8-2.2 1.2 0-0.7 0-1.5 0-2.2C27.9 66 28.3 65.9 28.6 65.7z"/><path class="st1" d="M44.4 66.1c0.2-0.1 0.3-0.1 0.5-0.2 0 1.3 0 2.6 0 4 0 0.3-0.3 0.3-0.4 0.4 -1.3 0.6-2.6 1.3-3.8 1.9h-0.1c0-1.4 0-2.8 0-4.2C41.9 67.3 43.1 66.7 44.4 66.1z"/><path class="st1" d="M39.1 66.3c0.2-0.1 0.4-0.2 0.6-0.2 0 1.2 0 2.4 0 3.6 -1.2 0.6-2.4 1.1-3.6 1.8 -0.1-1.1 0-2.3 0-3.4 0-0.1-0.1-0.3 0.1-0.4C37.1 67.3 38.1 66.8 39.1 66.3z"/><path class="st1" d="M31.7 68c1-0.5 2-1 3-1.4 0 0.9 0 1.8 0 2.8 -1 0.5-2 0.9-3 1.4C31.7 69.8 31.7 68.9 31.7 68z"/><path class="st1" d="M75.4 32.6C75.4 32.6 75.4 32.6 75.4 32.6 75.4 32.6 75.4 32.6 75.4 32.6z"/><path class="st1" d="M39.6 34.7c0.1 0.1 0.1 0.2 0.1 0.4 0 1.1 0 2.1 0 3.2 0 0.1 0 0.2-0.2 0.3 0.2-0.2 0.1-0.5 0.1-0.8C39.6 36.7 39.7 35.7 39.6 34.7L39.6 34.7z"/><path class="st1" d="M37.8 39.3L37.8 39.3C37.8 39.3 37.7 39.3 37.8 39.3L37.8 39.3z"/><path class="st1" d="M50.3 42.6C50.3 42.6 50.3 42.6 50.3 42.6 50.3 42.6 50.3 42.6 50.3 42.6z"/><path class="st1" d="M49.4 49.1C49.4 49.1 49.4 49 49.4 49.1 49.4 49 49.4 49.1 49.4 49.1z"/><path class="st1" d="M24 49.3L24 49.3c0.1 0.4 0 1 0.1 1.5 0 0-0.1 0-0.1 0V49.3z"/><path class="st1" d="M46.9 49.6C47 49.6 47 49.6 46.9 49.6 47 49.6 47 49.6 46.9 49.6z"/><path class="st1" d="M47.7 49.9C47.7 49.9 47.8 49.8 47.7 49.9 47.8 49.8 47.7 49.9 47.7 49.9z"/><path class="st1" d="M39.5 50.5c0.1 0 0.2-0.1 0.3-0.1 0 1.2 0 2.5 0 3.7 -0.2 0.1-0.4 0.2-0.5 0.2 0.2-0.1 0.3-0.2 0.5-0.2 0-1.2 0-2.4 0-3.6C39.6 50.5 39.5 50.5 39.5 50.5z"/><path class="st1" d="M24 54.6c0 0 0.1-0.1 0.2-0.1C24.2 54.6 24.1 54.6 24 54.6c0.1 0.5 0 1 0.1 1.5 0.1 0 0.3-0.1 0.4-0.1 -0.2 0.1-0.3 0.1-0.5 0.2V54.6z"/><path class="st1" d="M32 60.2C32 60.2 32 60.2 32 60.2 32 60.2 32 60.2 32 60.2z"/><path class="st1" d="M43.3 60.5C43.3 60.5 43.3 60.5 43.3 60.5 43.3 60.5 43.3 60.5 43.3 60.5z"/><path class="st1" d="M24 65c0 0 0.1-0.1 0.1-0.1 -0.1 0.5 0 1.1-0.1 1.6L24 66.6V65z"/><path class="st1" d="M32.7 65C32.7 65 32.7 65 32.7 65 32.7 65 32.7 65 32.7 65z"/><path class="st1" d="M32.1 65.3C32.1 65.3 32.1 65.2 32.1 65.3 32.1 65.2 32.1 65.3 32.1 65.3z"/><path class="st1" d="M44.4 66.1c0.2-0.1 0.4-0.2 0.6-0.3 0 1.3 0 2.7 0 4 0 0.3-0.3 0.3-0.5 0.4 0.2-0.1 0.5-0.2 0.4-0.4 0-1.3 0-2.6 0-4C44.7 65.9 44.6 66 44.4 66.1z"/><path class="st1" d="M65.8 65.9c0.1-0.1 0.2 0 0.3 0.1C66 66.1 65.9 66 65.8 65.9z"/><path class="st1" d="M66.4 66c0.1-0.1 0.2 0 0.3 0.1C66.5 66.1 66.4 66.1 66.4 66z"/><path class="st1" d="M39.1 66.3c0.2-0.1 0.4-0.2 0.6-0.3 0 1.2 0 2.5 0 3.7l-0.1 0c0.1-1.2 0-2.4 0-3.6C39.5 66.2 39.3 66.3 39.1 66.3z"/><path class="st1" d="M68.2 66.4c0.1 0 0.2 0 0.2 0C68.3 66.4 68.2 66.4 68.2 66.4z"/><path class="st1" d="M69.3 66.6c0.1 0 0.2 0 0.2 0C69.5 66.7 69.4 66.6 69.3 66.6z"/><path class="st1" d="M24.6 38.6c0.4-0.2 0.8-0.4 1.2-0.6 0 0.6 0 1.1 0 1.7 -0.6 0.3-1.1 0.6-1.7 0.7V39C24.2 38.8 24.4 38.7 24.6 38.6z"/><path class="st1" d="M27.7 40.2c0.7-0.5 1.5-0.9 2.2-1.4 0.1 0.1 0.1 0.3 0.1 0.4 0 0.6 0 1.2 0 1.9 0 0-0.1 0.1-0.1 0.1 -0.5 0.3-1.1 0.6-1.7 0.9 -0.2 0.1-0.3 0.2-0.5 0.2C27.7 41.6 27.7 40.9 27.7 40.2z"/><path class="st1" d="M40.6 41.9c1.4-0.7 2.9-1.4 4.3-2.2 0 0.1 0.1 0.3 0 0.4 0 1.2 0 2.5 0 3.7 0 0-0.1 0.1-0.1 0.1 -1.3 0.7-2.7 1.4-4.1 2.1 0 0-0.1 0-0.2 0.1C40.6 44.7 40.6 43.3 40.6 41.9z"/><path class="st1" d="M37.1 41.3c0.9-0.4 1.8-0.8 2.7-1.3 0 1.2 0 2.5 0 3.7 -1 0.5-2.1 1-3.1 1.5 -0.2 0.1-0.4 0.2-0.6 0.2 0-1.1 0-2.2 0-3.3 0-0.1 0-0.3 0-0.4C36.4 41.6 36.7 41.4 37.1 41.3z"/><path class="st1" d="M31.7 41.9c1-0.5 2-1 3-1.4 0 0.9 0 1.9 0 2.8 -1 0.4-2 0.9-3 1.3C31.7 43.7 31.7 42.8 31.7 41.9z"/><path class="st1" d="M24 44c0.5-0.3 1.2-0.6 1.7-0.8 0 0.6 0 1.1 0 1.7 -0.6 0.2-1.1 0.5-1.7 0.7V44z"/><path class="st1" d="M29.6 44.1c0.1-0.1 0.2-0.1 0.4-0.1 0 0.8 0 1.5 0 2.3 -0.7 0.4-1.4 0.8-2.1 1.2 0 0-0.1 0-0.2 0 0-0.7 0-1.4 0-2.1 0-0.2 0.2-0.2 0.4-0.3C28.6 44.7 29.1 44.4 29.6 44.1z"/><path class="st1" d="M40.6 47c1.5-0.7 2.9-1.5 4.4-2.2 0 1.4 0 2.8 0 4.2 -1 0.5-2.1 1-3.1 1.6 -0.4 0.2-0.9 0.5-1.3 0.6C40.6 49.8 40.6 48.4 40.6 47z"/><path class="st1" d="M36 46.9c1.2-0.6 2.5-1.2 3.7-1.7 0 1.2 0 2.5 0 3.7 -1.2 0.6-2.5 1.2-3.7 1.8C36 49.3 36 48.1 36 46.9z"/><path class="st1" d="M33.5 46.1c0.4-0.2 0.8-0.5 1.3-0.6 0 0.9 0 1.9 0 2.8 -1 0.5-2 0.9-3 1.4 0-0.9 0-1.8 0-2.7C32.3 46.7 32.9 46.4 33.5 46.1z"/><path class="st1" d="M24.2 54.5c0.5-0.2 1-0.5 1.5-0.8 0 0.6 0 1.1 0 1.7 -0.4 0.2-0.9 0.4-1.3 0.6 -0.1 0-0.3 0.1-0.4 0.1 0-0.5 0-1 0-1.5C24.1 54.6 24.2 54.6 24.2 54.5z"/><path class="st1" d="M29.3 54.9c0.2-0.1 0.4-0.3 0.6-0.3 0 0.8 0 1.5 0 2.3 -0.7 0.4-1.4 0.8-2.1 1.2 -0.1 0-0.1 0-0.2 0.1 0-0.7 0-1.5 0-2.2C28.2 55.5 28.8 55.2 29.3 54.9z"/><path class="st1" d="M44.9 55.4c0 0 0 0.1 0 0.1 0 1.4 0 2.7 0 4.1 -0.5 0.3-1.1 0.5-1.6 0.8 0 0 0 0 0 0 -0.9 0.5-1.8 0.9-2.7 1.4 0-1.4 0-2.9 0-4.3C42 56.9 43.5 56.1 44.9 55.4z"/><path class="st1" d="M36 57.4c1.2-0.6 2.4-1.2 3.7-1.7 0 1.2 0 2.5 0 3.7 -0.6 0.3-1.1 0.6-1.7 0.8 -0.6 0.3-1.3 0.6-2 0.9C36 59.9 36 58.7 36 57.4z"/><path class="st1" d="M31.7 57.6c1-0.5 2-0.9 3-1.4 0 0.9 0 1.9 0 2.8 -0.9 0.4-1.8 0.8-2.7 1.3 0 0 0 0 0 0 -0.1 0-0.2 0.1-0.3 0.1C31.7 59.4 31.7 58.5 31.7 57.6z"/><path class="st1" d="M24 59.7c0.6-0.3 1.2-0.6 1.7-0.9 0 0.6 0 1.1 0 1.7 -0.6 0.2-1.1 0.6-1.8 0.7V59.7z"/><path class="st1" d="M29.6 59.8c0.1-0.1 0.2-0.1 0.3-0.2 0 0.7 0 1.5 0 2.2 0 0.1-0.2 0.2-0.3 0.3 -0.7 0.4-1.3 0.7-2 1.1 0-0.8 0-1.5 0-2.3C28.3 60.5 29 60.2 29.6 59.8z"/><path class="st1" d="M43.5 61.2c0.5-0.2 0.9-0.5 1.4-0.7 0 1.4 0 2.7 0 4.1 0 0.1-0.1 0.2-0.2 0.2 -1.4 0.7-2.8 1.5-4.2 2.1 0-1.4 0-2.8 0-4.2C41.6 62.2 42.6 61.7 43.5 61.2z"/><path class="st1" d="M36 62.5c1.2-0.6 2.5-1.2 3.7-1.8 0 1.2 0 2.5 0 3.7 -1.2 0.6-2.5 1.2-3.7 1.7C36 65 36 63.8 36 62.5z"/><path class="st1" d="M31.7 62.7c1-0.5 2-1 3-1.4 0 0.9 0 1.9 0 2.8 -0.7 0.3-1.4 0.6-2 0.9 0 0 0 0 0 0 -0.2 0.1-0.4 0.2-0.6 0.3 0 0 0 0 0 0 -0.1 0.1-0.2 0.1-0.3 0.2C31.7 64.5 31.7 63.6 31.7 62.7z"/></svg>