<svg xmlns="http://www.w3.org/2000/svg" viewBox="0 0 100 100"><style type="text/css">  
	.st0{fill:#FFFFFF;}
	.st1{fill:#D5006E;}
	.st2{fill:#D5006E;stroke:#D5006E;stroke-miterlimit:10;}
</style><rect class="st0" width="100" height="100"/><path class="st1" d="M100 100H0V0h100V100zM9.7 90h80.7V10H9.7"/><path class="st2" d="M24.2 48.4l18.1-15.7v8L30 51.1v0.1l12.3 10.3v8L24.2 53.9V48.4z"/><path class="st2" d="M49.3 37.1c0-5.7 2.2-10.4 5.7-10.4 3.5 0 5.8 4.7 5.8 10.4 0 5.7-2.3 10.3-5.8 10.3C51.5 47.4 49.3 42.8 49.3 37.1zM69.1 27.5h4.4L54.8 73.9h-4.4L69.1 27.5zM57 37c0-2.5-0.6-4.5-2-4.5 -1.4 0-1.9 2-1.9 4.5 0 2.6 0.5 4.6 1.9 4.6C56.5 41.6 57 39.6 57 37zM69 54c3.5 0 5.8 4.7 5.8 10.3 0 5.8-2.3 10.3-5.8 10.3 -3.5 0-5.8-4.6-5.8-10.3C63.2 58.8 65.5 54 69 54zM69 68.9c1.4 0 1.9-2 1.9-4.5 0-2.5-0.6-4.6-1.9-4.6s-1.9 2.1-1.9 4.6C67.1 66.9 67.6 68.9 69 68.9z"/></svg>