<svg xmlns="http://www.w3.org/2000/svg" viewBox="0 0 100 100"><style type="text/css">  
	.st0{fill:#FFFFFF;}
	.st1{fill:#AA5E3A;}
</style><rect class="st0" width="100" height="100"/><path class="st1" d="M100 100H0V0h100V100zM9.7 90h80.7V10H9.7"/><path class="st1" d="M26.8 35.6h7.3L41.5 65h-6.7l-1.2-6.2h-6.2L26.2 65h-6.7L26.8 35.6zM32.6 53.2l-1.1-5.8c-0.4-1.9-0.9-5-0.9-5h-0.2c0 0-0.4 3.2-0.8 5l-1.1 5.8H32.6z"/><path class="st1" d="M45 56.8c1.1 1.3 2.9 2.5 4.8 2.5 1.8 0 2.7-1.1 2.7-2.5 0-4-9.8-4.4-9.8-12.8 0-5 3.4-8.8 9.3-8.8 2.4 0 5 0.7 7 2.1l-2.4 5.9c-1-0.9-3-1.8-4.4-1.8 -1.9 0-2.7 1.1-2.7 2.5 0 4.3 9.8 4.1 9.8 12.6 0 4.8-3 9-9.1 9 -2.9 0-5.9-1-8.2-3L45 56.8z"/><path class="st1" d="M62.4 35.6h9.2c5.4 0 8.9 4.2 8.9 10.1s-3.6 10.2-8.9 10.2h-2.5V65h-6.7C62.4 65 62.4 35.6 62.4 35.6zM70.4 50c2.1 0 3.3-1.8 3.3-4.2s-1.4-4.1-3.2-4.1h-1.4V50H70.4z"/></svg>