<svg xmlns="http://www.w3.org/2000/svg" viewBox="0 0 100 100"><style type="text/css">  
	.st0{fill:#FFFFFF;}
	.st1{fill:#2E61F2;}
	.st2{fill:#FF9800;}
</style><rect class="st0" width="100" height="100"/><path class="st1" d="M100 100H0V0h100V100zM9.7 90h80.7V10H9.7"/><path class="st2" d="M57 76c11.5-10.2 1.6-23.4-1.5-24.8 0.4 1.6 0.2 4.3-1.3 5.8 -0.8-3.9-3.8-9-8.3-10.7 0.7 5.6-2.6 9.6-4 11.7 -1.2 1.9-7.9 11.3-1.1 18 -16.4-5.1-12.3-21.6-7.5-28.8 5-7.5 10.8-13.7 9.5-23.2 7.9 2.8 13.4 11.2 14.8 17.7 2.7-2.5 3.1-7.1 2.4-9.7C65.6 34.4 83.1 65.8 57 76z"/></svg>