<svg xmlns="http://www.w3.org/2000/svg" viewBox="0 0 100 100"><style type="text/css">  
	.st0{fill:#FFFFFF;}
	.st1{fill:#999999;}
	.st2{fill:#999999;stroke:#999999;stroke-width:2;stroke-miterlimit:10;}
</style><rect class="st0" width="100" height="100"/><path class="st1" d="M100 100H0V0h100V100zM9.7 90h80.7V10H9.7"/><path class="st2" d="M49.8 26.5c-4.4 0-7.9 4.2-7.9 9.3 0 5.1 3.6 9.3 7.9 9.3s7.9-4.2 7.9-9.3C57.7 30.7 54.1 26.5 49.8 26.5zM49.8 41.5c-2.4 0-4.4-2.6-4.4-5.7 0-3.2 2-5.7 4.4-5.7s4.4 2.6 4.4 5.7C54.2 39 52.2 41.5 49.8 41.5z"/><path class="st2" d="M33.7 43.3v-15c0-1-0.8-1.8-1.8-1.8 -1 0-1.8 0.8-1.8 1.8v15c0 1 0.8 1.8 1.8 1.8C32.9 45.1 33.7 44.3 33.7 43.3z"/><path class="st2" d="M31.9 53.6c-4.4 0-7.9 4.2-7.9 9.3 0 5.1 3.6 9.3 7.9 9.3s7.9-4.2 7.9-9.3C39.9 57.8 36.3 53.6 31.9 53.6zM31.9 68.7c-2.4 0-4.4-2.6-4.4-5.7 0-3.2 2-5.7 4.4-5.7s4.4 2.6 4.4 5.7C36.4 66.1 34.4 68.7 31.9 68.7z"/><path class="st2" d="M51.5 70.4v-15c0-1-0.8-1.8-1.8-1.8 -1 0-1.8 0.8-1.8 1.8v15c0 1 0.8 1.8 1.8 1.8C50.7 72.2 51.5 71.4 51.5 70.4z"/><path class="st2" d="M69.8 44.6v-15c0-1-0.8-1.8-1.8-1.8s-1.8 0.8-1.8 1.8v15c0 1 0.8 1.8 1.8 1.8S69.8 45.6 69.8 44.6z"/><path class="st2" d="M68.1 54.9c-4.4 0-7.9 4.2-7.9 9.3 0 5.1 3.6 9.3 7.9 9.3s7.9-4.2 7.9-9.3C76 59.1 72.4 54.9 68.1 54.9zM68.1 70c-2.4 0-4.4-2.6-4.4-5.7 0-3.2 2-5.7 4.4-5.7s4.4 2.6 4.4 5.7C72.5 67.4 70.5 70 68.1 70z"/></svg>