<svg xmlns="http://www.w3.org/2000/svg" viewBox="0 0 100 100"><style type="text/css">  
	.st0{fill:#FFFFFF;}
	.st1{fill:#BABABA;}
</style><rect class="st0" width="100" height="100"/><path class="st1" d="M100 100H0V0h100V100zM9.7 90h80.7V10H9.7"/><path class="st1" d="M40.2 61.2c2.6-1.1 5.4-1.8 8.3-1.9v-7.7H38.4C38.5 54.8 39.1 58.1 40.2 61.2z"/><path class="st1" d="M34.6 31.6c1.2 1.2 2.6 2.2 4 3 1.2-2.8 2.8-5.4 4.7-7.8C40 27.8 37.1 29.4 34.6 31.6L34.6 31.6z"/><path class="st1" d="M59.8 38.8c-2.6 1.1-5.4 1.8-8.3 1.9v7.7h10.1C61.5 45.2 60.9 41.9 59.8 38.8z"/><path class="st1" d="M48.5 40.7c-2.9-0.2-5.7-0.8-8.3-1.9 -1.1 3.1-1.7 6.4-1.8 9.7h10.1L48.5 40.7 48.5 40.7z"/><path class="st1" d="M41.3 36c2.3 1 4.7 1.5 7.2 1.7V25.9c-0.1 0-0.2 0-0.3 0l-1.3 1.4C44.5 29.9 42.7 32.9 41.3 36z"/><path class="st1" d="M61.6 51.5H51.5v7.7c2.9 0.2 5.7 0.8 8.3 1.9C60.9 58.1 61.5 54.8 61.6 51.5z"/><path class="st1" d="M51.5 37.7c2.5-0.2 4.9-0.7 7.2-1.7 -1.4-3.2-3.3-6.1-5.6-8.7l0 0L52 26c-0.2 0-0.3 0-0.5 0V37.7z"/><path class="st1" d="M65.5 31.5c-2.5-2.2-5.5-3.8-8.8-4.7 1.9 2.4 3.5 5 4.7 7.8C62.8 33.8 64.2 32.8 65.5 31.5L65.5 31.5z"/><path class="st1" d="M48.5 62.3C46 62.5 43.6 63 41.3 64c1.4 3.1 3.3 6.1 5.5 8.7l1.2 1.3c0.1 0 0.3 0 0.4 0L48.5 62.3 48.5 62.3z"/><path class="st1" d="M35.3 48.5c0.1-3.8 0.9-7.5 2.1-11 -1.8-1-3.4-2.2-5-3.7l0 0 -0.1-0.1c-3.6 4-6 9.1-6.3 14.9L35.3 48.5 35.3 48.5z"/><path class="st1" d="M64.6 51.5c-0.1 3.8-0.9 7.5-2.1 11 1.8 1 3.4 2.2 5 3.7l0 0 0.2 0.2c3.6-4 6-9.1 6.3-14.9L64.6 51.5 64.6 51.5z"/><path class="st1" d="M67.5 33.8c-1.5 1.4-3.2 2.7-5 3.7 1.3 3.5 2 7.2 2.1 11H74c-0.3-5.7-2.7-10.9-6.3-14.9L67.5 33.8z"/><path class="st1" d="M65.4 68.4c-1.2-1.2-2.6-2.2-4-3 -1.2 2.8-2.8 5.4-4.7 7.8C60 72.2 63 70.6 65.4 68.4L65.4 68.4z"/><path class="st1" d="M32.5 66.2c1.5-1.4 3.2-2.7 4.9-3.7 -1.3-3.5-2-7.2-2.1-11H26c0.4 5.7 2.7 10.9 6.3 14.9L32.5 66.2z"/><path class="st1" d="M38.6 65.4c-1.4 0.8-2.8 1.9-4 3l0 0 0 0c2.5 2.2 5.5 3.8 8.8 4.7C41.4 70.8 39.8 68.2 38.6 65.4z"/><path class="st1" d="M58.7 64c-2.3-1-4.7-1.5-7.2-1.7v11.8c0.1 0 0.2 0 0.4 0l1.3-1.4C55.5 70.1 57.3 67.1 58.7 64z"/></svg>