<svg xmlns="http://www.w3.org/2000/svg" viewBox="0 0 100 100"><style type="text/css">  
	.st0{fill:#FFFFFF;}
	.st1{fill:#666666;}
	.st2{fill:#215997;}
</style><rect class="st0" width="100" height="100"/><path class="st1" d="M100 100H0V0h100V100zM9.7 90h80.7V10H9.7"/><path class="st2" d="M51.8 73c-12.4 0-22.5-10.1-22.5-22.5S39.4 28 51.8 28c7.1 0 13.6 3.3 17.9 8.9l-8.2 4.8c-2.5-2.7-6-4.3-9.7-4.3 -7.2 0-13.1 5.9-13.1 13.1s5.9 13.1 13.1 13.1c3.7 0 7.2-1.6 9.7-4.3l8.2 4.8C65.4 69.7 58.9 73 51.8 73z"/></svg>