<svg xmlns="http://www.w3.org/2000/svg" viewBox="0 0 100 100"><style type="text/css">  
	.st0{fill:#FFFFFF;}
	.st1{fill:#C11E07;}
	.st2{fill:none;}
</style><rect class="st0" width="100" height="100"/><path class="st1" d="M100 100H0V0h100V100zM9.7 90h80.7V10H9.7"/><polygon class="st2" points="63 34.3 58.4 34.3 58.4 31.8 42.6 31.8 42.6 34.3 38 34.3 38 31.8 31.3 31.8 31.3 38.6 69.7 38.6 69.7 31.8 63 31.8 "/><path d="M62.5 23.5h-4.3v3.8H42.9v-3.8h-4.4v3.8H26.8v49.2h34.3l13.1-13V27.3H62.5V23.5zM69 62.3H58.7v8.9H32V43.1h37V62.3L69 62.3zM69 32.5v6.5H32v-6.5h6.5v2.3h4.3v-2.3h15.3v2.3h4.4v-2.3C62.5 32.5 69 32.5 69 32.5z"/><path d="M36.8 52.8H42c0.1 0 0.2-0.1 0.2-0.2v-5.2c0-0.1-0.1-0.2-0.2-0.2h-5.2c-0.1 0-0.2 0.1-0.2 0.2v5.2C36.6 52.7 36.7 52.8 36.8 52.8z"/><path d="M44.2 52.8h5.2c0.1 0 0.2-0.1 0.2-0.2v-5.2c0-0.1-0.1-0.2-0.2-0.2h-5.2c-0.1 0-0.2 0.1-0.2 0.2v5.2C44 52.7 44.1 52.8 44.2 52.8z"/><path d="M51.6 52.8h5.2c0.1 0 0.2-0.1 0.2-0.2v-5.2c0-0.1-0.1-0.2-0.2-0.2h-5.2c-0.1 0-0.2 0.1-0.2 0.2v5.2C51.4 52.7 51.5 52.8 51.6 52.8z"/><path d="M59 52.8h5.2c0.1 0 0.2-0.1 0.2-0.2v-5.2c0-0.1-0.1-0.2-0.2-0.2H59c-0.1 0-0.2 0.1-0.2 0.2v5.2C58.8 52.7 58.9 52.8 59 52.8z"/><path d="M36.8 60.2H42c0.1 0 0.2-0.1 0.2-0.2v-5.2c0-0.1-0.1-0.2-0.2-0.2h-5.2c-0.1 0-0.2 0.1-0.2 0.2V60C36.6 60.1 36.7 60.2 36.8 60.2z"/><path d="M44.2 60.2h5.2c0.1 0 0.2-0.1 0.2-0.2v-5.2c0-0.1-0.1-0.2-0.2-0.2h-5.2c-0.1 0-0.2 0.1-0.2 0.2V60C44 60.1 44.1 60.2 44.2 60.2z"/><path d="M51.6 60.2h5.2c0.1 0 0.2-0.1 0.2-0.2v-5.2c0-0.1-0.1-0.2-0.2-0.2h-5.2c-0.1 0-0.2 0.1-0.2 0.2V60C51.4 60.1 51.5 60.2 51.6 60.2z"/><path d="M59 60.2h5.2c0.1 0 0.2-0.1 0.2-0.2v-5.2c0-0.1-0.1-0.2-0.2-0.2H59c-0.1 0-0.2 0.1-0.2 0.2V60C58.8 60.1 58.9 60.2 59 60.2z"/><path d="M36.8 67.6H42c0.1 0 0.2-0.1 0.2-0.2v-5.2c0-0.1-0.1-0.2-0.2-0.2h-5.2c-0.1 0-0.2 0.1-0.2 0.2v5.2C36.6 67.5 36.7 67.6 36.8 67.6z"/><path d="M44.2 67.6h5.2c0.1 0 0.2-0.1 0.2-0.2v-5.2c0-0.1-0.1-0.2-0.2-0.2h-5.2c-0.1 0-0.2 0.1-0.2 0.2v5.2C44 67.5 44.1 67.6 44.2 67.6z"/><path d="M51.6 67.6h5.2c0.1 0 0.2-0.1 0.2-0.2v-5.2c0-0.1-0.1-0.2-0.2-0.2h-5.2c-0.1 0-0.2 0.1-0.2 0.2v5.2C51.4 67.5 51.5 67.6 51.6 67.6z"/></svg>