<svg xmlns="http://www.w3.org/2000/svg" viewBox="0 0 100 100"><style type="text/css">  
	.st0{fill:#FFFFFF;}
	.st1{fill:#C11E07;}
	.st2{fill:#111111;stroke:#111111;stroke-width:0.5;stroke-miterlimit:10;}
</style><rect class="st0" width="100" height="100"/><path class="st1" d="M100 100H0V0h100V100zM9.7 90h80.7V10H9.7"/><path class="st2" d="M27.6 71.2v-8h9.2v8H27.6zM38.8 71.2v-8H49v8H38.8zM27.6 61.5v-8.8h9.2v8.8H27.6zM38.8 61.5v-8.8H49v8.8H38.8zM27.6 50.9v-8h9.2v8H27.6zM51 71.2v-8h10.2v8H51zM38.8 50.9v-8H49v8H38.8zM63.2 71.2v-8h9.2v8H63.2zM51 61.5v-8.8h10.2v8.8H51zM39.8 37.6c0 0.5-0.5 0.9-1 0.9h-2c-0.5 0-1-0.4-1-0.9v-8c0-0.5 0.5-0.9 1-0.9h2c0.5 0 1 0.4 1 0.9V37.6zM63.2 61.5v-8.8h9.2v8.8H63.2zM51 50.9v-8h10.2v8H51zM63.2 50.9v-8h9.2v8H63.2zM64.3 37.6c0 0.5-0.5 0.9-1 0.9h-2c-0.5 0-1-0.4-1-0.9v-8c0-0.5 0.5-0.9 1-0.9h2c0.5 0 1 0.4 1 0.9V37.6zM76.5 35.9c0-1.9-1.8-3.5-4.1-3.5h-4.1v-2.7c0-2.4-2.3-4.4-5.1-4.4h-2c-2.8 0-5.1 2-5.1 4.4v2.7H43.9v-2.7c0-2.4-2.3-4.4-5.1-4.4h-2c-2.8 0-5.1 2-5.1 4.4v2.7h-4.1c-2.2 0-4.1 1.6-4.1 3.5v35.4c0 1.9 1.8 3.5 4.1 3.5h44.8c2.2 0 4.1-1.6 4.1-3.5V35.9z"/></svg>