<svg xmlns="http://www.w3.org/2000/svg" viewBox="0 0 100 100"><style type="text/css">  
	.st0{fill:#FFFFFF;}
	.st1{fill:#2D444F;}
	.st2{fill:#2D444F;stroke:#2D444F;stroke-width:3;stroke-miterlimit:10;}
</style><rect class="st0" width="100" height="100"/><path class="st1" d="M100 100H0V0h100V100zM9.7 90h80.7V10H9.7"/><path class="st2" d="M42.5 73.7C31.8 73.7 27 63.4 27 52.3 27 41.2 31.8 31 42.5 31c3.3 0 6 0.8 8.1 2.3l-1.4 3.4c-1.5-1-3.8-1.7-6.1-1.7 -7.5 0-10.4 8.7-10.4 17.4 0 8.6 3 17.2 10.4 17.2 2.3 0 4.6-0.8 6.1-1.7l1.4 3.6C48.5 72.8 45.8 73.7 42.5 73.7z"/><path class="st2" d="M66 43.9v29.2h-5.3V43.9h-3.7v-3.3h3.7V36c0-6.2 3.4-10.3 9.9-10.3 0.4 0 0.4 0 1.1 0.1v3.4h-0.4c-2.8 0-5.3 1.4-5.3 6.6v4.8h5.7v3.3H66z"/></svg>