<svg xmlns="http://www.w3.org/2000/svg" viewBox="0 0 100 100"><style type="text/css">  
	.st0{fill:#FFFFFF;}
	.st1{fill:#999999;}
	.st2{fill:#999999;stroke:#999999;stroke-width:0.25;stroke-miterlimit:10;}
</style><rect class="st0" width="100" height="100"/><path class="st1" d="M100 100H0V0h100V100zM9.7 90h80.7V10H9.7"/><path class="st2" d="M25.1 52.7v-5.2c1.1-0.1 2-0.2 2.6-0.6 0.6-0.2 1-0.8 1.5-1.2 0.5-0.7 0.7-1.4 0.9-2.4 0.1-0.8 0.2-1.9 0.2-3.6 0-2.8 0.1-4.8 0.5-5.9 0.2-1 0.8-2 1.5-2.6 0.7-0.7 1.8-1.1 3.2-1.6 0.9-0.2 2.4-0.5 4.4-0.5h1.1v5.2c-1.7 0-2.8 0.1-3.3 0.3 -0.5 0.2-0.8 0.5-1.1 0.8 -0.2 0.3-0.3 0.9-0.3 1.9s-0.1 2.6-0.2 5.2c-0.1 1.5-0.2 2.6-0.6 3.5 -0.3 0.8-0.8 1.6-1.2 2.3 -0.5 0.6-1.2 1.1-2.3 1.8 0.9 0.6 1.7 1 2.3 1.7 0.6 0.7 1 1.5 1.4 2.4 0.3 0.9 0.6 2.3 0.6 3.8 0.1 2.4 0.1 4 0.1 4.6 0 0.9 0.1 1.6 0.3 2 0.2 0.5 0.7 0.7 1.1 0.8 0.5 0.2 1.6 0.3 3.3 0.3v5.2h-1.2c-2 0-3.7-0.1-4.8-0.5 -1.1-0.3-2-0.8-2.8-1.6 -0.8-0.8-1.2-1.6-1.6-2.6 -0.2-1-0.3-2.7-0.3-5.1 0-2.6-0.1-4.4-0.3-5.2 -0.3-1.1-0.9-2-1.6-2.5C27.6 53.1 26.6 52.7 25.1 52.7zM74.8 52.7c-1.1 0.1-2 0.2-2.6 0.6 -0.6 0.2-1 0.8-1.5 1.2 -0.5 0.7-0.7 1.4-0.9 2.4 -0.1 0.8-0.2 1.9-0.2 3.6 0 2.8-0.1 4.8-0.5 5.9 -0.2 1.1-0.8 2-1.5 2.6 -0.7 0.7-1.8 1.1-3.2 1.6 -0.9 0.2-2.4 0.5-4.4 0.5h-1.2v-5.2c1.7 0 2.7-0.1 3.3-0.3 0.6-0.2 0.9-0.6 1.1-0.8 0.2-0.3 0.3-0.9 0.3-1.9 0-0.8 0.1-2.5 0.2-5.1 0.1-1.5 0.3-2.7 0.7-3.6 0.3-0.9 0.8-1.7 1.4-2.4 0.6-0.7 1.2-1.1 2.2-1.7 -1.1-0.8-2-1.4-2.5-2 -0.7-0.9-1.2-2.3-1.5-3.6 -0.2-1-0.3-3.3-0.3-6.7 0-1-0.1-1.8-0.3-2.3 -0.2-0.3-0.6-0.7-1-0.8 -0.5-0.2-1.6-0.3-3.4-0.3v-5h1.2c2 0 3.7 0.1 4.8 0.5 1.1 0.3 2 0.8 2.8 1.6 0.8 0.8 1.2 1.6 1.6 2.6 0.2 1 0.5 2.7 0.5 5.1 0 2.6 0.1 4.3 0.3 5.2 0.3 1.1 0.9 2 1.6 2.4 0.7 0.6 1.8 0.8 3.2 0.8C74.9 47.4 74.8 52.7 74.8 52.7z"/></svg>