<svg xmlns="http://www.w3.org/2000/svg" viewBox="0 0 100 100"><style type="text/css">  
	.st0{fill:#FFFFFF;}
	.st1{fill:#BABABA;}
</style><rect class="st0" width="100" height="100"/><path class="st1" d="M100 100H0V0h100V100zM9.7 90h80.7V10H9.7"/><path class="st1" d="M69.5 68.1c0-9.3 0-18.5 0-27.7 1.9 0 3.7 0 5.5 0 0 11.1 0 22.2 0 33.3 -16.7 0-33.3 0-50 0 0-11.1 0-22.2 0-33.3 1.8 0 3.6 0 5.5 0 0 9.3 0 18.5 0 27.7C43.5 68.1 56.4 68.1 69.5 68.1z"/><path class="st1" d="M36.3 26.4c9.1 0 18.3 0 27.2 0C59 30.9 54.5 35.4 49.9 40 45.5 35.6 40.9 31 36.3 26.4z"/><path class="st1" d="M41.7 51.4c0-1.8 0-3.7 0-5.5 1.8 0 3.7 0 5.5 0 0 1.9 0 3.7 0 5.5C45.3 51.4 43.5 51.4 41.7 51.4z"/><path class="st1" d="M58.3 51.4c-1.8 0-3.6 0-5.5 0 0-1.8 0-3.6 0-5.5 1.8 0 3.6 0 5.5 0C58.3 47.7 58.3 49.5 58.3 51.4z"/><path class="st1" d="M36.1 57c1.8 0 3.6 0 5.5 0 0 1.8 0 3.6 0 5.5 -1.8 0-3.6 0-5.5 0C36.1 60.7 36.1 58.9 36.1 57z"/><path class="st1" d="M58.4 62.5c0-1.9 0-3.6 0-5.5 1.8 0 3.7 0 5.5 0 0 1.8 0 3.6 0 5.5C62 62.5 60.2 62.5 58.4 62.5z"/><path class="st1" d="M52.7 57c0 1.8 0 3.6 0 5.5 -1.8 0-3.6 0-5.5 0 0-1.8 0-3.6 0-5.5C49.1 57 50.9 57 52.7 57z"/></svg>