<svg xmlns="http://www.w3.org/2000/svg" viewBox="0 0 100 100"><style type="text/css">  
	.st0{fill:#FFFFFF;}
	.st1{fill:#666666;}
	.st2{fill:#215997;}
</style><rect class="st0" width="100" height="100"/><path class="st1" d="M100 100H0V0h100V100zM9.7 90h80.7V10H9.7"/><path class="st2" d="M44.4 72.5C32 72.5 21.9 62.4 21.9 50S32 27.5 44.4 27.5c7.1 0 13.6 3.3 17.9 8.9l-8.2 4.8c-2.5-2.7-6-4.3-9.7-4.3 -7.2 0-13.1 5.9-13.1 13.1s5.9 13.1 13.1 13.1c3.7 0 7.2-1.6 9.7-4.3l8.2 4.8C58.1 69.2 51.5 72.5 44.4 72.5z"/><polygon class="st2" points="66.9 51.9 63.2 51.9 63.2 55.6 59.4 55.6 59.4 51.9 55.7 51.9 55.7 48.1 59.4 48.1 59.4 44.4 63.2 44.4 63.2 48.1 66.9 48.1 "/><polygon class="st2" points="80.1 51.9 76.3 51.9 76.3 55.6 72.6 55.6 72.6 51.9 68.8 51.9 68.8 48.1 72.6 48.1 72.6 44.4 76.3 44.4 76.3 48.1 80.1 48.1 "/></svg>