<svg xmlns="http://www.w3.org/2000/svg" viewBox="0 0 100 100"><style type="text/css">  
	.st0{fill:#FFFFFF;}
	.st1{fill:#59AA5A;}
	.st2{fill:#59AA5A;stroke:#59AA5A;stroke-width:3;stroke-miterlimit:10;}
</style><rect class="st0" width="100" height="100"/><path class="st1" d="M100 100H0V0h100V100zM9.7 90h80.7V10H9.7"/><path class="st2" d="M38.4 70c-10.8 0-15.7-10.3-15.7-21.5S27.6 27 38.4 27c3.3 0 6 0.9 8.2 2.3l-1.4 3.4c-1.5-1-3.8-1.8-6.1-1.8 -7.5 0-10.5 8.8-10.5 17.5s3 17.4 10.5 17.4c2.3 0 4.6-0.8 6.1-1.8l1.5 3.7C44.4 69.1 41.7 70 38.4 70z"/><path class="st2" d="M63.3 69.9c-1.9 0-3.9-0.4-5.1-0.8v13.4h-5.3V38.2C55.7 36.7 59.3 36 63 36c9.4 0 14.5 6.5 14.5 16.4C77.6 63.3 71.9 69.9 63.3 69.9zM62.8 39.2c-1.6 0-3.4 0.2-4.7 0.9v25.7c1 0.4 2.4 0.7 4 0.7 6.7 0 10.1-5.1 10.1-13.8C72.2 44.5 69.7 39.2 62.8 39.2z"/></svg>