<svg xmlns="http://www.w3.org/2000/svg" viewBox="0 0 100 100"><style type="text/css">  
	.st0{fill:#FFFFFF;}
	.st1{fill:#B4BDCC;}
	.st2{opacity:0.55;fill:#F44336;}
	.st3{opacity:0.55;fill:#2196F3;}
	.st4{opacity:0.55;fill:#4CAF50;}
	.st5{opacity:0.55;fill:#FFC107;}
</style><rect class="st0" width="100" height="100"/><path class="st1" d="M100 100H0V0h100V100zM9.7 90h80.7V10H9.7"/><path class="st2" d="M31 33.7c11.6-13.5 33.2-10.9 41.2 4.9 -5.7 0-14.6 0-19.4 0 -3.5 0-5.7-0.1-8.2 1.2 -2.9 1.5-5 4.3-5.8 7.6L31 33.7z"/><path class="st3" d="M41.7 50c0 4.6 3.7 8.3 8.3 8.3s8.3-3.7 8.3-8.3 -3.7-8.3-8.3-8.3C45.4 41.7 41.7 45.4 41.7 50z"/><path class="st4" d="M53.2 60.9c-4.7 1.4-10.1-0.2-13.1-5.3 -2.3-3.9-8.3-14.4-11.1-19.2 -9.6 14.7-1.3 34.8 16.1 38.2L53.2 60.9z"/><path class="st5" d="M57.7 41.7c3.9 3.6 4.7 9.5 2.1 14 -2 3.4-8.3 14.1-11.4 19.3 18 1.1 31-16.5 25.1-33.3L57.7 41.7z"/></svg>