<svg xmlns="http://www.w3.org/2000/svg" viewBox="0 0 100 100"><style type="text/css">  
	.st0{fill:#FFFFFF;}
	.st1{fill:#D5006E;}
</style><rect class="st0" width="100" height="100"/><path class="st1" d="M100 100H0V0h100V100zM9.7 90h80.7V10H9.7"/><path class="st1" d="M44.9 73c-12.4 0-22.5-10.1-22.5-22.5S32.5 28 44.9 28c7.1 0 13.6 3.3 17.9 8.9l-8.2 4.8c-2.5-2.7-6-4.3-9.7-4.3 -7.2 0-13.1 5.9-13.1 13.1s5.9 13.1 13.1 13.1c3.7 0 7.2-1.6 9.7-4.3l8.2 4.8C58.5 69.7 52 73 44.9 73z"/><polygon class="st1" points="78.6 48.6 74.9 48.6 74.9 52.4 78.6 52.4 78.6 56.1 74.9 56.1 74.9 59.9 71.1 59.9 71.1 56.1 67.4 56.1 67.4 59.9 63.6 59.9 63.6 56.1 59.9 56.1 59.9 52.4 63.6 52.4 63.6 48.6 59.9 48.6 59.9 44.9 63.6 44.9 63.6 41.1 67.4 41.1 67.4 44.9 71.1 44.9 71.1 41.1 74.9 41.1 74.9 44.9 78.6 44.9 "/><rect x="67.4" y="48.6" class="st0" width="3.8" height="3.8"/></svg>