<svg xmlns="http://www.w3.org/2000/svg" viewBox="0 0 100 100"><style type="text/css">  
	.st0{fill:#FFFFFF;}
	.st1{fill:#BABABA;}
</style><rect class="st0" width="100" height="100"/><path class="st1" d="M100 100H0V0h100V100zM9.7 90h80.7V10H9.7"/><path class="st1" d="M72.6 28.8c-3.6 0-2.7 3.6-3.3 5.2 -0.3 0.7-0.7 1.6-1.1 2.6l0.3-0.7c-0.2 0.5-0.4 0.7-1 1.1 0 0-2.4 1.5-4.8 2.9 -2.6-4.5-7.5-7.3-12.7-7.3 -5.2 0-10.1 2.8-12.7 7.3 -2.3-1.4-4.8-2.9-4.8-2.9 -0.6-0.4-0.8-0.6-1-1.1l0.3 0.7c-0.4-1-0.8-1.9-1.1-2.6 -0.6-1.6 0.3-5.2-3.3-5.2 -3.6 0-3 4.9-4 6.8 -0.7 1.2-2.9 2.4-3.8 4 -0.1 0.1-0.1 0.2-0.2 0.3 -0.4 0.8-0.4 1.6 0.1 2.6 1.8 3.1 4.4 0.5 6.1 0.3 0.7-0.1 1.8-0.2 2.8-0.3l-0.7 0.1c0.5-0.1 0.8 0 1.5 0.3 0 0 2.7 1.5 6.2 3.4 0 0.3 0 0.6 0 0.9 0 2.7 0.8 5.4 2.2 7.7 -4.7 2.8-8.8 5.4-8.8 5.4 -0.6 0.4-0.9 0.4-1.4 0.4l0.6 0c-1 0-2 0-2.6 0 -1.6-0.1-3.8-2-5.8 0.8 -2 2.8 2.2 4 3 5.4 0.8 1.5-0.2 5.7 3.2 5.3 3.4-0.3 2.8-3.2 3.6-4.7 0.3-0.6 0.8-1.4 1.3-2.3l-0.3 0.6c0.2-0.4 0.4-0.6 1.1-1 0 0 3.9-2.1 8.5-4.7v6.4c1.2 0.5 2.4 0.8 3.7 1.1v-3.5c0.6 0.1 1.2 0.3 1.8 0.4v3.5c1.2 0.2 2.5 0.3 3.7 0.4v-3.4c0.3 0 0.6 0 0.9 0 0.3 0 0.6 0 0.9 0v3.4c1.2 0 2.5-0.2 3.7-0.3v-3.5c0.7-0.1 1.3-0.3 1.8-0.4v3.5c1.3-0.3 2.5-0.7 3.7-1.1v-6.4c4.6 2.5 8.5 4.7 8.5 4.7 0.6 0.4 0.8 0.6 1.1 1 0.4 0.7 0.7 1.3 1 1.7 0.8 1.4 0.2 4.3 3.6 4.7 3.4 0.3 2.3-3.9 3.2-5.3 0.8-1.5 5-2.6 3-5.4 -2-2.8-4.2-0.8-5.8-0.8 -0.7 0-1.6 0-2.6 0l0.6 0c-0.5 0-0.8-0.1-1.4-0.4 0 0-4.1-2.5-8.8-5.4 1.5-2.3 2.2-5 2.3-7.7 0-0.3 0-0.6 0-0.9 3.5-1.9 6.2-3.4 6.2-3.4 0.6-0.4 0.9-0.4 1.5-0.3l-0.7-0.1c1.1 0.2 2.1 0.2 2.8 0.3 1.7 0.3 4.3 2.9 6.1-0.3 1.8-3.1-2.8-5-3.9-6.9 -0.7-1.2-0.7-3.7-1.5-5.3 -0.1-0.1-0.1-0.2-0.2-0.3C74.5 29.2 73.8 28.8 72.6 28.8L72.6 28.8zM44.6 45.7c0.3 0 0.6 0 0.9 0.1 2 0.5 2.5 2.4 2 4.4 -0.5 2-2.6 3.2-4.6 2.6 -2-0.5-2.6-2.4-2-4.4C41.3 46.8 42.9 45.7 44.6 45.7L44.6 45.7zM55.4 45.7c1.7 0 3.3 1.1 3.7 2.8 0.5 2 0 3.9-2 4.4 -2 0.5-4.1-0.6-4.6-2.6 -0.5-2 0-3.9 2-4.4C54.8 45.8 55.1 45.7 55.4 45.7L55.4 45.7zM50 55.1c0.5 0 3 3.1 2.7 3.5 -0.3 0.3-5.1 0.3-5.4 0C47 58.2 49.5 55.1 50 55.1z"/></svg>