<svg xmlns="http://www.w3.org/2000/svg" viewBox="0 0 100 100"><style type="text/css">  
	.st0{fill:#FFFFFF;}
	.st1{fill:#A87D45;}
</style><rect class="st0" width="100" height="100"/><path class="st1" d="M100 100H0V0h100V100zM9.7 90h80.7V10H9.7"/><path class="st1" d="M68 57.3c1.7 0 3.2 0.7 4.4 1.7l-3.8-27.2c-0.3-2.2-2.2-3.8-4.4-3.8H35.8c-2.2 0-4.1 1.5-4.5 3.8l-3.8 27.2c1.2-1 2.7-1.7 4.5-1.7H68z"/><path class="st1" d="M68 59.5H32c-2.5 0-4.5 2-4.5 4.5v4.5c0 2.5 2 4.5 4.5 4.5h36c2.5 0 4.5-2 4.5-4.5V64C72.5 61.5 70.5 59.5 68 59.5zM64.1 68.1h-2.8c-0.8 0-1.4-0.6-1.4-1.4s0.6-1.4 1.4-1.4h2.8c0.8 0 1.4 0.6 1.4 1.4S64.9 68.1 64.1 68.1zM67.8 68.1c-0.8 0-1.4-0.6-1.4-1.4s0.6-1.4 1.4-1.4 1.4 0.6 1.4 1.4S68.6 68.1 67.8 68.1z"/></svg>