<svg xmlns="http://www.w3.org/2000/svg" viewBox="0 0 100 100"><style type="text/css">  
	.st0{fill:#FFFFFF;}
	.st1{fill:#B4BDCC;}
	.st2{opacity:0.55;fill:#EF806F;}
	.st3{opacity:0.55;fill:#1EA6C6;}
</style><rect class="st0" width="100" height="100"/><path class="st1" d="M100 100H0V0h100V100zM9.7 90h80.7V10H9.7"/><path class="st2" d="M74.4 55.4c2.2 2.1 3.6 5.1 3.6 8.4 0 6.4-5.2 11.6-11.6 11.6 -6.4 0-11.6-5.2-11.6-11.6 0-0.5 0-0.9 0.1-1.3 0.7-5.8 5.6-10.3 11.5-10.3C69.5 52.2 72.3 53.4 74.4 55.4z"/><path class="st3" d="M75.3 51c0 0.9-0.1 1.8-0.3 2.7 -2.4-2.1-5.4-3.2-8.6-3.2 -6.8 0-12.4 5.1-13.2 11.8 0 0.1 0 0.1 0 0.2h-22c-5.1 0-9.2-4.1-9.2-9.2 0-3.9 2.5-7.3 6-8.6 0-0.2 0-0.4 0-0.6 0-4.7 3.8-8.5 8.5-8.5 1.5 0 2.9 0.4 4.1 1.1 1.3-5.8 6.5-10.1 12.7-10.1 7.2 0 13 5.8 13 13 0 0.1 0 0.1 0 0.2C71.5 41 75.3 45.5 75.3 51z"/><polygon class="st0" points="72.5 65.3 66.5 71.2 60.6 65.3 64.2 65.3 64.2 57 68.9 57 68.9 65.3 "/></svg>