<svg xmlns="http://www.w3.org/2000/svg" viewBox="0 0 100 100"><style type="text/css">  
	.st0{fill:#FFFFFF;}
	.st1{fill:#B4BDCC;}
	.st2{fill:#CED2D8;}
	.st3{fill:#F2F2F2;}
	.st4{fill:#54B845;}
	.st5{fill:#FBD303;}
	.st6{fill:#F0582F;}
	.st7{fill:#6EB1E1;}
</style><rect class="st0" width="100" height="100"/><path class="st1" d="M100 100H0V0h100V100zM9.7 90h80.7V10H9.7"/><path class="st2" d="M75.1 27.6H24.9c-1.9 0-3.4 1.5-3.4 3.4v34.8c0 1.9 1.5 3.4 3.4 3.4h50.1c1.9 0 3.4-1.5 3.4-3.4V31C78.5 29.1 77 27.6 75.1 27.6z"/><rect x="24.9" y="36" class="st3" width="50.2" height="29.7"/><circle class="st4" cx="34" cy="32.1" r="1.1"/><circle class="st5" cx="30.1" cy="32.1" r="1.1"/><circle class="st6" cx="26.3" cy="32.1" r="1.1"/><path class="st7" d="M67 58.2l-3.3-0.9c-0.3-1.4-0.9-2.7-1.6-3.9l1.7-2.9c0.2-0.3 0.1-0.8-0.1-1l-2.4-2.4c-0.3-0.3-0.7-0.3-1-0.1l-2.9 1.7c-1.2-0.7-2.5-1.3-3.9-1.6l-0.9-3.3c-0.1-0.4-0.4-0.6-0.8-0.6h-3.4c-0.4 0-0.7 0.3-0.8 0.6L46.6 47c-1.4 0.3-2.7 0.9-3.9 1.6L39.7 47c-0.3-0.2-0.8-0.1-1 0.1l-2.4 2.4c-0.3 0.3-0.3 0.7-0.1 1l1.7 2.9c-0.7 1.2-1.3 2.5-1.6 3.9L33 58.2c-0.4 0.1-0.6 0.4-0.6 0.8v3.4c0 0.4 0.3 0.7 0.6 0.8l3.3 0.9c0.3 1.4 0.9 2.7 1.6 3.9L36.2 71c-0.2 0.3-0.1 0.8 0.1 1l2.4 2.4c0.3 0.3 0.7 0.3 1 0.1l2.9-1.7c1.2 0.7 2.5 1.3 3.9 1.6l0.9 3.3c0.1 0.4 0.4 0.6 0.8 0.6h3.4c0.4 0 0.7-0.3 0.8-0.6l0.9-3.3c1.4-0.3 2.7-0.9 3.9-1.6l2.9 1.7c0.3 0.2 0.8 0.1 1-0.1l2.4-2.4c0.3-0.3 0.3-0.7 0.1-1l-1.7-2.9c0.7-1.2 1.3-2.5 1.6-3.9l3.3-0.9c0.4-0.1 0.6-0.4 0.6-0.8V59C67.6 58.7 67.4 58.4 67 58.2zM50 67.1c-3.5 0-6.3-2.8-6.3-6.3s2.8-6.3 6.3-6.3c3.5 0 6.3 2.8 6.3 6.3C56.3 64.3 53.5 67.1 50 67.1z"/></svg>