<svg xmlns="http://www.w3.org/2000/svg" viewBox="0 0 100 100"><style type="text/css">  
	.st0{fill:#FFFFFF;}
	.st1{fill:#999999;}
	.st2{fill:#999999;stroke:#999999;stroke-width:0.75;stroke-miterlimit:10;}
</style><rect class="st0" width="100" height="100"/><path class="st1" d="M100 100H0V0h100V100zM9.7 90h80.7V10H9.7"/><path class="st2" d="M41.9 48.5l-15.4-7.7v-0.1L41.9 33v-5.3L21.4 38.6v4.2l20.5 10.8V48.5zM52.4 44l1-18h-6.7l1 18H52.4zM50 55.2c2.2 0 3.8-2 3.8-4.4 0-2.7-1.5-4.4-3.8-4.4s-3.8 1.8-3.8 4.4C46.1 53.2 47.6 55.2 50 55.2zM58.1 27.7V33l15.7 7.6v0.1l-15.7 7.7v5.2l20.5-10.8v-4.4L58.1 27.7zM24.5 60.5h51.2V64H24.5V60.5zM24.5 70.5h51.2V74H24.5V70.5z"/></svg>