<svg xmlns="http://www.w3.org/2000/svg" viewBox="0 0 100 100"><style type="text/css">  
	.st0{fill:#FFFFFF;}
	.st1{fill:#336699;}
	.st2{fill:#336699;stroke:#336699;stroke-width:3;stroke-miterlimit:10;}
</style><rect class="st0" width="100" height="100"/><path class="st1" d="M100 100H0V0h100V100zM9.7 90h80.7V10H9.7"/><path class="st2" d="M71.9 50.5c-0.7-0.3-1.5 0-1.8 0.7 -1.5 3.4-3.9 6.4-6.9 8.7l-9.1-18.5c1.4-1.1 2.2-2.7 2.2-4.6 0-2.9-2-5.3-4.8-5.8v-4.6c0-0.7-0.5-1.4-1.4-1.4 -0.7 0-1.4 0.5-1.4 1.4V31c-2.7 0.5-4.8 3-4.8 5.8 0 1.9 0.8 3.5 2.2 4.6l-9.1 18.5c-3-2.3-5.4-5.2-6.9-8.7 -0.3-0.7-1.1-1-1.8-0.7 -0.7 0.3-1 1.1-0.7 1.8 1.8 4.1 4.6 7.3 8.2 9.9l-5.4 10.9c-0.3 0.7 0 1.5 0.5 1.8 0.1 0 0.4 0.1 0.5 0.1 0.4 0 1-0.3 1.2-0.7l5.2-10.6c3.7 2 7.6 3 11.8 3s8.2-1.1 11.8-3l5.2 10.6c0.1 0.4 0.7 0.7 1.2 0.7 0.1 0 0.4 0 0.5-0.1 0.7-0.3 1-1.1 0.5-1.8l-5.3-10.9c3.5-2.4 6.4-6 8.2-9.9C72.7 51.6 72.4 50.8 71.9 50.5zM50.1 33.4c1.9 0 3.4 1.5 3.4 3.4s-1.5 3.4-3.4 3.4 -3.4-1.5-3.4-3.4S48.4 33.4 50.1 33.4zM50.1 64.1c-3.8 0-7.3-1-10.6-2.7l9.2-18.6c0.4 0.1 1 0.1 1.5 0.1 0.5 0 1 0 1.5-0.1L61 61.4C57.6 63.2 53.9 64.1 50.1 64.1z"/></svg>