<svg xmlns="http://www.w3.org/2000/svg" viewBox="0 0 100 100"><path d="M0 0h100v100H0V0z" fill="#fff"/><path d="M100 100H0V0h100v100zM9.7 90h80.7V10H9.7" fill="#999"/><path d="M67.4 65h1.3c0 3.8-.6 6.6-1.9 8.3S64.1 76 62.2 76c-1.5 0-3-.6-4.4-1.7S55.2 70.1 54 65l-3.1-14-10.8 24.5h-6.9L48.8 42c-.8-4.3-1.8-7.5-3-9.6s-2.6-3.1-4.3-3.1c-1.4 0-2.6.5-3.6 1.6-1 1-1.6 2.7-1.7 4.9h-1.3c.1-3.6.8-6.4 2.1-8.5 1.4-2.1 3-3.2 5.1-3.2 1.3 0 2.5.5 3.7 1.6 1.2 1.1 2.2 2.9 3 5.5s2.2 8 4 16.2l2.6 11.5c1 4.8 2.1 7.9 3.3 9.5s2.5 2.4 4.1 2.4c2.7 0 4.3-1.9 4.6-5.8z" fill="#999" stroke="#999" stroke-width="1.5" stroke-miterlimit="10"/></svg>