<svg xmlns="http://www.w3.org/2000/svg" viewBox="0 0 100 100"><style type="text/css">  
	.st0{fill:#FFFFFF;}
</style><rect class="st0" width="100" height="100"/><path d="M100 100H0V0h100V100zM9.7 90h80.7V10H9.7"/><path d="M73.6 54.8c-2.1-0.7-3.4-2.6-3.4-4.8s1.4-4.1 3.4-4.8c0.6-0.2 1-0.9 0.8-1.5 -0.6-2.3-1.5-4.4-2.7-6.5 -0.3-0.6-1.1-0.8-1.7-0.5 -0.7 0.4-1.6 0.6-2.4 0.6 -2.8 0-5-2.3-5-5 0-0.8 0.2-1.7 0.6-2.4 0.3-0.6 0.1-1.3-0.5-1.7 -2-1.2-4.2-2.1-6.5-2.7 -0.6-0.2-1.3 0.2-1.5 0.8 -0.7 2.1-2.6 3.4-4.8 3.4 -2.2 0-4.1-1.4-4.8-3.4 -0.2-0.6-0.9-1-1.5-0.8 -2.3 0.6-4.4 1.5-6.5 2.7 -0.6 0.3-0.8 1.1-0.5 1.7 0.4 0.7 0.6 1.6 0.6 2.4 0 2.8-2.3 5-5 5 -0.8 0-1.7-0.2-2.4-0.6 -0.6-0.3-1.3-0.1-1.7 0.5 -1.2 2-2.1 4.2-2.7 6.5 -0.2 0.6 0.2 1.3 0.8 1.5 2.1 0.7 3.4 2.6 3.4 4.8s-1.4 4.1-3.4 4.8c-0.6 0.2-1 0.9-0.8 1.5 0.6 2.3 1.5 4.4 2.7 6.5 0.3 0.6 1.1 0.8 1.7 0.5 0.7-0.4 1.6-0.6 2.4-0.6 2.8 0 5 2.3 5 5 0 0.8-0.2 1.7-0.6 2.4 -0.3 0.6-0.1 1.3 0.5 1.7 2 1.2 4.2 2.1 6.5 2.7 0.1 0 0.2 0 0.3 0 0.5 0 1-0.3 1.2-0.9 0.7-2.1 2.6-3.4 4.8-3.4 2.2 0 4.1 1.4 4.8 3.4 0.2 0.6 0.9 1 1.5 0.8 2.3-0.6 4.4-1.5 6.5-2.7 0.6-0.3 0.8-1.1 0.5-1.7 -0.4-0.7-0.6-1.6-0.6-2.4 0-2.8 2.3-5 5-5 0.8 0 1.7 0.2 2.4 0.6 0.6 0.3 1.3 0.1 1.7-0.5 1.2-2 2.1-4.2 2.7-6.5C74.6 55.7 74.3 55 73.6 54.8zM50 57.6c-4.2 0-7.6-3.4-7.6-7.6 0-4.2 3.4-7.6 7.6-7.6 4.2 0 7.6 3.4 7.6 7.6C57.6 54.2 54.2 57.6 50 57.6z"/></svg>