<svg xmlns="http://www.w3.org/2000/svg" viewBox="0 0 100 100"><style type="text/css">  
	.st0{fill:#FFFFFF;}
	.st1{fill:#BABABA;}
</style><rect class="st0" width="100" height="100"/><path class="st1" d="M100 100H0V0h100V100zM9.7 90h80.7V10H9.7"/><path class="st1" d="M68.7 33.3c-9.8-9.8-25.6-9.8-35.4 0 -9.8 9.8-9.8 25.6 0 35.4s25.6 9.8 35.4 0S78.4 43.1 68.7 33.3zM35.5 61c-4.6-7.1-3.8-16.8 2.5-23 6.3-6.3 15.9-7.1 23-2.5L35.5 61zM41 66.5L66.5 41c4.6 7.1 3.8 16.8-2.5 23C57.8 70.3 48.1 71.1 41 66.5z"/></svg>