<svg xmlns="http://www.w3.org/2000/svg" viewBox="0 0 100 100"><style type="text/css">  
	.st0{fill:#FFFFFF;}
	.st1{fill:#666666;}
	.st2{fill:#2DBCAF;}
</style><rect class="st0" width="100" height="100"/><path class="st1" d="M100 100H0V0h100V100zM9.7 90h80.7V10H9.7"/><path class="st2" d="M49.8 43.4c-2.6 0.6-4.4 1.1-7.1 1.9 -0.6 0.1-0.6 0.3-1.3-0.4 -0.6-0.8-1.1-1.1-2-1.6 -2.6-1.3-5.2-0.9-7.6 0.6 -2.9 1.9-4.3 4.5-4.3 7.9 0 3.3 2.4 6.1 5.7 6.6 2.9 0.4 5.2-0.6 7.1-2.8 0.4-0.5 0.8-1 1.1-1.5h-8.1c-0.9 0-1.1-0.5-0.8-1.3 0.5-1.3 1.5-3.4 2.1-4.5 0.1-0.3 0.4-0.6 1-0.6h15.3C51 48.9 51 50 50.8 51.1c-0.5 3-1.6 5.8-3.4 8.2 -3 3.9-6.9 6.4-11.9 7.1 -4 0.5-7.9-0.3-11.2-2.8 -3.2-2.4-4.8-5.4-5.3-9.3 -0.5-4.5 0.8-8.7 3.5-12.2 3-3.9 6.9-6.3 11.7-7.2 3.9-0.8 7.7-0.3 11.1 2 2.3 1.5 3.8 3.4 4.8 5.9C50.5 43.1 50.3 43.3 49.8 43.4z"/><path class="st2" d="M63.7 66.5c-3.8-0.1-7.3-1.1-10.2-3.7 -2.5-2.1-4-4.8-4.5-8.1 -0.8-4.7 0.5-9 3.4-12.6 3-4 6.7-6.1 11.7-6.9 4.3-0.8 8.3-0.4 11.9 2.1 3.3 2.3 5.3 5.3 5.9 9.3 0.8 5.7-0.9 10.2-4.8 14.1 -2.8 2.8-6.2 4.5-10 5.3C65.8 66.4 64.7 66.4 63.7 66.5L63.7 66.5zM73.5 49.6c0-0.5 0-1-0.1-1.4 -0.8-4.2-4.5-6.4-8.6-5.5 -3.9 0.9-6.4 3.3-7.3 7.3 -0.8 3.3 0.9 6.6 3.8 7.9 2.3 1 4.5 0.9 6.8-0.3C71.6 55.9 73.4 53.3 73.5 49.6z"/></svg>