<?xml version="1.0" encoding="utf-8"?>
<!-- Generator: Adobe Illustrator 22.1.0, SVG Export Plug-In . SVG Version: 6.00 Build 0)  -->
<svg version="1.1" id="Layer_1" xmlns="http://www.w3.org/2000/svg" xmlns:xlink="http://www.w3.org/1999/xlink" x="0px" y="0px"
	 viewBox="0 0 100 100" style="enable-background:new 0 0 100 100;" xml:space="preserve">
<style type="text/css">
	.st0{fill:#FFFFFF;}
	.st1{fill:#666666;}
	.st2{fill:#2DBCAF;}
</style>
<rect class="st0" width="100" height="100"/>
<path class="st1" d="M100,100H0V0h100V100z M9.7,90h80.7V10H9.7"/>
<g>
	<path class="st2" d="M21.1,45.5c-0.1,0-0.2-0.1-0.1-0.2l0.7-0.9c0.1-0.1,0.2-0.2,0.4-0.2h11.8c0.1,0,0.2,0.1,0.1,0.2l-0.6,0.9
		c-0.1,0.1-0.2,0.2-0.3,0.2L21.1,45.5z M16.1,48.5c-0.1,0-0.2-0.1-0.1-0.2l0.7-0.9c0.1-0.1,0.2-0.2,0.4-0.2h15.1
		c0.1,0,0.2,0.1,0.2,0.2l-0.3,0.8c0,0.1-0.2,0.2-0.3,0.2C31.8,48.5,16.1,48.5,16.1,48.5z M24.1,51.6c-0.1,0-0.2-0.1-0.1-0.2l0.5-0.8
		c0.1-0.1,0.2-0.2,0.3-0.2h6.6c0.1,0,0.2,0.1,0.2,0.2l-0.1,0.8c0,0.1-0.1,0.2-0.2,0.2C31.4,51.6,24.1,51.6,24.1,51.6z M58.5,44.9
		c-2.1,0.5-3.5,0.9-5.6,1.5c-0.5,0.1-0.5,0.2-1-0.3c-0.5-0.6-0.9-0.9-1.6-1.3c-2.1-1-4.1-0.7-6,0.5c-2.3,1.5-3.4,3.6-3.4,6.3
		c0,2.6,1.9,4.8,4.5,5.2c2.3,0.3,4.1-0.5,5.6-2.2c0.3-0.4,0.6-0.8,0.9-1.2h-6.4c-0.7,0-0.9-0.4-0.6-1c0.4-1,1.2-2.7,1.7-3.6
		c0.1-0.2,0.3-0.5,0.8-0.5h12.1c-0.1,0.9-0.1,1.8-0.2,2.7c-0.4,2.4-1.3,4.6-2.7,6.5c-2.4,3.1-5.5,5.1-9.4,5.6
		c-3.2,0.4-6.3-0.2-8.9-2.2c-2.5-1.9-3.8-4.3-4.2-7.4c-0.4-3.6,0.6-6.9,2.8-9.7c2.4-3.1,5.5-5,9.3-5.7c3.1-0.6,6.1-0.2,8.8,1.6
		c1.8,1.2,3,2.7,3.8,4.7C59,44.6,58.9,44.8,58.5,44.9z"/>
	<path class="st2" d="M69.5,63.2c-3-0.1-5.8-0.9-8.1-2.9c-2-1.7-3.2-3.8-3.6-6.4c-0.6-3.7,0.4-7.1,2.7-10c2.4-3.2,5.3-4.8,9.3-5.5
		c3.4-0.6,6.6-0.3,9.4,1.7c2.6,1.8,4.2,4.2,4.7,7.4c0.6,4.5-0.7,8.1-3.8,11.2c-2.2,2.2-4.9,3.6-7.9,4.2
		C71.2,63.1,70.3,63.1,69.5,63.2L69.5,63.2z M77.3,49.8c0-0.4,0-0.8-0.1-1.1c-0.6-3.3-3.6-5.1-6.8-4.4c-3.1,0.7-5.1,2.6-5.8,5.8
		c-0.6,2.6,0.7,5.2,3,6.3c1.8,0.8,3.6,0.7,5.4-0.2C75.8,54.8,77.2,52.7,77.3,49.8z"/>
</g>
</svg>
