<svg xmlns="http://www.w3.org/2000/svg" viewBox="0 0 100 100"><path d="M0 0h100v100H0V0z" fill="#fff"/><path d="M100 100H0V0h100v100zM9.7 90h80.7V10H9.7" fill="#af7931"/><path d="M31.3 35.3c2.6 0 5.5.9 7.5 2.5l-2.1 4.1c-1.3-1.2-3.2-2-5.2-2-4.8 0-7.5 4.2-7.5 10C24 56 27 60 31.1 60c1.8 0 3.5-.7 4.6-2v-4.5h-3.2v-4.3H40v15h-3.8v-1c0-.5.1-1.1.1-1.1h-.1c-1.2 1.5-3.4 2.6-6 2.6-5.8 0-11.2-5.4-11.2-14.6 0-8.9 4.8-14.8 12.3-14.8zm14.9.5h8.1c5 0 8.4 3.8 8.4 9.3s-3.4 9.3-8.4 9.3H51v9.8h-4.9V35.8zm7.2 14.3c2.6 0 4.3-2 4.3-5s-1.8-5-4.2-5H51v10h2.4zM68 35.8h4.9v24.1H82v4.3H68V35.8z" fill="#af7931" stroke="#af7931" stroke-width="1.5" stroke-miterlimit="10"/></svg>