<svg xmlns="http://www.w3.org/2000/svg" viewBox="0 0 100 100"><style type="text/css">  
	.st0{fill:#FFFFFF;}
	.st1{fill:#666666;}
	.st2{fill:#C19770;}
</style><rect class="st0" width="100" height="100"/><path class="st1" d="M100 100H0V0h100V100zM9.7 90h80.7V10H9.7"/><path class="st2" d="M41.9 54.5c2.1-0.1 4.2 0.6 5.9 2 0.8 0.7 1.5 1.5 2.1 2.5 1-1.7 2.6-3.1 4.4-3.8 2.3-0.8 4.8-0.8 7.2 0 2 0.8 3.8 1.9 5.3 3.4 1.2 1.1 2.4 2.3 3.7 3.3 0.7 0.6 1.4 1 2.2 1.3 1.1 0.4 2.4 0 3.2-0.8 0.7-0.8 0.7-2.1-0.1-2.9 -0.5-0.4-1.2-0.4-1.7 0.1 0 0 0 0.1-0.1 0.1 -0.2 0.5-0.2 1.1 0.1 1.5 -0.7-0.4-1.2-1.2-1.3-2 -0.1-1 0.6-1.9 1.5-2.2 1.8-0.7 3.9-0.1 5 1.4 0.9 1.5 1.3 3.3 1 5 -0.2 1.6-1.1 3.1-2.5 4.1 -1.9 1.3-4.2 1.9-6.6 1.7 -2.2-0.1-4.4-0.5-6.4-1.4 -3.4-1.4-6.6-3.2-10.1-4.3 -1.2-0.3-2.5-0.6-3.7-0.8 -0.9 0-1.9 0-2.8 0 -1.1 0.1-2.3 0.4-3.3 0.8 -3.6 1.1-6.8 3-10.2 4.4 -2.9 1.2-6.1 1.6-9.2 1 -1.8-0.3-3.4-1.2-4.6-2.5 -1-1.2-1.5-2.7-1.4-4.2 -0.1-1.5 0.3-2.9 1.2-4.1 0.9-1.1 2.3-1.6 3.7-1.5 0.9 0 1.7 0.4 2.3 1.1 0.4 0.6 0.5 1.3 0.3 2 -0.3 0.6-0.7 1.1-1.2 1.4 0.3-0.4 0.4-1 0.1-1.5 -0.4-0.5-1.1-0.7-1.7-0.3 -0.1 0-0.1 0.1-0.2 0.1 -0.6 0.7-0.7 1.6-0.3 2.4 0.5 0.8 1.3 1.3 2.2 1.4 1.3 0 2.6-0.6 3.5-1.5 1.9-1.9 4-3.6 6.1-5.2C37.5 55.3 39.7 54.6 41.9 54.5z"/><path class="st2" d="M41.9 32.7c2.1-0.1 4.2 0.6 5.9 2 0.8 0.7 1.5 1.5 2.1 2.5 1-1.7 2.6-3.1 4.4-3.8 2.3-0.8 4.8-0.8 7.2 0 2 0.8 3.8 1.9 5.3 3.4 1.2 1.1 2.4 2.3 3.7 3.3 0.7 0.6 1.4 1 2.2 1.3 1.1 0.4 2.4 0 3.2-0.8 0.7-0.8 0.7-2.1-0.1-2.9 -0.5-0.4-1.2-0.4-1.7 0.1 0 0 0 0.1-0.1 0.1 -0.2 0.5-0.2 1.1 0.1 1.5 -0.7-0.4-1.2-1.2-1.3-2 -0.1-1 0.6-1.9 1.5-2.2 1.8-0.7 3.9-0.1 5 1.4 0.9 1.5 1.3 3.3 1 5 -0.2 1.6-1.1 3.1-2.5 4.1 -1.9 1.3-4.2 1.9-6.6 1.7 -2.2-0.1-4.4-0.5-6.4-1.4 -3.4-1.4-6.6-3.2-10.1-4.3 -1.2-0.3-2.5-0.6-3.7-0.8 -0.9 0-1.9 0-2.8 0 -1.1 0.1-2.3 0.4-3.3 0.8 -3.6 1.1-6.8 3-10.2 4.4 -2.9 1.2-6.1 1.6-9.2 1 -1.8-0.3-3.4-1.2-4.6-2.5 -1-1.2-1.5-2.7-1.4-4.2 -0.1-1.5 0.3-2.9 1.2-4.1 0.9-1.1 2.3-1.6 3.7-1.5 0.9 0 1.7 0.4 2.3 1.1 0.4 0.6 0.5 1.3 0.3 2 -0.3 0.6-0.7 1.1-1.2 1.4 0.3-0.4 0.4-1 0.1-1.5 -0.4-0.5-1.1-0.7-1.7-0.3 -0.1 0-0.1 0.1-0.2 0.1 -0.6 0.7-0.7 1.6-0.3 2.4 0.5 0.8 1.3 1.3 2.2 1.4 1.3 0 2.6-0.6 3.5-1.5 1.9-1.9 4-3.6 6.1-5.2C37.5 33.5 39.7 32.8 41.9 32.7z"/></svg>