<svg xmlns="http://www.w3.org/2000/svg" viewBox="0 0 100 100"><style type="text/css">  
	.st0{fill:#FFFFFF;}
	.st1{fill:#666666;}
	.st2{fill:#D45836;stroke:#D45836;stroke-width:0.25;stroke-miterlimit:10;}
</style><rect class="st0" width="100" height="100"/><path class="st1" d="M100 100H0V0h100V100zM9.7 90h80.7V10H9.7"/><path class="st2" d="M25.3 23l4.5 50.4L50 79l20.2-5.6L74.7 23H25.3zM66.3 70.2l-16.3 4.5v0l0 0 0 0v0l-16.3-4.5 -3.8-43.1h40.3L66.3 70.2zM57.6 52l-0.7 8L50 61.9l0 0L43.1 60l-0.4-4.9h-6.2l0.9 9.7L50 68.3h0 0l0 0 12.7-3.5 1.7-19H41.8l-0.6-6.3h23.6 0l0.6-6.2h-31L36.2 52 57.6 52 57.6 52z"/></svg>