<svg xmlns="http://www.w3.org/2000/svg" viewBox="0 0 100 100"><style type="text/css">  
	.st0{fill:#FFFFFF;}
	.st1{fill:#666666;}
	.st2{fill:#E44F26;}
	.st3{fill:#F1662A;}
	.st4{fill:#EBEBEB;}
</style><rect class="st0" width="100" height="100"/><path class="st1" d="M100 100H0V0h100V100zM9.7 90h80.7V10H9.7"/><polygon class="st2" points="74.3 23.5 50 23.5 50 23.5 25.7 23.5 30.2 72.9 50 78.5 50 78.5 50 78.5 50 78.5 50 78.5 69.7 72.9 "/><polygon class="st3" points="50 27.5 50 74.3 50 74.3 66 69.8 69.9 27.5 "/><polygon class="st0" points="65.3 33.6 34.7 33.6 36.4 52.1 36.5 51.9 57.3 51.9 56.7 59.8 50 61.7 43.2 59.8 42.8 55 36.7 55 37.6 64.5 50 68 62.4 64.5 64.2 45.9 42 45.9 41.4 39.7 64.7 39.7 "/><path class="st4" d="M50 33.6H34.7l1.7 18.5 0-0.1H50v-6h-8l-0.6-6.2h8.6L50 33.6 50 33.6 50 33.6zM42.8 55h-6.1l0.9 9.4L50 68v-6.3l-6.7-2L42.8 55z"/></svg>