<svg xmlns="http://www.w3.org/2000/svg" viewBox="0 0 100 100"><style type="text/css">  
	.st0{fill:#FFFFFF;}
	.st1{fill:#8ED200;}
	.st2{fill:none;}
</style><rect class="st0" width="100" height="100"/><path class="st1" d="M100 100H0V0h100V100zM9.7 90h80.7V10H9.7"/><path class="st1" d="M49.7 25.4c0.2-0.5 0.4-0.5 0.6 0L56 43c0.2 0.5 0.7 0.9 1.2 0.9h18.6c0.5 0 0.6 0.2 0.2 0.6L61 55.4c-0.4 0.3-0.6 0.9-0.5 1.5l5.7 17.7c0.2 0.5-0.1 0.7-0.5 0.3l-15-10.9c-0.5-0.3-1.1-0.3-1.5 0l-15 10.9c-0.4 0.3-0.6 0.2-0.5-0.3l5.7-17.7c0.1-0.5 0-1.1-0.5-1.5L24 44.5c-0.4-0.3-0.3-0.6 0.2-0.6h18.6c0.6 0 1.1-0.4 1.2-0.9L49.7 25.4z"/><path class="st2" d="M49.7 25.4c0.2-0.5 0.4-0.5 0.6 0L56 43c0.2 0.5 0.7 0.9 1.2 0.9h18.6c0.5 0 0.6 0.2 0.2 0.6L61 55.4c-0.4 0.3-0.6 0.9-0.5 1.5l5.7 17.7c0.2 0.5-0.1 0.7-0.5 0.3l-15-10.9c-0.5-0.3-1.1-0.3-1.5 0l-15 10.9c-0.4 0.3-0.6 0.2-0.5-0.3l5.7-17.7c0.1-0.5 0-1.1-0.5-1.5L24 44.5c-0.4-0.3-0.3-0.6 0.2-0.6h18.6c0.6 0 1.1-0.4 1.2-0.9L49.7 25.4z"/></svg>