<svg xmlns="http://www.w3.org/2000/svg" viewBox="0 0 100 100"><style type="text/css">  
	.st0{fill:#FFFFFF;}
	.st1{fill:#C11E07;}
	.st2{fill:none;}
</style><rect class="st0" width="100" height="100"/><path class="st1" d="M100 100H0V0h100V100zM9.7 90h80.7V10H9.7"/><path class="st2" d="M31.7 71.7h27.2v-9.1h10.5V42.9H31.7V71.7zM41.7 50.6l6.5 6.1 11-11 4.1 4.1 -15 15 -10.6-10L41.7 50.6z"/><polygon class="st2" points="62.8 34.6 58.3 34.6 58.3 32.2 42.7 32.2 42.7 34.6 38.2 34.6 38.2 32.2 31.7 32.2 31.7 38.8 69.3 38.8 69.3 32.2 62.8 32.2 "/><polygon points="63.3 49.9 59.2 45.8 48.2 56.8 41.7 50.6 37.7 54.9 48.3 64.9 "/><path d="M62.3 24H58v3.8H43V24h-4.3v3.8H27.3V76H61l12.8-12.8V27.8H62.3V24zM68.6 62.1H58.5v8.8H32.4V43.2h36.3L68.6 62.1 68.6 62.1zM68.6 32.9v6.4H32.4v-6.4h6.4v2.3h4.3v-2.3h15v2.3h4.3v-2.3H68.6z"/></svg>