<svg xmlns="http://www.w3.org/2000/svg" viewBox="0 0 100 100"><style type="text/css">  
	.st0{fill:#FFFFFF;}
	.st1{fill:#DB007B;}
	.st2{fill:#DB007B;stroke:#DB007B;stroke-width:3;stroke-miterlimit:10;}
</style><rect class="st0" width="100" height="100"/><path class="st1" d="M100 100H0V0h100V100zM9.7 90h80.7V10H9.7"/><path class="st2" d="M29.1 73.7V26.9h6.3v46.8H29.1z"/><path class="st2" d="M60.3 74.3c-10.5 0-16-6.5-16-16.1 0-9.5 5.4-17.1 16-17.1 1.8 0 3.7 0.2 5.6 0.7v-15h5.9V72C69.4 73.3 65.1 74.3 60.3 74.3zM65.9 44.8c-1.4-0.4-3.1-0.6-4.6-0.6 -8.3 0-11.1 6.4-11.1 13.5 0 7.6 2.9 13.2 10.4 13.2 2.4 0 4.1-0.3 5.3-0.9V44.8z"/></svg>