<svg xmlns="http://www.w3.org/2000/svg" viewBox="0 0 100 100"><style type="text/css">  
	.st0{fill:#FFFFFF;}
	.st1{fill:#666666;}
	.st2{fill:#B41717;stroke:#B41717;stroke-width:0.25;stroke-miterlimit:10;}
</style><rect class="st0" width="100" height="100"/><path class="st1" d="M100 100H0V0h100V100zM9.7 90h80.7V10H9.7"/><path class="st2" d="M78.2 22.5c0 0-11 5.3-20 6.4 -9 1.2-26.1 2.3-29.5 1.5 -3.4-0.8-5.8-1.8-5.8-1.8l0.7 2.4L21.4 33l0.4 0.7 0.9 0.1 2.8 0.3 0.4 1.2 1.5 0.1 0.8 2.6c0 0 3.3 0.3 4.2 0.3s2.9-0.1 2.9-0.1l0.1 1 0.7 0.1v1.2l-1.5 1.4 0.4 0.1v0.5c0 0-3.5 0.3-4.9 0.1 -1.4-0.2-1.7-0.2-1.7-0.2l-0.1 0.1L28.2 43h0.3l0.1 2.7 7.1-0.3 -0.5 9.2 -0.1 1.2 -6-0.3L29.1 53h1.3l0.1-1 1.2-0.3 0.2-0.3 -4.6-1.1 -3.5 1 0.6 0.5h0.6l0.1 0.8 1.2 0.1v2.4L25 55.5l0.3 0.5 0.3 0.2v1.8h0.8v8.6l-1.3 0.2 0.2 2.5 0.8 0.1L26 75.1l3.7 0.1 -0.8-5.5 5.5-0.1 -0.4 3 -0.5 2.1 5.6 0.1 0.1-5.5 3.8-0.3 -0.2 3.5 -0.1 2.1h3.3l-0.1-5.6 0.5 0.1 0.1-2.7h-0.5l-0.2-1.1L45.3 62l0.1-3.6h0.7v-2.2l-0.9 0.1 0.1-2.6 1-0.1 0-0.8 0.6-0.1 0.6-0.5L44 51.4l-3.6 0.8 0.4 0.6 0.4 0 0.4 0 0.1 1.1 1 0 0 2.3 -4.3-0.1 0.1-2.4 0.1-2.2v-2.9l0.1-3.1 8.7-0.4 10.4-0.6 0.1 2 -0.4 4.7 -0.2 4.4 -3.8-0.1 0-3.1 1.4-0.1 0.1-0.9 0.6-0.1 0-0.2 0.6 0 0.3-0.4 -4.3-1 -4.3 0.9 0.3 0.5 0.5 0v0.2h0.6v1l1.3 0 0 2.7h-1.3l0 0.6 0.5 0.1 0 2.3 0.9 0.1 -0.1 9.3 -1.3 0.3 0 0.4h0.4v2.4h0.7l-0.2 3.3 -0.2 2.8 4.6 0.1L54.4 74 54 72l-0.1-1.8 3.9-0.1 -0.1 2.8 0 2.9 2.2 0.2 3-0.1 0.9-0.3L63.2 74l-0.1-2.4 -0.2-1.7 3.7-0.1 -0.2 2.1 0 3.4 1.5 0.1 1.5 0 0.7-0.2 -0.4-3.2 -0.1-2.4 0.6-0.1 0-2.1 0.2 0 0-0.5h-0.7l-0.1-1.6 -0.1-6.8 0.5 0v-2.2l0.2 0v-0.4l-0.8-0.1 0-2.6 1.3-0.1 -0.1-0.9 0.6-0.1 0-0.2 0.8-0.4 -4-0.8 -4.1 0.8 0.3 0.5 0.6-0.1 0 0.2h0.5l0 1 1.3 0 0.1 2.5 -4.6 0 -0.5-3.8 -0.4-2 -0.4-3.6 0.2-2.1 9.3-0.7 0-3.1 0.5-0.1 0-0.5 -0.4-0.2c0 0-5.1 0.8-6.7 0.9 -0.5 0-0.4 0-0.8 0.1l0-0.6 -1.9-1 0-1.2 0.7 0 0-1.6c0 0 3.9-0.3 5.4-0.6 1.5-0.3 3.5-0.7 3.5-0.7l1-2.7 1.9-0.6 0.2-0.4 4.4-1.2 0.5-0.4 -1.7-3.6 0.2-0.8 0.8-0.4 0.6-1.9L78.2 22.5zM57.1 36.4l0 1.3 1 0L58 39l-1.9 1.3L56 40.7l0.8 0 0 0.3 -6 0.3 0-0.9 0.3-0.4 0-0.3 0-0.6 0.2-0.4 0.1-0.3v-0.2l0.3-1L57.1 36.4zM44.7 37.5l-0.1 0.9L45 39l0 1 0.4 0.7 -0.1 0.8 0.3 0.5 -6.1 0.2 0-0.2 0.7-0.1 0-0.3 -1.5-0.8 -0.1-1.3 0.7 0 0.1-1.4L44.7 37.5zM53.7 58l3.7 0.2 -0.1 5 0.5 4.1 -3.9-0.1L53.7 58zM29 58.3l5.9 0.3L34.4 62v2.9l0.4 1.6L29 66.7 29 58.3zM66.8 58.3v8.5L63 67l-0.1-4.5 -0.4-4.2L66.8 58.3zM38.4 58.5l4.4 0 0 7.9 -4.1 0.1 -0.2-2.6 0-2.5L38.4 58.5z"/></svg>