<svg xmlns="http://www.w3.org/2000/svg" viewBox="0 0 100 100"><style type="text/css">  
	.st0{fill:#FFFFFF;}
	.st1{fill:#666666;}
	.st2{fill:#539E43;stroke:#539E43;stroke-miterlimit:10;}
</style><rect class="st0" width="100" height="100"/><path class="st1" d="M100 100H0V0h100V100zM9.7 90h80.7V10H9.7"/><path class="st2" d="M50.5 79.5c-0.8 0-1.5-0.2-2.2-0.6l-7.1-4.2c-1.1-0.6-0.5-0.8-0.2-0.9 1.4-0.5 1.7-0.6 3.2-1.4 0.2-0.1 0.4-0.1 0.5 0.1l5.4 3.3c0.2 0.1 0.5 0.1 0.6 0L72 63.4c0.2-0.1 0.3-0.3 0.3-0.6V38.2c0-0.3-0.1-0.5-0.3-0.6L50.8 25.4c-0.2-0.1-0.5-0.1-0.6 0L28.9 37.6c-0.2 0.1-0.3 0.4-0.3 0.6v24.6c0 0.2 0.1 0.5 0.3 0.6l5.8 3.4c3.1 1.6 5.1-0.3 5.1-2.1V40.3c0-0.3 0.3-0.6 0.6-0.6h2.7c0.3 0 0.6 0.3 0.6 0.6v24.2c0 4.2-2.3 6.7-6.3 6.7 -1.2 0-2.2 0-4.9-1.3L27 66.7c-1.4-0.8-2.2-2.3-2.2-3.9V38.3c0-1.6 0.9-3.1 2.2-3.9l21.3-12.3c1.3-0.7 3.1-0.7 4.5 0L74 34.4c1.4 0.8 2.2 2.3 2.2 3.9v24.6c0 1.6-0.9 3.1-2.2 3.9L52.7 79C52 79.3 51.2 79.5 50.5 79.5L50.5 79.5zM57.1 62.6c-9.3 0-11.2-4.3-11.2-7.9 0-0.3 0.3-0.6 0.6-0.6h2.8c0.3 0 0.6 0.2 0.6 0.5 0.4 2.8 1.7 4.2 7.3 4.2 4.5 0 6.4-1 6.4-3.4 0-1.4-0.5-2.4-7.5-3.1 -5.8-0.6-9.4-1.9-9.4-6.5 0-4.3 3.6-6.9 9.7-6.9 6.8 0 10.2 2.3 10.6 7.5 0 0.2-0.1 0.3-0.2 0.5 -0.1 0.1-0.3 0.2-0.4 0.2h-2.8c-0.3 0-0.5-0.2-0.6-0.5 -0.6-2.9-2.3-3.9-6.7-3.9 -4.9 0-5.5 1.7-5.5 3 0 1.5 0.7 2 7.3 2.9 6.6 0.9 9.6 2.1 9.6 6.7C67.7 59.9 63.8 62.6 57.1 62.6L57.1 62.6z"/></svg>