<svg xmlns="http://www.w3.org/2000/svg" viewBox="0 0 100 100"><style type="text/css">  
	.st0{fill:#FFFFFF;}
	.st1{fill:#999999;}
	.st2{fill:#999999;stroke:#999999;stroke-width:0.5;stroke-miterlimit:10;}
</style><rect class="st0" width="100" height="100"/><path class="st1" d="M100 100H0V0h100V100zM9.7 90h80.7V10H9.7"/><path class="st2" d="M22 53.4v-5.9c1.3-0.1 2.3-0.2 2.9-0.6 0.6-0.2 1.1-0.8 1.6-1.4 0.5-0.7 0.8-1.5 1-2.6 0.1-0.8 0.3-2.1 0.3-4 0-3.2 0.1-5.4 0.5-6.7 0.3-1.2 0.9-2.3 1.6-3 0.8-0.7 2-1.3 3.5-1.8 1-0.2 2.6-0.5 4.9-0.5h1.4v5.8c-1.9 0-3.2 0.1-3.7 0.4 -0.5 0.2-0.9 0.5-1.3 1 -0.3 0.4-0.4 1.1-0.4 2.1s-0.1 3-0.3 5.8c-0.1 1.7-0.3 3-0.6 3.9 -0.4 1-0.9 1.8-1.4 2.5 -0.5 0.6-1.4 1.3-2.5 2 1 0.6 1.9 1.2 2.5 1.9 0.6 0.7 1.1 1.7 1.5 2.7 0.4 1.1 0.6 2.5 0.6 4.3 0.1 2.7 0.1 4.4 0.1 5.2 0 1.1 0.1 1.8 0.4 2.3 0.3 0.5 0.8 0.7 1.3 1 0.5 0.2 1.8 0.4 3.7 0.4v5.8h-1.4c-2.3 0-4.2-0.1-5.3-0.5 -1.3-0.4-2.3-1-3.2-1.8 -0.9-0.8-1.4-1.8-1.8-3 -0.3-1.2-0.4-3.1-0.4-5.7 0-3-0.1-5-0.4-5.8 -0.4-1.3-1-2.3-1.8-2.9C24.8 53.8 23.6 53.4 22 53.4z"/><path class="st2" d="M77.9 53.4c-1.3 0.1-2.3 0.2-2.9 0.6 -0.6 0.2-1.1 0.8-1.6 1.4 -0.5 0.7-0.8 1.5-1 2.6 -0.1 0.8-0.3 2.1-0.3 4 0 3.2-0.1 5.4-0.5 6.7 -0.3 1.3-0.9 2.3-1.6 3 -0.8 0.7-2 1.3-3.5 1.8 -1 0.2-2.6 0.5-4.9 0.5h-1.4v-5.8c1.9 0 3-0.1 3.7-0.4 0.6-0.2 1-0.6 1.3-1s0.4-1.1 0.4-2.1 0.1-2.9 0.3-5.7c0.1-1.7 0.4-3.1 0.8-4 0.4-1.1 0.9-1.9 1.5-2.6 0.6-0.7 1.4-1.3 2.4-1.9 -1.6-1-2.6-1.7-3.1-2.4 -0.8-1.1-1.4-2.5-1.6-4 -0.3-1.2-0.4-3.7-0.4-7.5 0-1.2-0.1-2-0.4-2.5 -0.3-0.4-0.6-0.7-1.1-1 -0.5-0.2-1.8-0.4-3.8-0.4v-5.8h1.4c2.3 0 4.2 0.1 5.3 0.5 1.3 0.4 2.3 1 3.2 1.8 0.9 0.8 1.4 1.8 1.8 3 0.3 1.2 0.5 3.1 0.5 5.7 0 3 0.1 4.9 0.4 5.8 0.4 1.3 1 2.3 1.8 2.7 0.8 0.6 2 0.8 3.5 1v5.9L77.9 53.4 77.9 53.4z"/><path class="st1" d="M61.1 52.8c-1-0.3-1.6-1.2-1.6-2.2 0-1 0.7-1.9 1.6-2.2 0.3-0.1 0.5-0.4 0.4-0.7 -0.3-1.1-0.7-2.1-1.3-3 -0.1-0.3-0.5-0.4-0.8-0.2 -0.3 0.2-0.7 0.3-1.1 0.3 -1.3 0-2.3-1.1-2.3-2.3 0-0.4 0.1-0.8 0.3-1.1 0.1-0.3 0-0.6-0.2-0.8 -0.9-0.6-2-1-3-1.3 -0.3-0.1-0.6 0.1-0.7 0.4 -0.3 1-1.2 1.6-2.2 1.6s-1.9-0.7-2.2-1.6c-0.1-0.3-0.4-0.5-0.7-0.4 -1.1 0.3-2.1 0.7-3 1.3 -0.3 0.1-0.4 0.5-0.2 0.8 0.2 0.3 0.3 0.7 0.3 1.1 0 1.3-1.1 2.3-2.3 2.3 -0.4 0-0.8-0.1-1.1-0.3 -0.3-0.1-0.6 0-0.8 0.2 -0.6 0.9-1 2-1.3 3 -0.1 0.3 0.1 0.6 0.4 0.7 1 0.3 1.6 1.2 1.6 2.2 0 1-0.7 1.9-1.6 2.2 -0.3 0.1-0.5 0.4-0.4 0.7 0.3 1.1 0.7 2.1 1.3 3 0.1 0.3 0.5 0.4 0.8 0.2 0.3-0.2 0.7-0.3 1.1-0.3 1.3 0 2.3 1.1 2.3 2.3 0 0.4-0.1 0.8-0.3 1.1 -0.1 0.3 0 0.6 0.2 0.8 0.9 0.6 2 1 3 1.3 0 0 0.1 0 0.1 0 0.2 0 0.5-0.1 0.6-0.4 0.3-1 1.2-1.6 2.2-1.6s1.9 0.7 2.2 1.6c0.1 0.3 0.4 0.5 0.7 0.4 1.1-0.3 2.1-0.7 3-1.3 0.3-0.1 0.4-0.5 0.2-0.8 -0.2-0.3-0.3-0.7-0.3-1.1 0-1.3 1.1-2.3 2.3-2.3 0.4 0 0.8 0.1 1.1 0.3 0.3 0.1 0.6 0 0.8-0.2 0.6-0.9 1-2 1.3-3C61.6 53.2 61.4 52.9 61.1 52.8zM50 54.1c-2 0-3.6-1.6-3.6-3.6 0-2 1.6-3.6 3.6-3.6 2 0 3.6 1.6 3.6 3.6C53.6 52.5 52 54.1 50 54.1z"/></svg>