<svg xmlns="http://www.w3.org/2000/svg" viewBox="0 0 100 100"><style type="text/css">  
	.st0{fill:#FFFFFF;}
	.st1{fill:#666666;}
	.st2{fill:#0099CC;stroke:#0099CC;stroke-width:0.75;stroke-miterlimit:10;}
	.st3{fill:#72BED3;stroke:#72BED3;stroke-width:0.75;stroke-miterlimit:10;}
</style><rect class="st0" width="100" height="100"/><path class="st1" d="M100 100H0V0h100V100zM9.7 90h80.7V10H9.7"/><path class="st2" d="M39.4 27.4L39.4 27.4 39.4 27.4z"/><path class="st3" d="M78 50.5c0-3.7-4.6-7.2-11.7-9.4 1.6-7.2 0.9-13-2.3-14.9 -0.8-0.4-1.6-0.6-2.6-0.6v2.6c0.5 0 1 0.1 1.3 0.3 1.5 0.9 2.3 4.3 1.7 8.6 -0.1 1.1-0.3 2.2-0.5 3.3 -2.3-0.5-4.6-1-7.2-1.3 -1.5-2.2-3.1-4-4.7-5.7 3.8-3.4 7.2-5.4 9.6-5.4v-2.6l0 0c-3.1 0-7.2 2.3-11.4 6.1 -4.2-3.9-8.3-6-11.4-6v2.6c2.4 0 5.8 1.8 9.6 5.3 -1.6 1.7-3.2 3.6-4.7 5.7 -2.6 0.3-5.1 0.6-7.2 1.3 -0.2-1.2-0.4-2.3-0.6-3.3 -0.5-4.3 0.1-7.8 1.6-8.6 0.3-0.2 0.8-0.3 1.3-0.3v-2.6l0 0c-1 0-1.8 0.2-2.6 0.6 -3.2 1.8-3.9 7.6-2.3 14.9C26.6 43.3 22 46.8 22 50.5s4.6 7.2 11.7 9.4c-1.6 7.2-0.9 13 2.3 14.9 0.8 0.4 1.6 0.6 2.6 0.6 3.1 0 7.2-2.3 11.4-6.1 4.2 3.9 8.3 6 11.4 6 1 0 1.8-0.2 2.6-0.6 3.2-1.8 3.9-7.6 2.3-14.9C73.4 57.7 78 54.2 78 50.5zM63.1 42.9c-0.4 1.5-1 3-1.5 4.5 -0.4-0.9-1-1.8-1.5-2.7 -0.5-0.9-1.1-1.8-1.6-2.7C60.1 42.2 61.6 42.5 63.1 42.9zM57.9 55c-0.9 1.5-1.8 3-2.8 4.3 -1.6 0.2-3.3 0.3-5.1 0.3s-3.4-0.1-5.2-0.2c-1-1.4-1.8-2.8-2.8-4.3 -0.9-1.5-1.6-3-2.4-4.5 0.8-1.5 1.5-3 2.4-4.5 0.9-1.5 1.8-3 2.8-4.3 1.7-0.1 3.4-0.2 5.2-0.2s3.4 0.1 5.2 0.2c1 1.4 1.8 2.8 2.8 4.3 0.9 1.5 1.6 3 2.4 4.5C59.6 52 58.7 53.5 57.9 55zM61.6 53.5c0.6 1.5 1.2 3 1.6 4.5 -1.5 0.3-3.1 0.6-4.7 0.9 0.5-0.9 1.1-1.8 1.6-2.7C60.7 55.5 61.1 54.5 61.6 53.5zM50 65.8c-1.1-1.1-2.2-2.4-3.1-3.7 1.1 0 2 0.1 3.1 0.1s2.2 0 3.1-0.1C52.2 63.4 51.1 64.6 50 65.8zM41.5 59c-1.6-0.2-3.2-0.5-4.6-0.9 0.4-1.5 1-3 1.5-4.5 0.4 0.9 1 1.8 1.5 2.7C40.4 57.3 41 58.1 41.5 59zM50 35.3c1.1 1.1 2.2 2.4 3.1 3.7 -1.1 0-2-0.1-3.1-0.1s-2.2 0-3.1 0.1C47.8 37.6 48.9 36.4 50 35.3zM41.5 42c-0.5 0.9-1.1 1.8-1.6 2.7 -0.5 0.9-1 1.8-1.5 2.7 -0.6-1.5-1.2-3-1.6-4.5C38.3 42.5 39.9 42.2 41.5 42zM31.2 56.3c-4.1-1.7-6.7-4-6.7-5.8 0-1.8 2.6-4.1 6.7-5.8 1-0.4 2-0.8 3.1-1.2 0.6 2.3 1.5 4.5 2.6 7 -1.1 2.4-1.9 4.7-2.6 6.9C33.3 57.1 32.2 56.8 31.2 56.3zM37.3 72.6c-1.5-0.9-2.3-4.3-1.7-8.6 0.1-1.1 0.3-2.2 0.5-3.3 2.3 0.5 4.6 1 7.2 1.3 1.5 2.2 3.1 4 4.7 5.7 -3.8 3.4-7.2 5.4-9.6 5.4C38.2 72.9 37.7 72.8 37.3 72.6zM64.4 63.9c0.5 4.3-0.1 7.8-1.6 8.6 -0.3 0.2-0.8 0.3-1.3 0.3 -2.4 0-5.8-1.8-9.6-5.3 1.6-1.7 3.2-3.6 4.7-5.7 2.6-0.3 5.1-0.6 7.2-1.3C64.1 61.7 64.3 62.9 64.4 63.9zM68.8 56.3c-1 0.4-2 0.8-3.1 1.2 -0.6-2.3-1.5-4.5-2.6-7 1.1-2.4 1.9-4.7 2.6-6.9 1.1 0.3 2.2 0.8 3.2 1.2 4.1 1.7 6.7 4 6.7 5.8C75.4 52.3 72.8 54.6 68.8 56.3z"/><circle class="st3" cx="50" cy="50.5" r="5.2"/><path class="st2" d="M60.5 27.4L60.5 27.4 60.5 27.4z"/></svg>