<svg xmlns="http://www.w3.org/2000/svg" viewBox="0 0 100 100"><style type="text/css">  
	.st0{fill:#FFFFFF;}
	.st1{fill:#61DAFB;}
	.st2{fill:#61DAFB;stroke:#61DAFB;stroke-width:0.75;stroke-miterlimit:10;}
</style><rect class="st0" width="100" height="100"/><path class="st1" d="M100 100H0V0h100V100zM9.7 90h80.7V10H9.7"/><path class="st2" d="M76 50.5c0-3.4-4.3-6.7-10.9-8.7 1.5-6.7 0.8-12.1-2.1-13.8 -0.7-0.4-1.5-0.6-2.4-0.6v2.4c0.5 0 0.9 0.1 1.2 0.3 1.4 0.8 2.1 4 1.6 8 -0.1 1-0.3 2-0.5 3.1 -2.1-0.5-4.3-0.9-6.7-1.2 -1.4-2-2.9-3.7-4.4-5.3 3.5-3.2 6.7-5 8.9-5v-2.4l0 0c-2.9 0-6.7 2.1-10.6 5.7 -3.9-3.6-7.7-5.6-10.6-5.6v2.4c2.2 0 5.4 1.7 8.9 4.9 -1.5 1.6-3 3.3-4.4 5.3 -2.4 0.3-4.7 0.6-6.7 1.2 -0.2-1.1-0.4-2.1-0.6-3.1 -0.5-4 0.1-7.2 1.5-8 0.3-0.2 0.7-0.3 1.2-0.3v-2.4l0 0c-0.9 0-1.7 0.2-2.4 0.6 -3 1.7-3.6 7.1-2.1 13.8 -6.6 2-10.9 5.3-10.9 8.7 0 3.4 4.3 6.7 10.9 8.7 -1.5 6.7-0.8 12.1 2.1 13.8 0.7 0.4 1.5 0.6 2.4 0.6 2.9 0 6.7-2.1 10.6-5.7 3.9 3.6 7.7 5.6 10.6 5.6 0.9 0 1.7-0.2 2.4-0.6 3-1.7 3.6-7.1 2.1-13.8C71.7 57.2 76 53.9 76 50.5zM62.2 43.4c-0.4 1.4-0.9 2.8-1.4 4.2 -0.4-0.8-0.9-1.7-1.4-2.5 -0.5-0.8-1-1.7-1.5-2.5C59.4 42.8 60.8 43.1 62.2 43.4zM57.3 54.7c-0.8 1.4-1.7 2.8-2.6 4C53.2 58.9 51.6 59 50 59c-1.6 0-3.2-0.1-4.8-0.2 -0.9-1.3-1.7-2.6-2.6-4 -0.8-1.4-1.5-2.8-2.2-4.2 0.7-1.4 1.4-2.8 2.2-4.2 0.8-1.4 1.7-2.8 2.6-4 1.6-0.1 3.2-0.2 4.8-0.2 1.6 0 3.2 0.1 4.8 0.2 0.9 1.3 1.7 2.6 2.6 4 0.8 1.4 1.5 2.8 2.2 4.2C58.9 51.9 58.1 53.3 57.3 54.7zM60.8 53.3c0.6 1.4 1.1 2.8 1.5 4.2 -1.4 0.3-2.9 0.6-4.4 0.8 0.5-0.8 1-1.7 1.5-2.5C59.9 55.1 60.3 54.2 60.8 53.3zM50 64.7c-1-1-2-2.2-2.9-3.4 1 0 1.9 0.1 2.9 0.1 1 0 2 0 2.9-0.1C52 62.5 51 63.6 50 64.7zM42.1 58.4c-1.5-0.2-3-0.5-4.3-0.8 0.4-1.4 0.9-2.8 1.4-4.2 0.4 0.8 0.9 1.7 1.4 2.5C41.1 56.8 41.6 57.6 42.1 58.4zM50 36.4c1 1 2 2.2 2.9 3.4 -1 0-1.9-0.1-2.9-0.1 -1 0-2 0-2.9 0.1C48 38.5 49 37.4 50 36.4zM42.1 42.6c-0.5 0.8-1 1.7-1.5 2.5 -0.5 0.8-0.9 1.7-1.4 2.5 -0.6-1.4-1.1-2.8-1.5-4.2C39.1 43.1 40.6 42.8 42.1 42.6zM32.5 55.9c-3.8-1.6-6.2-3.7-6.2-5.4 0-1.7 2.4-3.8 6.2-5.4 0.9-0.4 1.9-0.7 2.9-1.1 0.6 2.1 1.4 4.2 2.4 6.5 -1 2.2-1.8 4.4-2.4 6.4C34.5 56.6 33.5 56.3 32.5 55.9zM38.2 71c-1.4-0.8-2.1-4-1.6-8 0.1-1 0.3-2 0.5-3.1 2.1 0.5 4.3 0.9 6.7 1.2 1.4 2 2.9 3.7 4.4 5.3 -3.5 3.2-6.7 5-8.9 5C39 71.3 38.6 71.2 38.2 71zM63.4 62.9c0.5 4-0.1 7.2-1.5 8 -0.3 0.2-0.7 0.3-1.2 0.3 -2.2 0-5.4-1.7-8.9-4.9 1.5-1.6 3-3.3 4.4-5.3 2.4-0.3 4.7-0.6 6.7-1.2C63.1 60.9 63.3 62 63.4 62.9zM67.5 55.9c-0.9 0.4-1.9 0.7-2.9 1.1 -0.6-2.1-1.4-4.2-2.4-6.5 1-2.2 1.8-4.4 2.4-6.4 1 0.3 2 0.7 3 1.1 3.8 1.6 6.2 3.7 6.2 5.4C73.6 52.2 71.2 54.3 67.5 55.9z"/><path class="st2" d="M39.4 27.4L39.4 27.4 39.4 27.4z"/><circle class="st2" cx="50" cy="50.5" r="4.8"/><path class="st2" d="M60.5 27.4L60.5 27.4 60.5 27.4z"/></svg>