<svg xmlns="http://www.w3.org/2000/svg" viewBox="0 0 100 100"><style type="text/css">  
	.st0{fill:#FFFFFF;}
	.st1{fill:#669966;}
</style><rect class="st0" width="100" height="100"/><path class="st1" d="M100 100H0V0h100V100zM9.7 90h80.7V10H9.7"/><path class="st1" d="M49.9 31.9c3.6 3.6 4.7 8.7 3.4 13.3l19.2 19.2 0.5 8.6 -10.8-0.9v-5.4h-5.4v-5.4h-5.4l-7-7c-4.6 1.3-9.7 0.2-13.3-3.4 -5.2-5.2-5.2-13.7 0-19C36.2 26.7 44.7 26.7 49.9 31.9L49.9 31.9zM40 35.5c-1.5-1.5-3.9-1.5-5.4 0 -1.5 1.5-1.5 3.9 0 5.4 1.5 1.5 3.9 1.5 5.4 0C41.5 39.4 41.5 37 40 35.5z"/></svg>