<svg xmlns="http://www.w3.org/2000/svg" viewBox="0 0 100 100"><style type="text/css">  
	.st0{fill:#FFFFFF;}
	.st1{fill:#996633;}
</style><rect class="st0" width="100" height="100"/><path class="st1" d="M100 100H0V0h100V100zM9.7 90h80.7V10H9.7"/><path class="st1" d="M75.8 45.7c-0.3-0.6-0.7-1.2-1.3-1.6 -0.1 0.5-0.3 1-0.6 1.5L58.3 69.8c-0.6 0.9-1.9 1.1-2.9 0.8l-25-7c-1.5-0.4-3.3-1.3-3.4-3 0-0.6 0-0.9 0.4-1.1 0.3-0.3 0.8-0.2 1.1-0.1L52 66c3.4 1 4.4 0.2 6.9-3.5l14.4-22.2c0.7-1.2 0.9-2.5 0.5-3.6 -0.4-1.1-1.4-2-2.7-2.4l-20.6-5.7c-0.5-0.1-1-0.1-1.5-0.1l0-0.1c-3.2-1.9-4.4 1.7-6 3 -0.6 0.5-1.4 0.8-1.7 1.3 -0.2 0.5-0.1 1-0.3 1.4 -0.6 1.4-2.4 3.6-3.3 4.3 -0.6 0.4-1.2 0.5-1.6 1.1 -0.3 0.4-0.2 1.1-0.4 1.6 -0.5 1.2-2.1 3.3-3.2 4.4 -0.4 0.4-1 0.6-1.3 1.1 -0.3 0.4-0.2 1.1-0.4 1.6 -0.7 1.3-2.2 3.2-3.4 4.3 -0.6 0.6-1.3 0.9-1.6 1.5 -0.1 0.3 0 0.7-0.2 1.1 -0.2 0.6-0.5 1.1-0.7 1.7 -0.7 0.9-1 2.1-0.9 3.4 0.2 3.1 2.5 6 5.3 6.8l25 7c2.3 0.6 5.2-0.5 6.6-2.5l14.4-22.2C76 48.2 76.2 46.9 75.8 45.7zM46.9 37.8l1.1-1.6c0.3-0.4 0.9-0.7 1.4-0.5l16.5 4.6c0.5 0.1 0.7 0.6 0.4 1l-1.1 1.6c-0.3 0.4-0.9 0.7-1.4 0.5l-16.5-4.6C46.8 38.6 46.6 38.2 46.9 37.8zM42.7 44l1.1-1.6c0.3-0.4 0.9-0.7 1.4-0.5l16.5 4.6c0.5 0.1 0.7 0.6 0.4 1L60.9 49c-0.3 0.4-0.9 0.7-1.4 0.5L43.1 45C42.6 44.9 42.4 44.4 42.7 44z"/></svg>