<svg xmlns="http://www.w3.org/2000/svg" viewBox="0 0 100 100"><style>.st1{fill:#666}</style><path fill="#fff" d="M0 0h100v100H0z"/><path class="st1" d="M100 100H0V0h100v100zM9.7 90h80.7V10H9.7"/><path class="st1" d="M55.9 30.5H71c1.9 0 3.7.3 5.4 1.4 2.7 1.7 4 4.2 4.1 7.4.1 3.8-1.3 6.9-4.6 9-1.1.8-2.4 1.2-3.8 1.2-1.3 0-2.7.3-3.3 1.6-.4.8-.5 1.8-.6 2.7-.1 2.6-.1 5.2-.1 7.9 0 .4 0 .7-.1 1.1-.2 1.6-1.7 2.7-3.4 2.6-1.5-.1-2.7-1.3-2.7-2.9 0-3.9 0-7.7.1-11.6.1-2.1 1.2-3.7 2.8-5.1 1.8-1.6 4-2.4 6.5-2.5 2.6-.1 4-2.3 3-4.6-.4-.9-1.1-1.5-2.1-1.6-.3-.1-.7-.1-1.1-.1h-30c-.6 0-1.3.1-1.9.2-1.6.4-2.6 1.5-2.8 3.2v18.4c0 .4 0 .8-.1 1.2-.3 1.6-1.6 2.5-3.2 2.4-1.6-.1-2.8-1.3-2.8-2.9-.1-3.9-.1-7.9-.1-11.8 0-2.5-.1-5 0-7.5.2-5.2 4.4-9.6 9.6-9.7 5.4-.1 10.8 0 16.1 0z"/><path class="st1" d="M20.6 51.2V40.4c0-1.3.4-2.4 1.5-3.1 1.9-1.2 4.3 0 4.6 2.3.1.4.1.9.1 1.3 0 6.6.1 13.2.1 19.9 0 1.2.1 2.3.9 3.2 1 1.2 2.3 1.4 3.8 1.4h16.7c.4 0 .7 0 1.1-.1 1.6-.1 2.7-1.4 2.8-3.1 0-1.6-1-2.9-2.6-3.1-.9-.1-1.8-.1-2.7-.3-3.5-.8-5.7-3-6.8-6.4-1.4-4.4.3-8.8 4.2-11.1 1.2-.7 2.5-1.1 4-1.2 3.3-.1 6.7-.1 10-.1 1.5 0 2.6.9 3 2.3.4 1.6-.1 3.2-1.4 3.8-.6.3-1.3.4-1.9.4h-8.6c-1.4 0-2.5.5-3.1 1.9-.9 2 .4 4.3 2.6 4.4 1.9.1 3.7.4 5.3 1.4 2.9 1.7 4.2 4.4 4.3 7.7 0 3.8-1.6 6.8-5.1 8.6-1.1.6-2.3.8-3.6.8-6.6.1-13.2.1-19.7.2-4.8 0-8.6-3.3-9.5-8.1-.1-.7-.2-1.4-.2-2.2.1-3.3.1-6.6.2-10-.1 0-.1 0 0 0z"/></svg>