<svg xmlns="http://www.w3.org/2000/svg" viewBox="0 0 100 100"><style type="text/css">  
	.st0{fill:#FFFFFF;}
	.st1{fill:#666666;}
</style><rect class="st0" width="100" height="100"/><path class="st1" d="M100 100H0V0h100V100zM9.7 90h80.7V10H9.7"/><path class="st1" d="M55.9 30.5c5 0 10.1 0 15.1 0 1.9 0 3.7 0.3 5.4 1.4 2.7 1.7 4 4.2 4.1 7.4 0.1 3.8-1.3 6.9-4.6 9 -1.1 0.8-2.4 1.2-3.8 1.2 -1.3 0-2.7 0.3-3.3 1.6 -0.4 0.8-0.5 1.8-0.6 2.7 -0.1 2.6-0.1 5.2-0.1 7.9 0 0.4 0 0.7-0.1 1.1 -0.2 1.6-1.7 2.7-3.4 2.6 -1.5-0.1-2.7-1.3-2.7-2.9 0-3.9 0-7.7 0.1-11.6 0.1-2.1 1.2-3.7 2.8-5.1 1.8-1.6 4-2.4 6.5-2.5 2.6-0.1 4-2.3 3-4.6 -0.4-0.9-1.1-1.5-2.1-1.6 -0.3-0.1-0.7-0.1-1.1-0.1 -10 0-20 0-30 0 -0.6 0-1.3 0.1-1.9 0.2 -1.6 0.4-2.6 1.5-2.8 3.2 0 0.3 0 0.7 0 1.1 0 5.8 0 11.6 0 17.3 0 0.4 0 0.8-0.1 1.2 -0.3 1.6-1.6 2.5-3.2 2.4 -1.6-0.1-2.8-1.3-2.8-2.9 -0.1-3.9-0.1-7.9-0.1-11.8 0-2.5-0.1-5 0-7.5 0.2-5.2 4.4-9.6 9.6-9.7C45.2 30.4 50.6 30.5 55.9 30.5 55.9 30.5 55.9 30.5 55.9 30.5z"/><path class="st1" d="M20.6 51.2c0-3.6 0-7.2 0-10.8 0-1.3 0.4-2.4 1.5-3.1 1.9-1.2 4.3 0 4.6 2.3 0.1 0.4 0.1 0.9 0.1 1.3 0 6.6 0.1 13.2 0.1 19.9 0 1.2 0.1 2.3 0.9 3.2 1 1.2 2.3 1.4 3.8 1.4 5.6 0 11.2 0 16.7 0 0.4 0 0.7 0 1.1-0.1 1.6-0.1 2.7-1.4 2.8-3.1 0-1.6-1-2.9-2.6-3.1 -0.9-0.1-1.8-0.1-2.7-0.3 -3.5-0.8-5.7-3-6.8-6.4 -1.4-4.4 0.3-8.8 4.2-11.1 1.2-0.7 2.5-1.1 4-1.2 3.3-0.1 6.7-0.1 10-0.1 1.5 0 2.6 0.9 3 2.3 0.4 1.6-0.1 3.2-1.4 3.8 -0.6 0.3-1.3 0.4-1.9 0.4 -2.9 0-5.7 0-8.6 0 -1.4 0-2.5 0.5-3.1 1.9 -0.9 2 0.4 4.3 2.6 4.4 1.9 0.1 3.7 0.4 5.3 1.4 2.9 1.7 4.2 4.4 4.3 7.7 0 3.8-1.6 6.8-5.1 8.6 -1.1 0.6-2.3 0.8-3.6 0.8 -6.6 0.1-13.2 0.1-19.7 0.2 -4.8 0-8.6-3.3-9.5-8.1 -0.1-0.7-0.2-1.4-0.2-2.2C20.5 57.9 20.5 54.6 20.6 51.2 20.5 51.2 20.5 51.2 20.6 51.2z"/></svg>