<svg xmlns="http://www.w3.org/2000/svg" viewBox="0 0 100 100"><style type="text/css">  
	.st0{fill:#FFFFFF;}
	.st1{fill:#666666;}
	.st2{fill:#000080;}
</style><rect class="st0" width="100" height="100"/><path class="st1" d="M100 100H0V0h100V100zM9.7 90h80.7V10H9.7"/><path class="st2" d="M46.8 75C34.8 75 25 65.2 25 53.2s9.8-22 22.2-21.8c11.7 0.3 21.2 9.8 21.2 21.8S58.8 75 46.8 75zM55.8 37.8c-3.5 0-6.5 3-6.5 6.5s2.8 6.5 6.5 6.5c3.5 0 6.5-2.8 6.5-6.5C62.2 40.8 59.5 37.8 55.8 37.8zM68.5 37.8c-3.5 0-6.5-2.8-6.2-6.5 0-3.5 2.8-6.2 6.5-6.2 3.5 0 6.2 3 6.2 6.5S72 37.8 68.5 37.8z"/></svg>