<svg xmlns="http://www.w3.org/2000/svg" viewBox="0 0 100 100"><style type="text/css">  
	.st0{fill:#FFFFFF;}
	.st1{fill:#666666;}
	.st2{fill:#215997;stroke:#215997;stroke-width:1.75;stroke-miterlimit:10;}
</style><rect class="st0" width="100" height="100"/><path class="st1" d="M100 100H0V0h100V100zM9.7 90h80.7V10H9.7"/><path class="st2" d="M32.2 30.3H40l7.9 20c0.9 2.4 2.1 5.9 2.1 5.9h0.1c0 0 1.1-3.5 2-5.9l7.9-20h7.9l3.2 40.5h-7.3l-1.7-22.6c-0.2-2.7-0.1-6.3-0.1-6.3H62c0 0-1.2 3.9-2.2 6.3l-6.6 15.7h-6.4l-6.5-15.7c-1-2.3-2.2-6.3-2.2-6.3H38c0 0 0.1 3.6-0.1 6.3l-1.7 22.6h-7.4L32.2 30.3z"/></svg>