<svg xmlns="http://www.w3.org/2000/svg" viewBox="0 0 100 100"><style type="text/css">  
	.st0{fill:#FFFFFF;}
	.st1{fill:#0E3693;}
	.st2{fill:#003399;}
</style><rect class="st0" width="100" height="100"/><path class="st1" d="M100 100H0V0h100V100zM9.7 90h80.7V10H9.7"/><polyline class="st2" points="32.5 37.5 23.5 37.5 23.5 62.5 32.5 62.5 53.6 77 53.6 23 32.5 37.5 "/><path class="st2" d="M71.9 50c0 6.8-3.7 12.7-9.1 15.8l2.8 4.9c7.1-4.1 11.9-11.8 11.9-20.7 0-8.8-4.8-16.6-11.9-20.7l-2.8 4.9C68.2 37.3 71.9 43.2 71.9 50z"/><path class="st2" d="M62.1 50c0 3.2-1.7 5.9-4.3 7.4l2.7 4.7c4.2-2.4 7-6.9 7-12.1 0-5.2-2.8-9.7-7-12.1l-2.7 4.7C60.4 44.1 62.1 46.8 62.1 50z"/></svg>