<svg xmlns="http://www.w3.org/2000/svg" viewBox="0 0 100 100"><style type="text/css">  
	.st0{fill:#FFFFFF;}
	.st1{fill:#0E3693;}
</style><rect class="st0" width="100" height="100"/><path class="st1" d="M100 100H0V0h100V100zM9.7 90h80.7V10H9.7"/><path class="st1" d="M26.5 37.5H53c1.4 0 2.5-1.1 2.5-2.5 0-1.4-1.1-2.5-2.5-2.5H26.5c-1.4 0-2.5 1.1-2.5 2.5C24 36.4 25.1 37.5 26.5 37.5z"/><path class="st1" d="M26.5 50.2H53c1.4 0 2.5-1.1 2.5-2.5 0-1.4-1.1-2.5-2.5-2.5H26.5c-1.4 0-2.5 1.1-2.5 2.5C24 49.1 25.1 50.2 26.5 50.2z"/><path class="st1" d="M39.2 57.1H26.5c-1.4 0-2.5 1.1-2.5 2.5 0 1.4 1.1 2.5 2.5 2.5h12.8c1.4 0 2.5-1.1 2.5-2.5C41.7 58.2 40.6 57.1 39.2 57.1z"/><path class="st1" d="M70.3 36.8c-1.8-0.9-4.3-2.3-5.2-4.3 0-1-0.9-1.9-1.9-1.9 -1 0-1.9 0.9-1.9 1.9v24.8c-2-1-5.6-0.7-8.5 0.9 -4.4 2.4-6.3 7-4.3 10.2 1.9 3.2 7.1 3.8 11.4 1.4 3.1-1.7 5.1-4.6 5.2-7.3 0-7.2 0-14.2 0-21.4 6.3 0 10 2.5 8.7 8.7 -0.3 1.1-0.6 2.3-1.1 3.3l0 0c-0.2 0.4-0.2 0.8 0.1 1.1 0.3 0.3 0.9 0.3 1.4-0.2 2.4-2.3 3.8-5.4 3.9-8.6C78.1 41.1 73.9 38.5 70.3 36.8z"/></svg>