<svg xmlns="http://www.w3.org/2000/svg" viewBox="0 0 100 100"><path d="M0 0h100v100H0V0z" fill="#fff"/><path d="M100 100H0V0h100v100zM9.7 90h80.7V10H9.7" fill="#999"/><path d="M55.1 77.639c-1.5-.2-2.6-.5-3.8-1.1-2.1-1-3.7-2.5-4.6-4.3l-.3-.5-.2.4c-.2.5-.3.6-.6.4-.4-.2-1-.8-1.3-1.4-.3-.6-.5-1.3-.8-2.4-.2-1-.3-1.2-.4-1.1 0 0-.2.3-.3.5-.3.6-.4.7-.8.3-.6-.5-.9-1.4-1.1-2.8-.2-1.3-.2-1.3-.3-1.3 0 0-.2.2-.3.5-.1.3-.3.5-.3.5-.1 0-.7-1.3-.9-1.9-.2-.8-.2-2.3-.1-3.3.1-.4.1-.8.1-.9 0-.1-.2 0-.5.3-2.1 1.7-5.7 3-8.5 3-1.2 0-1.9-.2-2.1-.7-.2-.4 0-.7.7-1.5 1.1-1.3 1.8-2.4 2.3-3.9.2-.6.8-2.9 1-3.6v-.2h-.6c-1.7 0-3.6-.4-5.1-1.1-3.2-1.5-5.3-4.6-6.1-9-.8-4.3-.3-7.9 1.7-10.9 2.1-3.2 5.9-5.4 10.4-6 1-.1 3-.1 3.9 0 1.5.2 2.4.6 3.5 1.4.4.3.9.6 1.1.7.5.3 1.4.5 2 .6.8.1 1 .2 1 .4 0 .8-1 1.3-2.9 1.5-.7.1-1.2.1-4 0-.9 0-1.1 0-1.8.1-2 .3-3.8 1.3-5.3 2.7-1.3 1.3-2.2 2.8-2.7 4.4-.1.5-.2.8-.2 1.6 0 .9 0 1 .2 1.5.8 2.3 3.1 3.1 5.5 1.9 1.1-.6 2.2-1.5 3.2-2.9 2-2.8 3.2-4 5-5 3.2-1.9 6.8-1.6 9.8.8.4.3.4.3.5.3.1 0 .3-.2.5-.4 1.6-1.2 3.5-1.7 5.3-1.4 1.1.2 2.5.8 3.7 1.6 1.1.8 1.9 1.6 4 4.1 1.4 1.7 2.3 2.5 3.3 3 .6.3 1.1.4 1.6.5 1.8 0 3.3-2.6 3.3-5.9 0-1.9-.5-3.6-1.4-4.5-1-1-2.2-1.6-3.7-1.9-.3-.1-1.2-.1-1.9-.2-1.7-.1-2.4-.2-2.9-.4-.7-.3-1.4-.7-1.6-1.2-.1-.2-.1-.2 0-.3.1-.1.5-.1 1.1-.1 1.8-.1 3.3-.4 5.8-1.2 1.9-.6 2.4-.7 3.4-.6 1.6.2 2.9.9 4.3 2.2 2.5 2.4 4 5.9 4.1 9.3.1 2.2-.2 3.3-1.8 6.3-1.2 2.4-2.3 3.6-3.8 4.4-.9.4-1.7.7-3.2.9-.5.1-.8.1-.8.2 0 .2.8 1.3 1.4 1.8.7.7 1.2 1 2.1 1.2.5.1.8.3.8.6 0 .4-.7.9-1.5 1.2-.8.3-1.6.4-2.6.4-2.1-.1-3.8-.9-5.4-2.5-.4-.4-.8-.8-.9-1l-.2-.2s-.1.3-.1.6-.2 1.1-.3 1.7l-.3 1.1.2.2c.8.8 1.9 1.1 2.9.9.5-.1.8 0 1.2.3.6.5.9 1.3.9 2.3 0 1.2-.3 1.9-1.3 2.8-1.1 1.1-1.4 1.4-1.5 1.7-.3.6-.2 1 .5 1.5.5.5.6.7.5 1.2l-.3.6c-.3.3-1.2 1-1.8 1.2l-.4.2.2.3c.4.6.6 1.5.4 2.2-.2.7-.9 1.4-1.5 1.5-.2 0-.4 0-.7-.1-.5-.2-.9-.2-1.2 0-.4.1-.7.4-.9.8-.2.3-.2.4-.2 1.2 0 1.5-.3 2.3-1 3.1-.7.7-1.7 1.1-3.1 1.1-.6-.3-1.1-.3-1.2-.3zm1.2-2.5c-.6-1.2-.6-2-.2-3 .2-.5.8-1.1 1.2-1.3.7-.4 2-.5 4-.5 1.9 0 2.5-.2 2.6-1 .1-.3-.1-.8-.3-1.2-.1-.1-.4-.3-.6-.5-.4-.2-.5-.2-1.3-.2-.9 0-.9 0-1.8.3-1.3.4-1.7.5-2.7.5-.9 0-1.3-.2-2.2-.6-1.6-.7-3-2.2-3.5-3.6-.2-.5-.2-.8-.2-1.1 0-.2.1-.1.4.4 1 1.8 2.7 3.3 4.2 3.8.5.1 1.2.1 1.8 0 .2 0 1-.2 1.7-.4s1.5-.4 1.8-.5c.6-.1 1.8-.2 2.6-.1.9.1 1.4-.2 1.4-.8 0-.4-.2-.7-.6-1.2-.4-.4-.5-.6-.5-.9 0-.5.4-1.1 2-2.4.9-.8 1.2-1.5 1.2-2.6 0-.7-.2-1.2-.6-1.5l-.3-.2-.4.1c-.2 0-.7.1-1 .1-.5 0-.6 0-.9-.2-1-.5-2-1.9-2.6-3.6-.3-1-.8-1.7-1.7-3.1-1.2-1.7-1.2-1.9-1-2.4.1-.1.1-.5.1-.8 0-.3.1-.6.1-.6l.2.2c.2.4.4.4 1.1.3.9-.2 1.7-.1 2.2.1.2.1.4.2.5.2.2.1 0-.9-.4-1.9-.2-.6-.4-1.2-.4-1.3 0-.4.4-.2.9.4.6.7.8 1.2 1.3 3 .6 2.1 1 3.2 1.6 4 .6.7.9.8 1.3.4.1-.1.3-.2.3-.2s.4.3.7.6c1 1 1.7 1.3 2.8 1.4.5 0 .6 0 .7-.1.1-.1.1-.1-.1-.2-.7-.2-1.3-.9-2-1.9-.5-.8-1.4-2.6-2-3.9-.7-1.7-1.3-2.7-2.2-3.7-1.5-1.6-3.1-2.4-5-2.4-1 0-1.5.1-2.5.7-1 .5-1.5.7-2 .8-.5.1-1-.1-2.5-.7-2.6-1.1-3.8-1.4-5.6-1.4-1.2 0-1.4 0-3.6 1-.9.4-1.9.7-2.2.8-2.4.6-3.4 1.2-4.7 2.5-2 2-3 4.7-3.5 8.9-.2 1.5-.5 2.3-1.6 4.2-.2.4-.5.9-.6 1-.4.8.1.8 1.6.1 1.3-.6 1.9-1.1 2.8-2.3.8-1.1.9-1.1 1.2-.6.3.5.4.4.9-1.3.3-1.1.7-1.8.8-1.9.1 0 .2 0 .2.1.1.1.2.1.3.1.2-.1.6-.6.9-1.1.6-1.1.7-1.8.8-3.4.1-1.3.3-2.1.7-3 .7-1.4 2.1-2.3 3.6-2.5.6 0 .8 0 .8.2s-.2.3-.7.5c-.6.2-.9.4-1.2.7-.6.6-.8 1.4-1 3.1-.4 4.5-.5 4.9-1.4 6.8l-.4.9v.8c0 .8.1 1.3.3 1.3.1 0 .2-.2.4-.5.3-.6.8-1 .9-1 .2 0 .2.3.1.8-.2.9 0 2.4.4 4.3.3 1.3.6 2.4.7 2.4 0 0 .2-.2.3-.5.4-.9 1.1-1.7 1.3-1.5 0 0 .1.1.1.3 0 .1.1.8.2 1.5.8 4.8 2.1 7.7 4.2 9.7 1.2 1.1 2.8 1.9 4.4 2.2 1.2.2 1.5.2 1.4.1zm.9-13.8c0-.1-.1-.2-.1-.4-.1-.4-.3-.7-.5-.8-.2-.1-.2 0-.5.2-.2.1-.4.2-.5.3-.7.2-1.6-.6-1.5-1.2.1-.6 1.4-1 2.1-.7.6.3 1.5 1.5 1.5 2.2.1.3-.4.7-.5.4zm-3.9-.5c-.6-.7-.8-2.2-.4-3.1.5-1.1 1.8-1.8 3.2-1.7 1.4.1 2.9.9 4.4 2.3.5.5.6.6.6.8 0 .5-.4.7-.8.4-.1-.1-.5-.5-.9-.8-1.9-1.7-3.2-2.2-4.4-1.6-1.1.5-1.6 1.8-1.3 3.5 0 .3.1.5 0 .5-.2 0-.3-.1-.4-.3zm-3.9-10.1c-.6-.4-1-1-1-1.7 0-.6.1-1 .5-1.4.3-.4.8-.6 1.3-.7.5-.1 1.5-.1 1.9 0 .2.1.3 0 .3-.1s.1-.3.2-.6c0-.2.1-.4.2-.4s.1.1.2.8c.1.4.1.6.2.7.3.3.2.8-.1.9-.1 0-.3 0-.7-.2-.6-.3-.9-.3-1.1-.1-.3.3-.1.8.3.8.3 0 .4-.1.5-.3l.1-.2.1.2c.2.5 0 1-.5 1.3-.2.2-.3.2-.7.2-.4 0-.5 0-.7-.2-.3-.2-.6-.7-.6-1 0-.3.2-.7.4-.9.2-.2.2-.2.1-.2-.5.2-.9.6-1 1-.1.5.1 1.1.5 1.6.1.1.2.3.2.3-.1.4-.4.4-.6.2zm13.5 2.9c0-.1.2-.8.3-1.5.4-2.5.2-3.5-.4-4.1-.2-.2-.6-.4-.5-.2 0 0 0 .1-.2.1-.5.2-.3.9.2.9.2 0 .3-.1.4-.2l.1-.2v.2c.2.8-.4 1.5-1.2 1.5-.7 0-1.2-.5-1.2-1.2 0-.6.4-1.1 1-1.2h.3-.3c-.2 0-.5 0-.8-.1-.6 0-.9.1-1.1.4-.2.3 0 .7.9 1.6.9.9 1.1 1.2 1.5 2.5.4 1.3.6 1.8.8 1.8.1-.1.1-.2.2-.3zm-34.7-4.6c-.1-.3-.4-1.2-.5-1.6-.1-.6-.1-1.4 0-1.6.2-.2.4 0 1 .6 1.3 1.3 2.3 1.8 3.9 1.9h.8l.4-.6c1.9-3 4.4-5.1 6.9-6 .8-.3 1.1-.4 1.1-.6.1-.2 0-.2-.5-.5-.3-.1-.5-.3-.5-.4-.1-.3 1.6-.7 3.8-.9 1.2-.1 1.5-.2 1.5-.2s-.2-.2-.5-.3c-.9-.4-.9-.6-.1-.9.5-.1 1.9-.1 2.8 0 1.4.2 2.9.9 4.4 1.9 2.1 1.3 2.5 1.5 3.3 1.7.9.2 1.6-.2 2.7-1.2.9-.8 1.4-1.1 1.7-.9.1.1.1.1.1.4 0 .2 0 .3.1.3 0 0 .5.1 1.1.1 1.1 0 1 0 1.2.3 0 .1.3.2.5.3.5.2 1.2.5 1.7.8.5.4.6.4.5.3-1.1-1.8-3.1-4.2-4.5-5.2-.7-.5-1.8-1.1-2.5-1.3-.6-.2-1.6-.1-2.1 0-.5.2-1.1.5-1.4.8-.1.2-.1.2-.1.3.1.1.1.1.5-.1.4-.1.6-.2 1.2-.2 1.2 0 1.3.1.2.4-1.1.2-1.9.7-2.3 1.5-.1.2-.2.3-.2.3s-.2-.1-.4-.3c-2.1-1.7-4.3-2.8-6.3-3.2-.5-.1-.9-.1-1.8-.1-1 0-1.2 0-1.9.2-1 .3-2.3.9-3.2 1.6-1.2.9-2.4 2.2-3.8 4.1-1.3 1.8-2.8 3-4.5 3.5-1.5.5-2.9.4-4-.4-.7-.4-.8-.5-1.1-.5-.3 0-.4.1-.4.5 0 .2-.1.4-.1.4-.1.1-.7-.8-.9-1.5-.3-.8-.3-1.3-.3-2.3.1-2.4 1.1-4.7 3-7.1.6-.8 1.7-1.9 2.4-2.3.7-.5.8-.6.8-.8 0-.2-.1-.3-.4-.6l-.4-.4c0-.1.2-.1 1.2-.2.5-.1 1.7-.1 2.6-.1 1.8 0 2.7 0 4.1.3 1 .2 2.5.1 3 0l.3-.1-.6-.1c-.4-.1-1.1-.4-2.2-1-1.8-.9-2.4-1.1-3.7-1.2-.7-.1-2.4 0-2.5.1 0 0 .1.1.2.3s.3.3.3.4c0 .3-.1.3-2.1.5-1.4.1-3.2.6-4.4 1.1-.9.4-.9.4 0 .4s1.4.1 1.6.2c.1.1.1.1 0 .2s-.5.3-1.1.4c-2.5.9-3.7 1.7-4.6 3.3-.8 1.4-1.5 4.1-1.5 5.9 0 1.6.5 3.5 1.3 5.4.3.6.6 1.3.7 1.3v-.7c0-1.1.2-2.1.6-2.4.2-.2.3 0 .6.8.5 1.8 1.3 3.4 2.2 4.3.6.6 1.2 1 1.1.7zm45.3-2.6c.5-.2 1.1-.7 1.5-1.1.1-.1.5-.6.8-1 .6-.8.9-1 1.1-.9.1 0 .1.1.1.4 0 .2-.1.6-.1.8v.4l.2-.1c.4-.4 1.4-2.1 1.7-3.3.4-1.2.5-2.1.5-3.5 0-1.3-.2-2.1-.6-3.2-.8-2.2-2.4-4.3-4.3-5.6-1.3-.9-2.5-1.3-3.6-1.3-.6 0-.7 0-1.2.2-1.3.5-2.8.8-4.9 1l-1 .1.3.1c.3.1.5.1 2 .2 1.8 0 2.4.1 3.2.3 1.2.3 2.6.9 3.7 1.6.7.5 1.6 1.3 2 1.9.6.8 1.1 2.1 1.1 2.8 0 .3 0 .3-.2.3-.1 0-.3-.1-.5-.3-.4-.3-.5-.3-.4 0 .1.3.5 1.7.8 2.5.2.6.3.7.3 1.3 0 .5 0 .8-.1 1-.2.4-.3.4-.5 0-.1-.2-.3-.5-.5-.7-.5-.5-.6-.5-.9.4-.1.3-.3.9-.5 1.3-.6 1.2-1.4 1.9-2.5 2.1-.8.1-1.9-.1-3-.5l-.4-.2.2.2c.3.3.9.8 1.3 1 .8.4 1.2.5 2.6.5H73l.1.2c.1.2 0 .6-.3 1.1l-.2.4c-.3.1.3-.1.9-.4z" fill="#999" stroke="#999" stroke-width=".5" stroke-miterlimit="10"/></svg>