<svg xmlns="http://www.w3.org/2000/svg" viewBox="0 0 100 100"><style type="text/css">  
	.st0{fill:#FFFFFF;}
	.st1{fill:#999999;}
	.st2{fill:#999999;stroke:#999999;stroke-width:1.5;stroke-miterlimit:10;}
</style><rect class="st0" width="100" height="100"/><path class="st1" d="M100 100H0V0h100V100zM9.7 90h80.7V10H9.7"/><path class="st2" d="M75.3 77.5c-0.2 0-0.5-0.1-0.7-0.2l-13.2-6.1 -20.1 6.1c-0.4 0.1-0.8 0.1-1.1 0l-16.1-6.3c-0.6-0.3-1.1-0.9-1.1-1.6V25.2c0-0.6 0.3-1.1 0.7-1.4 0.5-0.3 1-0.4 1.6-0.2l15.6 6.1L61 23.6c0.4-0.1 0.8-0.1 1.2 0.1L76 30c0.6 0.3 1 0.9 1 1.5v44.3c0 0.6-0.3 1.1-0.8 1.4C75.9 77.4 75.6 77.5 75.3 77.5zM26.4 68.3L40.9 74 61 67.9c0.4-0.1 0.8-0.1 1.2 0.1l11.4 5.2V32.6L61.4 27l-20.1 6.1c-0.4 0.1-0.8 0.1-1.1 0l-13.8-5.4V68.3z"/><path class="st2" d="M33.1 64c-0.7 0-1.4-0.4-1.6-1.2 -0.3-0.9 0.2-1.8 1.1-2.1 0.5-0.2 1-0.4 1.5-0.5 0.9-0.3 1.8 0.1 2.2 0.9 0.3 0.9-0.1 1.8-1 2.2 -0.5 0.2-1.1 0.4-1.7 0.6C33.5 64 33.3 64 33.1 64z"/><path class="st2" d="M40 60.6c-0.5 0-1-0.2-1.4-0.7 -0.5-0.8-0.4-1.8 0.4-2.4 0.8-0.5 1.5-1.1 2.1-1.8 0.7-0.6 1.8-0.6 2.4 0.1 0.6 0.7 0.6 1.7-0.1 2.4 -0.8 0.7-1.6 1.4-2.5 2C40.7 60.5 40.3 60.6 40 60.6zM46.2 54.1c-0.3 0-0.7-0.1-0.9-0.3 -0.8-0.5-1-1.6-0.5-2.3 0.5-0.8 1.1-1.6 1.5-2.5 0.5-0.8 1.5-1.1 2.3-0.6 0.8 0.5 1.1 1.5 0.6 2.3 -0.5 0.9-1.1 1.8-1.7 2.6C47.3 53.8 46.7 54.1 46.2 54.1zM50.7 46.3c-0.3 0-0.6-0.1-0.9-0.2 -0.8-0.5-1.1-1.5-0.6-2.3 0.6-1 1.2-1.9 1.7-2.6 0.5-0.8 1.6-0.9 2.4-0.4 0.8 0.5 0.9 1.6 0.4 2.4 -0.5 0.7-1 1.5-1.6 2.4C51.9 46 51.3 46.3 50.7 46.3zM56.6 39.6c-0.5 0-1.1-0.3-1.4-0.8 -0.5-0.8-0.3-1.8 0.5-2.3 0.9-0.6 1.9-1.1 3-1.5 0.9-0.3 1.8 0.1 2.2 1 0.3 0.9-0.1 1.8-1 2.2 -0.8 0.3-1.6 0.7-2.3 1.2C57.3 39.5 56.9 39.6 56.6 39.6z"/><path class="st2" d="M65.2 37c-0.9 0-1.6-0.7-1.7-1.6 -0.1-0.9 0.7-1.7 1.6-1.8 0.6 0 1.2-0.1 1.8-0.1 0.9 0 1.7 0.8 1.7 1.7S67.8 37 66.9 37C66.3 37 65.8 37 65.2 37 65.3 37 65.2 37 65.2 37z"/><path class="st2" d="M61.5 71.2c-0.9 0-1.7-0.8-1.7-1.7v-19c0-0.9 0.8-1.7 1.7-1.7 0.9 0 1.7 0.8 1.7 1.7v19C63.2 70.4 62.4 71.2 61.5 71.2z"/><path class="st2" d="M40.8 40.7c-0.9 0-1.7-0.8-1.7-1.7v-7.5c0-0.9 0.8-1.7 1.7-1.7s1.7 0.8 1.7 1.7V39C42.5 39.9 41.7 40.7 40.8 40.7z"/><path class="st2" d="M40.8 77.5c-0.9 0-1.7-0.8-1.7-1.7v-6.9c0-0.9 0.8-1.7 1.7-1.7s1.7 0.8 1.7 1.7v6.9C42.5 76.7 41.7 77.5 40.8 77.5z"/></svg>