<svg id="Layer_1" xmlns="http://www.w3.org/2000/svg" viewBox="0 0 100 100"><style>.st3{fill:#bababa;stroke:#bababa;stroke-width:.75;stroke-miterlimit:10}</style><path d="M0 0h100v100H0V0z" fill="#fff"/><path d="M100 100H0V0h100v100zM9.7 90h80.7V10H9.7" fill="#bababa"/><g opacity=".9"><path class="st3" d="M72.9 43.7c-.6-.4-1.5-.4-2.1.1l-10.2 7.8-9.2-12.3c-.3-.4-.9-.7-1.4-.7-.5 0-1.1.2-1.4.7l-9.9 12.3-9.5-7.7c-.6-.5-1.4-.5-2.1-.1-.7.4-1 1.1-.9 1.9l3.1 16.4c.2.9.9 1.5 1.8 1.5h37.6c.9 0 1.6-.6 1.8-1.5l3.1-16.4c.3-.8-.1-1.6-.7-2zm-5.6 16.2H32.7l-1.9-10.1 7.1 5.8c.4.3.9.4 1.3.4.5-.1.9-.3 1.2-.7L50 43.4l8.9 11.9c.3.4.7.6 1.2.7.5.1 1-.1 1.3-.4l7.8-6-1.9 10.3z"/><path class="st3" d="M67 61.7v4.7H33v-4.7h-3.6v6.5c0 1 .8 1.8 1.8 1.8h37.6c1 0 1.8-.8 1.8-1.8v-6.5H67zM50 30c-3.3 0-6 2.7-6 6s2.7 6 6 6 6-2.7 6-6-2.7-6-6-6zm0 8.5c-1.3 0-2.4-1.1-2.4-2.4s1.1-2.4 2.4-2.4 2.4 1.1 2.4 2.4c0 1.3-1.1 2.4-2.4 2.4zm22.4-3.7c-3.3 0-6 2.7-6 6s2.7 6 6 6 6-2.7 6-6c.1-3.3-2.7-6-6-6zm0 8.4c-1.3 0-2.4-1.1-2.4-2.4 0-1.3 1.1-2.4 2.4-2.4s2.4 1.1 2.4 2.4c0 1.3-1.1 2.4-2.4 2.4zm-44.8-8.4c-3.3 0-6 2.7-6 6s2.7 6 6 6 6-2.7 6-6-2.7-6-6-6zm0 8.4c-1.3 0-2.4-1.1-2.4-2.4 0-1.3 1.1-2.4 2.4-2.4s2.4 1.1 2.4 2.4c0 1.3-1.1 2.4-2.4 2.4z"/></g></svg>