<svg xmlns="http://www.w3.org/2000/svg" viewBox="0 0 100 100"><style type="text/css">  
	.st0{fill:#FFFFFF;}
	.st1{fill:#999999;}
</style><rect class="st0" width="100" height="100"/><path class="st1" d="M100 100H0V0h100V100zM9.7 90h80.7V10H9.7"/><path class="st1" d="M78 50.5c0 15.5-12.5 28-28 28 -15.5 0-28-12.5-28-28 0-15.5 12.5-28 28-28C65.5 22.5 78 35 78 50.5"/><path class="st0" d="M69.5 52.6c-0.9-6-7.2-9.8-11.8-12.7 -2-1.3-5.3-2.9-5.8-5.6 -0.2-1.1-0.2-2.2-0.2-3.4 0-0.4 0-0.9-0.1-1.3 -0.1-0.6-0.6 0.1-0.9-0.4 -0.8-1.2-0.5 0.4-0.4 1 0.2 1.5 0.4 3 0.4 4.5 0 2.9-0.5 5.7-1.2 8.5 -1.7 6.6-3 13.3-1.4 20 0.3 1.4 0.8 2.8 1.4 4.1 0.2 0.4 0.5 1.5 1 1.6 1.8 0.5 3.1 0.6 4.5 1.9 0.9 0.8 1.5 0.4 2.6 0 3.2-1.3 5.9-2.9 8.1-5.5C69 61.7 70.3 57.4 69.5 52.6M66.2 58.6c-0.3 2.4-1.8 4.6-3.4 6.5 -1.1 1.3-2.7 3-4.4 3.6 -0.6 0.2 0.1-1 0.2-1.1 0.5-0.8 1.2-1.5 1.8-2.2 0.9-1.1 1.6-2.2 2.2-3.5 1.7-4.3 1.3-9.5-1.2-13.4 -1.4-2.1-3.3-3.9-5.2-5.5 -0.9-0.8-1.9-1.5-2.6-2.5 -0.2-0.2-1.8-2.3-1.3-2.6 0.2-0.1 3.6 3.6 4 3.8 1.4 1.1 2.9 2.1 4.2 3.3 1.8 1.7 3.6 3.5 4.7 5.7C66.3 53.1 66.5 55.9 66.2 58.6"/><path class="st0" d="M49 23.3c0.5 0.3 0.6 2.4 0.6 4.2 0 1.9 0.2 9.8-0.4 12 -0.6 2.1-1.9 4.5-3.4 6.6 -1.4 2.1-3.1 6.5-3.1 9.2 0.1 2.7 1.6 7.2 2.8 9 1.2 1.9 3.3 4.5 2.8 5 -0.8 1-4.1-2.5-5.9-4.6 -1.7-2.1-3.5-6.3-3.5-9.6 -0.1-3.3 1.8-6.4 3.1-8.2 1.3-1.9 3.9-5 4.6-6.5 0.7-1.4 1.4-3 1.7-5 0.2-2 0-9.3 0-9.3S48.4 22.9 49 23.3"/><path class="st0" d="M47.6 26.7c0.5 0.2 0.6 0.9 0.6 1.5 0 0.6-0.2 3.2-0.3 5.8 -0.2 2.5-2.2 4.7-3.7 6.2 -1.5 1.5-5.9 6.2-7.5 8.5 -1.6 2.3-2.4 5.4-2.3 7.9 0.2 2.6 0.8 5.2 3.2 7.9 2.4 2.7 4.1 4 5.4 4.6 1.3 0.6 2.5 1.1 2.3 1.7 -0.3 0.6-1.5 0.2-2.8-0.3 -1.3-0.5-5.9-2.3-8.5-5.3 -2.6-3-3.9-6.9-3.8-10.7 0.1-3.8 1.2-5.3 2.9-7.8 1.7-2.4 6.5-6 8.1-7 1.5-0.9 3.5-2.5 4.5-3.8 1-1.3 1.5-2.3 1.4-4.1 -0.1-1.7 0.1-3.3 0.1-3.9C47.1 27.6 47.1 26.4 47.6 26.7"/><path class="st0" d="M47.7 72.1c0.2 0 0.1 1-0.3 1.5 -0.4 0.5-1.1 0.8-1.2 0.6 -0.1-0.2 0.5-0.3 1-0.8C47.5 72.9 47.4 72.1 47.7 72.1"/><path class="st0" d="M52.4 72c-0.2 0-0.1 1 0.3 1.5 0.4 0.5 1.1 0.8 1.2 0.6 0.1-0.2-0.5-0.3-1-0.8C52.6 72.9 52.7 72.1 52.4 72"/><path class="st0" d="M50.3 73.2c0 0.9 0 1.6-0.1 1.6 -0.2 0-0.1-0.7-0.1-1.6 0-0.9-0.1-1.6 0.1-1.6C50.4 71.5 50.3 72.3 50.3 73.2"/></svg>