<svg xmlns="http://www.w3.org/2000/svg" viewBox="0 0 100 100"><style type="text/css">  
	.st0{fill:#FFFFFF;}
	.st1{fill:#999999;}
	.st2{fill:#999999;stroke:#999999;stroke-miterlimit:10;}
</style><rect class="st0" width="100" height="100"/><path class="st1" d="M100 100H0V0h100V100zM9.7 90h80.7V10H9.7"/><path class="st2" d="M70.5 38.6l-1.7 6.8h-6.8l-1.7 8h7.4l-1.1 6.8h-7.4L56.2 75h-6.8l2.8-14.8h-8L41.5 75h-6.8l2.8-14.8h-8l1.7-6.8h7.4l1.1-8h-7.4l1.1-6.8h8L43.8 25h6.8l-2.3 13.6h8L58.5 25h6.8l-2.8 13.6H70.5zM54.5 45.5h-8l-1.1 8h8L54.5 45.5z"/></svg>