<svg xmlns="http://www.w3.org/2000/svg" viewBox="0 0 100 100"><style type="text/css">  
	.st0{fill:#FFFFFF;}
	.st1{fill:#666666;}
	.st2{fill:#39669A;stroke:#39669A;stroke-width:0.75;stroke-miterlimit:10;}
</style><rect class="st0" width="100" height="100"/><path class="st1" d="M100 100H0V0h100V100zM9.7 90h80.7V10H9.7"/><path class="st2" d="M21.3 36.9h5.1v3h-2.3v21.2h2.3v3h-5.1V36.9z"/><path class="st2" d="M30.4 37.9H34l3.6 11.4c0.4 1.4 0.9 3.4 0.9 3.4h0.1c0 0 0.5-2 0.9-3.4l3.6-11.4h3.6L48.2 61h-3.3l-0.8-12.9c-0.1-1.5 0-3.6 0-3.6H44c0 0-0.5 2.2-1 3.6l-3 8.9h-2.9l-3-8.9c-0.4-1.3-1-3.6-1-3.6h-0.1c0 0 0.1 2.1 0 3.6L32.3 61h-3.4L30.4 37.9z"/><path class="st2" d="M53.3 37.9h3.6l3.6 11.4c0.4 1.4 0.9 3.4 0.9 3.4h0.1c0 0 0.5-2 0.9-3.4L66 37.9h3.6L71.1 61h-3.3L67 48.1c-0.1-1.5 0-3.6 0-3.6h-0.1c0 0-0.5 2.2-1 3.6l-3 8.9H60l-3-8.9c-0.4-1.3-1-3.6-1-3.6h-0.1c0 0 0.1 2.1 0 3.6L55.1 61h-3.4L53.3 37.9z"/><path class="st2" d="M75.8 61.1V39.9h-2.3v-3h5.1v27.2h-5.1v-3H75.8z"/></svg>