<svg xmlns="http://www.w3.org/2000/svg" viewBox="0 0 100 100"><path fill="#fff" d="M0 0h100v100H0z"/><path d="M100 100H0V0h100v100zM9.7 90h80.7V10H9.7" fill="#666"/><path d="M22.4 28.8h8.2v4.8h-3.7v33.8h3.7v4.8h-8.2V28.8zM37 30.4h5.7l5.7 18.2C49.2 50.7 50 54 50 54h.1s.7-3.2 1.5-5.4l5.7-18.2H63l2.3 36.8H60l-1.3-20.6c-.1-2.4 0-5.7 0-5.7h-.1s-.9 3.6-1.6 5.7l-4.8 14.3h-4.7L43 46.6c-.7-2.1-1.6-5.7-1.6-5.7h-.1s.1 3.3 0 5.7L40 67.2h-5.3L37 30.4zm36 37V33.6h-3.7v-4.8h8.2v43.4h-8.2v-4.8H73z" fill="#39669a" stroke="#39669a" stroke-width="1.25" stroke-miterlimit="10"/></svg>