<svg xmlns="http://www.w3.org/2000/svg" viewBox="0 0 100 100"><style type="text/css">  
	.st0{fill:#FFFFFF;}
	.st1{fill:#3679BA;}
</style><rect class="st0" width="100" height="100"/><path class="st1" d="M100 100H0V0h100V100zM9.7 90h80.7V10H9.7"/><path class="st1" d="M57.4 36.5L46.8 47c-1.5 1.5-1.6 4 0 5.5 0.8 0.8 1.8 1.2 2.8 1.2s2-0.4 2.8-1.1L62.9 42C61.6 39.8 59.7 37.8 57.4 36.5z"/><path class="st1" d="M74.5 50c0-13.8-11.2-25-25-25s-25 11.2-25 25 11.2 25 25 25c5.2 0 10-1.6 14.1-4.3l4.3 4.3h6.6v-6.6l-4.3-4.3C72.9 60 74.5 55.2 74.5 50zM65.1 50c0 8.6-7 15.6-15.6 15.6s-15.6-7-15.6-15.6 7-15.6 15.6-15.6c2.9 0 5.6 0.8 7.9 2.2 0 0 3.9-3.7 4.2-3.8 2.1 1.4 3.8 3.2 5.3 5.3 -0.2 0.3-3.9 4.1-3.9 4.1C64.3 44.3 65.1 47.1 65.1 50z"/></svg>