<svg xmlns="http://www.w3.org/2000/svg" viewBox="0 0 100 100"><style type="text/css">  
	.st0{fill:#FFFFFF;}
	.st1{fill:#EF6F2E;}
</style><rect class="st0" width="100" height="100"/><path class="st1" d="M100 100H0V0h100V100zM9.7 90h80.7V10H9.7"/><path class="st1" d="M21 26.4v47.1h58V26.4H21zM31.9 69.9h-7.2v-7.2h7.2V69.9zM31.9 59.1h-7.2v-7.2h7.2V59.1zM31.9 48.2h-7.2v-7.2h7.2V48.2zM31.9 37.3h-7.2v-7.2h7.2V37.3zM42.8 62.7V37.3L60.9 50 42.8 62.7zM75.4 69.9h-7.2v-7.2h7.2V69.9zM75.4 59.1h-7.2v-7.2h7.2V59.1zM75.4 48.2h-7.2v-7.2h7.2V48.2zM75.4 37.3h-7.2v-7.2h7.2V37.3z"/></svg>