<svg xmlns="http://www.w3.org/2000/svg" viewBox="0 0 100 100"><style type="text/css">  
	.st0{fill:#FFFFFF;}
	.st1{fill:#307065;}
</style><rect class="st0" width="100" height="100"/><path class="st1" d="M100 100H0V0h100V100zM9.7 90h80.7V10H9.7"/><path class="st1" d="M23.5 31.2l30.5-5.9v51.2L23.5 71 23.5 31.2z"/><path class="st1" d="M75.3 71.6H49.4c-1.3 0-2.3-1-2.3-2.3V32.8c0-1.3 1-2.3 2.3-2.3h25.9c1.3 0 2.3 1 2.3 2.3v36.5C77.6 70.6 76.5 71.6 75.3 71.6zM49.4 32.7c-0.1 0-0.3 0.1-0.3 0.3v36.5c0 0.1 0.1 0.3 0.3 0.3h25.9c0.1 0 0.3-0.1 0.3-0.3V32.8c0-0.1-0.1-0.3-0.3-0.3C75.3 32.7 49.4 32.7 49.4 32.7z"/><path class="st1" d="M71.5 52.9h-3.4v-12H52.2v-3.4h19.3V52.9z"/><path class="st1" d="M53.9 59.5l6.6-6.6 6.6 6.6L60.5 66 53.9 59.5z"/><path class="st0" d="M42.5 43.3c-0.6-0.6-1.1-0.9-2-1.1 -0.7-0.3-1.7-0.1-2.6-0.1 -1.7 0-4.7 0.3-4.7 0.3L33 58.9l3.1 0.3v-5.9c0 0 1.9 0.3 3.4-0.1 0.9-0.3 1.7-0.7 2.1-1.1 0.6-0.6 1-1.1 1.3-1.7 0.4-0.9 0.6-1.7 0.6-3C43.9 45.7 43.5 44.3 42.5 43.3zM40.1 49c-0.6 1.3-2.1 1.3-2.1 1.3h-1.7V45c0 0 1.1-0.1 2 0 0.4 0.1 0.9 0.3 1.1 0.4C40.2 46.1 40.6 47.9 40.1 49z"/></svg>