<svg xmlns="http://www.w3.org/2000/svg" viewBox="0 0 100 100"><style type="text/css">  
	.st0{fill:#FFFFFF;}
	.st1{fill:#FF141F;}
	.st2{fill:#FF141F;stroke:#FF141F;stroke-width:1.5;stroke-miterlimit:10;}
	.st3{fill:#FF141F;stroke:#FF141F;stroke-miterlimit:10;}
</style><rect class="st0" width="100" height="100"/><path class="st1" d="M100 100H0V0h100V100zM9.7 90h80.7V10H9.7"/><path class="st2" d="M78.6 39.7H35.9v-9.3h-3v9.3H21.4c-0.8 0-1.4 0.7-1.4 1.4v25c0 0.8 0.7 1.4 1.4 1.4h57.1c0.8 0 1.4-0.7 1.4-1.4v-25C80 40.4 79.3 39.7 78.6 39.7zM77.1 64.7H23v-22h54.1V64.7z"/><path class="st3" d="M43 59.5h3c0.8 0 1.4-0.7 1.4-1.4 0-0.8-0.7-1.4-1.4-1.4h-3c-0.8 0-1.4 0.7-1.4 1.4C41.5 58.8 42.2 59.5 43 59.5zM51.2 59.5h3c0.8 0 1.4-0.7 1.4-1.4 0-0.8-0.7-1.4-1.4-1.4h-3c-0.8 0-1.4 0.7-1.4 1.4C49.8 58.8 50.4 59.5 51.2 59.5zM30.8 59.5h3v-3.5h3.7v-3h-3.7v-3.5h-3v3.5h-3.5v3h3.5L30.8 59.5z"/><circle class="st3" cx="61.9" cy="56.3" r="2.7"/><circle class="st3" cx="70.2" cy="56.3" r="2.7"/></svg>