<svg xmlns="http://www.w3.org/2000/svg" viewBox="0 0 100 100"><style>.st3{fill:#ff141f;stroke:#ff141f;stroke-miterlimit:10}</style><path fill="#fff" d="M0 0h100v100H0z"/><path d="M100 100H0V0h100v100zM9.7 90h80.7V10H9.7" fill="#ff141f"/><path d="M78.6 39.7H35.9v-9.3h-3v9.3H21.4c-.8 0-1.4.7-1.4 1.4v25c0 .8.7 1.4 1.4 1.4h57.1c.8 0 1.4-.7 1.4-1.4v-25c.1-.7-.6-1.4-1.3-1.4zm-1.5 25H23v-22h54.1v22z" fill="#ff141f" stroke="#ff141f" stroke-width="1.5" stroke-miterlimit="10"/><path class="st3" d="M43 59.5h3c.8 0 1.4-.7 1.4-1.4 0-.8-.7-1.4-1.4-1.4h-3c-.8 0-1.4.7-1.4 1.4-.1.7.6 1.4 1.4 1.4zm8.2 0h3c.8 0 1.4-.7 1.4-1.4 0-.8-.7-1.4-1.4-1.4h-3c-.8 0-1.4.7-1.4 1.4s.6 1.4 1.4 1.4zm-20.4 0h3V56h3.7v-3h-3.7v-3.5h-3V53h-3.5v3h3.5v3.5z"/><circle class="st3" cx="61.9" cy="56.3" r="2.7"/><circle class="st3" cx="70.2" cy="56.3" r="2.7"/></svg>