<svg xmlns="http://www.w3.org/2000/svg" viewBox="0 0 100 100"><style type="text/css">  
	.st0{fill:#FFFFFF;}
	.st1{fill:#999999;}
	.st2{fill:#999999;stroke:#999999;stroke-miterlimit:10;}
	.st3{fill:#999999;stroke:#FFFFFF;stroke-width:3;stroke-miterlimit:10;}
</style><rect class="st0" width="100" height="100"/><path class="st1" d="M100 100H0V0h100V100zM9.7 90h80.7V10H9.7"/><polyline class="st2" points="79.2 26.5 79.2 32.1 21.2 32.1 21.2 26.5 "/><polyline class="st2" points="78.8 39.9 78.8 45.5 20.8 45.5 20.8 39.9 "/><polyline class="st2" points="78.8 53.9 78.8 59.5 20.8 59.5 20.8 53.9 "/><polyline class="st2" points="78.8 67.9 78.8 73.5 20.8 73.5 20.8 67.9 "/><path class="st3" d="M41.8 44.6v-2.4c0.7-0.2 1.6-0.6 2.9-0.9 1.1-0.3 2.4-0.6 3.8-0.8 1.4-0.2 2.6-0.5 3.9-0.6 1.3-0.1 2.4-0.2 3.4-0.2l1.3 0.8 -6.4 30.3h4.9v2.5c-0.6 0.5-1.4 0.8-2.2 1.3 -0.8 0.3-1.7 0.7-2.6 1 -0.9 0.3-1.8 0.6-2.7 0.7 -0.9 0.1-1.8 0.2-2.6 0.2 -1.8 0-3-0.3-3.7-1 -0.7-0.7-1-1.5-1-2.3 0-0.9 0.1-1.8 0.2-2.7 0.1-0.9 0.3-1.8 0.6-3l4.8-21.9L41.8 44.6zM47.8 28.7c0-1.6 0.6-2.9 1.6-3.8s2.4-1.4 4.1-1.4c1.8 0 3.2 0.5 4.2 1.4 1 0.9 1.6 2.2 1.6 3.8 0 1.5-0.6 2.7-1.6 3.5 -1 0.9-2.5 1.4-4.2 1.4 -1.6 0-3-0.5-4.1-1.4C48.3 31.4 47.8 30.3 47.8 28.7z"/></svg>