<?xml version="1.0" encoding="utf-8"?>
<!-- Generator: Adobe Illustrator 22.1.0, SVG Export Plug-In . SVG Version: 6.00 Build 0)  -->
<svg version="1.1" id="Layer_1" xmlns="http://www.w3.org/2000/svg" xmlns:xlink="http://www.w3.org/1999/xlink" x="0px" y="0px"
	 viewBox="0 0 100 100" style="enable-background:new 0 0 100 100;" xml:space="preserve">
<style type="text/css">
	.st0{fill:#FFFFFF;}
	.st1{fill:#A03537;}
	.st2{fill:#FFFFFF;stroke:#FFFFFF;stroke-width:0.75;stroke-miterlimit:10;}
</style>
<rect class="st0" width="100" height="100"/>
<path class="st1" d="M100,100H0V0h100V100z M9.7,90h80.7V10H9.7"/>
<path class="st1" d="M48.8,75.4c-6.5-0.3-12.3-2.3-15.4-5.4c-0.9-0.9-1.8-2.1-2.2-2.9l-0.3-0.5v-6.1c0-6,0-6.1,0.1-5.6
	c0.3,1.3,1.1,2.7,2.3,3.7c0.8,0.7,2.5,1.8,3.8,2.5c2.4,1.2,5.2,2,8.4,2.5c1.9,0.3,2.6,0.3,5.3,0.3s3.4,0,5.3-0.3
	c3.1-0.5,6-1.3,8.3-2.5c1.4-0.7,3-1.7,3.8-2.5c1.1-1,2-2.5,2.3-3.8c0.1-0.5,0.1-0.4,0.1,5.5v6l-0.3,0.6c-1,1.9-2.6,3.6-4.7,4.8
	C61.4,74.4,55.1,75.7,48.8,75.4z M48.8,60.4c-5.7-0.3-11-1.9-14.3-4.4c-0.7-0.6-1.8-1.6-2.3-2.2c-0.4-0.6-0.8-1.2-1.1-1.8l-0.3-0.5
	v-6c0-5.9,0-6,0.1-5.5c0.2,0.9,0.7,2,1.5,2.9c0.4,0.5,1.1,1.2,1.5,1.4c0.1,0.1,0.5,0.3,0.7,0.5c2.7,1.9,6.5,3.3,10.8,3.9
	C47.3,49,48,49,50.7,49s3.4,0,5.3-0.3c3.1-0.5,6-1.3,8.4-2.5c1.4-0.7,3-1.8,3.9-2.5c1.1-1,2-2.4,2.2-3.7c0.1-0.5,0.1-0.4,0.1,5.5
	v5.9l-0.4,0.8c-0.7,1.2-1.1,1.8-1.9,2.7c-0.8,0.8-1.6,1.5-2.7,2.1C61.4,59.4,55.1,60.7,48.8,60.4L48.8,60.4z M48.5,45.3
	c-3.8-0.3-6.8-0.9-9.6-2c-3.4-1.3-5.8-3.1-7.1-5.2c-0.3-0.4-0.5-1-0.7-1.6s-0.2-2-0.1-2.7c0.9-4.3,6.6-7.9,14.5-9
	c1.9-0.3,2.6-0.3,5.3-0.3s3.4,0,5.3,0.3c3.1,0.5,6,1.3,8.4,2.5c3.5,1.7,5.6,4,6.1,6.5c0.1,0.7,0.1,2.1-0.1,2.7c-0.4,1.3-1,2.2-2,3.2
	c-2.8,2.9-7.9,4.9-14.1,5.6C53.5,45.3,49.3,45.4,48.5,45.3z"/>
<path class="st2" d="M41.6,31.9c0.6,0,1.4,0,2,0c3,0.2,5.4,1,7.7,1.9c4.4-2,10.9-0.4,14.8,1.1c-5-0.5-11.1,0-14.6,2
	c-3.5-2.8-10.2-3.6-16.4-2.8C36.9,32.9,39,32.3,41.6,31.9z"/>
</svg>
