<svg xmlns="http://www.w3.org/2000/svg" viewBox="0 0 100 100"><style type="text/css">  
	.st0{fill:#FFFFFF;}
	.st1{fill:#1F7244;}
</style><rect class="st0" width="100" height="100"/><path class="st1" d="M100 100H0V0h100V100zM9.7 90h80.7V10H9.7"/><rect x="62.4" y="34" class="st1" width="14.1" height="9.4"/><rect x="62.4" y="48.5" class="st1" width="14.1" height="9.4"/><rect x="62.4" y="62.8" class="st1" width="14.1" height="9.4"/><rect x="43.3" y="62.8" class="st1" width="14.1" height="9.4"/><rect x="24.2" y="62.8" class="st1" width="14.1" height="9.4"/><path class="st1" d="M48.8 27.8h2c3 0.2 5.3 0.9 7.6 1.9 4.4-2 10.6-0.5 14.6 1 -5-0.5-10.9 0-14.3 2 -3.5-2.8-10-3.6-16.1-2.8C44.3 28.7 46.4 28 48.8 27.8z"/><path class="st1" d="M47.5 35.3c-3.6 0.2-6.5 1.4-8.4 3 -5.9-2.7-16.1-1.5-19.9 2.1 -0.3 0.2-0.7 0.5-0.6 0.8 3.4-1 7.4-1.9 11.6-1.5 4.2 0.3 7.3 1.7 9.6 3.6 4.3-3.8 10.6-6 18.6-5.9C55.6 36.1 51.5 35.1 47.5 35.3z"/><rect x="43.4" y="48.6" class="st1" width="14.1" height="9.4"/><rect x="24.3" y="48.6" class="st1" width="14.1" height="9.4"/></svg>