<svg xmlns="http://www.w3.org/2000/svg" viewBox="0 0 100 100"><style type="text/css">  
	.st0{fill:#FFFFFF;}
	.st1{fill:#1D6FB5;}
</style><rect class="st0" width="100" height="100"/><path class="st1" d="M100 100H0V0h100V100zM9.7 90h80.7V10H9.7"/><path class="st1" d="M37.8 46.5c-2.2 0.3-3.9 2.6-3.9 5 0 2.4 1.7 4.9 3.9 5 2.2 0.3 3.9-2 3.9-5C41.7 48.5 39.9 46.2 37.8 46.5z"/><path class="st1" d="M22.7 31.8v39.8l31.1 5.6V25.8L22.7 31.8zM37.8 59.7c-3.5-0.4-6.2-4.2-6.2-8.2 0-4.2 2.7-7.8 6.2-8.2 3.5-0.4 6.2 3.3 6.2 8.2C44 56.5 41.2 60.1 37.8 59.7zM78.3 37.8L61.2 52.1l-4.6-3.7V36.5h21.7V37.8z"/><path class="st1" d="M78.3 40.6L61.2 54.8l-4.6-3.7v16h21.7V40.6z"/></svg>