<svg xmlns="http://www.w3.org/2000/svg" viewBox="0 0 100 100"><style type="text/css">  
	.st0{fill:#FFFFFF;}
	.st1{fill:#36454D;}
	.st2{enable-background:new    ;}
	.st3{fill:#7291A1;}
</style><rect class="st0" width="100" height="100"/><path class="st1" d="M100 100H0V0h100V100zM9.7 90h80.7V10H9.7"/><g class="st2"><path class="st3" d="M40.4 56.2H28.7l-1.4 3.1c-0.5 1-0.7 1.9-0.7 2.6 0 0.9 0.4 1.6 1.1 2 0.4 0.3 1.5 0.4 3.2 0.6v0.9H20v-0.9c1.2-0.2 2.2-0.6 2.9-1.4 0.8-0.8 1.7-2.4 2.8-4.8l11.8-25.6h0.5L50 58.9c1.1 2.5 2.1 4.1 2.8 4.7 0.6 0.5 1.3 0.8 2.3 0.9v0.9h-16v-0.9h0.7c1.3 0 2.2-0.2 2.7-0.5 0.4-0.3 0.5-0.6 0.5-1.1 0-0.3 0-0.6-0.1-0.9 0-0.1-0.3-0.7-0.7-1.8L40.4 56.2zM39.6 54.4l-4.9-11 -5.1 11H39.6z"/></g><g class="st2"><path class="st1" d="M80 44.2l-4.7 15.7 -0.5 1.9c0 0.2-0.1 0.4-0.1 0.5 0 0.2 0.1 0.4 0.2 0.5C75 63 75.2 63 75.3 63c0.3 0 0.8-0.3 1.4-0.8 0.2-0.2 0.8-0.9 1.8-2.2l0.9 0.4c-1.2 2-2.4 3.5-3.7 4.5 -1.3 0.9-2.7 1.4-4.2 1.4 -0.9 0-1.6-0.2-2.1-0.7 -0.5-0.5-0.7-1-0.7-1.8 0-0.6 0.3-1.8 0.8-3.4l0.6-1.9c-1.9 3.1-3.7 5.4-5.4 6.7 -1 0.8-2.1 1.1-3.2 1.1 -1.5 0-2.6-0.6-3.2-1.8 -0.7-1.2-1-2.5-1-4 0-2.2 0.7-4.8 2.1-7.6 1.4-2.9 3.2-5.2 5.5-6.9 1.9-1.4 3.6-2.2 5.3-2.2 0.9 0 1.6 0.3 2.2 0.8 0.6 0.5 1 1.4 1.2 2.8l0.9-2.9L80 44.2zM72.2 48.7c0-1.3-0.2-2.2-0.6-2.8 -0.3-0.4-0.7-0.6-1.2-0.6s-1 0.2-1.6 0.7c-1.1 1-2.3 3-3.5 5.9 -1.3 3-1.9 5.6-1.9 7.7 0 0.8 0.1 1.4 0.4 1.8 0.3 0.4 0.6 0.6 0.9 0.6 0.7 0 1.5-0.4 2.2-1.2 1.1-1.2 2-2.6 2.9-4.3C71.4 53.6 72.2 51 72.2 48.7z"/></g></svg>