<svg xmlns="http://www.w3.org/2000/svg" viewBox="0 0 100 100"><style type="text/css">  
	.st0{fill:#FFFFFF;}
	.st1{fill:#1A75CE;}
	.st2{fill:#1A75CE;stroke:#1A75CE;stroke-width:0.25;stroke-miterlimit:10;}
	.st3{fill:#1A75CE;fill-opacity:0;stroke:#1A75CE;stroke-width:0.25;stroke-linejoin:round;stroke-miterlimit:1;}
</style><rect class="st0" width="100" height="100"/><path class="st1" d="M100 100H0V0h100V100zM9.7 90h80.7V10H9.7"/><path class="st2" d="M78.9 72l-0.1 0.8 -0.1 1.1 -56.5-0.1 -0.7-0.1 -0.3-0.4L21 72.7l0.1-0.4 0.5-0.4h57.2V72z"/><path class="st3" d="M78.9 72l-0.1 0.8 -0.1 1.1 -56.5-0.1 -0.7-0.1 -0.3-0.4L21 72.7l0.1-0.4 0.5-0.4h57.2V72z"/><path class="st2" d="M25.2 65.7l2.1 2.2 -2.7 1.9 -1.4 0.8h-0.5l-0.3-0.5 1-1.4L25.2 65.7z"/><path class="st3" d="M25.2 65.7l2.1 2.2 -2.7 1.9 -1.4 0.8h-0.5l-0.3-0.5 1-1.4L25.2 65.7z"/><path class="st2" d="M43.4 44.9l4.5 4.7 -4 4 -4.4 4 -4.4 3.8 -3.4 3L28 66.9l-2.2-2.2 2.1-3 2.9-3.4 2.2-2.6 2.9-3 3.6-3.8C39.4 48.8 43.4 44.9 43.4 44.9z"/><path class="st3" d="M43.4 44.9l4.5 4.7 -4 4 -4.4 4 -4.4 3.8 -3.4 3L28 66.9l-2.2-2.2 2.1-3 2.9-3.4 2.2-2.6 2.9-3 3.6-3.8C39.4 48.8 43.4 44.9 43.4 44.9z"/><path class="st2" d="M64.2 26.1l1.1 0.1 0.7 0.5 0.5 1V29l-0.4 1.1 -0.5 0.8v1l0.4 0.5 0.1 0.7 -0.1 1 -9.2 9.9 -2.6 2.7 -1 1.2 -0.1 0.5 0.1 0.7 -0.5 0.7 -1-0.4 -0.3-1 0.1-1 0.5-0.8 6.4-6.8 5.5-6 0.1-0.7L63.5 33l-3.8 4.2 -6.3 6.6 -4.5 4.7 -4.7-4.2 5.2-5.5 5.9-5.7 5.5-5.1 1.4-1 1-0.5h1.1L64.2 26.1z"/><path class="st3" d="M64.2 26.1l1.1 0.1 0.7 0.5 0.5 1V29l-0.4 1.1 -0.5 0.8v1l0.4 0.5 0.1 0.7 -0.1 1 -9.2 9.9 -2.6 2.7 -1 1.2 -0.1 0.5 0.1 0.7 -0.5 0.7 -1-0.4 -0.3-1 0.1-1 0.5-0.8 6.4-6.8 5.5-6 0.1-0.7L63.5 33l-3.8 4.2 -6.3 6.6 -4.5 4.7 -4.7-4.2 5.2-5.5 5.9-5.7 5.5-5.1 1.4-1 1-0.5h1.1L64.2 26.1z"/></svg>