<svg xmlns="http://www.w3.org/2000/svg" viewBox="0 0 100 100"><style type="text/css">  
	.st0{fill:#FFFFFF;}
	.st1{fill:#BABABA;}
</style><rect class="st0" width="100" height="100"/><path class="st1" d="M100 100H0V0h100V100zM9.7 90h80.7V10H9.7"/><path class="st1" d="M75.6 41c-0.7-0.1-1.2-0.3-1.9-0.1 -1.5 0.1-3.1 0.9-4.6 1.2 -1.1 0.1-2-0.7-2.1-1.9 -0.3-3.5-0.3-7.1 0-10.6 0-0.5-0.4-0.8-0.8-0.8 -4-0.1-7.9 0.3-12.1 1.2 -1.1 0.3-1.9 1.2-1.9 2.1 0.1 2.1 1.6 4.6 0.9 6.8 -0.5 2-2.1 3.5-4.3 3.9 -2 0.4-4.2-0.5-5.2-2.1 -1.3-1.9-0.7-4.6-1.2-6.8 -0.3-1.1-1.3-1.6-2.4-1.5 -4 0.4-7.9 1.3-11.7 2.8 -0.5 0.1-0.8 0.7-0.5 1.1 1.5 3.2 2.5 6.6 3.5 10.1 0.3 1.1-0.4 2.1-1.5 2.4 -1.5 0.4-3.2 0.1-4.7 0.5 -0.7 0.1-1.2 0.4-1.7 0.8 -1.9 1.2-2.7 3.2-2.4 5.2 0.3 1.9 1.7 3.5 3.5 4.3 2.3 0.8 4.3-0.7 6.6-0.8 1.1-0.1 2 0.7 2.1 1.9 0.3 3.5 0.3 7.1 0 10.6 0 0.5 0.4 0.8 0.8 0.8 4 0.3 8-0.3 12.1-1.2 1.1-0.3 1.9-1.2 1.9-2.1 -0.1-2.3-1.7-4.6-1.1-7 0.5-1.9 2.4-3.5 4.3-3.8 1.9-0.3 4.2 0.5 5.2 2.1 1.5 1.9 0.7 4.7 1.2 7 0.3 1.1 1.3 1.6 2.4 1.5 4-0.4 8-1.2 11.7-2.8 0.5-0.1 0.8-0.7 0.5-1.1 -1.5-3.2-2.5-6.6-3.5-10.1 -0.3-1.1 0.4-2.1 1.5-2.4 2.1-0.5 4.6 0.1 6.6-1.3 1.5-1.2 2.4-3.2 2-5.1C79 43.3 77.4 41.6 75.6 41L75.6 41z"/></svg>