<svg xmlns="http://www.w3.org/2000/svg" viewBox="0 0 100 100"><style type="text/css">  
	.st0{fill:#FFFFFF;}
	.st1{fill:#C11E07;}
	.st2{fill:#C11E07;stroke:#C11E07;stroke-width:1.25;stroke-miterlimit:10;}
</style><rect class="st0" width="100" height="100"/><path class="st1" d="M100 100H0V0h100V100zM9.7 90h80.7V10H9.7"/><path class="st2" d="M46.2 21.8c-3.5 0-6.3 2.9-6.3 6.3 0 4.3 2.4 9.6 4.9 14.7 -2 6.1-4.1 12.7-7 18.2 -5.8 2.3-11 4-14 6.6l-0.2 0.2c-1.1 1.2-1.8 2.7-1.8 4.4 0 3.5 2.9 6.3 6.3 6.3 1.7 0 3.4-0.6 4.4-1.8 0 0 0.2 0 0.2-0.2 2.3-2.7 5-7.8 7.5-12.2 5.5-2.1 11.5-4.4 16.9-5.8 4.1 3.4 10.1 5.5 15 5.5 3.5 0 6.3-2.9 6.3-6.3 0-3.5-2.9-6.3-6.3-6.3 -4 0-9.6 1.4-13.9 2.9 -3.5-3.4-6.7-7.5-9.2-11.9C50.6 37 52.6 32 52.6 28 52.4 24.5 49.7 21.8 46.2 21.8L46.2 21.8zM46.2 25.4c1.4 0 2.4 1.1 2.4 2.4 0 1.8-1.1 5.3-2.1 9 -1.5-3.7-2.9-7.2-2.9-9C43.7 26.6 44.8 25.4 46.2 25.4zM47.3 46.9c1.8 3.1 4.1 5.8 6.6 8.2 -3.7 1.1-7.3 2.3-11 3.7C44.7 55 46 50.9 47.3 46.9L47.3 46.9zM72 55c1.4 0 2.4 1.1 2.4 2.4 0 1.4-1.1 2.4-2.4 2.4 -2.9 0-6.9-1.2-10.1-3.1C65.6 56 69.7 55 72 55L72 55zM34.6 66.2c-1.8 3.2-3.5 6.1-4.7 7.6 -0.5 0.5-0.9 0.6-1.7 0.6 -1.4 0-2.4-1.1-2.4-2.4 0-0.6 0.3-1.4 0.6-1.7C27.7 69.1 30.9 67.7 34.6 66.2L34.6 66.2z"/></svg>
