<svg xmlns="http://www.w3.org/2000/svg" viewBox="0 0 100 100"><style type="text/css">  
	.st0{fill:#FFFFFF;}
	.st1{fill:#669966;}
</style><rect class="st0" width="100" height="100"/><path class="st1" d="M100 100H0V0h100V100zM9.7 90h80.7V10H9.7"/><path class="st1" d="M67.7 46.1h-3.5v-7C64.1 31.3 57.8 25 50 25s-14.1 6.3-14.1 14.1v7h-3.5c-1.4 0-2.5 1.1-2.5 2.5v24c0 1.4 1.1 2.5 2.5 2.5h35.3c1.4 0 2.5-1.1 2.5-2.5v-24C70.1 47.2 69 46.1 67.7 46.1zM53.1 66c0.2 0.8-0.4 1.6-1.2 1.6h-3.7c-0.8 0-1.4-0.8-1.2-1.6l1.2-4.5c-1.4-0.7-2.3-2.1-2.3-3.8 0-2.4 1.9-4.3 4.3-4.3s4.3 1.9 4.3 4.3c0 1.7-0.9 3.1-2.3 3.8L53.1 66zM57.1 46.1H42.9v-7c0-3.9 3.2-7.1 7.1-7.1s7.1 3.2 7.1 7.1L57.1 46.1 57.1 46.1z"/></svg>