<svg xmlns="http://www.w3.org/2000/svg" viewBox="0 0 100 100"><style type="text/css">  
	.st0{fill:#FFFFFF;}
	.st1{fill:#6781B2;}
</style><rect class="st0" width="100" height="100"/><path class="st1" d="M100 100H0V0h100V100zM9.7 90h80.7V10H9.7"/><polygon class="st1" points="77 34.3 50 23.5 39.3 27.8 66.3 38.6 "/><polygon class="st1" points="32.6 30.5 23 34.3 50 45.1 59.6 41.3 "/><polygon class="st1" points="21.9 65.6 49.2 76.5 49.2 46.5 21.9 35.6 "/><polygon class="st1" points="67.4 39.8 67.4 48.3 66.3 47.6 65.2 49.2 64 48.5 62.9 50.1 61.8 49.4 60.7 51 60.7 42.5 50.8 46.5 50.8 76.5 78.1 65.6 78.1 35.6 "/><path class="st0" d="M28.1 53.4c0.6 0.2 1.1 0.3 1.4 0.2 0.3-0.1 0.7-0.4 1-0.9 0.3-0.5 0.4-0.8 0.3-1 -0.1-0.3-0.4-0.5-1-0.7l-0.9-0.4 -1.6 2.5C27.3 53.2 28.1 53.4 28.1 53.4zM23.8 55.6c0 0-0.1-0.1-0.1-0.1 0 0 0-0.1 0-0.1l4.1-6.7c0-0.1 0.1-0.1 0.2-0.1l3 1.1c0.9 0.4 1.5 0.9 1.8 1.6 0.3 0.7 0.1 1.5-0.4 2.3 -0.2 0.3-0.5 0.6-0.7 0.9 -0.3 0.2-0.6 0.4-1 0.6 -0.4 0.2-0.9 0.3-1.3 0.2s-1-0.1-1.6-0.4l-1.2-0.5 -1.1 1.7c0 0.1-0.1 0.1-0.2 0.1L23.8 55.6 23.8 55.6z"/><path class="st0" d="M35.7 58c0 0-0.1-0.1-0.1-0.1 0 0 0-0.1 0-0.1l1.8-3c0.2-0.3 0.2-0.5 0.2-0.6 0-0.1-0.1-0.2-0.6-0.4L36 53.3l-2.3 3.7c0 0.1-0.1 0.1-0.2 0.1L32 56.5c0 0-0.1-0.1-0.1-0.1 0 0 0-0.1 0-0.1l4.1-6.7c0-0.1 0.1-0.1 0.2-0.1l1.5 0.6c0 0 0.1 0.1 0.1 0.1 0 0 0 0.1 0 0.1l-1 1.6 1.2 0.4c0.9 0.3 1.4 0.7 1.7 1.2 0.2 0.5 0.2 1.1-0.3 1.8l-1.9 3.1c0 0.1-0.1 0.1-0.2 0.1L35.7 58 35.7 58z"/><path class="st0" d="M42.1 58.8c0.6 0.2 1.1 0.3 1.5 0.2 0.4-0.1 0.7-0.4 1-0.9 0.3-0.5 0.4-0.8 0.3-1s-0.4-0.5-1-0.7L43 56l-1.6 2.5L42.1 58.8zM37.7 61c0 0-0.1-0.1-0.1-0.1 0 0 0-0.1 0-0.1l4.2-6.7c0-0.1 0.1-0.1 0.2-0.1l3.1 1.2c1 0.4 1.6 0.9 1.8 1.6 0.3 0.7 0.1 1.5-0.4 2.3 -0.2 0.3-0.5 0.6-0.7 0.9 -0.3 0.2-0.6 0.4-1 0.6 -0.4 0.2-0.9 0.2-1.4 0.2 -0.4 0-1-0.2-1.6-0.4l-1.2-0.5 -1.1 1.7c0 0.1-0.1 0.1-0.2 0.1L37.7 61 37.7 61z"/></svg>