<svg xmlns="http://www.w3.org/2000/svg" viewBox="0 0 100 100"><style>.a{fill:#6781B2;}</style><rect width="100" height="100" fill="#FFF"/><path d="M100 100H0V0h100V100zM9.7 90h80.7V10H9.7" class="a"/><path d="M27.3 54.7c1.8 0 3.2-0.3 4-1 0.8-0.7 1.4-1.8 1.7-3.4 0.3-1.5 0.2-2.5-0.3-3.1 -0.5-0.6-1.6-0.9-3.3-0.9h-2.9l-1.6 8.4H27.3zM17.8 65c-0.1 0-0.3-0.1-0.3-0.2 -0.1-0.1-0.1-0.2-0.1-0.4l4.2-22.2c0-0.2 0.2-0.4 0.4-0.4h9.2c2.9 0 5 0.8 6.4 2.4 1.4 1.6 1.8 3.8 1.2 6.5 -0.2 1.1-0.6 2.2-1.1 3.1 -0.5 0.9-1.2 1.8-2 2.6 -1 0.9-2.1 1.6-3.3 2 -1.2 0.4-2.7 0.6-4.6 0.6h-3.7L23 64.6c0 0.2-0.2 0.4-0.4 0.4L17.8 65 17.8 65z" class="a"/><path d="M52.3 59.1c-0.1 0-0.3-0.1-0.3-0.2 -0.1-0.1-0.1-0.2-0.1-0.4l1.9-9.8c0.2-0.9 0.1-1.6-0.1-1.9 -0.2-0.2-0.6-0.5-2-0.5h-3.4l-2.3 12.3c0 0.2-0.2 0.4-0.4 0.4h-4.7c-0.1 0-0.3-0.1-0.3-0.2 -0.1-0.1-0.1-0.2-0.1-0.4l4.2-22.2c0-0.2 0.2-0.4 0.4-0.4h4.7c0.1 0 0.3 0.1 0.3 0.2 0.1 0.1 0.1 0.2 0.1 0.4l-1 5.4h3.6c2.8 0 4.6 0.5 5.7 1.5 1.1 1 1.5 2.7 1 5l-1.9 10.3c0 0.2-0.2 0.4-0.4 0.4H52.3L52.3 59.1z" class="a"/><path d="M70.4 54.7c1.9 0 3.3-0.3 4.2-1 0.9-0.7 1.5-1.8 1.8-3.4 0.3-1.5 0.2-2.5-0.3-3.1 -0.5-0.6-1.7-0.9-3.4-0.9h-3L68 54.7H70.4zM60.6 65c-0.1 0-0.3-0.1-0.4-0.2 -0.1-0.1-0.1-0.2-0.1-0.4l4.4-22.2c0-0.2 0.2-0.4 0.5-0.4h9.5c3 0 5.2 0.8 6.6 2.4 1.4 1.6 1.8 3.8 1.3 6.5 -0.2 1.1-0.6 2.2-1.1 3.1 -0.5 0.9-1.2 1.8-2.1 2.6 -1 0.9-2.2 1.6-3.5 2 -1.2 0.4-2.8 0.6-4.8 0.6h-3.8L66 64.6c0 0.2-0.2 0.4-0.5 0.4L60.6 65 60.6 65z" class="a"/></svg>