<svg xmlns="http://www.w3.org/2000/svg" viewBox="0 0 100 100"><style type="text/css">  
	.st0{fill:#FFFFFF;}
	.st1{fill:#669966;}
</style><rect class="st0" width="100" height="100"/><path class="st1" d="M100 100H0V0h100V100zM9.7 90h80.7V10H9.7"/><path class="st1" d="M37.8 45.3h-3.3l-1.3 6.9h3c0 0 3.7 0.1 3.9-4.5C40.3 45.1 37.8 45.3 37.8 45.3z"/><path class="st1" d="M65.7 45.3h-3.3l-1.3 6.9h3c0 0 3.7 0.1 3.9-4.5C68.2 45.1 65.7 45.3 65.7 45.3z"/><path class="st1" d="M50 33.7C32.9 33.7 19 41 19 50s13.9 16.3 31 16.3S81 59 81 50C81 41 67.1 33.7 50 33.7zM36.1 54.7l-3.3 0L31.9 59h-3.5l3.2-16.3c0 0 4.5 0.1 7.5 0s5.9 2 4.5 6.8C41.9 55.2 36.1 54.7 36.1 54.7zM52 54.7c0 0 0.8-3.8 1.2-6.4 0.2-1.1 0.8-2.9-0.9-2.9 -1.5 0-3.7 0-3.7 0l-1.9 9.4h-3.5l3.3-16.4h3.6l-0.9 4.4h3.7c0 0 4.9-0.4 4.3 3.7 -0.6 4-1.7 8.4-1.7 8.4L52 54.7 52 54.7zM71.4 49.5c-1.6 5.7-7.4 5.2-7.4 5.2l-3.3 0L59.8 59h-3.5l3.2-16.3c0 0 4.5 0.1 7.5 0C69.9 42.7 72.8 44.8 71.4 49.5z"/></svg>