<svg xmlns="http://www.w3.org/2000/svg" viewBox="0 0 100 100"><style type="text/css">  
	.st0{fill:#FFFFFF;}
	.st1{fill:#666666;}
	.st2{fill:#EF712F;}
</style><rect class="st0" width="100" height="100"/><path class="st1" d="M100 100H0V0h100V100zM9.7 90h80.7V10H9.7"/><path class="st2" d="M72.3 25.5c0 0-19.4 0.3-31.9 16 -0.7 0.9-1.4 1.8-2 2.7 -0.4 0.5-0.8 5.9-0.8 5.9s-0.5-0.4-0.7-1c-0.4-0.8-0.5-1.8-0.5-1.8 -7 11.4-5 17.4-5 17.4 -0.5 1.4-1.7 2.1-3.1 5.2 -1.5 3.1-1.4 6.1-1.4 6.1 0 0.6 0.2 0.6 0.5 0.1 0 0 1.6-3 2.9-5.1 0.8-1.3 3.3-4.4 3.3-4.4s4 0.2 8.9-1.1c-0.4-0.2-1.8-0.5-2.7-1 -0.9-0.5-1.4-1.1-1.4-1.1l17.3-4c2.4-1.4 4.6-3.3 6.4-5.4 9.2-11 11.4-27.6 11.4-27.6C73.3 25.9 72.9 25.5 72.3 25.5zM55 42.9c0 0-8.1 7.1-12.1 11 -4 3.8-9.4 12.8-9.4 12.8l-2.1-2c0 0 1.5-3.7 7.4-10.9s15.9-11.5 15.9-11.5C55.9 41.6 56.1 41.9 55 42.9z"/></svg>