<svg xmlns="http://www.w3.org/2000/svg" viewBox="0 0 100 100"><style type="text/css">  
	.st0{fill:#FFFFFF;}
	.st1{fill:#CC9933;}
	.st2{fill:#CC9933;stroke:#CC9933;stroke-width:0.75;stroke-miterlimit:10;}
</style><rect class="st0" width="100" height="100"/><path class="st1" d="M100 100H0V0h100V100zM9.7 90h80.7V10H9.7"/><path class="st2" d="M50.1 54c-3.7-3.6-7-6.8-8.9-14.3h13.1v-5.4H41.3v-7.3h-5.7v7.4H22.5V40h13.4c0 0-0.1 1-0.3 1.9 -1.9 7.3-4 11.9-13.1 16.4l1.9 5.5c8.5-4.5 12.9-10.3 14.9-16.5 1.9 4.8 5.1 8.6 8.6 12.2L50.1 54zM67.4 36.2h-7.4L46.8 72.9h5.7l3.7-11h14.9l3.7 11h5.7C80.4 72.9 67.4 36.2 67.4 36.2zM58.1 56.4l5.7-14.6 5.7 14.7L58.1 56.4z"/></svg>