<svg xmlns="http://www.w3.org/2000/svg" viewBox="0 0 100 100"><style type="text/css">  
	.st0{fill:#FFFFFF;}
	.st1{fill:#999999;}
	.st2{fill:none;stroke:#999999;stroke-width:6;stroke-miterlimit:10;}
	.st3{fill:#999999;stroke:#999999;stroke-width:2;stroke-miterlimit:10;}
</style><rect class="st0" width="100" height="100"/><path class="st1" d="M100 100H0V0h100V100zM9.7 90h80.7V10H9.7"/><path class="st2" d="M54.6 30c6 0 12 0 18 0 3.6 0 4.6 1.2 3.8 4.7 -2.2 10.2-4.6 20.5-6.9 30.7 -0.7 3.2-2.4 4.6-5.9 4.6 -12 0-24 0-36 0 -3.9 0-5-1.3-4.1-5 2.3-10 4.6-20 6.9-30.1 0.9-3.8 2.2-4.9 6.1-4.9C42.6 30 48.6 30 54.6 30z"/><path class="st3" d="M47.9 49.9c-0.6-0.6-1-1.2-1.4-1.6 -2.3-2.5-4.3-4.9-6.6-7.3 -1-1.1-1.3-2.2-0.1-3.3 1.2-1.1 2.4-1 3.5 0.3 3.1 3.5 6.2 6.9 9.4 10.3 1.2 1.3 0.9 2.1-0.4 3.1 -5 3.6-9.9 7.3-14.9 10.9 -1.1 0.8-2.2 1-3.1-0.2 -1-1.3-0.1-2.1 1-2.9 3.7-2.7 7.3-5.4 11-8.1C46.8 50.8 47.5 50.2 47.9 49.9z"/><path class="st3" d="M51.5 62.1c-1 0-1.6-0.9-1.6-1.9 0-0.9 0.6-1.9 1.6-1.9 3.9 0 5.7 0 8.8 0 1 0 1.6 0.9 1.6 1.9 0 0.9-0.6 1.9-1.6 1.9C58.3 62.1 54.5 62.1 51.5 62.1z"/></svg>