<svg xmlns="http://www.w3.org/2000/svg" viewBox="0 0 100 100"><style type="text/css">  
	.st0{fill:#FFFFFF;}
	.st1{fill:#6190AA;}
	.st2{fill:#737373;}
	.st3{fill:#444444;}
	.st4{fill:#517889;}
</style><rect class="st0" width="100" height="100"/><path class="st1" d="M100 100H0V0h100V100zM9.7 90h80.7V10H9.7"/><polygon class="st2" points="52.5 21.2 32.3 32.9 32.3 56.3 52.5 68 72.8 56.3 72.8 32.9 "/><polygon class="st2" points="32.3 32.9 52.5 44.6 72.8 32.9 52.5 21.2 "/><polygon class="st2" points="32.3 56.3 52.5 68 72.8 56.3 52.5 44.6 "/><path class="st0" d="M31.7 57.4L51.9 69c0.2 0.1 0.4 0.2 0.6 0.2s0.4-0.1 0.6-0.2l20.3-11.7c0.4-0.2 0.6-0.6 0.6-1.1V32.9c0-0.4-0.2-0.8-0.6-1.1L53.1 20.2c-0.4-0.2-0.8-0.2-1.2 0L31.7 31.9c-0.4 0.2-0.6 0.6-0.6 1.1v23.4C31.1 56.7 31.3 57.1 31.7 57.4zM52.5 22.6l17.8 10.3L52.5 43.4l0 0 0 0 0 0 0 0L34.7 32.9 52.5 22.6M55 44.6L71.6 35v20.6l0 0 0 0 0 0 0 0L53.7 65.9V46.7v-1.4M33.5 54.2L33.5 54.2V35l16.6 9.6 1.2 0.7 0 0 0 0 0 0v1.4 19.2L33.5 55.6l0 0"/><polygon class="st0" points="37.2 53.7 26.6 59.8 26.6 72 37.2 78.2 47.8 72 47.8 59.8 "/><polygon class="st0" points="26.6 59.8 37.2 65.9 47.8 59.8 37.2 53.7 "/><polygon class="st0" points="26.6 72 37.2 78.2 47.8 72 37.2 65.9 "/><path class="st3" d="M26.3 72.6l10.6 6.1c0.1 0.1 0.2 0.1 0.3 0.1s0.2 0 0.3-0.1l10.6-6.1c0.2-0.1 0.3-0.3 0.3-0.5V59.8c0-0.2-0.1-0.4-0.3-0.5l-10.6-6.1c-0.2-0.1-0.4-0.1-0.6 0l-10.6 6.1c-0.2 0.1-0.3 0.3-0.3 0.5V72C26 72.2 26.1 72.5 26.3 72.6zM37.2 54.4l9.3 5.4 -9.3 5.5 0 0 0 0 0 0 0 0 -9.3-5.5L37.2 54.4M38.5 65.9l8.7-5v10.8l0 0 0 0 0 0 0 0L37.9 77V67v-0.7M27.3 70.9L27.3 70.9v-10l8.7 5 0.6 0.4 0 0 0 0 0 0V67v10l-9.3-5.4 0 0"/><polygon class="st4" points="49 63.7 42.1 67.7 42.1 75.6 49 79.6 55.9 75.6 55.9 67.7 "/><polygon class="st4" points="42.1 67.7 49 71.6 55.9 67.7 49 63.7 "/><polygon class="st4" points="42.1 75.6 49 79.6 55.9 75.6 49 71.6 "/><path class="st0" d="M41.9 76l6.9 4c0.1 0 0.1 0.1 0.2 0.1s0.1 0 0.2-0.1l6.9-4c0.1-0.1 0.2-0.2 0.2-0.4v-8c0-0.1-0.1-0.3-0.2-0.4l-6.9-4c-0.1-0.1-0.3-0.1-0.4 0l-6.9 4c-0.1 0.1-0.2 0.2-0.2 0.4v8C41.7 75.8 41.8 75.9 41.9 76zM49 64.2l6.1 3.5L49 71.2l0 0 0 0 0 0 0 0 -6.1-3.6L49 64.2M49.8 71.6l5.6-3.3v7l0 0 0 0 0 0 0 0 -6.1 3.5v-6.5 -0.5M42.5 74.9L42.5 74.9v-6.5l5.6 3.3 0.4 0.2 0 0 0 0 0 0v0.5 6.5l-6.1-3.5 0 0"/></svg>