<svg xmlns="http://www.w3.org/2000/svg" viewBox="0 0 100 100"><style type="text/css">  
	.st0{fill:#FFFFFF;}
	.st1{fill:#0033CC;}
	.st2{fill:#0033CC;stroke:#0033CC;stroke-width:3;stroke-miterlimit:10;}
</style><rect class="st0" width="100" height="100"/><path class="st1" d="M100 100H0V0h100V100zM9.7 90h80.7V10H9.7"/><path class="st2" d="M34.3 54.2c-1.6 0-3.2-0.2-4.4-0.4v19.1h-6.1v-44c3-1.5 7.2-2.4 11.4-2.4 10.8 0 15.7 5.7 15.7 13.8C50.9 48 45.9 54.2 34.3 54.2zM35.2 30.1c-2 0-4 0.4-5.4 0.9v19.1c1.2 0.2 2.8 0.3 4.4 0.3 8.1 0.1 10.8-4.4 10.8-10.3C44.9 34 42.1 30.1 35.2 30.1z"/><path class="st2" d="M66 73.5c-3.5 0-7.4-0.9-9.7-2.4l1.6-3.7c2.1 1.3 4.8 2 7.4 2 4.2 0 7-2.6 7-6.2 0-8.8-15.1-5.2-15.1-17 0-5.5 4.4-9.8 11-9.8 3.4 0 6.6 0.9 9 2.4l-1.5 3.4c-1.8-1.2-4.3-2-6.7-2 -4.1 0-6.1 2.5-6.1 5.6 0 8.2 15.3 4.8 15.3 17.1C78.2 68.8 73.3 73.5 66 73.5z"/></svg>