<svg xmlns="http://www.w3.org/2000/svg" viewBox="0 0 100 100"><style type="text/css">  
	.st0{fill:#FFFFFF;}
	.st1{fill:#077265;}
</style><rect class="st0" width="100" height="100"/><path class="st1" d="M100 100H0V0h100V100zM9.7 90h80.7V10H9.7"/><path class="st1" d="M43.4 45.6c0-3.9-1.9-5.7-4.9-5.7 -1.1 0-2 0.1-2.6 0.4v11.5c0.6 0.3 1.3 0.4 2.2 0.4C41.5 51.9 43.4 49.8 43.4 45.6z"/><path class="st1" d="M23.9 68.7l31.6 8V25.2l-31.6 8C23.9 33.3 23.9 68.7 23.9 68.7zM33.4 37.3c1.3-0.4 3-0.6 5-0.6 2.7 0 4.6 0.9 5.7 2.4 1.1 1.4 1.9 3.4 1.9 6.2s-0.6 4.9-1.6 6.3c-1.4 2.2-3.7 3.3-6.3 3.3 -0.9 0-1.6 0-2.2-0.3v11.8h-2.7V37.3H33.4zM58.2 31.7v3.2h10.6v8.9H58.2v3.3h10.6v3.9H58.2v3.2h10.6v4H58.2v3.4h10.6v4H58.2v6.6h17.9V31.7H58.2z"/></svg>