<svg xmlns="http://www.w3.org/2000/svg" viewBox="0 0 100 100"><style type="text/css">  
	.st0{fill:#FFFFFF;}
	.st1{fill:#666666;}
	.st2{fill:#FED142;}
	.st3{fill:#3571A3;}
</style><rect class="st0" width="100" height="100"/><path class="st1" d="M100 100H0V0h100V100zM9.7 90h80.7V10H9.7"/><path class="st2" d="M48.9 75.9c-6.3-0.2-10.2-2.1-11.2-5.4l-0.1-0.4 0-6.4c0-7.4 0-7.5 0.4-8.7 0.7-2.1 2.4-3.5 5-4.1l0.6-0.1 7.3 0c5.2 0 7.4 0 7.6-0.1 1.5-0.3 2.4-0.6 3.3-1.3 1.1-0.8 2-2.2 2.3-3.7 0.3-1.1 0.3-1 0.3-4.9l0-3.6H67h2.6l0.5 0.1c2.7 0.8 4.7 3.3 5.5 7.2 0.3 1.5 0.3 1.6 0.3 5.4 0 3.7 0 3.7-0.3 5 -0.3 1.2-0.6 2.2-1.1 3.2 -1 2-2.5 3.4-4.4 4 -1.1 0.4-0.2 0.3-10.7 0.4l-9.5 0v0.9 0.9l6.3 0 6.3 0 0 3.1c0 1.7 0 3.2 0 3.4 -0.1 0.4-0.2 0.9-0.5 1.4 -0.3 0.5-1.1 1.3-1.6 1.7 -1.7 1.1-4.3 1.8-7.7 2C51.7 75.9 50.1 75.9 48.9 75.9L48.9 75.9zM57.6 71.9c1.2-0.2 2.1-1.4 1.9-2.6 -0.2-1-0.9-1.7-1.9-1.9 -1.5-0.2-2.8 1.1-2.6 2.6 0.2 1.1 1.1 1.8 2.2 1.9C57.3 71.9 57.4 71.9 57.6 71.9L57.6 71.9zM30.6 62.7c-1.4-0.3-2.8-1.1-3.8-2.4 -1.9-2.3-2.8-6.2-2.7-11.1 0.1-3 0.5-5.3 1.5-7.2 1.2-2.5 3-3.9 5.4-4.4 0.5-0.1 0.6-0.1 9.8-0.1 5.1 0 9.3 0 9.4 0 0.1 0 0.1-0.1 0.1-0.9 0-0.5 0-0.9 0-0.9 0 0-2.8 0-6.3 0l-6.3 0 0-3.3c0-3.6 0-3.5 0.3-4.2 1.1-2.3 4.2-3.7 9.2-4.1 0.4 0 1.3-0.1 2.2-0.1 5.6-0.1 9.6 0.9 11.8 2.9 0.2 0.2 0.5 0.6 0.7 0.7 0.3 0.4 0.7 1.2 0.9 1.8l0.1 0.4v6.8c0 6.3 0 6.8-0.1 7.2 -0.1 0.6-0.4 1.4-0.6 1.8 -0.8 1.5-2.2 2.6-4.1 3.1 -1.2 0.3-0.7 0.3-8.7 0.4 -8 0-7.5 0-8.6 0.3 -2.2 0.6-3.8 2.3-4.4 4.7 -0.3 1.1-0.3 1-0.3 4.9l0 3.7 -2.4 0C31.5 62.8 30.8 62.8 30.6 62.7L30.6 62.7zM43.9 32.3c0.9-0.4 1.5-1.5 1.3-2.4 -0.2-0.9-0.8-1.6-1.6-1.8 -1.3-0.4-2.7 0.4-2.9 1.8 -0.2 1.1 0.4 2.2 1.5 2.5 0.2 0.1 0.4 0.1 0.8 0.1C43.5 32.5 43.6 32.5 43.9 32.3L43.9 32.3z"/><path class="st3" d="M30.6 62.7c-1.4-0.3-2.8-1.1-3.8-2.4 -1.9-2.3-2.8-6.2-2.7-11.1 0.1-3 0.5-5.3 1.5-7.2 1.2-2.5 3-3.9 5.4-4.4 0.5-0.1 0.6-0.1 9.8-0.1 5.1 0 9.3 0 9.4 0 0.1 0 0.1-0.1 0.1-0.9 0-0.5 0-0.9 0-0.9 0 0-2.8 0-6.3 0l-6.3 0 0-3.3c0-3.6 0-3.5 0.3-4.2 1.1-2.3 4.2-3.7 9.2-4.1 0.4 0 1.3-0.1 2.2-0.1 5.6-0.1 9.6 0.9 11.8 2.9 0.2 0.2 0.5 0.6 0.7 0.7 0.3 0.4 0.7 1.2 0.9 1.8l0.1 0.4v6.8c0 6.3 0 6.8-0.1 7.2 -0.1 0.6-0.4 1.4-0.6 1.8 -0.8 1.5-2.2 2.6-4.1 3.1 -1.2 0.3-0.7 0.3-8.7 0.4 -8 0-7.5 0-8.6 0.3 -2.2 0.6-3.8 2.3-4.4 4.7 -0.3 1.1-0.3 1-0.3 4.9l0 3.7 -2.4 0C31.5 62.8 30.8 62.8 30.6 62.7L30.6 62.7zM43.9 32.3c0.9-0.4 1.5-1.5 1.3-2.4 -0.2-0.9-0.8-1.6-1.6-1.8 -1.3-0.4-2.7 0.4-2.9 1.8 -0.2 1.1 0.4 2.2 1.5 2.5 0.2 0.1 0.4 0.1 0.8 0.1C43.5 32.5 43.6 32.5 43.9 32.3L43.9 32.3z"/></svg>