<svg xmlns="http://www.w3.org/2000/svg" viewBox="0 0 100 100"><style type="text/css">  
	.st0{fill:#FFFFFF;}
	.st1{fill:#666666;}
	.st2{fill:#992315;}
	.st3{fill:#992315;fill-opacity:0;stroke:#FFFFFF;}
</style><rect class="st0" width="100" height="100"/><path class="st1" d="M100 100H0V0h100V100zM9.7 90h80.7V10H9.7"/><path class="st2" d="M74.5 25.5v49L62.2 37.8 74.5 25.5zM25.5 74.5h49L37.8 62.2 25.5 74.5zM37.8 62.2l36.8 12.2L50 50 37.8 62.2zM50 50l24.5 24.5L62.2 37.8 50 50zM25.5 62.2v12.2l12.2-12.2H25.5zM50 50H37.8v12.2L50 50zM62.2 37.8H50V50L62.2 37.8zM74.5 25.5H62.2v12.2L74.5 25.5zM37.8 50L25.5 62.2h12.2V50zM50 37.8L37.8 50H50V37.8zM62.2 25.5L50 37.8h12.2V25.5z"/><path class="st3" d="M74.5 25.5v49L62.2 37.8 74.5 25.5zM25.5 74.5h49L37.8 62.2 25.5 74.5zM37.8 62.2l36.8 12.2L50 50 37.8 62.2zM50 50l24.5 24.5L62.2 37.8 50 50zM25.5 62.2v12.2l12.2-12.2H25.5zM50 50H37.8v12.2L50 50zM62.2 37.8H50V50L62.2 37.8zM74.5 25.5H62.2v12.2L74.5 25.5zM37.8 50L25.5 62.2h12.2V50zM50 37.8L37.8 50H50V37.8zM62.2 25.5L50 37.8h12.2V25.5z"/></svg>