<svg xmlns="http://www.w3.org/2000/svg" viewBox="0 0 100 100"><style type="text/css">  
	.st0{fill:#FFFFFF;}
	.st1{fill:#BABABA;}
	.st2{fill:#BABABA;stroke:#BABABA;stroke-miterlimit:10;}
</style><rect class="st0" width="100" height="100"/><path class="st1" d="M100 100H0V0h100V100zM9.7 90h80.7V10H9.7"/><path class="st2" d="M73 45.7V28.9L66.9 35c-4.5-4.8-10.7-7.6-17.3-7.6C36.6 27.4 26 38 26 51s10.6 23.6 23.6 23.6c9.5 0 18.1-5.7 21.8-14.5l-5.6-2.4c-2.7 6.5-9.1 10.8-16.2 10.8 -9.6 0-17.5-7.9-17.5-17.5s7.9-17.5 17.5-17.5c5 0 9.7 2.2 13 5.8l-6.3 6.3H73z"/></svg>