<svg xmlns="http://www.w3.org/2000/svg" viewBox="0 0 100 100"><style type="text/css">  
	.st0{fill:#FFFFFF;}
	.st1{fill:#999999;}
	.st2{fill:#CD6799;stroke:#CD6799;stroke-width:0.25;stroke-miterlimit:10;}
</style><rect class="st0" width="100" height="100"/><path class="st1" d="M100 100H0V0h100V100zM9.7 90h80.7V10H9.7"/><path class="st2" d="M75.2 54.6c-2.2 0-4.2 0.5-5.8 1.3 -0.6-1.2-1.2-2.2-1.3-3 -0.1-0.9-0.3-1.4-0.1-2.5 0.1-1.1 0.8-2.6 0.8-2.7 0-0.1-0.1-0.7-1.4-0.7s-2.4 0.2-2.5 0.6c-0.1 0.3-0.4 1.1-0.5 1.9 -0.2 1.2-2.6 5.3-3.9 7.5 -0.4-0.9-0.8-1.6-0.9-2.2 -0.1-0.9-0.3-1.4-0.1-2.5 0.1-1.1 0.8-2.6 0.8-2.7 0-0.1-0.1-0.7-1.4-0.7 -1.3 0-2.4 0.2-2.5 0.6s-0.3 1.1-0.5 1.9c-0.3 0.8-3.4 7.7-4.2 9.5 -0.4 0.9-0.8 1.7-1 2.2l0 0c0 0 0 0 0 0.1 -0.2 0.4-0.4 0.7-0.4 0.7s0 0 0 0c-0.2 0.3-0.4 0.6-0.5 0.6 -0.1 0-0.2-0.8 0-2 0.5-2.4 1.6-6.2 1.6-6.3 0-0.1 0.2-0.7-0.7-1.1 -0.9-0.3-1.2 0.2-1.3 0.2s-0.1 0.2-0.1 0.2 1-4.2-1.9-4.2c-1.8 0-4.4 2-5.7 3.8 -0.8 0.4-2.5 1.4-4.3 2.3 -0.7 0.4-1.4 0.8-2.1 1.1 0 0-0.1-0.1-0.1-0.2 -3.6-3.8-10.2-6.5-9.9-11.7 0.1-1.9 0.7-6.8 12.7-12.7 9.8-4.9 17.7-3.5 19-0.5 1.9 4.3-4.2 12.2-14.4 13.3 -3.9 0.4-5.9-1.1-6.4-1.6 -0.5-0.6-0.6-0.6-0.8-0.5 -0.3 0.2-0.1 0.7 0 1 0.3 0.8 1.6 2.2 3.7 2.9 1.9 0.6 6.4 0.9 11.9-1.2 6.2-2.4 11-9 9.6-14.6 -1.4-5.6-10.8-7.5-19.6-4.3 -5.3 1.9-11 4.8-15.1 8.7 -4.9 4.6-5.6 8.5-5.3 10.2 1.1 5.9 9.3 9.7 12.5 12.6 -0.2 0.1-0.3 0.2-0.4 0.2 -1.6 0.8-7.8 4-9.4 7.5 -1.8 3.9 0.3 6.7 1.6 7 4.2 1.2 8.5-0.9 10.8-4.4 2.3-3.4 2-7.9 1-9.9 0 0 0 0 0-0.1 0.4-0.2 0.9-0.5 1.3-0.7 0.8-0.5 1.6-0.9 2.3-1.3 -0.4 1.1-0.7 2.4-0.8 4.3 -0.2 2.2 0.7 5.1 1.9 6.2 0.5 0.5 1.1 0.5 1.5 0.5 1.4 0 2-1.1 2.7-2.5 0.8-1.7 1.6-3.6 1.6-3.6s-0.9 5.2 1.6 5.2c0.9 0 1.9-1.2 2.3-1.8 0 0 0 0 0 0s0 0 0.1-0.1c0.1-0.2 0.2-0.2 0.2-0.2s0 0 0 0c0.4-0.7 1.2-2.1 2.5-4.6 1.6-3.2 3.2-7.2 3.2-7.2s0.1 1 0.6 2.6c0.3 0.9 0.9 2 1.3 3 -0.4 0.5-0.6 0.8-0.6 0.8s0 0 0 0c-0.3 0.4-0.6 0.8-1 1.3 -1.3 1.5-2.8 3.3-3 3.8 -0.2 0.6-0.2 1 0.3 1.4 0.3 0.3 0.9 0.3 1.6 0.3 1.1-0.1 2-0.4 2.3-0.5 0.6-0.2 1.3-0.6 2-1.1 1.3-0.9 2-2.2 1.9-4 0-1-0.4-1.9-0.7-2.8 0.1-0.2 0.2-0.3 0.3-0.5 2-2.9 3.5-6.1 3.5-6.1s0.1 1 0.6 2.6c0.2 0.8 0.7 1.7 1.1 2.6 -1.9 1.5-3 3.3-3.4 4.4 -0.7 2.1-0.2 3.1 0.9 3.3 0.5 0.1 1.2-0.1 1.7-0.4 0.7-0.2 1.4-0.6 2.2-1.1 1.3-0.9 2.5-2.2 2.4-4 0-0.8-0.2-1.6-0.5-2.3 1.6-0.7 3.6-1 6.2-0.7 5.6 0.7 6.7 4.1 6.5 5.6 -0.2 1.5-1.4 2.3-1.8 2.5 -0.4 0.2-0.5 0.3-0.5 0.5 0 0.3 0.2 0.2 0.6 0.2 0.5-0.1 2.9-1.2 3-3.9C84.2 58.3 80.9 54.6 75.2 54.6zM32.2 69.1c-1.8 2-4.4 2.8-5.5 2.1 -1.2-0.7-0.7-3.7 1.5-5.8 1.4-1.3 3.2-2.5 4.3-3.2 0.3-0.2 0.7-0.4 1.1-0.7 0.1 0 0.1-0.1 0.1-0.1l0 0c0.1-0.1 0.2-0.1 0.3-0.2C35 64.3 34.2 66.9 32.2 69.1zM45.7 59.9c-0.6 1.6-2 5.6-2.8 5.4 -0.7-0.2-1.1-3.2-0.1-6.2 0.5-1.5 1.6-3.3 2.2-4 1-1.1 2.1-1.5 2.4-1C47.6 54.6 46.1 58.9 45.7 59.9zM56.8 65.2c-0.3 0.1-0.5 0.2-0.6 0.2 -0.1 0 0.1-0.2 0.1-0.2s1.4-1.5 1.9-2.2c0.3-0.4 0.7-0.9 1.1-1.4 0 0 0 0.1 0 0.2C59.3 63.5 57.5 64.7 56.8 65.2zM65.3 63.3c-0.2-0.1-0.2-0.6 0.5-2.1 0.3-0.6 0.9-1.5 1.9-2.5 0.1 0.4 0.2 0.7 0.2 1.1C67.9 62.1 66.3 62.9 65.3 63.3z"/></svg>