<svg xmlns="http://www.w3.org/2000/svg" viewBox="0 0 100 100"><style type="text/css">  
	.st0{fill:#FFFFFF;}
	.st1{fill:#999999;}
	.st2{fill:#CD6799;stroke:#CD6799;stroke-width:0.25;stroke-miterlimit:10;}
</style><rect class="st0" width="100" height="100"/><path class="st1" d="M100 100H0V0h100V100zM9.7 90h80.7V10H9.7"/><path class="st2" d="M74.4 54.5c-2.2 0-4 0.5-5.6 1.3 -0.6-1.1-1.2-2.2-1.3-2.9 -0.1-0.9-0.2-1.4-0.1-2.4 0.1-1 0.7-2.5 0.7-2.6 0-0.1-0.1-0.6-1.4-0.7s-2.3 0.2-2.4 0.6c-0.1 0.3-0.4 1.1-0.5 1.8 -0.2 1.1-2.5 5.2-3.8 7.3 -0.4-0.8-0.8-1.6-0.9-2.1 -0.1-0.9-0.2-1.4-0.1-2.4s0.7-2.5 0.7-2.6S59.7 49 58.4 49c-1.2 0-2.3 0.2-2.4 0.6 -0.1 0.3-0.3 1.1-0.5 1.8 -0.3 0.7-3.3 7.5-4.1 9.2 -0.4 0.9-0.8 1.6-1 2.1l0 0c0 0 0 0 0 0.1 -0.2 0.4-0.3 0.6-0.3 0.6s0 0 0 0c-0.2 0.3-0.4 0.6-0.4 0.6 -0.1 0-0.2-0.8 0-1.9 0.5-2.3 1.5-6 1.5-6.1 0-0.1 0.2-0.7-0.7-1 -0.9-0.3-1.2 0.2-1.3 0.2 -0.1 0-0.1 0.2-0.1 0.2s1-4.1-1.9-4.1c-1.8 0-4.3 2-5.5 3.7 -0.8 0.4-2.4 1.3-4.2 2.3 -0.7 0.4-1.4 0.7-2 1.1 0 0-0.1-0.1-0.1-0.1 -3.5-3.7-9.9-6.3-9.6-11.3 0.1-1.8 0.7-6.6 12.3-12.3 9.5-4.7 17.1-3.4 18.4-0.5 1.9 4.1-4.1 11.8-13.9 12.9 -3.8 0.4-5.7-1-6.2-1.6 -0.5-0.6-0.6-0.6-0.8-0.5 -0.3 0.2-0.1 0.7 0 1 0.3 0.8 1.5 2.1 3.6 2.8 1.8 0.6 6.2 0.9 11.6-1.1 6-2.3 10.6-8.7 9.3-14.1 -1.4-5.5-10.4-7.3-19-4.2 -5.1 1.8-10.6 4.7-14.6 8.4 -4.7 4.4-5.5 8.3-5.2 9.9 1.1 5.7 9 9.4 12.1 12.2 -0.2 0.1-0.3 0.2-0.4 0.2 -1.6 0.8-7.6 3.9-9.1 7.2 -1.7 3.8 0.3 6.5 1.6 6.8 4 1.1 8.2-0.9 10.4-4.2s2-7.7 0.9-9.6c0 0 0 0 0-0.1 0.4-0.2 0.8-0.5 1.2-0.7 0.8-0.5 1.6-0.9 2.3-1.3 -0.4 1.1-0.7 2.3-0.8 4.1 -0.2 2.1 0.7 4.9 1.8 6 0.5 0.5 1.1 0.5 1.5 0.5 1.3 0 1.9-1.1 2.6-2.4 0.8-1.6 1.6-3.5 1.6-3.5s-0.9 5.1 1.6 5.1c0.9 0 1.8-1.2 2.2-1.8 0 0 0 0 0 0s0 0 0.1-0.1c0.1-0.1 0.1-0.2 0.1-0.2s0 0 0 0c0.4-0.6 1.2-2.1 2.4-4.5 1.6-3.1 3.1-6.9 3.1-6.9s0.1 0.9 0.6 2.5c0.3 0.9 0.8 1.9 1.3 2.9 -0.4 0.5-0.6 0.8-0.6 0.8s0 0 0 0c-0.3 0.4-0.6 0.8-1 1.2 -1.2 1.5-2.7 3.2-2.9 3.6 -0.2 0.6-0.2 1 0.3 1.3 0.3 0.2 0.9 0.3 1.5 0.2 1.1-0.1 1.9-0.4 2.3-0.5 0.6-0.2 1.3-0.5 2-1 1.2-0.9 1.9-2.2 1.9-3.9 0-0.9-0.3-1.9-0.7-2.7 0.1-0.2 0.2-0.3 0.3-0.5 1.9-2.8 3.4-5.9 3.4-5.9s0.1 0.9 0.6 2.5c0.2 0.8 0.7 1.7 1.1 2.5 -1.8 1.5-2.9 3.2-3.3 4.3 -0.7 2.1-0.2 3 0.9 3.2 0.5 0.1 1.2-0.1 1.7-0.3 0.6-0.2 1.4-0.6 2.1-1.1 1.2-0.9 2.4-2.1 2.3-3.8 0-0.8-0.2-1.5-0.5-2.3 1.5-0.6 3.5-1 6-0.7 5.4 0.6 6.5 4 6.3 5.4 -0.2 1.4-1.3 2.2-1.7 2.4 -0.4 0.2-0.5 0.3-0.5 0.5 0 0.2 0.2 0.2 0.5 0.2 0.4-0.1 2.8-1.1 2.9-3.7C83.2 58.1 80 54.4 74.4 54.5zM32.9 68.5c-1.8 1.9-4.3 2.7-5.4 2.1C26.3 69.9 26.8 67 29 65c1.3-1.3 3.1-2.4 4.2-3.1 0.3-0.2 0.6-0.4 1.1-0.7 0.1 0 0.1-0.1 0.1-0.1l0 0c0.1-0.1 0.2-0.1 0.3-0.2C35.5 63.9 34.7 66.5 32.9 68.5zM45.9 59.6c-0.6 1.5-1.9 5.4-2.7 5.2 -0.7-0.2-1.1-3.1-0.1-6 0.5-1.5 1.5-3.2 2.1-3.9 1-1.1 2-1.4 2.3-1C47.8 54.5 46.3 58.7 45.9 59.6zM56.6 64.8c-0.3 0.1-0.5 0.2-0.6 0.2 -0.1 0 0.1-0.2 0.1-0.2s1.3-1.4 1.9-2.1c0.3-0.4 0.7-0.8 1.1-1.3 0 0 0 0.1 0 0.1C59 63.1 57.4 64.3 56.6 64.8zM64.9 62.9c-0.2-0.1-0.2-0.6 0.5-2 0.2-0.6 0.8-1.5 1.8-2.4 0.1 0.4 0.2 0.7 0.2 1C67.4 61.7 65.9 62.6 64.9 62.9z"/></svg>