<svg xmlns="http://www.w3.org/2000/svg" viewBox="0 0 100 100"><style type="text/css">  
	.st0{fill:#FFFFFF;}
	.st1{fill:#A03537;}
</style><rect class="st0" width="100" height="100"/><path class="st1" d="M100 100H0V0h100V100zM9.7 90h80.7V10H9.7"/><path class="st1" d="M48.1 75.5c-6.5-0.3-12.3-2.3-15.4-5.4 -0.9-0.9-1.8-2.1-2.2-2.9l-0.3-0.5 0-6.1c0-6 0-6.1 0.1-5.6 0.3 1.3 1.1 2.7 2.3 3.7 0.8 0.7 2.5 1.8 3.8 2.5 2.4 1.2 5.2 2 8.4 2.5 1.9 0.3 2.6 0.3 5.3 0.3s3.4 0 5.3-0.3c3.1-0.5 6-1.3 8.3-2.5 1.4-0.7 3-1.7 3.8-2.5 1.1-1 2-2.5 2.3-3.8 0.1-0.5 0.1-0.4 0.1 5.5l0 6 -0.3 0.6c-1 1.9-2.6 3.6-4.7 4.8C60.6 74.5 54.4 75.8 48.1 75.5z"/><path class="st1" d="M48.1 60.4c-5.7-0.3-11-1.9-14.3-4.4 -0.7-0.6-1.8-1.6-2.3-2.2 -0.4-0.6-0.8-1.2-1.1-1.8l-0.3-0.5 0-6c0-5.9 0-6 0.1-5.5 0.2 0.9 0.7 2 1.5 2.9 0.4 0.5 1.1 1.2 1.5 1.4 0.1 0.1 0.5 0.3 0.7 0.5 2.7 1.9 6.5 3.3 10.8 3.9C46.6 49 47.3 49 50 49s3.4 0 5.3-0.3c3.1-0.5 6-1.3 8.4-2.5 1.4-0.7 3-1.8 3.9-2.5 1.1-1 2-2.4 2.2-3.7 0.1-0.5 0.1-0.4 0.1 5.5l0 5.9 -0.4 0.8c-0.7 1.2-1.1 1.8-1.9 2.7 -0.8 0.8-1.6 1.5-2.7 2.1C60.6 59.4 54.4 60.7 48.1 60.4L48.1 60.4z"/><path class="st1" d="M47.7 45.4c-3.8-0.3-6.8-0.9-9.6-2 -3.4-1.3-5.8-3.1-7.1-5.2 -0.3-0.4-0.5-1-0.7-1.6 -0.2-0.6-0.3-2-0.1-2.7 0.9-4.3 6.6-7.9 14.5-9 1.9-0.3 2.6-0.3 5.3-0.3s3.4 0 5.3 0.3c3.1 0.5 6 1.3 8.4 2.5 3.5 1.7 5.6 4 6.1 6.5 0.1 0.7 0.1 2.1-0.1 2.7 -0.4 1.3-1 2.2-2 3.2 -2.8 2.9-7.9 4.9-14.1 5.6C52.7 45.3 48.5 45.4 47.7 45.4z"/></svg>