<svg xmlns="http://www.w3.org/2000/svg" viewBox="0 0 100 100"><style type="text/css">  
	.st0{fill:#FFFFFF;}
	.st1{fill:#FEA500;}
</style><rect class="st0" width="100" height="100"/><path class="st1" d="M100 100H0V0h100V100zM9.7 90h80.7V10H9.7"/><circle class="st1" cx="50" cy="50.5" r="15.2"/><path class="st1" d="M48.9 33.5h2.2c0.7 0 1.2-0.6 1.2-1.2v-7.6c0-0.7-0.6-1.2-1.2-1.2h-2.2c-0.7 0-1.2 0.6-1.2 1.2v7.6C47.7 33 48.2 33.5 48.9 33.5z"/><path class="st1" d="M67 49.4v2.2c0 0.7 0.6 1.2 1.2 1.2h7.6c0.7 0 1.2-0.6 1.2-1.2v-2.2c0-0.7-0.6-1.2-1.2-1.2h-7.6C67.5 48.2 67 48.7 67 49.4z"/><path class="st1" d="M51.1 77.5c0.7 0 1.2-0.6 1.2-1.2v-7.6c0-0.7-0.6-1.2-1.2-1.2h-2.2c-0.7 0-1.2 0.6-1.2 1.2v7.6c0 0.7 0.6 1.2 1.2 1.2H51.1z"/><path class="st1" d="M24.2 52.8h7.6c0.7 0 1.2-0.6 1.2-1.2v-2.2c0-0.7-0.6-1.2-1.2-1.2h-7.6c-0.7 0-1.2 0.6-1.2 1.2v2.2C23 52.3 23.6 52.8 24.2 52.8z"/><path class="st1" d="M62.7 39.3c0.5 0.5 1.3 0.5 1.7 0l5.4-5.4c0.5-0.5 0.5-1.3 0-1.7l-1.5-1.5c-0.5-0.5-1.3-0.5-1.7 0L61.2 36c-0.5 0.5-0.5 1.3 0 1.7L62.7 39.3z"/><path class="st1" d="M68.3 70.4l1.5-1.5c0.5-0.5 0.5-1.3 0-1.7l-5.4-5.4c-0.5-0.5-1.3-0.5-1.7 0l-1.5 1.5c-0.5 0.5-0.5 1.3 0 1.7l5.4 5.4C67.1 70.8 67.8 70.8 68.3 70.4z"/><path class="st1" d="M33.4 70.4l5.4-5.4c0.5-0.5 0.5-1.3 0-1.7l-1.5-1.5c-0.5-0.5-1.3-0.5-1.7 0l-5.4 5.4c-0.5 0.5-0.5 1.3 0 1.7l1.5 1.5C32.2 70.8 32.9 70.8 33.4 70.4z"/><path class="st1" d="M35.5 39.3c0.5 0.5 1.3 0.5 1.7 0l1.5-1.5c0.5-0.5 0.5-1.3 0-1.7l-5.4-5.4c-0.5-0.5-1.3-0.5-1.7 0l-1.5 1.5c-0.5 0.5-0.5 1.3 0 1.7L35.5 39.3z"/></svg>