<?xml version="1.0" encoding="utf-8"?>
<svg version="1.1" id="Layer_1" xmlns="http://www.w3.org/2000/svg" xmlns:xlink="http://www.w3.org/1999/xlink" x="0px" y="0px" viewBox="0 0 100 100" style="enable-background:new 0 0 100 100;" xml:space="preserve">
    <style type="text/css">
	.st0{fill:#FFFFFF;}
	.st1{fill:#FF6633;}
	.st2{fill:url(#SVGID_1_);}
</style>
    <rect class="st0" width="100" height="100"></rect>
    <path class="st1" d="M100,100H0V0h100V100z M9.7,90h80.7V10H9.7"></path>
    <linearGradient id="SVGID_1_" gradientUnits="userSpaceOnUse" x1="1.2494" y1="99.324" x2="1.2494" y2="97.9157" gradientTransform="matrix(39.6201 0 0 -35.5033 0 3550.3289)">
        <stop offset="0" style="stop-color:#F88A36"></stop>
        <stop offset="1" style="stop-color:#FD2020"></stop>
    </linearGradient>
    <path class="st2" d="M63.7,70.5c-6.6,3.8-15.6,4.2-24.7,0.3c-7.4-3.1-13.5-8.6-17.4-14.9c1.9,1.6,4.1,2.8,6.4,3.9
	c9.4,4.4,18.8,4.1,25.4,0c0,0,0,0,0,0C44,52.7,36,43.3,30.1,35.6c-1.3-1.3-2.2-2.8-3.1-4.2c7.2,6.6,18.6,14.9,22.7,17.2
	c-8.6-9.1-16.3-20.4-16-20C47.3,42.3,60,50.2,60,50.2c0.4,0.2,0.7,0.4,1,0.6c0.3-0.7,0.5-1.4,0.7-2.2c2.2-8-0.3-17.1-5.8-24.6
	C68.6,31.7,76.1,46.1,73,58.1c-0.1,0.3-0.2,0.6-0.3,1c0,0,0.1,0.1,0.1,0.1c6.3,7.8,4.5,16.1,3.8,14.6C73.2,67.2,66.9,69.2,63.7,70.5
	L63.7,70.5z"></path>
</svg>