<svg xmlns="http://www.w3.org/2000/svg" viewBox="0 0 100 100"><style type="text/css">  
	.st0{fill:#FFFFFF;}
	.st1{fill:#A87D45;}
</style><rect class="st0" width="100" height="100"/><path class="st1" d="M100 100H0V0h100V100zM9.7 90h80.7V10H9.7"/><path class="st1" d="M59.4 53.8L50 49.4l18.8-8.8 9.4 4.4 -9.4 4.4L59.4 53.8zM68.8 31.9l-9.4-4.4L50 31.9l18.8 8.8 9.4-4.4L68.8 31.9zM40.6 45l-9.4-4.4L21.8 45l18.8 8.8 9.4-4.4L40.6 45zM40.6 36.3l9.4-4.4 -9.4-4.4 -18.8 8.8 9.4 4.4L40.6 36.3zM68.8 52l-8.4 3.9 -1 0.5 -1-0.5L50 52l-8.4 3.9 -1 0.5 -1-0.5L31.2 52v13.7L50 75.5l18.8-9.8V52z"/></svg>