<svg xmlns="http://www.w3.org/2000/svg" viewBox="0 0 100 100"><style type="text/css">  
	.st0{fill:#FFFFFF;}
	.st1{fill:#8383A6;}
</style><rect class="st0" width="100" height="100"/><path class="st1" d="M100 100H0V0h100V100zM9.7 90h80.7V10H9.7"/><path class="st1" d="M73.8 65.9c-0.3 1.2-1.1 2-2 2.9 -12.2 12.7-33.2 10.3-42-4.9 -2.4-4.1-3.7-8.3-3.6-13.1 0.3-5.9 2.2-11.1 5.9-15.7 4.4-5.6 9.9-9.3 17.1-10.4 1.7-0.3 3.4-0.4 5.2-0.7v4.9l-3.6 0.4c-10 1.5-18.5 9.9-19.2 19.7 -0.4 6.1 1.2 11.6 5.3 16.3 1.6 2 3.4 3.7 5.7 4.8 0.7 0.3 1.5 0.4 2.1 0.5 -6.3-3.7-10-9.3-11.2-16.4 -0.8-4.8 0.1-9.4 2.8-13.5 6.7-10.4 18.5-12.2 26.6-8.7 -0.7 1.5-1.3 2.9-2 4.2 -1.6-0.3-3.2-0.8-4.8-0.8 -4.6-0.3-8.7 0.8-12.2 4.1 -8.7 8.1-6.5 20.5 2 26 2.6 1.9 5.6 3.2 8.7 3.8 0.8 0.3 1.6 0 2.5-0.1 -0.1-0.1-0.3-0.1-0.4-0.1 -4-0.8-7.7-2.1-10.8-4.9S40.4 58 40 53.6c-0.4-6.2 2-11.2 7.3-14.4 4.6-2.9 9.5-2.9 14.4-0.5 2.8 1.3 4.8 3.4 6.3 6.1 -1.5 0.8-2.8 1.5-4.1 2.1 -1.2-1.2-2.2-2.5-3.6-3.3 -6.2-4.2-14.9-0.3-15.6 7.5 -0.3 3.8 1.3 6.7 4 9.4 3.2 2.9 7 4 11.2 4.5 4.1 0.5 8.2 0.4 12.3-0.1 0.8-0.1 1.2 0.4 1.5 1.1C73.8 65.8 73.8 65.9 73.8 65.9z"/></svg>