<?xml version="1.0" encoding="utf-8"?>
<!-- Generator: Adobe Illustrator 22.1.0, SVG Export Plug-In . SVG Version: 6.00 Build 0)  -->
<svg version="1.1" id="Layer_1" xmlns="http://www.w3.org/2000/svg" xmlns:xlink="http://www.w3.org/1999/xlink" x="0px" y="0px"
	 viewBox="0 0 100 100" style="enable-background:new 0 0 100 100;" xml:space="preserve">
<style type="text/css">
	.st0{fill:#FFFFFF;}
	.st1{fill:#666666;}
</style>
<rect class="st0" width="100" height="100"/>
<path class="st1" d="M100,100H0V0h100V100z M9.7,90h80.7V10H9.7"/>
<path class="st1" d="M68.2,32.5c2,0.5,3.5,1.4,4.8,2.8c0.7,0.8,1.7,2.1,1.9,2.5c0,0.1-3.3,2.3-5.3,3.6c-0.1,0.1-0.4-0.3-0.7-0.8
	c-1-1.4-2-2.1-3.6-2.2c-2.3-0.2-3.8,1.1-3.8,3.1c0,0.6,0.1,1,0.3,1.4c0.5,1.1,1.5,1.7,4.4,3c5.5,2.4,7.9,3.9,9.3,6.2
	c1.7,2.5,2,6.5,0.9,9.4c-1.2,3.2-4.3,5.4-8.6,6.1c-1.4,0.2-4.4,0.2-5.9-0.1c-3.1-0.5-6-2.1-7.8-4.1c-0.7-0.8-2.1-2.9-2-3
	c0-0.1,0.4-0.2,0.7-0.5c0.4-0.2,1.7-1,2.9-1.7l2.2-1.3l0.5,0.7c0.7,1,2.1,2.3,2.9,2.8c2.5,1.3,5.9,1.1,7.5-0.4c0.7-0.7,1-1.4,1-2.3
	c0-0.9-0.1-1.3-0.6-2c-0.6-0.8-1.8-1.6-5.3-3.1c-4-1.7-5.7-2.8-7.3-4.4c-0.9-1-1.7-2.6-2.1-3.8c-0.3-1.1-0.4-3.8-0.2-4.9
	c0.8-3.8,3.8-6.5,7.9-7.3C63.7,32.2,66.9,32.2,68.2,32.5z M50.1,35.8v3.2h-5h-5v14.3v14.3h-3.5H33V53.2V38.9h-5h-5v-3.1
	c0-1.7,0-3.2,0.1-3.2c0-0.1,6.2-0.1,13.5-0.1H50L50.1,35.8z"/>
</svg>
