<svg xmlns="http://www.w3.org/2000/svg" viewBox="0 0 100 100"><style type="text/css">  
	.st0{fill:#FFFFFF;}
	.st1{fill:#36454D;}
	.st2{fill:#7291A1;}
</style><rect class="st0" width="100" height="100"/><path class="st1" d="M100 100H0V0h100V100zM9.7 90h80.7V10H9.7"/><path class="st2" d="M58.2 26.5v10h-1c-0.6-2.3-1.2-4-1.9-5s-1.7-1.8-2.9-2.4c-0.7-0.3-1.9-0.5-3.6-0.5H46v28.6c0 1.9 0.1 3.1 0.3 3.5 0.2 0.5 0.6 0.9 1.2 1.2 0.6 0.4 1.4 0.5 2.5 0.5h1.2v1H31.9v-1h1.2c1.1 0 1.9-0.2 2.6-0.6 0.5-0.3 0.8-0.7 1.1-1.3 0.2-0.4 0.3-1.6 0.3-3.4V28.6h-2.7c-2.5 0-4.3 0.5-5.4 1.6 -1.6 1.5-2.6 3.6-3 6.3h-1v-10H58.2z"/><path class="st1" d="M75 37.5v10h-1c-0.6-2.3-1.2-4-1.9-5s-1.7-1.8-2.9-2.4c-0.7-0.3-1.9-0.5-3.6-0.5h-2.8v28.6c0 1.9 0.1 3.1 0.3 3.5 0.2 0.5 0.6 0.9 1.2 1.2 0.6 0.4 1.4 0.5 2.5 0.5H68v1H48.7v-1h1.2c1.1 0 1.9-0.2 2.6-0.6 0.5-0.3 0.8-0.7 1.1-1.3 0.2-0.4 0.3-1.6 0.3-3.4V39.6h-2.7c-2.5 0-4.3 0.5-5.4 1.6 -1.6 1.5-2.6 3.6-3 6.3h-1v-10H75z"/></svg>