<svg xmlns="http://www.w3.org/2000/svg" viewBox="0 0 100 100"><style type="text/css">  
	.st0{fill:#FFFFFF;}
	.st1{fill:#D5006E;}
	.st2{fill:#D5006E;stroke:#D5006E;stroke-miterlimit:10;}
</style><rect class="st0" width="100" height="100"/><path class="st1" d="M100 100H0V0h100V100zM9.7 90h80.7V10H9.7"/><path class="st2" d="M19.7 33.6h6.8l7.6 22.7c0.7 2 1.3 5.1 1.3 5.1h0.1c0 0 0.6-3.1 1.3-5.1l7.7-22.7h6.8L38.7 68.4h-6.3L19.7 33.6z"/><path class="st2" d="M55.7 33.6h12.4c6.3 0 10.7 3.2 10.7 9 0 3.2-1.6 6-4.2 7.4v0.1c3.8 1.1 5.6 4.7 5.6 8.2 0 7-5.6 10.1-12 10.1H55.7V33.6zM68.2 47.8c2.7 0 4.3-2 4.3-4.5S71 39 68.1 39h-6v8.8H68.2zM68.8 63c3.2 0 5-2.1 5-5 0-2.9-1.9-5-5-5H62v10H68.8z"/></svg>