<svg id="Layer_1" xmlns="http://www.w3.org/2000/svg" viewBox="0 0 100 100"><style>.st1{fill:#999}</style><path d="M0 0h100v100H0V0z" fill="#fff"/><path class="st1" d="M100 100H0V0h100v100zM9.7 90h80.7V10H9.7"/><path class="st1" d="M25.4 31.9v1.7l-1.9.8v-1.7l1.9-.8zm0 16v1.7l-1.9.8v-1.6l1.9-.9zm0 16.2v1.7l-1.9.8V65l1.9-.9zm-.2-26.8v1.5l-1.6.7V38l1.6-.7zm0 5.4v1.5l-1.5.6v-1.5l1.5-.6zm0 10.8V55l-1.6.7v-1.6l1.6-.6zm0 5.4v1.5l-1.6.7v-1.5l1.6-.7zm5-26v2l-2.6.9v-1.9l2.6-1zm0 16.2V51l-2.6 1v-1.9l2.6-1zm0 16.3v1.9l-2.6 1v-1.9l2.6-1zm-.1-26.9v1.8l-2.1.8v-1.8l2.1-.8zm0 5.4v1.8l-2.1.8v-1.8l2.1-.8zm0 10.8v1.8l-2.1.8v-1.8l2.1-.8zm0 5.4v1.8l-2.1.8v-1.8l2.1-.8zm5.1-26v2.3l-3.4 1.3v-2.3l3.4-1.3zm0 16.2v2.3l-3.4 1.3v-2.3l3.4-1.3zm0 16v2.4L31.8 70v-2.4l3.4-1.3zM35 39.7v2.1l-2.8 1.1v-2l2.8-1.2zm0 5.4v2l-2.8 1.1v-2l2.8-1.1zm0 10.8v2L32.2 59v-2l2.8-1.1zm0 5.2v2.1l-2.8 1.1v-2l2.8-1.2zM40.5 34v3l-4.2 1.7v-3l4.2-1.7zm0 16.2v3l-4.2 1.7v-3l4.2-1.7zm0 16v3l-4.2 1.7v-3l4.2-1.7zm-.2-26.6v2.8l-3.5 1.3V41l3.5-1.4zm0 5.4v2.7l-3.5 1.5v-2.8l3.5-1.4zm0 10.8v2.8L36.8 60v-2.8l3.5-1.4zm0 5.2v2.8l-3.5 1.3v-2.7l3.5-1.4zM46 33.5v3.9l-4.7 1.9v-3.9l4.7-1.9zm0 16.2v3.9l-4.7 1.9v-3.9l4.7-1.9zm0 16v3.9l-4.7 1.9v-3.9l4.7-1.9zm-.2-26.3v3.3l-3.9 1.6V41l3.9-1.6zm0 5.1v3.3l-3.9 1.6v-3.3l3.9-1.6zm0 11v3.3l-4.1 1.6v-3.3l4.1-1.6zm0 5.3v3.3l-3.9 1.6v-3.3l3.9-1.6zm5.9-29.3v5.4l-5 2.1v-5c1.7-1 3.4-1.9 5-2.5zm0 5.9v4.7l-5 2.1v-4.7l5-2.1zm0 5.3v4.7l-5 2.1v-4.7l5-2.1zm0 5.3v4.7l-5 2.1v-4.7l5-2.1zm0 5.2V58l-5 2.1v-4.9l5-2zm0 5.4v4.7l-5 2.2v-4.8l5-2.1zm0 5.3v5c-2 .7-3.6 1.5-5 2.2V66l5-2.1zm25.8-32.3v37.8c-3.2-2.1-7.2-3.1-11.9-3.1-3.9 0-8.4.8-13.3 2.4v-5.1c2.6-1 5.5-1.8 8.6-2.2V49.2c-2.6.3-5.5 1.2-8.6 2.7v-3.5c2.7-1.2 5.5-2.1 8.6-2.5v-12c-2.7.5-5.6 1.5-8.6 2.8v-5.3c4.4-1.9 8.6-2.8 12.8-2.8 4.5-.1 8.6.9 12.4 3zm-5.1 3.3c-2.1-1-4.5-1.6-7.4-1.6-.3 0-.6 0-1 .1v12.2h1.1c2.5 0 4.9.4 7.3 1.1V34.9zm0 15.4c-2.2-.9-4.7-1.5-7.3-1.5-.3 0-.7 0-1 .1v12.3h1.1c2.7 0 5.1.3 7.3 1V50.3h-.1zM75.7 71v-.8h-.3V70h.8v.1h-.3v.9h-.2zm.7 0v-1h.2l.3.7.3-.7h.2v1h-.1v-.8l-.3.8h-.2l-.3-.7v.8h-.1V71z"/></svg>