<svg xmlns="http://www.w3.org/2000/svg" viewBox="0 0 100 100"><style type="text/css">  
	.st0{fill:#FFFFFF;}
	.st1{fill:#CC9966;}
</style><rect class="st0" width="100" height="100"/><path class="st1" d="M100 100H0V0h100V100zM9.7 90h80.7V10H9.7"/><path class="st1" d="M46.9 50c0 0.8 0.3 1.6 0.9 2.2 1.2 1.2 3.2 1.2 4.4 0 0.6-0.6 0.9-1.4 0.9-2.2 0-0.8-0.3-1.6-0.9-2.2 -0.6-0.6-1.4-0.9-2.2-0.9 -0.8 0-1.6 0.3-2.2 0.9C47.2 48.4 46.9 49.2 46.9 50z"/><path class="st1" d="M32.3 32.3c-9.8 9.8-9.8 25.6 0 35.4 9.8 9.8 25.6 9.8 35.4 0 9.8-9.8 9.8-25.6 0-35.4C57.9 22.6 42.1 22.6 32.3 32.3zM69.3 60.5c-0.9 1.7-2.1 3.2-3.5 4.6 -1.4 1.4-3 2.6-4.6 3.5l-5.8-11.1c0 0 0.5-0.2 1.6-1.2 1.1-1.1 1.3-1.6 1.3-1.6L69.3 60.5zM54.4 45.6c1.2 1.2 1.8 2.8 1.8 4.4 0 1.6-0.6 3.2-1.8 4.4 -2.4 2.4-6.4 2.4-8.8 0 -1.2-1.2-1.8-2.8-1.8-4.4 0-1.6 0.6-3.2 1.8-4.4C48 43.1 52 43.1 54.4 45.6zM45.9 41.2c0 0-1.2 0.7-2.2 1.8 -0.9 1-1 1.2-1.3 1.7l-11-5.9c0.9-1.7 2.1-3.2 3.5-4.6 1.4-1.4 3-2.6 4.6-3.5L45.9 41.2z"/></svg>