<svg xmlns="http://www.w3.org/2000/svg" viewBox="0 0 100 100"><style type="text/css">  
	.st0{fill:#FFFFFF;}
	.st1{fill:#C11E07;}
	.st2{fill:#111111;stroke:#111111;stroke-width:0.5;stroke-miterlimit:10;}
</style><rect class="st0" width="100" height="100"/><path class="st1" d="M100 100H0V0h100V100zM9.7 90h80.7V10H9.7"/><path class="st2" d="M70 70H30c-4.1 0-7.5-3.4-7.5-7.5v-25c0-4.1 3.4-7.5 7.5-7.5h40c4.1 0 7.5 3.4 7.5 7.5v25C77.5 66.6 74.1 70 70 70zM30 35c-1.4 0-2.5 1.1-2.5 2.5v25c0 1.4 1.1 2.5 2.5 2.5h40c1.4 0 2.5-1.1 2.5-2.5v-25c0-1.4-1.1-2.5-2.5-2.5H30z"/><path class="st2" d="M45 57.5H35c-1.4 0-2.5-1.1-2.5-2.5s1.1-2.5 2.5-2.5h10c1.4 0 2.5 1.1 2.5 2.5S46.4 57.5 45 57.5z"/><path class="st2" d="M45 47.5H35c-1.4 0-2.5-1.1-2.5-2.5s1.1-2.5 2.5-2.5h10c1.4 0 2.5 1.1 2.5 2.5S46.4 47.5 45 47.5z"/><circle class="st2" cx="60" cy="46.2" r="5"/><path class="st2" d="M60 53.4c-3.9 0-6.2 1.8-6.2 3.6 0 0.9 2.3 1.8 6.2 1.8 3.7 0 6.2-0.9 6.2-1.8C66.2 55.2 63.8 53.4 60 53.4z"/></svg>