<svg xmlns="http://www.w3.org/2000/svg" viewBox="0 0 100 100"><style type="text/css">  
	.st0{fill:#FFFFFF;}
	.st1{fill:#C11E07;}
	.st2{fill:#111111;stroke:#111111;stroke-width:0.5;stroke-miterlimit:10;}
</style><rect class="st0" width="100" height="100"/><path class="st1" d="M100 100H0V0h100V100zM9.7 90h80.7V10H9.7"/><path class="st2" d="M70.7 70.7H29.3c-4.3 0-7.8-3.5-7.8-7.8V37c0-4.3 3.5-7.8 7.8-7.8h41.5c4.3 0 7.8 3.5 7.8 7.8V63C78.5 67.2 75 70.7 70.7 70.7zM29.3 34.5c-1.4 0-2.6 1.2-2.6 2.6V63c0 1.4 1.2 2.6 2.6 2.6h41.5c1.4 0 2.6-1.2 2.6-2.6V37c0-1.4-1.2-2.6-2.6-2.6H29.3z"/><path class="st2" d="M44.8 57.8H34.5c-1.4 0-2.6-1.2-2.6-2.6 0-1.4 1.2-2.6 2.6-2.6h10.4c1.4 0 2.6 1.2 2.6 2.6C47.4 56.6 46.3 57.8 44.8 57.8z"/><path class="st2" d="M44.8 47.4H34.5c-1.4 0-2.6-1.2-2.6-2.6 0-1.4 1.2-2.6 2.6-2.6h10.4c1.4 0 2.6 1.2 2.6 2.6C47.4 46.2 46.3 47.4 44.8 47.4z"/><circle class="st2" cx="60.4" cy="46.1" r="5.2"/><path class="st2" d="M60.4 53.5c-4 0-6.5 1.9-6.5 3.7 0 0.9 2.4 1.9 6.5 1.9 3.8 0 6.5-0.9 6.5-1.9C66.8 55.4 64.3 53.5 60.4 53.5z"/></svg>