<svg xmlns="http://www.w3.org/2000/svg" viewBox="0 0 100 100"><style type="text/css">  
	.st0{fill:#FFFFFF;}
	.st1{fill:#A87D45;}
</style><rect class="st0" width="100" height="100"/><path class="st1" d="M100 100H0V0h100V100zM9.7 90h80.7V10H9.7"/><path class="st1" d="M78.4 64.6c0-2.2-1.8-3.9-3.9-3.9H25.6c-2.2 0-3.9 1.8-3.9 3.9v5.6c0 2.2 1.8 3.9 3.9 3.9h48.9c2.2 0 3.9-1.8 3.9-3.9C78.4 70.2 78.4 64.6 78.4 64.6zM57.3 69.7c-1.2 0-2.3-1-2.3-2.3 0-1.4 1.1-2.3 2.3-2.3s2.3 1 2.3 2.3C59.6 68.8 58.6 69.7 57.3 69.7zM64.2 69.7c-1.2 0-2.3-1-2.3-2.3 0-1.4 1-2.3 2.3-2.3 1.2 0 2.3 1 2.3 2.3C66.5 68.8 65.4 69.7 64.2 69.7zM71 69.7c-1.2 0-2.3-1-2.3-2.3 0-1.4 1-2.3 2.3-2.3 1.2 0 2.3 1 2.3 2.3C73.3 68.8 72.3 69.7 71 69.7zM25.6 58.3h48.9c1.1 0 2.2 0.3 3 0.8l-4.8-9.9c-1.4-2.9-3.5-3.9-5.7-3.9h-5.3L54 53.1c-0.5 0.5-1.2 1-1.9 1.2 -0.7 0.3-1.5 0.4-2.2 0.4 -0.8 0-1.5-0.1-2.2-0.4h-0.3c-0.5-0.3-1.1-0.7-1.6-1.1l-7.6-8.2h-5.3c-2.2 0-4.2 1.2-5.7 3.9L22.4 59C23.4 58.6 24.3 58.3 25.6 58.3z"/><path class="st1" d="M61.4 41.4c0.3-0.3 0.4-0.5 0.7-1 0.1-0.4 0.3-0.7 0.3-1.2 0-0.4-0.1-0.8-0.3-1.1 -0.1-0.4-0.4-0.7-0.7-1 -0.3-0.3-0.7-0.5-1-0.7 -0.3-0.1-0.7-0.3-1.1-0.3s-0.8 0.1-1.1 0.3c-0.4 0.1-0.7 0.4-1 0.7l-4.4 4.4V28c0-0.4-0.1-0.8-0.3-1.1 -0.1-0.4-0.4-0.7-0.7-1 -0.3-0.3-0.5-0.5-1-0.7 -0.3-0.1-0.7-0.1-1.1-0.1s-0.8 0-1.1 0.1c-0.4 0.1-0.7 0.4-1 0.7 -0.3 0.3-0.5 0.5-0.7 1s-0.3 0.7-0.3 1.1v13.7l-4.4-4.4c-0.3-0.3-0.5-0.5-1-0.7 -0.3-0.1-0.7-0.3-1.1-0.3 -0.4 0-0.8 0.1-1.1 0.3 -0.3 0.1-0.7 0.4-1 0.7 -0.3 0.3-0.5 0.5-0.7 1 -0.1 0.4-0.3 0.7-0.3 1.1s0.1 0.8 0.3 1.2c0.1 0.4 0.4 0.7 0.7 1l9.4 9.5c0.3 0.3 0.5 0.5 1 0.7 0.3 0.1 0.7 0.3 1.1 0.3s0.8-0.1 1.1-0.3c0.4-0.1 0.7-0.4 1-0.7L61.4 41.4z"/></svg>