<svg xmlns="http://www.w3.org/2000/svg" viewBox="0 0 100 100"><style type="text/css">  
	.st0{fill:#FFFFFF;}
	.st1{fill:#666666;}
	.st2{fill:#265DB4;stroke:#265DB4;stroke-width:0.5;stroke-miterlimit:10;}
	.st3{fill:#CC0000;stroke:#CC0000;stroke-width:0.5;stroke-miterlimit:10;}
</style><rect class="st0" width="100" height="100"/><path class="st1" d="M100 100H0V0h100V100zM9.7 90h80.7V10H9.7"/><path class="st2" d="M62.3 64.5c11.2-5.8 6-11.5 2.4-10.7 -0.9 0.2-1.3 0.3-1.3 0.3s0.3-0.5 1-0.7c7.2-2.5 12.7 7.4-2.3 11.4C62 64.8 62.2 64.6 62.3 64.5"/><path class="st3" d="M52.3 48.1c2.9 3.3-0.8 6.3-0.8 6.3s7.3-3.8 4-8.5c-3.1-4.4-5.6-6.6 7.5-14.2C63 31.7 42.5 36.9 52.3 48.1"/><path class="st3" d="M55.5 19.5c0 0 6.2 6.2-5.9 15.8 -9.7 7.7-2.2 12.1 0 17.1 -5.7-5.1-9.8-9.6-7-13.8C46.6 32.4 58 29.4 55.5 19.5"/><path class="st2" d="M41.6 66.9c0 0-2.3 1.3 1.6 1.8 4.7 0.5 7.2 0.5 12.4-0.5 0 0 1.4 0.9 3.3 1.6C47.2 74.8 32.4 69.5 41.6 66.9"/><path class="st2" d="M40.2 60.4c0 0-2.6 1.9 1.4 2.3 5.1 0.5 9.1 0.6 16-0.8 0 0 1 1 2.5 1.5C45.9 67.6 30.1 63.7 40.2 60.4"/><path class="st2" d="M67.8 71.8c0 0 1.7 1.4-1.9 2.5 -6.8 2.1-28.2 2.7-34.1 0.1 -2.1-0.9 1.9-2.2 3.1-2.5 1.3-0.3 2.1-0.2 2.1-0.2 -2.4-1.7-15.4 3.3-6.6 4.7C54.3 80.2 74 74.6 67.8 71.8"/><path class="st2" d="M42.7 53.6c0 0-10.9 2.6-3.9 3.5 3 0.4 8.9 0.3 14.4-0.2 4.5-0.4 9-1.2 9-1.2s-1.6 0.7-2.7 1.5c-11.1 2.9-32.4 1.6-26.3-1.4C38.5 53.3 42.7 53.6 42.7 53.6"/><path class="st2" d="M43.8 80.3c10.8 0.7 27.3-0.4 27.7-5.5 0 0-0.8 1.9-8.9 3.5 -9.2 1.7-20.6 1.5-27.3 0.4C35.4 78.7 36.8 79.9 43.8 80.3"/></svg>