<svg xmlns="http://www.w3.org/2000/svg" viewBox="0 0 100 100"><style type="text/css">  
	.st0{fill:#FFFFFF;}
	.st1{fill:#6190AA;}
	.st2{fill:#6190AA;stroke:#6190AA;stroke-width:0.5;stroke-miterlimit:10;}
</style><rect class="st0" width="100" height="100"/><path class="st1" d="M100 100H0V0h100V100zM9.7 90h80.7V10H9.7"/><path class="st1" d="M29.6 53l-5.9-18.2c-0.2-0.7-0.4-1-0.5-1 -0.1-0.1-0.2-0.1-0.4-0.2L20.7 33l-0.1-2.6h1.1c1.2 0 2.6 0 3.9 0 1.7 0 3.4 0 5 0h1l0.2 2.6 -2.1 0.6c0 0 0 0.1 0 0.2 0 0.2 0.1 0.7 0.4 1.2l2.2 7 3.9-11.7 3-0.1 3.6 11.7 2.5-7c0.1-0.5 0.4-1 0.4-1.2v-0.1l-1.8-0.5 -0.1-2.7h1.1c1.4 0 2.6 0 3.4 0s2 0 3.1 0h1l0.2 2.6 -2.3 0.7c-0.1 0-0.2 0.1-0.4 0.1 0 0.1-0.2 0.2-0.4 0.9L43 52.8 39.9 53l-3.3-11.2 -3.9 11L29.6 53z"/><rect x="57.8" y="30.2" class="st2" width="21.7" height="3.4"/><rect x="57.8" y="39.4" class="st2" width="21.7" height="3.4"/><rect x="57.8" y="48.8" class="st2" width="21.7" height="3.4"/><rect x="21.6" y="58.4" class="st2" width="57.9" height="3.4"/><rect x="21.6" y="67.8" class="st2" width="57.9" height="3.4"/></svg>