<svg xmlns="http://www.w3.org/2000/svg" viewBox="0 0 100 100"><style type="text/css">  
	.st0{fill:#FFFFFF;}
	.st1{fill:#FEA500;}
</style><rect class="st0" width="100" height="100"/><path class="st1" d="M100 100H0V0h100V100zM9.7 90h80.7V10H9.7"/><path class="st1" d="M37.6 41.6L24.5 69.4l2.5 2.5 16.3-16.3c-0.6-1.3-0.4-2.9 0.7-4 1.4-1.4 3.6-1.4 5 0 1.4 1.4 1.4 3.6 0 5 -1.1 1.1-2.7 1.3-4 0.7L28.7 73.5l2.5 2.5 27.8-13.1 5.9-16.6L54.2 35.6 37.6 41.6z"/><path class="st1" d="M75.7 38.3L62.2 24.8c-1.1-1.1-2.9-1.1-4 0l-3.2 3.2c-1.1 1.1-1.1 2.9 0 4l13.5 13.5c1.1 1.1 2.9 1.1 4 0l3.2-3.2C76.8 41.2 76.8 39.4 75.7 38.3z"/></svg>