<svg xmlns="http://www.w3.org/2000/svg" viewBox="0 0 100 100"><style type="text/css">  
	.st0{fill:#FFFFFF;}
	.st1{fill:#7A5A31;}
</style><rect class="st0" width="100" height="100"/><path class="st1" d="M100 100H0V0h100V100zM9.7 90h80.7V10H9.7"/><path class="st1" d="M66.3 59c0.5 0.3 1.2 0.6 1.8 0.9 1.7 1.1 3.4 2.2 5.2 3.3 0.2 0.1 0.5 0.2 0.8 0.2 1.9-0.4 4 0.7 4.6 2.6 0.4 1.2 0.6 2.6 0.7 3.9 0.2 1.6 0.2 3.2 0.2 4.8 -2.8-0.7-5.4-1.5-7.4-3.6 -0.5-0.5-0.7-1.4-1.1-2 -0.1-0.2-0.2-0.4-0.4-0.4 -3.6-0.8-7.1-2.1-10.4-3.8 -0.2-0.1-0.5-0.1-0.7 0 -3.3 1.7-6.9 2.3-10.6 2.1 -5-0.3-9.6-1.9-14-4.1 -0.7-0.4-1.5-0.8-2.2-1.3 3.5-1.6 5-4.4 5-8.1 -0.9-0.1-1.6-0.2-2.4-0.2 -0.1 0.8-0.1 1.5-0.3 2.3 -0.8 3.1-3.7 4.7-6.9 3.9 -4.2-1.1-7.9-6-7.5-10.7 0.3-3.4 3.3-5.7 6.7-4.9 0.6 0.1 1.2 0.3 1.7 0.6 0.5 0.2 1 0.5 1.5 0.8 0.4-0.7 0.7-1.5 1.1-2.2 0.1-0.2 0.1-0.4 0.1-0.6 0-3.5 0-7 0-10.5 0-0.2 0-0.4 0-0.6 0 0 0.1 0 0.1 0 0.1 0.2 0.2 0.3 0.3 0.5 1.2 1.8 2.3 3.6 3.9 5.1 1.7 1.6 3.6 3 6 3.6 0.7 0.2 1.2 0.1 1.9-0.3 2.6-1.7 5.3-1.8 8.1-0.5 0.2 0.1 0.5 0.2 0.7 0.1 3.9-1 7.5-2.6 10.4-5.5 1.3-1.3 2.3-2.8 2.9-4.5 0.3-0.8 0.7-1.6 1.1-2.3 0.4-0.6 0.9-1 1.7-0.9 0.8 0.1 1.2 0.7 1.4 1.4 0.3 1.4 0.6 2.8 0.6 4.2 0.1 2.5 0.2 5 0.1 7.5 -0.2 5.1-0.7 10.2-2.5 15.1C67.7 56 67 57.5 66.3 59zM59.4 58.8c0.5-0.8 0.6-1.6 0.1-2.4 -0.7-1.3-1.8-2.1-3.1-2.8 0 0-0.1 0-0.1 0.1 0.1 0.3 0.3 0.5 0.4 0.8 0.1 0.3 0.2 0.6 0.3 0.9 0.3 1.1 0.1 1.6-1 2 -0.6 0.2-1.3 0.4-2 0.5 -3.4 0.5-6.7 0.5-10.1 0.4 -0.3 0-0.6 0-1 0 0.1 0.1 0.1 0.2 0.2 0.2 3.3 1.1 6.6 2 10 2.2 1.3 0.1 2.6 0.1 3.9-0.3 0.4-0.1 0.6 0 1 0.2 3.7 2.5 7.8 4.3 12.2 5.4 0.9 0.2 0.9 0.2 1.3-0.6 0.1-0.1 0.1-0.3 0.2-0.5C67.9 62.3 63.8 60.3 59.4 58.8zM47.6 45.7c-0.2 1.6 0.1 2.3 1.1 2.7 0.8 0.3 1.8 0 2.1-0.7 0.2-0.4 0.3-1 0.2-1.5 -0.1-0.5-0.5-0.9-0.8-1.3 1.6 0.1 2.6 1.1 3.2 2.6 0.5-1.4-0.2-4.2-2.4-5.5 -2.2-1.4-5.2-1-7 0.9 -1.8 1.9-2 4.9-0.5 7 1.4 2 4.2 2.7 5.3 2.2 -1.5-0.6-2.5-1.7-2.6-3.3C46.2 47.5 46.7 46.6 47.6 45.7zM37.5 51c-2.5-1.4-3.1-4.1-1.2-5.3 -0.2 1.1 0 1.8 0.8 2.2 0.6 0.3 1.5 0.1 1.8-0.5 0.2-0.4 0.4-0.9 0.3-1.3 -0.1-0.4-0.5-0.8-0.8-1.2 0.6 0.2 1.2 0.5 1.8 0.7 0.4-1.2 0.4-1.3-0.1-1.8 -1.2-1.2-2.6-1.6-4.2-1.2 -1.6 0.4-2.7 1.5-3.1 3.1 -0.2 0.7-0.3 1.4 0.1 2 0.4 0.7 0.8 1.4 1.3 2.1 0.1 0.2 0.2 0.4 0.4 0.5C35.5 50.8 36.4 51 37.5 51zM22.9 49.3c0 0.7 0.2 1.5 0.8 2.2 0.9 1 2.2 1 3.2 0.1 1.3-1.3 1.2-3.8-0.2-5 -0.5-0.4-1-0.5-1.6-0.5C23.8 46.3 22.9 47.6 22.9 49.3z"/></svg>