<svg xmlns="http://www.w3.org/2000/svg" viewBox="0 0 100 100"><style type="text/css">  
	.st0{fill:#FFFFFF;}
	.st1{fill:#999999;}
	.st2{fill:#999999;stroke:#999999;stroke-width:0.5;stroke-miterlimit:10;}
</style><rect class="st0" width="100" height="100"/><path class="st1" d="M100 100H0V0h100V100zM9.7 90h80.7V10H9.7"/><path class="st2" d="M22 46.2C22 46.4 22 46.5 22 46.2zM77.4 44c-0.3 1.9-0.6 2.9-0.7 2.9 0 0-0.1-10.3-3.5-13.7 0.6 6 0 3.5 0 3.5 -4.6-8-13.3-13.4-23.1-13.4 -8.3 0-15.6 3.7-20.5 9.6l-0.1-0.1c-0.7-0.7-1.2-4.1-1.2-4.1s-1.5 1.9-1.9 4c-0.3 1.6 0 0 0 0 -0.4 1.6-0.6 3.7-0.6 6 0 0-2.5 2.8-2.9 5.7 -0.1 0.6-0.1 0.9-0.1 1.2v0.3c0 0.1 0 0.4 0.1 0.6l1.5-1.2v0.4c-0.4 1.3-0.9 2.8-1 4.3 -0.4 4.6 0.4 9 2.8 13.4 0 0 1 1.8 1.6 2.5 0.1 0.1 0.1 0.3 0.3 0.3C32.9 73 41 77.6 50 77.6c8.1 0 15.2-3.5 20.3-9h0.1c0.3-0.4 0.6-0.9 0.9-1.2 0.9-1 1.6-2.1 2.4-3.2 2.2-3.5 3.5-7.2 4.3-10.9C78 49.9 78.1 46.7 77.4 44zM29.4 33.3C29.4 33.1 29.4 33.1 29.4 33.3 29.4 33.1 29.4 33.1 29.4 33.3 29.4 33.1 29.4 33.1 29.4 33.3 29.4 33.1 29.4 33.1 29.4 33.3 29.4 33.1 29.4 33.3 29.4 33.3zM69.7 42.8c-0.6-0.9-1.3-1.5-2.2-1.8 1.2 4.6 1.3 8.4 0.3 11.3 -0.6-2.1-1.3-3.2-1.8-3.7 0.7 6.2-0.3 10.8-3.1 13.7 0.6-1.8 0.7-3.2 0.6-4.4 -3.2 4.9-6.9 7.4-11.2 7.5 -1.6 0-3.2-0.3-4.7-0.7h-0.4c-0.1 0-0.3-0.1-0.3-0.1 -0.1 0-0.3-0.1-0.3-0.1 -0.1 0-0.3-0.1-0.3-0.1 -0.1 0-0.1-0.1-0.3-0.1 -0.1 0-0.3-0.1-0.3-0.1 -0.1 0-0.1-0.1-0.3-0.1 -0.1 0-0.1-0.1-0.3-0.1 -0.1 0-0.1-0.1-0.3-0.1s-0.1-0.1-0.3-0.1c-0.1 0-0.1-0.1-0.3-0.1 -0.1 0-0.1-0.1-0.3-0.1 -0.1 0-0.1-0.1-0.3-0.1 -0.1 0-0.1-0.1-0.3-0.1s-0.1-0.1-0.3-0.1c-0.1 0-0.1-0.1-0.3-0.3 -0.1 0-0.1-0.1-0.3-0.3 -0.1 0-0.1-0.1-0.3-0.3L42 61.7h4.3c0.1 0 0.1 0 0.3-0.1 0.1 0 0.1 0 0.3-0.1 0.1 0 0.1 0 0.3-0.1 0.1 0 0.1 0 0.3-0.1 0.1 0 0.1-0.1 0.3-0.1 0.1 0 0.1-0.1 0.3-0.1 0.1 0 0.1 0 0.3-0.1h0.1l0.1-0.1 0.3-0.1 0.3-0.1 0.3-0.1 0.3-0.1 0.3-0.1 0.3-0.1 0.3-0.1 0.3-0.1 0.3-0.1 0.3-0.1 0.3-0.1 0.3-0.1 0.1-0.1c0.4-0.1 0.9-0.1 1.3 0 0.9-0.1 1.2-0.6 0.9-1.3 -0.4-0.6-1-1-1.9-1.6 -1.8-0.9-3.7-0.7-5.6 0.4 -1.8 1-3.7 1-5.3-0.1 -1.2-0.7-2.2-1.8-3.2-3.1v-1.9c0-0.1 0-0.3 0.1-0.4 0.1-0.3 0.1-0.4 0.3-0.6 0.1-0.3 0.4-0.4 0.7-0.4 0.1 0 0.3 0 0.3-0.1H37h1.2c0.3 0 0.7 0 1.5 0.1 1.2 0.1 2.5 0.4 4 0.7 0.3-1.5-0.1-2.9-1-4.4 -0.1-0.1-0.1-0.3-0.3-0.4l0.1 0.1c0 0.1 0.1 0.1 0.1 0.3v0.1c0 0 0.1 0 0.1-0.1l0.1-0.1 0.1-0.1 0.1-0.1 0.1-0.1 0.1-0.1 0.1-0.1 0.1-0.1 0.1-0.1 0.1-0.1 0.1-0.1 0.1-0.1 0.1-0.1 0.1-0.1 0.1-0.1 0.1-0.1 0.1-0.1 0.1-0.1c0 0 0.1 0 0.1-0.1 0 0 0.1 0 0.1-0.1l0.1-0.1c0 0 0.1 0 0.1-0.1l0.1-0.1 0.1-0.1c0-0.1 0.1-0.1 0.1-0.3 0.1-0.1 0.1-0.3 0.1-0.4 0.3-0.4 0.1-0.7-0.3-1 -1 0-2.9-0.1-2.9-0.1 -2.4-1-3.7-3.1-3.7-3.1l-0.1-0.1c-0.4-3.5 4.3-5.9 4.3-5.9S38.1 33 36.3 35H36h0.1c-3.4-0.9-6.2 0.4-6.2 0.4 -0.4-0.3-0.9-0.6-1.3-1.2 4.7-5.9 12.1-9.6 20.2-9.6 6.3 0 12.1 2.2 16.5 5.9l-2.2-0.9c-2.4-0.7-5-1-8.1-1.2 1.3 0.3 2.5 0.6 3.5 1h0.1c1.3 0.6 2.2 1.5 2.7 2.4 -1.3-0.3-2.7-0.1-3.7 0.3C66.5 35 70.2 38.6 69.7 42.8L69.7 42.8zM22.1 45.2c0 0.3-0.1 0.6-0.1 0.9C22 45.8 22.1 45.2 22.1 45.2zM22 46.1C22 46.2 22 46.2 22 46.1 22 46.2 22 46.2 22 46.1 22 46.2 22 46.2 22 46.1z"/></svg>