<svg xmlns="http://www.w3.org/2000/svg" viewBox="0 0 100 100"><style type="text/css">  
	.st0{fill:#FFFFFF;}
	.st1{fill:#999999;}
</style><rect class="st0" width="100" height="100"/><path class="st1" d="M100 100H0V0h100V100zM9.7 90h80.7V10H9.7"/><path class="st1" d="M60.6 24.2c5.2 3.5 8.2 12.9 8.2 20 0 1.8-0.2 3.6-0.7 5.2 -0.4-4.1-2.5-7.7-5.6-10.1 1.7 2.3 2.8 5.2 2.8 8.4 0 7.8-6.3 14.1-14.1 14.1 -3.1 0-4.7-0.6-7-2.3 4.8 0 7.7-4.7 11.7-4.7 0 0-0.6-2.3-3.5-2.3 -2.9 0-1.5 2.3-7 2.3s-8.2-3.3-8.2-5.9c0-2.6 3.8-4.4 4.7-3.5 0.8-0.8 0-2.3 0-2.3l7-4.7c0 0-1.2 0-2.3 0 -10.4 0-4.4-7.3-2.3-9.4 -3.7 0-6.1 3.5-7 4.7 -0.6-0.3-4.7-0.3-5.9 0 -0.5 0.1-1.2-0.8-1.9-2.1 -0.8-1.6-1.6-3.7-1.6-5 -3 3-2.5 7.4-1.3 9.2 0 0-0.1 0.1-0.1 0.2 -2.1 3.8-3.3 8.2-3.3 12.9 0 14.9 12.1 27 27 27S77 64.9 77 50c0-0.3 0-2.1 0-2.3C77 33.7 68.1 26.4 60.6 24.2z"/></svg>