<svg xmlns="http://www.w3.org/2000/svg" viewBox="0 0 100 100"><path d="M0 0h100v100H0V0z" fill="#fff"/><path d="M100 100H0V0h100v100zM9.7 90h80.7V10H9.7" fill="#999"/><path d="M40.9 39.2h4.5v3.1h-1.7c-.5 0-.9.4-.9.9s.4.9.9.9h12.6c.5 0 .9-.4.9-.9s-.4-.9-.9-.9h-1.7v-3.1h4.5c1.8 0 3.2-1.4 3.2-3.2V25.2c0-1.8-1.4-3.2-3.2-3.2H40.9c-1.8 0-3.2 1.4-3.2 3.2V36c0 1.8 1.4 3.2 3.2 3.2zm11.9 3.1h-5.6v-3.1h5.6v3.1zM39.5 25.2c0-.8.6-1.4 1.4-1.4h18.2c.8 0 1.4.6 1.4 1.4V36c0 .8-.6 1.4-1.4 1.4H40.9c-.8 0-1.4-.6-1.4-1.4V25.2zm4 30.7H25.2c-1.8 0-3.2 1.4-3.2 3.2v10.8c0 1.8 1.4 3.2 3.2 3.2h4.5v3.1H28c-.5 0-.9.4-.9.9s.4.9.9.9h12.6c.5 0 .9-.4.9-.9s-.4-.9-.9-.9H39v-3.1h4.5c1.8 0 3.2-1.4 3.2-3.2V59.1c0-1.8-1.5-3.2-3.2-3.2zm-6.3 20.3h-5.6v-3.1h5.6v3.1zm7.7-6.3c0 .8-.6 1.4-1.4 1.4H25.2c-.8 0-1.4-.6-1.4-1.4V59.1c0-.8.6-1.4 1.4-1.4h18.2c.8 0 1.4.6 1.4 1.4v10.8zm29.9-14H56.5c-1.8 0-3.2 1.4-3.2 3.2v10.8c0 1.8 1.4 3.2 3.2 3.2H61v3.1h-1.7c-.5 0-.9.4-.9.9s.4.9.9.9H72c.5 0 .9-.4.9-.9s-.4-.9-.9-.9h-1.7v-3.1h4.5c1.8 0 3.2-1.4 3.2-3.2V59.1c0-1.8-1.4-3.2-3.2-3.2zm-6.3 20.3h-5.6v-3.1h5.6v3.1zm7.7-6.3c0 .8-.6 1.4-1.4 1.4H56.5c-.8 0-1.4-.6-1.4-1.4V59.1c0-.8.6-1.4 1.4-1.4h18.2c.8 0 1.4.6 1.4 1.4l.1 10.8zM64.8 53.1c0 .5.4.9.9.9s.9-.4.9-.9V50c0-.5-.4-.9-.9-.9H50.9v-2.2c0-.5-.4-.9-.9-.9s-.9.4-.9.9v2.2H34.3c-.5 0-.9.4-.9.9v3.1c0 .5.4.9.9.9s.9-.4.9-.9v-2.2h29.5v2.2z" fill="#999" stroke="#999" stroke-width="2" stroke-miterlimit="10"/></svg>