<svg xmlns="http://www.w3.org/2000/svg" viewBox="0 0 100 100"><style type="text/css">  
	.st0{fill:#FFFFFF;}
	.st1{fill:#999999;}
	.st2{fill:#999999;stroke:#999999;stroke-width:0.75;stroke-miterlimit:10;}
</style><rect class="st0" width="100" height="100"/><path class="st1" d="M100 100H0V0h100V100zM9.7 90h80.7V10H9.7"/><path class="st2" d="M42.3 44.2h15.4v3.8H42.3V44.2zM42.3 51.9h15.4v3.8H42.3V51.9zM42.3 59.6h15.4v3.8H42.3V59.6zM69.2 25H38.5c-4.2 0-7.7 3.4-7.7 7.7v34.6h-7.7c0 4.2 3.4 7.7 7.7 7.7h30.8c4.2 0 7.7-3.4 7.7-7.7V36.5h7.7v-3.8C76.9 28.4 73.5 25 69.2 25zM65.4 66.6c0 2.5-2 4.5-4.5 4.5H32.7c1.9-1.3 1.9-3.8 1.9-3.8V32.7c0-2.1 1.7-3.8 3.8-3.8s3.8 1.7 3.8 3.8v3.8h23.1V66.6zM46.2 32.7v-3.8h23.1c3.5 0 3.8 2.2 3.8 3.8H46.2z"/></svg>