<svg id="Layer_1" xmlns="http://www.w3.org/2000/svg" viewBox="0 0 72 100"><style>.st0{fill:url(#SVGID_1_)}.st1{fill-opacity:0;stroke:#7191a1;stroke-width:2}.st2{enable-background:new}.st3{fill:#4c6c7b}.st4{fill:url(#SVGID_2_)}.st5{fill:url(#SVGID_3_)}.st6{fill-opacity:0;stroke:#7191a1;stroke-width:2;stroke-linejoin:bevel}</style><linearGradient id="SVGID_1_" gradientUnits="userSpaceOnUse" x1="36" y1="2.953" x2="36" y2="100.95" gradientTransform="matrix(1 0 0 -1 0 102)"><stop offset="0" stop-color="#c8d4db"/><stop offset=".139" stop-color="#d8e1e6"/><stop offset=".359" stop-color="#ebf0f3"/><stop offset=".617" stop-color="#f9fafb"/><stop offset="1" stop-color="#fff"/></linearGradient><path class="st0" d="M45 1l27 26.7V99H0V1h45z"/><path class="st1" d="M45 1l27 26.7V99H0V1h45z"/><g class="st2"><path class="st3" d="M28.6 91.1h-4.3l-1.7-4.4h-7.8l-1.6 4.4H9l7.6-19.3h4.2l7.8 19.3zm-7.3-7.6l-2.7-7.2-2.6 7.2h5.3zm7.7 7.6v-3.5l10.3-12.5h-9.1v-3.3h14.3v3l-10.7 13h11.1v3.3H29zm18.3 0V71.8h14.5v3.3H51.3v4.3h9.8v3.3h-9.8V88h10.9v3.3H47.3z"/></g><linearGradient id="SVGID_2_" gradientUnits="userSpaceOnUse" x1="19.103" y1="40.285" x2="55" y2="40.285"><stop offset="0" stop-color="#ffce85"/><stop offset=".137" stop-color="#ffca7c"/><stop offset=".365" stop-color="#ffc062"/><stop offset=".656" stop-color="#ffaf39"/><stop offset=".994" stop-color="#ff9800"/></linearGradient><path class="st4" d="M43 62.6c9.9-8.8 1.4-20.1-1.3-21.3.3 1.4.2 3.7-1.1 5-.7-3.4-3.3-7.7-7.1-9.1.6 4.8-2.3 8.3-3.4 10-1 1.6-6.8 9.7-.9 15.4-14-4.4-10.6-18.5-6.4-24.7C27 31.4 32 26.1 30.9 18c6.8 2.4 11.5 9.6 12.7 15.2 2.3-2.2 2.6-6.1 2-8.3 4.8 2 19.8 28.9-2.6 37.7z"/><linearGradient id="SVGID_3_" gradientUnits="userSpaceOnUse" x1="45.068" y1="74.155" x2="58.568" y2="87.655" gradientTransform="matrix(1 0 0 -1 0 102)"><stop offset="0" stop-color="#fff"/><stop offset=".35" stop-color="#fafbfb"/><stop offset=".532" stop-color="#edf1f4"/><stop offset=".675" stop-color="#dde5e9"/><stop offset=".799" stop-color="#c7d3da"/><stop offset=".908" stop-color="#adbdc7"/><stop offset="1" stop-color="#92a5b0"/></linearGradient><path class="st5" d="M45 1l27 26.7H45V1z"/><path class="st6" d="M45 1l27 26.7H45V1z"/></svg>