<?xml version="1.0" encoding="utf-8"?>
<svg version="1.1" id="Layer_1" xmlns="http://www.w3.org/2000/svg" xmlns:xlink="http://www.w3.org/1999/xlink" x="0px" y="0px" viewBox="0 0 72 100" style="enable-background:new 0 0 72 100;" xml:space="preserve">
    <style type="text/css">
	.st0{fill:url(#SVGID_1_);}
	.st1{fill-opacity:0;stroke:#7191A1;stroke-width:2;}
	.st2{fill:url(#SVGID_2_);}
	.st3{fill-opacity:0;stroke:#7191A1;stroke-width:2;stroke-linejoin:bevel;}
	.st4{enable-background:new    ;}
	.st5{fill:#4C6C7B;}
	.st6{fill:url(#SVGID_3_);}
	.st7{fill:url(#SVGID_4_);}
</style>
    <g>
        <linearGradient id="SVGID_1_" gradientUnits="userSpaceOnUse" x1="36" y1="97" x2="36" y2="-1" gradientTransform="matrix(1 0 0 1 0 2)">
            <stop offset="0" style="stop-color:#C8D4DB"></stop>
            <stop offset="0.139" style="stop-color:#D8E1E6"></stop>
            <stop offset="0.359" style="stop-color:#EBF0F3"></stop>
            <stop offset="0.617" style="stop-color:#F9FAFB"></stop>
            <stop offset="1" style="stop-color:#FFFFFF"></stop>
        </linearGradient>
        <path class="st0" d="M45,1l27,26.7V99H0V1H45z"></path>
        <path class="st1" d="M45,1l27,26.7V99H0V1H45z"></path>
    </g>
    <g>
        <linearGradient id="SVGID_2_" gradientUnits="userSpaceOnUse" x1="45.0368" y1="25.8132" x2="58.5368" y2="12.3132" gradientTransform="matrix(1 0 0 1 0 2)">
            <stop offset="0" style="stop-color:#FFFFFF"></stop>
            <stop offset="0.35" style="stop-color:#FAFBFB"></stop>
            <stop offset="0.532" style="stop-color:#EDF1F4"></stop>
            <stop offset="0.675" style="stop-color:#DDE5E9"></stop>
            <stop offset="0.799" style="stop-color:#C7D3DA"></stop>
            <stop offset="0.908" style="stop-color:#ADBDC7"></stop>
            <stop offset="1" style="stop-color:#92A5B0"></stop>
        </linearGradient>
        <path class="st2" d="M45,1l27,26.7H45V1z"></path>
        <path class="st3" d="M45,1l27,26.7H45V1z"></path>
    </g>
    <g class="st4">
        <path class="st5" d="M8.4,71.8h8c1.6,0,2.8,0.1,3.5,0.2s1.5,0.4,2.1,0.8s1.1,1,1.5,1.7s0.6,1.5,0.6,2.3c0,0.9-0.3,1.8-0.8,2.6
		s-1.2,1.4-2.1,1.8c1.2,0.4,2.2,1,2.8,1.8s1,1.9,1,3c0,0.9-0.2,1.8-0.6,2.7s-1,1.5-1.7,2.1c-0.7,0.5-1.6,0.8-2.7,1
		c-0.7,0.1-2.3,0.1-4.9,0.1H8.4V71.8z M12.4,75.2v4.6h2.7c1.6,0,2.6,0,2.9-0.1c0.7-0.1,1.2-0.3,1.6-0.7s0.6-0.9,0.6-1.6
		c0-0.6-0.2-1.1-0.5-1.5s-0.9-0.6-1.5-0.7c-0.4,0-1.6-0.1-3.5-0.1H12.4z M12.4,83.1v5.4h3.7c1.5,0,2.4,0,2.8-0.1
		c0.6-0.1,1.1-0.4,1.5-0.8c0.4-0.4,0.6-1,0.6-1.7c0-0.6-0.1-1.1-0.4-1.5c-0.3-0.4-0.7-0.7-1.3-0.9c-0.6-0.2-1.7-0.3-3.6-0.3H12.4z"></path>
        <path class="st5" d="M46.6,91.9h-4.4l-1.8-4.6h-8l-1.7,4.6h-4.3l7.8-20h4.3L46.6,91.9z M39.2,84l-2.8-7.4L33.7,84H39.2z"></path>
        <path class="st5" d="M48.8,91.9v-20h4v8.9l8.2-8.9h5.4L59,79.6l8,12.2h-5.2l-5.5-9.4l-3.3,3.3v6.1H48.8z"></path>
    </g>
    <g>
        <linearGradient id="SVGID_3_" gradientUnits="userSpaceOnUse" x1="27.6429" y1="45.2857" x2="27.6429" y2="23">
            <stop offset="0" style="stop-color:#869BA6"></stop>
            <stop offset="0.379" style="stop-color:#8399A4"></stop>
            <stop offset="0.576" style="stop-color:#7B929E"></stop>
            <stop offset="0.731" style="stop-color:#6D8694"></stop>
            <stop offset="0.863" style="stop-color:#5A7785"></stop>
            <stop offset="0.981" style="stop-color:#426373"></stop>
            <stop offset="0.99" style="stop-color:#416271"></stop>
        </linearGradient>
        <path class="st6" d="M16.5,23v22.3h8.4V31.4h13.9V23H16.5z"></path>
        <linearGradient id="SVGID_4_" gradientUnits="userSpaceOnUse" x1="41.5714" y1="62" x2="41.5714" y2="34.1429">
            <stop offset="0" style="stop-color:#869BA6"></stop>
            <stop offset="0.379" style="stop-color:#8399A4"></stop>
            <stop offset="0.576" style="stop-color:#7B929E"></stop>
            <stop offset="0.731" style="stop-color:#6D8694"></stop>
            <stop offset="0.863" style="stop-color:#5A7785"></stop>
            <stop offset="0.981" style="stop-color:#426373"></stop>
            <stop offset="0.99" style="stop-color:#416271"></stop>
        </linearGradient>
        <path class="st7" d="M27.6,34.1V62h27.9V34.1H41.6H27.6z"></path>
    </g>
</svg>