<svg id="Layer_1" xmlns="http://www.w3.org/2000/svg" viewBox="0 0 72 100"><linearGradient id="SVGID_1_" gradientUnits="userSpaceOnUse" x1="36" y1="97" x2="36" y2="-1" gradientTransform="translate(0 2)"><stop offset="0" stop-color="#c8d4db"/><stop offset=".139" stop-color="#d8e1e6"/><stop offset=".359" stop-color="#ebf0f3"/><stop offset=".617" stop-color="#f9fafb"/><stop offset="1" stop-color="#fff"/></linearGradient><path d="M45 1l27 26.7V99H0V1h45z" fill="url(#SVGID_1_)"/><path d="M45 1l27 26.7V99H0V1h45z" fill-opacity="0" stroke="#7191a1" stroke-width="2"/><linearGradient id="SVGID_2_" gradientUnits="userSpaceOnUse" x1="45.037" y1="25.813" x2="58.537" y2="12.313" gradientTransform="translate(0 2)"><stop offset="0" stop-color="#fff"/><stop offset=".35" stop-color="#fafbfb"/><stop offset=".532" stop-color="#edf1f4"/><stop offset=".675" stop-color="#dde5e9"/><stop offset=".799" stop-color="#c7d3da"/><stop offset=".908" stop-color="#adbdc7"/><stop offset="1" stop-color="#92a5b0"/></linearGradient><path d="M45 1l27 26.7H45V1z" fill="url(#SVGID_2_)"/><path d="M45 1l27 26.7H45V1z" fill-opacity="0" stroke="#7191a1" stroke-width="2" stroke-linejoin="bevel"/><path d="M8.4 71.8h8c1.6 0 2.8.1 3.5.2s1.5.4 2.1.8 1.1 1 1.5 1.7.6 1.5.6 2.3c0 .9-.3 1.8-.8 2.6s-1.2 1.4-2.1 1.8c1.2.4 2.2 1 2.8 1.8s1 1.9 1 3c0 .9-.2 1.8-.6 2.7s-1 1.5-1.7 2.1c-.7.5-1.6.8-2.7 1-.7.1-2.3.1-4.9.1H8.4V71.8zm4 3.4v4.6h2.7c1.6 0 2.6 0 2.9-.1.7-.1 1.2-.3 1.6-.7s.6-.9.6-1.6c0-.6-.2-1.1-.5-1.5s-.9-.6-1.5-.7c-.4 0-1.6-.1-3.5-.1h-2.3zm0 7.9v5.4h3.7c1.5 0 2.4 0 2.8-.1.6-.1 1.1-.4 1.5-.8.4-.4.6-1 .6-1.7 0-.6-.1-1.1-.4-1.5-.3-.4-.7-.7-1.3-.9-.6-.2-1.7-.3-3.6-.3h-3.3zm34.2 8.8h-4.4l-1.8-4.6h-8l-1.7 4.6h-4.3l7.8-20h4.3l8.1 20zM39.2 84l-2.8-7.4-2.7 7.4h5.5zm9.6 7.9v-20h4v8.9l8.2-8.9h5.4L59 79.6l8 12.2h-5.2l-5.5-9.4-3.3 3.3v6.1h-4.2z" fill="#4c6c7b"/><linearGradient id="SVGID_3_" gradientUnits="userSpaceOnUse" x1="27.643" y1="45.286" x2="27.643" y2="23"><stop offset="0" stop-color="#869ba6"/><stop offset=".379" stop-color="#8399a4"/><stop offset=".576" stop-color="#7b929e"/><stop offset=".731" stop-color="#6d8694"/><stop offset=".863" stop-color="#5a7785"/><stop offset=".981" stop-color="#426373"/><stop offset=".99" stop-color="#416271"/></linearGradient><path d="M16.5 23v22.3h8.4V31.4h13.9V23H16.5z" fill="url(#SVGID_3_)"/><linearGradient id="SVGID_4_" gradientUnits="userSpaceOnUse" x1="41.571" y1="62" x2="41.571" y2="34.143"><stop offset="0" stop-color="#869ba6"/><stop offset=".379" stop-color="#8399a4"/><stop offset=".576" stop-color="#7b929e"/><stop offset=".731" stop-color="#6d8694"/><stop offset=".863" stop-color="#5a7785"/><stop offset=".981" stop-color="#426373"/><stop offset=".99" stop-color="#416271"/></linearGradient><path d="M27.6 34.1V62h27.9V34.1H27.6z" fill="url(#SVGID_4_)"/></svg>