<svg id="Layer_1" xmlns="http://www.w3.org/2000/svg" viewBox="0 0 72 100"><style>.st0{fill:url(#SVGID_1_)}.st1{fill-opacity:0;stroke:#7191a1;stroke-width:2}.st2{fill:url(#SVGID_2_);stroke:url(#SVGID_3_)}.st2,.st3,.st4{stroke-miterlimit:10}.st3{fill:url(#SVGID_4_);stroke:url(#SVGID_5_)}.st4{fill:url(#SVGID_6_);stroke:url(#SVGID_7_)}.st5{fill:url(#SVGID_8_);stroke:url(#SVGID_9_)}.st5,.st6,.st7,.st8,.st9{stroke-miterlimit:10}.st6{fill:url(#SVGID_10_);stroke:url(#SVGID_11_)}.st7{fill:url(#SVGID_12_);stroke:url(#SVGID_13_)}.st8{fill:url(#SVGID_14_);stroke:url(#SVGID_15_)}.st9{fill:url(#SVGID_16_);stroke:url(#SVGID_17_)}.st10{fill:url(#SVGID_18_);stroke:url(#SVGID_19_)}.st10,.st11,.st12,.st13{stroke-miterlimit:10}.st11{fill:url(#SVGID_20_);stroke:url(#SVGID_21_)}.st12{fill:url(#SVGID_22_);stroke:url(#SVGID_23_)}.st13{fill:url(#SVGID_24_);stroke:url(#SVGID_25_)}.st14{fill:url(#SVGID_26_);stroke:url(#SVGID_27_)}.st14,.st15,.st16,.st17{stroke-miterlimit:10}.st15{fill:url(#SVGID_28_);stroke:url(#SVGID_29_)}.st16{fill:url(#SVGID_30_);stroke:url(#SVGID_31_)}.st17{fill:url(#SVGID_32_);stroke:url(#SVGID_33_)}.st18{fill:url(#SVGID_34_)}.st19{fill-opacity:0;stroke:#7191a1;stroke-width:2;stroke-linejoin:bevel}.st20{enable-background:new}.st21{fill:#4c6c7b}</style><linearGradient id="SVGID_1_" gradientUnits="userSpaceOnUse" x1="36" y1="97" x2="36" y2="-1" gradientTransform="translate(0 2)"><stop offset="0" stop-color="#c8d4db"/><stop offset=".139" stop-color="#d8e1e6"/><stop offset=".359" stop-color="#ebf0f3"/><stop offset=".617" stop-color="#f9fafb"/><stop offset="1" stop-color="#fff"/></linearGradient><path class="st0" d="M45 1l27 26.7V99H0V1h45z"/><path class="st1" d="M45 1l27 26.7V99H0V1h45z"/><linearGradient id="SVGID_2_" gradientUnits="userSpaceOnUse" x1="13.594" y1="19.953" x2="20.188" y2="19.953"><stop offset="0" stop-color="#869ba6"/><stop offset=".379" stop-color="#8399a4"/><stop offset=".576" stop-color="#7b929e"/><stop offset=".731" stop-color="#6d8694"/><stop offset=".863" stop-color="#5a7785"/><stop offset=".981" stop-color="#426373"/><stop offset=".99" stop-color="#416271"/></linearGradient><linearGradient id="SVGID_3_" gradientUnits="userSpaceOnUse" x1="13.094" y1="19.953" x2="20.688" y2="19.953"><stop offset="0" stop-color="#869ba6"/><stop offset=".379" stop-color="#8399a4"/><stop offset=".576" stop-color="#7b929e"/><stop offset=".731" stop-color="#6d8694"/><stop offset=".863" stop-color="#5a7785"/><stop offset=".981" stop-color="#426373"/><stop offset=".99" stop-color="#416271"/></linearGradient><path class="st2" d="M17.9 23h1.3c.3 0 .6.1.8.2s.2.3.2.6-.1.5-.2.6c-.2.1-.4.2-.8.2h-4.6c-.4 0-.6-.1-.8-.2-.2-.1-.2-.3-.2-.6s.1-.5.2-.6c.2-.1.4-.2.8-.2H16v-5.9l-.9.2c-.1 0-.2 0-.3.1h-.2c-.2 0-.4-.1-.5-.2-.1-.1-.1-.3-.1-.5s.1-.3.2-.4c.1-.1.3-.2.6-.3l1.9-.5c.2 0 .3-.1.4-.1h.3c.2 0 .4.1.4.2.1.1.1.3.1.5V23z"/><linearGradient id="SVGID_4_" gradientUnits="userSpaceOnUse" x1="25.983" y1="20.076" x2="33.756" y2="20.076"><stop offset="0" stop-color="#869ba6"/><stop offset=".379" stop-color="#8399a4"/><stop offset=".576" stop-color="#7b929e"/><stop offset=".731" stop-color="#6d8694"/><stop offset=".863" stop-color="#5a7785"/><stop offset=".981" stop-color="#426373"/><stop offset=".99" stop-color="#416271"/></linearGradient><linearGradient id="SVGID_5_" gradientUnits="userSpaceOnUse" x1="25.483" y1="20.076" x2="34.256" y2="20.076"><stop offset="0" stop-color="#869ba6"/><stop offset=".379" stop-color="#8399a4"/><stop offset=".576" stop-color="#7b929e"/><stop offset=".731" stop-color="#6d8694"/><stop offset=".863" stop-color="#5a7785"/><stop offset=".981" stop-color="#426373"/><stop offset=".99" stop-color="#416271"/></linearGradient><path class="st3" d="M29.9 15.4c1.2 0 2.1.4 2.9 1.3.7.8 1.1 2 1.1 3.4s-.4 2.6-1.1 3.4c-.7.8-1.7 1.3-2.9 1.3s-2.1-.4-2.8-1.3c-.7-.8-1-2-1-3.4s.3-2.6 1-3.4c.6-.9 1.6-1.3 2.8-1.3zm0 1.6c-.6 0-1 .3-1.3.8s-.5 1.3-.5 2.2c0 1 .2 1.7.5 2.3.3.5.8.8 1.3.8.6 0 1-.3 1.3-.8.3-.5.5-1.3.5-2.3 0-1-.2-1.7-.5-2.2s-.8-.8-1.3-.8z"/><linearGradient id="SVGID_6_" gradientUnits="userSpaceOnUse" x1="39.84" y1="19.953" x2="46.434" y2="19.953"><stop offset="0" stop-color="#869ba6"/><stop offset=".379" stop-color="#8399a4"/><stop offset=".576" stop-color="#7b929e"/><stop offset=".731" stop-color="#6d8694"/><stop offset=".863" stop-color="#5a7785"/><stop offset=".981" stop-color="#426373"/><stop offset=".99" stop-color="#416271"/></linearGradient><linearGradient id="SVGID_7_" gradientUnits="userSpaceOnUse" x1="39.34" y1="19.953" x2="46.934" y2="19.953"><stop offset="0" stop-color="#869ba6"/><stop offset=".379" stop-color="#8399a4"/><stop offset=".576" stop-color="#7b929e"/><stop offset=".731" stop-color="#6d8694"/><stop offset=".863" stop-color="#5a7785"/><stop offset=".981" stop-color="#426373"/><stop offset=".99" stop-color="#416271"/></linearGradient><path class="st4" d="M44.2 23h1.3c.3 0 .6.1.8.2s.2.3.2.6-.1.5-.2.6-.4.2-.8.2h-4.6c-.4 0-.6-.1-.8-.2s-.2-.3-.2-.6.1-.5.2-.6.4-.2.8-.2h1.5v-5.9l-.9.2c-.1 0-.2 0-.3.1H41c-.2 0-.4-.1-.5-.2-.1-.1-.2-.3-.2-.5s.1-.3.2-.4.2-.3.5-.3l1.9-.5c.2 0 .3-.1.4-.1h.3c.2 0 .4.1.4.2.1.1.1.3.1.5V23z"/><linearGradient id="SVGID_8_" gradientUnits="userSpaceOnUse" x1="52.963" y1="19.953" x2="59.557" y2="19.953"><stop offset="0" stop-color="#869ba6"/><stop offset=".379" stop-color="#8399a4"/><stop offset=".576" stop-color="#7b929e"/><stop offset=".731" stop-color="#6d8694"/><stop offset=".863" stop-color="#5a7785"/><stop offset=".981" stop-color="#426373"/><stop offset=".99" stop-color="#416271"/></linearGradient><linearGradient id="SVGID_9_" gradientUnits="userSpaceOnUse" x1="52.463" y1="19.953" x2="60.057" y2="19.953"><stop offset="0" stop-color="#869ba6"/><stop offset=".379" stop-color="#8399a4"/><stop offset=".576" stop-color="#7b929e"/><stop offset=".731" stop-color="#6d8694"/><stop offset=".863" stop-color="#5a7785"/><stop offset=".981" stop-color="#426373"/><stop offset=".99" stop-color="#416271"/></linearGradient><path class="st5" d="M57.3 23h1.3c.3 0 .6.1.8.2s.2.3.2.6-.1.5-.2.6-.4.2-.8.2H54c-.4 0-.6-.1-.8-.2s-.2-.4-.2-.6c0-.3.1-.5.2-.6s.4-.2.8-.2h1.5v-5.9l-.9.2c-.1 0-.2 0-.3.1h-.2c-.2 0-.4-.1-.5-.2-.1-.1-.2-.3-.2-.5s.1-.3.2-.4.3-.2.6-.3l1.9-.5c.2 0 .3-.1.4-.1h.3c.2 0 .4.1.4.2.1.1.1.3.1.5V23z"/><linearGradient id="SVGID_10_" gradientUnits="userSpaceOnUse" x1="12.86" y1="33.076" x2="20.633" y2="33.076"><stop offset="0" stop-color="#869ba6"/><stop offset=".379" stop-color="#8399a4"/><stop offset=".576" stop-color="#7b929e"/><stop offset=".731" stop-color="#6d8694"/><stop offset=".863" stop-color="#5a7785"/><stop offset=".981" stop-color="#426373"/><stop offset=".99" stop-color="#416271"/></linearGradient><linearGradient id="SVGID_11_" gradientUnits="userSpaceOnUse" x1="12.36" y1="33.076" x2="21.133" y2="33.076"><stop offset="0" stop-color="#869ba6"/><stop offset=".379" stop-color="#8399a4"/><stop offset=".576" stop-color="#7b929e"/><stop offset=".731" stop-color="#6d8694"/><stop offset=".863" stop-color="#5a7785"/><stop offset=".981" stop-color="#426373"/><stop offset=".99" stop-color="#416271"/></linearGradient><path class="st6" d="M16.7 28.4c1.2 0 2.1.4 2.9 1.3.7.8 1.1 2 1.1 3.4s-.4 2.6-1.1 3.4c-.7.8-1.7 1.3-2.9 1.3s-2.1-.4-2.8-1.3c-.7-.8-1-2-1-3.4s.3-2.6 1-3.4c.7-.9 1.6-1.3 2.8-1.3zm0 1.6c-.6 0-1 .3-1.3.8s-.4 1.3-.4 2.3c0 1 .2 1.7.5 2.3.3.5.8.8 1.3.8.6 0 1-.3 1.3-.8.3-.5.5-1.3.5-2.3 0-1-.2-1.7-.5-2.2s-.8-.9-1.4-.9z"/><linearGradient id="SVGID_12_" gradientUnits="userSpaceOnUse" x1="26.717" y1="32.953" x2="33.311" y2="32.953"><stop offset="0" stop-color="#869ba6"/><stop offset=".379" stop-color="#8399a4"/><stop offset=".576" stop-color="#7b929e"/><stop offset=".731" stop-color="#6d8694"/><stop offset=".863" stop-color="#5a7785"/><stop offset=".981" stop-color="#426373"/><stop offset=".99" stop-color="#416271"/></linearGradient><linearGradient id="SVGID_13_" gradientUnits="userSpaceOnUse" x1="26.217" y1="32.953" x2="33.811" y2="32.953"><stop offset="0" stop-color="#869ba6"/><stop offset=".379" stop-color="#8399a4"/><stop offset=".576" stop-color="#7b929e"/><stop offset=".731" stop-color="#6d8694"/><stop offset=".863" stop-color="#5a7785"/><stop offset=".981" stop-color="#426373"/><stop offset=".99" stop-color="#416271"/></linearGradient><path class="st7" d="M31.1 36h1.3c.3 0 .6.1.8.2s.2.3.2.6-.1.5-.2.6c-.2.1-.4.2-.8.2h-4.6c-.4 0-.6-.1-.8-.2-.2-.1-.2-.3-.2-.6s.1-.5.2-.6c.2-.1.4-.2.8-.2h1.5v-5.9l-.9.2c-.1 0-.2 0-.3.1h-.2c-.2 0-.4-.1-.5-.2-.1-.1-.2-.3-.2-.5s.1-.3.2-.4c.1-.1.3-.2.6-.3l1.9-.5c.2 0 .3-.1.4-.1h.3c.2 0 .4.1.4.2.1.1.1.3.1.5V36z"/><linearGradient id="SVGID_14_" gradientUnits="userSpaceOnUse" x1="39.106" y1="33.076" x2="46.879" y2="33.076"><stop offset="0" stop-color="#869ba6"/><stop offset=".379" stop-color="#8399a4"/><stop offset=".576" stop-color="#7b929e"/><stop offset=".731" stop-color="#6d8694"/><stop offset=".863" stop-color="#5a7785"/><stop offset=".981" stop-color="#426373"/><stop offset=".99" stop-color="#416271"/></linearGradient><linearGradient id="SVGID_15_" gradientUnits="userSpaceOnUse" x1="38.606" y1="33.076" x2="47.379" y2="33.076"><stop offset="0" stop-color="#869ba6"/><stop offset=".379" stop-color="#8399a4"/><stop offset=".576" stop-color="#7b929e"/><stop offset=".731" stop-color="#6d8694"/><stop offset=".863" stop-color="#5a7785"/><stop offset=".981" stop-color="#426373"/><stop offset=".99" stop-color="#416271"/></linearGradient><path class="st8" d="M43 28.4c1.2 0 2.1.4 2.9 1.3.7.8 1.1 2 1.1 3.4s-.4 2.6-1.1 3.4c-.7.8-1.7 1.3-2.9 1.3s-2.1-.4-2.8-1.3c-.7-.8-1-2-1-3.4s.3-2.6 1-3.4c.6-.9 1.6-1.3 2.8-1.3zm0 1.6c-.6 0-1 .3-1.3.8s-.5 1.3-.5 2.2c0 1 .2 1.7.5 2.3.3.5.8.8 1.3.8s1-.3 1.3-.8c.3-.5.5-1.3.5-2.3 0-1-.2-1.7-.5-2.2s-.8-.8-1.3-.8z"/><linearGradient id="SVGID_16_" gradientUnits="userSpaceOnUse" x1="52.963" y1="32.953" x2="59.557" y2="32.953"><stop offset="0" stop-color="#869ba6"/><stop offset=".379" stop-color="#8399a4"/><stop offset=".576" stop-color="#7b929e"/><stop offset=".731" stop-color="#6d8694"/><stop offset=".863" stop-color="#5a7785"/><stop offset=".981" stop-color="#426373"/><stop offset=".99" stop-color="#416271"/></linearGradient><linearGradient id="SVGID_17_" gradientUnits="userSpaceOnUse" x1="52.463" y1="32.953" x2="60.057" y2="32.953"><stop offset="0" stop-color="#869ba6"/><stop offset=".379" stop-color="#8399a4"/><stop offset=".576" stop-color="#7b929e"/><stop offset=".731" stop-color="#6d8694"/><stop offset=".863" stop-color="#5a7785"/><stop offset=".981" stop-color="#426373"/><stop offset=".99" stop-color="#416271"/></linearGradient><path class="st9" d="M57.3 36h1.3c.3 0 .6.1.8.2s.2.3.2.6-.1.5-.2.6-.4.2-.8.2H54c-.4 0-.6-.1-.8-.2s-.2-.4-.2-.6c0-.3.1-.5.2-.6s.4-.2.8-.2h1.5v-5.9l-.9.2c-.1 0-.2 0-.3.1h-.2c-.2 0-.4-.1-.5-.2-.1-.1-.2-.3-.2-.5s.1-.3.2-.4.3-.2.6-.3l1.9-.5c.2 0 .3-.1.4-.1h.3c.2 0 .4.1.4.2.1.1.1.3.1.5V36z"/><linearGradient id="SVGID_18_" gradientUnits="userSpaceOnUse" x1="12.86" y1="46.076" x2="20.633" y2="46.076"><stop offset="0" stop-color="#869ba6"/><stop offset=".379" stop-color="#8399a4"/><stop offset=".576" stop-color="#7b929e"/><stop offset=".731" stop-color="#6d8694"/><stop offset=".863" stop-color="#5a7785"/><stop offset=".981" stop-color="#426373"/><stop offset=".99" stop-color="#416271"/></linearGradient><linearGradient id="SVGID_19_" gradientUnits="userSpaceOnUse" x1="12.36" y1="46.076" x2="21.133" y2="46.076"><stop offset="0" stop-color="#869ba6"/><stop offset=".379" stop-color="#8399a4"/><stop offset=".576" stop-color="#7b929e"/><stop offset=".731" stop-color="#6d8694"/><stop offset=".863" stop-color="#5a7785"/><stop offset=".981" stop-color="#426373"/><stop offset=".99" stop-color="#416271"/></linearGradient><path class="st10" d="M16.7 41.4c1.2 0 2.1.4 2.9 1.3.7.8 1.1 2 1.1 3.4s-.4 2.6-1.1 3.4c-.7.8-1.7 1.3-2.9 1.3s-2.1-.4-2.8-1.3c-.7-.8-1-2-1-3.4s.3-2.6 1-3.4c.7-.9 1.6-1.3 2.8-1.3zm0 1.6c-.6 0-1 .3-1.3.8s-.4 1.3-.4 2.3c0 1 .2 1.7.5 2.3.3.5.8.8 1.3.8.6 0 1-.3 1.3-.8.3-.5.5-1.3.5-2.3 0-1-.2-1.7-.5-2.2s-.8-.9-1.4-.9z"/><linearGradient id="SVGID_20_" gradientUnits="userSpaceOnUse" x1="26.717" y1="45.953" x2="33.311" y2="45.953"><stop offset="0" stop-color="#869ba6"/><stop offset=".379" stop-color="#8399a4"/><stop offset=".576" stop-color="#7b929e"/><stop offset=".731" stop-color="#6d8694"/><stop offset=".863" stop-color="#5a7785"/><stop offset=".981" stop-color="#426373"/><stop offset=".99" stop-color="#416271"/></linearGradient><linearGradient id="SVGID_21_" gradientUnits="userSpaceOnUse" x1="26.217" y1="45.953" x2="33.811" y2="45.953"><stop offset="0" stop-color="#869ba6"/><stop offset=".379" stop-color="#8399a4"/><stop offset=".576" stop-color="#7b929e"/><stop offset=".731" stop-color="#6d8694"/><stop offset=".863" stop-color="#5a7785"/><stop offset=".981" stop-color="#426373"/><stop offset=".99" stop-color="#416271"/></linearGradient><path class="st11" d="M31.1 49h1.3c.3 0 .6.1.8.2s.2.3.2.6-.1.5-.2.6c-.2.1-.4.2-.8.2h-4.6c-.4 0-.6-.1-.8-.2-.2-.1-.2-.3-.2-.6s.1-.5.2-.6c.2-.1.4-.2.8-.2h1.5v-5.9l-.9.2c-.1 0-.2 0-.3.1h-.2c-.2 0-.4-.1-.5-.2-.1-.1-.2-.3-.2-.5s.1-.3.2-.4c.1-.1.3-.2.6-.3l1.9-.5c.2 0 .3-.1.4-.1h.3c.2 0 .4.1.4.2.1.1.1.3.1.5V49z"/><linearGradient id="SVGID_22_" gradientUnits="userSpaceOnUse" x1="39.84" y1="45.953" x2="46.434" y2="45.953"><stop offset="0" stop-color="#869ba6"/><stop offset=".379" stop-color="#8399a4"/><stop offset=".576" stop-color="#7b929e"/><stop offset=".731" stop-color="#6d8694"/><stop offset=".863" stop-color="#5a7785"/><stop offset=".981" stop-color="#426373"/><stop offset=".99" stop-color="#416271"/></linearGradient><linearGradient id="SVGID_23_" gradientUnits="userSpaceOnUse" x1="39.34" y1="45.953" x2="46.934" y2="45.953"><stop offset="0" stop-color="#869ba6"/><stop offset=".379" stop-color="#8399a4"/><stop offset=".576" stop-color="#7b929e"/><stop offset=".731" stop-color="#6d8694"/><stop offset=".863" stop-color="#5a7785"/><stop offset=".981" stop-color="#426373"/><stop offset=".99" stop-color="#416271"/></linearGradient><path class="st12" d="M44.2 49h1.3c.3 0 .6.1.8.2s.2.3.2.6-.1.5-.2.6-.4.2-.8.2h-4.6c-.4 0-.6-.1-.8-.2s-.2-.3-.2-.6.1-.5.2-.6.4-.2.8-.2h1.5v-5.9l-.9.2c-.1 0-.2 0-.3.1H41c-.2 0-.4-.1-.5-.2-.1-.1-.2-.3-.2-.5s.1-.3.2-.4.2-.3.5-.3l1.9-.5c.2 0 .3-.1.4-.1h.3c.2 0 .4.1.4.2.1.1.1.3.1.5V49z"/><linearGradient id="SVGID_24_" gradientUnits="userSpaceOnUse" x1="52.229" y1="46.076" x2="60.002" y2="46.076"><stop offset="0" stop-color="#869ba6"/><stop offset=".379" stop-color="#8399a4"/><stop offset=".576" stop-color="#7b929e"/><stop offset=".731" stop-color="#6d8694"/><stop offset=".863" stop-color="#5a7785"/><stop offset=".981" stop-color="#426373"/><stop offset=".99" stop-color="#416271"/></linearGradient><linearGradient id="SVGID_25_" gradientUnits="userSpaceOnUse" x1="51.729" y1="46.076" x2="60.502" y2="46.076"><stop offset="0" stop-color="#869ba6"/><stop offset=".379" stop-color="#8399a4"/><stop offset=".576" stop-color="#7b929e"/><stop offset=".731" stop-color="#6d8694"/><stop offset=".863" stop-color="#5a7785"/><stop offset=".981" stop-color="#426373"/><stop offset=".99" stop-color="#416271"/></linearGradient><path class="st13" d="M56.1 41.4c1.2 0 2.1.4 2.9 1.3.7.8 1.1 2 1.1 3.4s-.4 2.6-1.1 3.4c-.7.8-1.7 1.3-2.9 1.3s-2.1-.4-2.8-1.3c-.7-.8-1-2-1-3.4s.3-2.6 1-3.4c.7-.9 1.6-1.3 2.8-1.3zm0 1.6c-.6 0-1 .3-1.3.8s-.5 1.3-.5 2.2c0 1 .2 1.7.5 2.3.3.5.8.8 1.3.8s1-.3 1.3-.8c.3-.5.5-1.3.5-2.3 0-1-.2-1.7-.5-2.2s-.7-.8-1.3-.8z"/><linearGradient id="SVGID_26_" gradientUnits="userSpaceOnUse" x1="13.594" y1="58.953" x2="20.188" y2="58.953"><stop offset="0" stop-color="#869ba6"/><stop offset=".379" stop-color="#8399a4"/><stop offset=".576" stop-color="#7b929e"/><stop offset=".731" stop-color="#6d8694"/><stop offset=".863" stop-color="#5a7785"/><stop offset=".981" stop-color="#426373"/><stop offset=".99" stop-color="#416271"/></linearGradient><linearGradient id="SVGID_27_" gradientUnits="userSpaceOnUse" x1="13.094" y1="58.953" x2="20.688" y2="58.953"><stop offset="0" stop-color="#869ba6"/><stop offset=".379" stop-color="#8399a4"/><stop offset=".576" stop-color="#7b929e"/><stop offset=".731" stop-color="#6d8694"/><stop offset=".863" stop-color="#5a7785"/><stop offset=".981" stop-color="#426373"/><stop offset=".99" stop-color="#416271"/></linearGradient><path class="st14" d="M17.9 62h1.3c.3 0 .6.1.8.2s.2.3.2.6-.1.5-.2.6c-.2.1-.4.2-.8.2h-4.6c-.4 0-.6-.1-.8-.2-.2-.1-.2-.3-.2-.6s.1-.5.2-.6c.2-.1.4-.2.8-.2H16v-5.9l-.9.2c-.1 0-.2 0-.3.1h-.2c-.2 0-.4-.1-.5-.2-.1-.1-.1-.3-.1-.5s.1-.3.2-.4c.1-.1.3-.2.6-.3l1.9-.5c.2 0 .3-.1.4-.1h.3c.2 0 .4.1.4.2.1.1.1.3.1.5V62z"/><linearGradient id="SVGID_28_" gradientUnits="userSpaceOnUse" x1="25.983" y1="59.076" x2="33.756" y2="59.076"><stop offset="0" stop-color="#869ba6"/><stop offset=".379" stop-color="#8399a4"/><stop offset=".576" stop-color="#7b929e"/><stop offset=".731" stop-color="#6d8694"/><stop offset=".863" stop-color="#5a7785"/><stop offset=".981" stop-color="#426373"/><stop offset=".99" stop-color="#416271"/></linearGradient><linearGradient id="SVGID_29_" gradientUnits="userSpaceOnUse" x1="25.483" y1="59.076" x2="34.256" y2="59.076"><stop offset="0" stop-color="#869ba6"/><stop offset=".379" stop-color="#8399a4"/><stop offset=".576" stop-color="#7b929e"/><stop offset=".731" stop-color="#6d8694"/><stop offset=".863" stop-color="#5a7785"/><stop offset=".981" stop-color="#426373"/><stop offset=".99" stop-color="#416271"/></linearGradient><path class="st15" d="M29.9 54.4c1.2 0 2.1.4 2.9 1.3.7.8 1.1 2 1.1 3.4s-.4 2.6-1.1 3.4c-.7.8-1.7 1.3-2.9 1.3s-2.1-.4-2.8-1.3c-.7-.8-1-2-1-3.4s.3-2.6 1-3.4c.6-.9 1.6-1.3 2.8-1.3zm0 1.6c-.6 0-1 .3-1.3.8-.3.5-.5 1.3-.5 2.2 0 1 .2 1.7.5 2.3.3.5.8.8 1.3.8.6 0 1-.3 1.3-.8.3-.5.5-1.3.5-2.3 0-1-.2-1.7-.5-2.2-.3-.5-.8-.8-1.3-.8z"/><linearGradient id="SVGID_30_" gradientUnits="userSpaceOnUse" x1="39.106" y1="59.076" x2="46.879" y2="59.076"><stop offset="0" stop-color="#869ba6"/><stop offset=".379" stop-color="#8399a4"/><stop offset=".576" stop-color="#7b929e"/><stop offset=".731" stop-color="#6d8694"/><stop offset=".863" stop-color="#5a7785"/><stop offset=".981" stop-color="#426373"/><stop offset=".99" stop-color="#416271"/></linearGradient><linearGradient id="SVGID_31_" gradientUnits="userSpaceOnUse" x1="38.606" y1="59.076" x2="47.379" y2="59.076"><stop offset="0" stop-color="#869ba6"/><stop offset=".379" stop-color="#8399a4"/><stop offset=".576" stop-color="#7b929e"/><stop offset=".731" stop-color="#6d8694"/><stop offset=".863" stop-color="#5a7785"/><stop offset=".981" stop-color="#426373"/><stop offset=".99" stop-color="#416271"/></linearGradient><path class="st16" d="M43 54.4c1.2 0 2.1.4 2.9 1.3.7.8 1.1 2 1.1 3.4s-.4 2.6-1.1 3.4c-.7.8-1.7 1.3-2.9 1.3s-2.1-.4-2.8-1.3c-.7-.8-1-2-1-3.4s.3-2.6 1-3.4c.6-.9 1.6-1.3 2.8-1.3zm0 1.6c-.6 0-1 .3-1.3.8-.3.5-.5 1.3-.5 2.2 0 1 .2 1.7.5 2.3.3.5.8.8 1.3.8s1-.3 1.3-.8c.3-.5.5-1.3.5-2.3 0-1-.2-1.7-.5-2.2-.3-.5-.8-.8-1.3-.8z"/><linearGradient id="SVGID_32_" gradientUnits="userSpaceOnUse" x1="52.963" y1="58.953" x2="59.557" y2="58.953"><stop offset="0" stop-color="#869ba6"/><stop offset=".379" stop-color="#8399a4"/><stop offset=".576" stop-color="#7b929e"/><stop offset=".731" stop-color="#6d8694"/><stop offset=".863" stop-color="#5a7785"/><stop offset=".981" stop-color="#426373"/><stop offset=".99" stop-color="#416271"/></linearGradient><linearGradient id="SVGID_33_" gradientUnits="userSpaceOnUse" x1="52.463" y1="58.953" x2="60.057" y2="58.953"><stop offset="0" stop-color="#869ba6"/><stop offset=".379" stop-color="#8399a4"/><stop offset=".576" stop-color="#7b929e"/><stop offset=".731" stop-color="#6d8694"/><stop offset=".863" stop-color="#5a7785"/><stop offset=".981" stop-color="#426373"/><stop offset=".99" stop-color="#416271"/></linearGradient><path class="st17" d="M57.3 62h1.3c.3 0 .6.1.8.2s.2.3.2.6-.1.5-.2.6-.4.2-.8.2H54c-.4 0-.6-.1-.8-.2s-.2-.4-.2-.6c0-.3.1-.5.2-.6s.4-.2.8-.2h1.5v-5.9l-.9.2c-.1 0-.2 0-.3.1h-.2c-.2 0-.4-.1-.5-.2-.1-.1-.2-.3-.2-.5s.1-.3.2-.4.3-.2.6-.3l1.9-.5c.2 0 .3-.1.4-.1h.3c.2 0 .4.1.4.2.1.1.1.3.1.5V62z"/><linearGradient id="SVGID_34_" gradientUnits="userSpaceOnUse" x1="45.037" y1="25.813" x2="58.537" y2="12.313" gradientTransform="translate(0 2)"><stop offset="0" stop-color="#fff"/><stop offset=".35" stop-color="#fafbfb"/><stop offset=".532" stop-color="#edf1f4"/><stop offset=".675" stop-color="#dde5e9"/><stop offset=".799" stop-color="#c7d3da"/><stop offset=".908" stop-color="#adbdc7"/><stop offset="1" stop-color="#92a5b0"/></linearGradient><path class="st18" d="M45 1l27 26.7H45V1z"/><path class="st19" d="M45 1l27 26.7H45V1z"/><g class="st20"><path class="st21" d="M13 71.5h8c1.6 0 2.8.1 3.5.2s1.5.4 2.1.8 1.1 1 1.5 1.7.6 1.5.6 2.3c0 .9-.3 1.8-.8 2.6s-1.2 1.4-2.1 1.8c1.2.4 2.2 1 2.8 1.8s1 1.9 1 3c0 .9-.2 1.8-.6 2.7s-1 1.5-1.7 2.1c-.7.5-1.6.8-2.7 1-.7.1-2.3.1-4.9.1H13V71.5zm4 3.3v4.6h2.7c1.6 0 2.6 0 2.9-.1.7-.1 1.2-.3 1.6-.7s.6-.9.6-1.6c0-.6-.2-1.1-.5-1.5s-.9-.6-1.5-.7c-.4 0-1.6-.1-3.5-.1H17zm0 8v5.4h3.7c1.5 0 2.4 0 2.8-.1.6-.1 1.1-.4 1.5-.8.4-.4.6-1 .6-1.7 0-.6-.1-1.1-.4-1.5-.3-.4-.7-.7-1.3-.9-.6-.2-1.7-.3-3.6-.3H17zm16.1 8.7v-20h4v20h-4zm7.9 0v-20h3.9l8.2 13.4V71.5h3.8v20h-4.1l-8.1-13.1v13.1H41z"/></g></svg>