<svg id="Layer_2" xmlns="http://www.w3.org/2000/svg" viewBox="0 0 72 100"><style>.st0{fill:url(#SVGID_1_)}.st1{fill-opacity:0;stroke:#7191a1;stroke-width:2}.st2{fill:url(#SVGID_2_)}.st3{fill-opacity:0;stroke:#7191a1;stroke-width:2;stroke-linejoin:bevel}.st4{enable-background:new}.st5{fill:#4c6c7b}</style><linearGradient id="SVGID_1_" gradientUnits="userSpaceOnUse" x1="36" y1="127.8" x2="36" y2="29.8" gradientTransform="translate(0 -29)"><stop offset="0" stop-color="#c8d4db"/><stop offset=".139" stop-color="#d8e1e6"/><stop offset=".359" stop-color="#ebf0f3"/><stop offset=".617" stop-color="#f9fafb"/><stop offset="1" stop-color="#fff"/></linearGradient><path class="st0" d="M45 .8l27 26.7v71.3H0V.8h45z"/><path class="st1" d="M45 .8l27 26.7v71.3H0V.8h45z"/><linearGradient id="SVGID_2_" gradientUnits="userSpaceOnUse" x1="45.075" y1="56.575" x2="58.575" y2="43.075" gradientTransform="translate(0 -29)"><stop offset="0" stop-color="#fff"/><stop offset=".35" stop-color="#fafbfb"/><stop offset=".532" stop-color="#edf1f4"/><stop offset=".675" stop-color="#dde5e9"/><stop offset=".799" stop-color="#c7d3da"/><stop offset=".908" stop-color="#adbdc7"/><stop offset="1" stop-color="#92a5b0"/></linearGradient><path class="st2" d="M45 .8l27 26.7H45V.8z"/><path class="st3" d="M45 .8l27 26.7H45V.8z"/><g class="st4"><path class="st5" d="M5.4 81.2h3.4c.7 0 1.2 0 1.5.1s.6.2.9.4.5.4.7.7.3.6.3 1-.1.8-.3 1.1-.5.6-.9.8c.5.2.9.4 1.2.8s.4.8.4 1.3c0 .4-.1.8-.3 1.1s-.4.7-.7.9-.7.4-1.2.4c-.3 0-1 .1-2.1.1H5.4v-8.7zm1.7 1.4v2h2.4c.3 0 .5-.1.7-.3s.3-.4.3-.7c0-.3-.1-.5-.2-.6s-.4-.3-.7-.3H7.1zm0 3.5v2.3h1.6c.6 0 1 0 1.2-.1.3 0 .5-.2.6-.3s.2-.4.2-.7c0-.3-.1-.5-.2-.7s-.3-.3-.5-.4-.7-.1-1.5-.1H7.1zm6.9 3.7v-8.6h3.7c.9 0 1.6.1 2 .2s.7.4 1 .8.4.8.4 1.4c0 .6-.2 1.2-.6 1.6s-.9.7-1.7.8c.4.2.7.5.9.7s.6.7 1 1.4l1 1.7h-2.1l-1.3-1.9c-.4-.7-.8-1.1-.9-1.3s-.3-.3-.5-.4-.5-.1-.9-.1h-.4v3.6H14zm1.8-5h1.3c.8 0 1.4 0 1.6-.1s.4-.2.5-.4.2-.4.2-.6c0-.3-.1-.5-.2-.7s-.4-.3-.7-.3h-2.7v2.1zm6.5.8c0-.9.1-1.6.4-2.2.2-.4.5-.8.8-1.2s.7-.6 1.1-.8c.5-.2 1.2-.3 1.9-.3 1.3 0 2.3.4 3 1.2s1.1 1.9 1.1 3.3-.4 2.5-1.1 3.3-1.8 1.2-3 1.2c-1.3 0-2.3-.4-3-1.2s-1.2-2-1.2-3.3zm1.8-.1c0 1 .2 1.7.7 2.2s1 .8 1.7.8 1.3-.2 1.7-.7.7-1.2.7-2.2c0-1-.2-1.7-.6-2.2s-1-.7-1.7-.7-1.3.2-1.7.7-.8 1.1-.8 2.1zm9.2 4.3l-2.1-8.6H33l1.3 5.9 1.6-5.9H38l1.5 6 1.3-6h1.7l-2.1 8.6h-1.8l-1.7-6.4-1.7 6.4h-1.9zm9.6-2.8l1.7-.2c.1.6.3 1 .6 1.2s.7.4 1.3.4c.6 0 1-.1 1.3-.4s.4-.5.4-.8c0-.2-.1-.4-.2-.5s-.3-.3-.6-.4c-.2-.1-.7-.2-1.4-.4-.9-.2-1.6-.5-2-.8-.5-.5-.8-1-.8-1.7 0-.4.1-.8.4-1.2s.6-.7 1.1-.9 1-.3 1.7-.3c1.1 0 1.9.2 2.4.7s.8 1.1.9 1.9l-1.7.1c-.1-.4-.2-.8-.5-1s-.6-.3-1.1-.3c-.5 0-.9.1-1.2.3-.2.1-.3.3-.3.5s.1.4.3.5c.2.2.8.4 1.6.6s1.5.4 1.9.6.7.5.9.9.3.8.3 1.4c0 .5-.1 1-.4 1.4s-.7.7-1.2 1-1.1.4-1.8.4c-1.1 0-1.9-.3-2.5-.8S43 88 42.9 87zm8.5 2.8v-8.6h6.4v1.5h-4.6v1.9h4.3V86h-4.3v2.3H58v1.4h-6.6zm8 0v-8.6H63c.9 0 1.6.1 2 .2s.7.4 1 .8.4.8.4 1.4c0 .6-.2 1.2-.6 1.6s-.9.7-1.7.8c.4.2.7.5.9.7s.6.7 1 1.4l1 1.7h-2l-1.3-1.9c-.4-.7-.8-1.1-.9-1.3s-.3-.3-.5-.4-.5-.1-.9-.1H61v3.6h-1.6zm1.7-5h1.3c.8 0 1.4 0 1.6-.1s.4-.2.5-.4.2-.4.2-.6c0-.3-.1-.5-.2-.7s-.4-.3-.7-.3h-2.7v2.1z"/></g></svg>