<?xml version="1.0" encoding="utf-8"?>
<svg version="1.1" id="Layer_1" xmlns="http://www.w3.org/2000/svg" xmlns:xlink="http://www.w3.org/1999/xlink" x="0px" y="0px" viewBox="0 0 72 100" style="enable-background:new 0 0 72 100;" xml:space="preserve">
    <style type="text/css">
	.st0{fill:url(#SVGID_1_);}
	.st1{fill-opacity:0;stroke:#7191A1;stroke-width:2;}
	.st2{opacity:0.9;}
	.st3{fill:url(#SVGID_2_);stroke:url(#SVGID_3_);stroke-width:1.5;stroke-miterlimit:10;}
	.st4{fill:url(#SVGID_4_);stroke:url(#SVGID_5_);stroke-width:1.5;stroke-miterlimit:10;}
	.st5{fill:url(#SVGID_6_);stroke:url(#SVGID_7_);stroke-width:1.5;stroke-miterlimit:10;}
	.st6{fill:url(#SVGID_8_);}
	.st7{fill-opacity:0;stroke:#7191A1;stroke-width:2;stroke-linejoin:bevel;}
	.st8{enable-background:new    ;}
	.st9{fill:#4C6C7B;}
</style>
    <g>
        <linearGradient id="SVGID_1_" gradientUnits="userSpaceOnUse" x1="36" y1="3" x2="36" y2="101" gradientTransform="matrix(1 0 0 -1 0 102)">
            <stop offset="0" style="stop-color:#C8D4DB"></stop>
            <stop offset="0.139" style="stop-color:#D8E1E6"></stop>
            <stop offset="0.359" style="stop-color:#EBF0F3"></stop>
            <stop offset="0.617" style="stop-color:#F9FAFB"></stop>
            <stop offset="1" style="stop-color:#FFFFFF"></stop>
        </linearGradient>
        <path class="st0" d="M45,1l27,26.7V99H0V1H45z"></path>
        <path class="st1" d="M45,1l27,26.7V99H0V1H45z"></path>
    </g>
    <g class="st2">
        <linearGradient id="SVGID_2_" gradientUnits="userSpaceOnUse" x1="19" y1="39.2069" x2="19" y2="67.3966" gradientTransform="matrix(1 0 0 -1 0 100)">
            <stop offset="0" style="stop-color:#ADCCDC"></stop>
            <stop offset="0.1534" style="stop-color:#9AB9C9"></stop>
            <stop offset="0.5292" style="stop-color:#708F9F"></stop>
            <stop offset="0.8242" style="stop-color:#567685"></stop>
            <stop offset="1" style="stop-color:#4C6C7B"></stop>
        </linearGradient>
        <linearGradient id="SVGID_3_" gradientUnits="userSpaceOnUse" x1="19" y1="37.5681" x2="19" y2="69.036" gradientTransform="matrix(1 0 0 -1 0 100)">
            <stop offset="0" style="stop-color:#ADCCDC"></stop>
            <stop offset="0.1534" style="stop-color:#9AB9C9"></stop>
            <stop offset="0.5292" style="stop-color:#708F9F"></stop>
            <stop offset="0.8242" style="stop-color:#567685"></stop>
            <stop offset="1" style="stop-color:#4C6C7B"></stop>
        </linearGradient>
        <path class="st3" d="M12,44.7l14-12.1v6.1l-9.5,7.9v0.1l9.5,7.9v6.1l-14-12V44.7z"></path>
        <linearGradient id="SVGID_4_" gradientUnits="userSpaceOnUse" x1="36.7" y1="35.5" x2="36.7" y2="70.5" gradientTransform="matrix(1 0 0 -1 0 100)">
            <stop offset="0" style="stop-color:#ADCCDC"></stop>
            <stop offset="0.1534" style="stop-color:#9AB9C9"></stop>
            <stop offset="0.5292" style="stop-color:#708F9F"></stop>
            <stop offset="0.8242" style="stop-color:#567685"></stop>
            <stop offset="1" style="stop-color:#4C6C7B"></stop>
        </linearGradient>
        <linearGradient id="SVGID_5_" gradientUnits="userSpaceOnUse" x1="36.7013" y1="34.75" x2="36.7013" y2="71.25" gradientTransform="matrix(1 0 0 -1 0 100)">
            <stop offset="0" style="stop-color:#ADCCDC"></stop>
            <stop offset="0.1534" style="stop-color:#9AB9C9"></stop>
            <stop offset="0.5292" style="stop-color:#708F9F"></stop>
            <stop offset="0.8242" style="stop-color:#567685"></stop>
            <stop offset="1" style="stop-color:#4C6C7B"></stop>
        </linearGradient>
        <path class="st4" d="M38.4,29.5h3.7l-7.2,35h-3.6L38.4,29.5z"></path>
        <linearGradient id="SVGID_6_" gradientUnits="userSpaceOnUse" x1="54.2" y1="38.9483" x2="54.2" y2="67.3103" gradientTransform="matrix(1 0 0 -1 0 100)">
            <stop offset="0" style="stop-color:#ADCCDC"></stop>
            <stop offset="0.1534" style="stop-color:#9AB9C9"></stop>
            <stop offset="0.5292" style="stop-color:#708F9F"></stop>
            <stop offset="0.8242" style="stop-color:#567685"></stop>
            <stop offset="1" style="stop-color:#4C6C7B"></stop>
        </linearGradient>
        <linearGradient id="SVGID_7_" gradientUnits="userSpaceOnUse" x1="54.2" y1="37.3073" x2="54.2" y2="68.946" gradientTransform="matrix(1 0 0 -1 0 100)">
            <stop offset="0" style="stop-color:#ADCCDC"></stop>
            <stop offset="0.1534" style="stop-color:#9AB9C9"></stop>
            <stop offset="0.5292" style="stop-color:#708F9F"></stop>
            <stop offset="0.8242" style="stop-color:#567685"></stop>
            <stop offset="1" style="stop-color:#4C6C7B"></stop>
        </linearGradient>
        <path class="st5" d="M47.2,54.8l9.5-7.9v-0.1l-9.5-7.9v-6.1l14,12.1V49l-14,12.1V54.8z"></path>
    </g>
    <g>
        <linearGradient id="SVGID_8_" gradientUnits="userSpaceOnUse" x1="45.0368" y1="74.1868" x2="58.5368" y2="87.6868" gradientTransform="matrix(1 0 0 -1 0 102)">
            <stop offset="0" style="stop-color:#FFFFFF"></stop>
            <stop offset="0.35" style="stop-color:#FAFBFB"></stop>
            <stop offset="0.532" style="stop-color:#EDF1F4"></stop>
            <stop offset="0.675" style="stop-color:#DDE5E9"></stop>
            <stop offset="0.799" style="stop-color:#C7D3DA"></stop>
            <stop offset="0.908" style="stop-color:#ADBDC7"></stop>
            <stop offset="1" style="stop-color:#92A5B0"></stop>
        </linearGradient>
        <path class="st6" d="M45,1l27,26.7H45V1z"></path>
        <path class="st7" d="M45,1l27,26.7H45V1z"></path>
    </g>
    <g class="st8">
        <path class="st9" d="M20.9,84.4l3.8,1.2c-0.6,2.1-1.6,3.7-2.9,4.7c-1.4,1-3.1,1.5-5.2,1.5c-2.6,0-4.7-0.9-6.4-2.6
		C8.5,87.4,7.7,85,7.7,82c0-3.2,0.8-5.7,2.5-7.5s3.9-2.7,6.6-2.7c2.4,0,4.3,0.7,5.8,2.1c0.9,0.8,1.6,2,2,3.6l-3.9,0.9
		c-0.2-1-0.7-1.8-1.4-2.4s-1.6-0.9-2.7-0.9c-1.4,0-2.6,0.5-3.5,1.5s-1.4,2.7-1.4,5c0,2.4,0.4,4.2,1.3,5.2c0.9,1,2,1.6,3.5,1.6
		c1,0,1.9-0.3,2.7-1C20,86.9,20.5,85.9,20.9,84.4z"></path>
        <path class="st9" d="M28.1,91.5V72.2h13.4v3.3H32v4.6h8.2v3.3H32v8.2L28.1,91.5L28.1,91.5z"></path>
        <path class="st9" d="M44.7,91.5V72.2h5.9l3.5,13.2l3.5-13.2h5.9v19.3h-3.7V76.3L56,91.5h-3.8l-3.9-15.2v15.2H44.7z"></path>
    </g>
</svg>