<?xml version="1.0" encoding="utf-8"?>
<svg version="1.1" id="Layer_2_1_" xmlns="http://www.w3.org/2000/svg" xmlns:xlink="http://www.w3.org/1999/xlink" x="0px" y="0px" viewBox="0 0 72 100" style="enable-background:new 0 0 72 100;" xml:space="preserve">
    <style type="text/css">
	.st0{fill:url(#SVGID_1_);}
	.st1{fill-opacity:0;stroke:#7191A1;stroke-width:2;}
	.st2{fill:url(#SVGID_2_);}
	.st3{fill-opacity:0;stroke:#7191A1;stroke-width:2;stroke-linejoin:bevel;}
	.st4{enable-background:new    ;}
	.st5{fill:#4C6C7B;}
	.st6{fill:url(#SVGID_3_);}
	.st7{fill:url(#SVGID_4_);}
	.st8{fill:url(#SVGID_5_);}
	.st9{fill:url(#SVGID_6_);}
	.st10{fill:url(#SVGID_7_);}
	.st11{fill:url(#SVGID_8_);}
	.st12{fill:url(#SVGID_9_);}
</style>
    <linearGradient id="SVGID_1_" gradientUnits="userSpaceOnUse" x1="36" y1="-27.8" x2="36" y2="70.2" gradientTransform="matrix(1 0 0 -1 0 71)">
        <stop offset="0" style="stop-color:#C8D4DB"></stop>
        <stop offset="0.139" style="stop-color:#D8E1E6"></stop>
        <stop offset="0.359" style="stop-color:#EBF0F3"></stop>
        <stop offset="0.617" style="stop-color:#F9FAFB"></stop>
        <stop offset="1" style="stop-color:#FFFFFF"></stop>
    </linearGradient>
    <path class="st0" d="M45,0.8l27,26.7v71.3H0v-98H45z"></path>
    <path class="st1" d="M45,0.8l27,26.7v71.3H0v-98H45z"></path>
    <linearGradient id="SVGID_2_" gradientUnits="userSpaceOnUse" x1="45.075" y1="43.425" x2="58.575" y2="56.925" gradientTransform="matrix(1 0 0 -1 0 71)">
        <stop offset="0" style="stop-color:#FFFFFF"></stop>
        <stop offset="0.35" style="stop-color:#FAFBFB"></stop>
        <stop offset="0.532" style="stop-color:#EDF1F4"></stop>
        <stop offset="0.675" style="stop-color:#DDE5E9"></stop>
        <stop offset="0.799" style="stop-color:#C7D3DA"></stop>
        <stop offset="0.908" style="stop-color:#ADBDC7"></stop>
        <stop offset="1" style="stop-color:#92A5B0"></stop>
    </linearGradient>
    <path class="st2" d="M45,0.8l27,26.7H45V0.8z"></path>
    <path class="st3" d="M45,0.8l27,26.7H45V0.8z"></path>
    <g class="st4">
        <path class="st5" d="M11.4,86.1l2,0.6c-0.3,1.1-0.8,1.9-1.5,2.4s-1.6,0.8-2.7,0.8c-1.3,0-2.4-0.5-3.3-1.4s-1.3-2.2-1.3-3.7
		c0-1.7,0.4-3,1.3-3.9s2-1.4,3.4-1.4c1.2,0,2.2,0.4,3,1.1c0.5,0.4,0.8,1,1,1.8l-2,0.5c-0.1-0.5-0.4-0.9-0.7-1.2s-0.8-0.5-1.4-0.5
		c-0.7,0-1.3,0.3-1.8,0.8s-0.7,1.4-0.7,2.6c0,1.3,0.2,2.2,0.7,2.7s1,0.8,1.8,0.8c0.5,0,1-0.2,1.4-0.5S11.2,86.8,11.4,86.1z
		 M14.7,84.9c0-1,0.2-1.9,0.5-2.6c0.2-0.5,0.5-1,0.9-1.4c0.4-0.4,0.8-0.7,1.3-0.9c0.6-0.3,1.3-0.4,2.2-0.4c1.5,0,2.7,0.5,3.5,1.4
		s1.3,2.2,1.3,3.8c0,1.6-0.4,2.9-1.3,3.8S21,90,19.5,90s-2.7-0.5-3.6-1.4C15.1,87.7,14.7,86.4,14.7,84.9z M16.7,84.8
		c0,1.1,0.3,2,0.8,2.6s1.2,0.9,2,0.9s1.5-0.3,2-0.9s0.8-1.5,0.8-2.6s-0.3-2-0.8-2.6s-1.2-0.8-2-0.8s-1.5,0.3-2,0.9
		C17,82.8,16.7,83.6,16.7,84.8z M25.9,89.8v-10h3l1.8,6.8l1.8-6.8h3v10h-1.9v-7.9l-2,7.9h-1.9l-2-7.9v7.9
		C27.7,89.8,25.9,89.8,25.9,89.8z M37.6,89.8v-10h3.2c1.2,0,2,0,2.4,0.2c0.6,0.2,1.1,0.5,1.4,1c0.4,0.5,0.6,1.2,0.6,2
		c0,0.6-0.1,1.1-0.3,1.6c-0.2,0.4-0.5,0.7-0.9,1c-0.3,0.2-0.7,0.4-1,0.5C42.6,86,41.9,86,41,86h-1.3v3.8
		C39.7,89.8,37.6,89.8,37.6,89.8z M39.6,81.5v2.8h1.1c0.8,0,1.3-0.1,1.6-0.2s0.5-0.3,0.6-0.5c0.2-0.2,0.2-0.5,0.2-0.8
		c0-0.4-0.1-0.7-0.3-0.9c-0.2-0.2-0.5-0.4-0.8-0.4c-0.2,0-0.7-0.1-1.5-0.1L39.6,81.5L39.6,81.5z M46.9,89.8v-10h2v10H46.9z
		 M50.9,89.8v-9.9h2v8.3h5v1.7L50.9,89.8L50.9,89.8z M59.4,89.8v-10h7.4v1.7h-5.4v2.2h5v1.7h-5v2.7H67v1.7L59.4,89.8L59.4,89.8z"></path>
    </g>
    <g>
        <linearGradient id="SVGID_3_" gradientUnits="userSpaceOnUse" x1="36" y1="69.1261" x2="36" y2="40.9654">
            <stop offset="0" style="stop-color:#ADCCDC"></stop>
            <stop offset="1" style="stop-color:#4C6C7B"></stop>
        </linearGradient>
        <path class="st6" d="M52.5,64.4c0-7.9,0-15.6,0-23.4c1.6,0,3.1,0,4.7,0c0,9.4,0,18.8,0,28.2c-14.1,0-28.2,0-42.3,0
		c0-9.4,0-18.8,0-28.2c1.5,0,3,0,4.7,0c0,7.9,0,15.6,0,23.4C30.5,64.4,41.4,64.4,52.5,64.4z"></path>
        <linearGradient id="SVGID_4_" gradientUnits="userSpaceOnUse" x1="35.9154" y1="40.6272" x2="35.9154" y2="29.1261">
            <stop offset="0" style="stop-color:#ADCCDC"></stop>
            <stop offset="1" style="stop-color:#4C6C7B"></stop>
        </linearGradient>
        <path class="st7" d="M24.4,29.1c7.7,0,15.5,0,23,0c-3.8,3.8-7.6,7.6-11.5,11.5C32.2,36.9,28.3,33,24.4,29.1z"></path>
        <linearGradient id="SVGID_5_" gradientUnits="userSpaceOnUse" x1="31.3066" y1="50.2678" x2="31.3066" y2="45.6166">
            <stop offset="0" style="stop-color:#ADCCDC"></stop>
            <stop offset="1" style="stop-color:#4C6C7B"></stop>
        </linearGradient>
        <path class="st8" d="M29,50.3c0-1.5,0-3.1,0-4.7c1.5,0,3.1,0,4.7,0c0,1.6,0,3.1,0,4.7C32,50.3,30.5,50.3,29,50.3z"></path>
        <linearGradient id="SVGID_6_" gradientUnits="userSpaceOnUse" x1="40.6934" y1="50.2678" x2="40.6934" y2="45.6166">
            <stop offset="0" style="stop-color:#ADCCDC"></stop>
            <stop offset="1" style="stop-color:#4C6C7B"></stop>
        </linearGradient>
        <path class="st9" d="M43,50.3c-1.5,0-3,0-4.7,0c0-1.5,0-3,0-4.7c1.5,0,3,0,4.7,0C43,47.1,43,48.7,43,50.3z"></path>
        <linearGradient id="SVGID_7_" gradientUnits="userSpaceOnUse" x1="26.5708" y1="59.6547" x2="26.5708" y2="55.0035">
            <stop offset="0" style="stop-color:#ADCCDC"></stop>
            <stop offset="1" style="stop-color:#4C6C7B"></stop>
        </linearGradient>
        <path class="st10" d="M24.2,55c1.5,0,3,0,4.7,0c0,1.5,0,3,0,4.7c-1.5,0-3,0-4.7,0C24.2,58.1,24.2,56.6,24.2,55z"></path>
        <linearGradient id="SVGID_8_" gradientUnits="userSpaceOnUse" x1="45.4292" y1="59.6547" x2="45.4292" y2="55.0035">
            <stop offset="0" style="stop-color:#ADCCDC"></stop>
            <stop offset="1" style="stop-color:#4C6C7B"></stop>
        </linearGradient>
        <path class="st11" d="M43.1,59.7c0-1.6,0-3,0-4.7c1.5,0,3.1,0,4.7,0c0,1.5,0,3,0,4.7C46.1,59.7,44.6,59.7,43.1,59.7z"></path>
        <linearGradient id="SVGID_9_" gradientUnits="userSpaceOnUse" x1="35.9577" y1="59.6547" x2="35.9577" y2="55.0035">
            <stop offset="0" style="stop-color:#ADCCDC"></stop>
            <stop offset="1" style="stop-color:#4C6C7B"></stop>
        </linearGradient>
        <path class="st12" d="M38.3,55c0,1.5,0,3,0,4.7c-1.5,0-3,0-4.7,0c0-1.5,0-3,0-4.7C35.2,55,36.8,55,38.3,55z"></path>
    </g>
</svg>