<svg id="Layer_2" xmlns="http://www.w3.org/2000/svg" viewBox="0 0 72 100"><style>.st0{fill:url(#SVGID_1_)}.st1{fill-opacity:0;stroke:#7191a1;stroke-width:2}.st2{fill:url(#SVGID_2_)}.st3{fill-opacity:0;stroke:#7191a1;stroke-width:2;stroke-linejoin:bevel}.st4{enable-background:new}.st5{fill:#4c6c7b}</style><linearGradient id="SVGID_1_" gradientUnits="userSpaceOnUse" x1="36" y1="127.8" x2="36" y2="29.8" gradientTransform="translate(0 -29)"><stop offset="0" stop-color="#c8d4db"/><stop offset=".139" stop-color="#d8e1e6"/><stop offset=".359" stop-color="#ebf0f3"/><stop offset=".617" stop-color="#f9fafb"/><stop offset="1" stop-color="#fff"/></linearGradient><path class="st0" d="M45 .8l27 26.7v71.3H0V.8h45z"/><path class="st1" d="M45 .8l27 26.7v71.3H0V.8h45z"/><linearGradient id="SVGID_2_" gradientUnits="userSpaceOnUse" x1="45.075" y1="56.575" x2="58.575" y2="43.075" gradientTransform="translate(0 -29)"><stop offset="0" stop-color="#fff"/><stop offset=".35" stop-color="#fafbfb"/><stop offset=".532" stop-color="#edf1f4"/><stop offset=".675" stop-color="#dde5e9"/><stop offset=".799" stop-color="#c7d3da"/><stop offset=".908" stop-color="#adbdc7"/><stop offset="1" stop-color="#92a5b0"/></linearGradient><path class="st2" d="M45 .8l27 26.7H45V.8z"/><path class="st3" d="M45 .8l27 26.7H45V.8z"/><g class="st4"><path class="st5" d="M16 86.1l2 .6c-.3 1.1-.8 1.9-1.5 2.4s-1.6.8-2.7.8c-1.3 0-2.4-.5-3.3-1.4-.9-.9-1.3-2.2-1.3-3.7 0-1.7.4-3 1.3-3.9.9-.9 2-1.4 3.4-1.4 1.2 0 2.2.4 3 1.1.5.4.8 1 1 1.8L16 83c-.1-.5-.4-.9-.7-1.2s-.8-.5-1.4-.5c-.7 0-1.3.3-1.8.8s-.7 1.4-.7 2.6c0 1.3.2 2.2.7 2.7s1 .8 1.8.8c.5 0 1-.2 1.4-.5s.6-.9.7-1.6zm3.3-1.2c0-1 .2-1.9.5-2.6.2-.5.5-1 .9-1.4s.8-.7 1.3-.9c.6-.3 1.3-.4 2.2-.4 1.5 0 2.7.5 3.5 1.4s1.3 2.2 1.3 3.8c0 1.6-.4 2.9-1.3 3.8-.9.9-2.1 1.4-3.5 1.4-1.5 0-2.7-.5-3.6-1.4-.8-.9-1.3-2.2-1.3-3.7zm2.1-.1c0 1.1.3 2 .8 2.6.5.6 1.2.9 2 .9s1.5-.3 2-.9c.5-.6.8-1.5.8-2.6s-.3-2-.8-2.6-1.2-.8-2-.8-1.5.3-2 .9c-.5.5-.8 1.3-.8 2.5zm9.2 5v-10h2l4.1 6.7v-6.7h1.9v10h-2l-4-6.5v6.5h-2zm10.1 0v-10h6.9v1.7h-4.8v2.4H47v1.7h-4.2v4.3h-2.1zm8.5 0v-10h2v10h-2zm8.6-3.7v-1.7h4.4v4c-.4.4-1 .8-1.8 1.1-.8.3-1.6.5-2.4.5-1 0-2-.2-2.7-.7-.8-.4-1.4-1.1-1.8-1.9-.4-.8-.6-1.7-.6-2.7 0-1 .2-2 .7-2.8s1.1-1.4 1.9-1.9c.6-.3 1.4-.5 2.4-.5 1.2 0 2.2.3 2.9.8.7.5 1.1 1.2 1.3 2.2l-2 .4c-.1-.5-.4-.9-.8-1.2-.4-.3-.9-.4-1.5-.4-.9 0-1.6.3-2.1.8-.5.6-.8 1.4-.8 2.5 0 1.2.3 2.1.8 2.7.5.6 1.2.9 2.1.9.4 0 .8-.1 1.3-.2.4-.2.8-.4 1.1-.6v-1.3h-2.4z"/></g></svg>