<?xml version="1.0" encoding="utf-8"?>
<svg version="1.1" id="Layer_1" xmlns="http://www.w3.org/2000/svg" xmlns:xlink="http://www.w3.org/1999/xlink" x="0px" y="0px" viewBox="0 0 72 100" style="enable-background:new 0 0 72 100;" xml:space="preserve">
    <style type="text/css">
	.st0{fill:url(#SVGID_1_);}
	.st1{fill:none;stroke:#24342D;stroke-width:2;}
	.st2{enable-background:new    ;}
	.st3{fill:#FFFFFF;}
	.st4{fill:url(#SVGID_2_);stroke:url(#SVGID_3_);stroke-miterlimit:10;}
	.st5{fill:url(#SVGID_4_);}
	.st6{fill:none;stroke:#24342D;stroke-width:2;stroke-linejoin:bevel;}
</style>
    <linearGradient id="SVGID_1_" gradientUnits="userSpaceOnUse" x1="36" y1="101.0003" x2="36" y2="3.0043" gradientTransform="matrix(1 0 0 -1 0 102)">
        <stop offset="0.1185" style="stop-color:#66E283"></stop>
        <stop offset="1" style="stop-color:#24342D"></stop>
    </linearGradient>
    <path class="st0" d="M45.1,1l27.2,26.7V99H-0.2V1H45.1z"></path>
    <path class="st1" d="M45.1,1l27.2,26.7V99H-0.2V1H45.1z"></path>
    <g class="st2">
        <path class="st3" d="M17.5,85.3l3.1,1c-0.5,1.7-1.3,3-2.4,3.8c-1.1,0.8-2.5,1.3-4.3,1.3c-2.1,0-3.9-0.7-5.2-2.1
		c-1.4-1.4-2.1-3.4-2.1-5.9c0-2.6,0.7-4.7,2.1-6.1c1.4-1.4,3.2-2.2,5.4-2.2c2,0,3.6,0.6,4.8,1.7c0.7,0.7,1.3,1.6,1.6,2.9l-3.2,0.8
		c-0.2-0.8-0.6-1.5-1.2-1.9s-1.3-0.7-2.2-0.7c-1.2,0-2.2,0.4-2.9,1.3S10,81.2,10,83.1c0,2,0.4,3.4,1.1,4.3c0.7,0.8,1.7,1.3,2.8,1.3
		c0.9,0,1.6-0.3,2.2-0.8S17.3,86.4,17.5,85.3z"></path>
        <path class="st3" d="M23.4,91.1V75.3h5.2c2,0,3.2,0.1,3.8,0.2c0.9,0.2,1.7,0.8,2.3,1.5c0.6,0.8,0.9,1.8,0.9,3.1
		c0,1-0.2,1.8-0.5,2.4s-0.8,1.2-1.4,1.6c-0.6,0.4-1.1,0.6-1.7,0.7c-0.8,0.2-1.9,0.2-3.4,0.2h-2.1v5.9H23.4z M26.7,78v4.5h1.8
		c1.3,0,2.1-0.1,2.6-0.2s0.8-0.4,1-0.8s0.4-0.8,0.4-1.2c0-0.6-0.2-1-0.5-1.4s-0.8-0.6-1.3-0.7C30.2,78,29.4,78,28.2,78H26.7z"></path>
        <path class="st3" d="M42,91.1V78h-4.8v-2.7h12.7V78h-4.7v13.1H42z"></path>
        <path class="st3" d="M50.4,91.1l5.5-8.2l-5-7.5h3.8l3.2,5.1l3.1-5.1h3.7l-5,7.6l5.5,8.1h-3.9l-3.6-5.4l-3.6,5.4H50.4z"></path>
    </g>
    <g transform="translate(0,-952.36218)">
        <linearGradient id="SVGID_2_" gradientUnits="userSpaceOnUse" x1="36.625" y1="1015.3622" x2="36.625" y2="974.6121">
            <stop offset="5.000000e-02" style="stop-color:#478555"></stop>
            <stop offset="0.2828" style="stop-color:#3F764C"></stop>
            <stop offset="0.4" style="stop-color:#3A6C46"></stop>
            <stop offset="0.969" style="stop-color:#1F3D26"></stop>
            <stop offset="0.9737" style="stop-color:#1F3D26"></stop>
        </linearGradient>
        <linearGradient id="SVGID_3_" gradientUnits="userSpaceOnUse" x1="36.625" y1="1015.8622" x2="36.625" y2="974.1121">
            <stop offset="5.000000e-02" style="stop-color:#478555"></stop>
            <stop offset="0.2828" style="stop-color:#3F764C"></stop>
            <stop offset="0.4" style="stop-color:#3A6C46"></stop>
            <stop offset="0.969" style="stop-color:#1F3D26"></stop>
            <stop offset="0.9737" style="stop-color:#1F3D26"></stop>
        </linearGradient>
        <path class="st4" d="M36.6,974.6c-11.3,0-20.4,9.1-20.4,20.4c0,11.3,9.1,20.4,20.4,20.4S57,1006.2,57,995
		C57,983.7,47.9,974.6,36.6,974.6z M40.5,979.4l-3.3,12.3h8.6l-13,18.8l3.3-12.3h-8.6L40.5,979.4z"></path>
    </g>
    <linearGradient id="SVGID_4_" gradientUnits="userSpaceOnUse" x1="45.1778" y1="74.1588" x2="58.7716" y2="87.7526" gradientTransform="matrix(1 0 0 -1 0 102)">
        <stop offset="0" style="stop-color:#D2E0D5"></stop>
        <stop offset="0.1277" style="stop-color:#CDE0D1"></stop>
        <stop offset="0.2739" style="stop-color:#BFE0C7"></stop>
        <stop offset="0.4292" style="stop-color:#A8E1B5"></stop>
        <stop offset="0.5897" style="stop-color:#89E19D"></stop>
        <stop offset="0.7319" style="stop-color:#66E283"></stop>
        <stop offset="1" style="stop-color:#24342D"></stop>
    </linearGradient>
    <path class="st5" d="M45.1,1l27.2,26.7H45.1V1z"></path>
    <path class="st6" d="M45.1,1l27.2,26.7H45.1V1z"></path>
</svg>