<svg id="Layer_1" xmlns="http://www.w3.org/2000/svg" viewBox="0 0 72 100"><linearGradient id="SVGID_1_" gradientUnits="userSpaceOnUse" x1="36" y1="97" x2="36" y2="-1" gradientTransform="translate(0 2)"><stop offset="0" stop-color="#c8d4db"/><stop offset=".139" stop-color="#d8e1e6"/><stop offset=".359" stop-color="#ebf0f3"/><stop offset=".617" stop-color="#f9fafb"/><stop offset="1" stop-color="#fff"/></linearGradient><path d="M45 1l27 26.7V99H0V1h45z" fill="url(#SVGID_1_)"/><path d="M45 1l27 26.7V99H0V1h45z" fill-opacity="0" stroke="#7191a1" stroke-width="2"/><linearGradient id="SVGID_2_" gradientUnits="userSpaceOnUse" x1="45.037" y1="25.813" x2="58.537" y2="12.313" gradientTransform="translate(0 2)"><stop offset="0" stop-color="#fff"/><stop offset=".35" stop-color="#fafbfb"/><stop offset=".532" stop-color="#edf1f4"/><stop offset=".675" stop-color="#dde5e9"/><stop offset=".799" stop-color="#c7d3da"/><stop offset=".908" stop-color="#adbdc7"/><stop offset="1" stop-color="#92a5b0"/></linearGradient><path d="M45 1l27 26.7H45V1z" fill="url(#SVGID_2_)"/><path d="M45 1l27 26.7H45V1z" fill-opacity="0" stroke="#7191a1" stroke-width="2" stroke-linejoin="bevel"/><path d="M11.6 72.2h7.2c1.6 0 2.9.1 3.7.4 1.1.3 2.1.9 2.9 1.8.8.9 1.4 1.9 1.9 3.1.4 1.2.6 2.8.6 4.6 0 1.6-.2 3-.6 4.1-.5 1.4-1.2 2.5-2.1 3.4-.7.7-1.6 1.2-2.8 1.5-.9.3-2 .4-3.5.4h-7.4V72.2zm3.9 3.3v12.8h2.9c1.1 0 1.9-.1 2.4-.2.6-.2 1.2-.4 1.6-.8.4-.4.8-1 1-1.9.3-.9.4-2 .4-3.5s-.1-2.6-.4-3.4c-.3-.8-.6-1.4-1.1-1.9-.5-.4-1.1-.8-1.8-.9-.6-.1-1.6-.2-3.2-.2h-1.8zm33.4 16h-4.3l-1.7-4.4h-7.8l-1.6 4.4h-4.2l7.6-19.3h4.2l7.8 19.3zm-7.3-7.6l-2.7-7.2-2.6 7.2h5.3zm11.7 7.6v-16h-5.8v-3.3H63v3.3h-5.8v16.1h-3.9z" fill="#4c6c7b"/><linearGradient id="SVGID_3_" gradientUnits="userSpaceOnUse" x1="13.594" y1="19.953" x2="20.188" y2="19.953"><stop offset="0" stop-color="#869ba6"/><stop offset=".379" stop-color="#8399a4"/><stop offset=".576" stop-color="#7b929e"/><stop offset=".731" stop-color="#6d8694"/><stop offset=".863" stop-color="#5a7785"/><stop offset=".981" stop-color="#426373"/><stop offset=".99" stop-color="#416271"/></linearGradient><linearGradient id="SVGID_4_" gradientUnits="userSpaceOnUse" x1="13.094" y1="19.953" x2="20.688" y2="19.953"><stop offset="0" stop-color="#869ba6"/><stop offset=".379" stop-color="#8399a4"/><stop offset=".576" stop-color="#7b929e"/><stop offset=".731" stop-color="#6d8694"/><stop offset=".863" stop-color="#5a7785"/><stop offset=".981" stop-color="#426373"/><stop offset=".99" stop-color="#416271"/></linearGradient><path d="M17.9 23h1.3c.3 0 .6.1.8.2s.2.3.2.6-.1.5-.2.6c-.2.1-.4.2-.8.2h-4.6c-.4 0-.6-.1-.8-.2-.2-.1-.2-.3-.2-.6s.1-.5.2-.6c.2-.1.4-.2.8-.2H16v-5.9l-.9.2c-.1 0-.2 0-.3.1h-.2c-.2 0-.4-.1-.5-.2-.1-.1-.1-.3-.1-.5s.1-.3.2-.4c.1-.1.3-.2.6-.3l1.9-.5c.2 0 .3-.1.4-.1h.3c.2 0 .4.1.4.2.1.1.1.3.1.5V23z" stroke-miterlimit="10" fill="url(#SVGID_3_)" stroke="url(#SVGID_4_)"/><linearGradient id="SVGID_5_" gradientUnits="userSpaceOnUse" x1="25.983" y1="20.076" x2="33.756" y2="20.076"><stop offset="0" stop-color="#869ba6"/><stop offset=".379" stop-color="#8399a4"/><stop offset=".576" stop-color="#7b929e"/><stop offset=".731" stop-color="#6d8694"/><stop offset=".863" stop-color="#5a7785"/><stop offset=".981" stop-color="#426373"/><stop offset=".99" stop-color="#416271"/></linearGradient><linearGradient id="SVGID_6_" gradientUnits="userSpaceOnUse" x1="25.483" y1="20.076" x2="34.256" y2="20.076"><stop offset="0" stop-color="#869ba6"/><stop offset=".379" stop-color="#8399a4"/><stop offset=".576" stop-color="#7b929e"/><stop offset=".731" stop-color="#6d8694"/><stop offset=".863" stop-color="#5a7785"/><stop offset=".981" stop-color="#426373"/><stop offset=".99" stop-color="#416271"/></linearGradient><path d="M29.9 15.4c1.2 0 2.1.4 2.9 1.3.7.8 1.1 2 1.1 3.4s-.4 2.6-1.1 3.4c-.7.8-1.7 1.3-2.9 1.3s-2.1-.4-2.8-1.3c-.7-.8-1-2-1-3.4s.3-2.6 1-3.4c.6-.9 1.6-1.3 2.8-1.3zm0 1.6c-.6 0-1 .3-1.3.8s-.5 1.3-.5 2.2c0 1 .2 1.7.5 2.3.3.5.8.8 1.3.8.6 0 1-.3 1.3-.8.3-.5.5-1.3.5-2.3 0-1-.2-1.7-.5-2.2s-.8-.8-1.3-.8z" fill="url(#SVGID_5_)" stroke="url(#SVGID_6_)" stroke-miterlimit="10"/><linearGradient id="SVGID_7_" gradientUnits="userSpaceOnUse" x1="39.84" y1="19.953" x2="46.434" y2="19.953"><stop offset="0" stop-color="#869ba6"/><stop offset=".379" stop-color="#8399a4"/><stop offset=".576" stop-color="#7b929e"/><stop offset=".731" stop-color="#6d8694"/><stop offset=".863" stop-color="#5a7785"/><stop offset=".981" stop-color="#426373"/><stop offset=".99" stop-color="#416271"/></linearGradient><linearGradient id="SVGID_8_" gradientUnits="userSpaceOnUse" x1="39.34" y1="19.953" x2="46.934" y2="19.953"><stop offset="0" stop-color="#869ba6"/><stop offset=".379" stop-color="#8399a4"/><stop offset=".576" stop-color="#7b929e"/><stop offset=".731" stop-color="#6d8694"/><stop offset=".863" stop-color="#5a7785"/><stop offset=".981" stop-color="#426373"/><stop offset=".99" stop-color="#416271"/></linearGradient><path d="M44.2 23h1.3c.3 0 .6.1.8.2s.2.3.2.6-.1.5-.2.6-.4.2-.8.2h-4.6c-.4 0-.6-.1-.8-.2s-.2-.3-.2-.6.1-.5.2-.6.4-.2.8-.2h1.5v-5.9l-.9.2c-.1 0-.2 0-.3.1H41c-.2 0-.4-.1-.5-.2-.1-.1-.2-.3-.2-.5s.1-.3.2-.4.2-.3.5-.3l1.9-.5c.2 0 .3-.1.4-.1h.3c.2 0 .4.1.4.2.1.1.1.3.1.5V23z" fill="url(#SVGID_7_)" stroke="url(#SVGID_8_)" stroke-miterlimit="10"/><linearGradient id="SVGID_9_" gradientUnits="userSpaceOnUse" x1="52.963" y1="19.953" x2="59.557" y2="19.953"><stop offset="0" stop-color="#869ba6"/><stop offset=".379" stop-color="#8399a4"/><stop offset=".576" stop-color="#7b929e"/><stop offset=".731" stop-color="#6d8694"/><stop offset=".863" stop-color="#5a7785"/><stop offset=".981" stop-color="#426373"/><stop offset=".99" stop-color="#416271"/></linearGradient><linearGradient id="SVGID_10_" gradientUnits="userSpaceOnUse" x1="52.463" y1="19.953" x2="60.057" y2="19.953"><stop offset="0" stop-color="#869ba6"/><stop offset=".379" stop-color="#8399a4"/><stop offset=".576" stop-color="#7b929e"/><stop offset=".731" stop-color="#6d8694"/><stop offset=".863" stop-color="#5a7785"/><stop offset=".981" stop-color="#426373"/><stop offset=".99" stop-color="#416271"/></linearGradient><path d="M57.3 23h1.3c.3 0 .6.1.8.2s.2.3.2.6-.1.5-.2.6-.4.2-.8.2H54c-.4 0-.6-.1-.8-.2s-.2-.4-.2-.6c0-.3.1-.5.2-.6s.4-.2.8-.2h1.5v-5.9l-.9.2c-.1 0-.2 0-.3.1h-.2c-.2 0-.4-.1-.5-.2-.1-.1-.2-.3-.2-.5s.1-.3.2-.4.3-.2.6-.3l1.9-.5c.2 0 .3-.1.4-.1h.3c.2 0 .4.1.4.2.1.1.1.3.1.5V23z" fill="url(#SVGID_9_)" stroke="url(#SVGID_10_)" stroke-miterlimit="10"/><linearGradient id="SVGID_11_" gradientUnits="userSpaceOnUse" x1="12.86" y1="33.076" x2="20.633" y2="33.076"><stop offset="0" stop-color="#869ba6"/><stop offset=".379" stop-color="#8399a4"/><stop offset=".576" stop-color="#7b929e"/><stop offset=".731" stop-color="#6d8694"/><stop offset=".863" stop-color="#5a7785"/><stop offset=".981" stop-color="#426373"/><stop offset=".99" stop-color="#416271"/></linearGradient><linearGradient id="SVGID_12_" gradientUnits="userSpaceOnUse" x1="12.36" y1="33.076" x2="21.133" y2="33.076"><stop offset="0" stop-color="#869ba6"/><stop offset=".379" stop-color="#8399a4"/><stop offset=".576" stop-color="#7b929e"/><stop offset=".731" stop-color="#6d8694"/><stop offset=".863" stop-color="#5a7785"/><stop offset=".981" stop-color="#426373"/><stop offset=".99" stop-color="#416271"/></linearGradient><path d="M16.7 28.4c1.2 0 2.1.4 2.9 1.3.7.8 1.1 2 1.1 3.4s-.4 2.6-1.1 3.4c-.7.8-1.7 1.3-2.9 1.3s-2.1-.4-2.8-1.3c-.7-.8-1-2-1-3.4s.3-2.6 1-3.4c.7-.9 1.6-1.3 2.8-1.3zm0 1.6c-.6 0-1 .3-1.3.8s-.4 1.3-.4 2.3c0 1 .2 1.7.5 2.3.3.5.8.8 1.3.8.6 0 1-.3 1.3-.8.3-.5.5-1.3.5-2.3 0-1-.2-1.7-.5-2.2s-.8-.9-1.4-.9z" stroke-miterlimit="10" fill="url(#SVGID_11_)" stroke="url(#SVGID_12_)"/><linearGradient id="SVGID_13_" gradientUnits="userSpaceOnUse" x1="26.717" y1="32.953" x2="33.311" y2="32.953"><stop offset="0" stop-color="#869ba6"/><stop offset=".379" stop-color="#8399a4"/><stop offset=".576" stop-color="#7b929e"/><stop offset=".731" stop-color="#6d8694"/><stop offset=".863" stop-color="#5a7785"/><stop offset=".981" stop-color="#426373"/><stop offset=".99" stop-color="#416271"/></linearGradient><linearGradient id="SVGID_14_" gradientUnits="userSpaceOnUse" x1="26.217" y1="32.953" x2="33.811" y2="32.953"><stop offset="0" stop-color="#869ba6"/><stop offset=".379" stop-color="#8399a4"/><stop offset=".576" stop-color="#7b929e"/><stop offset=".731" stop-color="#6d8694"/><stop offset=".863" stop-color="#5a7785"/><stop offset=".981" stop-color="#426373"/><stop offset=".99" stop-color="#416271"/></linearGradient><path d="M31.1 36h1.3c.3 0 .6.1.8.2s.2.3.2.6-.1.5-.2.6c-.2.1-.4.2-.8.2h-4.6c-.4 0-.6-.1-.8-.2-.2-.1-.2-.3-.2-.6s.1-.5.2-.6c.2-.1.4-.2.8-.2h1.5v-5.9l-.9.2c-.1 0-.2 0-.3.1h-.2c-.2 0-.4-.1-.5-.2-.1-.1-.2-.3-.2-.5s.1-.3.2-.4c.1-.1.3-.2.6-.3l1.9-.5c.2 0 .3-.1.4-.1h.3c.2 0 .4.1.4.2.1.1.1.3.1.5V36z" fill="url(#SVGID_13_)" stroke="url(#SVGID_14_)" stroke-miterlimit="10"/><linearGradient id="SVGID_15_" gradientUnits="userSpaceOnUse" x1="39.106" y1="33.076" x2="46.879" y2="33.076"><stop offset="0" stop-color="#869ba6"/><stop offset=".379" stop-color="#8399a4"/><stop offset=".576" stop-color="#7b929e"/><stop offset=".731" stop-color="#6d8694"/><stop offset=".863" stop-color="#5a7785"/><stop offset=".981" stop-color="#426373"/><stop offset=".99" stop-color="#416271"/></linearGradient><linearGradient id="SVGID_16_" gradientUnits="userSpaceOnUse" x1="38.606" y1="33.076" x2="47.379" y2="33.076"><stop offset="0" stop-color="#869ba6"/><stop offset=".379" stop-color="#8399a4"/><stop offset=".576" stop-color="#7b929e"/><stop offset=".731" stop-color="#6d8694"/><stop offset=".863" stop-color="#5a7785"/><stop offset=".981" stop-color="#426373"/><stop offset=".99" stop-color="#416271"/></linearGradient><path d="M43 28.4c1.2 0 2.1.4 2.9 1.3.7.8 1.1 2 1.1 3.4s-.4 2.6-1.1 3.4c-.7.8-1.7 1.3-2.9 1.3s-2.1-.4-2.8-1.3c-.7-.8-1-2-1-3.4s.3-2.6 1-3.4c.6-.9 1.6-1.3 2.8-1.3zm0 1.6c-.6 0-1 .3-1.3.8s-.5 1.3-.5 2.2c0 1 .2 1.7.5 2.3.3.5.8.8 1.3.8s1-.3 1.3-.8c.3-.5.5-1.3.5-2.3 0-1-.2-1.7-.5-2.2s-.8-.8-1.3-.8z" fill="url(#SVGID_15_)" stroke="url(#SVGID_16_)" stroke-miterlimit="10"/><linearGradient id="SVGID_17_" gradientUnits="userSpaceOnUse" x1="52.963" y1="32.953" x2="59.557" y2="32.953"><stop offset="0" stop-color="#869ba6"/><stop offset=".379" stop-color="#8399a4"/><stop offset=".576" stop-color="#7b929e"/><stop offset=".731" stop-color="#6d8694"/><stop offset=".863" stop-color="#5a7785"/><stop offset=".981" stop-color="#426373"/><stop offset=".99" stop-color="#416271"/></linearGradient><linearGradient id="SVGID_18_" gradientUnits="userSpaceOnUse" x1="52.463" y1="32.953" x2="60.057" y2="32.953"><stop offset="0" stop-color="#869ba6"/><stop offset=".379" stop-color="#8399a4"/><stop offset=".576" stop-color="#7b929e"/><stop offset=".731" stop-color="#6d8694"/><stop offset=".863" stop-color="#5a7785"/><stop offset=".981" stop-color="#426373"/><stop offset=".99" stop-color="#416271"/></linearGradient><path d="M57.3 36h1.3c.3 0 .6.1.8.2s.2.3.2.6-.1.5-.2.6-.4.2-.8.2H54c-.4 0-.6-.1-.8-.2s-.2-.4-.2-.6c0-.3.1-.5.2-.6s.4-.2.8-.2h1.5v-5.9l-.9.2c-.1 0-.2 0-.3.1h-.2c-.2 0-.4-.1-.5-.2-.1-.1-.2-.3-.2-.5s.1-.3.2-.4.3-.2.6-.3l1.9-.5c.2 0 .3-.1.4-.1h.3c.2 0 .4.1.4.2.1.1.1.3.1.5V36z" fill="url(#SVGID_17_)" stroke="url(#SVGID_18_)" stroke-miterlimit="10"/><linearGradient id="SVGID_19_" gradientUnits="userSpaceOnUse" x1="12.86" y1="46.076" x2="20.633" y2="46.076"><stop offset="0" stop-color="#869ba6"/><stop offset=".379" stop-color="#8399a4"/><stop offset=".576" stop-color="#7b929e"/><stop offset=".731" stop-color="#6d8694"/><stop offset=".863" stop-color="#5a7785"/><stop offset=".981" stop-color="#426373"/><stop offset=".99" stop-color="#416271"/></linearGradient><linearGradient id="SVGID_20_" gradientUnits="userSpaceOnUse" x1="12.36" y1="46.076" x2="21.133" y2="46.076"><stop offset="0" stop-color="#869ba6"/><stop offset=".379" stop-color="#8399a4"/><stop offset=".576" stop-color="#7b929e"/><stop offset=".731" stop-color="#6d8694"/><stop offset=".863" stop-color="#5a7785"/><stop offset=".981" stop-color="#426373"/><stop offset=".99" stop-color="#416271"/></linearGradient><path d="M16.7 41.4c1.2 0 2.1.4 2.9 1.3.7.8 1.1 2 1.1 3.4s-.4 2.6-1.1 3.4c-.7.8-1.7 1.3-2.9 1.3s-2.1-.4-2.8-1.3c-.7-.8-1-2-1-3.4s.3-2.6 1-3.4c.7-.9 1.6-1.3 2.8-1.3zm0 1.6c-.6 0-1 .3-1.3.8s-.4 1.3-.4 2.3c0 1 .2 1.7.5 2.3.3.5.8.8 1.3.8.6 0 1-.3 1.3-.8.3-.5.5-1.3.5-2.3 0-1-.2-1.7-.5-2.2s-.8-.9-1.4-.9z" stroke-miterlimit="10" fill="url(#SVGID_19_)" stroke="url(#SVGID_20_)"/><linearGradient id="SVGID_21_" gradientUnits="userSpaceOnUse" x1="26.717" y1="45.953" x2="33.311" y2="45.953"><stop offset="0" stop-color="#869ba6"/><stop offset=".379" stop-color="#8399a4"/><stop offset=".576" stop-color="#7b929e"/><stop offset=".731" stop-color="#6d8694"/><stop offset=".863" stop-color="#5a7785"/><stop offset=".981" stop-color="#426373"/><stop offset=".99" stop-color="#416271"/></linearGradient><linearGradient id="SVGID_22_" gradientUnits="userSpaceOnUse" x1="26.217" y1="45.953" x2="33.811" y2="45.953"><stop offset="0" stop-color="#869ba6"/><stop offset=".379" stop-color="#8399a4"/><stop offset=".576" stop-color="#7b929e"/><stop offset=".731" stop-color="#6d8694"/><stop offset=".863" stop-color="#5a7785"/><stop offset=".981" stop-color="#426373"/><stop offset=".99" stop-color="#416271"/></linearGradient><path d="M31.1 49h1.3c.3 0 .6.1.8.2s.2.3.2.6-.1.5-.2.6c-.2.1-.4.2-.8.2h-4.6c-.4 0-.6-.1-.8-.2-.2-.1-.2-.3-.2-.6s.1-.5.2-.6c.2-.1.4-.2.8-.2h1.5v-5.9l-.9.2c-.1 0-.2 0-.3.1h-.2c-.2 0-.4-.1-.5-.2-.1-.1-.2-.3-.2-.5s.1-.3.2-.4c.1-.1.3-.2.6-.3l1.9-.5c.2 0 .3-.1.4-.1h.3c.2 0 .4.1.4.2.1.1.1.3.1.5V49z" fill="url(#SVGID_21_)" stroke="url(#SVGID_22_)" stroke-miterlimit="10"/><linearGradient id="SVGID_23_" gradientUnits="userSpaceOnUse" x1="39.84" y1="45.953" x2="46.434" y2="45.953"><stop offset="0" stop-color="#869ba6"/><stop offset=".379" stop-color="#8399a4"/><stop offset=".576" stop-color="#7b929e"/><stop offset=".731" stop-color="#6d8694"/><stop offset=".863" stop-color="#5a7785"/><stop offset=".981" stop-color="#426373"/><stop offset=".99" stop-color="#416271"/></linearGradient><linearGradient id="SVGID_24_" gradientUnits="userSpaceOnUse" x1="39.34" y1="45.953" x2="46.934" y2="45.953"><stop offset="0" stop-color="#869ba6"/><stop offset=".379" stop-color="#8399a4"/><stop offset=".576" stop-color="#7b929e"/><stop offset=".731" stop-color="#6d8694"/><stop offset=".863" stop-color="#5a7785"/><stop offset=".981" stop-color="#426373"/><stop offset=".99" stop-color="#416271"/></linearGradient><path d="M44.2 49h1.3c.3 0 .6.1.8.2s.2.3.2.6-.1.5-.2.6-.4.2-.8.2h-4.6c-.4 0-.6-.1-.8-.2s-.2-.3-.2-.6.1-.5.2-.6.4-.2.8-.2h1.5v-5.9l-.9.2c-.1 0-.2 0-.3.1H41c-.2 0-.4-.1-.5-.2-.1-.1-.2-.3-.2-.5s.1-.3.2-.4.2-.3.5-.3l1.9-.5c.2 0 .3-.1.4-.1h.3c.2 0 .4.1.4.2.1.1.1.3.1.5V49z" fill="url(#SVGID_23_)" stroke="url(#SVGID_24_)" stroke-miterlimit="10"/><linearGradient id="SVGID_25_" gradientUnits="userSpaceOnUse" x1="52.229" y1="46.076" x2="60.002" y2="46.076"><stop offset="0" stop-color="#869ba6"/><stop offset=".379" stop-color="#8399a4"/><stop offset=".576" stop-color="#7b929e"/><stop offset=".731" stop-color="#6d8694"/><stop offset=".863" stop-color="#5a7785"/><stop offset=".981" stop-color="#426373"/><stop offset=".99" stop-color="#416271"/></linearGradient><linearGradient id="SVGID_26_" gradientUnits="userSpaceOnUse" x1="51.729" y1="46.076" x2="60.502" y2="46.076"><stop offset="0" stop-color="#869ba6"/><stop offset=".379" stop-color="#8399a4"/><stop offset=".576" stop-color="#7b929e"/><stop offset=".731" stop-color="#6d8694"/><stop offset=".863" stop-color="#5a7785"/><stop offset=".981" stop-color="#426373"/><stop offset=".99" stop-color="#416271"/></linearGradient><path d="M56.1 41.4c1.2 0 2.1.4 2.9 1.3.7.8 1.1 2 1.1 3.4s-.4 2.6-1.1 3.4c-.7.8-1.7 1.3-2.9 1.3s-2.1-.4-2.8-1.3c-.7-.8-1-2-1-3.4s.3-2.6 1-3.4c.7-.9 1.6-1.3 2.8-1.3zm0 1.6c-.6 0-1 .3-1.3.8s-.5 1.3-.5 2.2c0 1 .2 1.7.5 2.3.3.5.8.8 1.3.8s1-.3 1.3-.8c.3-.5.5-1.3.5-2.3 0-1-.2-1.7-.5-2.2s-.7-.8-1.3-.8z" fill="url(#SVGID_25_)" stroke="url(#SVGID_26_)" stroke-miterlimit="10"/><linearGradient id="SVGID_27_" gradientUnits="userSpaceOnUse" x1="13.594" y1="58.953" x2="20.188" y2="58.953"><stop offset="0" stop-color="#869ba6"/><stop offset=".379" stop-color="#8399a4"/><stop offset=".576" stop-color="#7b929e"/><stop offset=".731" stop-color="#6d8694"/><stop offset=".863" stop-color="#5a7785"/><stop offset=".981" stop-color="#426373"/><stop offset=".99" stop-color="#416271"/></linearGradient><linearGradient id="SVGID_28_" gradientUnits="userSpaceOnUse" x1="13.094" y1="58.953" x2="20.688" y2="58.953"><stop offset="0" stop-color="#869ba6"/><stop offset=".379" stop-color="#8399a4"/><stop offset=".576" stop-color="#7b929e"/><stop offset=".731" stop-color="#6d8694"/><stop offset=".863" stop-color="#5a7785"/><stop offset=".981" stop-color="#426373"/><stop offset=".99" stop-color="#416271"/></linearGradient><path d="M17.9 62h1.3c.3 0 .6.1.8.2s.2.3.2.6-.1.5-.2.6c-.2.1-.4.2-.8.2h-4.6c-.4 0-.6-.1-.8-.2-.2-.1-.2-.3-.2-.6s.1-.5.2-.6c.2-.1.4-.2.8-.2H16v-5.9l-.9.2c-.1 0-.2 0-.3.1h-.2c-.2 0-.4-.1-.5-.2-.1-.1-.1-.3-.1-.5s.1-.3.2-.4c.1-.1.3-.2.6-.3l1.9-.5c.2 0 .3-.1.4-.1h.3c.2 0 .4.1.4.2.1.1.1.3.1.5V62z" stroke-miterlimit="10" fill="url(#SVGID_27_)" stroke="url(#SVGID_28_)"/><linearGradient id="SVGID_29_" gradientUnits="userSpaceOnUse" x1="25.983" y1="59.076" x2="33.756" y2="59.076"><stop offset="0" stop-color="#869ba6"/><stop offset=".379" stop-color="#8399a4"/><stop offset=".576" stop-color="#7b929e"/><stop offset=".731" stop-color="#6d8694"/><stop offset=".863" stop-color="#5a7785"/><stop offset=".981" stop-color="#426373"/><stop offset=".99" stop-color="#416271"/></linearGradient><linearGradient id="SVGID_30_" gradientUnits="userSpaceOnUse" x1="25.483" y1="59.076" x2="34.256" y2="59.076"><stop offset="0" stop-color="#869ba6"/><stop offset=".379" stop-color="#8399a4"/><stop offset=".576" stop-color="#7b929e"/><stop offset=".731" stop-color="#6d8694"/><stop offset=".863" stop-color="#5a7785"/><stop offset=".981" stop-color="#426373"/><stop offset=".99" stop-color="#416271"/></linearGradient><path d="M29.9 54.4c1.2 0 2.1.4 2.9 1.3.7.8 1.1 2 1.1 3.4s-.4 2.6-1.1 3.4c-.7.8-1.7 1.3-2.9 1.3s-2.1-.4-2.8-1.3c-.7-.8-1-2-1-3.4s.3-2.6 1-3.4c.6-.9 1.6-1.3 2.8-1.3zm0 1.6c-.6 0-1 .3-1.3.8-.3.5-.5 1.3-.5 2.2 0 1 .2 1.7.5 2.3.3.5.8.8 1.3.8.6 0 1-.3 1.3-.8.3-.5.5-1.3.5-2.3 0-1-.2-1.7-.5-2.2-.3-.5-.8-.8-1.3-.8z" fill="url(#SVGID_29_)" stroke="url(#SVGID_30_)" stroke-miterlimit="10"/><linearGradient id="SVGID_31_" gradientUnits="userSpaceOnUse" x1="39.106" y1="59.076" x2="46.879" y2="59.076"><stop offset="0" stop-color="#869ba6"/><stop offset=".379" stop-color="#8399a4"/><stop offset=".576" stop-color="#7b929e"/><stop offset=".731" stop-color="#6d8694"/><stop offset=".863" stop-color="#5a7785"/><stop offset=".981" stop-color="#426373"/><stop offset=".99" stop-color="#416271"/></linearGradient><linearGradient id="SVGID_32_" gradientUnits="userSpaceOnUse" x1="38.606" y1="59.076" x2="47.379" y2="59.076"><stop offset="0" stop-color="#869ba6"/><stop offset=".379" stop-color="#8399a4"/><stop offset=".576" stop-color="#7b929e"/><stop offset=".731" stop-color="#6d8694"/><stop offset=".863" stop-color="#5a7785"/><stop offset=".981" stop-color="#426373"/><stop offset=".99" stop-color="#416271"/></linearGradient><path d="M43 54.4c1.2 0 2.1.4 2.9 1.3.7.8 1.1 2 1.1 3.4s-.4 2.6-1.1 3.4c-.7.8-1.7 1.3-2.9 1.3s-2.1-.4-2.8-1.3c-.7-.8-1-2-1-3.4s.3-2.6 1-3.4c.6-.9 1.6-1.3 2.8-1.3zm0 1.6c-.6 0-1 .3-1.3.8-.3.5-.5 1.3-.5 2.2 0 1 .2 1.7.5 2.3.3.5.8.8 1.3.8s1-.3 1.3-.8c.3-.5.5-1.3.5-2.3 0-1-.2-1.7-.5-2.2-.3-.5-.8-.8-1.3-.8z" fill="url(#SVGID_31_)" stroke="url(#SVGID_32_)" stroke-miterlimit="10"/><linearGradient id="SVGID_33_" gradientUnits="userSpaceOnUse" x1="52.963" y1="58.953" x2="59.557" y2="58.953"><stop offset="0" stop-color="#869ba6"/><stop offset=".379" stop-color="#8399a4"/><stop offset=".576" stop-color="#7b929e"/><stop offset=".731" stop-color="#6d8694"/><stop offset=".863" stop-color="#5a7785"/><stop offset=".981" stop-color="#426373"/><stop offset=".99" stop-color="#416271"/></linearGradient><linearGradient id="SVGID_34_" gradientUnits="userSpaceOnUse" x1="52.463" y1="58.953" x2="60.057" y2="58.953"><stop offset="0" stop-color="#869ba6"/><stop offset=".379" stop-color="#8399a4"/><stop offset=".576" stop-color="#7b929e"/><stop offset=".731" stop-color="#6d8694"/><stop offset=".863" stop-color="#5a7785"/><stop offset=".981" stop-color="#426373"/><stop offset=".99" stop-color="#416271"/></linearGradient><path d="M57.3 62h1.3c.3 0 .6.1.8.2s.2.3.2.6-.1.5-.2.6-.4.2-.8.2H54c-.4 0-.6-.1-.8-.2s-.2-.4-.2-.6c0-.3.1-.5.2-.6s.4-.2.8-.2h1.5v-5.9l-.9.2c-.1 0-.2 0-.3.1h-.2c-.2 0-.4-.1-.5-.2-.1-.1-.2-.3-.2-.5s.1-.3.2-.4.3-.2.6-.3l1.9-.5c.2 0 .3-.1.4-.1h.3c.2 0 .4.1.4.2.1.1.1.3.1.5V62z" fill="url(#SVGID_33_)" stroke="url(#SVGID_34_)" stroke-miterlimit="10"/></svg>