<?xml version="1.0" encoding="utf-8"?>
<svg version="1.1" id="Layer_1" xmlns="http://www.w3.org/2000/svg" xmlns:xlink="http://www.w3.org/1999/xlink" x="0px" y="0px" viewBox="0 0 72 100" style="enable-background:new 0 0 72 100;" xml:space="preserve">
    <style type="text/css">
	.st0{fill:url(#SVGID_1_);}
	.st1{fill-opacity:0;stroke:#7191A1;stroke-width:2;}
	.st2{fill:url(#SVGID_2_);}
	.st3{enable-background:new    ;}
	.st4{fill:#4C6C7B;}
	.st5{fill:url(#SVGID_3_);}
	.st6{fill-opacity:0;stroke:#7191A1;stroke-width:2;stroke-linejoin:bevel;}
</style>
    <g>
        <linearGradient id="SVGID_1_" gradientUnits="userSpaceOnUse" x1="36.108" y1="3.0033" x2="36.108" y2="101.0009" gradientTransform="matrix(1 0 0 -1 0 102)">
            <stop offset="0" style="stop-color:#C8D4DB"></stop>
            <stop offset="0.139" style="stop-color:#D8E1E6"></stop>
            <stop offset="0.359" style="stop-color:#EBF0F3"></stop>
            <stop offset="0.617" style="stop-color:#F9FAFB"></stop>
            <stop offset="1" style="stop-color:#FFFFFF"></stop>
        </linearGradient>
        <path class="st0" d="M45.1,1L72,27.7V99H0.2V1H45.1z"></path>
        <path class="st1" d="M45.1,1L72,27.7V99H0.2V1H45.1z"></path>
    </g>
    <g transform="translate(0,-952.36216)">
        <linearGradient id="SVGID_2_" gradientUnits="userSpaceOnUse" x1="37.25" y1="1015.5629" x2="37.25" y2="979.1615">
            <stop offset="0" style="stop-color:#ADCCDC"></stop>
            <stop offset="1" style="stop-color:#4C6C7B"></stop>
        </linearGradient>
        <path class="st2" d="M56.2,979.2c-3,0-2.2,3-2.8,4.4c-0.2,0.6-0.6,1.4-0.9,2.2l0.2-0.5c-0.2,0.4-0.3,0.6-0.9,0.9c0,0-2,1.2-4,2.4
		c-2.2-3.8-6.2-6.1-10.7-6.2c-4.4,0-8.5,2.4-10.6,6.2c-2-1.2-4-2.4-4-2.4c-0.5-0.3-0.7-0.5-0.9-0.9l0.2,0.5
		c-0.3-0.8-0.7-1.6-0.9-2.2c-0.5-1.4,0.3-4.4-2.8-4.4c-3,0-2.5,4.1-3.4,5.7c-0.6,1-2.4,2-3.2,3.3c-0.1,0.1-0.1,0.2-0.1,0.3
		c-0.3,0.6-0.4,1.4,0.1,2.2c1.5,2.6,3.7,0.4,5.1,0.2c0.6-0.1,1.5-0.1,2.4-0.3l-0.6,0.1c0.4-0.1,0.7,0,1.2,0.3c0,0,2.3,1.2,5.2,2.9
		c0,0.2,0,0.5,0,0.7c0,2.3,0.7,4.5,1.9,6.5c-4,2.4-7.4,4.5-7.4,4.5c-0.5,0.3-0.8,0.4-1.2,0.4l0.5,0c-0.8,0-1.6,0-2.2,0
		c-1.3,0-3.2-1.7-4.9,0.7c-1.7,2.3,1.8,3.3,2.5,4.5c0.7,1.2-0.2,4.7,2.7,4.5c2.9-0.3,2.4-2.7,3-3.9c0.3-0.5,0.7-1.2,1.1-1.9
		l-0.3,0.5c0.2-0.4,0.4-0.5,0.9-0.8c0,0,3.3-1.8,7.1-3.9v5.4c1,0.4,2,0.7,3.1,0.9v-2.9c0.5,0.1,1,0.2,1.5,0.3v2.9
		c1,0.2,2.1,0.3,3.1,0.3v-2.9c0.3,0,0.5,0,0.8,0c0.3,0,0.5,0,0.8,0v2.9c1,0,2.1-0.1,3.1-0.3v-2.9c0.5-0.1,1.1-0.2,1.5-0.3v2.9
		c1.1-0.2,2.1-0.6,3.1-0.9v-5.4c3.8,2.1,7.1,3.9,7.1,3.9c0.5,0.3,0.7,0.5,0.9,0.8c0.3,0.6,0.6,1.1,0.8,1.4c0.6,1.2,0.2,3.6,3,3.9
		c2.9,0.3,2-3.2,2.7-4.5c0.7-1.2,4.2-2.2,2.5-4.5c-1.7-2.3-3.5-0.7-4.9-0.7c-0.6,0-1.4,0-2.2,0l0.5,0c-0.4,0-0.7-0.1-1.2-0.4
		c0,0-3.5-2.1-7.4-4.5c1.2-1.9,1.9-4.2,1.9-6.5c0-0.2,0-0.5,0-0.7c2.9-1.6,5.2-2.9,5.2-2.9c0.5-0.3,0.8-0.3,1.2-0.3l-0.6-0.1
		c0.9,0.1,1.8,0.2,2.4,0.3c1.4,0.2,3.6,2.4,5.1-0.2c1.5-2.6-2.3-4.2-3.2-5.8c-0.6-1-0.6-3.1-1.3-4.4c0-0.1-0.1-0.2-0.2-0.3
		C57.8,979.6,57.2,979.2,56.2,979.2L56.2,979.2z M32.7,993.4c0.3,0,0.5,0,0.8,0.1c1.7,0.5,2.1,2,1.7,3.7c-0.4,1.7-2.2,2.7-3.9,2.2
		c-1.7-0.5-2.2-2-1.7-3.7C29.9,994.3,31.3,993.4,32.7,993.4L32.7,993.4z M41.8,993.4c1.4,0,2.8,0.9,3.1,2.3c0.4,1.7,0,3.3-1.7,3.7
		c-1.7,0.5-3.4-0.5-3.9-2.2c-0.4-1.7,0-3.2,1.7-3.7C41.3,993.4,41.6,993.4,41.8,993.4L41.8,993.4z M37.2,1001.2
		c0.5,0,2.5,2.6,2.3,2.9c-0.2,0.3-4.3,0.3-4.5,0C34.8,1003.9,36.8,1001.2,37.2,1001.2z"></path>
    </g>
    <g class="st3">
        <path class="st4" d="M16.3,71.2h7.4c1.7,0,2.9,0.1,3.8,0.4c1.2,0.3,2.2,1,3,1.8c0.8,0.9,1.5,1.9,1.9,3.2s0.7,2.8,0.7,4.7
		c0,1.6-0.2,3-0.6,4.2c-0.5,1.4-1.2,2.6-2.1,3.5c-0.7,0.7-1.6,1.2-2.8,1.6c-0.9,0.3-2.1,0.4-3.6,0.4h-7.6V71.2z M20.3,74.6v13.1h3
		c1.1,0,1.9-0.1,2.4-0.2c0.7-0.2,1.2-0.4,1.6-0.8c0.4-0.4,0.8-1,1.1-1.9s0.4-2.1,0.4-3.6s-0.1-2.7-0.4-3.5s-0.7-1.5-1.1-1.9
		c-0.5-0.5-1.1-0.8-1.9-0.9c-0.6-0.1-1.7-0.2-3.3-0.2H20.3z"></path>
        <path class="st4" d="M36.3,91.1V71.2h4v19.8H36.3z"></path>
        <path class="st4" d="M42.5,91.1v-3.6l10.5-12.9h-9.3v-3.4h14.6v3.1L47.3,87.7h11.4v3.3H42.5z"></path>
    </g>
    <g>
        <linearGradient id="SVGID_3_" gradientUnits="userSpaceOnUse" x1="45.1216" y1="74.2293" x2="58.5748" y2="87.6825" gradientTransform="matrix(1 0 0 -1 0 102)">
            <stop offset="0" style="stop-color:#FFFFFF"></stop>
            <stop offset="0.35" style="stop-color:#FAFBFB"></stop>
            <stop offset="0.532" style="stop-color:#EDF1F4"></stop>
            <stop offset="0.675" style="stop-color:#DDE5E9"></stop>
            <stop offset="0.799" style="stop-color:#C7D3DA"></stop>
            <stop offset="0.908" style="stop-color:#ADBDC7"></stop>
            <stop offset="1" style="stop-color:#92A5B0"></stop>
        </linearGradient>
        <path class="st5" d="M45.1,1L72,27.7H45.1V1z"></path>
        <path class="st6" d="M45.1,1L72,27.7H45.1V1z"></path>
    </g>
</svg>