<svg id="Layer_1" xmlns="http://www.w3.org/2000/svg" viewBox="0 0 72 100"><style>.st0{fill:url(#SVGID_1_)}.st1{fill-opacity:0;stroke:#7191a1;stroke-width:2}.st2{enable-background:new}.st3{fill:#4c6c7b}.st4{fill:url(#SVGID_2_)}.st5{fill:url(#SVGID_3_)}.st6{fill-opacity:0;stroke:#7191a1;stroke-width:2;stroke-linejoin:bevel}</style><linearGradient id="SVGID_1_" gradientUnits="userSpaceOnUse" x1="36" y1="3.125" x2="36" y2="100.875" gradientTransform="matrix(1 0 0 -1 0 102)"><stop offset="0" stop-color="#c8d4db"/><stop offset=".139" stop-color="#d8e1e6"/><stop offset=".359" stop-color="#ebf0f3"/><stop offset=".617" stop-color="#f9fafb"/><stop offset="1" stop-color="#fff"/></linearGradient><path class="st0" d="M45 1.1l27 26.7v71.1H0V1.1h45z"/><path class="st1" d="M45 1.1l27 26.7v71.1H0V1.1h45z"/><g class="st2"><path class="st3" d="M10.8 70.9h7.4c1.7 0 2.9.1 3.8.4 1.2.3 2.2 1 3 1.8.8.9 1.5 1.9 1.9 3.2s.7 2.8.7 4.7c0 1.6-.2 3-.6 4.2-.5 1.4-1.2 2.6-2.2 3.5-.7.7-1.7 1.2-2.9 1.6-.9.3-2.1.4-3.6.4h-7.6V70.9zm4.1 3.4v13.1h3c1.1 0 2-.1 2.5-.2.7-.2 1.2-.4 1.6-.8.4-.4.8-1 1.1-1.9.3-.9.4-2.1.4-3.6s-.1-2.7-.4-3.5c-.3-.8-.7-1.5-1.2-1.9-.5-.5-1.1-.8-1.9-.9-.6-.1-1.7-.2-3.3-.2h-1.8zm16.2 16.5V70.9h6.5c2.5 0 4.1.1 4.8.3 1.2.3 2.1.9 2.9 1.9.8 1 1.2 2.3 1.2 3.9 0 1.2-.2 2.2-.7 3.1-.4.8-1 1.5-1.7 2s-1.4.8-2.1.9c-1 .2-2.4.3-4.2.3h-2.6v7.5h-4.1zm4.1-16.5v5.6h2.2c1.6 0 2.7-.1 3.2-.3.5-.2 1-.5 1.3-1 .3-.4.5-1 .5-1.5 0-.7-.2-1.3-.6-1.8-.4-.5-1-.8-1.6-.9-.5-.1-1.5-.1-2.9-.1h-2.1zm21.9-3.4h4v12.6c0 1.6-.1 2.9-.4 3.8-.4 1.2-1.1 2.1-2.1 2.8-1 .7-2.4 1-4.1 1-2 0-3.5-.5-4.6-1.6-1.1-1.1-1.6-2.7-1.6-4.8l3.8-.4c0 1.1.2 1.9.5 2.4.4.7 1.1 1.1 2 1.1.9 0 1.5-.3 1.9-.8.4-.5.6-1.6.6-3.2V70.9z"/></g><linearGradient id="SVGID_2_" gradientUnits="userSpaceOnUse" x1="34.911" y1="37.81" x2="34.911" y2="88.05" gradientTransform="matrix(1 0 0 -1 0 102)"><stop offset="0" stop-color="#adccdc"/><stop offset="1" stop-color="#4c6c7b"/></linearGradient><path class="st4" d="M48.3 41.2c3-.9 5.9.9 5.6 3.7-.3 3.2-4.4 4.7-6.9 5.5l.1-.2-.2-.1c1.7-1.3 5.2-3 5-6-.1-1.6-1.4-2.8-3.6-2.7v-.2zm-21.6.6l.1-.2c-1.3 0-2.5.5-3.6.9s-2.4.6-2.9 1.7c.6.9 1.9.9 3.2 1.1 4.6.7 11.1.6 15.7 0 2.4-.3 4.5-.6 5.6-1.6l-.2-.1.1-.2c-4.6.6-10.5 1.4-15.9 1.1-1.8-.1-4-.1-4.9-1.1.6-.9 1.9-1.1 2.8-1.6zm26.7 18.6v-.2c-6.8 3.4-17.7 3.8-27.5 3l.1.2-.1.2c4 .7 9.3.9 14.3.6 4.9-.3 11-.9 13.3-3.6l-.1-.2zM34.1 40h.2c-1.1-2.4-3.1-3.5-3.4-6.2-.3-2.5 1-4.1 2.1-5.3 1.5-1.6 3.6-2.9 5.2-4.6 2.1-2.4 4.6-5.9 2.5-9.4l-.2.1-.2-.1c.5 3.3-.8 5.4-2.5 7.2-1.4 1.6-3.5 3-5.3 4.3-2.1 1.7-4.9 3.9-4.2 7 .7 3.1 3.7 5.1 5.5 7.1l.3-.1zm10.7-15.4l-.1-.2c-3.6 1.4-9 3.5-9.5 7.6-.2 2 .6 3.5 1.2 4.4.5.8 1.5 1.4 1.8 2.5.3 1.1 0 2.2-.3 2.9h.2l.1.2c1.5-1.1 2.9-2.6 2.6-4.5s-2.6-3.4-2.8-5.1c-.2-1.1.2-2 .6-2.6 1.3-2.1 4.5-3.7 6.2-5.2zM26.3 47.7l-.1-.2c-.7.4-2 .6-1.9 1.6s2 1.3 3 1.6c5 1.1 12.3.4 16-.8l-.1-.2.2-.1c-.4-.1-1-.9-1.7-1-.7-.1-2.1.4-3.5.6-2.1.3-4.4.4-6.5.3-1.6-.1-6.1-.1-5.4-1.8zm1.2 5.5l.1-.2c-.8.3-1.7.5-1.7 1.5 0 .8 1.6 1.4 2.5 1.7 4.4 1.4 11.4.5 14.6-.9-.3-.4-.8-.6-1.2-.8-.5-.2-1-.4-1.5-.7-2.7.7-6.9.9-10 .6-.9-.1-2.3-.1-2.5-1.1l-.3-.1zm23.8 4.2l-.2-.1c-.2 1.3-1.7 1.5-2.8 1.8-1.2.3-2.6.5-4 .7-6.6.8-15.4 1.2-21.8 0-1.2-.2-2.9-.5-3.3-1.5.6-1 2-1.1 3.2-1.6l-.1-.2.1-.2c-1.6.1-2.8.5-4 1-1 .4-2.3.9-2.5 2 .8 1.1 2.4 1.1 3.8 1.4 8.9 1.3 21 1.6 28.7-1 1.4-.5 4.1-1.4 2.8-2.6l.1.3zm-5-6.8c.3 0 .6-.2.9-.3m1.2-8.9c-.3 0-.6.1-.9.2m-2.9 2.1c.2 0 .3-.1.5-.2m-16.7-2c-.6.1-1.1.2-1.7.3m-3 21c.7.3 1.5.3 2.3.5m27.4-2.9c.2-.1.3-.3.4-.5M40.6 14.6c0-.2-.1-.4-.1-.6m-6.4 26c.2.2.4.5.6.7m3 1.6c.1-.2.3-.3.4-.5m7.7-17.6c-.4.1-.7.3-1 .5m-1.5 25h.3m-17-2.4c0 .2-.3.1-.3.3m1.2 5.6c.1-.1.2-.1.2-.2m-3.8 3.6c-.5 0-.9.1-1.4.1m28.8.7c0-.1-.1-.2-.1-.2h-.1"/><linearGradient id="SVGID_3_" gradientUnits="userSpaceOnUse" x1="45.085" y1="74.131" x2="58.585" y2="87.631" gradientTransform="matrix(1 0 0 -1 0 102)"><stop offset="0" stop-color="#fff"/><stop offset=".35" stop-color="#fafbfb"/><stop offset=".532" stop-color="#edf1f4"/><stop offset=".675" stop-color="#dde5e9"/><stop offset=".799" stop-color="#c7d3da"/><stop offset=".908" stop-color="#adbdc7"/><stop offset="1" stop-color="#92a5b0"/></linearGradient><path class="st5" d="M45 1.1l27 26.7H45V1.1z"/><path class="st6" d="M45 1.1l27 26.7H45V1.1z"/></svg>