<svg id="Layer_3" xmlns="http://www.w3.org/2000/svg" viewBox="0 0 72 100"><style>.st4{fill:#7191a1}</style><linearGradient id="SVGID_1_" gradientUnits="userSpaceOnUse" x1="36" y1="99" x2="36" y2="1"><stop offset="0" stop-color="#c8d4db"/><stop offset=".139" stop-color="#d8e1e6"/><stop offset=".359" stop-color="#ebf0f3"/><stop offset=".617" stop-color="#f9fafb"/><stop offset="1" stop-color="#fff"/></linearGradient><path d="M45 1l27 26.7V99H0V1h45z" fill="url(#SVGID_1_)"/><path d="M45 1l27 26.7V99H0V1h45z" fill-opacity="0" stroke="#7191a1" stroke-width="2"/><linearGradient id="SVGID_2_" gradientUnits="userSpaceOnUse" x1="45.062" y1="27.79" x2="58.56" y2="14.29"><stop offset="0" stop-color="#fff"/><stop offset=".35" stop-color="#fafbfb"/><stop offset=".532" stop-color="#edf1f4"/><stop offset=".675" stop-color="#dde5e9"/><stop offset=".799" stop-color="#c7d3da"/><stop offset=".908" stop-color="#adbdc7"/><stop offset="1" stop-color="#92a5b0"/></linearGradient><path d="M45 1l27 26.7H45V1z" fill="url(#SVGID_2_)"/><path d="M45 1l27 26.7H45V1z" fill-opacity="0" stroke="#7191a1" stroke-width="2" stroke-linejoin="bevel"/><path class="st4" d="M56 67.8h-4.4c-.8 0-1.4-.6-1.4-1.4s.6-1.4 1.4-1.4H56c1.2 0 2.2-1 2.2-2.2V37.5c0-1.2-1-2.2-2.2-2.2H17c-1.2 0-2.2 1-2.2 2.2v25.3c0 1.2 1 2.2 2.2 2.2h26.2c.8 0 1.4.6 1.4 1.4s-.6 1.4-1.4 1.4H17c-2.7 0-5-2.2-5-5V37.5c0-2.7 2.2-5 5-5h39c2.7 0 5 2.2 5 5v25.3c0 2.7-2.2 5-5 5z"/><path fill="#edf0f3" d="M29.9 66.4h13.2v5.7H29.9z"/><path class="st4" d="M43.1 73.5H29.9c-.8 0-1.4-.6-1.4-1.4v-5.7c0-.8.6-1.4 1.4-1.4h13.2c.8 0 1.4.6 1.4 1.4v5.7c0 .7-.6 1.4-1.4 1.4zm-11.8-2.8h10.5v-2.9H31.3v2.9z"/><path class="st4" d="M47.3 73.5H25.7c-.8 0-1.4-.6-1.4-1.4 0-.8.6-1.4 1.4-1.4h21.5c.8 0 1.4.6 1.4 1.4 0 .7-.6 1.4-1.3 1.4zm2.3-13.6H40c-.5 0-1-.3-1.2-.7-.2-.4-.2-1 0-1.4.3-.4.4-.9.4-1.5 0-1.5-1.2-2.7-2.7-2.7s-2.7 1.2-2.7 2.7c0 .5.1 1 .4 1.5.3.4.3 1 0 1.4-.2.4-.7.7-1.2.7h-9.6c-.8 0-1.4-.6-1.4-1.4v-4.8c0-.7.5-1.3 1.2-1.4l2.1-.3c.4-1.2 1.1-2.3 1.9-3.2l-.8-2c-.2-.6 0-1.4.6-1.7l4.5-2.6c.6-.3 1.3-.2 1.8.3l1.3 1.6c1.2-.2 2.5-.2 3.7 0l1.3-1.6c.4-.5 1.2-.7 1.8-.3l4.5 2.6c.6.3.8 1.1.6 1.7l-.8 2c.8 1 1.4 2.1 1.9 3.2l2.1.3c.7.1 1.2.7 1.2 1.4v4.8c.1.8-.6 1.4-1.3 1.4zm-7.7-2.7h6.3v-2.3l-1.7-.3c-.5-.1-1-.5-1.1-1-.4-1.3-1.1-2.6-2.1-3.6-.4-.4-.5-.9-.3-1.4l.6-1.6-2.5-1.4-1.1 1.3c-.3.4-.9.6-1.4.5-1.4-.3-2.8-.3-4.2 0-.5.1-1.1-.1-1.4-.5l-1.1-1.4-2.5 1.4.6 1.6c.2.5.1 1.1-.3 1.4-1 1-1.7 2.3-2.1 3.6-.2.5-.6.9-1.1 1l-1.7.3v2.3h6.3c0-.3-.1-.5-.1-.8 0-3 2.5-5.5 5.5-5.5s5.5 2.5 5.5 5.5c0 .3-.1.6-.1.9z"/></svg>