<svg id="Layer_1" xmlns="http://www.w3.org/2000/svg" viewBox="0 0 72 100"><style>.st0{fill:url(#SVGID_1_)}.st1{fill-opacity:0;stroke:#7191a1;stroke-width:2}.st2{enable-background:new}.st3{fill:#4c6c7b}.st4{fill:url(#SVGID_2_);stroke:url(#SVGID_3_)}.st4,.st5,.st6,.st7,.st8,.st9{stroke-width:1.5;stroke-miterlimit:10}.st5{fill:url(#SVGID_4_);stroke:url(#SVGID_5_)}.st6{fill:url(#SVGID_6_);stroke:url(#SVGID_7_)}.st7{fill:url(#SVGID_8_);stroke:url(#SVGID_9_)}.st8{fill:url(#SVGID_10_);stroke:url(#SVGID_11_)}.st9{fill:url(#SVGID_12_);stroke:url(#SVGID_13_)}.st10{fill:url(#SVGID_14_)}.st11{fill-opacity:0;stroke:#7191a1;stroke-width:2;stroke-linejoin:bevel}</style><linearGradient id="SVGID_1_" gradientUnits="userSpaceOnUse" x1="36.108" y1="3.003" x2="36.108" y2="101.001" gradientTransform="matrix(1 0 0 -1 0 102)"><stop offset="0" stop-color="#c8d4db"/><stop offset=".139" stop-color="#d8e1e6"/><stop offset=".359" stop-color="#ebf0f3"/><stop offset=".617" stop-color="#f9fafb"/><stop offset="1" stop-color="#fff"/></linearGradient><path class="st0" d="M45.1 1L72 27.7V99H.2V1h44.9z"/><path class="st1" d="M45.1 1L72 27.7V99H.2V1h44.9z"/><g class="st2"><path class="st3" d="M9.5 71.2h7.4c1.7 0 2.9.1 3.8.4 1.2.3 2.2 1 3 1.8.8.9 1.5 1.9 1.9 3.2s.7 2.8.7 4.7c0 1.6-.2 3-.6 4.2-.5 1.4-1.2 2.6-2.1 3.5-.7.7-1.6 1.2-2.8 1.6-.9.3-2.1.4-3.6.4H9.5V71.2zm4.1 3.4v13.1h3c1.1 0 1.9-.1 2.4-.2.7-.2 1.2-.4 1.6-.8.4-.4.8-1 1.1-1.9s.4-2.1.4-3.6-.1-2.7-.4-3.5-.7-1.5-1.1-1.9c-.5-.5-1.1-.8-1.9-.9-.6-.1-1.7-.2-3.3-.2h-1.8zm20.6 16.5V74.6h-5.9v-3.4h15.9v3.4h-5.9v16.5h-4.1zm12.5-19.9h7.4c1.7 0 2.9.1 3.8.4 1.2.3 2.2 1 3 1.8s1.5 1.9 1.9 3.2c.4 1.3.7 2.8.7 4.7 0 1.6-.2 3-.6 4.2-.5 1.4-1.2 2.6-2.1 3.5-.7.7-1.6 1.2-2.8 1.6-.9.3-2.1.4-3.6.4h-7.6V71.2zm4.1 3.4v13.1h3c1.1 0 1.9-.1 2.4-.2.7-.2 1.2-.4 1.6-.8s.8-1 1.1-1.9.4-2.1.4-3.6-.1-2.7-.4-3.5-.7-1.5-1.1-1.9c-.5-.5-1.1-.8-1.9-.9-.6-.1-1.7-.2-3.3-.2h-1.8z"/></g><linearGradient id="SVGID_2_" gradientUnits="userSpaceOnUse" x1="12.784" y1="34.27" x2="29.899" y2="34.27"><stop offset="0" stop-color="#ccdde7"/><stop offset=".265" stop-color="#b5ccd8"/><stop offset=".798" stop-color="#7fa0b1"/><stop offset="1" stop-color="#6a8fa1"/></linearGradient><linearGradient id="SVGID_3_" gradientUnits="userSpaceOnUse" x1="12.034" y1="34.27" x2="30.649" y2="34.27"><stop offset="0" stop-color="#ccdde7"/><stop offset=".265" stop-color="#b5ccd8"/><stop offset=".798" stop-color="#7fa0b1"/><stop offset="1" stop-color="#6a8fa1"/></linearGradient><path class="st4" d="M29.9 40.8L17 34.3v-.1l12.9-6.4v-4.4l-17.1 9.1V36l17.1 9.1z"/><linearGradient id="SVGID_4_" gradientUnits="userSpaceOnUse" x1="33.898" y1="29.46" x2="39.568" y2="29.46"><stop offset="0" stop-color="#ccdde7"/><stop offset=".265" stop-color="#b5ccd8"/><stop offset=".798" stop-color="#7fa0b1"/><stop offset="1" stop-color="#6a8fa1"/></linearGradient><linearGradient id="SVGID_5_" gradientUnits="userSpaceOnUse" x1="33.106" y1="29.46" x2="40.358" y2="29.46"><stop offset="0" stop-color="#ccdde7"/><stop offset=".265" stop-color="#b5ccd8"/><stop offset=".798" stop-color="#7fa0b1"/><stop offset="1" stop-color="#6a8fa1"/></linearGradient><path class="st5" d="M38.8 37l.8-15h-5.7l.8 15z"/><linearGradient id="SVGID_6_" gradientUnits="userSpaceOnUse" x1="33.54" y1="42.711" x2="39.924" y2="42.711"><stop offset="0" stop-color="#ccdde7"/><stop offset=".265" stop-color="#b5ccd8"/><stop offset=".798" stop-color="#7fa0b1"/><stop offset="1" stop-color="#6a8fa1"/></linearGradient><linearGradient id="SVGID_7_" gradientUnits="userSpaceOnUse" x1="32.79" y1="42.711" x2="40.674" y2="42.711"><stop offset="0" stop-color="#ccdde7"/><stop offset=".265" stop-color="#b5ccd8"/><stop offset=".798" stop-color="#7fa0b1"/><stop offset="1" stop-color="#6a8fa1"/></linearGradient><path class="st6" d="M36.8 46.4c1.9 0 3.2-1.6 3.2-3.7 0-2.2-1.3-3.7-3.2-3.7-1.9 0-3.2 1.5-3.2 3.7-.1 2.1 1.2 3.7 3.2 3.7z"/><linearGradient id="SVGID_8_" gradientUnits="userSpaceOnUse" x1="43.598" y1="34.27" x2="60.716" y2="34.27"><stop offset="0" stop-color="#ccdde7"/><stop offset=".265" stop-color="#b5ccd8"/><stop offset=".798" stop-color="#7fa0b1"/><stop offset="1" stop-color="#6a8fa1"/></linearGradient><linearGradient id="SVGID_9_" gradientUnits="userSpaceOnUse" x1="42.848" y1="34.27" x2="61.466" y2="34.27"><stop offset="0" stop-color="#ccdde7"/><stop offset=".265" stop-color="#b5ccd8"/><stop offset=".798" stop-color="#7fa0b1"/><stop offset="1" stop-color="#6a8fa1"/></linearGradient><path class="st7" d="M43.6 23.4v4.4l13.2 6.4v.1l-13.2 6.5v4.3l17.1-9v-3.7z"/><linearGradient id="SVGID_10_" gradientUnits="userSpaceOnUse" x1="15.302" y1="52.394" x2="58.23" y2="52.394"><stop offset="0" stop-color="#ccdde7"/><stop offset=".265" stop-color="#b5ccd8"/><stop offset=".798" stop-color="#7fa0b1"/><stop offset="1" stop-color="#6a8fa1"/></linearGradient><linearGradient id="SVGID_11_" gradientUnits="userSpaceOnUse" x1="14.552" y1="52.394" x2="58.98" y2="52.394"><stop offset="0" stop-color="#ccdde7"/><stop offset=".265" stop-color="#b5ccd8"/><stop offset=".798" stop-color="#7fa0b1"/><stop offset="1" stop-color="#6a8fa1"/></linearGradient><path class="st8" d="M15.3 50.9h42.9v2.9H15.3z"/><linearGradient id="SVGID_12_" gradientUnits="userSpaceOnUse" x1="15.302" y1="60.674" x2="58.23" y2="60.674"><stop offset="0" stop-color="#ccdde7"/><stop offset=".265" stop-color="#b5ccd8"/><stop offset=".798" stop-color="#7fa0b1"/><stop offset="1" stop-color="#6a8fa1"/></linearGradient><linearGradient id="SVGID_13_" gradientUnits="userSpaceOnUse" x1="14.552" y1="60.674" x2="58.98" y2="60.674"><stop offset="0" stop-color="#ccdde7"/><stop offset=".265" stop-color="#b5ccd8"/><stop offset=".798" stop-color="#7fa0b1"/><stop offset="1" stop-color="#6a8fa1"/></linearGradient><path class="st9" d="M15.3 59.2h42.9v2.9H15.3z"/><linearGradient id="SVGID_14_" gradientUnits="userSpaceOnUse" x1="45.122" y1="74.229" x2="58.575" y2="87.683" gradientTransform="matrix(1 0 0 -1 0 102)"><stop offset="0" stop-color="#fff"/><stop offset=".35" stop-color="#fafbfb"/><stop offset=".532" stop-color="#edf1f4"/><stop offset=".675" stop-color="#dde5e9"/><stop offset=".799" stop-color="#c7d3da"/><stop offset=".908" stop-color="#adbdc7"/><stop offset="1" stop-color="#92a5b0"/></linearGradient><path class="st10" d="M45.1 1L72 27.7H45.1V1z"/><path class="st11" d="M45.1 1L72 27.7H45.1V1z"/></svg>