<svg xmlns="http://www.w3.org/2000/svg" viewBox="0 0 72 100"><linearGradient id="a" gradientUnits="userSpaceOnUse" x1="36.2" y1="3.014" x2="36.2" y2="101.001" gradientTransform="matrix(1 0 0 -1 0 102)"><stop offset="0" stop-color="#c8d4db"/><stop offset=".139" stop-color="#d8e1e6"/><stop offset=".359" stop-color="#ebf0f3"/><stop offset=".617" stop-color="#f9fafb"/><stop offset="1" stop-color="#fff"/></linearGradient><path d="M45.2 1l27.1 26.7V99H.1V1h45.1z" fill="url(#a)"/><path d="M45.2 1l27.1 26.7V99H.1V1h45.1z" fill-opacity="0" stroke="#7191a1" stroke-width="2"/><path d="M24.9 90.1V74.3h11.8V77h-8.6v3.5h8v2.7h-8v4.3H37v2.7H24.9zm15 0V74.4h3.2v13h8v2.7H39.9z" fill="#4c6c7b"/><linearGradient id="b" gradientUnits="userSpaceOnUse" x1="31.747" y1="69.935" x2="31.747" y2="69.986" gradientTransform="matrix(1 0 0 -1 0 102)"><stop offset="0" stop-color="#adccdc"/><stop offset="1" stop-color="#4c6c7b"/></linearGradient><path d="M31.8 32c-.1.1-.1.1 0 0" fill="url(#b)"/><linearGradient id="c" gradientUnits="userSpaceOnUse" x1="45.324" y1="74.184" x2="58.871" y2="87.731" gradientTransform="matrix(1 0 0 -1 0 102)"><stop offset="0" stop-color="#fff"/><stop offset=".35" stop-color="#fafbfb"/><stop offset=".532" stop-color="#edf1f4"/><stop offset=".675" stop-color="#dde5e9"/><stop offset=".799" stop-color="#c7d3da"/><stop offset=".908" stop-color="#adbdc7"/><stop offset="1" stop-color="#92a5b0"/></linearGradient><path d="M45.2 1l27.1 26.7H45.2V1z" fill="url(#c)"/><path d="M45.2 1l27.1 26.7H45.2V1z" fill-opacity="0" stroke="#7191a1" stroke-width="2" stroke-linejoin="bevel"/><linearGradient id="d" gradientUnits="userSpaceOnUse" x1="38" y1="66" x2="38" y2="26"><stop offset="0" stop-color="#adccdc"/><stop offset="1" stop-color="#4c6c7b"/></linearGradient><linearGradient id="e" gradientUnits="userSpaceOnUse" x1="37.788" y1="66.75" x2="37.788" y2="25.25"><stop offset="0" stop-color="#adccdc"/><stop offset="1" stop-color="#4c6c7b"/></linearGradient><path d="M50.6 57.6h1c0 2.9-.5 5.1-1.4 6.4-.9 1.3-2.1 2-3.6 2-1.2 0-2.3-.4-3.4-1.3s-2-3.2-2.9-7.1l-2.4-10.8-8.3 18.9h-5.3L36.2 40c-.6-3.3-1.4-5.8-2.3-7.4-.9-1.6-2-2.4-3.3-2.4-1.1 0-2 .4-2.8 1.2-.8.8-1.2 2.1-1.3 3.8h-1c.1-2.7.6-4.9 1.6-6.6s2.3-2.5 3.9-2.5c1 0 2 .4 2.8 1.2.9.8 1.7 2.2 2.3 4.2.7 2 1.7 6.2 3.1 12.4l2 8.8c.8 3.7 1.6 6.1 2.5 7.3.9 1.2 1.9 1.9 3.2 1.9 2.3.1 3.5-1.4 3.7-4.3z" opacity=".9" fill="url(#d)" stroke="url(#e)" stroke-width="1.5" stroke-miterlimit="10"/></svg>