<svg id="Layer_1" xmlns="http://www.w3.org/2000/svg" viewBox="0 0 72 100"><style>.st0{fill:url(#SVGID_1_)}.st1{fill-opacity:0;stroke:#d10407;stroke-width:2}.st2{enable-background:new}.st3{fill:#fff}.st4{fill:url(#SVGID_2_)}.st5{fill:url(#SVGID_3_)}.st6{fill-opacity:0;stroke:#d10407;stroke-width:2;stroke-linejoin:bevel}</style><linearGradient id="SVGID_1_" gradientUnits="userSpaceOnUse" x1="36" y1="101" x2="36" y2="3.004" gradientTransform="matrix(1 0 0 -1 0 102)"><stop offset="0" stop-color="#fffeee"/><stop offset=".531" stop-color="#f9b1b2"/><stop offset="1" stop-color="#d10407"/></linearGradient><path class="st0" d="M45.1 1l27.2 26.7V99H-.2V1h45.3z"/><path class="st1" d="M45.1 1l27.2 26.7V99H-.2V1h45.3z"/><g class="st2"><path class="st3" d="M12.6 91.1V71.2h13.8v3.4h-9.8v4.7H25v3.4h-8.4v8.4h-4zm23.9 0v-4h-8.3v-3.3L37 71.1h3.2v12.6h2.5V87h-2.5v4h-3.7zm0-7.4V77l-4.6 6.8h4.6zm14.1 7.4l-7.2-19.8h4.4L52.9 86l4.9-14.7h4.3L55 91.1h-4.4z"/></g><g transform="translate(0 -952.362)"><linearGradient id="SVGID_2_" gradientUnits="userSpaceOnUse" x1="36.625" y1="974.612" x2="36.625" y2="1015.362"><stop offset=".118" stop-color="#f9b1b2"/><stop offset="1" stop-color="#d10407"/></linearGradient><path class="st4" d="M36.6 974.6c-11.3 0-20.4 9.1-20.4 20.4 0 11.3 9.1 20.4 20.4 20.4S57 1006.2 57 995c0-11.3-9.1-20.4-20.4-20.4zm3.9 4.8l-3.3 12.3h8.6l-13 18.8 3.3-12.3h-8.6l13-18.8z"/></g><linearGradient id="SVGID_3_" gradientUnits="userSpaceOnUse" x1="45.178" y1="74.159" x2="58.772" y2="87.753" gradientTransform="matrix(1 0 0 -1 0 102)"><stop offset="0" stop-color="#fffeee"/><stop offset=".637" stop-color="#f9b1b2"/><stop offset="1" stop-color="#d10407"/></linearGradient><path class="st5" d="M45.1 1l27.2 26.7H45.1V1z"/><path class="st6" d="M45.1 1l27.2 26.7H45.1V1z"/></svg>