<svg id="Layer_1" xmlns="http://www.w3.org/2000/svg" viewBox="0 0 72 100"><style>.st0{fill:url(#SVGID_1_)}.st1{fill-opacity:0;stroke:#7191a1;stroke-width:2}.st2{fill:url(#SVGID_2_)}.st3{fill:url(#SVGID_3_)}.st4{fill-opacity:0;stroke:#7191a1;stroke-width:2;stroke-linejoin:bevel}.st5{enable-background:new}.st6{fill:#4c6c7b}</style><linearGradient id="SVGID_1_" gradientUnits="userSpaceOnUse" x1="36" y1="97" x2="36" y2="-1" gradientTransform="translate(0 2)"><stop offset="0" stop-color="#c8d4db"/><stop offset=".139" stop-color="#d8e1e6"/><stop offset=".359" stop-color="#ebf0f3"/><stop offset=".617" stop-color="#f9fafb"/><stop offset="1" stop-color="#fff"/></linearGradient><path class="st0" d="M45 1l27 26.7V99H0V1h45z"/><path class="st1" d="M45 1l27 26.7V99H0V1h45z"/><g transform="translate(0 -1036.362)"><linearGradient id="SVGID_2_" gradientUnits="userSpaceOnUse" x1="36.194" y1="1096.327" x2="36.194" y2="1057.079"><stop offset="0" stop-color="#869ba6"/><stop offset=".379" stop-color="#8399a4"/><stop offset=".576" stop-color="#7b929e"/><stop offset=".731" stop-color="#6d8694"/><stop offset=".863" stop-color="#5a7785"/><stop offset=".981" stop-color="#426373"/><stop offset=".99" stop-color="#416271"/></linearGradient><path class="st2" d="M57.2 1057.1l-19.3 2.6v15.3h19.3v-17.9zm-22.8 3l-19.3 2.6v12.3h19.3v-14.9zm-19.2 18.4v12.3l19.3 2.6v-14.8H15.2zm22.7 0v15.3l19.3 2.6v-17.9H37.9z"/></g><linearGradient id="SVGID_3_" gradientUnits="userSpaceOnUse" x1="45.037" y1="25.813" x2="58.537" y2="12.313" gradientTransform="translate(0 2)"><stop offset="0" stop-color="#fff"/><stop offset=".35" stop-color="#fafbfb"/><stop offset=".532" stop-color="#edf1f4"/><stop offset=".675" stop-color="#dde5e9"/><stop offset=".799" stop-color="#c7d3da"/><stop offset=".908" stop-color="#adbdc7"/><stop offset="1" stop-color="#92a5b0"/></linearGradient><path class="st3" d="M45 1l27 26.7H45V1z"/><path class="st4" d="M45 1l27 26.7H45V1z"/><g class="st5"><path class="st6" d="M10.6 87.9v-1.8h4.7v4.3c-.5.4-1.1.8-2 1.2-.9.3-1.7.5-2.6.5-1.1 0-2.1-.2-2.9-.7-.8-.5-1.5-1.1-1.9-2-.4-.9-.6-1.8-.6-2.9 0-1.1.2-2.1.7-3 .5-.9 1.2-1.5 2.1-2 .7-.4 1.5-.5 2.6-.5 1.3 0 2.4.3 3.1.8.7.6 1.2 1.3 1.4 2.3l-2.2.4c-.2-.5-.4-.9-.9-1.2-.4-.3-.9-.5-1.6-.5-.9 0-1.7.3-2.3.9-.6.6-.8 1.5-.8 2.7 0 1.3.3 2.2.8 2.9.6.6 1.3 1 2.2 1 .5 0 .9-.1 1.4-.3.5-.2.8-.4 1.2-.6V88h-2.4zm16.4 4h-2.4l-.9-2.4h-4.3l-.9 2.4h-2.3l4.2-10.7h2.3L27 91.9zm-4-4.3l-1.5-4-1.5 4h3zm5.1-6.5h4c.9 0 1.6.1 2 .2.6.2 1.2.5 1.6 1 .4.5.8 1.1 1 1.7.2.7.4 1.5.4 2.5 0 .9-.1 1.6-.3 2.3-.3.8-.7 1.4-1.1 1.9-.4.4-.9.7-1.5.9-.5.2-1.1.2-1.9.2h-4.1V81.1zm2.2 1.9v7.1h1.6c.6 0 1 0 1.3-.1.4-.1.6-.2.9-.4s.4-.6.6-1c.1-.5.2-1.1.2-2s-.1-1.5-.2-1.9c-.1-.4-.4-.8-.6-1-.3-.2-.6-.4-1-.5-.3-.2-.9-.2-1.8-.2h-1zM44 87.9v-1.8h4.7v4.3c-.5.4-1.1.8-2 1.2-.9.3-1.7.5-2.6.5-1.1 0-2.1-.2-2.9-.7-.8-.5-1.5-1.1-1.9-2-.4-.9-.6-1.8-.6-2.9 0-1.1.2-2.1.7-3 .5-.9 1.2-1.5 2.1-2 .7-.4 1.5-.5 2.6-.5 1.3 0 2.4.3 3.1.8.7.6 1.2 1.3 1.4 2.3l-2.2.4c-.2-.5-.4-.9-.9-1.2-.4-.3-.9-.5-1.6-.5-.9 0-1.7.3-2.3.9-.6.6-.8 1.5-.8 2.7 0 1.3.3 2.2.8 2.9.6.6 1.3 1 2.2 1 .5 0 .9-.1 1.4-.3.5-.2.8-.4 1.2-.6V88H44zm6.6 4V81.1h8V83h-5.8v2.4h5.4v1.8h-5.4v2.9h6v1.8h-8.2zm12.5 0V83h-3.2v-1.8h8.5V83h-3.2v8.9h-2.1z"/></g></svg>