<svg id="Layer_2" xmlns="http://www.w3.org/2000/svg" viewBox="0 0 72 100"><style>.st0{fill:url(#SVGID_1_)}.st1{fill-opacity:0;stroke:#7191a1;stroke-width:2}.st2{fill:url(#SVGID_2_)}.st3{fill-opacity:0;stroke:#7191a1;stroke-width:2;stroke-linejoin:bevel}.st4{enable-background:new}.st5{fill:#4c6c7b}</style><linearGradient id="SVGID_1_" gradientUnits="userSpaceOnUse" x1="36" y1="127.8" x2="36" y2="29.8" gradientTransform="translate(0 -29)"><stop offset="0" stop-color="#c8d4db"/><stop offset=".139" stop-color="#d8e1e6"/><stop offset=".359" stop-color="#ebf0f3"/><stop offset=".617" stop-color="#f9fafb"/><stop offset="1" stop-color="#fff"/></linearGradient><path class="st0" d="M45 .8l27 26.7v71.3H0V.8h45z"/><path class="st1" d="M45 .8l27 26.7v71.3H0V.8h45z"/><linearGradient id="SVGID_2_" gradientUnits="userSpaceOnUse" x1="45.075" y1="56.575" x2="58.575" y2="43.075" gradientTransform="translate(0 -29)"><stop offset="0" stop-color="#fff"/><stop offset=".35" stop-color="#fafbfb"/><stop offset=".532" stop-color="#edf1f4"/><stop offset=".675" stop-color="#dde5e9"/><stop offset=".799" stop-color="#c7d3da"/><stop offset=".908" stop-color="#adbdc7"/><stop offset="1" stop-color="#92a5b0"/></linearGradient><path class="st2" d="M45 .8l27 26.7H45V.8z"/><path class="st3" d="M45 .8l27 26.7H45V.8z"/><g class="st4"><path class="st5" d="M7 86.6v-1.4h3.7v3.4c-.4.4-.9.7-1.6.9s-1.4.4-2.1.4c-.9 0-1.7-.2-2.3-.6s-1.2-.9-1.5-1.6-.5-1.5-.5-2.3c0-.9.2-1.7.6-2.4s.9-1.2 1.6-1.6c.6-.3 1.2-.4 2.1-.4 1.1 0 1.9.2 2.5.7s1 1.1 1.2 1.9l-1.7.3c-.1-.4-.3-.8-.7-1s-.8-.4-1.3-.4c-.8 0-1.4.2-1.8.7s-.7 1.2-.7 2.1c0 1 .2 1.8.7 2.3s1 .8 1.8.8c.4 0 .7-.1 1.1-.2s.7-.3.9-.5v-1.1H7zm5.3 3.2v-8.6H14v8.6h-1.7zm5.3 0v-7.1h-2.5v-1.5h6.8v1.5h-2.5v7.1h-1.8zm5.4 0v-8.6h1.7v8.6H23zm7.4-3.2v-1.4h3.7v3.4c-.4.4-.9.7-1.6.9s-1.4.4-2.1.4c-.9 0-1.7-.2-2.3-.6s-1.2-.9-1.5-1.6-.5-1.5-.5-2.3c0-.9.2-1.7.6-2.4s.9-1.2 1.6-1.6c.6-.3 1.2-.4 2.1-.4 1.1 0 1.9.2 2.5.7s1 1.1 1.2 1.9l-1.7.3c-.1-.4-.3-.8-.7-1s-.8-.4-1.3-.4c-.8 0-1.4.2-1.8.7s-.7 1.2-.7 2.1c0 1 .2 1.8.7 2.3s1 .8 1.8.8c.4 0 .7-.1 1.1-.2s.7-.3.9-.5v-1.1h-2zm5.3 3.2v-8.6h1.7l3.5 5.7v-5.7h1.6v8.6h-1.7l-3.5-5.6v5.6h-1.6zm8.3-4.2c0-.9.1-1.6.4-2.2.2-.4.5-.8.8-1.2s.7-.6 1.1-.8c.5-.2 1.2-.3 1.9-.3 1.3 0 2.3.4 3 1.2s1.1 1.9 1.1 3.3-.4 2.5-1.1 3.3-1.8 1.2-3 1.2c-1.3 0-2.3-.4-3-1.2s-1.2-2-1.2-3.3zm1.8-.1c0 1 .2 1.7.7 2.2s1 .8 1.7.8 1.3-.2 1.7-.7.7-1.2.7-2.2c0-1-.2-1.7-.6-2.2s-1-.7-1.7-.7-1.3.2-1.7.7-.8 1.1-.8 2.1zm7.9 4.3v-8.6h3.7c.9 0 1.6.1 2 .2s.7.4 1 .8.4.8.4 1.4c0 .6-.2 1.2-.6 1.6s-.9.7-1.7.8c.4.2.7.5.9.7s.6.7 1 1.4l1 1.7h-2.1L58 87.9c-.4-.7-.8-1.1-.9-1.3s-.3-.3-.5-.4-.5-.1-.9-.1h-.4v3.6h-1.6zm1.7-5h1.3c.8 0 1.4 0 1.6-.1s.4-.2.5-.4.2-.4.2-.6c0-.3-.1-.5-.2-.7s-.4-.3-.7-.3h-2.7v2.1zm7 5v-8.6h6.4v1.5h-4.6v1.9h4.3V86h-4.3v2.3H69v1.4h-6.6z"/></g></svg>