<svg xmlns="http://www.w3.org/2000/svg" viewBox="0 0 72 100"><linearGradient id="a" gradientUnits="userSpaceOnUse" x1="36.108" y1="3.003" x2="36.108" y2="101.001" gradientTransform="matrix(1 0 0 -1 0 102)"><stop offset="0" stop-color="#c8d4db"/><stop offset=".139" stop-color="#d8e1e6"/><stop offset=".359" stop-color="#ebf0f3"/><stop offset=".617" stop-color="#f9fafb"/><stop offset="1" stop-color="#fff"/></linearGradient><path d="M45.1 1L72 27.7V99H.2V1h44.9z" fill="url(#a)"/><path d="M45.1 1L72 27.7V99H.2V1h44.9z" stroke="#7191a1" stroke-width="2" fill="none"/><path d="M27.7 91.1V71.2h4V79h7.9v-7.8h4V91h-4v-8.7h-7.9V91h-4z" fill="#4c6c7b"/><g opacity=".85"><linearGradient id="b" gradientUnits="userSpaceOnUse" x1="60.15" y1="42" x2="13.15" y2="42"><stop offset="0" stop-color="#adccdc"/><stop offset=".082" stop-color="#a0c0cf"/><stop offset=".35" stop-color="#7c9bab"/><stop offset=".602" stop-color="#628191"/><stop offset=".826" stop-color="#527281"/><stop offset="1" stop-color="#4c6c7b"/></linearGradient><linearGradient id="c" gradientUnits="userSpaceOnUse" x1="60.525" y1="42" x2="12.775" y2="42"><stop offset="0" stop-color="#adccdc"/><stop offset=".082" stop-color="#a0c0cf"/><stop offset=".35" stop-color="#7c9bab"/><stop offset=".602" stop-color="#628191"/><stop offset=".826" stop-color="#527281"/><stop offset="1" stop-color="#4c6c7b"/></linearGradient><path d="M60.1 18.5h-47v47h47v-47zm-2.6 44.3H15.8V27.6h41.6v35.2z" fill="url(#b)" stroke="url(#c)" stroke-width=".75" stroke-miterlimit="10"/><linearGradient id="d" gradientUnits="userSpaceOnUse" x1="53.436" y1="34.128" x2="19.864" y2="34.128"><stop offset="0" stop-color="#adccdc"/><stop offset=".082" stop-color="#a0c0cf"/><stop offset=".35" stop-color="#7c9bab"/><stop offset=".602" stop-color="#628191"/><stop offset=".826" stop-color="#527281"/><stop offset="1" stop-color="#4c6c7b"/></linearGradient><linearGradient id="e" gradientUnits="userSpaceOnUse" x1="53.936" y1="34.128" x2="19.364" y2="34.128"><stop offset="0" stop-color="#adccdc"/><stop offset=".082" stop-color="#a0c0cf"/><stop offset=".35" stop-color="#7c9bab"/><stop offset=".602" stop-color="#628191"/><stop offset=".826" stop-color="#527281"/><stop offset="1" stop-color="#4c6c7b"/></linearGradient><path fill="url(#d)" stroke="url(#e)" stroke-miterlimit="10" d="M19.9 31.8h33.6v4.7H19.9z"/><linearGradient id="f" gradientUnits="userSpaceOnUse" x1="46.721" y1="49.386" x2="26.579" y2="49.386"><stop offset="0" stop-color="#adccdc"/><stop offset=".082" stop-color="#a0c0cf"/><stop offset=".35" stop-color="#7c9bab"/><stop offset=".602" stop-color="#628191"/><stop offset=".826" stop-color="#527281"/><stop offset="1" stop-color="#4c6c7b"/></linearGradient><linearGradient id="g" gradientUnits="userSpaceOnUse" x1="47.221" y1="49.386" x2="26.079" y2="49.386"><stop offset="0" stop-color="#adccdc"/><stop offset=".082" stop-color="#a0c0cf"/><stop offset=".35" stop-color="#7c9bab"/><stop offset=".602" stop-color="#628191"/><stop offset=".826" stop-color="#527281"/><stop offset="1" stop-color="#4c6c7b"/></linearGradient><path d="M38.5 59.4v-1.2h.4c.3 0 .6 0 .9-.1.3 0 .5-.1.7-.3.2-.1.4-.3.5-.6.1-.3.2-.6.2-1.1v-6.6h-9.1v6.6c0 .4.1.8.2 1.1.1.3.3.5.5.6.2.1.4.2.7.3.3 0 .6.1.9.1h.4v1.2h-8.2v-1.2h.4c.3 0 .6 0 .9-.1.3 0 .5-.1.7-.3.2-.1.4-.3.5-.6.1-.3.2-.6.2-1.1V42.4c0-.4-.1-.7-.2-1-.1-.3-.3-.4-.5-.6-.2-.1-.5-.2-.7-.3-.3 0-.6-.1-.9-.1h-.4v-1.2h8.2v1.2h-.4c-.3 0-.6 0-.9.1-.3 0-.5.1-.7.3-.2.1-.4.3-.5.6-.1.3-.2.6-.2 1.1v5.7h9.1v-5.7c0-.4-.1-.8-.2-1.1s-.3-.5-.5-.6c-.2-.1-.4-.2-.7-.3-.3 0-.6-.1-.9-.1h-.4v-1.2h8.2v1.2h-.4c-.3 0-.6 0-.9.1-.3 0-.5.1-.7.3-.2.1-.4.3-.5.6-.1.3-.2.6-.2 1.1v13.8c0 .4.1.7.2 1 .1.3.3.4.5.6.2.1.5.2.7.3.3 0 .6.1.9.1h.4v1.2c0-.1-8.2-.1-8.2-.1z" fill="url(#f)" stroke="url(#g)" stroke-miterlimit="10"/></g><linearGradient id="h" gradientUnits="userSpaceOnUse" x1="45.122" y1="74.229" x2="58.575" y2="87.683" gradientTransform="matrix(1 0 0 -1 0 102)"><stop offset="0" stop-color="#fff"/><stop offset=".35" stop-color="#fafbfb"/><stop offset=".532" stop-color="#edf1f4"/><stop offset=".675" stop-color="#dde5e9"/><stop offset=".799" stop-color="#c7d3da"/><stop offset=".908" stop-color="#adbdc7"/><stop offset="1" stop-color="#92a5b0"/></linearGradient><path d="M45.1 1L72 27.7H45.1V1z" fill="url(#h)"/><path d="M45.1 1L72 27.7H45.1V1z" stroke="#7191a1" stroke-width="2" stroke-linejoin="bevel" fill="none"/></svg>