<?xml version="1.0" encoding="utf-8"?>
<svg version="1.1" id="Layer_1" xmlns="http://www.w3.org/2000/svg" xmlns:xlink="http://www.w3.org/1999/xlink" x="0px" y="0px" viewBox="0 0 72 100" style="enable-background:new 0 0 72 100;" xml:space="preserve">
    <style type="text/css">
	.st0{fill:url(#SVGID_1_);}
	.st1{fill-opacity:0;stroke:#7191A1;stroke-width:2;}
	.st2{fill:url(#SVGID_2_);}
	.st3{fill-opacity:0;stroke:#7191A1;stroke-width:2;stroke-linejoin:bevel;}
	.st4{enable-background:new    ;}
	.st5{fill:#4C6C7B;}
	.st6{fill:url(#SVGID_3_);}
	.st7{fill:url(#SVGID_4_);}
</style>
    <linearGradient id="SVGID_1_" gradientUnits="userSpaceOnUse" x1="36" y1="3" x2="36" y2="101" gradientTransform="matrix(1 0 0 -1 0 102)">
        <stop offset="0" style="stop-color:#C8D4DB"></stop>
        <stop offset="0.139" style="stop-color:#D8E1E6"></stop>
        <stop offset="0.359" style="stop-color:#EBF0F3"></stop>
        <stop offset="0.617" style="stop-color:#F9FAFB"></stop>
        <stop offset="1" style="stop-color:#FFFFFF"></stop>
    </linearGradient>
    <path class="st0" d="M45,1l27,26.7V99H0V1H45z"></path>
    <path class="st1" d="M45,1l27,26.7V99H0V1H45z"></path>
    <linearGradient id="SVGID_2_" gradientUnits="userSpaceOnUse" x1="45.037" y1="74.187" x2="58.537" y2="87.687" gradientTransform="matrix(1 0 0 -1 0 102)">
        <stop offset="0" style="stop-color:#FFFFFF"></stop>
        <stop offset="0.35" style="stop-color:#FAFBFB"></stop>
        <stop offset="0.532" style="stop-color:#EDF1F4"></stop>
        <stop offset="0.675" style="stop-color:#DDE5E9"></stop>
        <stop offset="0.799" style="stop-color:#C7D3DA"></stop>
        <stop offset="0.908" style="stop-color:#ADBDC7"></stop>
        <stop offset="1" style="stop-color:#92A5B0"></stop>
    </linearGradient>
    <path class="st2" d="M45,1l27,26.7H45V1z"></path>
    <path class="st3" d="M45,1l27,26.7H45V1z"></path>
    <g class="st4">
        <path class="st5" d="M7.4,89.5V73.8h3.2V80h6.3v-6.2h3.2v15.7h-3.2v-6.9h-6.3v6.9H7.4z"></path>
        <path class="st5" d="M27,89.5V76.5h-4.7v-2.7h12.6v2.7h-4.7v13.1H27z"></path>
        <path class="st5" d="M36.9,89.5V73.8h4.8l2.9,10.7l2.9-10.7h4.8v15.7h-3V77.1l-3.2,12.4h-3.1l-3.1-12.4v12.4H36.9z"></path>
        <path class="st5" d="M55.6,89.5V73.9h3.2v13h8v2.7H55.6z"></path>
    </g>
    <linearGradient id="SVGID_3_" gradientUnits="userSpaceOnUse" x1="19.3" y1="64.258" x2="19.3" y2="40.758" gradientTransform="matrix(1 0 0 -1 0 100)">
        <stop offset="0" style="stop-color:#869BA6"></stop>
        <stop offset="0.379" style="stop-color:#8399A4"></stop>
        <stop offset="0.576" style="stop-color:#7B929E"></stop>
        <stop offset="0.731" style="stop-color:#6D8694"></stop>
        <stop offset="0.863" style="stop-color:#5A7785"></stop>
        <stop offset="0.981" style="stop-color:#426373"></stop>
        <stop offset="0.99" style="stop-color:#416271"></stop>
    </linearGradient>
    <path class="st6" d="M30.8,40.9l-16.7,6.6l16.7,6.6v5.2l-23-9.1v-5.3l23-9.1V40.9z"></path>
    <linearGradient id="SVGID_4_" gradientUnits="userSpaceOnUse" x1="53.3" y1="59.2" x2="53.3" y2="35.7">
        <stop offset="0" style="stop-color:#869BA6"></stop>
        <stop offset="0.379" style="stop-color:#8399A4"></stop>
        <stop offset="0.576" style="stop-color:#7B929E"></stop>
        <stop offset="0.731" style="stop-color:#6D8694"></stop>
        <stop offset="0.863" style="stop-color:#5A7785"></stop>
        <stop offset="0.981" style="stop-color:#426373"></stop>
        <stop offset="0.99" style="stop-color:#416271"></stop>
    </linearGradient>
    <path class="st7" d="M41.8,54.1l16.6-6.6l-16.6-6.6v-5.2l23,9.1v5.3l-23,9.1L41.8,54.1z"></path>
</svg>