<svg id="Layer_1" xmlns="http://www.w3.org/2000/svg" viewBox="0 0 72 100"><style>.st0{fill:url(#path1228_1_)}.st1{fill-opacity:0;stroke:#827100;stroke-width:2}.st2{enable-background:new}.st3{fill:#fefefe}.st4{fill:url(#path1236_1_)}.st5{fill:url(#path1238_1_)}.st6{fill-opacity:0;stroke:#827100;stroke-width:2;stroke-linejoin:round}</style><linearGradient id="path1228_1_" gradientUnits="userSpaceOnUse" x1="486.311" y1="644.112" x2="486.31" y2="742.085" gradientTransform="matrix(1 0 0 -1 -450.061 743.109)"><stop offset="0" stop-color="#742d2d"/><stop offset=".005" stop-color="#827100"/><stop offset="1" stop-color="#ffee91"/></linearGradient><path id="path1228" class="st0" d="M45.3 1l27.1 26.7V99H.1V1h45.2z"/><path id="path1230" class="st1" d="M45.3 1l27.1 26.7V99H.1V1h45.2z"/><g class="st2"><path class="st3" d="M5.3 91.6V80.1h2.3v11.5H5.3zm4.6-11.5h4.6c.9 0 1.6 0 2.1.1s.9.2 1.2.5.7.6.9 1c.2.4.4.8.4 1.3s-.1 1-.4 1.5-.7.8-1.2 1c.7.2 1.3.5 1.6 1 .4.5.6 1.1.6 1.7 0 .5-.1 1-.4 1.5s-.6.9-1 1.2c-.4.3-.9.5-1.6.5-.4 0-1.3.1-2.8.1h-4V80.1zm2.4 1.9v2.6h3.2c.4 0 .7-.2.9-.4.2-.2.3-.5.3-.9s-.1-.6-.3-.9c-.2-.2-.5-.4-.9-.4h-3.2zm0 4.6v3.1h2.2c.8 0 1.4 0 1.6-.1.3-.1.6-.2.9-.5.2-.2.3-.6.3-1 0-.3-.1-.6-.3-.9s-.4-.4-.7-.5-1-.2-2.1-.2h-1.9zm8.9-.7c0-1.2.2-2.1.5-2.9.3-.6.6-1.1 1.1-1.6.5-.5 1-.8 1.5-1 .7-.3 1.6-.5 2.5-.5 1.7 0 3.1.5 4.1 1.6 1 1 1.5 2.5 1.5 4.4 0 1.8-.5 3.3-1.5 4.3s-2.4 1.6-4.1 1.6c-1.7 0-3.1-.5-4.1-1.6s-1.5-2.5-1.5-4.3zm2.4-.1c0 1.3.3 2.3.9 2.9s1.4 1 2.3 1c.9 0 1.7-.3 2.3-1 .6-.7.9-1.7.9-3s-.3-2.3-.9-2.9-1.4-1-2.3-1c-1 0-1.7.3-2.3 1s-.9 1.7-.9 3zm10.2.1c0-1.2.2-2.1.5-2.9.3-.6.6-1.1 1.1-1.6.5-.5 1-.8 1.5-1 .7-.3 1.6-.5 2.5-.5 1.7 0 3.1.5 4.1 1.6 1 1 1.5 2.5 1.5 4.4 0 1.8-.5 3.3-1.5 4.3s-2.4 1.6-4.1 1.6c-1.7 0-3.1-.5-4.1-1.6s-1.5-2.5-1.5-4.3zm2.4-.1c0 1.3.3 2.3.9 2.9.6.7 1.4 1 2.3 1s1.7-.3 2.3-1 .9-1.7.9-3-.3-2.3-.9-2.9-1.4-1-2.3-1c-1 0-1.7.3-2.3 1-.6.7-.9 1.7-.9 3zm10.7 5.8V80.1h2.3v5.1l4.7-5.1h3.2l-4.4 4.5 4.6 7h-3l-3.2-5.4-1.9 1.9v3.5h-2.3zM58 87.9l2.3-.2c.1.8.4 1.3.8 1.7s1 .5 1.7.5c.8 0 1.3-.2 1.7-.5s.6-.7.6-1.1c0-.3-.1-.5-.2-.7-.2-.2-.4-.4-.8-.5-.3-.1-.9-.3-1.9-.5-1.3-.3-2.1-.7-2.6-1.1-.7-.6-1.1-1.4-1.1-2.3 0-.6.2-1.1.5-1.6s.8-.9 1.5-1.2c.6-.3 1.4-.4 2.3-.4 1.5 0 2.6.3 3.3.9s1.1 1.5 1.2 2.5l-2.3.1c-.1-.6-.3-1-.6-1.3s-.8-.4-1.5-.4-1.2.1-1.6.4c-.2.2-.4.4-.4.7 0 .3.1.5.3.7.3.2 1 .5 2.2.8 1.1.3 2 .5 2.5.8.5.3 1 .7 1.3 1.2.3.5.5 1.1.5 1.8s-.2 1.3-.6 1.8c-.4.6-.9 1-1.6 1.3-.7.3-1.5.4-2.5.4-1.5 0-2.6-.3-3.4-1s-1.4-1.6-1.6-2.8z"/></g><linearGradient id="path1236_1_" gradientUnits="userSpaceOnUse" x1="305.171" y1="859.444" x2="305.171" y2="814.684" gradientTransform="scale(1 -1) rotate(-15.79 -2993.474 1367.872)"><stop offset="0" stop-color="#aa9400"/><stop offset="1" stop-color="#564a00"/></linearGradient><path id="path1236" class="st4" d="M62.7 34.5c-.3-.7-.7-1.2-1.3-1.7-.1.5-.3 1.1-.6 1.6L44.4 59.6c-.6.9-2 1.2-3 .9l-26.1-7.3c-1.6-.4-3.4-1.3-3.5-3.1-.1-.7 0-.9.4-1.2.4-.3.8-.2 1.2-.1L38 55.6c3.6 1 4.6.3 7.2-3.7l15-23.1c.8-1.2 1-2.6.5-3.8-.4-1.2-1.4-2.1-2.8-2.5l-21.5-6c-.5-.1-1-.1-1.5-.2l.1-.1c-3.3-2-4.6 1.8-6.3 3.2-.6.5-1.5.9-1.7 1.4-.2.5-.1 1-.3 1.5-.6 1.4-2.5 3.8-3.4 4.5-.6.4-1.3.5-1.7 1.1-.3.4-.2 1.1-.4 1.7-.5 1.3-2.2 3.5-3.4 4.6-.4.4-1.1.7-1.4 1.2-.3.4-.2 1.1-.5 1.6-.7 1.4-2.3 3.4-3.6 4.5-.7.6-1.4.9-1.7 1.6-.2.3 0 .8-.2 1.2-.3.7-.6 1.2-.8 1.7-.7 1-1.1 2.2-1 3.6.2 3.2 2.7 6.3 5.5 7.1L40.3 64c2.4.7 5.5-.5 6.8-2.6l15-23.1c.8-1.3 1-2.6.6-3.8zm-30.2-8.3l1.1-1.6c.3-.5 1-.7 1.4-.6l17.2 4.8c.5.1.7.6.4 1.1l-1.1 1.6c-.3.5-1 .7-1.4.6l-17.2-4.8c-.5-.2-.7-.7-.4-1.1zm-4.4 6.4l1.1-1.6c.3-.5 1-.7 1.4-.6l17.2 4.8c.5.1.7.6.4 1.1l-1.1 1.6c-.3.5-1 .7-1.4.6l-17.2-4.8c-.5-.1-.7-.6-.4-1.1z"/><linearGradient id="path1238_1_" gradientUnits="userSpaceOnUse" x1="495.437" y1="715.271" x2="508.982" y2="728.818" gradientTransform="matrix(1 0 0 -1 -450.061 743.109)"><stop offset="0" stop-color="#feea86"/><stop offset="1" stop-color="#867200"/></linearGradient><path id="path1238" class="st5" d="M45.3 1l27.1 26.7H45.3V1z"/><path id="path1240" class="st6" d="M45.3 1l27.1 26.7H45.3V1z"/></svg>