<svg id="Layer_1" xmlns="http://www.w3.org/2000/svg" viewBox="0 0 72 100"><style>.st0{fill:url(#SVGID_1_)}.st1{fill-opacity:0;stroke:#7191a1;stroke-width:2}.st2{enable-background:new}.st3{fill:#4c6c7b}.st4{fill:url(#SVGID_2_)}.st5{fill:url(#SVGID_3_)}.st6{fill-opacity:0;stroke:#7191a1;stroke-width:2;stroke-linejoin:bevel}.st7{fill:url(#SVGID_4_)}</style><linearGradient id="SVGID_1_" gradientUnits="userSpaceOnUse" x1="36.2" y1="3.014" x2="36.2" y2="101.001" gradientTransform="matrix(1 0 0 -1 0 102)"><stop offset="0" stop-color="#c8d4db"/><stop offset=".139" stop-color="#d8e1e6"/><stop offset=".359" stop-color="#ebf0f3"/><stop offset=".617" stop-color="#f9fafb"/><stop offset="1" stop-color="#fff"/></linearGradient><path class="st0" d="M45.2 1l27.1 26.7V99H.1V1h45.1z"/><path class="st1" d="M45.2 1l27.1 26.7V99H.1V1h45.1z"/><g class="st2"><path class="st3" d="M15.8 90.1V70.2h4.1V90h-4.1zm7.9-19.9h7.4c1.7 0 2.9.1 3.8.4 1.2.3 2.2 1 3 1.8s1.5 1.9 1.9 3.2c.4 1.3.7 2.8.7 4.7 0 1.6-.2 3-.6 4.2-.5 1.4-1.2 2.6-2.2 3.5-.7.7-1.7 1.2-2.9 1.6-.9.3-2.1.4-3.6.4h-7.6V70.2zm4.1 3.4v13.1h3c1.1 0 2-.1 2.5-.2.7-.2 1.2-.4 1.6-.8.4-.4.8-1 1.1-1.9.3-.9.4-2.1.4-3.6s-.1-2.7-.4-3.5c-.3-.8-.7-1.5-1.2-1.9-.5-.5-1.1-.8-1.9-.9-.6-.1-1.7-.2-3.3-.2h-1.8zM42 90.1l6.9-10.4-6.2-9.5h4.7l4 6.4 4-6.4H60l-6.3 9.6L60.6 90h-4.9l-4.5-6.9-4.5 6.9H42z"/></g><linearGradient id="SVGID_2_" gradientUnits="userSpaceOnUse" x1="31.747" y1="69.935" x2="31.747" y2="69.986" gradientTransform="matrix(1 0 0 -1 0 102)"><stop offset="0" stop-color="#adccdc"/><stop offset="1" stop-color="#4c6c7b"/></linearGradient><path class="st4" d="M31.8 32c-.1.1-.1.1 0 0"/><linearGradient id="SVGID_3_" gradientUnits="userSpaceOnUse" x1="45.324" y1="74.184" x2="58.871" y2="87.731" gradientTransform="matrix(1 0 0 -1 0 102)"><stop offset="0" stop-color="#fff"/><stop offset=".35" stop-color="#fafbfb"/><stop offset=".532" stop-color="#edf1f4"/><stop offset=".675" stop-color="#dde5e9"/><stop offset=".799" stop-color="#c7d3da"/><stop offset=".908" stop-color="#adbdc7"/><stop offset="1" stop-color="#92a5b0"/></linearGradient><path class="st5" d="M45.2 1l27.1 26.7H45.2V1z"/><path class="st6" d="M45.2 1l27.1 26.7H45.2V1z"/><linearGradient id="SVGID_4_" gradientUnits="userSpaceOnUse" x1="35.525" y1="61" x2="35.525" y2="16"><stop offset="0" stop-color="#adccdc"/><stop offset="1" stop-color="#4c6c7b"/></linearGradient><path class="st7" d="M52.7 43.8c0 2.8-2.1 12.5-2.1 12.5-.5 2.2-2.6 4.7-5.3 4.7H32.6c-1.9 0-3.6-1.1-4.3-2.8 0 0-6.2-11.5-8.8-15.7-1.7-2.9-1.7-2.9.5-4.1.4-.2.8-.3 1.2-.3.9 0 1.5.5 2.1 1.2l3.8 4.4 1.2 1.5V18.4c0-1.3 1.2-2.4 2.6-2.4 1.3 0 2.4 1.1 2.4 2.4l.4 17.1H35l.2-3c0-1.3 1.1-2.4 2.4-2.4 1.3 0 2.4 1.1 2.4 2.4l.2 3.6h1.1l.2-2.4c0-1.3 1.1-2.4 2.4-2.4 1.3 0 2.4 1.1 2.4 2.5l.2 2.4v.6h.9l.2-1.2c0-1.3 1.1-2.4 2.4-2.4 1.3 0 2.4 1.1 2.4 2.4.3 0 .3 5.4.3 8.2z"/></svg>