<?xml version="1.0" encoding="utf-8"?>
<svg version="1.1" id="Layer_1" xmlns="http://www.w3.org/2000/svg" xmlns:xlink="http://www.w3.org/1999/xlink" x="0px" y="0px" viewBox="0 0 72 100" style="enable-background:new 0 0 72 100;" xml:space="preserve">
    <style type="text/css">
	.st0{fill:url(#SVGID_1_);}
	.st1{fill-opacity:0;stroke:#7191A1;stroke-width:2;}
	.st2{enable-background:new    ;}
	.st3{fill:#4C6C7B;}
	.st4{opacity:0.95;fill:url(#SVGID_2_);enable-background:new    ;}
	.st5{opacity:0.95;fill:#4C6C7B;enable-background:new    ;}
	.st6{fill:url(#SVGID_3_);}
	.st7{fill-opacity:0;stroke:#7191A1;stroke-width:2;stroke-linejoin:bevel;}
</style>
    <g>
        <linearGradient id="SVGID_1_" gradientUnits="userSpaceOnUse" x1="36.108" y1="3.0033" x2="36.108" y2="101.0009" gradientTransform="matrix(1 0 0 -1 0 102)">
            <stop offset="0" style="stop-color:#C8D4DB"></stop>
            <stop offset="0.139" style="stop-color:#D8E1E6"></stop>
            <stop offset="0.359" style="stop-color:#EBF0F3"></stop>
            <stop offset="0.617" style="stop-color:#F9FAFB"></stop>
            <stop offset="1" style="stop-color:#FFFFFF"></stop>
        </linearGradient>
        <path class="st0" d="M45.1,1L72,27.7V99H0.2V1H45.1z"></path>
        <path class="st1" d="M45.1,1L72,27.7V99H0.2V1H45.1z"></path>
    </g>
    <g class="st2">
        <path class="st3" d="M16.4,90.2V70.3h4v19.8H16.4z"></path>
        <path class="st3" d="M24.3,90.2V70.3H38v3.4h-9.7v4.7h8.3v3.4h-8.3v8.4H24.3z"></path>
        <path class="st3" d="M40.5,80.4c0-2,0.3-3.7,0.9-5.1c0.5-1,1.1-1.9,1.9-2.7c0.8-0.8,1.6-1.4,2.6-1.8c1.2-0.5,2.7-0.8,4.3-0.8
		c2.9,0,5.3,0.9,7.1,2.7s2.7,4.3,2.7,7.6c0,3.2-0.9,5.7-2.6,7.5s-4.1,2.7-7,2.7c-3,0-5.3-0.9-7.1-2.7C41.4,86,40.5,83.5,40.5,80.4z
		 M44.6,80.2c0,2.2,0.5,3.9,1.6,5.1c1,1.2,2.4,1.7,4,1.7s2.9-0.6,4-1.7c1-1.2,1.5-2.9,1.5-5.2c0-2.3-0.5-4-1.5-5.1
		c-1-1.1-2.3-1.7-4-1.7s-3,0.6-4,1.7C45.2,76.2,44.6,78,44.6,80.2z"></path>
    </g>
    <linearGradient id="SVGID_2_" gradientUnits="userSpaceOnUse" x1="36.75" y1="20.7059" x2="36.75" y2="61.2941">
        <stop offset="0" style="stop-color:#ADCCDC"></stop>
        <stop offset="1" style="stop-color:#4C6C7B"></stop>
    </linearGradient>
    <path class="st4" d="M36.8,20.7c-11.3,0-20.5,9.1-20.5,20.3s9.2,20.3,20.5,20.3c11.3,0,20.5-9.1,20.5-20.3S48,20.7,36.8,20.7z
	 M36.8,47.9c-3.9,0-7-3.2-7-6.9c0-3.9,3.2-6.9,7-6.9c3.9,0,7,3.2,7,6.9C43.8,44.9,40.7,47.9,36.8,47.9z"></path>
    <path class="st5" d="M36.8,38.5c-1.5,0-2.6,1.2-2.6,2.5c0,1.4,1.2,2.5,2.6,2.5c1.5,0,2.6-1.2,2.6-2.5C39.3,39.6,38.2,38.5,36.8,38.5
	z M36.8,41.9c-0.5,0-0.9-0.4-0.9-0.9c0-0.5,0.4-0.9,0.9-0.9c0.5,0,0.9,0.4,0.9,0.9C37.7,41.5,37.2,41.9,36.8,41.9z"></path>
    <path class="st5" d="M36.8,33.4c-4.3,0-7.7,3.4-7.7,7.6c0,4.2,3.5,7.6,7.7,7.6c4.3,0,7.7-3.4,7.7-7.6C44.5,36.8,41,33.4,36.8,33.4z
	 M36.8,47.3c-3.6,0-6.4-2.8-6.4-6.3s2.8-6.3,6.4-6.3c3.6,0,6.4,2.8,6.4,6.3S40.3,47.3,36.8,47.3z"></path>
    <g>
        <linearGradient id="SVGID_3_" gradientUnits="userSpaceOnUse" x1="45.1216" y1="74.2293" x2="58.5748" y2="87.6825" gradientTransform="matrix(1 0 0 -1 0 102)">
            <stop offset="0" style="stop-color:#FFFFFF"></stop>
            <stop offset="0.35" style="stop-color:#FAFBFB"></stop>
            <stop offset="0.532" style="stop-color:#EDF1F4"></stop>
            <stop offset="0.675" style="stop-color:#DDE5E9"></stop>
            <stop offset="0.799" style="stop-color:#C7D3DA"></stop>
            <stop offset="0.908" style="stop-color:#ADBDC7"></stop>
            <stop offset="1" style="stop-color:#92A5B0"></stop>
        </linearGradient>
        <path class="st6" d="M45.1,1L72,27.7H45.1V1z"></path>
        <path class="st7" d="M45.1,1L72,27.7H45.1V1z"></path>
    </g>
</svg>