<?xml version="1.0" encoding="utf-8"?>
<svg version="1.1" id="Layer_2_1_" xmlns="http://www.w3.org/2000/svg" xmlns:xlink="http://www.w3.org/1999/xlink" x="0px" y="0px" viewBox="0 0 72 100" style="enable-background:new 0 0 72 100;" xml:space="preserve">
    <style type="text/css">
	.st0{fill:url(#SVGID_1_);}
	.st1{fill-opacity:0;stroke:#DB007B;stroke-width:2;}
	.st2{enable-background:new    ;}
	.st3{fill:#FFFFFF;}
	.st4{fill:url(#SVGID_2_);}
	.st5{fill-opacity:0;stroke:#DB007B;stroke-width:2;stroke-linejoin:bevel;}
	.st6{fill:#DB007B;}
	.st7{fill:none;stroke:#DB007B;stroke-width:1.25;stroke-miterlimit:10;}
</style>
    <linearGradient id="SVGID_1_" gradientUnits="userSpaceOnUse" x1="36.2" y1="-1" x2="36.2" y2="97" gradientTransform="matrix(1 0 0 1 0 2)">
        <stop offset="0.312" style="stop-color:#FFEAF6"></stop>
        <stop offset="1" style="stop-color:#DB007B"></stop>
    </linearGradient>
    <path class="st0" d="M45.2,1l27,26.7V99h-72V1H45.2z"></path>
    <path class="st1" d="M45.2,1l27,26.7V99h-72V1H45.2z"></path>
    <g class="st2">
        <path class="st3" d="M8.7,91.1V73.9h3.5v17.2H8.7z"></path>
        <path class="st3" d="M15.6,91.1V73.9H19l7.1,11.5V73.9h3.3v17.2h-3.5l-7-11.2v11.2H15.6z"></path>
        <path class="st3" d="M33,73.9h6.4c1.4,0,2.5,0.1,3.3,0.3c1,0.3,1.9,0.8,2.6,1.6s1.3,1.7,1.7,2.8s0.6,2.5,0.6,4.1
		c0,1.4-0.2,2.6-0.5,3.7c-0.4,1.2-1.1,2.3-1.9,3c-0.6,0.6-1.4,1-2.5,1.4c-0.8,0.2-1.8,0.4-3.1,0.4H33V73.9z M36.5,76.8v11.4h2.6
		c1,0,1.7-0.1,2.1-0.2c0.6-0.1,1-0.4,1.4-0.7s0.7-0.9,0.9-1.7c0.2-0.8,0.4-1.8,0.4-3.1s-0.1-2.3-0.4-3.1c-0.2-0.7-0.6-1.3-1-1.7
		s-1-0.7-1.6-0.8c-0.5-0.1-1.4-0.2-2.9-0.2H36.5z"></path>
        <path class="st3" d="M50.5,73.9h6.4c1.4,0,2.5,0.1,3.3,0.3c1,0.3,1.9,0.8,2.6,1.6c0.7,0.8,1.3,1.7,1.7,2.8s0.6,2.5,0.6,4.1
		c0,1.4-0.2,2.6-0.5,3.7c-0.4,1.2-1.1,2.3-1.9,3c-0.6,0.6-1.4,1-2.5,1.4c-0.8,0.2-1.8,0.4-3.1,0.4h-6.6V73.9z M54,76.8v11.4h2.6
		c1,0,1.7-0.1,2.1-0.2c0.6-0.1,1-0.4,1.4-0.7s0.7-0.9,0.9-1.7c0.2-0.8,0.4-1.8,0.4-3.1s-0.1-2.3-0.4-3.1c-0.2-0.7-0.6-1.3-1-1.7
		c-0.4-0.4-1-0.7-1.6-0.8c-0.5-0.1-1.4-0.2-2.9-0.2H54z"></path>
    </g>
    <linearGradient id="SVGID_2_" gradientUnits="userSpaceOnUse" x1="45.275" y1="25.775" x2="58.775" y2="12.275" gradientTransform="matrix(1 0 0 1 0 2)">
        <stop offset="0" style="stop-color:#F9EFF6"></stop>
        <stop offset="0.378" style="stop-color:#F8EDF5"></stop>
        <stop offset="0.515" style="stop-color:#F3E6F1"></stop>
        <stop offset="0.612" style="stop-color:#ECDBEB"></stop>
        <stop offset="0.69" style="stop-color:#E3CCE2"></stop>
        <stop offset="0.757" style="stop-color:#D7B8D7"></stop>
        <stop offset="0.817" style="stop-color:#CAA1C9"></stop>
        <stop offset="0.871" style="stop-color:#BC88BB"></stop>
        <stop offset="0.921" style="stop-color:#AE6CAB"></stop>
        <stop offset="0.965" style="stop-color:#9F4D9B"></stop>
        <stop offset="1" style="stop-color:#932A8E"></stop>
    </linearGradient>
    <path class="st4" d="M45.2,1l27,26.7h-27C45.2,27.7,45.2,1,45.2,1z"></path>
    <path class="st5" d="M45.2,1l27,26.7h-27C45.2,27.7,45.2,1,45.2,1z"></path>
    <g class="st2">
        <path class="st6" d="M24.6,61.3V34.5h3.6v26.8H24.6z"></path>
    </g>
    <g class="st2">
        <path class="st7" d="M24.6,61.3V34.5h3.6v26.8H24.6z"></path>
    </g>
    <g class="st2">
        <path class="st6" d="M42.5,61.7c-6,0-9.2-3.7-9.2-9.2c0-5.5,3.1-9.8,9.2-9.8c1.1,0,2.1,0.1,3.2,0.4v-8.6h3.4v26
		C47.7,61.1,45.2,61.7,42.5,61.7z M45.7,44.8c-0.8-0.2-1.8-0.3-2.7-0.3c-4.8,0-6.4,3.7-6.4,7.7c0,4.4,1.7,7.5,6,7.5
		c1.4,0,2.3-0.2,3-0.5V44.8z"></path>
    </g>
    <g class="st2">
        <path class="st7" d="M42.5,61.7c-6,0-9.2-3.7-9.2-9.2c0-5.5,3.1-9.8,9.2-9.8c1.1,0,2.1,0.1,3.2,0.4v-8.6h3.4v26
		C47.7,61.1,45.2,61.7,42.5,61.7z M45.7,44.8c-0.8-0.2-1.8-0.3-2.7-0.3c-4.8,0-6.4,3.7-6.4,7.7c0,4.4,1.7,7.5,6,7.5
		c1.4,0,2.3-0.2,3-0.5V44.8z"></path>
    </g>
</svg>