<svg id="Layer_1" xmlns="http://www.w3.org/2000/svg" viewBox="0 0 72 100"><style>.st0{fill:url(#SVGID_1_)}.st1{fill-opacity:0;stroke:#7191a1;stroke-width:2}.st2{fill:url(#SVGID_2_)}.st3{fill:url(#SVGID_3_)}.st4{fill:url(#SVGID_4_)}.st5{fill:url(#SVGID_5_)}.st6{fill-opacity:0;stroke:#7191a1;stroke-width:2;stroke-linejoin:bevel}.st7{enable-background:new}.st8{fill:#4c6c7b}</style><linearGradient id="SVGID_1_" gradientUnits="userSpaceOnUse" x1="36" y1="97" x2="36" y2="-1" gradientTransform="translate(0 2)"><stop offset="0" stop-color="#c8d4db"/><stop offset=".139" stop-color="#d8e1e6"/><stop offset=".359" stop-color="#ebf0f3"/><stop offset=".617" stop-color="#f9fafb"/><stop offset="1" stop-color="#fff"/></linearGradient><path class="st0" d="M45 1l27 26.7V99H0V1h45z"/><path class="st1" d="M45 1l27 26.7V99H0V1h45z"/><linearGradient id="SVGID_2_" gradientUnits="userSpaceOnUse" x1="36.2" y1="61.717" x2="36.2" y2="20.717"><stop offset="0" stop-color="#869ba6"/><stop offset=".379" stop-color="#8399a4"/><stop offset=".576" stop-color="#7b929e"/><stop offset=".731" stop-color="#6d8694"/><stop offset=".863" stop-color="#5a7785"/><stop offset=".981" stop-color="#426373"/><stop offset=".99" stop-color="#416271"/></linearGradient><path class="st2" d="M42 35.4c0-2.5-1.5-4.5-3.7-5.4v-7.3c0-1.2-.9-2.1-2.1-2.1s-2.1.9-2.1 2.1V30c-2.2.8-3.7 2.9-3.7 5.4 0 2.5 1.5 4.6 3.7 5.4 0 .1-.1.3-.1.4v18.4c0 1.2.9 2.1 2.1 2.1s2.1-.9 2.1-2.1V41.2c0-.2 0-.3-.1-.4 2.4-.8 3.9-2.9 3.9-5.4zM36.2 37c-.9 0-1.6-.7-1.6-1.6s.7-1.6 1.6-1.6 1.6.7 1.6 1.6-.7 1.6-1.6 1.6z"/><linearGradient id="SVGID_3_" gradientUnits="userSpaceOnUse" x1="50.918" y1="61.717" x2="50.918" y2="20.717"><stop offset="0" stop-color="#869ba6"/><stop offset=".379" stop-color="#8399a4"/><stop offset=".576" stop-color="#7b929e"/><stop offset=".731" stop-color="#6d8694"/><stop offset=".863" stop-color="#5a7785"/><stop offset=".981" stop-color="#426373"/><stop offset=".99" stop-color="#416271"/></linearGradient><path class="st3" d="M53 22.8c0-1.2-.9-2.1-2.1-2.1-1.2 0-2.1.9-2.1 2.1V40c-2.2.8-3.7 2.9-3.7 5.4 0 2.5 1.5 4.6 3.7 5.4 0 .1-.1.3-.1.4v8.4c0 1.2.9 2.1 2.1 2.1 1.2 0 2.1-.9 2.1-2.1v-8.4c0-.2 0-.3-.1-.4 2.2-.8 3.7-2.9 3.7-5.4 0-2.5-1.5-4.5-3.7-5.4V22.8zM50.9 47c-.9 0-1.6-.7-1.6-1.6 0-.9.7-1.6 1.6-1.6s1.6.7 1.6 1.6c0 .9-.7 1.6-1.6 1.6z"/><linearGradient id="SVGID_4_" gradientUnits="userSpaceOnUse" x1="21.482" y1="61.717" x2="21.482" y2="20.717"><stop offset="0" stop-color="#869ba6"/><stop offset=".379" stop-color="#8399a4"/><stop offset=".576" stop-color="#7b929e"/><stop offset=".731" stop-color="#6d8694"/><stop offset=".863" stop-color="#5a7785"/><stop offset=".981" stop-color="#426373"/><stop offset=".99" stop-color="#416271"/></linearGradient><path class="st4" d="M19.4 59.6c0 1.2.9 2.1 2.1 2.1 1.2 0 2.1-.9 2.1-2.1v-8.4c0-.2 0-.3-.1-.4 2.2-.8 3.7-2.9 3.7-5.4 0-2.5-1.5-4.5-3.7-5.4V22.8c0-1.2-.9-2.1-2.1-2.1-1.2 0-2.1.9-2.1 2.1V40c-2.2.8-3.7 2.9-3.7 5.4 0 2.5 1.5 4.6 3.7 5.4 0 .1-.1.3-.1.4v8.4zm2.1-15.8c.9 0 1.6.7 1.6 1.6 0 .9-.7 1.6-1.6 1.6-.9 0-1.6-.7-1.6-1.6 0-.9.7-1.6 1.6-1.6z"/><linearGradient id="SVGID_5_" gradientUnits="userSpaceOnUse" x1="45.037" y1="25.813" x2="58.537" y2="12.313" gradientTransform="translate(0 2)"><stop offset="0" stop-color="#fff"/><stop offset=".35" stop-color="#fafbfb"/><stop offset=".532" stop-color="#edf1f4"/><stop offset=".675" stop-color="#dde5e9"/><stop offset=".799" stop-color="#c7d3da"/><stop offset=".908" stop-color="#adbdc7"/><stop offset="1" stop-color="#92a5b0"/></linearGradient><path class="st5" d="M45 1l27 26.7H45V1z"/><path class="st6" d="M45 1l27 26.7H45V1z"/><g class="st7"><path class="st8" d="M20.7 91.9v-20h4v20h-4zm7.9 0v-20h3.9l8.2 13.4V71.8h3.8v20h-4.1l-8.1-13.1v13.1h-3.7zm20.1 0v-20h4v20h-4z"/></g></svg>