<?xml version="1.0" encoding="utf-8"?>
<svg version="1.1" id="Layer_1" xmlns="http://www.w3.org/2000/svg" xmlns:xlink="http://www.w3.org/1999/xlink" x="0px" y="0px" viewBox="0 0 72 100" style="enable-background:new 0 0 72 100;" xml:space="preserve">
    <style type="text/css">
	.st0{fill:url(#SVGID_1_);}
	.st1{fill-opacity:0;stroke:#7191A1;stroke-width:2;}
	.st2{fill:url(#path4735_1_);}
	.st3{fill:url(#SVGID_2_);}
	.st4{fill-opacity:0;stroke:#7191A1;stroke-width:2;stroke-linejoin:bevel;}
	.st5{enable-background:new    ;}
	.st6{fill:#4C6C7B;}
</style>
    <g>
        <linearGradient id="SVGID_1_" gradientUnits="userSpaceOnUse" x1="36" y1="97" x2="36" y2="-1" gradientTransform="matrix(1 0 0 1 0 2)">
            <stop offset="0" style="stop-color:#C8D4DB"></stop>
            <stop offset="0.139" style="stop-color:#D8E1E6"></stop>
            <stop offset="0.359" style="stop-color:#EBF0F3"></stop>
            <stop offset="0.617" style="stop-color:#F9FAFB"></stop>
            <stop offset="1" style="stop-color:#FFFFFF"></stop>
        </linearGradient>
        <path class="st0" d="M45,1l27,26.7V99H0V1H45z"></path>
        <path class="st1" d="M45,1l27,26.7V99H0V1H45z"></path>
    </g>
    <linearGradient id="path4735_1_" gradientUnits="userSpaceOnUse" x1="38" y1="65" x2="38" y2="24">
        <stop offset="0" style="stop-color:#ADCCDC"></stop>
        <stop offset="1" style="stop-color:#4C6C7B"></stop>
    </linearGradient>
    <path id="path4735" class="st2" d="M59.4,24c0,0-8.4,4-15.2,4.9c-6.8,0.9-19.8,1.8-22.4,1.1c-2.6-0.6-4.4-1.4-4.4-1.4l0.5,1.8
	l-1.7,1.5l0.3,0.5l0.7,0.1l2.1,0.3l0.3,0.9l1.2,0.1l0.6,2c0,0,2.5,0.2,3.2,0.2c0.7,0,2.2-0.1,2.2-0.1l0,0.8l0.5,0.1v0.9l-1.2,1
	l0.3,0.1v0.4c0,0-2.6,0.2-3.7,0.1C21.8,39,21.6,39,21.6,39l-0.1,0.1l0,0.5h0.2l0.1,2l5.4-0.2l-0.4,7l0,0.9L22.2,49l0-1.9h1l0.1-0.7
	l0.9-0.2l0.1-0.2l-3.5-0.8L18.2,46l0.4,0.4h0.4l0,0.6l0.9,0.1v1.8l-1,0.3l0.2,0.4l0.2,0.2v1.4h0.6v6.5l-1,0.2l0.1,1.9l0.6,0.1
	l-0.1,4.3l2.8,0.1L22,59.8l4.2-0.1L25.9,62l-0.4,1.6l4.2,0.1l0-4.2l2.9-0.3l-0.1,2.6l-0.1,1.6h2.5l-0.1-4.3l0.3,0.1l0.1-2h-0.4
	l-0.1-0.8L34.5,54l0.1-2.8h0.5v-1.7l-0.7,0.1l0.1-2l0.8-0.1l0-0.6l0.4-0.1l0.5-0.4l-2.8-0.6l-2.8,0.6L31,47l0.3,0l0.3,0l0.1,0.8
	l0.8,0l0,1.7l-3.3-0.1l0.1-1.9l0.1-1.7v-2.2l0.1-2.3l6.6-0.3l7.9-0.5L44,42l-0.3,3.6l-0.1,3.3l-2.9-0.1l0-2.3l1.1,0l0-0.7l0.4-0.1
	l0-0.1l0.4,0l0.2-0.3l-3.3-0.8l-3.3,0.7l0.2,0.4l0.4,0v0.2h0.4v0.7l1,0l0,2.1h-1l0,0.5l0.3,0l0,1.8l0.7,0l-0.1,7.1l-0.9,0.2l0,0.3
	h0.3v1.8h0.5l-0.1,2.5L38,64.9l3.5,0.1l-0.1-1.9L41,61.6L41,60.2l2.9-0.1l-0.1,2.1l0,2.2l1.7,0.1l2.3-0.1l0.7-0.2l-0.4-1.2L48,61.3
	l-0.2-1.3l2.8-0.1l-0.1,1.6l0,2.5l1.1,0.1l1.1,0l0.5-0.2l-0.3-2.4l-0.1-1.8l0.5-0.1l0-1.6l0.1,0l0-0.4h-0.5l-0.1-1.2l0-5.2l0.4,0
	v-1.7l0.2,0v-0.3l-0.6-0.1l0-2l1-0.1l-0.1-0.7l0.4,0l0-0.1l0.6-0.3l-3-0.6L48.5,46l0.2,0.4l0.5,0l0,0.2h0.4l0,0.8l1,0l0.1,1.9
	l-3.5,0l-0.4-2.9l-0.3-1.5L46.2,42l0.2-1.6l7-0.5l0-2.4l0.4-0.1l0-0.4l-0.3-0.2c0,0-3.8,0.6-5.1,0.7c-0.3,0-0.3,0-0.6,0.1l0-0.4
	l-1.5-0.8l0-0.9l0.5,0l0-1.2c0,0,3-0.2,4.1-0.5c1.1-0.3,2.7-0.5,2.7-0.5l0.7-2l1.5-0.4l0.1-0.3l3.3-0.9l0.4-0.3l-1.3-2.8l0.1-0.6
	l0.6-0.3l0.5-1.4L59.4,24z M43.4,34.5l0,1l0.8,0l0,1l-1.5,1l-0.1,0.3l0.6,0l0,0.2l-4.5,0.2l0-0.7l0.2-0.3l0-0.2l0-0.5l0.1-0.3l0-0.2
	v-0.2l0.2-0.8L43.4,34.5z M34,35.4l-0.1,0.7l0.4,0.4l0,0.7l0.3,0.5l-0.1,0.6l0.2,0.4l-4.6,0.2l0-0.2l0.5-0.1l0-0.2l-1.2-0.6l-0.1-1
	l0.6,0l0-1.1L34,35.4z M40.8,51l2.8,0.2l-0.1,3.8l0.4,3.1l-3-0.1L40.8,51z M22.1,51.1l4.5,0.2L26.1,54v2.2l0.3,1.2l-4.4,0.2
	L22.1,51.1z M50.7,51.2v6.4l-2.8,0.2l-0.1-3.4l-0.3-3.2L50.7,51.2z M29.2,51.3l3.3,0l0,6l-3.1,0.1l-0.2-1.9l0-1.9L29.2,51.3z"></path>
    <g>
        <linearGradient id="SVGID_2_" gradientUnits="userSpaceOnUse" x1="45.0368" y1="25.8132" x2="58.5368" y2="12.3132" gradientTransform="matrix(1 0 0 1 0 2)">
            <stop offset="0" style="stop-color:#FFFFFF"></stop>
            <stop offset="0.35" style="stop-color:#FAFBFB"></stop>
            <stop offset="0.532" style="stop-color:#EDF1F4"></stop>
            <stop offset="0.675" style="stop-color:#DDE5E9"></stop>
            <stop offset="0.799" style="stop-color:#C7D3DA"></stop>
            <stop offset="0.908" style="stop-color:#ADBDC7"></stop>
            <stop offset="1" style="stop-color:#92A5B0"></stop>
        </linearGradient>
        <path class="st3" d="M45,1l27,26.7H45V1z"></path>
        <path class="st4" d="M45,1l27,26.7H45V1z"></path>
    </g>
    <g class="st5">
        <path class="st6" d="M29.2,71.8h4v12.7c0,1.7-0.1,2.9-0.4,3.8c-0.4,1.2-1.1,2.1-2.1,2.8c-1,0.7-2.4,1.1-4.1,1.1
		c-2,0-3.5-0.6-4.6-1.7s-1.6-2.7-1.6-4.9l3.8-0.4c0,1.1,0.2,2,0.5,2.4c0.4,0.7,1.1,1.1,2,1.1c0.9,0,1.5-0.3,1.9-0.8
		c0.4-0.5,0.6-1.6,0.6-3.2V71.8z"></path>
        <path class="st6" d="M49.6,88.3v3.6H36.2c0.1-1.3,0.6-2.6,1.3-3.8c0.7-1.2,2.2-2.8,4.3-4.8c1.7-1.6,2.8-2.7,3.2-3.3
		c0.5-0.8,0.8-1.6,0.8-2.4c0-0.9-0.2-1.5-0.7-2c-0.5-0.5-1.1-0.7-1.9-0.7c-0.8,0-1.4,0.2-1.9,0.7c-0.5,0.5-0.7,1.3-0.8,2.4l-3.8-0.4
		c0.2-2.1,0.9-3.6,2.1-4.6s2.7-1.4,4.5-1.4c2,0,3.5,0.5,4.7,1.6c1.1,1.1,1.7,2.4,1.7,4c0,0.9-0.2,1.8-0.5,2.6
		c-0.3,0.8-0.8,1.7-1.5,2.6c-0.5,0.6-1.3,1.4-2.5,2.6c-1.2,1.1-2,1.9-2.3,2.2c-0.3,0.4-0.6,0.7-0.8,1.1H49.6z"></path>
    </g>
</svg>