<?xml version="1.0" encoding="utf-8"?>
<svg version="1.1" id="Layer_1" xmlns="http://www.w3.org/2000/svg" xmlns:xlink="http://www.w3.org/1999/xlink" x="0px" y="0px" viewBox="0 0 72 100" style="enable-background:new 0 0 72 100;" xml:space="preserve">
    <style type="text/css">
	.st0{fill:url(#SVGID_1_);}
	.st1{fill-opacity:0;stroke:#7191A1;stroke-width:2;}
	.st2{fill:url(#SVGID_2_);}
	.st3{fill:url(#SVGID_3_);}
	.st4{fill:url(#SVGID_4_);}
	.st5{fill-opacity:0;stroke:#7191A1;stroke-width:2;stroke-linejoin:bevel;}
	.st6{enable-background:new    ;}
	.st7{fill:#4C6C7B;}
</style>
    <g>
        <linearGradient id="SVGID_1_" gradientUnits="userSpaceOnUse" x1="36" y1="97" x2="36" y2="-1" gradientTransform="matrix(1 0 0 1 0 2)">
            <stop offset="0" style="stop-color:#C8D4DB"></stop>
            <stop offset="0.139" style="stop-color:#D8E1E6"></stop>
            <stop offset="0.359" style="stop-color:#EBF0F3"></stop>
            <stop offset="0.617" style="stop-color:#F9FAFB"></stop>
            <stop offset="1" style="stop-color:#FFFFFF"></stop>
        </linearGradient>
        <path class="st0" d="M45,1l27,26.7V99H0V1H45z"></path>
        <path class="st1" d="M45,1l27,26.7V99H0V1H45z"></path>
    </g>
    <g>
        <linearGradient id="SVGID_2_" gradientUnits="userSpaceOnUse" x1="36.5" y1="63.25" x2="36.5" y2="23.65">
            <stop offset="0" style="stop-color:#869BA6"></stop>
            <stop offset="0.379" style="stop-color:#8399A4"></stop>
            <stop offset="0.576" style="stop-color:#7B929E"></stop>
            <stop offset="0.731" style="stop-color:#6D8694"></stop>
            <stop offset="0.863" style="stop-color:#5A7785"></stop>
            <stop offset="0.981" style="stop-color:#426373"></stop>
            <stop offset="0.99" style="stop-color:#416271"></stop>
        </linearGradient>
        <path class="st2" d="M58.7,43.5c0-2.9-3.7-5.7-9.3-7.4c1.3-5.7,0.7-10.3-1.8-11.8c-0.6-0.3-1.3-0.5-2.1-0.5v2.1
		c0.4,0,0.8,0.1,1,0.3c1.2,0.7,1.8,3.4,1.4,6.8c-0.1,0.9-0.3,1.7-0.4,2.7c-1.8-0.4-3.7-0.8-5.7-1c-1.2-1.7-2.5-3.2-3.8-4.5
		c3-2.7,5.7-4.3,7.6-4.3v-2.1l0,0c-2.5,0-5.7,1.8-9.1,4.9c-3.3-3.1-6.6-4.8-9.1-4.8v2.1c1.9,0,4.6,1.5,7.6,4.2
		c-1.3,1.4-2.6,2.8-3.8,4.5c-2.1,0.3-4,0.5-5.7,1c-0.2-0.9-0.3-1.8-0.5-2.7c-0.4-3.4,0.1-6.2,1.3-6.8c0.3-0.2,1.2-0.3,1.2-0.3v-2.1
		h-0.2c-0.8,0-1.5,0.2-2.1,0.5c-2.6,1.5-3.1,6.1-1.8,11.8c-5.6,1.7-9.3,4.5-9.3,7.4s3.7,5.7,9.3,7.4c-1.3,5.7-0.7,10.3,1.8,11.8
		c0.6,0.3,1.3,0.5,2.1,0.5c2.5,0,5.7-1.8,9.1-4.9c3.3,3.1,6.6,4.8,9.1,4.8c0.8,0,1.5-0.2,2.1-0.5c2.6-1.5,3.1-6.1,1.8-11.8
		C55.1,49.2,58.7,46.4,58.7,43.5z M46.9,37.4c-0.3,1.2-0.8,2.4-1.2,3.6c-0.3-0.7-0.8-1.5-1.2-2.1c-0.4-0.7-0.9-1.5-1.3-2.1
		C44.5,36.9,45.7,37.2,46.9,37.4z M42.7,47.1c-0.7,1.2-1.5,2.4-2.2,3.4c-1.3,0.2-2.7,0.3-4,0.3s-2.7-0.1-4.1-0.2
		c-0.8-1.1-1.5-2.2-2.2-3.4c-0.7-1.2-1.3-2.4-1.9-3.6c0.6-1.2,1.2-2.4,1.9-3.6c0.7-1.2,1.5-2.4,2.2-3.4c1.4-0.1,2.7-0.2,4.1-0.2
		s2.7,0.1,4.1,0.2c0.8,1.1,1.5,2.2,2.2,3.4c0.7,1.2,1.3,2.4,1.9,3.6C44.1,44.7,43.4,45.9,42.7,47.1z M45.7,45.9
		c0.5,1.2,0.9,2.4,1.3,3.6c-1.2,0.3-2.5,0.5-3.8,0.7c0.4-0.7,0.9-1.5,1.3-2.1C45,47.4,45.3,46.7,45.7,45.9z M36.5,55.6
		c-0.9-0.9-1.7-1.9-2.5-2.9c0.9,0,1.6,0.1,2.5,0.1c0.9,0,1.7,0,2.5-0.1C38.2,53.8,37.4,54.7,36.5,55.6z M29.7,50.2
		c-1.3-0.2-2.6-0.4-3.7-0.7c0.3-1.2,0.8-2.4,1.2-3.6c0.3,0.7,0.8,1.5,1.2,2.1C28.9,48.9,29.3,49.6,29.7,50.2z M36.5,31.4
		c0.9,0.9,1.7,1.9,2.5,2.9c-0.9,0-1.6-0.1-2.5-0.1c-0.9,0-1.7,0-2.5,0.1C34.8,33.2,35.6,32.3,36.5,31.4z M29.7,36.7
		c-0.4,0.7-0.9,1.5-1.3,2.1c-0.4,0.7-0.8,1.5-1.2,2.1c-0.5-1.2-0.9-2.4-1.3-3.6C27.2,37.2,28.5,36.9,29.7,36.7z M21.5,48.1
		c-3.3-1.4-5.3-3.2-5.3-4.6c0-1.5,2.1-3.3,5.3-4.6c0.8-0.3,1.6-0.6,2.5-0.9c0.5,1.8,1.2,3.6,2.1,5.6c-0.9,1.9-1.5,3.8-2.1,5.5
		C23.2,48.7,22.4,48.5,21.5,48.1z M26.4,61c-1.2-0.7-1.8-3.4-1.4-6.8c0.1-0.9,0.3-1.7,0.4-2.7c1.8,0.4,3.7,0.8,5.7,1
		c1.2,1.7,2.5,3.2,3.8,4.5c-3,2.7-5.7,4.3-7.6,4.3C27.1,61.3,26.7,61.2,26.4,61z M48,54.1c0.4,3.4-0.1,6.2-1.3,6.8
		c-0.3,0.2-0.6,0.3-1,0.3c-1.9,0-4.6-1.5-7.6-4.2c1.3-1.4,2.6-2.8,3.8-4.5c2.1-0.3,4-0.5,5.7-1C47.7,52.4,47.9,53.3,48,54.1z
		 M51.5,48.1c-0.8,0.3-1.6,0.6-2.5,0.9c-0.5-1.8-1.2-3.6-2.1-5.6c0.9-1.9,1.5-3.8,2.1-5.5c0.9,0.3,1.7,0.6,2.6,0.9
		c3.3,1.4,5.3,3.2,5.3,4.6C56.7,44.9,54.6,46.7,51.5,48.1z"></path>
        <linearGradient id="SVGID_3_" gradientUnits="userSpaceOnUse" x1="36.5" y1="47.5982" x2="36.5" y2="39.3874">
            <stop offset="0" style="stop-color:#869BA6"></stop>
            <stop offset="0.379" style="stop-color:#8399A4"></stop>
            <stop offset="0.576" style="stop-color:#7B929E"></stop>
            <stop offset="0.731" style="stop-color:#6D8694"></stop>
            <stop offset="0.863" style="stop-color:#5A7785"></stop>
            <stop offset="0.981" style="stop-color:#426373"></stop>
            <stop offset="0.99" style="stop-color:#416271"></stop>
        </linearGradient>
        <circle class="st3" cx="36.5" cy="43.5" r="4.1"></circle>
    </g>
    <g>
        <linearGradient id="SVGID_4_" gradientUnits="userSpaceOnUse" x1="45.0368" y1="25.8132" x2="58.5368" y2="12.3132" gradientTransform="matrix(1 0 0 1 0 2)">
            <stop offset="0" style="stop-color:#FFFFFF"></stop>
            <stop offset="0.35" style="stop-color:#FAFBFB"></stop>
            <stop offset="0.532" style="stop-color:#EDF1F4"></stop>
            <stop offset="0.675" style="stop-color:#DDE5E9"></stop>
            <stop offset="0.799" style="stop-color:#C7D3DA"></stop>
            <stop offset="0.908" style="stop-color:#ADBDC7"></stop>
            <stop offset="1" style="stop-color:#92A5B0"></stop>
        </linearGradient>
        <path class="st4" d="M45,1l27,26.7H45V1z"></path>
        <path class="st5" d="M45,1l27,26.7H45V1z"></path>
    </g>
    <g class="st6">
        <path class="st7" d="M19.6,71.8h4v12.7c0,1.7-0.1,2.9-0.4,3.8c-0.4,1.2-1.1,2.1-2.1,2.8c-1,0.7-2.4,1.1-4.1,1.1
		c-2,0-3.5-0.6-4.6-1.7s-1.6-2.7-1.6-4.9l3.8-0.4c0,1.1,0.2,2,0.5,2.4c0.4,0.7,1.1,1.1,2,1.1c0.9,0,1.5-0.3,1.9-0.8
		c0.4-0.5,0.6-1.6,0.6-3.2V71.8z"></path>
        <path class="st7" d="M26.9,85.3l3.9-0.4c0.2,1.3,0.7,2.3,1.4,2.9s1.7,0.9,2.9,0.9c1.3,0,2.3-0.3,2.9-0.8s1-1.2,1-1.9
		c0-0.5-0.1-0.9-0.4-1.2s-0.8-0.6-1.5-0.9c-0.5-0.2-1.6-0.5-3.2-0.9c-2.2-0.5-3.7-1.2-4.6-2c-1.2-1.1-1.8-2.4-1.8-4
		c0-1,0.3-2,0.9-2.9c0.6-0.9,1.4-1.6,2.5-2c1.1-0.5,2.4-0.7,3.9-0.7c2.5,0,4.4,0.6,5.7,1.7s1.9,2.6,2,4.4l-4,0.2
		c-0.2-1-0.5-1.8-1.1-2.2s-1.4-0.7-2.6-0.7c-1.2,0-2.1,0.2-2.8,0.7c-0.4,0.3-0.6,0.7-0.6,1.2c0,0.5,0.2,0.9,0.6,1.2
		c0.5,0.4,1.8,0.9,3.7,1.3c2,0.5,3.4,0.9,4.4,1.4s1.7,1.2,2.2,2s0.8,1.9,0.8,3.2c0,1.1-0.3,2.2-1,3.2s-1.5,1.7-2.7,2.2
		s-2.6,0.7-4.4,0.7c-2.5,0-4.5-0.6-5.8-1.8C28,89.2,27.2,87.5,26.9,85.3z"></path>
        <path class="st7" d="M44.6,91.8l6.8-10.5l-6.2-9.6H50l4,6.4l3.9-6.4h4.7l-6.2,9.7l6.8,10.3h-4.9l-4.4-6.9l-4.5,6.9H44.6z"></path>
    </g>
</svg>