<svg id="Layer_1" xmlns="http://www.w3.org/2000/svg" viewBox="0 0 72 100"><linearGradient id="SVGID_1_" gradientUnits="userSpaceOnUse" x1="36.1" y1="97" x2="36.1" y2="-1" gradientTransform="translate(0 2)"><stop offset="0" stop-color="#c8d4db"/><stop offset=".139" stop-color="#d8e1e6"/><stop offset=".359" stop-color="#ebf0f3"/><stop offset=".617" stop-color="#f9fafb"/><stop offset="1" stop-color="#fff"/></linearGradient><path d="M45.1 1L72 27.7V99H.2V1h44.9z" fill="url(#SVGID_1_)"/><path d="M45.1 1L72 27.7V99H.2V1h44.9z" fill-opacity="0" stroke="#7191a1" stroke-width="2"/><path d="M7.6 91.1V71.4h4v16.3h10V91l-14 .1zm16.8 0V71.2h4V91l-4 .1zm6.9-6.5l3.9-.4c.2 1.3.7 2.3 1.4 2.9s1.7.9 2.9.9c1.3 0 2.3-.3 2.9-.8.7-.5 1-1.2 1-1.9 0-.5-.1-.9-.4-1.2-.3-.3-.8-.6-1.5-.9-.5-.2-1.5-.5-3.2-.9-2.2-.5-3.7-1.2-4.6-2-1.2-1.1-1.8-2.4-1.8-4 0-1 .3-2 .9-2.8.6-.9 1.4-1.5 2.5-2s2.4-.7 3.9-.7c2.5 0 4.4.5 5.7 1.6s1.9 2.5 2 4.4l-4 .2c-.2-1-.5-1.8-1.1-2.2-.6-.4-1.4-.7-2.6-.7-1.2 0-2.1.2-2.8.7-.4.3-.6.7-.6 1.2s.2.9.6 1.2c.5.4 1.7.9 3.7 1.3 2 .5 3.4.9 4.4 1.4.9.5 1.7 1.2 2.2 2s.8 1.9.8 3.2c0 1.1-.3 2.2-1 3.2-.6 1-1.5 1.7-2.7 2.2s-2.6.7-4.3.7c-2.5 0-4.5-.6-5.8-1.7-1.4-1-2.2-2.7-2.4-4.9zm19.6 6.5V71.2h6.5c2.5 0 4.1.1 4.8.3 1.1.3 2.1.9 2.9 1.9.8 1 1.2 2.3 1.2 3.9 0 1.2-.2 2.2-.7 3.1s-1 1.5-1.7 2-1.4.8-2.1.9c-1 .2-2.4.3-4.2.3H55v7.5h-4.1zm4-16.5v5.6h2.2c1.6 0 2.7-.1 3.2-.3.5-.2 1-.5 1.3-1 .3-.4.5-1 .5-1.5 0-.7-.2-1.3-.6-1.8-.4-.5-1-.8-1.6-.9-.5-.1-1.4-.1-2.9-.1h-2.1z" fill="#4c6c7b"/><linearGradient id="SVGID_2_" gradientUnits="userSpaceOnUse" x1="20.536" y1="56.336" x2="63.248" y2="56.336" gradientTransform="matrix(1 0 0 -1 0 100)"><stop offset="0" stop-color="#adccdc"/><stop offset="1" stop-color="#4c6c7b"/></linearGradient><path d="M42.4 28.9h12.8c1.6 0 3.2.3 4.6 1.2 2.3 1.4 3.4 3.6 3.5 6.2.1 3.3-1.2 5.9-3.8 7.7-1 .7-2 1-3.3 1.1-1.2 0-2.2.3-2.8 1.3-.3.7-.5 1.5-.5 2.2-.1 2.2-.1 4.4-.1 6.7 0 .3 0 .6-.1.9-.2 1.3-1.4 2.3-2.9 2.2-1.2.1-2.2-1-2.2-2.4 0-3.3 0-6.5.1-9.8.1-1.7 1.1-3.2 2.3-4.3 1.5-1.3 3.5-2 5.5-2.1 2.2-.1 3.5-2 2.5-3.9-.4-.8-1-1.2-1.8-1.3-.3 0-.6-.1-.9-.1H29.9c-.6 0-1.1.1-1.6.2-1.4.3-2.2 1.2-2.4 2.7V53c0 .4 0 .7-.1 1.1-.3 1.3-1.3 2.1-2.8 2-1.3-.1-2.3-1.1-2.4-2.4-.1-3.4-.1-6.7-.1-10 0-2.1-.1-4.2 0-6.3.1-4.4 3.7-8.1 8.2-8.3 4.6-.2 9.2-.1 13.7-.2 0 .1 0 .1 0 0z" fill="url(#SVGID_2_)"/><linearGradient id="SVGID_3_" gradientUnits="userSpaceOnUse" x1="12.349" y1="50.93" x2="47.072" y2="50.93" gradientTransform="matrix(1 0 0 -1 0 100)"><stop offset="0" stop-color="#adccdc"/><stop offset="1" stop-color="#4c6c7b"/></linearGradient><path d="M12.3 46.6v-9.1c0-1.1.3-2 1.2-2.7 1.6-1.1 3.6 0 3.9 1.9 0 .4.1.8.1 1.2 0 5.6.1 11.2.1 16.8 0 1 .1 1.9.8 2.7.9 1.1 2 1.2 3.2 1.2h15.2c1.3-.1 2.3-1.2 2.3-2.6 0-1.3-.9-2.4-2.2-2.6-.8-.1-1.5-.1-2.3-.3-3-.7-4.8-2.6-5.8-5.5-1.2-3.7.3-7.5 3.6-9.4 1.1-.6 2.1-1 3.4-1 2.9-.1 5.7-.1 8.5-.1 1.3 0 2.2.8 2.6 1.9.4 1.3-.1 2.7-1.2 3.3-.5.2-1.1.4-1.6.4h-7.3c-1.2 0-2.1.4-2.7 1.5-.8 1.7.4 3.6 2.2 3.7 1.6.1 3.2.3 4.5 1.2 2.5 1.4 3.6 3.7 3.6 6.5 0 3.3-1.3 5.8-4.3 7.3-1 .5-2 .7-3.1.7-5.6.1-11.1.1-16.7.2-4 0-7.3-2.8-8-6.9-.1-.6-.2-1.2-.2-1.8.2-2.8.2-5.7.2-8.5z" fill="url(#SVGID_3_)"/><linearGradient id="SVGID_4_" gradientUnits="userSpaceOnUse" x1="45.126" y1="25.774" x2="58.575" y2="12.325" gradientTransform="translate(0 2)"><stop offset="0" stop-color="#fff"/><stop offset=".35" stop-color="#fafbfb"/><stop offset=".532" stop-color="#edf1f4"/><stop offset=".675" stop-color="#dde5e9"/><stop offset=".799" stop-color="#c7d3da"/><stop offset=".908" stop-color="#adbdc7"/><stop offset="1" stop-color="#92a5b0"/></linearGradient><path d="M45.1 1L72 27.7H45.1V1z" fill="url(#SVGID_4_)"/><path d="M45.1 1L72 27.7H45.1V1z" fill-opacity="0" stroke="#7191a1" stroke-width="2" stroke-linejoin="bevel"/></svg>