<?xml version="1.0" encoding="utf-8"?>
<svg version="1.1" id="Layer_1" xmlns="http://www.w3.org/2000/svg" xmlns:xlink="http://www.w3.org/1999/xlink" x="0px" y="0px" viewBox="0 0 72 100" style="enable-background:new 0 0 72 100;" xml:space="preserve">
    <style type="text/css">
	.st0{fill:url(#SVGID_1_);}
	.st1{fill-opacity:0;stroke:#7191A1;stroke-width:2;}
	.st2{fill:url(#SVGID_2_);}
	.st3{fill:url(#SVGID_3_);}
	.st4{fill-opacity:0;stroke:#7191A1;stroke-width:2;stroke-linejoin:bevel;}
	.st5{enable-background:new    ;}
	.st6{fill:#4C6C7B;}
</style>
    <g>
        <linearGradient id="SVGID_1_" gradientUnits="userSpaceOnUse" x1="36" y1="97" x2="36" y2="-1" gradientTransform="matrix(1 0 0 1 0 2)">
            <stop offset="0" style="stop-color:#C8D4DB"></stop>
            <stop offset="0.139" style="stop-color:#D8E1E6"></stop>
            <stop offset="0.359" style="stop-color:#EBF0F3"></stop>
            <stop offset="0.617" style="stop-color:#F9FAFB"></stop>
            <stop offset="1" style="stop-color:#FFFFFF"></stop>
        </linearGradient>
        <path class="st0" d="M45,1l27,26.7V99H0V1H45z"></path>
        <path class="st1" d="M45,1l27,26.7V99H0V1H45z"></path>
    </g>
    <linearGradient id="SVGID_2_" gradientUnits="userSpaceOnUse" x1="36.8" y1="61.5893" x2="36.8" y2="20.3333">
        <stop offset="0" style="stop-color:#ADCCDC"></stop>
        <stop offset="1" style="stop-color:#4C6C7B"></stop>
    </linearGradient>
    <path class="st2" d="M51.4,37.7h-2.9V32c0-6.4-5.2-11.7-11.7-11.7S25.1,25.6,25.1,32v5.7h-2.9c-1.1,0-2,0.9-2,2v19.8
	c0,1.1,0.9,2,2,2h29.1c1.1,0,2-0.9,2-2V39.8C53.4,38.6,52.5,37.7,51.4,37.7z M39.3,54.2c0.2,0.7-0.3,1.3-1,1.3h-3
	c-0.7,0-1.2-0.7-1-1.3l1-3.7c-1.1-0.6-1.9-1.7-1.9-3.1c0-2,1.6-3.5,3.5-3.5s3.5,1.6,3.5,3.5c0,1.4-0.8,2.6-1.9,3.1L39.3,54.2z
	 M42.6,37.7H31V32c0-3.2,2.6-5.8,5.8-5.8s5.8,2.6,5.8,5.8L42.6,37.7L42.6,37.7z"></path>
    <g>
        <linearGradient id="SVGID_3_" gradientUnits="userSpaceOnUse" x1="45.0368" y1="25.8132" x2="58.5368" y2="12.3132" gradientTransform="matrix(1 0 0 1 0 2)">
            <stop offset="0" style="stop-color:#FFFFFF"></stop>
            <stop offset="0.35" style="stop-color:#FAFBFB"></stop>
            <stop offset="0.532" style="stop-color:#EDF1F4"></stop>
            <stop offset="0.675" style="stop-color:#DDE5E9"></stop>
            <stop offset="0.799" style="stop-color:#C7D3DA"></stop>
            <stop offset="0.908" style="stop-color:#ADBDC7"></stop>
            <stop offset="1" style="stop-color:#92A5B0"></stop>
        </linearGradient>
        <path class="st3" d="M45,1l27,26.7H45V1z"></path>
        <path class="st4" d="M45,1l27,26.7H45V1z"></path>
    </g>
    <g class="st5">
        <path class="st6" d="M7,91.9V76.3h3.2v13h7.9v2.7H7z"></path>
        <path class="st6" d="M19.7,84.1c0-1.6,0.2-3,0.7-4c0.4-0.8,0.8-1.5,1.5-2.2c0.6-0.6,1.3-1.1,2-1.4c1-0.4,2.1-0.6,3.4-0.6
		c2.3,0,4.2,0.7,5.6,2.2c1.4,1.4,2.1,3.4,2.1,6c0,2.5-0.7,4.5-2.1,6c-1.4,1.4-3.2,2.2-5.5,2.2c-2.3,0-4.2-0.7-5.6-2.1
		C20.4,88.6,19.7,86.6,19.7,84.1z M23,84c0,1.8,0.4,3.1,1.2,4.1c0.8,0.9,1.9,1.4,3.1,1.4s2.3-0.5,3.1-1.4c0.8-0.9,1.2-2.3,1.2-4.1
		c0-1.8-0.4-3.2-1.2-4c-0.8-0.9-1.8-1.3-3.2-1.3S25,79,24.2,79.9C23.4,80.8,23,82.2,23,84z"></path>
        <path class="st6" d="M47.6,86.1l3.1,1c-0.5,1.7-1.3,3-2.4,3.8c-1.1,0.8-2.5,1.3-4.2,1.3c-2.1,0-3.8-0.7-5.2-2.1
		c-1.3-1.4-2-3.4-2-5.9c0-2.6,0.7-4.7,2-6.1c1.4-1.4,3.1-2.2,5.3-2.2c1.9,0,3.5,0.6,4.7,1.7c0.7,0.7,1.3,1.6,1.6,2.9l-3.1,0.8
		c-0.2-0.8-0.6-1.5-1.2-1.9s-1.3-0.7-2.2-0.7c-1.2,0-2.1,0.4-2.8,1.3s-1.1,2.2-1.1,4.1c0,2,0.4,3.4,1.1,4.3c0.7,0.8,1.6,1.3,2.8,1.3
		c0.8,0,1.6-0.3,2.2-0.8C46.9,88.1,47.3,87.2,47.6,86.1z"></path>
        <path class="st6" d="M53.4,91.9V76.1h3.2v7l6.4-7h4.3l-5.9,6.1l6.3,9.6h-4.1l-4.3-7.4l-2.6,2.6v4.8H53.4z"></path>
    </g>
</svg>