<?xml version="1.0" encoding="utf-8"?>
<svg version="1.1" id="Layer_1" xmlns="http://www.w3.org/2000/svg" xmlns:xlink="http://www.w3.org/1999/xlink" x="0px" y="0px" viewBox="0 0 72 100" style="enable-background:new 0 0 72 100;" xml:space="preserve">
    <style type="text/css">
	.st0{fill:url(#SVGID_1_);}
	.st1{fill-opacity:0;stroke:#7191A1;stroke-width:2;}
	.st2{fill:url(#SVGID_2_);}
	.st3{fill:url(#SVGID_3_);}
	.st4{fill-opacity:0;stroke:#7191A1;stroke-width:2;stroke-linejoin:bevel;}
	.st5{enable-background:new    ;}
	.st6{fill:#4C6C7B;}
</style>
    <g>
        <linearGradient id="SVGID_1_" gradientUnits="userSpaceOnUse" x1="36" y1="97" x2="36" y2="-1" gradientTransform="matrix(1 0 0 1 0 2)">
            <stop offset="0" style="stop-color:#C8D4DB"></stop>
            <stop offset="0.139" style="stop-color:#D8E1E6"></stop>
            <stop offset="0.359" style="stop-color:#EBF0F3"></stop>
            <stop offset="0.617" style="stop-color:#F9FAFB"></stop>
            <stop offset="1" style="stop-color:#FFFFFF"></stop>
        </linearGradient>
        <path class="st0" d="M45,1l27,26.7V99H0V1H45z"></path>
        <path class="st1" d="M45,1l27,26.7V99H0V1H45z"></path>
    </g>
    <linearGradient id="SVGID_2_" gradientUnits="userSpaceOnUse" x1="37" y1="64.5" x2="37" y2="23.5">
        <stop offset="0" style="stop-color:#869BA6"></stop>
        <stop offset="0.379" style="stop-color:#8399A4"></stop>
        <stop offset="0.576" style="stop-color:#7B929E"></stop>
        <stop offset="0.731" style="stop-color:#6D8694"></stop>
        <stop offset="0.863" style="stop-color:#5A7785"></stop>
        <stop offset="0.981" style="stop-color:#426373"></stop>
        <stop offset="0.99" style="stop-color:#416271"></stop>
    </linearGradient>
    <path class="st2" d="M34.3,64.5c-9.8,0-17.8-8-17.8-17.8s8-18,18.2-17.8c9.6,0.2,17.4,8,17.4,17.8S44.2,64.5,34.3,64.5z M41.7,34
	c-2.9,0-5.3,2.5-5.3,5.3c0,2.9,2.3,5.3,5.3,5.3c2.9,0,5.3-2.3,5.3-5.3C47,36.4,44.8,34,41.7,34z M52.2,34c-2.9,0-5.3-2.3-5.1-5.3
	c0-2.9,2.3-5.1,5.3-5.1c2.9,0,5.1,2.5,5.1,5.3S55,34,52.2,34z"></path>
    <g>
        <linearGradient id="SVGID_3_" gradientUnits="userSpaceOnUse" x1="45.0368" y1="25.8132" x2="58.5368" y2="12.3132" gradientTransform="matrix(1 0 0 1 0 2)">
            <stop offset="0" style="stop-color:#FFFFFF"></stop>
            <stop offset="0.35" style="stop-color:#FAFBFB"></stop>
            <stop offset="0.532" style="stop-color:#EDF1F4"></stop>
            <stop offset="0.675" style="stop-color:#DDE5E9"></stop>
            <stop offset="0.799" style="stop-color:#C7D3DA"></stop>
            <stop offset="0.908" style="stop-color:#ADBDC7"></stop>
            <stop offset="1" style="stop-color:#92A5B0"></stop>
        </linearGradient>
        <path class="st3" d="M45,1l27,26.7H45V1z"></path>
        <path class="st4" d="M45,1l27,26.7H45V1z"></path>
    </g>
    <g class="st5">
        <path class="st6" d="M10.5,91.9V72h4v16.5h10.1v3.4H10.5z"></path>
        <path class="st6" d="M27.5,71.8h4v10.9c0,1.7,0,2.8,0.2,3.3c0.2,0.8,0.6,1.5,1.2,2c0.7,0.5,1.5,0.7,2.7,0.7c1.1,0,2-0.2,2.6-0.7
		c0.6-0.5,0.9-1,1.1-1.7c0.1-0.7,0.2-1.8,0.2-3.4V71.8h4v10.5c0,2.4-0.1,4.1-0.3,5.1s-0.6,1.8-1.2,2.5s-1.4,1.2-2.4,1.6
		s-2.3,0.6-3.9,0.6c-1.9,0-3.4-0.2-4.4-0.7c-1-0.4-1.8-1-2.3-1.7s-1-1.4-1.1-2.2c-0.3-1.1-0.4-2.8-0.4-5.1V71.8z"></path>
        <path class="st6" d="M65.8,91.9h-4.4l-1.8-4.6h-8L50,91.9h-4.3l7.8-20h4.3L65.8,91.9z M58.4,84l-2.8-7.4L52.9,84H58.4z"></path>
    </g>
</svg>