<svg id="Layer_1" xmlns="http://www.w3.org/2000/svg" viewBox="0 0 72 100"><linearGradient id="SVGID_1_" gradientUnits="userSpaceOnUse" x1="36" y1="97" x2="36" y2="-1" gradientTransform="translate(0 2)"><stop offset="0" stop-color="#c8d4db"/><stop offset=".139" stop-color="#d8e1e6"/><stop offset=".359" stop-color="#ebf0f3"/><stop offset=".617" stop-color="#f9fafb"/><stop offset="1" stop-color="#fff"/></linearGradient><path d="M45 1l27 26.7V99H0V1h45z" fill="url(#SVGID_1_)"/><path d="M45 1l27 26.7V99H0V1h45z" fill-opacity="0" stroke="#7191a1" stroke-width="2"/><linearGradient id="SVGID_2_" gradientUnits="userSpaceOnUse" x1="37" y1="64.5" x2="37" y2="23.5"><stop offset="0" stop-color="#869ba6"/><stop offset=".379" stop-color="#8399a4"/><stop offset=".576" stop-color="#7b929e"/><stop offset=".731" stop-color="#6d8694"/><stop offset=".863" stop-color="#5a7785"/><stop offset=".981" stop-color="#426373"/><stop offset=".99" stop-color="#416271"/></linearGradient><path d="M34.3 64.5c-9.8 0-17.8-8-17.8-17.8s8-18 18.2-17.8c9.6.2 17.4 8 17.4 17.8s-7.9 17.8-17.8 17.8zM41.7 34c-2.9 0-5.3 2.5-5.3 5.3 0 2.9 2.3 5.3 5.3 5.3 2.9 0 5.3-2.3 5.3-5.3 0-2.9-2.2-5.3-5.3-5.3zm10.5 0c-2.9 0-5.3-2.3-5.1-5.3 0-2.9 2.3-5.1 5.3-5.1 2.9 0 5.1 2.5 5.1 5.3S55 34 52.2 34z" fill="url(#SVGID_2_)"/><linearGradient id="SVGID_3_" gradientUnits="userSpaceOnUse" x1="45.037" y1="25.813" x2="58.537" y2="12.313" gradientTransform="translate(0 2)"><stop offset="0" stop-color="#fff"/><stop offset=".35" stop-color="#fafbfb"/><stop offset=".532" stop-color="#edf1f4"/><stop offset=".675" stop-color="#dde5e9"/><stop offset=".799" stop-color="#c7d3da"/><stop offset=".908" stop-color="#adbdc7"/><stop offset="1" stop-color="#92a5b0"/></linearGradient><path d="M45 1l27 26.7H45V1z" fill="url(#SVGID_3_)"/><path d="M45 1l27 26.7H45V1z" fill-opacity="0" stroke="#7191a1" stroke-width="2" stroke-linejoin="bevel"/><path d="M10.5 91.9V72h4v16.5h10.1v3.4H10.5zm17-20.1h4v10.9c0 1.7 0 2.8.2 3.3.2.8.6 1.5 1.2 2 .7.5 1.5.7 2.7.7 1.1 0 2-.2 2.6-.7.6-.5.9-1 1.1-1.7.1-.7.2-1.8.2-3.4V71.8h4v10.5c0 2.4-.1 4.1-.3 5.1s-.6 1.8-1.2 2.5-1.4 1.2-2.4 1.6-2.3.6-3.9.6c-1.9 0-3.4-.2-4.4-.7-1-.4-1.8-1-2.3-1.7s-1-1.4-1.1-2.2c-.3-1.1-.4-2.8-.4-5.1V71.8zm38.3 20.1h-4.4l-1.8-4.6h-8L50 91.9h-4.3l7.8-20h4.3l8 20zM58.4 84l-2.8-7.4-2.7 7.4h5.5z" fill="#4c6c7b"/></svg>