<svg id="Layer_1" xmlns="http://www.w3.org/2000/svg" viewBox="0 0 72 100"><style>.st0{fill:url(#SVGID_1_)}.st1{fill-opacity:0;stroke:#7191a1;stroke-width:2}.st2{enable-background:new}.st3{fill:#4c6c7b}.st4{fill:url(#SVGID_2_)}.st5{fill:url(#SVGID_3_)}.st6{fill:url(#SVGID_4_)}.st7{fill:url(#SVGID_5_)}.st8{fill:url(#SVGID_6_)}.st9{fill:url(#SVGID_7_)}.st10{fill-opacity:0;stroke:#7191a1;stroke-width:2;stroke-linejoin:bevel}</style><linearGradient id="SVGID_1_" gradientUnits="userSpaceOnUse" x1="36.108" y1="3.003" x2="36.108" y2="101.001" gradientTransform="matrix(1 0 0 -1 0 102)"><stop offset="0" stop-color="#c8d4db"/><stop offset=".139" stop-color="#d8e1e6"/><stop offset=".359" stop-color="#ebf0f3"/><stop offset=".617" stop-color="#f9fafb"/><stop offset="1" stop-color="#fff"/></linearGradient><path class="st0" d="M45.1 1L72 27.7V99H.2V1h44.9z"/><path class="st1" d="M45.1 1L72 27.7V99H.2V1h44.9z"/><g class="st2"><path class="st3" d="M9.7 91.1V71.4h4v16.3h10V91h-14zm16.9-19.9h4V82c0 1.7 0 2.8.1 3.3.2.8.6 1.5 1.2 2s1.5.7 2.7.7c1.1 0 2-.2 2.6-.7.6-.5.9-1 1-1.7.1-.7.2-1.8.2-3.4v-11h4v10.4c0 2.4-.1 4.1-.3 5s-.6 1.8-1.2 2.5-1.4 1.2-2.3 1.6-2.3.6-3.8.6c-1.9 0-3.4-.2-4.3-.7s-1.8-1-2.3-1.7-.9-1.4-1.1-2.2c-.3-1.1-.4-2.8-.4-5V71.2zm38.2 19.9h-4.4l-1.7-4.5h-8L49 91.1h-4.3l7.8-19.8h4.3l8 19.8zm-7.4-7.9l-2.8-7.4-2.7 7.4h5.5z"/></g><linearGradient id="SVGID_2_" gradientUnits="userSpaceOnUse" x1="33.5" y1="25" x2="33.5" y2="21"><stop offset="0" stop-color="#adccdc"/><stop offset="1" stop-color="#4c6c7b"/></linearGradient><path class="st4" d="M15 21h37v4H15z"/><linearGradient id="SVGID_3_" gradientUnits="userSpaceOnUse" x1="40.5" y1="34" x2="40.5" y2="30"><stop offset="0" stop-color="#adccdc"/><stop offset="1" stop-color="#4c6c7b"/></linearGradient><path class="st5" d="M22 30h37v4H22z"/><linearGradient id="SVGID_4_" gradientUnits="userSpaceOnUse" x1="33.5" y1="43" x2="33.5" y2="39"><stop offset="0" stop-color="#adccdc"/><stop offset="1" stop-color="#4c6c7b"/></linearGradient><path class="st6" d="M15 39h37v4H15z"/><linearGradient id="SVGID_5_" gradientUnits="userSpaceOnUse" x1="40.5" y1="52" x2="40.5" y2="48"><stop offset="0" stop-color="#adccdc"/><stop offset="1" stop-color="#4c6c7b"/></linearGradient><path class="st7" d="M22 48h37v4H22z"/><linearGradient id="SVGID_6_" gradientUnits="userSpaceOnUse" x1="31.5" y1="61" x2="31.5" y2="57"><stop offset="0" stop-color="#adccdc"/><stop offset="1" stop-color="#4c6c7b"/></linearGradient><path class="st8" d="M13 57h37v4H13z"/><linearGradient id="SVGID_7_" gradientUnits="userSpaceOnUse" x1="45.122" y1="74.229" x2="58.575" y2="87.683" gradientTransform="matrix(1 0 0 -1 0 102)"><stop offset="0" stop-color="#fff"/><stop offset=".35" stop-color="#fafbfb"/><stop offset=".532" stop-color="#edf1f4"/><stop offset=".675" stop-color="#dde5e9"/><stop offset=".799" stop-color="#c7d3da"/><stop offset=".908" stop-color="#adbdc7"/><stop offset="1" stop-color="#92a5b0"/></linearGradient><path class="st9" d="M45.1 1L72 27.7H45.1V1z"/><path class="st10" d="M45.1 1L72 27.7H45.1V1z"/></svg>