<svg xmlns="http://www.w3.org/2000/svg" viewBox="0 0 72 100"><linearGradient id="a" gradientUnits="userSpaceOnUse" x1="36.2" y1="3.014" x2="36.2" y2="101.001" gradientTransform="matrix(1 0 0 -1 0 102)"><stop offset="0" stop-color="#c8d4db"/><stop offset=".139" stop-color="#d8e1e6"/><stop offset=".359" stop-color="#ebf0f3"/><stop offset=".617" stop-color="#f9fafb"/><stop offset="1" stop-color="#fff"/></linearGradient><path d="M45.2 1l27.1 26.7V99H.1V1h45.1z" fill="url(#a)"/><path d="M45.2 1l27.1 26.7V99H.1V1h45.1z" stroke="#7191a1" stroke-width="2" fill="none"/><path d="M18.7 90.1V70.2h6.1l3.6 13.5L32 70.2h6.1V90h-3.8V74.5l-4 15.6h-3.9l-4-15.6v15.6h-3.7zm30.2 0v-4h-8.2v-3.3l8.7-12.6h3.2v12.6h2.5v3.3h-2.5v4h-3.7zm0-7.4V76l-4.6 6.8h4.6z" fill="#4c6c7b"/><linearGradient id="b" gradientUnits="userSpaceOnUse" x1="31.747" y1="69.935" x2="31.747" y2="69.986" gradientTransform="matrix(1 0 0 -1 0 102)"><stop offset="0" stop-color="#adccdc"/><stop offset="1" stop-color="#4c6c7b"/></linearGradient><path d="M31.8 32c-.1.1-.1.1 0 0" fill="url(#b)"/><g transform="translate(0 -258.361)"><linearGradient id="c" gradientUnits="userSpaceOnUse" x1="36.5" y1="322.382" x2="36.5" y2="283.14"><stop offset="0" stop-color="#adccdc"/><stop offset="1" stop-color="#4c6c7b"/></linearGradient><linearGradient id="d" gradientUnits="userSpaceOnUse" x1="36.5" y1="322.632" x2="36.5" y2="282.89"><stop offset="0" stop-color="#adccdc"/><stop offset="1" stop-color="#4c6c7b"/></linearGradient><path d="M40.4 322.4c-1.2-.2-1.9-.4-2.9-.9-1.6-.8-2.8-1.9-3.5-3.2l-.2-.4-.1.3c-.2.4-.2.4-.5.3-.3-.1-.7-.6-1-1-.2-.5-.4-1-.6-1.8-.2-.7-.2-.9-.3-.9 0 0-.1.2-.3.4-.2.5-.3.5-.6.2-.4-.4-.7-1-.9-2.1-.1-1-.1-1-.2-1l-.2.4-.2.4c-.1 0-.5-1-.7-1.4-.1-.6-.2-1.7-.1-2.5 0-.3.1-.6.1-.7 0-.1-.1 0-.4.2-1.6 1.3-4.3 2.3-6.4 2.3-.9 0-1.4-.1-1.5-.5-.1-.3 0-.5.5-1.1.8-.9 1.3-1.8 1.8-2.9.2-.4.6-2.2.7-2.7v-.2h-.4c-1.3 0-2.7-.3-3.8-.8-2.4-1.2-4-3.5-4.6-6.8-.6-3.3-.2-6 1.3-8.2 1.6-2.4 4.4-4 7.8-4.5.8-.1 2.2-.1 2.9 0 1.1.2 1.8.4 2.6 1 .3.2.7.4.8.5.4.2 1.1.4 1.5.5.6.1.7.1.7.3 0 .6-.8 1-2.2 1.1-.5.1-.9.1-3 0-.6 0-.9 0-1.4.1-1.5.3-2.8 1-4 2.1-1 1-1.7 2.1-2 3.3-.1.4-.1.6-.1 1.2 0 .7 0 .8.1 1.1.6 1.7 2.4 2.3 4.2 1.4.8-.4 1.6-1.1 2.4-2.2 1.5-2.1 2.4-3 3.8-3.8 2.4-1.5 5.1-1.2 7.3.6.3.2.3.3.4.2 0 0 .2-.2.4-.3 1.2-.9 2.7-1.2 4-1 .8.1 1.9.6 2.7 1.2.9.6 1.5 1.2 3 3.1 1.1 1.3 1.7 1.9 2.5 2.3.5.2.8.3 1.2.3 1.4 0 2.5-1.9 2.5-4.5 0-1.4-.4-2.7-1.1-3.4-.7-.8-1.6-1.2-2.8-1.4-.2 0-.9-.1-1.4-.1-1.3-.1-1.8-.1-2.2-.3-.6-.2-1.1-.6-1.2-.9-.1-.2-.1-.2 0-.2s.3-.1.8-.1c1.4-.1 2.5-.3 4.3-.9 1.4-.5 1.8-.5 2.6-.5 1.2.1 2.2.7 3.3 1.7 1.8 1.8 3 4.4 3.1 7 0 1.6-.2 2.5-1.3 4.7-.9 1.8-1.7 2.7-2.9 3.3-.6.3-1.3.5-2.4.6-.3.1-.6.1-.6.1 0 .1.6 1 1 1.4.5.5.9.8 1.6.9.4.1.6.3.6.4 0 .3-.5.7-1.1.9-.6.2-1.2.3-2 .3-1.5-.1-2.9-.7-4.1-1.9l-.7-.7c-.1-.1-.1-.2-.2-.2s0 .2-.1.4c0 .2-.1.8-.2 1.2l-.2.8.2.2c.6.6 1.4.9 2.2.7.4-.1.6 0 .9.2.4.4.7 1 .7 1.7 0 .9-.2 1.4-1 2.1-.8.8-1 1-1.2 1.3-.2.5-.1.7.3 1.1.4.4.5.6.4.9 0 .1-.2.3-.3.4-.2.2-.9.7-1.3.9l-.3.1.1.2c.3.4.4 1.1.3 1.7-.2.5-.7 1.1-1.1 1.1-.1 0-.3 0-.5-.1-.4-.1-.7-.1-.9 0-.3.1-.5.3-.7.6-.1.3-.1.3-.1.9 0 1.1-.2 1.7-.8 2.3-.5.5-1.3.8-2.3.8-.1.4-.5.4-.5.4zm.9-1.9c-.4-.9-.5-1.5-.1-2.2.2-.4.6-.8.9-1 .5-.3 1.5-.4 3-.4 1.4 0 1.8-.2 2-.7.1-.2-.1-.6-.3-.9-.1-.1-.3-.3-.5-.3-.3-.2-.3-.2-1-.2-.6 0-.6 0-1.4.3-.9.3-1.3.4-2 .3-.7 0-1-.1-1.7-.4-1.2-.6-2.3-1.7-2.6-2.7-.1-.3-.2-.6-.2-.8 0-.2.1-.1.3.3.8 1.4 2 2.5 3.2 2.8.3.1.9.1 1.3 0 .2 0 .7-.2 1.3-.3.5-.1 1.2-.3 1.4-.4.5-.1 1.4-.1 2-.1.7.1 1.1-.2 1.1-.6 0-.3-.1-.5-.5-.9-.3-.3-.3-.5-.3-.7 0-.4.3-.8 1.5-1.8.7-.6.9-1.1.9-1.9 0-.5-.2-.9-.4-1.1l-.2-.2h-1c-.4 0-.5 0-.7-.1-.8-.4-1.5-1.4-2-2.7-.2-.7-.6-1.3-1.3-2.3-.9-1.3-.9-1.4-.8-1.8 0-.1.1-.4.1-.6s0-.4.1-.4l.2.2c.2.3.3.3.8.2.7-.1 1.2-.1 1.6.1.2.1.3.2.3.2.1.1 0-.7-.3-1.5-.2-.5-.3-.9-.3-1 0-.3.3-.2.7.3.4.5.6.9 1 2.3.4 1.6.7 2.4 1.2 3 .4.6.7.6 1 .3l.2-.2s.3.2.5.5c.8.7 1.3 1 2.1 1 .3 0 .5 0 .5-.1.1-.1.1-.1 0-.1-.5-.2-1-.6-1.5-1.4-.4-.6-1.1-2-1.5-3-.5-1.3-1-2-1.7-2.8-1.2-1.2-2.3-1.8-3.7-1.8-.8 0-1.1.1-1.9.5-.8.4-1.1.5-1.5.6-.4 0-.7-.1-1.9-.5-1.9-.8-2.8-1-4.2-1-.9 0-1.1 0-2.7.7-.7.3-1.4.5-1.7.6-1.8.5-2.6.9-3.6 1.9-1.5 1.5-2.3 3.5-2.6 6.7-.1 1.1-.3 1.8-1.2 3.2-.2.3-.4.6-.4.8-.3.6.1.6 1.2.1 1-.5 1.5-.9 2.1-1.8.6-.8.7-.8.9-.5.2.4.3.3.6-1 .2-.8.5-1.4.6-1.4 0 0 .1 0 .2.1s.1.1.2.1c.2-.1.5-.4.7-.8.4-.8.5-1.4.6-2.6.1-1 .2-1.6.5-2.3.5-1 1.5-1.8 2.7-1.8.4 0 .6 0 .6.1s-.1.2-.5.3c-.4.2-.7.3-.9.5-.4.5-.6 1.1-.8 2.4-.3 3.4-.4 3.7-1 5.1l-.3.7v.6c0 .6.1 1 .2 1s.2-.1.3-.3c.3-.4.6-.8.7-.8.1 0 .2.2.1.6-.1.7 0 1.8.3 3.2.2 1 .5 1.8.6 1.8l.2-.4c.3-.6.8-1.2 1-1.2 0 0 .1.1.1.2s.1.6.2 1.1c.6 3.6 1.6 5.8 3.1 7.3.9.8 2.1 1.4 3.3 1.7.8.2 1 .2 1 .1zm.6-10.4s0-.2-.1-.3c0-.3-.2-.5-.4-.6-.1 0-.2 0-.4.1-.1.1-.3.2-.4.2-.5.1-1.2-.5-1.1-.9.1-.5 1-.8 1.6-.5.5.2 1.1 1.2 1.1 1.6.2.4-.2.7-.3.4zm-3-.3c-.5-.6-.6-1.7-.3-2.3.4-.8 1.4-1.3 2.4-1.3 1 .1 2.2.7 3.3 1.7.4.4.4.4.4.6 0 .4-.3.5-.6.3-.1-.1-.4-.3-.7-.6-1.4-1.3-2.4-1.7-3.3-1.2-.8.4-1.2 1.3-1 2.6v.4l-.2-.2zm-2.9-7.6c-.5-.3-.7-.7-.8-1.3 0-.5.1-.7.4-1.1.3-.3.6-.5 1-.6.3-.1 1.1-.1 1.4 0 .2 0 .2 0 .3-.1 0-.1.1-.2.1-.4s.1-.3.1-.3c.1 0 .1.1.2.6 0 .3.1.4.2.5.2.2.1.6-.1.7-.1 0-.2 0-.5-.1-.4-.2-.7-.2-.9-.1-.2.2-.1.6.2.6.2 0 .3-.1.3-.2l.1-.1.1.2c.1.4 0 .8-.4 1-.2.1-.3.1-.5.1-.3 0-.4 0-.5-.1-.2-.1-.4-.5-.4-.7 0-.2.1-.5.3-.7.2-.2.2-.2 0-.1-.4.2-.7.4-.8.8-.1.4 0 .8.3 1.2.1.1.1.2.1.2.2.1 0 .1-.2 0zm10.2 2.2c0-.1.1-.6.2-1.2.3-1.8.2-2.7-.3-3.1-.1-.1-.4-.3-.3-.2 0 0 0 .1-.1.1-.4.2-.2.7.2.7.1 0 .2-.1.3-.2l.1-.2v.2c.1.6-.3 1.2-.9 1.2-.5 0-.9-.4-.9-.9 0-.4.3-.8.7-.9h.2-.8c-.4 0-.7.1-.8.3-.1.2 0 .5.7 1.2s.8.9 1.1 1.9c.3 1 .5 1.3.6 1.3-.1-.1-.1-.2 0-.2zm-26.1-3.5c-.1-.2-.3-.9-.4-1.2-.1-.5-.1-1.1 0-1.2.1-.1.3 0 .8.5 1 1 1.7 1.4 2.9 1.4h.6l.3-.4c1.4-2.2 3.3-3.8 5.2-4.5.6-.2.8-.3.9-.4.1-.1 0-.2-.4-.4-.2-.1-.4-.2-.4-.3 0-.2 1.2-.5 2.9-.7.9-.1 1.1-.1 1.1-.2l-.4-.2c-.6-.3-.7-.5-.1-.7.4-.1 1.4-.1 2.1 0 1 .2 2.2.7 3.3 1.4 1.6 1 1.9 1.1 2.4 1.2.7.1 1.2-.1 2.1-.9.7-.6 1-.8 1.3-.7.1 0 .1.1.1.3 0 .1 0 .2.1.3h.8c.8 0 .8 0 .9.3l.4.2c.4.1.9.4 1.3.6.4.3.4.3.4.2-.8-1.3-2.4-3.1-3.4-3.9-.5-.4-1.4-.8-1.9-1-.5-.1-1.2-.1-1.6 0-.4.1-.9.4-1 .6-.1.1-.1.1 0 .2s.1.1.4 0c.3-.1.4-.1.9-.1.9 0 .9.1.2.3-.8.2-1.4.6-1.7 1.1-.1.1-.2.3-.2.3s-.2-.1-.3-.2c-1.6-1.3-3.2-2.1-4.7-2.4-.4-.1-.7-.1-1.3-.1-.7 0-.9 0-1.4.2-.8.2-1.7.7-2.4 1.2-.9.7-1.8 1.6-2.9 3.1-1 1.3-2.1 2.2-3.4 2.6-1.1.4-2.1.3-3-.3-.5-.3-.6-.4-.8-.4-.2 0-.3.1-.3.4 0 .1-.1.3-.1.3-.1.1-.5-.6-.7-1.1-.2-.6-.2-1-.2-1.7.1-1.8.8-3.5 2.3-5.3.5-.6 1.3-1.4 1.8-1.7.5-.4.6-.4.6-.6 0-.1 0-.2-.3-.4l-.3-.3c0-.1.1-.1.9-.2.4 0 1.3-.1 2-.1 1.4 0 2 0 3.1.2.8.1 1.8.1 2.2 0l.2-.1-.4-.1c-.3-.1-.8-.3-1.7-.7-1.4-.7-1.8-.8-2.8-.9-.5 0-1.8 0-1.9.1l.2.2c.1.1.2.2.2.3 0 .2-.1.2-1.6.3-1.1.1-2.4.4-3.3.9-.7.3-.7.3 0 .3s1.1 0 1.2.2c.1.1.1.1 0 .2 0 0-.4.2-.8.3-1.9.7-2.8 1.3-3.5 2.5-.6 1.1-1.1 3.1-1.1 4.4 0 1.2.3 2.6.9 4.1.2.5.5 1 .5 1v-.5c0-.8.2-1.6.5-1.8.2-.1.3 0 .4.6.4 1.4.9 2.5 1.6 3.2.3.1.8.4.7.2zm34-1.9c.4-.2.8-.5 1.1-.8.1-.1.4-.4.6-.8.5-.6.7-.8.8-.7.1 0 .1.1 0 .3 0 .2 0 .4-.1.6v.3l.1-.1c.3-.3 1-1.6 1.3-2.5.3-.9.4-1.6.4-2.6s-.1-1.5-.5-2.4c-.6-1.6-1.8-3.2-3.3-4.2-1-.7-1.8-1-2.7-1-.4 0-.5 0-.9.2-.9.4-2.1.6-3.7.7l-.7.1.2.1c.2.1.4.1 1.5.1 1.3 0 1.8.1 2.4.2.9.2 2 .7 2.7 1.2.5.3 1.2 1 1.5 1.4.4.6.8 1.6.8 2.1 0 .2 0 .2-.1.2s-.2-.1-.3-.2c-.3-.2-.3-.3-.3 0 0 .2.4 1.3.6 1.9.2.4.2.5.2 1 0 .4 0 .6-.1.8-.1.3-.2.3-.4 0-.1-.1-.3-.4-.4-.5-.4-.4-.5-.4-.6.3-.1.3-.2.7-.4 1-.4.9-1.1 1.4-1.9 1.5-.6.1-1.5 0-2.2-.4l-.3-.2.1.2c.2.2.7.6 1 .7.6.3.9.4 1.9.4h1l.1.1c.1.2 0 .4-.2.8-.1.1-.2.3-.2.3.2.2.6.1 1-.1z" fill="url(#c)" stroke="url(#d)" stroke-width=".5" stroke-miterlimit="10"/></g><linearGradient id="e" gradientUnits="userSpaceOnUse" x1="45.324" y1="74.184" x2="58.871" y2="87.731" gradientTransform="matrix(1 0 0 -1 0 102)"><stop offset="0" stop-color="#fff"/><stop offset=".35" stop-color="#fafbfb"/><stop offset=".532" stop-color="#edf1f4"/><stop offset=".675" stop-color="#dde5e9"/><stop offset=".799" stop-color="#c7d3da"/><stop offset=".908" stop-color="#adbdc7"/><stop offset="1" stop-color="#92a5b0"/></linearGradient><path d="M45.2 1l27.1 26.7H45.2V1z" fill="url(#e)"/><path d="M45.2 1l27.1 26.7H45.2V1z" stroke="#7191a1" stroke-width="2" stroke-linejoin="bevel" fill="none"/></svg>