<svg id="Layer_1" xmlns="http://www.w3.org/2000/svg" viewBox="0 0 72 100"><style>.st0{fill:url(#SVGID_1_)}.st1{fill-opacity:0;stroke:#7191a1;stroke-width:2}.st2{fill:#658c9b;stroke:#658c9b;stroke-miterlimit:10}.st3{enable-background:new}.st4{fill:#4c6c7b}.st5{fill:url(#SVGID_2_)}.st6{fill-opacity:0;stroke:#7191a1;stroke-width:2;stroke-linejoin:bevel}</style><linearGradient id="SVGID_1_" gradientUnits="userSpaceOnUse" x1="36.108" y1="3.003" x2="36.108" y2="101.001" gradientTransform="matrix(1 0 0 -1 0 102)"><stop offset="0" stop-color="#c8d4db"/><stop offset=".139" stop-color="#d8e1e6"/><stop offset=".359" stop-color="#ebf0f3"/><stop offset=".617" stop-color="#f9fafb"/><stop offset="1" stop-color="#fff"/></linearGradient><path class="st0" d="M45.1 1L72 27.7V99H.2V1h44.9z"/><path class="st1" d="M45.1 1L72 27.7V99H.2V1h44.9z"/><path class="st2" d="M55.2 61.5c-.1 0-.4-.1-.5-.1l-9.8-4.5L30 61.4c-.3.1-.6.1-.8 0l-11.9-4.7c-.4-.2-.8-.7-.8-1.2V22.8c0-.4.2-.8.5-1 .4-.2.7-.3 1.2-.1l11.6 4.5 14.9-4.5c.3-.1.6-.1.9.1l10.2 4.7c.4.2.7.7.7 1.1v32.8c0 .4-.2.8-.6 1-.2 0-.4.1-.7.1zM19 54.7l10.7 4.2 14.9-4.5c.3-.1.6-.1.9.1l8.4 3.9V28.2l-9-4.1L30 28.6c-.3.1-.6.1-.8 0l-10.2-4v30.1z"/><path class="st2" d="M24 51.5c-.5 0-1-.3-1.2-.9-.2-.7.1-1.3.8-1.6.4-.1.7-.3 1.1-.4.7-.2 1.3.1 1.6.7.2.7-.1 1.3-.7 1.6-.4.1-.8.3-1.3.4 0 .2-.2.2-.3.2zm5.1-2.5c-.4 0-.7-.1-1-.5-.4-.6-.3-1.3.3-1.8.6-.4 1.1-.8 1.6-1.3.5-.4 1.3-.4 1.8.1.4.5.4 1.3-.1 1.8-.6.5-1.2 1-1.9 1.5-.2.1-.5.2-.7.2zm4.6-4.8c-.2 0-.5-.1-.7-.2-.6-.4-.7-1.2-.4-1.7.4-.6.8-1.2 1.1-1.9.4-.6 1.1-.8 1.7-.4.6.4.8 1.1.4 1.7-.4.7-.8 1.3-1.3 1.9 0 .3-.4.6-.8.6zm3.3-5.8c-.2 0-.4-.1-.7-.1-.6-.4-.8-1.1-.4-1.7.4-.7.9-1.4 1.3-1.9.4-.6 1.2-.7 1.8-.3.6.4.7 1.2.3 1.8-.4.5-.7 1.1-1.2 1.8-.2.2-.6.4-1.1.4zm4.4-5c-.4 0-.8-.2-1-.6-.4-.6-.2-1.3.4-1.7.7-.4 1.4-.8 2.2-1.1.7-.2 1.3.1 1.6.7.2.7-.1 1.3-.7 1.6-.6.2-1.2.5-1.7.9-.3.2-.6.2-.8.2zm6.4-1.9c-.7 0-1.2-.5-1.3-1.2-.1-.7.5-1.3 1.2-1.3.4 0 .9-.1 1.3-.1.7 0 1.3.6 1.3 1.3 0 .7-.6 1.3-1.3 1.3h-1.2zM45 56.8c-.7 0-1.3-.6-1.3-1.3v-14c0-.7.6-1.3 1.3-1.3s1.3.6 1.3 1.3v14.1c0 .6-.6 1.2-1.3 1.2zM29.7 34.2c-.7 0-1.3-.6-1.3-1.3v-5.6c0-.7.6-1.3 1.3-1.3.7 0 1.3.6 1.3 1.3V33c-.1.6-.6 1.2-1.3 1.2zm0 27.3c-.7 0-1.3-.6-1.3-1.3v-5.1c0-.7.6-1.3 1.3-1.3.7 0 1.3.6 1.3 1.3v5.1c-.1.7-.6 1.3-1.3 1.3z"/><g class="st3"><path class="st4" d="M7.2 91.1V71.2h6l3.6 13.5 3.6-13.5h6V91h-3.7V75.4l-4 15.6h-3.9l-4-15.6V91H7.2zm41.3 0h-4.4l-1.7-4.5h-8l-1.6 4.5h-4.3l7.8-19.8h4.3l7.9 19.8zm-7.4-7.9l-2.8-7.4-2.7 7.4h5.5zm9.6 7.9V71.2h6.5c2.5 0 4.1.1 4.8.3 1.1.3 2.1.9 2.9 1.9.8 1 1.2 2.3 1.2 3.9 0 1.2-.2 2.2-.7 3.1-.4.8-1 1.5-1.7 2s-1.4.8-2.1.9c-1 .2-2.4.3-4.2.3h-2.6v7.5h-4.1zm4-16.5v5.6h2.2c1.6 0 2.7-.1 3.2-.3.5-.2 1-.5 1.3-1 .3-.4.5-1 .5-1.5 0-.7-.2-1.3-.6-1.8-.4-.5-1-.8-1.6-.9-.5-.1-1.4-.1-2.9-.1h-2.1z"/></g><linearGradient id="SVGID_2_" gradientUnits="userSpaceOnUse" x1="45.122" y1="74.229" x2="58.575" y2="87.683" gradientTransform="matrix(1 0 0 -1 0 102)"><stop offset="0" stop-color="#fff"/><stop offset=".35" stop-color="#fafbfb"/><stop offset=".532" stop-color="#edf1f4"/><stop offset=".675" stop-color="#dde5e9"/><stop offset=".799" stop-color="#c7d3da"/><stop offset=".908" stop-color="#adbdc7"/><stop offset="1" stop-color="#92a5b0"/></linearGradient><path class="st5" d="M45.1 1L72 27.7H45.1V1z"/><path class="st6" d="M45.1 1L72 27.7H45.1V1z"/></svg>