<svg xmlns="http://www.w3.org/2000/svg" viewBox="0 0 72 100"><linearGradient id="a" gradientUnits="userSpaceOnUse" x1="36.1" y1="97" x2="36.1" y2="-1" gradientTransform="translate(0 2)"><stop offset="0" stop-color="#c8d4db"/><stop offset=".139" stop-color="#d8e1e6"/><stop offset=".359" stop-color="#ebf0f3"/><stop offset=".617" stop-color="#f9fafb"/><stop offset="1" stop-color="#fff"/></linearGradient><path d="M45.1 1L72 27.7V99H.2V1h44.9z" fill="url(#a)"/><path d="M45.1 1L72 27.7V99H.2V1h44.9z" fill-opacity="0" stroke="#7191a1" stroke-width="2"/><path d="M7.2 91.1V71.2h6l3.6 13.5 3.6-13.5h6V91h-3.7V75.4l-4 15.6h-3.9l-4-15.6V91l-3.6.1zm41.3 0h-4.4l-1.7-4.5h-8l-1.6 4.5h-4.3l7.8-19.8h4.3l7.9 19.8zm-7.4-7.9l-2.8-7.4-2.7 7.4h5.5zm9.6 7.9V71.2h6.5c2.5 0 4.1.1 4.8.3 1.1.3 2.1.9 2.9 1.9.8 1 1.2 2.3 1.2 3.9 0 1.2-.2 2.2-.7 3.1-.4.8-1 1.5-1.7 2s-1.4.8-2.1.9c-1 .2-2.4.3-4.2.3h-2.6v7.5h-4.1zm4-16.5v5.6h2.2c1.6 0 2.7-.1 3.2-.3.5-.2 1-.5 1.3-1 .3-.4.5-1 .5-1.5 0-.7-.2-1.3-.6-1.8-.4-.5-1-.8-1.6-.9-.5-.1-1.4-.1-2.9-.1h-2.1z" fill="#4c6c7b"/><g opacity=".85"><linearGradient id="b" gradientUnits="userSpaceOnUse" x1="42.876" y1="59.091" x2="57.975" y2="59.091"><stop offset="0" stop-color="#adccdc"/><stop offset="1" stop-color="#4c6c7b"/></linearGradient><linearGradient id="c" gradientUnits="userSpaceOnUse" x1="42.376" y1="59.091" x2="58.475" y2="59.091"><stop offset="0" stop-color="#adccdc"/><stop offset="1" stop-color="#4c6c7b"/></linearGradient><path d="M43.2 57.1l-.3 3.9c-.1.5.4 1 1 1H57c.7 0 1.2-.7.9-1.3l-1-3c-.1-.4-.5-.7-.8-.7l-11.9-.9c-.5.1-1 .4-1 1z" fill="url(#b)" stroke="url(#c)" stroke-miterlimit="10"/><linearGradient id="d" gradientUnits="userSpaceOnUse" x1="15.025" y1="58.117" x2="38.336" y2="58.117"><stop offset="0" stop-color="#adccdc"/><stop offset="1" stop-color="#4c6c7b"/></linearGradient><linearGradient id="e" gradientUnits="userSpaceOnUse" x1="14.525" y1="58.117" x2="38.836" y2="58.117"><stop offset="0" stop-color="#adccdc"/><stop offset="1" stop-color="#4c6c7b"/></linearGradient><path d="M37.4 55.7l-19.5-1.5c-.5-.1-.8.2-1 .7l-1.8 5.8c-.2.6.3 1.3 1 1.3h21c.5 0 1-.4 1-.9l.3-4.4c-.1-.5-.4-.9-1-1z" fill="url(#d)" stroke="url(#e)" stroke-miterlimit="10"/><linearGradient id="f" gradientUnits="userSpaceOnUse" x1="18.96" y1="45.67" x2="38.942" y2="45.67"><stop offset="0" stop-color="#adccdc"/><stop offset="1" stop-color="#4c6c7b"/></linearGradient><linearGradient id="g" gradientUnits="userSpaceOnUse" x1="18.46" y1="45.67" x2="39.442" y2="45.67"><stop offset="0" stop-color="#adccdc"/><stop offset="1" stop-color="#4c6c7b"/></linearGradient><path d="M34.7 40.5H22.2c-.4 0-.8.3-1 .7l-2.2 7c-.2.6.2 1.2.8 1.3l17.9 1.3c.5.1 1-.4 1-.9l.2-2.2c0-.2 0-.4-.1-.5-1.1-1.9-2.2-4.1-3.3-6.1-.1-.4-.4-.6-.8-.6z" fill="url(#f)" stroke="url(#g)" stroke-miterlimit="10"/><linearGradient id="h" gradientUnits="userSpaceOnUse" x1="43.724" y1="46.244" x2="54.819" y2="46.244"><stop offset="0" stop-color="#adccdc"/><stop offset="1" stop-color="#4c6c7b"/></linearGradient><linearGradient id="i" gradientUnits="userSpaceOnUse" x1="43.224" y1="46.244" x2="55.319" y2="46.244"><stop offset="0" stop-color="#adccdc"/><stop offset="1" stop-color="#4c6c7b"/></linearGradient><path d="M54.8 50.7l-3.1-9.6c-.1-.4-.5-.7-.9-.7h-1.5c-.4 0-.7.2-.9.5-1.2 2.3-2.4 4.5-3.6 6.7-.2.3-.4.6-.7.8-.2.2-.3.4-.3.7l-.1 1.2c-.1.5.4 1 .9 1l9.2.7c.7.1 1.2-.6 1-1.3z" fill="url(#h)" stroke="url(#i)" stroke-miterlimit="10"/><linearGradient id="j" gradientUnits="userSpaceOnUse" x1="33.488" y1="33.417" x2="50.457" y2="33.417"><stop offset="0" stop-color="#adccdc"/><stop offset="1" stop-color="#4c6c7b"/></linearGradient><linearGradient id="k" gradientUnits="userSpaceOnUse" x1="32.988" y1="33.417" x2="50.957" y2="33.417"><stop offset="0" stop-color="#adccdc"/><stop offset="1" stop-color="#4c6c7b"/></linearGradient><path d="M42 20c-4.7 0-8.5 3.8-8.5 8.5 0 3.9 5.8 14.4 7.8 17.9.3.5 1.1.5 1.4 0 1.9-3.5 7.8-14 7.8-17.9 0-4.7-3.9-8.5-8.5-8.5zm0 15.5c-3.6 0-6.6-3-6.6-6.6s3-6.6 6.6-6.6 6.6 3 6.6 6.6-3 6.6-6.6 6.6z" fill="url(#j)" stroke="url(#k)" stroke-miterlimit="10"/></g><linearGradient id="l" gradientUnits="userSpaceOnUse" x1="45.126" y1="25.775" x2="58.575" y2="12.325" gradientTransform="translate(0 2)"><stop offset="0" stop-color="#fff"/><stop offset=".35" stop-color="#fafbfb"/><stop offset=".532" stop-color="#edf1f4"/><stop offset=".675" stop-color="#dde5e9"/><stop offset=".799" stop-color="#c7d3da"/><stop offset=".908" stop-color="#adbdc7"/><stop offset="1" stop-color="#92a5b0"/></linearGradient><path d="M45.1 1L72 27.7H45.1V1z" fill="url(#l)"/><path d="M45.1 1L72 27.7H45.1V1z" fill-opacity="0" stroke="#7191a1" stroke-width="2" stroke-linejoin="bevel"/></svg>