<svg id="Layer_2" xmlns="http://www.w3.org/2000/svg" viewBox="0 0 72 100"><style>.st0{fill:url(#SVGID_1_)}.st1{fill-opacity:0;stroke:#7191a1;stroke-width:2}.st2{fill:url(#SVGID_2_)}.st3{fill-opacity:0;stroke:#7191a1;stroke-width:2;stroke-linejoin:bevel}.st4{enable-background:new}.st5{fill:#4c6c7b}</style><linearGradient id="SVGID_1_" gradientUnits="userSpaceOnUse" x1="36" y1="127.8" x2="36" y2="29.8" gradientTransform="translate(0 -29)"><stop offset="0" stop-color="#c8d4db"/><stop offset=".139" stop-color="#d8e1e6"/><stop offset=".359" stop-color="#ebf0f3"/><stop offset=".617" stop-color="#f9fafb"/><stop offset="1" stop-color="#fff"/></linearGradient><path class="st0" d="M45 .8l27 26.7v71.3H0V.8h45z"/><path class="st1" d="M45 .8l27 26.7v71.3H0V.8h45z"/><linearGradient id="SVGID_2_" gradientUnits="userSpaceOnUse" x1="45.075" y1="56.575" x2="58.575" y2="43.075" gradientTransform="translate(0 -29)"><stop offset="0" stop-color="#fff"/><stop offset=".35" stop-color="#fafbfb"/><stop offset=".532" stop-color="#edf1f4"/><stop offset=".675" stop-color="#dde5e9"/><stop offset=".799" stop-color="#c7d3da"/><stop offset=".908" stop-color="#adbdc7"/><stop offset="1" stop-color="#92a5b0"/></linearGradient><path class="st2" d="M45 .8l27 26.7H45V.8z"/><path class="st3" d="M45 .8l27 26.7H45V.8z"/><g class="st4"><path class="st5" d="M7.3 89.8v-10h3l1.8 6.8 1.8-6.8h3v10H15v-7.9l-2 7.9h-1.9l-2-7.9v7.9H7.3zm20.7 0h-2.2l-.9-2.3h-4l-.8 2.3H18l3.9-10H24l4 10zm-3.7-4l-1.4-3.7-1.4 3.7h2.8zm4.2.7l2-.2c.1.7.4 1.1.7 1.5s.9.5 1.5.5c.7 0 1.1-.1 1.5-.4.3-.3.5-.6.5-1 0-.2-.1-.4-.2-.6-.1-.2-.4-.3-.7-.4-.2-.1-.8-.2-1.6-.4-1.1-.3-1.8-.6-2.3-1-.6-.6-.9-1.2-.9-2 0-.5.1-1 .4-1.4.3-.4.7-.8 1.3-1s1.2-.3 2-.3c1.3 0 2.2.3 2.8.8s1 1.3 1 2.2l-2 .1c-.1-.5-.3-.9-.6-1.1-.3-.2-.7-.3-1.3-.3-.6 0-1 .1-1.4.4-.2.2-.3.4-.3.6 0 .2.1.4.3.6.3.2.9.4 1.9.7s1.7.5 2.2.7c.5.2.8.6 1.1 1 .3.4.4 1 .4 1.6 0 .6-.2 1.1-.5 1.6s-.8.9-1.4 1.1c-.6.2-1.3.4-2.2.4-1.3 0-2.2-.3-2.9-.9-.7-.8-1.1-1.6-1.3-2.8zm12.2 3.3v-8.3h-3v-1.7h8v1.7h-3v8.3h-2zm6.3 0v-10h7.4v1.7H49v2.2h5v1.7h-5v2.7h5.6v1.7H47zm9.3 0v-10h4.3c1.1 0 1.8.1 2.3.3.5.2.9.5 1.2 1 .3.5.4 1 .4 1.6 0 .8-.2 1.4-.7 1.9-.4.5-1.1.8-2 .9.4.3.8.5 1.1.8.3.3.7.8 1.2 1.6l1.2 2h-2.4l-1.5-2.2c-.5-.8-.9-1.3-1.1-1.5-.2-.2-.4-.3-.6-.4-.2-.1-.6-.1-1-.1h-.4v4.2h-2zm2-5.8h1.5c1 0 1.6 0 1.8-.1.2-.1.4-.2.6-.4s.2-.5.2-.8c0-.3-.1-.6-.3-.8-.2-.2-.4-.3-.8-.4h-3.1V84z"/></g></svg>