<svg id="Layer_1" xmlns="http://www.w3.org/2000/svg" viewBox="0 0 72 100"><linearGradient id="SVGID_1_" gradientUnits="userSpaceOnUse" x1="36.2" y1="3.014" x2="36.2" y2="101.001" gradientTransform="matrix(1 0 0 -1 0 102)"><stop offset="0" stop-color="#c8d4db"/><stop offset=".139" stop-color="#d8e1e6"/><stop offset=".359" stop-color="#ebf0f3"/><stop offset=".617" stop-color="#f9fafb"/><stop offset="1" stop-color="#fff"/></linearGradient><path d="M45.2 1l27.1 26.7V99H.1V1h45.1z" fill="url(#SVGID_1_)"/><path d="M45.2 1l27.1 26.7V99H.1V1h45.1z" fill-opacity="0" stroke="#7191a1" stroke-width="2"/><path d="M16.6 90.1V70.2h6.1l3.6 13.5L30 70.2h6.1V90h-3.8V74.5l-4 15.6h-3.9l-4-15.6v15.6h-3.8zM53 82.8l3.9 1.2c-.6 2.2-1.6 3.8-3 4.8-1.4 1.1-3.2 1.6-5.3 1.6-2.7 0-4.9-.9-6.6-2.7-1.7-1.8-2.6-4.3-2.6-7.4 0-3.3.9-5.9 2.6-7.7 1.7-1.8 4-2.7 6.8-2.7 2.5 0 4.5.7 6 2.2.9.8 1.6 2.1 2.1 3.7l-4 .9c-.2-1-.7-1.8-1.5-2.4-.8-.6-1.7-.9-2.8-.9-1.5 0-2.7.5-3.6 1.6-1 1-1.4 2.7-1.4 5 0 2.5.5 4.3 1.4 5.4s2 1.6 3.5 1.6c1.1 0 2-.3 2.8-1 .8-.7 1.3-1.8 1.7-3.2z" fill="#4c6c7b"/><linearGradient id="SVGID_2_" gradientUnits="userSpaceOnUse" x1="31.747" y1="69.935" x2="31.747" y2="69.986" gradientTransform="matrix(1 0 0 -1 0 102)"><stop offset="0" stop-color="#adccdc"/><stop offset="1" stop-color="#4c6c7b"/></linearGradient><path d="M31.8 32c-.1.1-.1.1 0 0" fill="url(#SVGID_2_)"/><linearGradient id="SVGID_3_" gradientUnits="userSpaceOnUse" x1="45.324" y1="74.184" x2="58.871" y2="87.731" gradientTransform="matrix(1 0 0 -1 0 102)"><stop offset="0" stop-color="#fff"/><stop offset=".35" stop-color="#fafbfb"/><stop offset=".532" stop-color="#edf1f4"/><stop offset=".675" stop-color="#dde5e9"/><stop offset=".799" stop-color="#c7d3da"/><stop offset=".908" stop-color="#adbdc7"/><stop offset="1" stop-color="#92a5b0"/></linearGradient><path d="M45.2 1l27.1 26.7H45.2V1z" fill="url(#SVGID_3_)"/><path d="M45.2 1l27.1 26.7H45.2V1z" fill-opacity="0" stroke="#7191a1" stroke-width="2" stroke-linejoin="bevel"/><linearGradient id="SVGID_4_" gradientUnits="userSpaceOnUse" x1="44.178" y1="61.724" x2="44.178" y2="23.771"><stop offset="0" stop-color="#adccdc"/><stop offset=".024" stop-color="#a9c8d8"/><stop offset=".323" stop-color="#81a1b0"/><stop offset=".595" stop-color="#648493"/><stop offset=".83" stop-color="#527281"/><stop offset="1" stop-color="#4c6c7b"/></linearGradient><path d="M54 45c-.8-5.3-6.4-8.8-10.6-11.4-1.8-1.1-4.8-2.6-5.1-5-.2-1-.2-2-.2-3 0-.4 0-.8-.1-1.2 0-.5-.6.1-.8-.3-.7-1.1-.4.3-.4.9.2 1.3.3 2.7.3 4 0 2.6-.4 5.1-1.1 7.6-1.5 5.8-2.7 11.8-1.2 17.8.3 1.2.7 2.5 1.2 3.6.2.4.5 1.3.9 1.5 1.6.4 2.8.5 4.1 1.7.8.7 1.4.3 2.3 0 2.8-1.1 5.3-2.6 7.3-4.9 2.9-3.2 4.1-7 3.4-11.3m-3 5.4c-.3 2.2-1.6 4.1-3 5.8-1 1.2-2.4 2.7-3.9 3.2-.5.2.1-.9.2-1 .5-.7 1-1.3 1.6-2 .8-1 1.5-2 1.9-3.1 1.5-3.9 1.2-8.5-1.1-12-1.2-1.9-2.9-3.5-4.6-4.9-.8-.7-1.7-1.4-2.4-2.2-.2-.2-1.6-2.1-1.1-2.3.1-.1 3.2 3.2 3.6 3.4 1.3 1 2.6 1.9 3.8 3 1.6 1.5 3.3 3.1 4.2 5.1.9 2.1 1.1 4.6.8 7" fill="url(#SVGID_4_)"/><linearGradient id="SVGID_5_" gradientUnits="userSpaceOnUse" x1="31.519" y1="60.16" x2="31.519" y2="18.821"><stop offset="0" stop-color="#adccdc"/><stop offset=".024" stop-color="#a9c8d8"/><stop offset=".323" stop-color="#81a1b0"/><stop offset=".595" stop-color="#648493"/><stop offset=".83" stop-color="#527281"/><stop offset="1" stop-color="#4c6c7b"/></linearGradient><path d="M35.6 18.8c.5.3.6 2.1.6 3.8 0 1.7.2 8.8-.4 10.7-.5 1.9-1.7 4-3 5.9-1.3 1.9-2.8 5.8-2.7 8.2.1 2.4 1.4 6.4 2.5 8.1 1.1 1.7 2.9 4 2.5 4.5-.7.9-3.7-2.3-5.2-4.1-1.6-1.9-3.1-5.6-3.2-8.6-.1-2.9 1.6-5.7 2.8-7.3 1.2-1.7 3.5-4.5 4.1-5.8.6-1.3 1.3-2.7 1.5-4.5.2-1.8 0-8.3 0-8.3s.1-2.9.5-2.6" fill="url(#SVGID_5_)"/><linearGradient id="SVGID_6_" gradientUnits="userSpaceOnUse" x1="26.879" y1="61.542" x2="26.879" y2="21.868"><stop offset="0" stop-color="#adccdc"/><stop offset=".024" stop-color="#a9c8d8"/><stop offset=".323" stop-color="#81a1b0"/><stop offset=".595" stop-color="#648493"/><stop offset=".83" stop-color="#527281"/><stop offset="1" stop-color="#4c6c7b"/></linearGradient><path d="M34.4 21.9c.5.2.5.8.5 1.3 0 .6-.2 2.9-.3 5.2-.2 2.3-2 4.2-3.3 5.5-1.3 1.3-5.2 5.5-6.7 7.6-1.4 2.1-2.2 4.8-2 7.1.2 2.3.7 4.6 2.9 7 2.2 2.4 3.7 3.6 4.8 4.1 1.1.6 2.3 1 2 1.5-.3.5-1.3.2-2.5-.3-1.2-.4-5.2-2.1-7.5-4.7s-3.5-6.2-3.4-9.5c.1-3.4 1-4.8 2.6-6.9 1.6-2.2 5.8-5.4 7.2-6.2 1.3-.8 3.2-2.2 4-3.4.9-1.1 1.3-2.1 1.3-3.6-.1-1.6.1-2.9.1-3.5-.2-.4-.2-1.4.3-1.2" fill="url(#SVGID_6_)"/><linearGradient id="SVGID_7_" gradientUnits="userSpaceOnUse" x1="33.889" y1="64.37" x2="33.889" y2="62.416"><stop offset="0" stop-color="#adccdc"/><stop offset=".024" stop-color="#a9c8d8"/><stop offset=".323" stop-color="#81a1b0"/><stop offset=".595" stop-color="#648493"/><stop offset=".83" stop-color="#527281"/><stop offset="1" stop-color="#4c6c7b"/></linearGradient><path d="M34.5 62.4c.2 0 .1.9-.3 1.4-.4.5-1 .7-1.1.5-.1-.2.5-.3.9-.7.4-.4.3-1.2.5-1.2" fill="url(#SVGID_7_)"/><linearGradient id="SVGID_8_" gradientUnits="userSpaceOnUse" x1="39.361" y1="64.346" x2="39.361" y2="62.392"><stop offset="0" stop-color="#adccdc"/><stop offset=".024" stop-color="#a9c8d8"/><stop offset=".323" stop-color="#81a1b0"/><stop offset=".595" stop-color="#648493"/><stop offset=".83" stop-color="#527281"/><stop offset="1" stop-color="#4c6c7b"/></linearGradient><path d="M38.7 62.4c-.2 0-.1.9.3 1.4.4.5 1 .7 1.1.5.1-.2-.5-.3-.9-.7-.3-.4-.2-1.2-.5-1.2" fill="url(#SVGID_8_)"/><linearGradient id="SVGID_9_" gradientUnits="userSpaceOnUse" x1="36.721" y1="64.821" x2="36.721" y2="61.94"><stop offset="0" stop-color="#adccdc"/><stop offset=".024" stop-color="#a9c8d8"/><stop offset=".323" stop-color="#81a1b0"/><stop offset=".595" stop-color="#648493"/><stop offset=".83" stop-color="#527281"/><stop offset="1" stop-color="#4c6c7b"/></linearGradient><path d="M36.9 63.4c0 .8 0 1.4-.1 1.4-.2 0-.1-.6-.1-1.4 0-.8-.1-1.4.1-1.4.1-.1.1.6.1 1.4" fill="url(#SVGID_9_)"/><linearGradient id="SVGID_10_" gradientUnits="userSpaceOnUse" x1="44.178" y1="61.724" x2="44.178" y2="23.771"><stop offset="0" stop-color="#adccdc"/><stop offset=".024" stop-color="#a9c8d8"/><stop offset=".323" stop-color="#81a1b0"/><stop offset=".595" stop-color="#648493"/><stop offset=".83" stop-color="#527281"/><stop offset="1" stop-color="#4c6c7b"/></linearGradient><path d="M54 45c-.8-5.3-6.4-8.8-10.6-11.4-1.8-1.1-4.8-2.6-5.1-5-.2-1-.2-2-.2-3 0-.4 0-.8-.1-1.2 0-.5-.6.1-.8-.3-.7-1.1-.4.3-.4.9.2 1.3.3 2.7.3 4 0 2.6-.4 5.1-1.1 7.6-1.5 5.8-2.7 11.8-1.2 17.8.3 1.2.7 2.5 1.2 3.6.2.4.5 1.3.9 1.5 1.6.4 2.8.5 4.1 1.7.8.7 1.4.3 2.3 0 2.8-1.1 5.3-2.6 7.3-4.9 2.9-3.2 4.1-7 3.4-11.3m-3 5.4c-.3 2.2-1.6 4.1-3 5.8-1 1.2-2.4 2.7-3.9 3.2-.5.2.1-.9.2-1 .5-.7 1-1.3 1.6-2 .8-1 1.5-2 1.9-3.1 1.5-3.9 1.2-8.5-1.1-12-1.2-1.9-2.9-3.5-4.6-4.9-.8-.7-1.7-1.4-2.4-2.2-.2-.2-1.6-2.1-1.1-2.3.1-.1 3.2 3.2 3.6 3.4 1.3 1 2.6 1.9 3.8 3 1.6 1.5 3.3 3.1 4.2 5.1.9 2.1 1.1 4.6.8 7" fill="url(#SVGID_10_)"/><linearGradient id="SVGID_11_" gradientUnits="userSpaceOnUse" x1="31.519" y1="60.16" x2="31.519" y2="18.821"><stop offset="0" stop-color="#adccdc"/><stop offset=".024" stop-color="#a9c8d8"/><stop offset=".323" stop-color="#81a1b0"/><stop offset=".595" stop-color="#648493"/><stop offset=".83" stop-color="#527281"/><stop offset="1" stop-color="#4c6c7b"/></linearGradient><path d="M35.6 18.8c.5.3.6 2.1.6 3.8 0 1.7.2 8.8-.4 10.7-.5 1.9-1.7 4-3 5.9-1.3 1.9-2.8 5.8-2.7 8.2.1 2.4 1.4 6.4 2.5 8.1 1.1 1.7 2.9 4 2.5 4.5-.7.9-3.7-2.3-5.2-4.1-1.6-1.9-3.1-5.6-3.2-8.6-.1-2.9 1.6-5.7 2.8-7.3 1.2-1.7 3.5-4.5 4.1-5.8.6-1.3 1.3-2.7 1.5-4.5.2-1.8 0-8.3 0-8.3s.1-2.9.5-2.6" fill="url(#SVGID_11_)"/><linearGradient id="SVGID_12_" gradientUnits="userSpaceOnUse" x1="26.879" y1="61.542" x2="26.879" y2="21.868"><stop offset="0" stop-color="#adccdc"/><stop offset=".024" stop-color="#a9c8d8"/><stop offset=".323" stop-color="#81a1b0"/><stop offset=".595" stop-color="#648493"/><stop offset=".83" stop-color="#527281"/><stop offset="1" stop-color="#4c6c7b"/></linearGradient><path d="M34.4 21.9c.5.2.5.8.5 1.3 0 .6-.2 2.9-.3 5.2-.2 2.3-2 4.2-3.3 5.5-1.3 1.3-5.2 5.5-6.7 7.6-1.4 2.1-2.2 4.8-2 7.1.2 2.3.7 4.6 2.9 7 2.2 2.4 3.7 3.6 4.8 4.1 1.1.6 2.3 1 2 1.5-.3.5-1.3.2-2.5-.3-1.2-.4-5.2-2.1-7.5-4.7s-3.5-6.2-3.4-9.5c.1-3.4 1-4.8 2.6-6.9 1.6-2.2 5.8-5.4 7.2-6.2 1.3-.8 3.2-2.2 4-3.4.9-1.1 1.3-2.1 1.3-3.6-.1-1.6.1-2.9.1-3.5-.2-.4-.2-1.4.3-1.2" fill="url(#SVGID_12_)"/><linearGradient id="SVGID_13_" gradientUnits="userSpaceOnUse" x1="33.889" y1="64.37" x2="33.889" y2="62.416"><stop offset="0" stop-color="#adccdc"/><stop offset=".024" stop-color="#a9c8d8"/><stop offset=".323" stop-color="#81a1b0"/><stop offset=".595" stop-color="#648493"/><stop offset=".83" stop-color="#527281"/><stop offset="1" stop-color="#4c6c7b"/></linearGradient><path d="M34.5 62.4c.2 0 .1.9-.3 1.4-.4.5-1 .7-1.1.5-.1-.2.5-.3.9-.7.4-.4.3-1.2.5-1.2" fill="url(#SVGID_13_)"/><linearGradient id="SVGID_14_" gradientUnits="userSpaceOnUse" x1="39.361" y1="64.346" x2="39.361" y2="62.392"><stop offset="0" stop-color="#adccdc"/><stop offset=".024" stop-color="#a9c8d8"/><stop offset=".323" stop-color="#81a1b0"/><stop offset=".595" stop-color="#648493"/><stop offset=".83" stop-color="#527281"/><stop offset="1" stop-color="#4c6c7b"/></linearGradient><path d="M38.7 62.4c-.2 0-.1.9.3 1.4.4.5 1 .7 1.1.5.1-.2-.5-.3-.9-.7-.3-.4-.2-1.2-.5-1.2" fill="url(#SVGID_14_)"/><linearGradient id="SVGID_15_" gradientUnits="userSpaceOnUse" x1="36.721" y1="64.821" x2="36.721" y2="61.94"><stop offset="0" stop-color="#adccdc"/><stop offset=".024" stop-color="#a9c8d8"/><stop offset=".323" stop-color="#81a1b0"/><stop offset=".595" stop-color="#648493"/><stop offset=".83" stop-color="#527281"/><stop offset="1" stop-color="#4c6c7b"/></linearGradient><path d="M36.9 63.4c0 .8 0 1.4-.1 1.4-.2 0-.1-.6-.1-1.4 0-.8-.1-1.4.1-1.4.1-.1.1.6.1 1.4" fill="url(#SVGID_15_)"/><linearGradient id="SVGID_16_" gradientUnits="userSpaceOnUse" x1="44.178" y1="61.724" x2="44.178" y2="23.771"><stop offset="0" stop-color="#adccdc"/><stop offset=".024" stop-color="#a9c8d8"/><stop offset=".323" stop-color="#81a1b0"/><stop offset=".595" stop-color="#648493"/><stop offset=".83" stop-color="#527281"/><stop offset="1" stop-color="#4c6c7b"/></linearGradient><path d="M54 45c-.8-5.3-6.4-8.8-10.6-11.4-1.8-1.1-4.8-2.6-5.1-5-.2-1-.2-2-.2-3 0-.4 0-.8-.1-1.2 0-.5-.6.1-.8-.3-.7-1.1-.4.3-.4.9.2 1.3.3 2.7.3 4 0 2.6-.4 5.1-1.1 7.6-1.5 5.8-2.7 11.8-1.2 17.8.3 1.2.7 2.5 1.2 3.6.2.4.5 1.3.9 1.5 1.6.4 2.8.5 4.1 1.7.8.7 1.4.3 2.3 0 2.8-1.1 5.3-2.6 7.3-4.9 2.9-3.2 4.1-7 3.4-11.3m-3 5.4c-.3 2.2-1.6 4.1-3 5.8-1 1.2-2.4 2.7-3.9 3.2-.5.2.1-.9.2-1 .5-.7 1-1.3 1.6-2 .8-1 1.5-2 1.9-3.1 1.5-3.9 1.2-8.5-1.1-12-1.2-1.9-2.9-3.5-4.6-4.9-.8-.7-1.7-1.4-2.4-2.2-.2-.2-1.6-2.1-1.1-2.3.1-.1 3.2 3.2 3.6 3.4 1.3 1 2.6 1.9 3.8 3 1.6 1.5 3.3 3.1 4.2 5.1.9 2.1 1.1 4.6.8 7" fill="url(#SVGID_16_)"/><linearGradient id="SVGID_17_" gradientUnits="userSpaceOnUse" x1="31.519" y1="60.16" x2="31.519" y2="18.821"><stop offset="0" stop-color="#adccdc"/><stop offset=".024" stop-color="#a9c8d8"/><stop offset=".323" stop-color="#81a1b0"/><stop offset=".595" stop-color="#648493"/><stop offset=".83" stop-color="#527281"/><stop offset="1" stop-color="#4c6c7b"/></linearGradient><path d="M35.6 18.8c.5.3.6 2.1.6 3.8 0 1.7.2 8.8-.4 10.7-.5 1.9-1.7 4-3 5.9-1.3 1.9-2.8 5.8-2.7 8.2.1 2.4 1.4 6.4 2.5 8.1 1.1 1.7 2.9 4 2.5 4.5-.7.9-3.7-2.3-5.2-4.1-1.6-1.9-3.1-5.6-3.2-8.6-.1-2.9 1.6-5.7 2.8-7.3 1.2-1.7 3.5-4.5 4.1-5.8.6-1.3 1.3-2.7 1.5-4.5.2-1.8 0-8.3 0-8.3s.1-2.9.5-2.6" fill="url(#SVGID_17_)"/><linearGradient id="SVGID_18_" gradientUnits="userSpaceOnUse" x1="26.879" y1="61.542" x2="26.879" y2="21.868"><stop offset="0" stop-color="#adccdc"/><stop offset=".024" stop-color="#a9c8d8"/><stop offset=".323" stop-color="#81a1b0"/><stop offset=".595" stop-color="#648493"/><stop offset=".83" stop-color="#527281"/><stop offset="1" stop-color="#4c6c7b"/></linearGradient><path d="M34.4 21.9c.5.2.5.8.5 1.3 0 .6-.2 2.9-.3 5.2-.2 2.3-2 4.2-3.3 5.5-1.3 1.3-5.2 5.5-6.7 7.6-1.4 2.1-2.2 4.8-2 7.1.2 2.3.7 4.6 2.9 7 2.2 2.4 3.7 3.6 4.8 4.1 1.1.6 2.3 1 2 1.5-.3.5-1.3.2-2.5-.3-1.2-.4-5.2-2.1-7.5-4.7s-3.5-6.2-3.4-9.5c.1-3.4 1-4.8 2.6-6.9 1.6-2.2 5.8-5.4 7.2-6.2 1.3-.8 3.2-2.2 4-3.4.9-1.1 1.3-2.1 1.3-3.6-.1-1.6.1-2.9.1-3.5-.2-.4-.2-1.4.3-1.2" fill="url(#SVGID_18_)"/><linearGradient id="SVGID_19_" gradientUnits="userSpaceOnUse" x1="33.889" y1="64.37" x2="33.889" y2="62.416"><stop offset="0" stop-color="#adccdc"/><stop offset=".024" stop-color="#a9c8d8"/><stop offset=".323" stop-color="#81a1b0"/><stop offset=".595" stop-color="#648493"/><stop offset=".83" stop-color="#527281"/><stop offset="1" stop-color="#4c6c7b"/></linearGradient><path d="M34.5 62.4c.2 0 .1.9-.3 1.4-.4.5-1 .7-1.1.5-.1-.2.5-.3.9-.7.4-.4.3-1.2.5-1.2" fill="url(#SVGID_19_)"/><linearGradient id="SVGID_20_" gradientUnits="userSpaceOnUse" x1="39.361" y1="64.346" x2="39.361" y2="62.392"><stop offset="0" stop-color="#adccdc"/><stop offset=".024" stop-color="#a9c8d8"/><stop offset=".323" stop-color="#81a1b0"/><stop offset=".595" stop-color="#648493"/><stop offset=".83" stop-color="#527281"/><stop offset="1" stop-color="#4c6c7b"/></linearGradient><path d="M38.7 62.4c-.2 0-.1.9.3 1.4.4.5 1 .7 1.1.5.1-.2-.5-.3-.9-.7-.3-.4-.2-1.2-.5-1.2" fill="url(#SVGID_20_)"/><linearGradient id="SVGID_21_" gradientUnits="userSpaceOnUse" x1="36.721" y1="64.821" x2="36.721" y2="61.94"><stop offset="0" stop-color="#adccdc"/><stop offset=".024" stop-color="#a9c8d8"/><stop offset=".323" stop-color="#81a1b0"/><stop offset=".595" stop-color="#648493"/><stop offset=".83" stop-color="#527281"/><stop offset="1" stop-color="#4c6c7b"/></linearGradient><path d="M36.9 63.4c0 .8 0 1.4-.1 1.4-.2 0-.1-.6-.1-1.4 0-.8-.1-1.4.1-1.4.1-.1.1.6.1 1.4" fill="url(#SVGID_21_)"/></svg>