<svg id="Layer_2" xmlns="http://www.w3.org/2000/svg" viewBox="0 0 72 100"><style>.st0{fill:url(#SVGID_1_);stroke:#7191a0;stroke-width:2}.st1{fill:#4c6c7b}.st2{fill:url(#SVGID_2_)}.st3{fill:url(#SVGID_3_);stroke:#7191a0;stroke-width:2;stroke-linejoin:bevel}</style><linearGradient id="SVGID_1_" gradientUnits="userSpaceOnUse" x1="36" y1="99.25" x2="36" y2="1.25"><stop offset="0" stop-color="#c8d4db"/><stop offset=".047" stop-color="#cfd9e0"/><stop offset=".225" stop-color="#e4eaed"/><stop offset=".424" stop-color="#f3f6f7"/><stop offset=".655" stop-color="#fcfdfd"/><stop offset="1" stop-color="#fff"/></linearGradient><path class="st0" d="M45 1.2L72 28v71.2H0v-98z"/><path class="st1" d="M17 92.3V72.5h6L26.7 86l3.6-13.5h6.1v19.8h-3.8V76.7l-4 15.6h-3.9l-4-15.6v15.6H17zm23.3-19.8h7.4c1.7 0 2.9.1 3.8.4 1.2.3 2.2 1 3 1.8s1.5 1.9 1.9 3.2.7 2.8.7 4.7c0 1.6-.2 3-.6 4.2-.5 1.4-1.2 2.6-2.1 3.5-.7.7-1.6 1.2-2.8 1.6-.9.3-2.1.4-3.6.4h-7.6V72.5zm4.1 3.3V89h3c1.1 0 1.9-.1 2.4-.2.7-.2 1.2-.4 1.6-.8.4-.4.8-1 1.1-1.9s.4-2.1.4-3.6-.1-2.7-.4-3.5c-.3-.8-.7-1.5-1.1-1.9s-1.1-.8-1.9-.9c-.6-.1-1.7-.2-3.3-.2h-1.8z"/><linearGradient id="SVGID_2_" gradientUnits="userSpaceOnUse" x1="19.555" y1="42.417" x2="53" y2="42.417"><stop offset="0" stop-color="#859aa5"/><stop offset=".379" stop-color="#8398a3"/><stop offset=".576" stop-color="#7b929d"/><stop offset=".73" stop-color="#6e8793"/><stop offset=".863" stop-color="#5b7885"/><stop offset=".981" stop-color="#426473"/><stop offset=".99" stop-color="#406271"/></linearGradient><path class="st2" d="M23.7 51.8h-4.1v-5.6H25l1.8-7.6h-7.3V33h8.7l2.4-10h6.8L35 33h6.7L44 23h7.1l-2.4 10H53v5.7h-5.6l-1.8 7.6H53v5.6h-8.8l-2.4 10H35l2.3-10h-6.8l-2.4 10h-6.9l2.5-10.1zm10-13.1l-1.8 7.6h6.8l1.8-7.6h-6.8z"/><linearGradient id="SVGID_3_" gradientUnits="userSpaceOnUse" x1="45.068" y1="28.046" x2="58.568" y2="14.546"><stop offset="0" stop-color="#fff"/><stop offset=".335" stop-color="#fdfdfd"/><stop offset=".51" stop-color="#f5f7f8"/><stop offset=".647" stop-color="#e7ecee"/><stop offset=".765" stop-color="#d4dce0"/><stop offset=".87" stop-color="#bcc8cf"/><stop offset=".966" stop-color="#9eafb9"/><stop offset="1" stop-color="#91a5b0"/></linearGradient><path class="st3" d="M45 1.2L72 28H45z"/></svg>