<?xml version="1.0" encoding="utf-8"?>
<svg version="1.1" id="Layer_1" xmlns="http://www.w3.org/2000/svg" xmlns:xlink="http://www.w3.org/1999/xlink" x="0px" y="0px" viewBox="0 0 72 100" style="enable-background:new 0 0 72 100;" xml:space="preserve">
    <style type="text/css">
	.st0{fill:url(#path1228_1_);}
	.st1{fill-opacity:0;stroke:#827100;stroke-width:2;}
	.st2{enable-background:new    ;}
	.st3{fill:#FEFEFE;}
	.st4{fill:url(#path1238_1_);}
	.st5{fill-opacity:0;stroke:#827100;stroke-width:2;stroke-linejoin:round;}
	.st6{fill:url(#SVGID_1_);stroke:url(#SVGID_2_);stroke-width:0.75;stroke-miterlimit:10;}
	.st7{fill:url(#SVGID_3_);stroke:url(#SVGID_4_);stroke-width:0.75;stroke-miterlimit:10;}
</style>
    <linearGradient id="path1228_1_" gradientUnits="userSpaceOnUse" x1="486.3114" y1="644.1125" x2="486.3104" y2="742.0848" gradientTransform="matrix(1 0 0 -1 -450.061 743.109)">
        <stop offset="0" style="stop-color:#742D2D"></stop>
        <stop offset="5.000000e-03" style="stop-color:#827100"></stop>
        <stop offset="1" style="stop-color:#FFEE91"></stop>
    </linearGradient>
    <path id="path1228" class="st0" d="M45.3,1l27.1,26.7V99H0.1V1H45.3z"></path>
    <path id="path1230" class="st1" d="M45.3,1l27.1,26.7V99H0.1V1H45.3z"></path>
    <g class="st2">
        <path class="st3" d="M20.4,91.6V76h4.8l2.9,10.6L30.9,76h4.8v15.6h-3V79.3l-3.1,12.3h-3.1l-3.1-12.3v12.3H20.4z"></path>
        <path class="st3" d="M38.2,83.9c0-1.6,0.2-2.9,0.7-4c0.4-0.8,0.8-1.5,1.5-2.1c0.6-0.6,1.3-1.1,2-1.4c1-0.4,2.1-0.6,3.4-0.6
		c2.3,0,4.2,0.7,5.6,2.1c1.4,1.4,2.1,3.4,2.1,5.9c0,2.5-0.7,4.5-2.1,5.9s-3.2,2.1-5.6,2.1c-2.3,0-4.2-0.7-5.6-2.1
		C38.9,88.3,38.2,86.4,38.2,83.9z M41.5,83.8c0,1.8,0.4,3.1,1.2,4c0.8,0.9,1.9,1.4,3.1,1.4c1.3,0,2.3-0.5,3.1-1.4
		c0.8-0.9,1.2-2.3,1.2-4.1c0-1.8-0.4-3.1-1.2-4c-0.8-0.9-1.8-1.3-3.2-1.3c-1.3,0-2.4,0.4-3.2,1.3C41.9,80.6,41.5,82,41.5,83.8z"></path>
    </g>
    <linearGradient id="path1238_1_" gradientUnits="userSpaceOnUse" x1="495.4366" y1="715.2711" x2="508.9823" y2="728.8177" gradientTransform="matrix(1 0 0 -1 -450.061 743.109)">
        <stop offset="0" style="stop-color:#FEEA86"></stop>
        <stop offset="1" style="stop-color:#867200"></stop>
    </linearGradient>
    <path id="path1238" class="st4" d="M45.3,1l27.1,26.7H45.3V1z"></path>
    <path id="path1240" class="st5" d="M45.3,1l27.1,26.7H45.3V1z"></path>
    <g>
        <linearGradient id="SVGID_1_" gradientUnits="userSpaceOnUse" x1="23.9246" y1="57.7285" x2="23.9246" y2="23.1">
            <stop offset="0" style="stop-color:#AA9400"></stop>
            <stop offset="1" style="stop-color:#564A00"></stop>
        </linearGradient>
        <linearGradient id="SVGID_2_" gradientUnits="userSpaceOnUse" x1="23.8823" y1="58.2666" x2="23.8823" y2="22.725">
            <stop offset="0" style="stop-color:#AA9400"></stop>
            <stop offset="1" style="stop-color:#564A00"></stop>
        </linearGradient>
        <path class="st6" d="M34.9,48.6c-3.5-3.4-6.6-6.5-8.4-13.4h12.3V30H26.6v-6.9h-5.3v7H9v5.2h12.6c0,0-0.1,1-0.3,1.8
		C19.6,43.9,17.5,48.3,9,52.5l1.8,5.2c8-4.3,12.2-9.6,14.1-15.6c1.8,4.5,4.8,8.2,8.2,11.6L34.9,48.6z"></path>
        <linearGradient id="SVGID_3_" gradientUnits="userSpaceOnUse" x1="47.6531" y1="66.3646" x2="47.6531" y2="31.7362">
            <stop offset="0" style="stop-color:#AA9400"></stop>
            <stop offset="1" style="stop-color:#564A00"></stop>
        </linearGradient>
        <linearGradient id="SVGID_4_" gradientUnits="userSpaceOnUse" x1="47.6531" y1="66.7396" x2="47.6531" y2="31.3612">
            <stop offset="0" style="stop-color:#AA9400"></stop>
            <stop offset="1" style="stop-color:#564A00"></stop>
        </linearGradient>
        <path class="st7" d="M51.2,31.7h-7L31.8,66.4h5.3L40.6,56h14.1l3.5,10.4h5.3L51.2,31.7z M42.4,50.8l5.3-13.8l5.3,13.9L42.4,50.8
		L42.4,50.8z"></path>
    </g>
</svg>