<svg id="Layer_1" xmlns="http://www.w3.org/2000/svg" viewBox="0 0 72 100"><style>.st0{fill:url(#SVGID_1_)}.st1{fill-opacity:0;stroke:#7191a1;stroke-width:2}.st2{enable-background:new}.st3{fill:#4c6c7b}.st4{fill:url(#SVGID_2_)}.st5{fill-opacity:0;stroke:#7191a1;stroke-width:2;stroke-linejoin:bevel}.st6{fill:url(#SVGID_3_);stroke:url(#SVGID_4_);stroke-miterlimit:10}.st7{fill:url(#SVGID_5_);stroke:url(#SVGID_6_)}.st10,.st11,.st7,.st8,.st9{stroke-miterlimit:10}.st8{fill:url(#SVGID_7_);stroke:url(#SVGID_8_)}.st9{fill:url(#SVGID_9_);stroke:url(#SVGID_10_)}.st10{fill:url(#SVGID_11_);stroke:url(#SVGID_12_)}.st11{fill:url(#SVGID_13_);stroke:url(#SVGID_14_)}</style><linearGradient id="SVGID_1_" gradientUnits="userSpaceOnUse" x1="36" y1="2.953" x2="36" y2="100.95" gradientTransform="matrix(1 0 0 -1 0 102)"><stop offset="0" stop-color="#c8d4db"/><stop offset=".139" stop-color="#d8e1e6"/><stop offset=".359" stop-color="#ebf0f3"/><stop offset=".617" stop-color="#f9fafb"/><stop offset="1" stop-color="#fff"/></linearGradient><path class="st0" d="M45 1l27 26.7V99H0V1h45z"/><path class="st1" d="M45 1l27 26.7V99H0V1h45z"/><g class="st2"><path class="st3" d="M9.9 91.1V71.8h3.8l8 12.9V71.8h3.7v19.3h-4l-7.9-12.6v12.6H9.9zm19.6 0V71.8H44v3.3H33.5v4.3h9.8v3.3h-9.8V88h10.9v3.3H29.5zm17.2-6.3l3.8-.4c.2 1.3.7 2.2 1.4 2.8s1.7.9 2.9.9c1.3 0 2.2-.3 2.9-.8.6-.5 1-1.2 1-1.9 0-.5-.1-.8-.4-1.2-.3-.3-.7-.6-1.4-.8-.5-.2-1.5-.4-3.2-.8-2.1-.5-3.6-1.2-4.4-1.9-1.2-1.1-1.8-2.4-1.8-3.9 0-1 .3-1.9.8-2.8.6-.9 1.4-1.5 2.4-2s2.3-.7 3.8-.7c2.5 0 4.3.5 5.5 1.6s1.9 2.5 2 4.3l-3.9.2c-.2-1-.5-1.7-1.1-2.1-.6-.4-1.4-.7-2.5-.7s-2 .2-2.7.7c-.4.3-.6.7-.6 1.2s.2.8.6 1.2c.5.4 1.7.8 3.6 1.3 1.9.4 3.3.9 4.3 1.4.9.5 1.6 1.1 2.2 2 .5.8.8 1.9.8 3.1 0 1.1-.3 2.1-.9 3.1s-1.5 1.7-2.6 2.2c-1.1.5-2.6.7-4.2.7-2.5 0-4.4-.6-5.7-1.7-1.5-1.2-2.3-2.8-2.6-5z"/></g><linearGradient id="SVGID_2_" gradientUnits="userSpaceOnUse" x1="45.068" y1="74.155" x2="58.568" y2="87.655" gradientTransform="matrix(1 0 0 -1 0 102)"><stop offset="0" stop-color="#fff"/><stop offset=".35" stop-color="#fafbfb"/><stop offset=".532" stop-color="#edf1f4"/><stop offset=".675" stop-color="#dde5e9"/><stop offset=".799" stop-color="#c7d3da"/><stop offset=".908" stop-color="#adbdc7"/><stop offset="1" stop-color="#92a5b0"/></linearGradient><path class="st4" d="M45 1l27 26.7H45V1z"/><path class="st5" d="M45 1l27 26.7H45V1z"/><linearGradient id="SVGID_3_" gradientUnits="userSpaceOnUse" x1="9.6" y1="43.05" x2="63" y2="43.05"><stop offset="0" stop-color="#869ba6"/><stop offset=".379" stop-color="#8399a4"/><stop offset=".576" stop-color="#7b929e"/><stop offset=".731" stop-color="#6d8694"/><stop offset=".863" stop-color="#5a7785"/><stop offset=".981" stop-color="#426373"/><stop offset=".99" stop-color="#416271"/></linearGradient><linearGradient id="SVGID_4_" gradientUnits="userSpaceOnUse" x1="9.1" y1="43.05" x2="63.5" y2="43.05"><stop offset="0" stop-color="#869ba6"/><stop offset=".379" stop-color="#8399a4"/><stop offset=".576" stop-color="#7b929e"/><stop offset=".731" stop-color="#6d8694"/><stop offset=".863" stop-color="#5a7785"/><stop offset=".981" stop-color="#426373"/><stop offset=".99" stop-color="#416271"/></linearGradient><path class="st6" d="M61.6 34.8H23.8v-8.3h-2.7v8.3H10.9c-.7 0-1.3.6-1.3 1.3v22.2c0 .7.6 1.3 1.3 1.3h50.7c.7 0 1.3-.6 1.3-1.3V36.1c0-.7-.6-1.3-1.3-1.3zM60.3 57h-48V37.4h48.1L60.3 57z"/><linearGradient id="SVGID_5_" gradientUnits="userSpaceOnUse" x1="27.776" y1="51.01" x2="33.083" y2="51.01"><stop offset="0" stop-color="#869ba6"/><stop offset=".379" stop-color="#8399a4"/><stop offset=".576" stop-color="#7b929e"/><stop offset=".731" stop-color="#6d8694"/><stop offset=".863" stop-color="#5a7785"/><stop offset=".981" stop-color="#426373"/><stop offset=".99" stop-color="#416271"/></linearGradient><linearGradient id="SVGID_6_" gradientUnits="userSpaceOnUse" x1="27.276" y1="51.01" x2="33.583" y2="51.01"><stop offset="0" stop-color="#869ba6"/><stop offset=".379" stop-color="#8399a4"/><stop offset=".576" stop-color="#7b929e"/><stop offset=".731" stop-color="#6d8694"/><stop offset=".863" stop-color="#5a7785"/><stop offset=".981" stop-color="#426373"/><stop offset=".99" stop-color="#416271"/></linearGradient><path class="st7" d="M29.1 52.3h2.7c.7 0 1.3-.6 1.3-1.3 0-.7-.6-1.3-1.3-1.3h-2.7c-.7 0-1.3.6-1.3 1.3 0 .7.6 1.3 1.3 1.3z"/><linearGradient id="SVGID_7_" gradientUnits="userSpaceOnUse" x1="35.073" y1="51.01" x2="40.38" y2="51.01"><stop offset="0" stop-color="#869ba6"/><stop offset=".379" stop-color="#8399a4"/><stop offset=".576" stop-color="#7b929e"/><stop offset=".731" stop-color="#6d8694"/><stop offset=".863" stop-color="#5a7785"/><stop offset=".981" stop-color="#426373"/><stop offset=".99" stop-color="#416271"/></linearGradient><linearGradient id="SVGID_8_" gradientUnits="userSpaceOnUse" x1="34.573" y1="51.01" x2="40.88" y2="51.01"><stop offset="0" stop-color="#869ba6"/><stop offset=".379" stop-color="#8399a4"/><stop offset=".576" stop-color="#7b929e"/><stop offset=".731" stop-color="#6d8694"/><stop offset=".863" stop-color="#5a7785"/><stop offset=".981" stop-color="#426373"/><stop offset=".99" stop-color="#416271"/></linearGradient><path class="st8" d="M36.4 52.3h2.7c.7 0 1.3-.6 1.3-1.3 0-.7-.6-1.3-1.3-1.3h-2.7c-.7 0-1.3.6-1.3 1.3 0 .7.6 1.3 1.3 1.3z"/><linearGradient id="SVGID_9_" gradientUnits="userSpaceOnUse" x1="14.243" y1="47.859" x2="23.265" y2="47.859"><stop offset="0" stop-color="#869ba6"/><stop offset=".379" stop-color="#8399a4"/><stop offset=".576" stop-color="#7b929e"/><stop offset=".731" stop-color="#6d8694"/><stop offset=".863" stop-color="#5a7785"/><stop offset=".981" stop-color="#426373"/><stop offset=".99" stop-color="#416271"/></linearGradient><linearGradient id="SVGID_10_" gradientUnits="userSpaceOnUse" x1="13.743" y1="47.859" x2="23.765" y2="47.859"><stop offset="0" stop-color="#869ba6"/><stop offset=".379" stop-color="#8399a4"/><stop offset=".576" stop-color="#7b929e"/><stop offset=".731" stop-color="#6d8694"/><stop offset=".863" stop-color="#5a7785"/><stop offset=".981" stop-color="#426373"/><stop offset=".99" stop-color="#416271"/></linearGradient><path class="st9" d="M17.4 52.3h2.7v-3.1h3.2v-2.7h-3.2v-3.1h-2.7v3.1h-3.2v2.7h3.2z"/><linearGradient id="SVGID_11_" gradientUnits="userSpaceOnUse" x1="46.217" y1="49.551" x2="50.993" y2="49.551"><stop offset="0" stop-color="#869ba6"/><stop offset=".379" stop-color="#8399a4"/><stop offset=".576" stop-color="#7b929e"/><stop offset=".731" stop-color="#6d8694"/><stop offset=".863" stop-color="#5a7785"/><stop offset=".981" stop-color="#426373"/><stop offset=".99" stop-color="#416271"/></linearGradient><linearGradient id="SVGID_12_" gradientUnits="userSpaceOnUse" x1="45.717" y1="49.551" x2="51.493" y2="49.551"><stop offset="0" stop-color="#869ba6"/><stop offset=".379" stop-color="#8399a4"/><stop offset=".576" stop-color="#7b929e"/><stop offset=".731" stop-color="#6d8694"/><stop offset=".863" stop-color="#5a7785"/><stop offset=".981" stop-color="#426373"/><stop offset=".99" stop-color="#416271"/></linearGradient><circle class="st10" cx="48.6" cy="49.6" r="2.4"/><linearGradient id="SVGID_13_" gradientUnits="userSpaceOnUse" x1="53.514" y1="49.551" x2="58.29" y2="49.551"><stop offset="0" stop-color="#869ba6"/><stop offset=".379" stop-color="#8399a4"/><stop offset=".576" stop-color="#7b929e"/><stop offset=".731" stop-color="#6d8694"/><stop offset=".863" stop-color="#5a7785"/><stop offset=".981" stop-color="#426373"/><stop offset=".99" stop-color="#416271"/></linearGradient><linearGradient id="SVGID_14_" gradientUnits="userSpaceOnUse" x1="53.014" y1="49.551" x2="58.79" y2="49.551"><stop offset="0" stop-color="#869ba6"/><stop offset=".379" stop-color="#8399a4"/><stop offset=".576" stop-color="#7b929e"/><stop offset=".731" stop-color="#6d8694"/><stop offset=".863" stop-color="#5a7785"/><stop offset=".981" stop-color="#426373"/><stop offset=".99" stop-color="#416271"/></linearGradient><circle class="st11" cx="55.9" cy="49.6" r="2.4"/></svg>