<svg xmlns="http://www.w3.org/2000/svg" viewBox="0 0 72 100"><linearGradient id="a" gradientUnits="userSpaceOnUse" x1="36" y1="97" x2="36" y2="-1" gradientTransform="translate(0 2)"><stop offset="0" stop-color="#c8d4db"/><stop offset=".139" stop-color="#d8e1e6"/><stop offset=".359" stop-color="#ebf0f3"/><stop offset=".617" stop-color="#f9fafb"/><stop offset="1" stop-color="#fff"/></linearGradient><path d="M45 1l27 26.7V99H0V1h45z" fill="url(#a)"/><path d="M45 1l27 26.7V99H0V1h45z" fill-opacity="0" stroke="#7191a1" stroke-width="2"/><path d="M9.9 91.1V71.8h3.8l8 12.9V71.8h3.7v19.3h-4l-7.9-12.6v12.6H9.9zm19.6 0V71.8H44v3.3H33.5v4.3h9.8v3.3h-9.8V88h10.9v3.3H29.5v-.2zm17.2-6.3l3.8-.4c.2 1.3.7 2.2 1.4 2.8s1.7.9 2.9.9c1.3 0 2.2-.3 2.9-.8.6-.5 1-1.2 1-1.9 0-.5-.1-.8-.4-1.2-.3-.3-.7-.6-1.4-.8-.5-.2-1.5-.4-3.2-.8-2.1-.5-3.6-1.2-4.4-1.9-1.2-1.1-1.8-2.4-1.8-3.9 0-1 .3-1.9.8-2.8.6-.9 1.4-1.5 2.4-2s2.3-.7 3.8-.7c2.5 0 4.3.5 5.5 1.6s1.9 2.5 2 4.3l-3.9.2c-.2-1-.5-1.7-1.1-2.1s-1.4-.7-2.5-.7-2 .2-2.7.7c-.4.3-.6.7-.6 1.2s.2.8.6 1.2c.5.4 1.7.8 3.6 1.3 1.9.4 3.3.9 4.3 1.4.9.5 1.6 1.1 2.2 2 .5.8.8 1.9.8 3.1 0 1.1-.3 2.1-.9 3.1s-1.5 1.7-2.6 2.2-2.6.7-4.2.7c-2.5 0-4.4-.6-5.7-1.7-1.5-1.2-2.3-2.8-2.6-5z" fill="#4c6c7b"/><linearGradient id="b" gradientUnits="userSpaceOnUse" x1="45.036" y1="25.814" x2="58.536" y2="12.313" gradientTransform="translate(0 2)"><stop offset="0" stop-color="#fff"/><stop offset=".35" stop-color="#fafbfb"/><stop offset=".532" stop-color="#edf1f4"/><stop offset=".675" stop-color="#dde5e9"/><stop offset=".799" stop-color="#c7d3da"/><stop offset=".908" stop-color="#adbdc7"/><stop offset="1" stop-color="#92a5b0"/></linearGradient><path d="M45 1l27 26.7H45V1z" fill="url(#b)"/><path d="M45 1l27 26.7H45V1z" fill-opacity="0" stroke="#7191a1" stroke-width="2" stroke-linejoin="bevel"/><linearGradient id="c" gradientUnits="userSpaceOnUse" x1="36.25" y1="59.6" x2="36.25" y2="26.5"><stop offset="0" stop-color="#adccdc"/><stop offset="1" stop-color="#4c6c7b"/></linearGradient><linearGradient id="d" gradientUnits="userSpaceOnUse" x1="36.25" y1="60.1" x2="36.25" y2="26"><stop offset="0" stop-color="#adccdc"/><stop offset="1" stop-color="#4c6c7b"/></linearGradient><path d="M61.6 34.8H23.8v-8.3h-2.7v8.3H10.9c-.7 0-1.3.6-1.3 1.3v22.2c0 .7.6 1.3 1.3 1.3h50.7c.7 0 1.3-.6 1.3-1.3V36.1c0-.7-.6-1.3-1.3-1.3zM60.3 57h-48V37.4h48.1L60.3 57z" fill="url(#c)" stroke="url(#d)" stroke-miterlimit="10"/><linearGradient id="e" gradientUnits="userSpaceOnUse" x1="30.45" y1="52.3" x2="30.45" y2="49.7"><stop offset="0" stop-color="#adccdc"/><stop offset="1" stop-color="#4c6c7b"/></linearGradient><linearGradient id="f" gradientUnits="userSpaceOnUse" x1="30.45" y1="52.8" x2="30.45" y2="49.2"><stop offset="0" stop-color="#adccdc"/><stop offset="1" stop-color="#4c6c7b"/></linearGradient><path d="M29.1 52.3h2.7c.7 0 1.3-.6 1.3-1.3s-.6-1.3-1.3-1.3h-2.7c-.7 0-1.3.6-1.3 1.3s.6 1.3 1.3 1.3z" fill="url(#e)" stroke="url(#f)" stroke-miterlimit="10"/><linearGradient id="g" gradientUnits="userSpaceOnUse" x1="37.75" y1="52.3" x2="37.75" y2="49.7"><stop offset="0" stop-color="#adccdc"/><stop offset="1" stop-color="#4c6c7b"/></linearGradient><linearGradient id="h" gradientUnits="userSpaceOnUse" x1="37.75" y1="52.8" x2="37.75" y2="49.2"><stop offset="0" stop-color="#adccdc"/><stop offset="1" stop-color="#4c6c7b"/></linearGradient><path d="M36.4 52.3h2.7c.7 0 1.3-.6 1.3-1.3s-.6-1.3-1.3-1.3h-2.7c-.7 0-1.3.6-1.3 1.3s.6 1.3 1.3 1.3z" fill="url(#g)" stroke="url(#h)" stroke-miterlimit="10"/><linearGradient id="i" gradientUnits="userSpaceOnUse" x1="18.75" y1="52.3" x2="18.75" y2="43.4"><stop offset="0" stop-color="#adccdc"/><stop offset="1" stop-color="#4c6c7b"/></linearGradient><linearGradient id="j" gradientUnits="userSpaceOnUse" x1="18.75" y1="52.8" x2="18.75" y2="42.9"><stop offset="0" stop-color="#adccdc"/><stop offset="1" stop-color="#4c6c7b"/></linearGradient><path d="M17.4 52.3h2.7v-3.1h3.2v-2.7h-3.2v-3.1h-2.7v3.1h-3.2v2.7h3.2v3.1z" fill="url(#i)" stroke="url(#j)" stroke-miterlimit="10"/><linearGradient id="k" gradientUnits="userSpaceOnUse" x1="48.6" y1="52" x2="48.6" y2="47.2"><stop offset="0" stop-color="#adccdc"/><stop offset="1" stop-color="#4c6c7b"/></linearGradient><linearGradient id="l" gradientUnits="userSpaceOnUse" x1="48.6" y1="52.5" x2="48.6" y2="46.7"><stop offset="0" stop-color="#adccdc"/><stop offset="1" stop-color="#4c6c7b"/></linearGradient><circle cx="48.6" cy="49.6" r="2.4" fill="url(#k)" stroke="url(#l)" stroke-miterlimit="10"/><linearGradient id="m" gradientUnits="userSpaceOnUse" x1="55.9" y1="52" x2="55.9" y2="47.2"><stop offset="0" stop-color="#adccdc"/><stop offset="1" stop-color="#4c6c7b"/></linearGradient><linearGradient id="n" gradientUnits="userSpaceOnUse" x1="55.9" y1="52.5" x2="55.9" y2="46.7"><stop offset="0" stop-color="#adccdc"/><stop offset="1" stop-color="#4c6c7b"/></linearGradient><circle cx="55.9" cy="49.6" r="2.4" fill="url(#m)" stroke="url(#n)" stroke-miterlimit="10"/></svg>