<?xml version="1.0" encoding="utf-8"?>
<!-- Generator: Adobe Illustrator 22.1.0, SVG Export Plug-In . SVG Version: 6.00 Build 0)  -->
<svg version="1.1" id="Layer_1" xmlns="http://www.w3.org/2000/svg" xmlns:xlink="http://www.w3.org/1999/xlink" x="0px" y="0px"
	 viewBox="0 0 72 100" style="enable-background:new 0 0 72 100;" xml:space="preserve">
<style type="text/css">
	.st0{fill:url(#SVGID_1_);}
	.st1{fill:url(#SVGID_2_);fill-opacity:0;stroke:#235427;stroke-width:2;}
	.st2{enable-background:new    ;}
	.st3{fill:#FFFFFF;}
	.st4{fill:url(#SVGID_3_);}
	.st5{fill-opacity:0;stroke:#235427;stroke-width:2;stroke-linejoin:bevel;}
	.st6{fill:url(#SVGID_4_);}
	.st7{fill:url(#SVGID_5_);}
	.st8{fill:url(#SVGID_6_);}
	.st9{fill:url(#SVGID_7_);}
	.st10{fill:url(#SVGID_8_);}
	.st11{fill:url(#SVGID_9_);}
</style>
<linearGradient id="SVGID_1_" gradientUnits="userSpaceOnUse" x1="36.2" y1="97" x2="36.2" y2="-1" gradientTransform="matrix(1 0 0 1 0 2)">
	<stop  offset="2.949025e-02" style="stop-color:#235427"/>
	<stop  offset="0.4624" style="stop-color:#4EB056"/>
	<stop  offset="0.998" style="stop-color:#64D66D"/>
</linearGradient>
<path class="st0" d="M45.2,1l26.9,26.7V99H0.3V1H45.2z"/>
<linearGradient id="SVGID_2_" gradientUnits="userSpaceOnUse" x1="0.3" y1="50" x2="72.1" y2="50" gradientTransform="matrix(1 0 0 -1 0 100)">
	<stop  offset="5.000000e-03" style="stop-color:#077265"/>
	<stop  offset="0.343" style="stop-color:#006A69"/>
	<stop  offset="1" style="stop-color:#003836"/>
</linearGradient>
<path class="st1" d="M45.2,1l26.9,26.7V99H0.3V1H45.2z"/>
<g class="st2">
	<path class="st3" d="M7.2,81.3c0-2,0.3-3.7,0.9-5.1c0.5-1,1.1-1.9,1.9-2.7c0.8-0.8,1.6-1.4,2.6-1.8c1.2-0.5,2.7-0.8,4.3-0.8
		c2.9,0,5.3,0.9,7.1,2.7s2.6,4.3,2.6,7.6c0,3.2-0.9,5.7-2.6,7.5s-4.1,2.7-7,2.7c-3,0-5.3-0.9-7.1-2.7C8.1,86.9,7.2,84.4,7.2,81.3z
		 M11.3,81.1c0,2.2,0.5,4,1.6,5.1c1,1.2,2.4,1.7,4,1.7s2.9-0.6,4-1.7c1-1.2,1.5-2.9,1.5-5.2c0-2.3-0.5-4-1.5-5.1s-2.3-1.7-4-1.7
		s-3,0.6-4,1.7C11.8,77.1,11.3,78.9,11.3,81.1z"/>
	<path class="st3" d="M29.7,71.2h7.4c1.7,0,2.9,0.1,3.8,0.4c1.2,0.3,2.2,1,3,1.8c0.8,0.9,1.5,1.9,1.9,3.2c0.4,1.3,0.7,2.8,0.7,4.7
		c0,1.6-0.2,3-0.6,4.2c-0.5,1.4-1.2,2.6-2.1,3.5c-0.7,0.7-1.6,1.2-2.8,1.6c-0.9,0.3-2.1,0.4-3.6,0.4h-7.6V71.2H29.7z M33.7,74.6
		v13.1h3c1.1,0,1.9-0.1,2.4-0.2c0.7-0.2,1.2-0.4,1.6-0.8c0.4-0.4,0.8-1,1.1-1.9s0.4-2.1,0.4-3.6s-0.1-2.7-0.4-3.5
		c-0.3-0.8-0.7-1.5-1.1-1.9c-0.5-0.5-1.1-0.8-1.9-0.9c-0.6-0.1-1.7-0.2-3.3-0.2L33.7,74.6L33.7,74.6z"/>
	<path class="st3" d="M48.8,84.6l3.9-0.4c0.2,1.3,0.7,2.3,1.4,2.9S55.8,88,57,88c1.3,0,2.3-0.3,2.9-0.8c0.7-0.5,1-1.2,1-1.9
		c0-0.5-0.1-0.9-0.4-1.2s-0.8-0.6-1.5-0.9c-0.5-0.2-1.5-0.5-3.2-0.9c-2.2-0.5-3.7-1.2-4.6-2c-1.2-1.1-1.8-2.4-1.8-4
		c0-1,0.3-2,0.9-2.8c0.6-0.9,1.4-1.5,2.5-2s2.4-0.7,3.9-0.7c2.5,0,4.4,0.5,5.7,1.6s1.9,2.5,2,4.4l-4,0.2c-0.2-1-0.5-1.8-1.1-2.2
		s-1.4-0.7-2.6-0.7c-1.2,0-2.1,0.2-2.8,0.7c-0.4,0.3-0.6,0.7-0.6,1.2s0.2,0.9,0.6,1.2c0.5,0.4,1.7,0.9,3.7,1.3
		c2,0.5,3.4,0.9,4.4,1.4c0.9,0.5,1.7,1.2,2.2,2c0.5,0.8,0.8,1.9,0.8,3.2c0,1.1-0.3,2.2-1,3.2c-0.6,1-1.5,1.7-2.7,2.2
		s-2.6,0.7-4.3,0.7c-2.5,0-4.5-0.6-5.8-1.7C49.9,88.5,49.1,86.8,48.8,84.6z"/>
</g>
<linearGradient id="SVGID_3_" gradientUnits="userSpaceOnUse" x1="45.2215" y1="25.7785" x2="58.6715" y2="12.3285" gradientTransform="matrix(1 0 0 1 0 2)">
	<stop  offset="0.4842" style="stop-color:#CCF8D2"/>
	<stop  offset="0.9308" style="stop-color:#429B4E"/>
	<stop  offset="0.998" style="stop-color:#2D7136"/>
</linearGradient>
<path class="st4" d="M45.2,1l26.9,26.7H45.2V1z"/>
<path class="st5" d="M45.2,1l26.9,26.7H45.2V1z"/>
<g>
	<linearGradient id="SVGID_4_" gradientUnits="userSpaceOnUse" x1="53.2796" y1="41.0602" x2="53.2796" y2="48.6561">
		<stop  offset="0" style="stop-color:#235427"/>
		<stop  offset="1" style="stop-color:#44984B"/>
	</linearGradient>
	<rect x="47.6" y="41.1" class="st6" width="11.4" height="7.6"/>
	<linearGradient id="SVGID_5_" gradientUnits="userSpaceOnUse" x1="53.2796" y1="52.7822" x2="53.2796" y2="60.3781">
		<stop  offset="0" style="stop-color:#235427"/>
		<stop  offset="1" style="stop-color:#44984B"/>
	</linearGradient>
	<rect x="47.6" y="52.8" class="st7" width="11.4" height="7.6"/>
	<linearGradient id="SVGID_6_" gradientUnits="userSpaceOnUse" x1="43.8555" y1="36.036" x2="43.8555" y2="39.9746">
		<stop  offset="0" style="stop-color:#235427"/>
		<stop  offset="1" style="stop-color:#44984B"/>
	</linearGradient>
	<path class="st8" d="M36.6,36h1.6c2.4,0.2,4.3,0.8,6.2,1.5c3.6-1.6,8.6-0.4,11.8,0.8c-4-0.4-8.8,0-11.6,1.6
		c-2.8-2.3-8.1-2.9-13-2.3C32.9,36.8,34.6,36.2,36.6,36z"/>
	<linearGradient id="SVGID_7_" gradientUnits="userSpaceOnUse" x1="28.1388" y1="42.1052" x2="28.1388" y2="48.602">
		<stop  offset="0" style="stop-color:#235427"/>
		<stop  offset="1" style="stop-color:#44984B"/>
	</linearGradient>
	<path class="st9" d="M35.5,42.1c-2.9,0.2-5.3,1.1-6.8,2.4c-4.8-2.2-13-1.2-16.1,1.7c-0.3,0.2-0.6,0.4-0.5,0.7
		c2.7-0.8,6-1.5,9.4-1.2c3.4,0.3,5.9,1.4,7.8,2.9c3.5-3.1,8.6-4.9,15.1-4.8C42,42.8,38.7,41.9,35.5,42.1z"/>
	<linearGradient id="SVGID_8_" gradientUnits="userSpaceOnUse" x1="37.9082" y1="52.8665" x2="37.9082" y2="60.4624">
		<stop  offset="0" style="stop-color:#235427"/>
		<stop  offset="1" style="stop-color:#44984B"/>
	</linearGradient>
	<rect x="32.2" y="52.9" class="st10" width="11.4" height="7.6"/>
	<linearGradient id="SVGID_9_" gradientUnits="userSpaceOnUse" x1="22.4351" y1="52.8665" x2="22.4351" y2="60.4624">
		<stop  offset="0" style="stop-color:#235427"/>
		<stop  offset="1" style="stop-color:#44984B"/>
	</linearGradient>
	<rect x="16.7" y="52.9" class="st11" width="11.4" height="7.6"/>
</g>
</svg>
