<?xml version="1.0" encoding="utf-8"?>
<!-- Generator: Adobe Illustrator 22.1.0, SVG Export Plug-In . SVG Version: 6.00 Build 0)  -->
<svg version="1.1" id="Layer_1" xmlns="http://www.w3.org/2000/svg" xmlns:xlink="http://www.w3.org/1999/xlink" x="0px" y="0px" viewBox="0 0 72 100" style="enable-background:new 0 0 72 100;" xml:space="preserve">
    <style type="text/css">
	.st0{fill:url(#SVGID_1_);}
	.st1{fill:url(#SVGID_2_);fill-opacity:0;stroke:#235427;stroke-width:2;}
	.st2{enable-background:new    ;}
	.st3{fill:#FFFFFF;}
	.st4{fill:url(#SVGID_3_);}
	.st5{fill-opacity:0;stroke:#235427;stroke-width:2;stroke-linejoin:bevel;}
	.st6{fill:url(#SVGID_4_);}
	.st7{fill:url(#SVGID_5_);}
	.st8{fill:url(#SVGID_6_);}
	.st9{fill:url(#SVGID_7_);}
</style>
    <linearGradient id="SVGID_1_" gradientUnits="userSpaceOnUse" x1="36.2" y1="3.0053" x2="36.2" y2="101.0001" gradientTransform="matrix(1 0 0 -1 0 102)">
        <stop offset="2.949025e-02" style="stop-color:#235427"></stop>
        <stop offset="0.4624" style="stop-color:#4EB056"></stop>
        <stop offset="0.998" style="stop-color:#64D66D"></stop>
    </linearGradient>
    <path class="st0" d="M45.2,1l26.9,26.7V99H0.3V1H45.2z"></path>
    <linearGradient id="SVGID_2_" gradientUnits="userSpaceOnUse" x1="0.325" y1="49.9973" x2="72.075" y2="49.9973">
        <stop offset="5.000000e-03" style="stop-color:#077265"></stop>
        <stop offset="0.343" style="stop-color:#006A69"></stop>
        <stop offset="1" style="stop-color:#003836"></stop>
    </linearGradient>
    <path class="st1" d="M45.2,1l26.9,26.7V99H0.3V1H45.2z"></path>
    <g class="st2">
        <path class="st3" d="M7.2,81.3c0-2,0.3-3.7,0.9-5.1c0.5-1,1.1-1.9,1.9-2.7c0.8-0.8,1.6-1.4,2.6-1.8c1.2-0.5,2.7-0.8,4.3-0.8
		c2.9,0,5.3,0.9,7.1,2.7s2.6,4.3,2.6,7.6c0,3.2-0.9,5.7-2.6,7.5s-4.1,2.7-7,2.7c-3,0-5.3-0.9-7.1-2.7C8.1,86.9,7.2,84.4,7.2,81.3z
		 M11.3,81.1c0,2.2,0.5,4,1.6,5.1c1,1.2,2.4,1.7,4,1.7c1.6,0,2.9-0.6,4-1.7c1-1.2,1.5-2.9,1.5-5.2c0-2.3-0.5-4-1.5-5.1
		c-1-1.1-2.3-1.7-4-1.7s-3,0.6-4,1.7C11.8,77.1,11.3,78.9,11.3,81.1z"></path>
        <path class="st3" d="M29.7,71.2h7.4c1.7,0,2.9,0.1,3.8,0.4c1.2,0.3,2.2,1,3,1.8c0.8,0.9,1.5,1.9,1.9,3.2c0.4,1.3,0.7,2.8,0.7,4.7
		c0,1.6-0.2,3-0.6,4.2c-0.5,1.4-1.2,2.6-2.1,3.5c-0.7,0.7-1.6,1.2-2.8,1.6c-0.9,0.3-2.1,0.4-3.6,0.4h-7.6V71.2z M33.7,74.6v13.1h3
		c1.1,0,1.9-0.1,2.4-0.2c0.7-0.2,1.2-0.4,1.6-0.8c0.4-0.4,0.8-1,1.1-1.9c0.3-0.9,0.4-2.1,0.4-3.6c0-1.5-0.1-2.7-0.4-3.5
		c-0.3-0.8-0.7-1.5-1.1-1.9c-0.5-0.5-1.1-0.8-1.9-0.9c-0.6-0.1-1.7-0.2-3.3-0.2H33.7z"></path>
        <path class="st3" d="M48.8,84.6l3.9-0.4c0.2,1.3,0.7,2.3,1.4,2.9c0.7,0.6,1.7,0.9,2.9,0.9c1.3,0,2.3-0.3,2.9-0.8
		c0.7-0.5,1-1.2,1-1.9c0-0.5-0.1-0.9-0.4-1.2s-0.8-0.6-1.5-0.9c-0.5-0.2-1.5-0.5-3.2-0.9c-2.2-0.5-3.7-1.2-4.6-2
		c-1.2-1.1-1.8-2.4-1.8-4c0-1,0.3-2,0.9-2.8c0.6-0.9,1.4-1.5,2.5-2c1.1-0.5,2.4-0.7,3.9-0.7c2.5,0,4.4,0.5,5.7,1.6
		c1.3,1.1,1.9,2.5,2,4.4l-4,0.2c-0.2-1-0.5-1.8-1.1-2.2s-1.4-0.7-2.6-0.7c-1.2,0-2.1,0.2-2.8,0.7c-0.4,0.3-0.6,0.7-0.6,1.2
		c0,0.5,0.2,0.9,0.6,1.2c0.5,0.4,1.7,0.9,3.7,1.3c2,0.5,3.4,0.9,4.4,1.4c0.9,0.5,1.7,1.2,2.2,2s0.8,1.9,0.8,3.2c0,1.1-0.3,2.2-1,3.2
		c-0.6,1-1.5,1.7-2.7,2.2c-1.2,0.5-2.6,0.7-4.3,0.7c-2.5,0-4.5-0.6-5.8-1.7C49.9,88.5,49.1,86.8,48.8,84.6z"></path>
    </g>
    <linearGradient id="SVGID_3_" gradientUnits="userSpaceOnUse" x1="45.2139" y1="74.2291" x2="58.667" y2="87.6823" gradientTransform="matrix(1 0 0 -1 0 102)">
        <stop offset="0.4842" style="stop-color:#CCF8D2"></stop>
        <stop offset="0.9308" style="stop-color:#429B4E"></stop>
        <stop offset="0.998" style="stop-color:#2D7136"></stop>
    </linearGradient>
    <path class="st4" d="M45.2,1l26.9,26.7H45.2V1z"></path>
    <path class="st5" d="M45.2,1l26.9,26.7H45.2V1z"></path>
    <g>
        <linearGradient id="SVGID_4_" gradientUnits="userSpaceOnUse" x1="48.7435" y1="41.1277" x2="53.7761" y2="49.8443">
            <stop offset="0" style="stop-color:#235427"></stop>
            <stop offset="1" style="stop-color:#44984B"></stop>
        </linearGradient>
        <rect x="43.4" y="44.2" class="st6" width="15.8" height="2.5"></rect>
        <linearGradient id="SVGID_5_" gradientUnits="userSpaceOnUse" x1="29.3661" y1="41.3752" x2="42.2535" y2="63.6969">
            <stop offset="0" style="stop-color:#235427"></stop>
            <stop offset="1" style="stop-color:#44984B"></stop>
        </linearGradient>
        <rect x="12.5" y="51.1" class="st7" width="46.7" height="2.8"></rect>
        <linearGradient id="SVGID_6_" gradientUnits="userSpaceOnUse" x1="29.3661" y1="48.1752" x2="42.2535" y2="70.4969">
            <stop offset="0" style="stop-color:#235427"></stop>
            <stop offset="1" style="stop-color:#44984B"></stop>
        </linearGradient>
        <rect x="12.5" y="57.9" class="st8" width="46.7" height="2.8"></rect>
        <linearGradient id="SVGID_7_" gradientUnits="userSpaceOnUse" x1="31.8238" y1="32.6356" x2="39.9271" y2="46.671">
            <stop offset="0" style="stop-color:#235427"></stop>
            <stop offset="1" style="stop-color:#44984B"></stop>
        </linearGradient>
        <path class="st9" d="M38.7,32.8c0.5,0,1.2,0,1.7,0C43,33,45,33.6,47,34.4c3.8-1.7,9.2-0.4,12.6,0.9c-4.3-0.4-9.4,0-12.4,1.7
		c-3-2.4-8.6-3.1-13.9-2.4C34.8,33.6,36.6,33,38.7,32.8z M37.5,39.3c-3.1,0.2-5.6,1.2-7.3,2.6c-5.1-2.3-13.9-1.3-17.2,1.8
		c-0.3,0.2-0.6,0.4-0.5,0.7c2.9-0.9,6.4-1.6,10-1.3s6.3,1.5,8.3,3.1c3.7-3.3,9.2-5.2,16.1-5.1C44.5,40,41,39.1,37.5,39.3z"></path>
    </g>
</svg>