<svg id="Layer_2" xmlns="http://www.w3.org/2000/svg" viewBox="0 0 72 100"><style>.st0{fill:url(#SVGID_1_)}.st1{fill-opacity:0;stroke:#7191a1;stroke-width:2}.st2{fill:url(#SVGID_2_)}.st3{fill-opacity:0;stroke:#7191a1;stroke-width:2;stroke-linejoin:bevel}.st4{enable-background:new}.st5{fill:#4c6c7b}</style><linearGradient id="SVGID_1_" gradientUnits="userSpaceOnUse" x1="36" y1="127.8" x2="36" y2="29.8" gradientTransform="translate(0 -29)"><stop offset="0" stop-color="#c8d4db"/><stop offset=".139" stop-color="#d8e1e6"/><stop offset=".359" stop-color="#ebf0f3"/><stop offset=".617" stop-color="#f9fafb"/><stop offset="1" stop-color="#fff"/></linearGradient><path class="st0" d="M45 .8l27 26.7v71.3H0V.8h45z"/><path class="st1" d="M45 .8l27 26.7v71.3H0V.8h45z"/><linearGradient id="SVGID_2_" gradientUnits="userSpaceOnUse" x1="45.075" y1="56.575" x2="58.575" y2="43.075" gradientTransform="translate(0 -29)"><stop offset="0" stop-color="#fff"/><stop offset=".35" stop-color="#fafbfb"/><stop offset=".532" stop-color="#edf1f4"/><stop offset=".675" stop-color="#dde5e9"/><stop offset=".799" stop-color="#c7d3da"/><stop offset=".908" stop-color="#adbdc7"/><stop offset="1" stop-color="#92a5b0"/></linearGradient><path class="st2" d="M45 .8l27 26.7H45V.8z"/><path class="st3" d="M45 .8l27 26.7H45V.8z"/><g class="st4"><path class="st5" d="M9.3 89.8V74.1h5.1c1.9 0 3.2.1 3.8.2.9.2 1.7.8 2.3 1.5.6.8.9 1.8.9 3.1 0 1-.2 1.8-.5 2.4-.4.7-.8 1.2-1.3 1.6-.5.4-1.1.6-1.6.7-.8.2-1.9.2-3.3.2h-2.1v5.9H9.3zm3.2-13.1v4.5h1.7c1.3 0 2.1-.1 2.5-.2.4-.2.8-.4 1-.8.2-.4.4-.8.4-1.2 0-.6-.2-1-.5-1.4-.3-.4-.8-.6-1.3-.7-.4-.1-1.1-.1-2.3-.1h-1.5zm24 13.1H33l-1.4-3.6h-6.3L24 89.8h-3.4l6.1-15.7h3.4l6.4 15.7zm-5.8-6.2l-2.2-5.8-2.1 5.8h4.3zm7.5 6.2V74.1h6.7c1.7 0 2.9.1 3.7.4.8.3 1.4.8 1.8 1.5.5.7.7 1.6.7 2.5 0 1.2-.3 2.2-1 2.9-.7.8-1.7 1.3-3.1 1.5.7.4 1.3.8 1.7 1.3s1.1 1.3 1.8 2.6l1.9 3.1h-3.8l-2.3-3.4c-.8-1.2-1.4-2-1.7-2.3-.3-.3-.6-.5-1-.7-.3-.1-.9-.2-1.6-.2h-.6v6.6h-3.2zm3.2-9.1h2.4c1.5 0 2.5-.1 2.9-.2.4-.1.7-.4.9-.7s.3-.7.3-1.2-.1-1-.4-1.3c-.3-.3-.7-.5-1.2-.6-.3 0-1-.1-2.3-.1h-2.5v4.1zm16.3 9.1V76.7H53V74h12.5v2.7h-4.7v13.1h-3.1z"/></g></svg>