<?xml version="1.0" encoding="utf-8"?>
<svg version="1.1" id="Layer_1" xmlns="http://www.w3.org/2000/svg" xmlns:xlink="http://www.w3.org/1999/xlink" x="0px" y="0px" viewBox="0 0 72 100" style="enable-background:new 0 0 72 100;" xml:space="preserve">
    <style type="text/css">
	.st0{opacity:0.95;}
	.st1{fill:url(#SVGID_1_);}
	.st2{fill-opacity:0;stroke:#BA9C02;stroke-width:2;}
	.st3{enable-background:new    ;}
	.st4{fill:#A07802;}
	.st5{fill:url(#SVGID_2_);stroke:url(#SVGID_3_);stroke-width:1.5;stroke-miterlimit:10;}
	.st6{fill:url(#SVGID_4_);}
	.st7{fill-opacity:0;stroke:#BA9C02;stroke-width:2;stroke-linejoin:bevel;}
</style>
    <g class="st0">
        <linearGradient id="SVGID_1_" gradientUnits="userSpaceOnUse" x1="35.75" y1="2.9947" x2="35.75" y2="101.0005" gradientTransform="matrix(1 0 0 -1 0 102)">
            <stop offset="0" style="stop-color:#EFC402"></stop>
            <stop offset="3.800000e-02" style="stop-color:#F1C829"></stop>
            <stop offset="0.147" style="stop-color:#F4D264"></stop>
            <stop offset="0.258" style="stop-color:#F7DC8B"></stop>
            <stop offset="0.372" style="stop-color:#F9E5AC"></stop>
            <stop offset="0.488" style="stop-color:#FBECC7"></stop>
            <stop offset="0.606" style="stop-color:#FCF3DD"></stop>
            <stop offset="0.728" style="stop-color:#FEF9EE"></stop>
            <stop offset="0.856" style="stop-color:#FFFDF9"></stop>
            <stop offset="1" style="stop-color:#FFFFFF"></stop>
        </linearGradient>
        <path class="st1" d="M44.8,1l27,26.7V99h-72V1H44.8z"></path>
        <path class="st2" d="M44.8,1l27,26.7V99h-72V1H44.8z"></path>
    </g>
    <g class="st3">
        <path class="st4" d="M7.8,92.1V72.2h6.5c2.5,0,4.1,0.1,4.8,0.3c1.1,0.3,2.1,0.9,2.9,1.9c0.8,1,1.2,2.3,1.2,3.9
		c0,1.2-0.2,2.2-0.7,3.1c-0.4,0.8-1,1.5-1.7,2c-0.7,0.5-1.4,0.8-2.1,0.9c-1,0.2-2.4,0.3-4.2,0.3h-2.6v7.5H7.8z M11.8,75.6v5.6H14
		c1.6,0,2.7-0.1,3.2-0.3c0.5-0.2,1-0.5,1.3-1c0.3-0.4,0.5-1,0.5-1.5c0-0.7-0.2-1.3-0.6-1.8c-0.4-0.5-1-0.8-1.6-0.9
		c-0.5-0.1-1.5-0.1-2.9-0.1H11.8z"></path>
        <path class="st4" d="M26.5,92.1V72.2h4V81l8.2-8.8h5.4L36.6,80l8,12.1h-5.2l-5.5-9.3l-3.3,3.3v6H26.5z"></path>
        <path class="st4" d="M56,84.8v-3.3h8.7v7.9c-0.8,0.8-2.1,1.5-3.7,2.1c-1.6,0.6-3.2,0.9-4.9,0.9c-2.1,0-3.9-0.4-5.5-1.3
		c-1.6-0.9-2.7-2.1-3.5-3.7C46.4,85.7,46,84,46,82.1c0-2.1,0.4-3.9,1.3-5.5s2.2-2.8,3.8-3.7c1.3-0.7,2.9-1,4.8-1
		c2.5,0,4.4,0.5,5.8,1.5c1.4,1,2.3,2.5,2.7,4.3l-4,0.7c-0.3-1-0.8-1.7-1.6-2.3c-0.8-0.6-1.8-0.8-2.9-0.8c-1.8,0-3.2,0.6-4.2,1.7
		c-1,1.1-1.6,2.8-1.6,4.9c0,2.4,0.5,4.1,1.6,5.3c1.1,1.2,2.4,1.8,4.2,1.8c0.8,0,1.7-0.2,2.6-0.5c0.9-0.3,1.6-0.7,2.2-1.2v-2.5H56z"></path>
    </g>
    <g transform="translate(0,-952.36218)">
        <linearGradient id="SVGID_2_" gradientUnits="userSpaceOnUse" x1="12.4713" y1="995.2773" x2="60.078" y2="995.2773">
            <stop offset="5.000000e-03" style="stop-color:#A47D03"></stop>
            <stop offset="0.533" style="stop-color:#DEBE00"></stop>
            <stop offset="0.639" style="stop-color:#CFAD04"></stop>
            <stop offset="1" style="stop-color:#A07802"></stop>
        </linearGradient>
        <linearGradient id="SVGID_3_" gradientUnits="userSpaceOnUse" x1="11.7213" y1="995.2773" x2="60.828" y2="995.2773">
            <stop offset="5.000000e-03" style="stop-color:#A47D03"></stop>
            <stop offset="0.533" style="stop-color:#DEBE00"></stop>
            <stop offset="0.639" style="stop-color:#CFAD04"></stop>
            <stop offset="1" style="stop-color:#A07802"></stop>
        </linearGradient>
        <path class="st5" d="M30,973.4c-0.1,0-0.2,0-0.3,0.1L13,981.1c-0.5,0.2-0.7,1-0.3,1.5l5.2,6.1l-5.2,6c-0.3,0.4-0.2,1.2,0.3,1.5
		l5.2,2.4v10.1c0,0.4,0.2,0.7,0.6,0.9l17.1,7.6c0.2,0.1,0.5,0.1,0.8,0l17.2-7.6c0.3-0.1,0.6-0.5,0.6-0.9v-10.1l5.2-2.4
		c0.5-0.2,0.7-1,0.3-1.5l-5.2-6l5.2-6.1c0.4-0.4,0.2-1.2-0.3-1.5l-16.7-7.6c-0.1-0.1-0.3-0.1-0.5-0.1c-0.2,0-0.5,0.1-0.6,0.3
		l-5.5,5.9l-5.5-5.9C30.6,973.5,30.3,973.3,30,973.4L30,973.4z M29.8,975.5l4.8,5.2l-15.3,6.8l-4.4-5.2L29.8,975.5z M42.7,975.5
		l14.9,6.8l-4.4,5.2l-15.3-6.8L42.7,975.5z M36.3,982l14.8,6.6l-14.8,6.6l-14.8-6.6L36.3,982z M19.4,989.8l15.3,6.8l-4.8,5.2
		l-14.9-6.8L19.4,989.8z M53.2,989.8l4.4,5.2l-14.9,6.8l-4.8-5.2L53.2,989.8z M35.3,998.7v16.1l-15.3-6.8v-8.6l9.6,4.4
		c0.4,0.2,0.8,0.1,1.1-0.2L35.3,998.7z M37.2,998.7l4.5,4.9c0.3,0.3,0.7,0.4,1.1,0.2l9.6-4.4v8.6l-15.3,6.8V998.7z"></path>
    </g>
    <g class="st0">
        <linearGradient id="SVGID_4_" gradientUnits="userSpaceOnUse" x1="45.3438" y1="74.2299" x2="58.8438" y2="87.7299" gradientTransform="matrix(1 0 0 -1 0 102)">
            <stop offset="5.000000e-03" style="stop-color:#FFFFFF"></stop>
            <stop offset="0.234" style="stop-color:#FFFEFB"></stop>
            <stop offset="0.369" style="stop-color:#FEFAF1"></stop>
            <stop offset="0.481" style="stop-color:#FDF5E4"></stop>
            <stop offset="0.579" style="stop-color:#FCF0D2"></stop>
            <stop offset="0.669" style="stop-color:#FAE9BC"></stop>
            <stop offset="0.752" style="stop-color:#F9E2A2"></stop>
            <stop offset="0.831" style="stop-color:#F7DA83"></stop>
            <stop offset="0.905" style="stop-color:#F4D15D"></stop>
            <stop offset="0.975" style="stop-color:#F1C827"></stop>
            <stop offset="1" style="stop-color:#EFC402"></stop>
        </linearGradient>
        <path class="st6" d="M45.2,1l27,26.7h-27V1z"></path>
        <path class="st7" d="M45.2,1l27,26.7h-27V1z"></path>
    </g>
</svg>