<?xml version="1.0" encoding="utf-8"?>
<svg version="1.1" id="Layer_1" xmlns="http://www.w3.org/2000/svg" xmlns:xlink="http://www.w3.org/1999/xlink" x="0px" y="0px" viewBox="0 0 72 100" style="enable-background:new 0 0 72 100;" xml:space="preserve">
    <style type="text/css">
	.st0{fill:url(#SVGID_1_);}
	.st1{fill-opacity:0;stroke:#7191A1;stroke-width:2;}
	.st2{enable-background:new    ;}
	.st3{fill:#4C6C7B;}
	.st4{fill:url(#SVGID_2_);}
	.st5{fill:url(#SVGID_3_);}
	.st6{fill-opacity:0;stroke:#7191A1;stroke-width:2;stroke-linejoin:bevel;}
	.st7{fill:url(#SVGID_4_);}
	.st8{fill:url(#SVGID_5_);}
	.st9{fill:url(#SVGID_6_);}
	.st10{fill:url(#SVGID_7_);}
	.st11{fill:url(#SVGID_8_);}
	.st12{fill:url(#SVGID_9_);}
	.st13{fill:url(#SVGID_10_);}
	.st14{fill:url(#SVGID_11_);}
	.st15{fill:url(#SVGID_12_);}
	.st16{fill:url(#SVGID_13_);}
	.st17{fill:url(#SVGID_14_);}
	.st18{fill:url(#SVGID_15_);}
	.st19{fill:url(#SVGID_16_);}
	.st20{fill:url(#SVGID_17_);}
	.st21{fill:url(#SVGID_18_);}
	.st22{fill:url(#SVGID_19_);}
	.st23{fill:url(#SVGID_20_);}
	.st24{fill:url(#SVGID_21_);}
</style>
    <linearGradient id="SVGID_1_" gradientUnits="userSpaceOnUse" x1="36.2" y1="3.0143" x2="36.2" y2="101.0005" gradientTransform="matrix(1 0 0 -1 0 102)">
        <stop offset="0" style="stop-color:#C8D4DB"></stop>
        <stop offset="0.139" style="stop-color:#D8E1E6"></stop>
        <stop offset="0.359" style="stop-color:#EBF0F3"></stop>
        <stop offset="0.617" style="stop-color:#F9FAFB"></stop>
        <stop offset="1" style="stop-color:#FFFFFF"></stop>
    </linearGradient>
    <path class="st0" d="M45.2,1l27.1,26.7V99H0.1V1H45.2z"></path>
    <path class="st1" d="M45.2,1l27.1,26.7V99H0.1V1H45.2z"></path>
    <g class="st2">
        <path class="st3" d="M17,90.1V70.2h6.5c2.5,0,4.1,0.1,4.8,0.3c1.2,0.3,2.1,0.9,2.9,1.9c0.8,1,1.2,2.3,1.2,3.9
		c0,1.2-0.2,2.2-0.7,3.1c-0.4,0.8-1,1.5-1.7,2c-0.7,0.5-1.4,0.8-2.1,0.9c-1,0.2-2.4,0.3-4.2,0.3H21v7.5H17z M21,73.6v5.6h2.2
		c1.6,0,2.7-0.1,3.2-0.3c0.5-0.2,1-0.5,1.3-1c0.3-0.4,0.5-1,0.5-1.5c0-0.7-0.2-1.3-0.6-1.8c-0.4-0.5-1-0.8-1.6-0.9
		c-0.5-0.1-1.5-0.1-2.9-0.1H21z"></path>
        <path class="st3" d="M35.7,90.1V70.2h6.1l3.7,13.5L49,70.2h6.1v19.8h-3.8V74.5l-4,15.6h-3.9l-4-15.6v15.6H35.7z"></path>
    </g>
    <linearGradient id="SVGID_2_" gradientUnits="userSpaceOnUse" x1="31.7471" y1="69.9349" x2="31.7471" y2="69.9864" gradientTransform="matrix(1 0 0 -1 0 102)">
        <stop offset="0" style="stop-color:#ADCCDC"></stop>
        <stop offset="1" style="stop-color:#4C6C7B"></stop>
    </linearGradient>
    <path class="st4" d="M31.8,32C31.7,32.1,31.7,32.1,31.8,32"></path>
    <linearGradient id="SVGID_3_" gradientUnits="userSpaceOnUse" x1="45.3238" y1="74.1844" x2="58.8707" y2="87.7313" gradientTransform="matrix(1 0 0 -1 0 102)">
        <stop offset="0" style="stop-color:#FFFFFF"></stop>
        <stop offset="0.35" style="stop-color:#FAFBFB"></stop>
        <stop offset="0.532" style="stop-color:#EDF1F4"></stop>
        <stop offset="0.675" style="stop-color:#DDE5E9"></stop>
        <stop offset="0.799" style="stop-color:#C7D3DA"></stop>
        <stop offset="0.908" style="stop-color:#ADBDC7"></stop>
        <stop offset="1" style="stop-color:#92A5B0"></stop>
    </linearGradient>
    <path class="st5" d="M45.2,1l27.1,26.7H45.2V1z"></path>
    <path class="st6" d="M45.2,1l27.1,26.7H45.2V1z"></path>
    <g>
        <linearGradient id="SVGID_4_" gradientUnits="userSpaceOnUse" x1="43.6783" y1="61.7236" x2="43.6783" y2="23.7706">
            <stop offset="0" style="stop-color:#ADCCDC"></stop>
            <stop offset="2.421850e-02" style="stop-color:#A9C8D8"></stop>
            <stop offset="0.3225" style="stop-color:#81A1B0"></stop>
            <stop offset="0.5947" style="stop-color:#648493"></stop>
            <stop offset="0.8295" style="stop-color:#527281"></stop>
            <stop offset="1" style="stop-color:#4C6C7B"></stop>
        </linearGradient>
        <path class="st7" d="M53.5,45c-0.8-5.3-6.4-8.8-10.6-11.4c-1.8-1.1-4.8-2.6-5.1-5c-0.2-1-0.2-2-0.2-3c0-0.4,0-0.8-0.1-1.2
		c0-0.5-0.6,0.1-0.8-0.3c-0.7-1.1-0.4,0.3-0.4,0.9c0.2,1.3,0.3,2.7,0.3,4c0,2.6-0.4,5.1-1.1,7.6c-1.5,5.8-2.7,11.8-1.2,17.8
		c0.3,1.2,0.7,2.5,1.2,3.6c0.2,0.4,0.5,1.3,0.9,1.5c1.6,0.4,2.8,0.5,4.1,1.7c0.8,0.7,1.4,0.3,2.3,0c2.8-1.1,5.3-2.6,7.3-4.9
		C53,53.1,54.2,49.3,53.5,45 M50.5,50.4c-0.3,2.2-1.6,4.1-3,5.8c-1,1.2-2.4,2.7-3.9,3.2c-0.5,0.2,0.1-0.9,0.2-1c0.5-0.7,1-1.3,1.6-2
		c0.8-1,1.5-2,1.9-3.1c1.5-3.9,1.2-8.5-1.1-12c-1.2-1.9-2.9-3.5-4.6-4.9c-0.8-0.7-1.7-1.4-2.4-2.2c-0.2-0.2-1.6-2.1-1.1-2.3
		c0.1-0.1,3.2,3.2,3.6,3.4c1.3,1,2.6,1.9,3.8,3c1.6,1.5,3.3,3.1,4.2,5.1C50.6,45.5,50.8,48,50.5,50.4"></path>
        <linearGradient id="SVGID_5_" gradientUnits="userSpaceOnUse" x1="31.0192" y1="60.1602" x2="31.0192" y2="18.8211">
            <stop offset="0" style="stop-color:#ADCCDC"></stop>
            <stop offset="2.421850e-02" style="stop-color:#A9C8D8"></stop>
            <stop offset="0.3225" style="stop-color:#81A1B0"></stop>
            <stop offset="0.5947" style="stop-color:#648493"></stop>
            <stop offset="0.8295" style="stop-color:#527281"></stop>
            <stop offset="1" style="stop-color:#4C6C7B"></stop>
        </linearGradient>
        <path class="st8" d="M35.1,18.8c0.5,0.3,0.6,2.1,0.6,3.8c0,1.7,0.2,8.8-0.4,10.7c-0.5,1.9-1.7,4-3,5.9c-1.3,1.9-2.8,5.8-2.7,8.2
		c0.1,2.4,1.4,6.4,2.5,8.1c1.1,1.7,2.9,4,2.5,4.5c-0.7,0.9-3.7-2.3-5.2-4.1c-1.6-1.9-3.1-5.6-3.2-8.6c-0.1-2.9,1.6-5.7,2.8-7.3
		c1.2-1.7,3.5-4.5,4.1-5.8c0.6-1.3,1.3-2.7,1.5-4.5c0.2-1.8,0-8.3,0-8.3S34.7,18.5,35.1,18.8"></path>
        <linearGradient id="SVGID_6_" gradientUnits="userSpaceOnUse" x1="26.379" y1="61.5419" x2="26.379" y2="21.8678">
            <stop offset="0" style="stop-color:#ADCCDC"></stop>
            <stop offset="2.421850e-02" style="stop-color:#A9C8D8"></stop>
            <stop offset="0.3225" style="stop-color:#81A1B0"></stop>
            <stop offset="0.5947" style="stop-color:#648493"></stop>
            <stop offset="0.8295" style="stop-color:#527281"></stop>
            <stop offset="1" style="stop-color:#4C6C7B"></stop>
        </linearGradient>
        <path class="st9" d="M33.9,21.9c0.5,0.2,0.5,0.8,0.5,1.3c0,0.6-0.2,2.9-0.3,5.2c-0.2,2.3-2,4.2-3.3,5.5c-1.3,1.3-5.2,5.5-6.7,7.6
		c-1.4,2.1-2.2,4.8-2,7.1c0.2,2.3,0.7,4.6,2.9,7c2.2,2.4,3.7,3.6,4.8,4.1c1.1,0.6,2.3,1,2,1.5c-0.3,0.5-1.3,0.2-2.5-0.3
		c-1.2-0.4-5.2-2.1-7.5-4.7c-2.3-2.6-3.5-6.2-3.4-9.5c0.1-3.4,1-4.8,2.6-6.9c1.6-2.2,5.8-5.4,7.2-6.2c1.3-0.8,3.2-2.2,4-3.4
		c0.9-1.1,1.3-2.1,1.3-3.6c-0.1-1.6,0.1-2.9,0.1-3.5C33.4,22.7,33.4,21.7,33.9,21.9"></path>
        <linearGradient id="SVGID_7_" gradientUnits="userSpaceOnUse" x1="33.3894" y1="64.3699" x2="33.3894" y2="62.4164">
            <stop offset="0" style="stop-color:#ADCCDC"></stop>
            <stop offset="2.421850e-02" style="stop-color:#A9C8D8"></stop>
            <stop offset="0.3225" style="stop-color:#81A1B0"></stop>
            <stop offset="0.5947" style="stop-color:#648493"></stop>
            <stop offset="0.8295" style="stop-color:#527281"></stop>
            <stop offset="1" style="stop-color:#4C6C7B"></stop>
        </linearGradient>
        <path class="st10" d="M34,62.4c0.2,0,0.1,0.9-0.3,1.4c-0.4,0.5-1,0.7-1.1,0.5c-0.1-0.2,0.5-0.3,0.9-0.7
		C33.9,63.2,33.8,62.4,34,62.4"></path>
        <linearGradient id="SVGID_8_" gradientUnits="userSpaceOnUse" x1="38.861" y1="64.3458" x2="38.861" y2="62.3925">
            <stop offset="0" style="stop-color:#ADCCDC"></stop>
            <stop offset="2.421850e-02" style="stop-color:#A9C8D8"></stop>
            <stop offset="0.3225" style="stop-color:#81A1B0"></stop>
            <stop offset="0.5947" style="stop-color:#648493"></stop>
            <stop offset="0.8295" style="stop-color:#527281"></stop>
            <stop offset="1" style="stop-color:#4C6C7B"></stop>
        </linearGradient>
        <path class="st11" d="M38.2,62.4c-0.2,0-0.1,0.9,0.3,1.4c0.4,0.5,1,0.7,1.1,0.5c0.1-0.2-0.5-0.3-0.9-0.7
		C38.4,63.2,38.5,62.4,38.2,62.4"></path>
        <linearGradient id="SVGID_9_" gradientUnits="userSpaceOnUse" x1="36.2207" y1="64.8211" x2="36.2207" y2="61.9402">
            <stop offset="0" style="stop-color:#ADCCDC"></stop>
            <stop offset="2.421850e-02" style="stop-color:#A9C8D8"></stop>
            <stop offset="0.3225" style="stop-color:#81A1B0"></stop>
            <stop offset="0.5947" style="stop-color:#648493"></stop>
            <stop offset="0.8295" style="stop-color:#527281"></stop>
            <stop offset="1" style="stop-color:#4C6C7B"></stop>
        </linearGradient>
        <path class="st12" d="M36.4,63.4c0,0.8,0,1.4-0.1,1.4c-0.2,0-0.1-0.6-0.1-1.4c0-0.8-0.1-1.4,0.1-1.4C36.4,61.9,36.4,62.6,36.4,63.4
		"></path>
        <linearGradient id="SVGID_10_" gradientUnits="userSpaceOnUse" x1="43.6783" y1="61.7236" x2="43.6783" y2="23.7706">
            <stop offset="0" style="stop-color:#ADCCDC"></stop>
            <stop offset="2.421850e-02" style="stop-color:#A9C8D8"></stop>
            <stop offset="0.3225" style="stop-color:#81A1B0"></stop>
            <stop offset="0.5947" style="stop-color:#648493"></stop>
            <stop offset="0.8295" style="stop-color:#527281"></stop>
            <stop offset="1" style="stop-color:#4C6C7B"></stop>
        </linearGradient>
        <path class="st13" d="M53.5,45c-0.8-5.3-6.4-8.8-10.6-11.4c-1.8-1.1-4.8-2.6-5.1-5c-0.2-1-0.2-2-0.2-3c0-0.4,0-0.8-0.1-1.2
		c0-0.5-0.6,0.1-0.8-0.3c-0.7-1.1-0.4,0.3-0.4,0.9c0.2,1.3,0.3,2.7,0.3,4c0,2.6-0.4,5.1-1.1,7.6c-1.5,5.8-2.7,11.8-1.2,17.8
		c0.3,1.2,0.7,2.5,1.2,3.6c0.2,0.4,0.5,1.3,0.9,1.5c1.6,0.4,2.8,0.5,4.1,1.7c0.8,0.7,1.4,0.3,2.3,0c2.8-1.1,5.3-2.6,7.3-4.9
		C53,53.1,54.2,49.3,53.5,45 M50.5,50.4c-0.3,2.2-1.6,4.1-3,5.8c-1,1.2-2.4,2.7-3.9,3.2c-0.5,0.2,0.1-0.9,0.2-1c0.5-0.7,1-1.3,1.6-2
		c0.8-1,1.5-2,1.9-3.1c1.5-3.9,1.2-8.5-1.1-12c-1.2-1.9-2.9-3.5-4.6-4.9c-0.8-0.7-1.7-1.4-2.4-2.2c-0.2-0.2-1.6-2.1-1.1-2.3
		c0.1-0.1,3.2,3.2,3.6,3.4c1.3,1,2.6,1.9,3.8,3c1.6,1.5,3.3,3.1,4.2,5.1C50.6,45.5,50.8,48,50.5,50.4"></path>
        <linearGradient id="SVGID_11_" gradientUnits="userSpaceOnUse" x1="31.0192" y1="60.1602" x2="31.0192" y2="18.8211">
            <stop offset="0" style="stop-color:#ADCCDC"></stop>
            <stop offset="2.421850e-02" style="stop-color:#A9C8D8"></stop>
            <stop offset="0.3225" style="stop-color:#81A1B0"></stop>
            <stop offset="0.5947" style="stop-color:#648493"></stop>
            <stop offset="0.8295" style="stop-color:#527281"></stop>
            <stop offset="1" style="stop-color:#4C6C7B"></stop>
        </linearGradient>
        <path class="st14" d="M35.1,18.8c0.5,0.3,0.6,2.1,0.6,3.8c0,1.7,0.2,8.8-0.4,10.7c-0.5,1.9-1.7,4-3,5.9c-1.3,1.9-2.8,5.8-2.7,8.2
		c0.1,2.4,1.4,6.4,2.5,8.1c1.1,1.7,2.9,4,2.5,4.5c-0.7,0.9-3.7-2.3-5.2-4.1c-1.6-1.9-3.1-5.6-3.2-8.6c-0.1-2.9,1.6-5.7,2.8-7.3
		c1.2-1.7,3.5-4.5,4.1-5.8c0.6-1.3,1.3-2.7,1.5-4.5c0.2-1.8,0-8.3,0-8.3S34.7,18.5,35.1,18.8"></path>
        <linearGradient id="SVGID_12_" gradientUnits="userSpaceOnUse" x1="26.379" y1="61.5419" x2="26.379" y2="21.8678">
            <stop offset="0" style="stop-color:#ADCCDC"></stop>
            <stop offset="2.421850e-02" style="stop-color:#A9C8D8"></stop>
            <stop offset="0.3225" style="stop-color:#81A1B0"></stop>
            <stop offset="0.5947" style="stop-color:#648493"></stop>
            <stop offset="0.8295" style="stop-color:#527281"></stop>
            <stop offset="1" style="stop-color:#4C6C7B"></stop>
        </linearGradient>
        <path class="st15" d="M33.9,21.9c0.5,0.2,0.5,0.8,0.5,1.3c0,0.6-0.2,2.9-0.3,5.2c-0.2,2.3-2,4.2-3.3,5.5c-1.3,1.3-5.2,5.5-6.7,7.6
		c-1.4,2.1-2.2,4.8-2,7.1c0.2,2.3,0.7,4.6,2.9,7c2.2,2.4,3.7,3.6,4.8,4.1c1.1,0.6,2.3,1,2,1.5c-0.3,0.5-1.3,0.2-2.5-0.3
		c-1.2-0.4-5.2-2.1-7.5-4.7c-2.3-2.6-3.5-6.2-3.4-9.5c0.1-3.4,1-4.8,2.6-6.9c1.6-2.2,5.8-5.4,7.2-6.2c1.3-0.8,3.2-2.2,4-3.4
		c0.9-1.1,1.3-2.1,1.3-3.6c-0.1-1.6,0.1-2.9,0.1-3.5C33.4,22.7,33.4,21.7,33.9,21.9"></path>
        <linearGradient id="SVGID_13_" gradientUnits="userSpaceOnUse" x1="33.3894" y1="64.3699" x2="33.3894" y2="62.4164">
            <stop offset="0" style="stop-color:#ADCCDC"></stop>
            <stop offset="2.421850e-02" style="stop-color:#A9C8D8"></stop>
            <stop offset="0.3225" style="stop-color:#81A1B0"></stop>
            <stop offset="0.5947" style="stop-color:#648493"></stop>
            <stop offset="0.8295" style="stop-color:#527281"></stop>
            <stop offset="1" style="stop-color:#4C6C7B"></stop>
        </linearGradient>
        <path class="st16" d="M34,62.4c0.2,0,0.1,0.9-0.3,1.4c-0.4,0.5-1,0.7-1.1,0.5c-0.1-0.2,0.5-0.3,0.9-0.7
		C33.9,63.2,33.8,62.4,34,62.4"></path>
        <linearGradient id="SVGID_14_" gradientUnits="userSpaceOnUse" x1="38.861" y1="64.3458" x2="38.861" y2="62.3925">
            <stop offset="0" style="stop-color:#ADCCDC"></stop>
            <stop offset="2.421850e-02" style="stop-color:#A9C8D8"></stop>
            <stop offset="0.3225" style="stop-color:#81A1B0"></stop>
            <stop offset="0.5947" style="stop-color:#648493"></stop>
            <stop offset="0.8295" style="stop-color:#527281"></stop>
            <stop offset="1" style="stop-color:#4C6C7B"></stop>
        </linearGradient>
        <path class="st17" d="M38.2,62.4c-0.2,0-0.1,0.9,0.3,1.4c0.4,0.5,1,0.7,1.1,0.5c0.1-0.2-0.5-0.3-0.9-0.7
		C38.4,63.2,38.5,62.4,38.2,62.4"></path>
        <linearGradient id="SVGID_15_" gradientUnits="userSpaceOnUse" x1="36.2207" y1="64.8211" x2="36.2207" y2="61.9402">
            <stop offset="0" style="stop-color:#ADCCDC"></stop>
            <stop offset="2.421850e-02" style="stop-color:#A9C8D8"></stop>
            <stop offset="0.3225" style="stop-color:#81A1B0"></stop>
            <stop offset="0.5947" style="stop-color:#648493"></stop>
            <stop offset="0.8295" style="stop-color:#527281"></stop>
            <stop offset="1" style="stop-color:#4C6C7B"></stop>
        </linearGradient>
        <path class="st18" d="M36.4,63.4c0,0.8,0,1.4-0.1,1.4c-0.2,0-0.1-0.6-0.1-1.4c0-0.8-0.1-1.4,0.1-1.4C36.4,61.9,36.4,62.6,36.4,63.4
		"></path>
        <linearGradient id="SVGID_16_" gradientUnits="userSpaceOnUse" x1="43.6783" y1="61.7236" x2="43.6783" y2="23.7706">
            <stop offset="0" style="stop-color:#ADCCDC"></stop>
            <stop offset="2.421850e-02" style="stop-color:#A9C8D8"></stop>
            <stop offset="0.3225" style="stop-color:#81A1B0"></stop>
            <stop offset="0.5947" style="stop-color:#648493"></stop>
            <stop offset="0.8295" style="stop-color:#527281"></stop>
            <stop offset="1" style="stop-color:#4C6C7B"></stop>
        </linearGradient>
        <path class="st19" d="M53.5,45c-0.8-5.3-6.4-8.8-10.6-11.4c-1.8-1.1-4.8-2.6-5.1-5c-0.2-1-0.2-2-0.2-3c0-0.4,0-0.8-0.1-1.2
		c0-0.5-0.6,0.1-0.8-0.3c-0.7-1.1-0.4,0.3-0.4,0.9c0.2,1.3,0.3,2.7,0.3,4c0,2.6-0.4,5.1-1.1,7.6c-1.5,5.8-2.7,11.8-1.2,17.8
		c0.3,1.2,0.7,2.5,1.2,3.6c0.2,0.4,0.5,1.3,0.9,1.5c1.6,0.4,2.8,0.5,4.1,1.7c0.8,0.7,1.4,0.3,2.3,0c2.8-1.1,5.3-2.6,7.3-4.9
		C53,53.1,54.2,49.3,53.5,45 M50.5,50.4c-0.3,2.2-1.6,4.1-3,5.8c-1,1.2-2.4,2.7-3.9,3.2c-0.5,0.2,0.1-0.9,0.2-1c0.5-0.7,1-1.3,1.6-2
		c0.8-1,1.5-2,1.9-3.1c1.5-3.9,1.2-8.5-1.1-12c-1.2-1.9-2.9-3.5-4.6-4.9c-0.8-0.7-1.7-1.4-2.4-2.2c-0.2-0.2-1.6-2.1-1.1-2.3
		c0.1-0.1,3.2,3.2,3.6,3.4c1.3,1,2.6,1.9,3.8,3c1.6,1.5,3.3,3.1,4.2,5.1C50.6,45.5,50.8,48,50.5,50.4"></path>
        <linearGradient id="SVGID_17_" gradientUnits="userSpaceOnUse" x1="31.0192" y1="60.1602" x2="31.0192" y2="18.8211">
            <stop offset="0" style="stop-color:#ADCCDC"></stop>
            <stop offset="2.421850e-02" style="stop-color:#A9C8D8"></stop>
            <stop offset="0.3225" style="stop-color:#81A1B0"></stop>
            <stop offset="0.5947" style="stop-color:#648493"></stop>
            <stop offset="0.8295" style="stop-color:#527281"></stop>
            <stop offset="1" style="stop-color:#4C6C7B"></stop>
        </linearGradient>
        <path class="st20" d="M35.1,18.8c0.5,0.3,0.6,2.1,0.6,3.8c0,1.7,0.2,8.8-0.4,10.7c-0.5,1.9-1.7,4-3,5.9c-1.3,1.9-2.8,5.8-2.7,8.2
		c0.1,2.4,1.4,6.4,2.5,8.1c1.1,1.7,2.9,4,2.5,4.5c-0.7,0.9-3.7-2.3-5.2-4.1c-1.6-1.9-3.1-5.6-3.2-8.6c-0.1-2.9,1.6-5.7,2.8-7.3
		c1.2-1.7,3.5-4.5,4.1-5.8c0.6-1.3,1.3-2.7,1.5-4.5c0.2-1.8,0-8.3,0-8.3S34.7,18.5,35.1,18.8"></path>
        <linearGradient id="SVGID_18_" gradientUnits="userSpaceOnUse" x1="26.379" y1="61.5419" x2="26.379" y2="21.8678">
            <stop offset="0" style="stop-color:#ADCCDC"></stop>
            <stop offset="2.421850e-02" style="stop-color:#A9C8D8"></stop>
            <stop offset="0.3225" style="stop-color:#81A1B0"></stop>
            <stop offset="0.5947" style="stop-color:#648493"></stop>
            <stop offset="0.8295" style="stop-color:#527281"></stop>
            <stop offset="1" style="stop-color:#4C6C7B"></stop>
        </linearGradient>
        <path class="st21" d="M33.9,21.9c0.5,0.2,0.5,0.8,0.5,1.3c0,0.6-0.2,2.9-0.3,5.2c-0.2,2.3-2,4.2-3.3,5.5c-1.3,1.3-5.2,5.5-6.7,7.6
		c-1.4,2.1-2.2,4.8-2,7.1c0.2,2.3,0.7,4.6,2.9,7c2.2,2.4,3.7,3.6,4.8,4.1c1.1,0.6,2.3,1,2,1.5c-0.3,0.5-1.3,0.2-2.5-0.3
		c-1.2-0.4-5.2-2.1-7.5-4.7c-2.3-2.6-3.5-6.2-3.4-9.5c0.1-3.4,1-4.8,2.6-6.9c1.6-2.2,5.8-5.4,7.2-6.2c1.3-0.8,3.2-2.2,4-3.4
		c0.9-1.1,1.3-2.1,1.3-3.6c-0.1-1.6,0.1-2.9,0.1-3.5C33.4,22.7,33.4,21.7,33.9,21.9"></path>
        <linearGradient id="SVGID_19_" gradientUnits="userSpaceOnUse" x1="33.3894" y1="64.3699" x2="33.3894" y2="62.4164">
            <stop offset="0" style="stop-color:#ADCCDC"></stop>
            <stop offset="2.421850e-02" style="stop-color:#A9C8D8"></stop>
            <stop offset="0.3225" style="stop-color:#81A1B0"></stop>
            <stop offset="0.5947" style="stop-color:#648493"></stop>
            <stop offset="0.8295" style="stop-color:#527281"></stop>
            <stop offset="1" style="stop-color:#4C6C7B"></stop>
        </linearGradient>
        <path class="st22" d="M34,62.4c0.2,0,0.1,0.9-0.3,1.4c-0.4,0.5-1,0.7-1.1,0.5c-0.1-0.2,0.5-0.3,0.9-0.7
		C33.9,63.2,33.8,62.4,34,62.4"></path>
        <linearGradient id="SVGID_20_" gradientUnits="userSpaceOnUse" x1="38.861" y1="64.3458" x2="38.861" y2="62.3925">
            <stop offset="0" style="stop-color:#ADCCDC"></stop>
            <stop offset="2.421850e-02" style="stop-color:#A9C8D8"></stop>
            <stop offset="0.3225" style="stop-color:#81A1B0"></stop>
            <stop offset="0.5947" style="stop-color:#648493"></stop>
            <stop offset="0.8295" style="stop-color:#527281"></stop>
            <stop offset="1" style="stop-color:#4C6C7B"></stop>
        </linearGradient>
        <path class="st23" d="M38.2,62.4c-0.2,0-0.1,0.9,0.3,1.4c0.4,0.5,1,0.7,1.1,0.5c0.1-0.2-0.5-0.3-0.9-0.7
		C38.4,63.2,38.5,62.4,38.2,62.4"></path>
        <linearGradient id="SVGID_21_" gradientUnits="userSpaceOnUse" x1="36.2207" y1="64.8211" x2="36.2207" y2="61.9402">
            <stop offset="0" style="stop-color:#ADCCDC"></stop>
            <stop offset="2.421850e-02" style="stop-color:#A9C8D8"></stop>
            <stop offset="0.3225" style="stop-color:#81A1B0"></stop>
            <stop offset="0.5947" style="stop-color:#648493"></stop>
            <stop offset="0.8295" style="stop-color:#527281"></stop>
            <stop offset="1" style="stop-color:#4C6C7B"></stop>
        </linearGradient>
        <path class="st24" d="M36.4,63.4c0,0.8,0,1.4-0.1,1.4c-0.2,0-0.1-0.6-0.1-1.4c0-0.8-0.1-1.4,0.1-1.4C36.4,61.9,36.4,62.6,36.4,63.4
		"></path>
    </g>
</svg>