<?xml version="1.0" encoding="utf-8"?>
<svg version="1.1" id="Layer_1" xmlns="http://www.w3.org/2000/svg" xmlns:xlink="http://www.w3.org/1999/xlink" x="0px" y="0px" viewBox="0 0 72 100" style="enable-background:new 0 0 72 100;" xml:space="preserve">
    <style type="text/css">
	.st0{fill:url(#SVGID_1_);}
	.st1{fill-opacity:0;stroke:#7191A1;stroke-width:2;}
	.st2{enable-background:new    ;}
	.st3{fill:#4C6C7B;}
	.st4{fill:none;stroke:url(#SVGID_2_);stroke-width:5;stroke-miterlimit:10;}
	.st5{fill:url(#SVGID_3_);}
	.st6{fill:url(#SVGID_4_);}
	.st7{fill:url(#SVGID_5_);}
	.st8{fill-opacity:0;stroke:#7191A1;stroke-width:2;stroke-linejoin:bevel;}
</style>
    <g>
        <linearGradient id="SVGID_1_" gradientUnits="userSpaceOnUse" x1="36.1" y1="97" x2="36.1" y2="-1" gradientTransform="matrix(1 0 0 1 0 2)">
            <stop offset="0" style="stop-color:#C8D4DB"></stop>
            <stop offset="0.139" style="stop-color:#D8E1E6"></stop>
            <stop offset="0.359" style="stop-color:#EBF0F3"></stop>
            <stop offset="0.617" style="stop-color:#F9FAFB"></stop>
            <stop offset="1" style="stop-color:#FFFFFF"></stop>
        </linearGradient>
        <path class="st0" d="M45.1,1L72,27.7V99H0.2V1H45.1z"></path>
        <path class="st1" d="M45.1,1L72,27.7V99H0.2V1H45.1z"></path>
    </g>
    <g class="st2">
        <path class="st3" d="M13.1,91.1V71.2h6.5c2.5,0,4.1,0.1,4.8,0.3c1.1,0.3,2.1,0.9,2.9,1.9s1.2,2.3,1.2,3.9c0,1.2-0.2,2.2-0.7,3.1
		c-0.4,0.8-1,1.5-1.7,2s-1.4,0.8-2.1,0.9c-1,0.2-2.4,0.3-4.2,0.3h-2.6v7.5C17.2,91.1,13.1,91.1,13.1,91.1z M17.1,74.6v5.6h2.2
		c1.6,0,2.7-0.1,3.2-0.3c0.5-0.2,1-0.5,1.3-1c0.3-0.4,0.5-1,0.5-1.5c0-0.7-0.2-1.3-0.6-1.8s-1-0.8-1.6-0.9c-0.5-0.1-1.4-0.1-2.9-0.1
		C19.2,74.6,17.1,74.6,17.1,74.6z"></path>
        <path class="st3" d="M30.7,84.6l3.9-0.4c0.2,1.3,0.7,2.3,1.4,2.9s1.7,0.9,2.9,0.9c1.3,0,2.3-0.3,2.9-0.8c0.7-0.5,1-1.2,1-1.9
		c0-0.5-0.1-0.9-0.4-1.2c-0.3-0.3-0.8-0.6-1.5-0.9c-0.5-0.2-1.5-0.5-3.2-0.9c-2.2-0.5-3.7-1.2-4.6-2c-1.2-1.1-1.8-2.4-1.8-4
		c0-1,0.3-2,0.9-2.8c0.6-0.9,1.4-1.5,2.5-2s2.4-0.7,3.9-0.7c2.5,0,4.4,0.5,5.7,1.6s1.9,2.5,2,4.4l-4,0.2c-0.2-1-0.5-1.8-1.1-2.2
		c-0.6-0.4-1.4-0.7-2.6-0.7c-1.2,0-2.1,0.2-2.8,0.7c-0.4,0.3-0.6,0.7-0.6,1.2s0.2,0.9,0.6,1.2c0.5,0.4,1.7,0.9,3.7,1.3
		c2,0.5,3.4,0.9,4.4,1.4c0.9,0.5,1.7,1.2,2.2,2s0.8,1.9,0.8,3.2c0,1.1-0.3,2.2-1,3.2c-0.6,1-1.5,1.7-2.7,2.2s-2.6,0.7-4.3,0.7
		c-2.5,0-4.5-0.6-5.8-1.7C31.8,88.5,31,86.8,30.7,84.6z"></path>
        <path class="st3" d="M59.3,91.1h-3.8V76.7c-1.4,1.3-3,2.3-4.9,2.9v-3.5c1-0.3,2.1-0.9,3.3-1.8s2-2,2.4-3.2h3.1L59.3,91.1L59.3,91.1
		z"></path>
    </g>
    <g>
        <linearGradient id="SVGID_2_" gradientUnits="userSpaceOnUse" x1="10.2114" y1="59.05" x2="63.2114" y2="59.05" gradientTransform="matrix(1 0 0 -1 0 100)">
            <stop offset="0" style="stop-color:#ADCCDC"></stop>
            <stop offset="1" style="stop-color:#4C6C7B"></stop>
        </linearGradient>
        <path class="st4" d="M40.9,23.1c5.4,0,10.7,0,16.1,0c3.3,0,4.1,1.1,3.5,4.2c-2,9.1-4.1,18.4-6.2,27.5c-0.7,2.9-2.1,4.1-5.3,4.1
		c-10.7,0-21.5,0-32.3,0c-3.5,0-4.5-1.2-3.6-4.5c2.1-9,4.1-17.9,6.2-27.1c0.8-3.5,2-4.4,5.5-4.4C30.2,23.1,35.5,23.1,40.9,23.1z"></path>
        <linearGradient id="SVGID_3_" gradientUnits="userSpaceOnUse" x1="22.314" y1="59.0533" x2="39.8974" y2="59.0533" gradientTransform="matrix(1 0 0 -1 0 100)">
            <stop offset="0" style="stop-color:#ADCCDC"></stop>
            <stop offset="1" style="stop-color:#4C6C7B"></stop>
        </linearGradient>
        <path class="st5" d="M34.9,40.9c-0.6-0.6-0.9-1.1-1.2-1.4c-2.1-2.2-3.8-4.4-5.9-6.5c-0.9-1-1.2-2-0.1-3c1.1-1,2.1-0.9,3.2,0.3
		c2.8,3.2,5.6,6.2,8.4,9.2c1.1,1.2,0.8,1.9-0.4,2.8c-4.5,3.3-8.9,6.5-13.3,9.8c-1,0.7-2,0.9-2.8-0.2c-0.9-1.2-0.1-1.9,0.9-2.6
		c3.4-2.4,6.5-4.9,9.9-7.3C33.9,41.7,34.6,41.2,34.9,40.9z"></path>
        <linearGradient id="SVGID_4_" gradientUnits="userSpaceOnUse" x1="36.72" y1="49.8855" x2="47.4916" y2="49.8855" gradientTransform="matrix(1 0 0 -1 0 100)">
            <stop offset="0" style="stop-color:#ADCCDC"></stop>
            <stop offset="1" style="stop-color:#4C6C7B"></stop>
        </linearGradient>
        <path class="st6" d="M38.1,51.8c-0.9,0-1.4-0.8-1.4-1.7c0-0.8,0.6-1.7,1.4-1.7c3.5,0,5.1,0,7.9,0c0.9,0,1.4,0.8,1.4,1.7
		c0,0.8-0.6,1.7-1.4,1.7C44.3,51.8,40.8,51.8,38.1,51.8z"></path>
    </g>
    <g>
        <linearGradient id="SVGID_5_" gradientUnits="userSpaceOnUse" x1="45.1255" y1="25.7745" x2="58.5755" y2="12.3245" gradientTransform="matrix(1 0 0 1 0 2)">
            <stop offset="0" style="stop-color:#FFFFFF"></stop>
            <stop offset="0.35" style="stop-color:#FAFBFB"></stop>
            <stop offset="0.532" style="stop-color:#EDF1F4"></stop>
            <stop offset="0.675" style="stop-color:#DDE5E9"></stop>
            <stop offset="0.799" style="stop-color:#C7D3DA"></stop>
            <stop offset="0.908" style="stop-color:#ADBDC7"></stop>
            <stop offset="1" style="stop-color:#92A5B0"></stop>
        </linearGradient>
        <path class="st7" d="M45.1,1L72,27.7H45.1V1z"></path>
        <path class="st8" d="M45.1,1L72,27.7H45.1V1z"></path>
    </g>
</svg>