<?xml version="1.0" encoding="utf-8"?>
<svg version="1.1" id="Layer_1" xmlns="http://www.w3.org/2000/svg" xmlns:xlink="http://www.w3.org/1999/xlink" x="0px" y="0px" viewBox="0 0 72 100" style="enable-background:new 0 0 72 100;" xml:space="preserve">
    <style type="text/css">
	.st0{fill:url(#SVGID_1_);}
	.st1{fill-opacity:0;stroke:#7191A1;stroke-width:2;}
	.st2{enable-background:new    ;}
	.st3{fill:#4C6C7B;}
	.st4{fill:none;stroke:url(#SVGID_2_);stroke-width:5;stroke-miterlimit:10;}
	.st5{fill:url(#SVGID_3_);}
	.st6{fill:url(#SVGID_4_);}
	.st7{fill:url(#SVGID_5_);}
	.st8{fill-opacity:0;stroke:#7191A1;stroke-width:2;stroke-linejoin:bevel;}
</style>
    <g>
        <linearGradient id="SVGID_1_" gradientUnits="userSpaceOnUse" x1="36.108" y1="3.0033" x2="36.108" y2="101.0009" gradientTransform="matrix(1 0 0 -1 0 102)">
            <stop offset="0" style="stop-color:#C8D4DB"></stop>
            <stop offset="0.139" style="stop-color:#D8E1E6"></stop>
            <stop offset="0.359" style="stop-color:#EBF0F3"></stop>
            <stop offset="0.617" style="stop-color:#F9FAFB"></stop>
            <stop offset="1" style="stop-color:#FFFFFF"></stop>
        </linearGradient>
        <path class="st0" d="M45.1,1L72,27.7V99H0.2V1H45.1z"></path>
        <path class="st1" d="M45.1,1L72,27.7V99H0.2V1H45.1z"></path>
    </g>
    <g class="st2">
        <path class="st3" d="M13.1,91.1V71.2h6.5c2.5,0,4.1,0.1,4.8,0.3c1.1,0.3,2.1,0.9,2.9,1.9c0.8,1,1.2,2.3,1.2,3.9
		c0,1.2-0.2,2.2-0.7,3.1c-0.4,0.8-1,1.5-1.7,2c-0.7,0.5-1.4,0.8-2.1,0.9c-1,0.2-2.4,0.3-4.2,0.3h-2.6v7.5H13.1z M17.1,74.6v5.6h2.2
		c1.6,0,2.7-0.1,3.2-0.3c0.5-0.2,1-0.5,1.3-1c0.3-0.4,0.5-1,0.5-1.5c0-0.7-0.2-1.3-0.6-1.8c-0.4-0.5-1-0.8-1.6-0.9
		c-0.5-0.1-1.4-0.1-2.9-0.1H17.1z"></path>
        <path class="st3" d="M30.7,84.6l3.9-0.4c0.2,1.3,0.7,2.3,1.4,2.9c0.7,0.6,1.7,0.9,2.9,0.9c1.3,0,2.3-0.3,2.9-0.8
		c0.7-0.5,1-1.2,1-1.9c0-0.5-0.1-0.9-0.4-1.2c-0.3-0.3-0.8-0.6-1.5-0.9c-0.5-0.2-1.5-0.5-3.2-0.9c-2.2-0.5-3.7-1.2-4.6-2
		c-1.2-1.1-1.8-2.4-1.8-4c0-1,0.3-2,0.9-2.8c0.6-0.9,1.4-1.5,2.5-2c1.1-0.5,2.4-0.7,3.9-0.7c2.5,0,4.4,0.5,5.7,1.6
		c1.3,1.1,1.9,2.5,2,4.4l-4,0.2c-0.2-1-0.5-1.8-1.1-2.2c-0.6-0.4-1.4-0.7-2.6-0.7c-1.2,0-2.1,0.2-2.8,0.7c-0.4,0.3-0.6,0.7-0.6,1.2
		c0,0.5,0.2,0.9,0.6,1.2c0.5,0.4,1.7,0.9,3.7,1.3c2,0.5,3.4,0.9,4.4,1.4c0.9,0.5,1.7,1.2,2.2,2s0.8,1.9,0.8,3.2c0,1.1-0.3,2.2-1,3.2
		c-0.6,1-1.5,1.7-2.7,2.2c-1.2,0.5-2.6,0.7-4.3,0.7c-2.5,0-4.5-0.6-5.8-1.7C31.8,88.5,31,86.8,30.7,84.6z"></path>
        <path class="st3" d="M59.3,91.1h-3.8V76.7c-1.4,1.3-3,2.3-4.9,2.9v-3.5c1-0.3,2.1-0.9,3.3-1.8c1.2-0.9,2-2,2.4-3.2h3.1V91.1z"></path>
    </g>
    <g>
        <linearGradient id="SVGID_2_" gradientUnits="userSpaceOnUse" x1="9.25" y1="41" x2="64.25" y2="41">
            <stop offset="0" style="stop-color:#ADCCDC"></stop>
            <stop offset="1" style="stop-color:#4C6C7B"></stop>
        </linearGradient>
        <path class="st4" d="M41.1,22.3c5.6,0,11.2,0,16.8,0c3.4,0,4.3,1.1,3.6,4.4c-2.1,9.5-4.3,19.2-6.5,28.7c-0.7,3-2.2,4.3-5.5,4.3
		c-11.2,0-22.4,0-33.7,0c-3.6,0-4.7-1.2-3.8-4.7c2.2-9.4,4.3-18.7,6.5-28.2c0.8-3.6,2.1-4.6,5.7-4.6C29.9,22.3,35.5,22.3,41.1,22.3z
		"></path>
        <linearGradient id="SVGID_3_" gradientUnits="userSpaceOnUse" x1="21.7233" y1="40.9503" x2="40.0464" y2="40.9503">
            <stop offset="0" style="stop-color:#ADCCDC"></stop>
            <stop offset="1" style="stop-color:#4C6C7B"></stop>
        </linearGradient>
        <path class="st5" d="M34.8,40.9c-0.6-0.6-0.9-1.1-1.3-1.5c-2.2-2.3-4-4.6-6.2-6.8c-0.9-1-1.2-2.1-0.1-3.1c1.1-1,2.2-0.9,3.3,0.3
		c2.9,3.3,5.8,6.5,8.8,9.6c1.1,1.2,0.8,2-0.4,2.9c-4.7,3.4-9.3,6.8-13.9,10.2c-1,0.7-2.1,0.9-2.9-0.2c-0.9-1.2-0.1-2,0.9-2.7
		c3.5-2.5,6.8-5.1,10.3-7.6C33.8,41.7,34.5,41.2,34.8,40.9z"></path>
        <linearGradient id="SVGID_4_" gradientUnits="userSpaceOnUse" x1="36.7204" y1="50.541" x2="47.9451" y2="50.541">
            <stop offset="0" style="stop-color:#ADCCDC"></stop>
            <stop offset="1" style="stop-color:#4C6C7B"></stop>
        </linearGradient>
        <path class="st6" d="M38.2,52.3c-0.9,0-1.5-0.8-1.5-1.8c0-0.8,0.6-1.8,1.5-1.8c3.6,0,5.3,0,8.2,0c0.9,0,1.5,0.8,1.5,1.8
		c0,0.8-0.6,1.8-1.5,1.8C44.6,52.3,41,52.3,38.2,52.3z"></path>
    </g>
    <g>
        <linearGradient id="SVGID_5_" gradientUnits="userSpaceOnUse" x1="45.1216" y1="74.2293" x2="58.5748" y2="87.6825" gradientTransform="matrix(1 0 0 -1 0 102)">
            <stop offset="0" style="stop-color:#FFFFFF"></stop>
            <stop offset="0.35" style="stop-color:#FAFBFB"></stop>
            <stop offset="0.532" style="stop-color:#EDF1F4"></stop>
            <stop offset="0.675" style="stop-color:#DDE5E9"></stop>
            <stop offset="0.799" style="stop-color:#C7D3DA"></stop>
            <stop offset="0.908" style="stop-color:#ADBDC7"></stop>
            <stop offset="1" style="stop-color:#92A5B0"></stop>
        </linearGradient>
        <path class="st7" d="M45.1,1L72,27.7H45.1V1z"></path>
        <path class="st8" d="M45.1,1L72,27.7H45.1V1z"></path>
    </g>
</svg>