<?xml version="1.0" encoding="utf-8"?>
<svg version="1.1" id="Layer_1" xmlns="http://www.w3.org/2000/svg" xmlns:xlink="http://www.w3.org/1999/xlink" x="0px" y="0px" viewBox="0 0 72 100" style="enable-background:new 0 0 72 100;" xml:space="preserve">
    <style type="text/css">
	.st0{fill:url(#SVGID_1_);}
	.st1{fill-opacity:0;stroke:#7191A1;stroke-width:2;}
	.st2{enable-background:new    ;}
	.st3{fill:#4C6C7B;}
	.st4{fill:url(#SVGID_2_);}
	.st5{fill:url(#SVGID_3_);}
	.st6{fill:url(#SVGID_4_);}
	.st7{fill-opacity:0;stroke:#7191A1;stroke-width:2;stroke-linejoin:bevel;}
</style>
    <linearGradient id="SVGID_1_" gradientUnits="userSpaceOnUse" x1="36.2" y1="3.0143" x2="36.2" y2="101.0005" gradientTransform="matrix(1 0 0 -1 0 102)">
        <stop offset="0" style="stop-color:#C8D4DB"></stop>
        <stop offset="0.139" style="stop-color:#D8E1E6"></stop>
        <stop offset="0.359" style="stop-color:#EBF0F3"></stop>
        <stop offset="0.617" style="stop-color:#F9FAFB"></stop>
        <stop offset="1" style="stop-color:#FFFFFF"></stop>
    </linearGradient>
    <path class="st0" d="M45.2,1l27.1,26.7V99H0.1V1H45.2z"></path>
    <path class="st1" d="M45.2,1l27.1,26.7V99H0.1V1H45.2z"></path>
    <g class="st2">
        <path class="st3" d="M10,90.1V70.2h6.5c2.5,0,4.1,0.1,4.8,0.3c1.2,0.3,2.1,0.9,2.9,1.9c0.8,1,1.2,2.3,1.2,3.9
		c0,1.2-0.2,2.2-0.7,3.1c-0.4,0.8-1,1.5-1.7,2c-0.7,0.5-1.4,0.8-2.1,0.9c-1,0.2-2.4,0.3-4.2,0.3H14v7.5H10z M14,73.6v5.6h2.2
		c1.6,0,2.7-0.1,3.2-0.3c0.5-0.2,1-0.5,1.3-1c0.3-0.4,0.5-1,0.5-1.5c0-0.7-0.2-1.3-0.6-1.8c-0.4-0.5-1-0.8-1.6-0.9
		c-0.5-0.1-1.5-0.1-2.9-0.1H14z"></path>
        <path class="st3" d="M34,90.1v-8.3l-7.4-11.5h4.8l4.7,7.8l4.6-7.8h4.7L38,81.7v8.3H34z"></path>
        <path class="st3" d="M60.3,82.8l3.9,1.2c-0.6,2.2-1.6,3.8-3,4.8c-1.4,1.1-3.2,1.6-5.3,1.6c-2.7,0-4.9-0.9-6.6-2.7s-2.6-4.3-2.6-7.4
		c0-3.3,0.9-5.9,2.6-7.7c1.7-1.8,4-2.7,6.8-2.7c2.5,0,4.5,0.7,6,2.2c0.9,0.8,1.6,2.1,2.1,3.7l-4,0.9c-0.2-1-0.7-1.8-1.5-2.4
		c-0.8-0.6-1.7-0.9-2.8-0.9c-1.5,0-2.7,0.5-3.6,1.6c-0.9,1.1-1.4,2.8-1.4,5.1c0,2.5,0.5,4.3,1.4,5.4c0.9,1.1,2.1,1.6,3.6,1.6
		c1.1,0,2-0.3,2.8-1C59.4,85.3,60,84.2,60.3,82.8z"></path>
    </g>
    <linearGradient id="SVGID_2_" gradientUnits="userSpaceOnUse" x1="31.7471" y1="69.9349" x2="31.7471" y2="69.9864" gradientTransform="matrix(1 0 0 -1 0 102)">
        <stop offset="0" style="stop-color:#ADCCDC"></stop>
        <stop offset="1" style="stop-color:#4C6C7B"></stop>
    </linearGradient>
    <path class="st4" d="M31.8,32C31.7,32.1,31.7,32.1,31.8,32"></path>
    <linearGradient id="SVGID_3_" gradientUnits="userSpaceOnUse" x1="45.3238" y1="74.1844" x2="58.8707" y2="87.7313" gradientTransform="matrix(1 0 0 -1 0 102)">
        <stop offset="0" style="stop-color:#FFFFFF"></stop>
        <stop offset="0.35" style="stop-color:#FAFBFB"></stop>
        <stop offset="0.532" style="stop-color:#EDF1F4"></stop>
        <stop offset="0.675" style="stop-color:#DDE5E9"></stop>
        <stop offset="0.799" style="stop-color:#C7D3DA"></stop>
        <stop offset="0.908" style="stop-color:#ADBDC7"></stop>
        <stop offset="1" style="stop-color:#92A5B0"></stop>
    </linearGradient>
    <path class="st5" d="M45.2,1l27.1,26.7H45.2V1z"></path>
    <linearGradient id="SVGID_4_" gradientUnits="userSpaceOnUse" x1="35.35" y1="39.849" x2="35.35" y2="83.437" gradientTransform="matrix(1 0 0 -1 0 102)">
        <stop offset="0" style="stop-color:#ADCCDC"></stop>
        <stop offset="1" style="stop-color:#4C6C7B"></stop>
    </linearGradient>
    <path class="st6" d="M38.6,18.6H31c-7.6,0-7.6,5.3-7.6,5.3v3.3h15.1v2.1H23.3c-7.6,0-7.6,5.3-7.6,5.3v5.3c0,5.3,7.6,5.3,7.6,5.3
	c0-5.3,7.6-5.3,7.6-5.3h7.6c7.6,0,7.6-5.3,7.6-5.3V23.9C46.2,18.6,38.6,18.6,38.6,18.6z M26.4,25.5c-0.8,0-1.4-0.6-1.4-1.4
	c0-0.8,0.6-1.4,1.4-1.4c0.8,0,1.4,0.6,1.4,1.4C27.9,24.8,27.2,25.5,26.4,25.5z M47.3,35.4c0,5.3-7.6,5.3-7.6,5.3h-7.5
	c-7.6,0-7.6,5.3-7.6,5.3v10.7c0,5.3,7.6,5.3,7.6,5.3h7.6c7.6,0,7.6-5.3,7.6-5.3v-3.3H32.2v-2.1h15.2C55,51.3,55,46,55,46v-5.3
	C54.9,35.4,47.3,35.4,47.3,35.4z M44.3,55.1c0.8,0,1.4,0.6,1.4,1.4s-0.6,1.4-1.4,1.4s-1.4-0.6-1.4-1.4S43.5,55.1,44.3,55.1z"></path>
    <path class="st7" d="M45.2,1l27.1,26.7H45.2V1z"></path>
</svg>