<svg id="Layer_1" xmlns="http://www.w3.org/2000/svg" viewBox="0 0 72 100"><style>.st0{fill:url(#SVGID_1_)}.st1{fill-opacity:0;stroke:#7191a1;stroke-width:2}.st2{fill:url(#SVGID_2_)}.st3{fill-opacity:0;stroke:#7191a1;stroke-width:2;stroke-linejoin:bevel}.st4{enable-background:new}.st5{fill:#4c6c7b}.st6{fill:url(#SVGID_3_)}.st7{fill:url(#SVGID_4_)}</style><linearGradient id="SVGID_1_" gradientUnits="userSpaceOnUse" x1="36" y1="97" x2="36" y2="-1" gradientTransform="translate(0 2)"><stop offset="0" stop-color="#c8d4db"/><stop offset=".139" stop-color="#d8e1e6"/><stop offset=".359" stop-color="#ebf0f3"/><stop offset=".617" stop-color="#f9fafb"/><stop offset="1" stop-color="#fff"/></linearGradient><path class="st0" d="M45 1l27 26.7V99H0V1h45z"/><path class="st1" d="M45 1l27 26.7V99H0V1h45z"/><linearGradient id="SVGID_2_" gradientUnits="userSpaceOnUse" x1="45.037" y1="25.813" x2="58.537" y2="12.313" gradientTransform="translate(0 2)"><stop offset="0" stop-color="#fff"/><stop offset=".35" stop-color="#fafbfb"/><stop offset=".532" stop-color="#edf1f4"/><stop offset=".675" stop-color="#dde5e9"/><stop offset=".799" stop-color="#c7d3da"/><stop offset=".908" stop-color="#adbdc7"/><stop offset="1" stop-color="#92a5b0"/></linearGradient><path class="st2" d="M45 1l27 26.7H45V1z"/><path class="st3" d="M45 1l27 26.7H45V1z"/><g class="st4"><path class="st5" d="M10.6 91.5V72.2h8.3c2.1 0 3.6.2 4.5.5.9.3 1.7 1 2.3 1.9s.9 1.9.9 3c0 1.4-.4 2.6-1.3 3.6-.9.9-2.1 1.5-3.9 1.8.9.5 1.6 1 2.1 1.6.6.6 1.3 1.6 2.2 3.1l2.4 3.8h-4.7l-2.9-4.2c-1-1.5-1.7-2.5-2.1-2.8-.4-.4-.8-.7-1.2-.8-.4-.1-1.1-.2-2-.2h-.8v8.1h-3.8zm3.9-11.1h2.9c1.9 0 3.1-.1 3.5-.2s.8-.4 1.1-.8c.3-.4.4-.9.4-1.5 0-.7-.2-1.2-.5-1.6-.4-.4-.8-.7-1.5-.8-.3 0-1.3-.1-2.9-.1h-3.1v5zm15.7-8.2h7.2c1.6 0 2.9.1 3.7.4 1.1.3 2.1.9 2.9 1.8.8.9 1.4 1.9 1.9 3.1.4 1.2.6 2.8.6 4.6 0 1.6-.2 3-.6 4.1-.5 1.4-1.2 2.5-2.1 3.4-.7.7-1.6 1.2-2.8 1.5-.9.3-2 .4-3.5.4h-7.4V72.2zm4 3.3v12.8h2.9c1.1 0 1.9-.1 2.4-.2.6-.2 1.2-.4 1.6-.8s.8-1 1-1.9c.3-.9.4-2 .4-3.5s-.1-2.6-.4-3.4c-.3-.8-.6-1.4-1.1-1.9-.5-.4-1.1-.8-1.8-.9-.6-.1-1.6-.2-3.2-.2h-1.8zm15.8 16V72.2h13.4v3.3H54v4.6h8.2v3.3H54v8.2h-4z"/></g><linearGradient id="SVGID_3_" gradientUnits="userSpaceOnUse" x1="19.25" y1="35.742" x2="19.25" y2="59.242"><stop offset="0" stop-color="#869ba6"/><stop offset=".379" stop-color="#8399a4"/><stop offset=".576" stop-color="#7b929e"/><stop offset=".731" stop-color="#6d8694"/><stop offset=".863" stop-color="#5a7785"/><stop offset=".981" stop-color="#426373"/><stop offset=".99" stop-color="#416271"/></linearGradient><path class="st6" d="M30.8 40.9l-16.7 6.6 16.7 6.6v5.2l-23-9.1v-5.3l23-9.1z"/><linearGradient id="SVGID_4_" gradientUnits="userSpaceOnUse" x1="53.25" y1="40.806" x2="53.25" y2="64.306" gradientTransform="matrix(1 0 0 -1 0 100)"><stop offset="0" stop-color="#869ba6"/><stop offset=".379" stop-color="#8399a4"/><stop offset=".576" stop-color="#7b929e"/><stop offset=".731" stop-color="#6d8694"/><stop offset=".863" stop-color="#5a7785"/><stop offset=".981" stop-color="#426373"/><stop offset=".99" stop-color="#416271"/></linearGradient><path class="st7" d="M41.8 54.1l16.6-6.6-16.6-6.6v-5.2l23 9.1v5.3l-23 9.1z"/></svg>