<?xml version="1.0" encoding="utf-8"?>
<svg version="1.1" id="Layer_1" xmlns="http://www.w3.org/2000/svg" xmlns:xlink="http://www.w3.org/1999/xlink" x="0px" y="0px" viewBox="0 0 72 100" style="enable-background:new 0 0 72 100;" xml:space="preserve">
    <style type="text/css">
	.st0{fill:url(#SVGID_1_);}
	.st1{fill-opacity:0;stroke:#7191A1;stroke-width:2;}
	.st2{enable-background:new    ;}
	.st3{fill:#4C6C7B;}
	.st4{fill:url(#SVGID_2_);}
	.st5{fill:url(#SVGID_3_);}
	.st6{fill-opacity:0;stroke:#7191A1;stroke-width:2;stroke-linejoin:bevel;}
	.st7{fill:url(#SVGID_4_);}
</style>
    <linearGradient id="SVGID_1_" gradientUnits="userSpaceOnUse" x1="36.2" y1="3.0143" x2="36.2" y2="101.0005" gradientTransform="matrix(1 0 0 -1 0 102)">
        <stop offset="0" style="stop-color:#C8D4DB"></stop>
        <stop offset="0.139" style="stop-color:#D8E1E6"></stop>
        <stop offset="0.359" style="stop-color:#EBF0F3"></stop>
        <stop offset="0.617" style="stop-color:#F9FAFB"></stop>
        <stop offset="1" style="stop-color:#FFFFFF"></stop>
    </linearGradient>
    <path class="st0" d="M45.2,1l27.1,26.7V99H0.1V1H45.2z"></path>
    <path class="st1" d="M45.2,1l27.1,26.7V99H0.1V1H45.2z"></path>
    <g class="st2">
        <path class="st3" d="M7.1,90.1V77.2h5.6c1.4,0,2.4,0.1,3,0.3s1.1,0.6,1.5,1.2c0.4,0.6,0.6,1.3,0.6,2c0,1-0.3,1.8-0.9,2.4
		s-1.4,1-2.6,1.2c0.6,0.3,1,0.7,1.4,1.1c0.4,0.4,0.9,1.1,1.5,2.1l1.6,2.5h-3.2l-1.9-2.8c-0.7-1-1.1-1.6-1.4-1.9s-0.5-0.4-0.8-0.5
		c-0.3-0.1-0.7-0.1-1.3-0.1H9.7v5.4H7.1z M9.7,82.6h2c1.3,0,2.1-0.1,2.4-0.2s0.6-0.3,0.7-0.5s0.3-0.6,0.3-1c0-0.4-0.1-0.8-0.4-1.1
		c-0.2-0.3-0.6-0.4-1-0.5c-0.2,0-0.9,0-1.9,0H9.7V82.6z"></path>
        <path class="st3" d="M20.2,90.1V77.2h9.7v2.2h-7v2.9h6.6v2.2h-6.6v3.5h7.3v2.2H20.2z"></path>
        <path class="st3" d="M35.4,90.1V79.4h-3.9v-2.2h10.4v2.2H38v10.7H35.4z"></path>
        <path class="st3" d="M43.6,90.1V77.2h5.6c1.4,0,2.4,0.1,3,0.3s1.1,0.6,1.5,1.2s0.6,1.3,0.6,2c0,1-0.3,1.8-0.9,2.4s-1.4,1-2.6,1.2
		c0.6,0.3,1,0.7,1.4,1.1s0.9,1.1,1.5,2.1l1.6,2.5h-3.2l-1.9-2.8c-0.7-1-1.1-1.6-1.4-1.9c-0.2-0.3-0.5-0.4-0.8-0.5
		c-0.3-0.1-0.7-0.1-1.3-0.1h-0.5v5.4H43.6z M46.2,82.6h2c1.3,0,2.1-0.1,2.4-0.2s0.6-0.3,0.7-0.5c0.2-0.3,0.3-0.6,0.3-1
		c0-0.4-0.1-0.8-0.4-1.1c-0.2-0.3-0.6-0.4-1-0.5c-0.2,0-0.9,0-1.9,0h-2.1V82.6z"></path>
        <path class="st3" d="M59.5,90.1v-5.4l-4.8-7.5h3.1l3.1,5.1l3-5.1h3l-4.8,7.5v5.4H59.5z"></path>
    </g>
    <linearGradient id="SVGID_2_" gradientUnits="userSpaceOnUse" x1="31.7471" y1="69.9349" x2="31.7471" y2="69.9864" gradientTransform="matrix(1 0 0 -1 0 102)">
        <stop offset="0" style="stop-color:#ADCCDC"></stop>
        <stop offset="1" style="stop-color:#4C6C7B"></stop>
    </linearGradient>
    <path class="st4" d="M31.8,32C31.7,32.1,31.7,32.1,31.8,32"></path>
    <linearGradient id="SVGID_3_" gradientUnits="userSpaceOnUse" x1="45.3238" y1="74.1844" x2="58.8707" y2="87.7313" gradientTransform="matrix(1 0 0 -1 0 102)">
        <stop offset="0" style="stop-color:#FFFFFF"></stop>
        <stop offset="0.35" style="stop-color:#FAFBFB"></stop>
        <stop offset="0.532" style="stop-color:#EDF1F4"></stop>
        <stop offset="0.675" style="stop-color:#DDE5E9"></stop>
        <stop offset="0.799" style="stop-color:#C7D3DA"></stop>
        <stop offset="0.908" style="stop-color:#ADBDC7"></stop>
        <stop offset="1" style="stop-color:#92A5B0"></stop>
    </linearGradient>
    <path class="st5" d="M45.2,1l27.1,26.7H45.2V1z"></path>
    <path class="st6" d="M45.2,1l27.1,26.7H45.2V1z"></path>
    <linearGradient id="SVGID_4_" gradientUnits="userSpaceOnUse" x1="18.0936" y1="47" x2="55.4064" y2="47">
        <stop offset="0" style="stop-color:#ADCCDC"></stop>
        <stop offset="1" style="stop-color:#4C6C7B"></stop>
    </linearGradient>
    <path class="st7" d="M55.4,50.3c0,10.3-8.4,18.7-18.7,18.7s-18.7-8.4-18.7-18.7c0-3.6,1-6.9,2.8-9.8l6,3.5c-1.2,1.8-1.9,4-1.9,6.3
	c0,6.4,5.2,11.6,11.6,11.6c6.4,0,11.7-5.2,11.7-11.6c0-5.4-3.7-9.9-8.7-11.2l0,5.9L22.4,35l17.4-10l0,6.7v0.3
	C48.6,33.4,55.4,41.1,55.4,50.3z"></path>
</svg>