<svg id="Layer_1" xmlns="http://www.w3.org/2000/svg" viewBox="0 0 72 100"><style>.st0{fill:url(#SVGID_1_)}.st1{fill-opacity:0;stroke:#7191a1;stroke-width:2}.st2{fill:url(#SVGID_2_);stroke:url(#SVGID_3_);stroke-width:1.5;stroke-miterlimit:10}.st3{fill:url(#SVGID_4_)}.st4{fill-opacity:0;stroke:#7191a1;stroke-width:2;stroke-linejoin:bevel}.st5{enable-background:new}.st6{fill:#4c6c7b}</style><linearGradient id="SVGID_1_" gradientUnits="userSpaceOnUse" x1="36" y1="97" x2="36" y2="-1" gradientTransform="translate(0 2)"><stop offset="0" stop-color="#c8d4db"/><stop offset=".139" stop-color="#d8e1e6"/><stop offset=".359" stop-color="#ebf0f3"/><stop offset=".617" stop-color="#f9fafb"/><stop offset="1" stop-color="#fff"/></linearGradient><path class="st0" d="M45 1l27 26.7V99H0V1h45z"/><path class="st1" d="M45 1l27 26.7V99H0V1h45z"/><g transform="translate(0 -952.362)"><linearGradient id="SVGID_2_" gradientUnits="userSpaceOnUse" x1="12.471" y1="994.277" x2="60.078" y2="994.277"><stop offset="0" stop-color="#ccdde7"/><stop offset=".265" stop-color="#b5ccd8"/><stop offset=".798" stop-color="#7fa0b1"/><stop offset="1" stop-color="#6a8fa1"/></linearGradient><linearGradient id="SVGID_3_" gradientUnits="userSpaceOnUse" x1="11.721" y1="994.277" x2="60.828" y2="994.277"><stop offset="0" stop-color="#ccdde7"/><stop offset=".265" stop-color="#b5ccd8"/><stop offset=".798" stop-color="#7fa0b1"/><stop offset="1" stop-color="#6a8fa1"/></linearGradient><path class="st2" d="M30 972.4c-.1 0-.2 0-.3.1L13 980.1c-.5.2-.7 1-.3 1.5l5.2 6.1-5.2 6c-.3.4-.2 1.2.3 1.5l5.2 2.4v10.1c0 .4.2.7.6.9l17.1 7.6c.2.1.5.1.8 0l17.2-7.6c.3-.1.6-.5.6-.9v-10.1l5.2-2.4c.5-.2.7-1 .3-1.5l-5.2-6 5.2-6.1c.4-.4.2-1.2-.3-1.5L43 972.5c-.1-.1-.3-.1-.5-.1s-.5.1-.6.3l-5.5 5.9-5.5-5.9c-.3-.2-.6-.4-.9-.3zm-.2 2.1l4.8 5.2-15.3 6.8-4.4-5.2 14.9-6.8zm12.9 0l14.9 6.8-4.4 5.2-15.3-6.8 4.8-5.2zm-6.4 6.5l14.8 6.6-14.8 6.6-14.8-6.6 14.8-6.6zm-16.9 7.8l15.3 6.8-4.8 5.2L15 994l4.4-5.2zm33.8 0l4.4 5.2-14.9 6.8-4.8-5.2 15.3-6.8zm-17.9 8.9v16.1L20 1007v-8.6l9.6 4.4c.4.2.8.1 1.1-.2l4.6-4.9zm1.9 0l4.5 4.9c.3.3.7.4 1.1.2l9.6-4.4v8.6l-15.3 6.8v-16.1z"/></g><linearGradient id="SVGID_4_" gradientUnits="userSpaceOnUse" x1="45.037" y1="25.813" x2="58.537" y2="12.313" gradientTransform="translate(0 2)"><stop offset="0" stop-color="#fff"/><stop offset=".35" stop-color="#fafbfb"/><stop offset=".532" stop-color="#edf1f4"/><stop offset=".675" stop-color="#dde5e9"/><stop offset=".799" stop-color="#c7d3da"/><stop offset=".908" stop-color="#adbdc7"/><stop offset="1" stop-color="#92a5b0"/></linearGradient><path class="st3" d="M45 1l27 26.7H45V1z"/><path class="st4" d="M45 1l27 26.7H45V1z"/><g class="st5"><path class="st6" d="M8.3 91.5V72.2h8.3c2.1 0 3.6.2 4.5.5.9.3 1.7 1 2.3 1.9s.9 1.9.9 3c0 1.4-.4 2.6-1.3 3.6-.9.9-2.1 1.5-3.9 1.8.9.5 1.6 1 2.1 1.6.6.6 1.3 1.6 2.2 3.1l2.4 3.8h-4.7l-2.9-4.2c-1-1.5-1.7-2.5-2.1-2.8-.4-.4-.8-.7-1.2-.8-.4-.1-1.1-.2-2-.2h-.8v8.1H8.3zm3.9-11.1h2.9c1.9 0 3.1-.1 3.5-.2s.8-.4 1.1-.8c.3-.4.4-.9.4-1.5 0-.7-.2-1.2-.5-1.6-.4-.4-.8-.7-1.5-.8-.3 0-1.3-.1-2.9-.1h-3.1v5zM28 91.5V72.2h6.3c2.4 0 4 .1 4.7.3 1.1.3 2.1.9 2.8 1.9.8 1 1.1 2.2 1.1 3.8 0 1.2-.2 2.2-.7 3-.4.8-1 1.4-1.7 1.9s-1.4.8-2 .9c-.9.2-2.3.3-4.1.3h-2.6v7.3H28zm3.9-16V81h2.2c1.6 0 2.6-.1 3.1-.3.5-.2.9-.5 1.2-.9.3-.4.4-.9.4-1.5 0-.7-.2-1.3-.6-1.7-.4-.5-.9-.7-1.6-.9-.5-.1-1.4-.1-2.8-.1h-1.9zm14.2 16V72.2H52l3.5 13.2L59 72.2h6v19.3h-3.7V76.3l-3.9 15.2h-3.8l-3.9-15.2v15.2h-3.6z"/></g></svg>