<svg id="Layer_1" xmlns="http://www.w3.org/2000/svg" viewBox="0 0 72 100"><style>.st0{fill:url(#SVGID_1_)}.st1{fill-opacity:0;stroke:#7191a1;stroke-width:2}.st2{fill:url(#SVGID_2_)}.st3{fill:url(#SVGID_3_)}.st4{fill:url(#SVGID_4_)}.st5{fill-opacity:0;stroke:#7191a1;stroke-width:2;stroke-linejoin:bevel}.st6{enable-background:new}.st7{fill:#4c6c7b}</style><linearGradient id="SVGID_1_" gradientUnits="userSpaceOnUse" x1="36" y1="97" x2="36" y2="-1" gradientTransform="translate(0 2)"><stop offset="0" stop-color="#c8d4db"/><stop offset=".139" stop-color="#d8e1e6"/><stop offset=".359" stop-color="#ebf0f3"/><stop offset=".617" stop-color="#f9fafb"/><stop offset="1" stop-color="#fff"/></linearGradient><path class="st0" d="M45 1l27 26.7V99H0V1h45z"/><path class="st1" d="M45 1l27 26.7V99H0V1h45z"/><linearGradient id="SVGID_2_" gradientUnits="userSpaceOnUse" x1="21.45" y1="40.638" x2="21.45" y2="80.086" gradientTransform="matrix(1 0 0 -1 0 100)"><stop offset="0" stop-color="#869ba6"/><stop offset=".379" stop-color="#8399a4"/><stop offset=".576" stop-color="#7b929e"/><stop offset=".731" stop-color="#6d8694"/><stop offset=".863" stop-color="#5a7785"/><stop offset=".981" stop-color="#426373"/><stop offset=".99" stop-color="#416271"/></linearGradient><path class="st2" d="M14.4 42.1v-4.9c1-.1 1.8-.2 2.3-.5.5-.2.9-.7 1.3-1.2.4-.6.6-1.3.8-2.2.1-.7.2-1.8.2-3.4 0-2.7.1-4.5.4-5.6.2-1 .7-1.9 1.3-2.5s1.6-1.1 2.8-1.5c.8-.2 2.1-.4 3.9-.4h1.1v4.9c-1.5 0-2.5.1-2.9.3-.4.2-.7.4-1 .8-.2.3-.3.9-.3 1.8s-.1 2.5-.2 4.9c-.1 1.4-.2 2.5-.5 3.4-.3.8-.7 1.5-1.1 2.1-.4.5-1.1 1.1-2 1.7.8.5 1.5 1 2 1.6s.9 1.4 1.2 2.3.5 2.1.5 3.6c.1 2.3.1 3.7.1 4.4 0 .9.1 1.5.3 1.9.2.4.6.6 1 .8.4.2 1.4.3 2.9.3v4.9h-1.1c-1.8 0-3.3-.1-4.2-.4-1-.3-1.8-.8-2.5-1.5s-1.1-1.5-1.4-2.5c-.2-1-.3-2.6-.3-4.8 0-2.5-.1-4.2-.3-4.9-.3-1.1-.8-1.9-1.4-2.4-.7-.6-1.6-1-2.9-1z"/><linearGradient id="SVGID_3_" gradientUnits="userSpaceOnUse" x1="51.7" y1="40.638" x2="51.7" y2="80.086" gradientTransform="matrix(1 0 0 -1 0 100)"><stop offset="0" stop-color="#869ba6"/><stop offset=".379" stop-color="#8399a4"/><stop offset=".576" stop-color="#7b929e"/><stop offset=".731" stop-color="#6d8694"/><stop offset=".863" stop-color="#5a7785"/><stop offset=".981" stop-color="#426373"/><stop offset=".99" stop-color="#416271"/></linearGradient><path class="st3" d="M58.7 42.1c-1 .1-1.8.2-2.3.5-.5.2-.9.7-1.3 1.2-.4.6-.6 1.3-.8 2.2-.1.7-.2 1.8-.2 3.4 0 2.7-.1 4.5-.4 5.6-.2 1.1-.7 1.9-1.3 2.5-.6.6-1.6 1.1-2.8 1.5-.8.2-2.1.4-3.9.4h-1.1v-4.9c1.5 0 2.4-.1 2.9-.3s.8-.5 1-.8c.2-.3.3-.9.3-1.8 0-.8.1-2.4.2-4.8.1-1.4.3-2.6.6-3.4.3-.9.7-1.6 1.2-2.2s1.1-1.1 1.9-1.6c-1-.7-1.8-1.3-2.2-1.9-.6-.9-1.1-2.1-1.3-3.4-.2-1-.3-3.1-.3-6.3 0-1-.1-1.7-.3-2.1-.2-.3-.5-.6-.9-.8-.4-.2-1.4-.3-3-.3V20h1.1c1.8 0 3.3.1 4.2.4 1 .3 1.8.8 2.5 1.5s1.1 1.5 1.4 2.5c.2 1 .4 2.6.4 4.8 0 2.5.1 4.1.3 4.9.3 1.1.8 1.9 1.4 2.3.6.5 1.6.7 2.8.8l-.1 4.9z"/><linearGradient id="SVGID_4_" gradientUnits="userSpaceOnUse" x1="45.037" y1="25.813" x2="58.537" y2="12.313" gradientTransform="translate(0 2)"><stop offset="0" stop-color="#fff"/><stop offset=".35" stop-color="#fafbfb"/><stop offset=".532" stop-color="#edf1f4"/><stop offset=".675" stop-color="#dde5e9"/><stop offset=".799" stop-color="#c7d3da"/><stop offset=".908" stop-color="#adbdc7"/><stop offset="1" stop-color="#92a5b0"/></linearGradient><path class="st4" d="M45 1l27 26.7H45V1z"/><path class="st5" d="M45 1l27 26.7H45V1z"/><g class="st6"><path class="st7" d="M6.7 86.4l3.1-.3c.2 1 .6 1.8 1.1 2.3s1.4.7 2.3.7c1 0 1.8-.2 2.3-.7.5-.4.8-.9.8-1.5 0-.4-.1-.7-.3-1-.2-.3-.6-.5-1.2-.7-.4-.1-1.2-.4-2.6-.7-1.7-.4-2.9-.9-3.6-1.6-1-.9-1.5-1.9-1.5-3.2 0-.8.2-1.6.7-2.2.5-.7 1.1-1.2 2-1.6s1.9-.5 3.1-.5c2 0 3.5.4 4.5 1.3s1.5 2 1.6 3.5l-3 .2c-.1-.8-.4-1.4-.9-1.7-.5-.4-1.1-.5-2-.5-.9 0-1.7.2-2.2.6-.3.2-.5.6-.5 1s.2.7.5 1c.4.3 1.4.7 3 1.1 1.6.4 2.7.7 3.5 1.1.7.4 1.3.9 1.8 1.6.4.7.6 1.5.6 2.5 0 .9-.3 1.7-.8 2.5s-1.2 1.4-2.1 1.8c-.9.4-2.1.6-3.5.6-2 0-3.6-.5-4.6-1.4-1.3-1.1-1.9-2.4-2.1-4.2zm25.8-.6l3.1 1c-.5 1.7-1.3 3-2.4 3.8-1.1.8-2.5 1.3-4.2 1.3-2.1 0-3.8-.7-5.2-2.1-1.4-1.4-2-3.4-2-5.9 0-2.6.7-4.7 2.1-6.1 1.4-1.4 3.2-2.2 5.4-2.2 1.9 0 3.5.6 4.7 1.7.7.7 1.3 1.6 1.6 2.9l-3.2.8c-.2-.8-.6-1.5-1.2-1.9-.6-.5-1.3-.7-2.2-.7-1.2 0-2.1.4-2.9 1.3S25 81.9 25 83.8c0 2 .4 3.4 1.1 4.3s1.7 1.3 2.8 1.3c.9 0 1.6-.3 2.2-.8.7-.8 1.1-1.7 1.4-2.8zm5.1.6l3.1-.3c.2 1 .6 1.8 1.1 2.3s1.4.7 2.3.7c1 0 1.8-.2 2.3-.7.5-.4.8-.9.8-1.5 0-.4-.1-.7-.3-1-.2-.3-.6-.5-1.2-.7-.4-.1-1.2-.4-2.6-.7-1.7-.4-2.9-.9-3.6-1.6-1-.9-1.5-1.9-1.5-3.2 0-.8.2-1.6.7-2.2.5-.7 1.1-1.2 2-1.6.9-.4 1.9-.5 3.1-.5 2 0 3.5.4 4.5 1.3s1.5 2 1.6 3.5l-3.2.1c-.1-.8-.4-1.4-.9-1.7-.5-.4-1.1-.5-2-.5-.9 0-1.7.2-2.2.6-.3.2-.5.6-.5 1s.2.7.5 1c.4.3 1.4.7 3 1.1s2.7.7 3.5 1.1c.7.4 1.3.9 1.8 1.6.4.7.6 1.5.6 2.5 0 .9-.3 1.7-.8 2.5s-1.2 1.4-2.1 1.8c-.9.4-2.1.6-3.5.6-2 0-3.6-.5-4.6-1.4-1.1-1-1.7-2.3-1.9-4.1zm14.8 0l3.1-.3c.2 1 .6 1.8 1.1 2.3s1.4.7 2.3.7c1 0 1.8-.2 2.3-.7.5-.4.8-.9.8-1.5 0-.4-.1-.7-.3-1-.2-.3-.6-.5-1.2-.7-.4-.1-1.2-.4-2.6-.7-1.7-.4-2.9-.9-3.6-1.6-1-.9-1.5-1.9-1.5-3.2 0-.8.2-1.6.7-2.2.5-.7 1.1-1.2 2-1.6.9-.4 1.9-.5 3.1-.5 2 0 3.5.4 4.5 1.3s1.5 2 1.6 3.5l-3.2.1c-.1-.8-.4-1.4-.9-1.7-.5-.4-1.1-.5-2-.5-.9 0-1.7.2-2.2.6-.3.2-.5.6-.5 1s.2.7.5 1c.4.3 1.4.7 3 1.1s2.7.7 3.5 1.1c.7.4 1.3.9 1.8 1.6.4.7.6 1.5.6 2.5 0 .9-.3 1.7-.8 2.5s-1.2 1.4-2.1 1.8c-.9.4-2.1.6-3.5.6-2 0-3.6-.5-4.6-1.4-1.1-1-1.7-2.3-1.9-4.1z"/></g></svg>