<?xml version="1.0" encoding="utf-8"?>
<svg version="1.1" id="Layer_1" xmlns="http://www.w3.org/2000/svg" xmlns:xlink="http://www.w3.org/1999/xlink" x="0px" y="0px" viewBox="0 0 72 100" style="enable-background:new 0 0 72 100;" xml:space="preserve">
    <style type="text/css">
	.st0{fill:url(#SVGID_1_);}
	.st1{fill-opacity:0;stroke:#7191A1;stroke-width:2;}
	.st2{fill:url(#SVGID_2_);}
	.st3{fill-opacity:0;stroke:#7191A1;stroke-width:2;stroke-linejoin:bevel;}
	.st4{enable-background:new    ;}
	.st5{fill:#4C6C7B;}
	.st6{fill:url(#SVGID_3_);}
	.st7{fill:url(#SVGID_4_);}
	.st8{fill:url(#SVGID_5_);}
	.st9{fill:url(#SVGID_6_);}
	.st10{fill:url(#SVGID_7_);}
	.st11{fill:url(#SVGID_8_);}
	.st12{fill:url(#SVGID_9_);}
	.st13{fill:url(#SVGID_10_);}
	.st14{fill:url(#SVGID_11_);}
</style>
    <g>
        <linearGradient id="SVGID_1_" gradientUnits="userSpaceOnUse" x1="36" y1="3" x2="36" y2="101" gradientTransform="matrix(1 0 0 -1 0 102)">
            <stop offset="0" style="stop-color:#C8D4DB"></stop>
            <stop offset="0.139" style="stop-color:#D8E1E6"></stop>
            <stop offset="0.359" style="stop-color:#EBF0F3"></stop>
            <stop offset="0.617" style="stop-color:#F9FAFB"></stop>
            <stop offset="1" style="stop-color:#FFFFFF"></stop>
        </linearGradient>
        <path class="st0" d="M45,1l27,26.7V99H0V1H45z"></path>
        <path class="st1" d="M45,1l27,26.7V99H0V1H45z"></path>
    </g>
    <g>
        <linearGradient id="SVGID_2_" gradientUnits="userSpaceOnUse" x1="45.0368" y1="74.1868" x2="58.5368" y2="87.6868" gradientTransform="matrix(1 0 0 -1 0 102)">
            <stop offset="0" style="stop-color:#FFFFFF"></stop>
            <stop offset="0.35" style="stop-color:#FAFBFB"></stop>
            <stop offset="0.532" style="stop-color:#EDF1F4"></stop>
            <stop offset="0.675" style="stop-color:#DDE5E9"></stop>
            <stop offset="0.799" style="stop-color:#C7D3DA"></stop>
            <stop offset="0.908" style="stop-color:#ADBDC7"></stop>
            <stop offset="1" style="stop-color:#92A5B0"></stop>
        </linearGradient>
        <path class="st2" d="M45,1l27,26.7H45V1z"></path>
        <path class="st3" d="M45,1l27,26.7H45V1z"></path>
    </g>
    <g class="st4">
        <path class="st5" d="M8.9,85.4l3.9-0.4c0.2,1.3,0.7,2.3,1.4,2.9s1.7,0.9,2.9,0.9c1.3,0,2.3-0.3,2.9-0.8c0.7-0.6,1-1.2,1-1.9
		c0-0.5-0.1-0.9-0.4-1.2c-0.3-0.3-0.8-0.6-1.5-0.9c-0.5-0.2-1.6-0.5-3.2-0.9c-2.2-0.5-3.7-1.2-4.6-2c-1.2-1.1-1.8-2.4-1.8-4
		c0-1,0.3-2,0.9-2.9c0.6-0.9,1.4-1.6,2.5-2c1.1-0.5,2.4-0.7,3.9-0.7c2.5,0,4.4,0.6,5.7,1.7s1.9,2.6,2,4.4l-4,0.2
		c-0.2-1-0.5-1.8-1.1-2.2c-0.6-0.5-1.4-0.7-2.6-0.7c-1.2,0-2.1,0.2-2.8,0.7c-0.4,0.3-0.6,0.7-0.6,1.2c0,0.5,0.2,0.9,0.6,1.2
		c0.5,0.4,1.8,0.9,3.7,1.3s3.4,0.9,4.4,1.4s1.7,1.2,2.2,2s0.8,1.9,0.8,3.2c0,1.1-0.3,2.2-1,3.2c-0.6,1-1.5,1.7-2.7,2.2
		c-1.2,0.5-2.6,0.7-4.4,0.7c-2.5,0-4.5-0.6-5.8-1.8C9.9,89.3,9.1,87.6,8.9,85.4z"></path>
        <path class="st5" d="M27.7,82c0-2,0.3-3.8,0.9-5.1c0.5-1,1.1-1.9,1.9-2.7c0.8-0.8,1.7-1.4,2.6-1.8c1.2-0.5,2.7-0.8,4.3-0.8
		c3,0,5.3,0.9,7.1,2.7c1.8,1.8,2.7,4.4,2.7,7.6c0,3.2-0.9,5.8-2.6,7.6c-1.8,1.8-4.1,2.7-7.1,2.7c-3,0-5.4-0.9-7.1-2.7
		C28.6,87.7,27.7,85.2,27.7,82z M31.9,81.8c0,2.3,0.5,4,1.6,5.2c1,1.2,2.4,1.8,4,1.8s2.9-0.6,4-1.7c1-1.2,1.6-2.9,1.6-5.2
		c0-2.3-0.5-4-1.5-5.1c-1-1.1-2.3-1.7-4-1.7s-3,0.6-4,1.7C32.4,77.8,31.9,79.5,31.9,81.8z"></path>
        <path class="st5" d="M50.5,91.9V72h4v16.5h10.1v3.4H50.5z"></path>
    </g>
    <g>
        <linearGradient id="SVGID_3_" gradientUnits="userSpaceOnUse" x1="24.7671" y1="54" x2="47.2329" y2="54" gradientTransform="matrix(1 0 0 -1 0 100)">
            <stop offset="0" style="stop-color:#ADCCDC"></stop>
            <stop offset="1" style="stop-color:#4C6C7B"></stop>
        </linearGradient>
        <circle class="st6" cx="36" cy="46" r="11.2"></circle>
        <linearGradient id="SVGID_4_" gradientUnits="userSpaceOnUse" x1="34.2877" y1="70.3" x2="37.7123" y2="70.3" gradientTransform="matrix(1 0 0 -1 0 100)">
            <stop offset="0" style="stop-color:#ADCCDC"></stop>
            <stop offset="1" style="stop-color:#4C6C7B"></stop>
        </linearGradient>
        <path class="st7" d="M35.2,33.4h1.6c0.5,0,0.9-0.4,0.9-0.9v-5.6c0-0.5-0.4-0.9-0.9-0.9h-1.6c-0.5,0-0.9,0.4-0.9,0.9v5.6
		C34.3,33,34.7,33.4,35.2,33.4z"></path>
        <linearGradient id="SVGID_5_" gradientUnits="userSpaceOnUse" x1="48.5571" y1="54" x2="56" y2="54" gradientTransform="matrix(1 0 0 -1 0 100)">
            <stop offset="0" style="stop-color:#ADCCDC"></stop>
            <stop offset="1" style="stop-color:#4C6C7B"></stop>
        </linearGradient>
        <path class="st8" d="M48.6,45.2v1.6c0,0.5,0.4,0.9,0.9,0.9h5.6c0.5,0,0.9-0.4,0.9-0.9v-1.6c0-0.5-0.4-0.9-0.9-0.9h-5.6
		C49,44.3,48.6,44.7,48.6,45.2z"></path>
        <linearGradient id="SVGID_6_" gradientUnits="userSpaceOnUse" x1="34.2877" y1="37.7" x2="37.7123" y2="37.7" gradientTransform="matrix(1 0 0 -1 0 100)">
            <stop offset="0" style="stop-color:#ADCCDC"></stop>
            <stop offset="1" style="stop-color:#4C6C7B"></stop>
        </linearGradient>
        <path class="st9" d="M36.8,66c0.5,0,0.9-0.4,0.9-0.9v-5.6c0-0.5-0.4-0.9-0.9-0.9h-1.6c-0.5,0-0.9,0.4-0.9,0.9v5.6
		c0,0.5,0.4,0.9,0.9,0.9H36.8z"></path>
        <linearGradient id="SVGID_7_" gradientUnits="userSpaceOnUse" x1="16" y1="54" x2="23.4429" y2="54" gradientTransform="matrix(1 0 0 -1 0 100)">
            <stop offset="0" style="stop-color:#ADCCDC"></stop>
            <stop offset="1" style="stop-color:#4C6C7B"></stop>
        </linearGradient>
        <path class="st10" d="M16.9,47.7h5.6c0.5,0,0.9-0.4,0.9-0.9v-1.6c0-0.5-0.4-0.9-0.9-0.9h-5.6c-0.5,0-0.9,0.4-0.9,0.9v1.6
		C16,47.3,16.4,47.7,16.9,47.7z"></path>
        <linearGradient id="SVGID_8_" gradientUnits="userSpaceOnUse" x1="44.0466" y1="65.5" x2="50.9747" y2="65.5" gradientTransform="matrix(1 0 0 -1 0 100)">
            <stop offset="0" style="stop-color:#ADCCDC"></stop>
            <stop offset="1" style="stop-color:#4C6C7B"></stop>
        </linearGradient>
        <path class="st11" d="M45.4,37.7c0.4,0.4,0.9,0.4,1.3,0l4-4c0.4-0.4,0.4-0.9,0-1.3l-1.1-1.1c-0.4-0.4-0.9-0.4-1.3,0l-4,4
		c-0.4,0.4-0.4,0.9,0,1.3L45.4,37.7z"></path>
        <linearGradient id="SVGID_9_" gradientUnits="userSpaceOnUse" x1="44.0466" y1="42.5" x2="50.9747" y2="42.5" gradientTransform="matrix(1 0 0 -1 0 100)">
            <stop offset="0" style="stop-color:#ADCCDC"></stop>
            <stop offset="1" style="stop-color:#4C6C7B"></stop>
        </linearGradient>
        <path class="st12" d="M49.6,60.7l1.1-1.1c0.4-0.4,0.4-0.9,0-1.3l-4-4c-0.4-0.4-0.9-0.4-1.3,0l-1.1,1.1c-0.4,0.4-0.4,0.9,0,1.3l4,4
		C48.6,61.1,49.2,61.1,49.6,60.7z"></path>
        <linearGradient id="SVGID_10_" gradientUnits="userSpaceOnUse" x1="21.0253" y1="42.5" x2="27.9534" y2="42.5" gradientTransform="matrix(1 0 0 -1 0 100)">
            <stop offset="0" style="stop-color:#ADCCDC"></stop>
            <stop offset="1" style="stop-color:#4C6C7B"></stop>
        </linearGradient>
        <path class="st13" d="M23.7,60.7l4-4c0.4-0.4,0.4-0.9,0-1.3l-1.1-1.1c-0.4-0.4-0.9-0.4-1.3,0l-4,4c-0.4,0.4-0.4,0.9,0,1.3l1.1,1.1
		C22.8,61.1,23.4,61.1,23.7,60.7z"></path>
        <linearGradient id="SVGID_11_" gradientUnits="userSpaceOnUse" x1="21.0253" y1="65.5" x2="27.9534" y2="65.5" gradientTransform="matrix(1 0 0 -1 0 100)">
            <stop offset="0" style="stop-color:#ADCCDC"></stop>
            <stop offset="1" style="stop-color:#4C6C7B"></stop>
        </linearGradient>
        <path class="st14" d="M25.3,37.7c0.4,0.4,0.9,0.4,1.3,0l1.1-1.1c0.4-0.4,0.4-0.9,0-1.3l-4-4c-0.4-0.4-0.9-0.4-1.3,0l-1.1,1.1
		c-0.4,0.4-0.4,0.9,0,1.3L25.3,37.7z"></path>
    </g>
</svg>