<svg id="Layer_1" xmlns="http://www.w3.org/2000/svg" viewBox="0 0 72 100"><style>.st0{fill:url(#SVGID_1_)}.st1{fill-opacity:0;stroke:#d10407;stroke-width:2}.st2{enable-background:new}.st3{fill:#fff}.st4{fill:url(#SVGID_2_)}.st5{fill:url(#SVGID_3_)}.st6{fill-opacity:0;stroke:#d10407;stroke-width:2;stroke-linejoin:bevel}</style><linearGradient id="SVGID_1_" gradientUnits="userSpaceOnUse" x1="36" y1="101" x2="36" y2="3.004" gradientTransform="matrix(1 0 0 -1 0 102)"><stop offset="0" stop-color="#fffeee"/><stop offset=".531" stop-color="#f9b1b2"/><stop offset="1" stop-color="#d10407"/></linearGradient><path class="st0" d="M45.1 1l27.2 26.7V99H-.2V1h45.3z"/><path class="st1" d="M45.1 1l27.2 26.7V99H-.2V1h45.3z"/><g class="st2"><path class="st3" d="M6.1 84.6l4-.4c.2 1.3.7 2.3 1.5 2.9.7.6 1.7.9 3 .9s2.3-.3 3-.8c.7-.5 1-1.2 1-1.9 0-.5-.1-.9-.4-1.2-.3-.3-.8-.6-1.5-.9-.5-.2-1.6-.5-3.3-.9-2.2-.5-3.7-1.2-4.6-2-1.2-1.1-1.9-2.4-1.9-4 0-1 .3-2 .9-2.8.6-.9 1.4-1.5 2.5-2s2.4-.7 4-.7c2.5 0 4.4.5 5.7 1.6 1.3 1.1 2 2.5 2 4.4l-4.1.2c-.2-1-.5-1.8-1.1-2.2-.6-.4-1.4-.7-2.6-.7-1.2 0-2.1.2-2.8.7-.4.3-.6.7-.6 1.2s.2.9.6 1.2c.5.4 1.8.9 3.7 1.3s3.4.9 4.4 1.4c1 .5 1.7 1.2 2.2 2 .5.9.8 1.9.8 3.2 0 1.1-.3 2.2-1 3.2-.6 1-1.6 1.7-2.7 2.2s-2.6.7-4.4.7c-2.6 0-4.5-.6-5.9-1.7-1.3-1-2.2-2.7-2.4-4.9zm22.7 6.5L24 71.2h4.2l3 13.6 3.7-13.6h4.8l3.5 13.9 3.1-13.9h4.1L45.5 91h-4.3l-4-14.8-4 14.8h-4.4zm23.7 0V71.2h13.8v3.4h-9.8v4.7H65v3.4h-8.4v8.4h-4.1z"/></g><g transform="translate(0 -952.362)"><linearGradient id="SVGID_2_" gradientUnits="userSpaceOnUse" x1="36.625" y1="974.612" x2="36.625" y2="1015.362"><stop offset=".118" stop-color="#f9b1b2"/><stop offset="1" stop-color="#d10407"/></linearGradient><path class="st4" d="M36.6 974.6c-11.3 0-20.4 9.1-20.4 20.4 0 11.3 9.1 20.4 20.4 20.4S57 1006.2 57 995c0-11.3-9.1-20.4-20.4-20.4zm3.9 4.8l-3.3 12.3h8.6l-13 18.8 3.3-12.3h-8.6l13-18.8z"/></g><linearGradient id="SVGID_3_" gradientUnits="userSpaceOnUse" x1="45.178" y1="74.159" x2="58.772" y2="87.753" gradientTransform="matrix(1 0 0 -1 0 102)"><stop offset="0" stop-color="#fffeee"/><stop offset=".637" stop-color="#f9b1b2"/><stop offset="1" stop-color="#d10407"/></linearGradient><path class="st5" d="M45.1 1l27.2 26.7H45.1V1z"/><path class="st6" d="M45.1 1l27.2 26.7H45.1V1z"/></svg>