<svg id="Layer_2" xmlns="http://www.w3.org/2000/svg" viewBox="0 0 72 100"><style>.st0{fill:url(#SVGID_1_)}.st1{fill-opacity:0;stroke:#7191a1;stroke-width:2}.st2{fill:url(#SVGID_2_)}.st3{fill-opacity:0;stroke:#7191a1;stroke-width:2;stroke-linejoin:bevel}.st4{enable-background:new}.st5{fill:#4c6c7b}</style><linearGradient id="SVGID_1_" gradientUnits="userSpaceOnUse" x1="36" y1="127.8" x2="36" y2="29.8" gradientTransform="translate(0 -29)"><stop offset="0" stop-color="#c8d4db"/><stop offset=".139" stop-color="#d8e1e6"/><stop offset=".359" stop-color="#ebf0f3"/><stop offset=".617" stop-color="#f9fafb"/><stop offset="1" stop-color="#fff"/></linearGradient><path class="st0" d="M45 .8l27 26.7v71.3H0V.8h45z"/><path class="st1" d="M45 .8l27 26.7v71.3H0V.8h45z"/><linearGradient id="SVGID_2_" gradientUnits="userSpaceOnUse" x1="45.075" y1="56.575" x2="58.575" y2="43.075" gradientTransform="translate(0 -29)"><stop offset="0" stop-color="#fff"/><stop offset=".35" stop-color="#fafbfb"/><stop offset=".532" stop-color="#edf1f4"/><stop offset=".675" stop-color="#dde5e9"/><stop offset=".799" stop-color="#c7d3da"/><stop offset=".908" stop-color="#adbdc7"/><stop offset="1" stop-color="#92a5b0"/></linearGradient><path class="st2" d="M45 .8l27 26.7H45V.8z"/><path class="st3" d="M45 .8l27 26.7H45V.8z"/><g class="st4"><path class="st5" d="M9.8 83.3l3.9-.4c.2 1.3.7 2.3 1.4 2.9s1.7.9 2.9.9c1.3 0 2.3-.3 2.9-.8.7-.6 1-1.2 1-1.9 0-.5-.1-.9-.4-1.2-.3-.3-.8-.6-1.5-.9-.5-.2-1.6-.5-3.2-.9-2.2-.5-3.7-1.2-4.6-2-1.2-1.1-1.8-2.4-1.8-4 0-1 .3-2 .9-2.9.6-.9 1.4-1.6 2.5-2 1.1-.5 2.4-.7 3.9-.7 2.5 0 4.4.6 5.7 1.7s1.9 2.6 2 4.4l-4 .2c-.2-1-.5-1.8-1.1-2.2-.6-.5-1.4-.7-2.6-.7-1.2 0-2.1.2-2.8.7-.4.3-.6.7-.6 1.2s.2.9.6 1.2c.5.4 1.8.9 3.7 1.3s3.4.9 4.4 1.4 1.7 1.2 2.2 2 .8 1.9.8 3.2c0 1.1-.3 2.2-1 3.2-.6 1-1.5 1.7-2.7 2.2-1.2.5-2.6.7-4.4.7-2.5 0-4.5-.6-5.8-1.8-1.2-.9-2-2.6-2.3-4.8zm25 6.5v-8.4l-7.3-11.6h4.7l4.7 7.9 4.6-7.9h4.7l-7.4 11.6v8.4h-4zm12.4-6.5l3.9-.4c.2 1.3.7 2.3 1.4 2.9s1.7.9 2.9.9c1.3 0 2.3-.3 2.9-.8s1-1.2 1-1.9c0-.5-.1-.9-.4-1.2s-.8-.6-1.5-.9c-.5-.2-1.6-.5-3.2-.9-2.2-.5-3.7-1.2-4.6-2-1.2-1.1-1.8-2.4-1.8-4 0-1 .3-2 .9-2.9s1.4-1.6 2.5-2 2.4-.7 3.9-.7c2.5 0 4.4.6 5.7 1.7s1.9 2.6 2 4.4l-4 .2c-.2-1-.5-1.8-1.1-2.2s-1.4-.7-2.6-.7c-1.2 0-2.1.2-2.8.7-.4.3-.6.7-.6 1.2s.2.9.6 1.2c.5.4 1.8.9 3.7 1.3s3.4.9 4.4 1.4 1.7 1.2 2.2 2 .8 1.9.8 3.2c0 1.1-.3 2.2-1 3.2s-1.5 1.7-2.7 2.2-2.6.7-4.4.7c-2.5 0-4.5-.6-5.8-1.8s-2.1-2.6-2.3-4.8z"/></g></svg>