<svg xmlns="http://www.w3.org/2000/svg" viewBox="0 0 72 100"><linearGradient id="a" gradientUnits="userSpaceOnUse" x1="36" y1="3" x2="36" y2="101" gradientTransform="matrix(1 0 0 -1 0 102)"><stop offset="0" stop-color="#c8d4db"/><stop offset=".139" stop-color="#d8e1e6"/><stop offset=".359" stop-color="#ebf0f3"/><stop offset=".617" stop-color="#f9fafb"/><stop offset="1" stop-color="#fff"/></linearGradient><path d="M45 1l27 26.7V99H0V1h45z" fill="url(#a)"/><path d="M45 1l27 26.7V99H0V1h45z" fill-opacity="0" stroke="#7191a1" stroke-width="2"/><g transform="translate(0 -1036.362)" opacity=".9"><linearGradient id="b" gradientUnits="userSpaceOnUse" x1="36.15" y1="39.035" x2="36.15" y2="78.283" gradientTransform="matrix(1 0 0 -1 0 1136.362)"><stop offset="0" stop-color="#adccdc"/><stop offset="1" stop-color="#4c6c7b"/></linearGradient><path d="M57.2 1058.1l-19.3 2.6v15.3h19.3v-17.9zm-22.8 3l-19.3 2.6v12.3h19.3v-14.9zm-19.2 18.4v12.3l19.3 2.6v-14.8l-19.3-.1zm22.7 0v15.3l19.3 2.6v-17.9H37.9z" fill="url(#b)"/></g><linearGradient id="c" gradientUnits="userSpaceOnUse" x1="45.037" y1="74.187" x2="58.537" y2="87.687" gradientTransform="matrix(1 0 0 -1 0 102)"><stop offset="0" stop-color="#fff"/><stop offset=".35" stop-color="#fafbfb"/><stop offset=".532" stop-color="#edf1f4"/><stop offset=".675" stop-color="#dde5e9"/><stop offset=".799" stop-color="#c7d3da"/><stop offset=".908" stop-color="#adbdc7"/><stop offset="1" stop-color="#92a5b0"/></linearGradient><path d="M45 1l27 26.7H45V1z" fill="url(#c)"/><path d="M45 1l27 26.7H45V1z" fill-opacity="0" stroke="#7191a1" stroke-width="2" stroke-linejoin="bevel"/><path d="M9 85.4l3.9-.4c.2 1.3.7 2.3 1.4 2.9s1.7.9 2.9.9c1.3 0 2.3-.3 2.9-.8.7-.6 1-1.2 1-1.9 0-.5-.1-.9-.4-1.2-.3-.3-.8-.6-1.5-.9-.5-.2-1.6-.5-3.2-.9-2.2-.5-3.7-1.2-4.6-2-1.2-1.1-1.8-2.4-1.8-4 0-1 .3-2 .9-2.9.6-.9 1.4-1.6 2.5-2 1.1-.5 2.4-.7 3.9-.7 2.5 0 4.4.6 5.7 1.7s1.9 2.6 2 4.4l-4 .2c-.2-1-.5-1.8-1.1-2.2-.6-.5-1.4-.7-2.6-.7-1.2 0-2.1.2-2.8.7-.4.3-.6.7-.6 1.2s.2.9.6 1.2c.5.4 1.8.9 3.7 1.3s3.4.9 4.4 1.4 1.7 1.2 2.2 2 .8 1.9.8 3.2c0 1.1-.3 2.2-1 3.2-.6 1-1.5 1.7-2.7 2.2-1.2.5-2.6.7-4.4.7-2.5 0-4.5-.6-5.8-1.8-1.2-.9-2-2.6-2.3-4.8zm25 6.5v-8.4l-7.3-11.6h4.7l4.7 7.9 4.6-7.9h4.7L38 83.5v8.4h-4zm12.3-6.5l3.9-.4c.2 1.3.7 2.3 1.4 2.9s1.7.9 2.9.9c1.3 0 2.3-.3 2.9-.8.7-.6 1-1.2 1-1.9 0-.5-.1-.9-.4-1.2-.3-.3-.8-.6-1.5-.9-.5-.2-1.6-.5-3.2-.9-2.2-.5-3.7-1.2-4.6-2-1.2-1.1-1.8-2.4-1.8-4 0-1 .3-2 .9-2.9.6-.9 1.4-1.6 2.5-2 1.1-.5 2.4-.7 3.9-.7 2.5 0 4.4.6 5.7 1.7s1.9 2.6 2 4.4l-4 .2c-.2-1-.5-1.8-1.1-2.2-.6-.5-1.4-.7-2.6-.7-1.2 0-2.1.2-2.8.7-.4.3-.6.7-.6 1.2s.2.9.6 1.2c.5.4 1.8.9 3.7 1.3s3.4.9 4.4 1.4 1.7 1.2 2.2 2 .8 1.9.8 3.2c0 1.1-.3 2.2-1 3.2-.6 1-1.5 1.7-2.7 2.2-1.2.5-2.6.7-4.4.7-2.5 0-4.5-.6-5.8-1.8-1.2-.9-2-2.6-2.3-4.8z" fill="#4c6c7b"/></svg>