<svg id="Layer_1" xmlns="http://www.w3.org/2000/svg" viewBox="0 0 72 100"><style>.st0{fill:url(#SVGID_1_)}.st1{fill-opacity:0;stroke:#7191a1;stroke-width:2}.st2{enable-background:new}.st3{fill:#4c6c7b}.st4{fill:url(#SVGID_2_)}.st5{fill:url(#SVGID_3_)}.st6{fill:url(#SVGID_4_)}.st7{fill:url(#SVGID_5_)}.st8{fill-opacity:0;stroke:#7191a1;stroke-width:2;stroke-linejoin:bevel}</style><linearGradient id="SVGID_1_" gradientUnits="userSpaceOnUse" x1="36.108" y1="3.003" x2="36.108" y2="101.001" gradientTransform="matrix(1 0 0 -1 0 102)"><stop offset="0" stop-color="#c8d4db"/><stop offset=".139" stop-color="#d8e1e6"/><stop offset=".359" stop-color="#ebf0f3"/><stop offset=".617" stop-color="#f9fafb"/><stop offset="1" stop-color="#fff"/></linearGradient><path class="st0" d="M45.1 1L72 27.7V99H.2V1h44.9z"/><path class="st1" d="M45.1 1L72 27.7V99H.2V1h44.9z"/><g class="st2"><path class="st3" d="M11.8 91.1V78H7.1v-2.7h12.6V78H15v13.1h-3.2zm20.1-5.8l3.1 1c-.5 1.7-1.3 3-2.4 3.8-1.1.8-2.5 1.3-4.2 1.3-2.1 0-3.8-.7-5.2-2.1-1.4-1.4-2-3.4-2-5.9 0-2.6.7-4.7 2-6.1 1.4-1.4 3.2-2.2 5.4-2.2 1.9 0 3.5.6 4.7 1.7.7.7 1.3 1.6 1.6 2.9l-3.2.8c-.2-.8-.6-1.5-1.2-1.9s-1.3-.7-2.2-.7c-1.2 0-2.1.4-2.9 1.3-.7.8-1.1 2.2-1.1 4.1 0 2 .4 3.4 1.1 4.3.7.8 1.7 1.3 2.8 1.3.9 0 1.6-.3 2.2-.8s1.2-1.7 1.5-2.8zm5 .6l3.1-.3c.2 1 .6 1.8 1.1 2.3s1.3.7 2.3.7c1 0 1.8-.2 2.3-.7.5-.4.8-.9.8-1.5 0-.4-.1-.7-.3-1-.2-.3-.6-.5-1.2-.7-.4-.1-1.2-.4-2.6-.7-1.7-.4-2.9-.9-3.6-1.6-1-.9-1.5-1.9-1.5-3.2 0-.8.2-1.6.7-2.2.5-.7 1.1-1.2 2-1.6s2-.4 3.3-.4c2 0 3.5.4 4.5 1.3s1.5 2 1.6 3.5l-3.3.2c-.1-.8-.4-1.4-.9-1.7-.5-.4-1.1-.5-2-.5-.9 0-1.7.2-2.2.6-.3.2-.5.6-.5 1s.2.7.5 1c.4.3 1.4.7 2.9 1.1 1.6.4 2.7.7 3.5 1.1.7.4 1.3.9 1.8 1.6.4.7.6 1.5.6 2.5 0 .9-.3 1.7-.8 2.5s-1.2 1.4-2.1 1.8c-.9.4-2.1.6-3.5.6-2 0-3.5-.5-4.6-1.4-1-1.2-1.7-2.5-1.9-4.3zm15.6 5.2V75.3h3.2v6.2H62v-6.2h3.2V91H62v-6.9h-6.3V91h-3.2z"/></g><linearGradient id="SVGID_2_" gradientUnits="userSpaceOnUse" x1="36.75" y1="64" x2="36.75" y2="17.5"><stop offset="0" stop-color="#adccdc"/><stop offset="1" stop-color="#4c6c7b"/></linearGradient><path class="st4" d="M60 17.5H13.5V64H60V17.5zm-37.2 9.3h-4.6v-4.6h4.6v4.6zm32.5 0H27.5v-4.6h27.9v4.6zm0 32.5H18.1V31.5h37.2v27.8z"/><linearGradient id="SVGID_3_" gradientUnits="userSpaceOnUse" x1="28.109" y1="52.694" x2="28.109" y2="35.456"><stop offset="0" stop-color="#adccdc"/><stop offset="1" stop-color="#4c6c7b"/></linearGradient><path class="st5" d="M25.4 35.5l-3.2 3.2 5.3 5.4-5.3 5.3 3.2 3.3 8.7-8.6z"/><linearGradient id="SVGID_4_" gradientUnits="userSpaceOnUse" x1="37.75" y1="55.7" x2="37.75" y2="51.05"><stop offset="0" stop-color="#adccdc"/><stop offset="1" stop-color="#4c6c7b"/></linearGradient><path class="st6" d="M33.1 51h9.3v4.7h-9.3z"/><linearGradient id="SVGID_5_" gradientUnits="userSpaceOnUse" x1="45.122" y1="74.229" x2="58.575" y2="87.683" gradientTransform="matrix(1 0 0 -1 0 102)"><stop offset="0" stop-color="#fff"/><stop offset=".35" stop-color="#fafbfb"/><stop offset=".532" stop-color="#edf1f4"/><stop offset=".675" stop-color="#dde5e9"/><stop offset=".799" stop-color="#c7d3da"/><stop offset=".908" stop-color="#adbdc7"/><stop offset="1" stop-color="#92a5b0"/></linearGradient><path class="st7" d="M45.1 1L72 27.7H45.1V1z"/><path class="st8" d="M45.1 1L72 27.7H45.1V1z"/></svg>