<svg id="Layer_1" xmlns="http://www.w3.org/2000/svg" viewBox="0 0 72 100"><style>.st0{fill:url(#SVGID_1_)}.st1{fill-opacity:0;stroke:#7191a1;stroke-width:2}.st2{fill:url(#SVGID_2_)}.st3{fill:url(#SVGID_3_)}.st4{fill-opacity:0;stroke:#7191a1;stroke-width:2;stroke-linejoin:bevel}.st5{enable-background:new}.st6{fill:#4c6c7b}</style><linearGradient id="SVGID_1_" gradientUnits="userSpaceOnUse" x1="36" y1="97" x2="36" y2="-1" gradientTransform="translate(0 2)"><stop offset="0" stop-color="#c8d4db"/><stop offset=".139" stop-color="#d8e1e6"/><stop offset=".359" stop-color="#ebf0f3"/><stop offset=".617" stop-color="#f9fafb"/><stop offset="1" stop-color="#fff"/></linearGradient><path class="st0" d="M45 1l27 26.7V99H0V1h45z"/><path class="st1" d="M45 1l27 26.7V99H0V1h45z"/><linearGradient id="SVGID_2_" gradientUnits="userSpaceOnUse" x1="14.36" y1="39.123" x2="58.84" y2="39.123"><stop offset="0" stop-color="#ccdde7"/><stop offset=".265" stop-color="#b5ccd8"/><stop offset=".798" stop-color="#7fa0b1"/><stop offset="1" stop-color="#6a8fa1"/></linearGradient><path class="st2" d="M58.8 53.5c-.3 1.1-1 1.9-1.8 2.7-11.4 11.9-31 9.6-39.3-4.6-2.2-3.8-3.5-7.8-3.3-12.2.2-5.5 2.1-10.4 5.5-14.7 4.1-5.2 9.3-8.6 15.9-9.8 1.6-.3 3.2-.4 4.8-.6v4.6c-1.1.1-2.2.2-3.3.4-9.3 1.3-17.2 9.2-17.9 18.3-.4 5.7 1.1 10.8 4.9 15.2 1.5 1.8 3.2 3.4 5.3 4.5.6.3 1.3.4 2 .5-5.9-3.5-9.4-8.6-10.5-15.3-.8-4.5.1-8.7 2.6-12.6C30 20.1 41 18.6 48.5 21.8c-.6 1.3-1.2 2.7-1.8 3.9-1.5-.3-3-.7-4.5-.8-4.3-.3-8.2.8-11.4 3.8-8.2 7.5-6 19.1 1.8 24.3 2.5 1.7 5.2 2.9 8.2 3.6.7.2 1.5 0 2.3-.1-.1-.1-.3-.1-.4-.1-3.7-.7-7.2-2-10.1-4.6-3-2.6-5.2-5.8-5.5-9.9-.4-5.8 1.8-10.5 6.8-13.5 4.3-2.7 8.9-2.7 13.5-.5 2.6 1.2 4.5 3.2 5.9 5.7-1.3.7-2.6 1.4-3.8 2-1.1-1.1-2.1-2.3-3.3-3.1-5.8-3.9-13.9-.2-14.5 7-.3 3.6 1.2 6.3 3.7 8.7 3 2.7 6.6 3.7 10.5 4.2 3.8.5 7.7.4 11.5-.1.8-.1 1.1.4 1.4 1v.2z"/><linearGradient id="SVGID_3_" gradientUnits="userSpaceOnUse" x1="45.037" y1="25.813" x2="58.537" y2="12.313" gradientTransform="translate(0 2)"><stop offset="0" stop-color="#fff"/><stop offset=".35" stop-color="#fafbfb"/><stop offset=".532" stop-color="#edf1f4"/><stop offset=".675" stop-color="#dde5e9"/><stop offset=".799" stop-color="#c7d3da"/><stop offset=".908" stop-color="#adbdc7"/><stop offset="1" stop-color="#92a5b0"/></linearGradient><path class="st3" d="M45 1l27 26.7H45V1z"/><path class="st4" d="M45 1l27 26.7H45V1z"/><g class="st5"><path class="st6" d="M7.4 91.5v-7.7H4.7v-1.6h7.5v1.6H9.3v7.7H7.4zm5.3-4.6c0-.9.1-1.7.4-2.4.2-.5.5-.9.9-1.3s.8-.7 1.2-.8c.6-.2 1.3-.4 2-.4 1.4 0 2.5.4 3.3 1.3s1.2 2 1.2 3.5-.4 2.7-1.2 3.5c-.8.8-1.9 1.3-3.3 1.3s-2.5-.4-3.3-1.3c-.8-.7-1.2-1.9-1.2-3.4zm2 0c0 1.1.2 1.9.7 2.4.5.5 1.1.8 1.9.8.8 0 1.4-.3 1.9-.8s.7-1.3.7-2.4c0-1.1-.2-1.9-.7-2.4-.5-.5-1.1-.8-1.9-.8-.8 0-1.4.3-1.9.8s-.7 1.3-.7 2.4zm8.6 4.6v-9.3h4c1 0 1.7.1 2.2.3.5.2.8.5 1.1.9s.4.9.4 1.5c0 .7-.2 1.3-.6 1.7-.4.5-1 .7-1.9.9.4.2.7.5 1 .8.3.3.6.8 1.1 1.5l1.1 1.8h-2.3l-1.4-2c-.5-.7-.8-1.2-1-1.4s-.4-.3-.6-.4c-.2-.1-.5-.1-1-.1H25v3.9h-1.7zm1.9-5.3h1.4c.9 0 1.5 0 1.7-.1s.4-.2.5-.4.2-.4.2-.7c0-.3-.1-.6-.3-.8s-.4-.3-.7-.4h-2.9v2.4zm7.6 5.3v-9.3h4c1 0 1.7.1 2.2.3s.8.5 1.1.9.4.9.4 1.5c0 .7-.2 1.3-.6 1.7s-1 .7-1.9.9c.4.2.7.5 1 .8.3.3.6.8 1.1 1.5l1.1 1.8H39l-1.4-2c-.5-.7-.8-1.2-1-1.4s-.4-.3-.6-.4c-.2-.1-.5-.1-1-.1h-.4v3.9h-1.8zm1.9-5.3h1.4c.9 0 1.5 0 1.7-.1s.4-.2.5-.4c.1-.2.2-.4.2-.7 0-.3-.1-.6-.3-.8s-.4-.3-.7-.4h-2.9v2.4zm7.6 5.3v-9.3h7v1.6h-5.1v2.1h4.7v1.6h-4.7V90h5.3v1.6h-7.2zm8.8 0v-9.3h1.8l3.8 6.2v-6.2h1.8v9.3h-1.9l-3.8-6.1v6.1h-1.7zm11.6 0v-7.7h-2.8v-1.6h7.5v1.6h-2.8v7.7h-1.9z"/></g></svg>