<?xml version="1.0" encoding="utf-8"?>
<svg version="1.1" id="Layer_1" xmlns="http://www.w3.org/2000/svg" xmlns:xlink="http://www.w3.org/1999/xlink" x="0px" y="0px" viewBox="0 0 72 100" style="enable-background:new 0 0 72 100;" xml:space="preserve">
    <style type="text/css">
	.st0{fill:url(#SVGID_1_);}
	.st1{fill-opacity:0;stroke:#7191A1;stroke-width:2;}
	.st2{fill:url(#SVGID_2_);}
	.st3{fill-opacity:0;stroke:#7191A1;stroke-width:2;stroke-linejoin:bevel;}
	.st4{enable-background:new    ;}
	.st5{fill:#4C6C7B;}
	.st6{fill:url(#SVGID_3_);}
</style>
    <g>
        <linearGradient id="SVGID_1_" gradientUnits="userSpaceOnUse" x1="36" y1="97" x2="36" y2="-1" gradientTransform="matrix(1 0 0 1 0 2)">
            <stop offset="0" style="stop-color:#C8D4DB"></stop>
            <stop offset="0.139" style="stop-color:#D8E1E6"></stop>
            <stop offset="0.359" style="stop-color:#EBF0F3"></stop>
            <stop offset="0.617" style="stop-color:#F9FAFB"></stop>
            <stop offset="1" style="stop-color:#FFFFFF"></stop>
        </linearGradient>
        <path class="st0" d="M45,1l27,26.7V99H0V1H45z"></path>
        <path class="st1" d="M45,1l27,26.7V99H0V1H45z"></path>
    </g>
    <g>
        <linearGradient id="SVGID_2_" gradientUnits="userSpaceOnUse" x1="45.0368" y1="25.8132" x2="58.5368" y2="12.3132" gradientTransform="matrix(1 0 0 1 0 2)">
            <stop offset="0" style="stop-color:#FFFFFF"></stop>
            <stop offset="0.35" style="stop-color:#FAFBFB"></stop>
            <stop offset="0.532" style="stop-color:#EDF1F4"></stop>
            <stop offset="0.675" style="stop-color:#DDE5E9"></stop>
            <stop offset="0.799" style="stop-color:#C7D3DA"></stop>
            <stop offset="0.908" style="stop-color:#ADBDC7"></stop>
            <stop offset="1" style="stop-color:#92A5B0"></stop>
        </linearGradient>
        <path class="st2" d="M45,1l27,26.7H45V1z"></path>
        <path class="st3" d="M45,1l27,26.7H45V1z"></path>
    </g>
    <g class="st4">
        <path class="st5" d="M10.9,91.9V77.6H5.8v-2.9h13.7v2.9h-5.1v14.3H10.9z"></path>
        <path class="st5" d="M24.2,91.9L20,74.7h3.6l2.6,11.8l3.1-11.8h4.1l3,12l2.6-12h3.5l-4.2,17.2h-3.7L31.3,79l-3.4,12.8H24.2z"></path>
        <path class="st5" d="M44.3,91.9V74.7h3.5v17.2H44.3z"></path>
        <path class="st5" d="M59,85.6v-2.9h7.5v6.8c-0.7,0.7-1.8,1.3-3.2,1.9s-2.8,0.8-4.2,0.8c-1.8,0-3.4-0.4-4.7-1.1s-2.3-1.8-3-3.2
		s-1-2.9-1-4.6c0-1.8,0.4-3.4,1.1-4.8s1.8-2.5,3.3-3.2c1.1-0.6,2.5-0.9,4.1-0.9c2.1,0,3.8,0.4,5,1.3s2,2.1,2.3,3.7l-3.4,0.6
		c-0.2-0.8-0.7-1.5-1.4-2S60,77.4,59,77.4c-1.5,0-2.7,0.5-3.6,1.4S54,81.2,54,83.1c0,2,0.5,3.6,1.4,4.6s2.1,1.5,3.6,1.5
		c0.7,0,1.5-0.1,2.2-0.4s1.4-0.6,1.9-1v-2.2H59z"></path>
    </g>
    <g>
        <linearGradient id="SVGID_3_" gradientUnits="userSpaceOnUse" x1="34.8" y1="63.589" x2="34.8" y2="22.333">
            <stop offset="0" style="stop-color:#ADCCDC"></stop>
            <stop offset="1" style="stop-color:#4C6C7B"></stop>
        </linearGradient>
        <path class="st6" d="M54.6,63.6c-2.7-23.8,3.2-17.4,3.2-17.4c-6.5-7.7-9.8,0.3-11.4,7.9c-0.8-12.1-4.6-32-19.5-31.7
		c8.1,0,8.6,16.4,7.8,28.2C27.6,38,11.8,39,11.8,39s11.8-0.5,11.8,24.6H54.6z"></path>
    </g>
</svg>