<svg id="Layer_1" xmlns="http://www.w3.org/2000/svg" viewBox="0 0 72 100"><style>.st0{fill:url(#SVGID_1_)}.st1{fill-opacity:0;stroke:#7191a1;stroke-width:2}.st2{enable-background:new}.st3{fill:#4c6c7b}.st4{fill:url(#SVGID_2_)}.st5{fill:url(#SVGID_3_)}.st6{fill:url(#SVGID_4_)}.st7{fill:url(#SVGID_5_)}.st8{fill:url(#SVGID_6_)}.st9{fill-opacity:0;stroke:#7191a1;stroke-width:2;stroke-linejoin:bevel}</style><linearGradient id="SVGID_1_" gradientUnits="userSpaceOnUse" x1="36" y1="2.953" x2="36" y2="100.95" gradientTransform="matrix(1 0 0 -1 0 102)"><stop offset="0" stop-color="#c8d4db"/><stop offset=".139" stop-color="#d8e1e6"/><stop offset=".359" stop-color="#ebf0f3"/><stop offset=".617" stop-color="#f9fafb"/><stop offset="1" stop-color="#fff"/></linearGradient><path class="st0" d="M45 1l27 26.7V99H0V1h45z"/><path class="st1" d="M45 1l27 26.7V99H0V1h45z"/><g class="st2"><path class="st3" d="M16.1 91.1V74.6h-5.9v-3.4h15.9v3.4h-5.9v16.5h-4.1zm10.5 0l6.8-10.4-6.2-9.5H32l4 6.4 3.9-6.4h4.7l-6.2 9.6L45.2 91h-4.9l-4.4-6.9-4.5 6.9h-4.8zm25.3 0V74.6H46v-3.4h15.9v3.4H56v16.5h-4.1z"/></g><linearGradient id="SVGID_2_" gradientUnits="userSpaceOnUse" x1="11.84" y1="66.245" x2="60.452" y2="66.245" gradientTransform="matrix(1 0 0 -1 0 102)"><stop offset="0" stop-color="#7291a1"/><stop offset="1" stop-color="#cad5db"/></linearGradient><path class="st4" d="M11.8 33.7h48.6v4.1H11.8v-4.1z"/><linearGradient id="SVGID_3_" gradientUnits="userSpaceOnUse" x1="11.84" y1="42.191" x2="60.452" y2="42.191" gradientTransform="matrix(1 0 0 -1 0 102)"><stop offset="0" stop-color="#7291a1"/><stop offset="1" stop-color="#cad5db"/></linearGradient><path class="st5" d="M11.8 57.8h48.6v4.1H11.8v-4.1z"/><linearGradient id="SVGID_4_" gradientUnits="userSpaceOnUse" x1="11.84" y1="53.931" x2="60.452" y2="53.931" gradientTransform="matrix(1 0 0 -1 0 102)"><stop offset="0" stop-color="#7291a1"/><stop offset="1" stop-color="#cad5db"/></linearGradient><path class="st6" d="M11.8 46h48.6v4.1H11.8V46z"/><linearGradient id="SVGID_5_" gradientUnits="userSpaceOnUse" x1="11.84" y1="78.42" x2="60.452" y2="78.42" gradientTransform="matrix(1 0 0 -1 0 102)"><stop offset="0" stop-color="#7291a1"/><stop offset="1" stop-color="#cad5db"/></linearGradient><path class="st7" d="M11.8 21.6h48.6v4.1H11.8v-4.1z"/><linearGradient id="SVGID_6_" gradientUnits="userSpaceOnUse" x1="45.068" y1="74.155" x2="58.568" y2="87.655" gradientTransform="matrix(1 0 0 -1 0 102)"><stop offset="0" stop-color="#fff"/><stop offset=".35" stop-color="#fafbfb"/><stop offset=".532" stop-color="#edf1f4"/><stop offset=".675" stop-color="#dde5e9"/><stop offset=".799" stop-color="#c7d3da"/><stop offset=".908" stop-color="#adbdc7"/><stop offset="1" stop-color="#92a5b0"/></linearGradient><path class="st8" d="M45 1l27 26.7H45V1z"/><path class="st9" d="M45 1l27 26.7H45V1z"/></svg>