<?xml version="1.0" encoding="utf-8"?>
<svg version="1.1" id="Layer_1" xmlns="http://www.w3.org/2000/svg" xmlns:xlink="http://www.w3.org/1999/xlink" x="0px" y="0px"
	 viewBox="0 0 72 100" style="enable-background:new 0 0 72 100;" xml:space="preserve">
<style type="text/css">
	.st0{fill:url(#SVGID_1_);}
	.st1{fill-opacity:0;stroke:#7191A1;stroke-width:2;}
	.st2{opacity:0.9;}
	.st3{fill:url(#XMLID_2_);}
	.st4{fill:url(#XMLID_3_);}
	.st5{fill:url(#XMLID_4_);}
	.st6{fill:url(#XMLID_5_);}
	.st7{fill:url(#XMLID_6_);}
	.st8{fill:url(#XMLID_16_);}
	.st9{fill:url(#XMLID_17_);}
	.st10{fill:url(#XMLID_18_);}
	.st11{enable-background:new    ;}
	.st12{fill:#4C6C7B;}
	.st13{fill:url(#SVGID_2_);}
	.st14{fill-opacity:0;stroke:#7191A1;stroke-width:2;stroke-linejoin:bevel;}
</style>
<g>
	
		<linearGradient id="SVGID_1_" gradientUnits="userSpaceOnUse" x1="36" y1="3.125" x2="36" y2="100.875" gradientTransform="matrix(1 0 0 -1 0 102)">
		<stop  offset="0" style="stop-color:#C8D4DB"/>
		<stop  offset="0.139" style="stop-color:#D8E1E6"/>
		<stop  offset="0.359" style="stop-color:#EBF0F3"/>
		<stop  offset="0.617" style="stop-color:#F9FAFB"/>
		<stop  offset="1" style="stop-color:#FFFFFF"/>
	</linearGradient>
	<path class="st0" d="M45,1.1l27,26.7v71.1H0V1.1H45z"/>
	<path class="st1" d="M45,1.1l27,26.7v71.1H0V1.1H45z"/>
</g>
<g id="XMLID_7_" class="st2">
	<linearGradient id="XMLID_2_" gradientUnits="userSpaceOnUse" x1="29.3875" y1="28.0429" x2="43.0185" y2="28.0429">
		<stop  offset="0" style="stop-color:#ADCCDC"/>
		<stop  offset="1" style="stop-color:#4C6C7B"/>
	</linearGradient>
	<path id="XMLID_8_" class="st3" d="M36.3,23.7c-2.3,1.6-5,3.5-6.4,6.6c-2.5,5.3,5,11.2,5.3,11.4c0.1,0.1,0.2,0.1,0.3,0.1
		c0.1,0,0.2,0,0.3-0.1c0.1-0.1,0.2-0.3,0.1-0.5c0-0.1-2.7-5.3-2.6-9c0-1.3,1.9-2.8,3.8-4.3c1.8-1.4,3.8-3.1,4.9-5
		c2.6-4.2-0.3-8.3-0.3-8.3c-0.1-0.2-0.3-0.2-0.5-0.1c-0.2,0.1-0.3,0.3-0.2,0.5c0,0,0.6,2.7-1,5.5C39.3,21.5,37.9,22.5,36.3,23.7z"/>
	<linearGradient id="XMLID_3_" gradientUnits="userSpaceOnUse" x1="35.9793" y1="34.1756" x2="46.2068" y2="34.1756">
		<stop  offset="0" style="stop-color:#ADCCDC"/>
		<stop  offset="1" style="stop-color:#4C6C7B"/>
	</linearGradient>
	<path id="XMLID_9_" class="st4" d="M46,25.5c0.2-0.1,0.2-0.3,0.1-0.5c-0.1-0.2-0.3-0.3-0.5-0.2c-0.4,0.2-9.7,3.7-9.7,8
		c0,3,1.3,4.6,2.2,5.7c0.4,0.5,0.7,0.8,0.8,1.2c0.3,1-0.4,2.7-0.7,3.3c-0.1,0.2,0,0.4,0.1,0.5c0.1,0.1,0.2,0.1,0.3,0.1
		c0.1,0,0.2,0,0.2-0.1c0.2-0.1,3.9-2.8,3.2-5.9c-0.2-1.2-0.8-2.1-1.4-2.9c-0.8-1.2-1.4-2.1-0.5-3.7C41.3,29.1,46,25.5,46,25.5z"/>
	<linearGradient id="XMLID_4_" gradientUnits="userSpaceOnUse" x1="21.8213" y1="44.351" x2="46.7148" y2="44.351">
		<stop  offset="0" style="stop-color:#ADCCDC"/>
		<stop  offset="1" style="stop-color:#4C6C7B"/>
	</linearGradient>
	<path id="XMLID_10_" class="st5" d="M21.9,43.6c-0.2,0.5-0.1,0.9,0.2,1.4c1,1.4,4.6,2.2,10,2.2c0,0,0,0,0,0c0.7,0,1.5,0,2.3,0
		c8.7-0.3,12-3,12.1-3.1c0.1-0.1,0.2-0.3,0.1-0.5c-0.1-0.2-0.3-0.3-0.5-0.2c-3.1,0.8-8.8,1.1-12.8,1.1c-4.5,0-6.7-0.3-7.3-0.6
		c0.3-0.4,2-1.1,4.2-1.5c0.2,0,0.4-0.2,0.3-0.4c0-0.2-0.2-0.4-0.4-0.4C29,41.5,22.6,41.6,21.9,43.6z"/>
	<linearGradient id="XMLID_5_" gradientUnits="userSpaceOnUse" x1="46.6056" y1="46.1487" x2="55.1515" y2="46.1487">
		<stop  offset="0" style="stop-color:#ADCCDC"/>
		<stop  offset="1" style="stop-color:#4C6C7B"/>
	</linearGradient>
	<path id="XMLID_11_" class="st6" d="M51.1,40.8c-1.8,0-3.5,0.9-3.6,0.9c-0.2,0.1-0.3,0.3-0.2,0.5c0,0.2,0.2,0.3,0.4,0.3
		c0,0,3.8,0,4.2,2.2c0.3,1.9-3.6,4.9-5.1,5.9c-0.2,0.1-0.2,0.3-0.2,0.5c0.1,0.2,0.2,0.3,0.4,0.3c0,0,0.1,0,0.1,0
		c0.4-0.1,8.9-2,8-6.9C54.5,41.5,52.6,40.8,51.1,40.8z"/>
	<linearGradient id="XMLID_6_" gradientUnits="userSpaceOnUse" x1="25.341" y1="49.6749" x2="45.2844" y2="49.6749">
		<stop  offset="0" style="stop-color:#ADCCDC"/>
		<stop  offset="1" style="stop-color:#4C6C7B"/>
	</linearGradient>
	<path id="XMLID_12_" class="st7" d="M45.3,50.1c0-0.2,0-0.3-0.2-0.4l-2-1.4c-0.1-0.1-0.2-0.1-0.3-0.1c0,0-2.2,0.6-5.3,0.9
		c-1.2,0.1-2.6,0.2-4,0.2c-3.1,0-5.1-0.4-5.4-0.6c0-0.1,0-0.1,0-0.1c0.1-0.1,0.3-0.3,0.5-0.4c0.2-0.1,0.3-0.3,0.3-0.5
		c-0.1-0.2-0.3-0.3-0.5-0.3c-2,0.5-3.1,1.2-3,2.1c0.1,1.5,3.7,2.3,6.7,2.5c0.4,0,0.9,0,1.4,0c0,0,0,0,0,0c5,0,11.5-1.6,11.5-1.6
		C45.1,50.4,45.2,50.2,45.3,50.1z"/>
	<linearGradient id="XMLID_16_" gradientUnits="userSpaceOnUse" x1="26.7756" y1="55.0389" x2="44.4964" y2="55.0389">
		<stop  offset="0" style="stop-color:#ADCCDC"/>
		<stop  offset="1" style="stop-color:#4C6C7B"/>
	</linearGradient>
	<path id="XMLID_13_" class="st8" d="M29.9,53.4c0.2-0.1,0.2-0.3,0.2-0.5c-0.1-0.2-0.2-0.3-0.4-0.3c-0.3,0-2.7,0.1-2.9,1.7
		c-0.1,0.5,0.1,0.9,0.4,1.2c0.9,1,3.2,1.6,7.1,1.9c0.5,0,0.9,0,1.4,0c5,0,8.4-1.6,8.5-1.6c0.1-0.1,0.2-0.2,0.2-0.4
		c0-0.2-0.1-0.3-0.2-0.4l-2.6-1.6c-0.1-0.1-0.2-0.1-0.3-0.1c0,0-1.7,0.3-4.1,0.7c-0.5,0.1-1.1,0.1-1.7,0.1c-2.5,0-5.2-0.4-5.7-0.7
		C29.8,53.5,29.8,53.4,29.9,53.4z"/>
	<linearGradient id="XMLID_17_" gradientUnits="userSpaceOnUse" x1="17.8474" y1="59.1753" x2="52.6639" y2="59.1753">
		<stop  offset="0" style="stop-color:#ADCCDC"/>
		<stop  offset="1" style="stop-color:#4C6C7B"/>
	</linearGradient>
	<path id="XMLID_14_" class="st9" d="M33.4,62.2c11.5,0,17.6-2.1,18.8-3.3c0.4-0.5,0.5-0.9,0.4-1.2c-0.1-0.7-0.7-1.1-0.8-1.2
		c-0.2-0.1-0.4-0.1-0.5,0.1c-0.1,0.2-0.1,0.4,0,0.5c0.1,0.1,0.1,0.2-0.1,0.5C50.8,58,46,59.4,38,59.8c-1.1,0.1-2.2,0.1-3.4,0.1
		c-7.1,0-12.4-1-13-1.5c0.3-0.4,2.1-1,4.1-1.3c0.2,0,0.4-0.2,0.3-0.5c0-0.2-0.2-0.4-0.5-0.3c-0.1,0-0.2,0-0.5,0
		c-3.2,0.2-7,0.6-7.2,2.3c-0.1,0.5,0.1,1,0.4,1.4C19.2,60.9,21.7,62.2,33.4,62.2C33.4,62.2,33.4,62.2,33.4,62.2z"/>
	<linearGradient id="XMLID_18_" gradientUnits="userSpaceOnUse" x1="25.0109" y1="61.9088" x2="54.7185" y2="61.9088">
		<stop  offset="0" style="stop-color:#ADCCDC"/>
		<stop  offset="1" style="stop-color:#4C6C7B"/>
	</linearGradient>
	<path id="XMLID_15_" class="st10" d="M54.5,59.2c-0.2-0.1-0.4,0-0.5,0.1c0,0-1.7,1.8-6.9,2.9c-2,0.4-5.7,0.6-11.1,0.6
		c-5.4,0-10.5-0.2-10.5-0.2c-0.2,0-0.4,0.1-0.4,0.4c0,0.2,0.1,0.4,0.3,0.5c0.1,0,5.4,1.3,12.7,1.3c3.5,0,6.9-0.3,10.2-0.8
		c6-1.1,6.5-4,6.5-4.2C54.7,59.5,54.6,59.3,54.5,59.2z"/>
</g>
<g class="st11">
	<path class="st12" d="M11.7,91L7.3,73.1h3.7l2.7,12.3l3.3-12.3h4.4l3.2,12.5l2.8-12.5h3.7L26.7,91h-3.9l-3.6-13.4L15.6,91H11.7z"/>
	<path class="st12" d="M47.9,91h-4l-1.6-4.1h-7.2L33.6,91h-3.9l7.1-17.9h3.9L47.9,91z M41.2,83.9l-2.5-6.6l-2.4,6.6H41.2z"/>
	<path class="st12" d="M49.9,91V73.1h7.7c1.9,0,3.3,0.2,4.2,0.5c0.9,0.3,1.6,0.9,2.1,1.7s0.8,1.8,0.8,2.8c0,1.3-0.4,2.5-1.2,3.3
		s-2,1.4-3.6,1.7c0.8,0.5,1.4,1,2,1.5c0.5,0.5,1.2,1.5,2.1,2.9l2.2,3.5h-4.4l-2.6-3.9c-0.9-1.4-1.6-2.3-1.9-2.6s-0.7-0.6-1.1-0.7
		c-0.4-0.1-1-0.2-1.8-0.2h-0.7V91H49.9z M53.5,80.7h2.7c1.8,0,2.9-0.1,3.3-0.2c0.4-0.1,0.8-0.4,1-0.8s0.4-0.8,0.4-1.3
		c0-0.6-0.2-1.1-0.5-1.5c-0.3-0.4-0.8-0.6-1.4-0.7c-0.3,0-1.2-0.1-2.7-0.1h-2.9V80.7z"/>
</g>
<g>
	
		<linearGradient id="SVGID_2_" gradientUnits="userSpaceOnUse" x1="45.0852" y1="74.1307" x2="58.5852" y2="87.6307" gradientTransform="matrix(1 0 0 -1 0 102)">
		<stop  offset="0" style="stop-color:#FFFFFF"/>
		<stop  offset="0.35" style="stop-color:#FAFBFB"/>
		<stop  offset="0.532" style="stop-color:#EDF1F4"/>
		<stop  offset="0.675" style="stop-color:#DDE5E9"/>
		<stop  offset="0.799" style="stop-color:#C7D3DA"/>
		<stop  offset="0.908" style="stop-color:#ADBDC7"/>
		<stop  offset="1" style="stop-color:#92A5B0"/>
	</linearGradient>
	<path class="st13" d="M45,1.1l27,26.7H45V1.1z"/>
	<path class="st14" d="M45,1.1l27,26.7H45V1.1z"/>
</g>
</svg>
