<svg id="Layer_2" xmlns="http://www.w3.org/2000/svg" viewBox="0 0 72 100"><style>.st0{fill:url(#SVGID_1_)}.st1{fill-opacity:0;stroke:#7191a1;stroke-width:2}.st2{fill:url(#SVGID_2_)}.st3{fill-opacity:0;stroke:#7191a1;stroke-width:2;stroke-linejoin:bevel}.st4{enable-background:new}.st5{fill:#4c6c7b}</style><linearGradient id="SVGID_1_" gradientUnits="userSpaceOnUse" x1="36" y1="127.8" x2="36" y2="29.8" gradientTransform="translate(0 -29)"><stop offset="0" stop-color="#c8d4db"/><stop offset=".139" stop-color="#d8e1e6"/><stop offset=".359" stop-color="#ebf0f3"/><stop offset=".617" stop-color="#f9fafb"/><stop offset="1" stop-color="#fff"/></linearGradient><path class="st0" d="M45 .8l27 26.7v71.3H0V.8h45z"/><path class="st1" d="M45 .8l27 26.7v71.3H0V.8h45z"/><linearGradient id="SVGID_2_" gradientUnits="userSpaceOnUse" x1="45.075" y1="56.575" x2="58.575" y2="43.075" gradientTransform="translate(0 -29)"><stop offset="0" stop-color="#fff"/><stop offset=".35" stop-color="#fafbfb"/><stop offset=".532" stop-color="#edf1f4"/><stop offset=".675" stop-color="#dde5e9"/><stop offset=".799" stop-color="#c7d3da"/><stop offset=".908" stop-color="#adbdc7"/><stop offset="1" stop-color="#92a5b0"/></linearGradient><path class="st2" d="M45 .8l27 26.7H45V.8z"/><path class="st3" d="M45 .8l27 26.7H45V.8z"/><g class="st4"><path class="st5" d="M7.4 89.8l-2.2-9.3h1.9l1.4 6.4 1.7-6.4h2.2L14 87l1.4-6.5h1.9L15 89.8h-2l-1.9-7-1.8 7H7.4zm11 0v-9.3h6.9v1.6h-5v2.1H25v1.6h-4.7v2.5h5.2v1.6h-7.1zm8.6-9.3h3.7c.7 0 1.3 0 1.6.1.4.1.7.2 1 .4.3.2.5.5.7.8.2.3.3.7.3 1.1 0 .4-.1.8-.4 1.2-.2.4-.6.6-1 .8.6.2 1 .4 1.3.8s.5.9.5 1.4c0 .4-.1.8-.3 1.2-.2.4-.5.7-.8 1-.3.2-.8.4-1.3.4-.3 0-1.1.1-2.3.1h-3v-9.3zm1.9 1.5v2.2h2.6c.3 0 .6-.1.8-.3.2-.2.3-.4.3-.7 0-.3-.1-.5-.2-.7-.2-.2-.4-.3-.7-.3h-2.8zm0 3.7v2.5h1.7c.7 0 1.1 0 1.3-.1.3-.1.5-.2.7-.4.2-.2.3-.5.3-.8 0-.3-.1-.5-.2-.7-.1-.2-.3-.3-.6-.4-.3-.1-.8-.1-1.7-.1h-1.5zm7.5 4.1v-9.3h1.9v9.3h-1.9zm3.6 0v-9.3h1.8l3.8 6.2v-6.2h1.7v9.3h-1.9l-3.8-6.1v6.1H40zm9.4 0v-9.3h6.4v1.6h-4.5v2.2h3.9v1.6h-3.9v4h-1.9zm7.6-4.6c0-.9.1-1.7.4-2.4.2-.5.5-.9.9-1.3s.8-.7 1.2-.8c.6-.2 1.2-.4 2-.4 1.4 0 2.5.4 3.3 1.3.8.9 1.2 2 1.2 3.5s-.4 2.7-1.2 3.5c-.8.9-1.9 1.4-3.3 1.4s-2.5-.4-3.3-1.3c-.8-.9-1.2-2-1.2-3.5zm1.9-.1c0 1.1.2 1.9.7 2.4.5.5 1.1.8 1.9.8s1.4-.3 1.8-.8c.5-.5.7-1.3.7-2.4 0-1.1-.2-1.9-.7-2.4-.5-.5-1.1-.8-1.9-.8s-1.4.3-1.9.8c-.4.6-.6 1.4-.6 2.4z"/></g></svg>