<svg id="Layer_1" xmlns="http://www.w3.org/2000/svg" viewBox="0 0 72 100"><style>.st0{fill:url(#SVGID_1_)}.st1{fill-opacity:0;stroke:#7191a1;stroke-width:2}.st2{fill:url(#SVGID_2_)}.st3{fill:url(#SVGID_3_)}.st4{fill-opacity:0;stroke:#7191a1;stroke-width:2;stroke-linejoin:bevel}.st5{enable-background:new}.st6{fill:#4c6c7b}</style><linearGradient id="SVGID_1_" gradientUnits="userSpaceOnUse" x1="36" y1="97" x2="36" y2="-1" gradientTransform="translate(0 2)"><stop offset="0" stop-color="#c8d4db"/><stop offset=".139" stop-color="#d8e1e6"/><stop offset=".359" stop-color="#ebf0f3"/><stop offset=".617" stop-color="#f9fafb"/><stop offset="1" stop-color="#fff"/></linearGradient><path class="st0" d="M45 1l27 26.7V99H0V1h45z"/><path class="st1" d="M45 1l27 26.7V99H0V1h45z"/><g transform="translate(0 -1036.362)"><linearGradient id="SVGID_2_" gradientUnits="userSpaceOnUse" x1="36.194" y1="1096.327" x2="36.194" y2="1057.079"><stop offset="0" stop-color="#869ba6"/><stop offset=".379" stop-color="#8399a4"/><stop offset=".576" stop-color="#7b929e"/><stop offset=".731" stop-color="#6d8694"/><stop offset=".863" stop-color="#5a7785"/><stop offset=".981" stop-color="#426373"/><stop offset=".99" stop-color="#416271"/></linearGradient><path class="st2" d="M57.2 1057.1l-19.3 2.6v15.3h19.3v-17.9zm-22.8 3l-19.3 2.6v12.3h19.3v-14.9zm-19.2 18.4v12.3l19.3 2.6v-14.8H15.2zm22.7 0v15.3l19.3 2.6v-17.9H37.9z"/></g><linearGradient id="SVGID_3_" gradientUnits="userSpaceOnUse" x1="45.037" y1="25.813" x2="58.537" y2="12.313" gradientTransform="translate(0 2)"><stop offset="0" stop-color="#fff"/><stop offset=".35" stop-color="#fafbfb"/><stop offset=".532" stop-color="#edf1f4"/><stop offset=".675" stop-color="#dde5e9"/><stop offset=".799" stop-color="#c7d3da"/><stop offset=".908" stop-color="#adbdc7"/><stop offset="1" stop-color="#92a5b0"/></linearGradient><path class="st3" d="M45 1l27 26.7H45V1z"/><path class="st4" d="M45 1l27 26.7H45V1z"/><g class="st5"><path class="st6" d="M10.4 91.9l-4.8-20h4.1l3 13.8 3.7-13.8h4.8l3.5 14 3.1-14h4.1l-4.9 20h-4.3l-4-15-4 15h-4.3zM33 85.4l3.9-.4c.2 1.3.7 2.3 1.4 2.9s1.7.9 2.9.9c1.3 0 2.3-.3 2.9-.8.7-.6 1-1.2 1-1.9 0-.5-.1-.9-.4-1.2-.3-.3-.8-.6-1.5-.9-.5-.2-1.6-.5-3.2-.9-2.2-.5-3.7-1.2-4.6-2-1.2-1.1-1.8-2.4-1.8-4 0-1 .3-2 .9-2.9.6-.9 1.4-1.6 2.5-2 1.1-.5 2.4-.7 3.9-.7 2.5 0 4.4.6 5.7 1.7s1.9 2.6 2 4.4l-4 .2c-.2-1-.5-1.8-1.1-2.2-.6-.5-1.4-.7-2.6-.7-1.2 0-2.1.2-2.8.7-.4.3-.6.7-.6 1.2s.2.9.6 1.2c.5.4 1.8.9 3.7 1.3s3.4.9 4.4 1.4 1.7 1.2 2.2 2 .8 1.9.8 3.2c0 1.1-.3 2.2-1 3.2-.6 1-1.5 1.7-2.7 2.2-1.2.5-2.6.7-4.4.7-2.5 0-4.5-.6-5.8-1.8-1.3-.9-2.1-2.6-2.3-4.8zm19.7 6.5v-20h13.7v3.4h-9.7V80h8.4v3.4h-8.4v8.5h-4z"/></g></svg>