<svg id="Layer_1" xmlns="http://www.w3.org/2000/svg" viewBox="0 0 72 100"><style>.st0{fill:url(#SVGID_1_)}.st1{fill-opacity:0;stroke:#7191a1;stroke-width:2}.st2{fill:url(#SVGID_2_)}.st3{fill-opacity:0;stroke:#7191a1;stroke-width:2;stroke-linejoin:bevel}.st4{enable-background:new}.st5{fill:#4c6c7b}.st6{fill:url(#SVGID_3_)}.st7{fill:url(#SVGID_4_)}</style><linearGradient id="SVGID_1_" gradientUnits="userSpaceOnUse" x1="36" y1="97" x2="36" y2="-1" gradientTransform="translate(0 2)"><stop offset="0" stop-color="#c8d4db"/><stop offset=".139" stop-color="#d8e1e6"/><stop offset=".359" stop-color="#ebf0f3"/><stop offset=".617" stop-color="#f9fafb"/><stop offset="1" stop-color="#fff"/></linearGradient><path class="st0" d="M45 1l27 26.7V99H0V1h45z"/><path class="st1" d="M45 1l27 26.7V99H0V1h45z"/><linearGradient id="SVGID_2_" gradientUnits="userSpaceOnUse" x1="45.037" y1="25.813" x2="58.537" y2="12.313" gradientTransform="translate(0 2)"><stop offset="0" stop-color="#fff"/><stop offset=".35" stop-color="#fafbfb"/><stop offset=".532" stop-color="#edf1f4"/><stop offset=".675" stop-color="#dde5e9"/><stop offset=".799" stop-color="#c7d3da"/><stop offset=".908" stop-color="#adbdc7"/><stop offset="1" stop-color="#92a5b0"/></linearGradient><path class="st2" d="M45 1l27 26.7H45V1z"/><path class="st3" d="M45 1l27 26.7H45V1z"/><g class="st4"><path class="st5" d="M5.1 91.5l5.4-8.2-4.9-7.5h3.8l3.2 5.1 3.1-5.1h3.7l-4.9 7.6 5.4 8.1H16l-3.5-5.4L9 91.5H5.1zm30.7 0h-3.5L31 88h-6.4l-1.3 3.6h-3.4l6.2-15.7h3.4l6.3 15.6zm-5.9-6.2l-2.2-5.8-2.1 5.8h4.3zm7.6 6.2V75.8h4.8l2.9 10.7 2.9-10.7h4.8v15.7h-3V79.1l-3.2 12.4h-3.1l-3.1-12.4v12.4h-3zm18.6 0V75.9h3.2v13h8v2.7H56.1z"/></g><linearGradient id="SVGID_3_" gradientUnits="userSpaceOnUse" x1="19.25" y1="35.742" x2="19.25" y2="59.242"><stop offset="0" stop-color="#869ba6"/><stop offset=".379" stop-color="#8399a4"/><stop offset=".576" stop-color="#7b929e"/><stop offset=".731" stop-color="#6d8694"/><stop offset=".863" stop-color="#5a7785"/><stop offset=".981" stop-color="#426373"/><stop offset=".99" stop-color="#416271"/></linearGradient><path class="st6" d="M30.8 40.9l-16.7 6.6 16.7 6.6v5.2l-23-9.1v-5.3l23-9.1z"/><linearGradient id="SVGID_4_" gradientUnits="userSpaceOnUse" x1="53.25" y1="40.806" x2="53.25" y2="64.306" gradientTransform="matrix(1 0 0 -1 0 100)"><stop offset="0" stop-color="#869ba6"/><stop offset=".379" stop-color="#8399a4"/><stop offset=".576" stop-color="#7b929e"/><stop offset=".731" stop-color="#6d8694"/><stop offset=".863" stop-color="#5a7785"/><stop offset=".981" stop-color="#426373"/><stop offset=".99" stop-color="#416271"/></linearGradient><path class="st7" d="M41.8 54.1l16.6-6.6-16.6-6.6v-5.2l23 9.1v5.3l-23 9.1z"/></svg>