<?xml version="1.0" encoding="utf-8"?>
<svg version="1.1" id="Layer_2" xmlns="http://www.w3.org/2000/svg" xmlns:xlink="http://www.w3.org/1999/xlink" x="0px" y="0px" viewBox="0 0 72 100" style="enable-background:new 0 0 72 100;" xml:space="preserve">
    <style type="text/css">
	.st0{fill:url(#SVGID_1_);}
	.st1{fill-opacity:0;stroke:#7191A1;stroke-width:2;}
	.st2{fill:url(#SVGID_2_);}
	.st3{fill-opacity:0;stroke:#7191A1;stroke-width:2;stroke-linejoin:bevel;}
	.st4{enable-background:new    ;}
	.st5{fill:#4C6C7B;}
</style>
    <g>
        <linearGradient id="SVGID_1_" gradientUnits="userSpaceOnUse" x1="36" y1="127.8" x2="36" y2="29.8" gradientTransform="matrix(1 0 0 1 0 -29)">
            <stop offset="0" style="stop-color:#C8D4DB"></stop>
            <stop offset="0.139" style="stop-color:#D8E1E6"></stop>
            <stop offset="0.359" style="stop-color:#EBF0F3"></stop>
            <stop offset="0.617" style="stop-color:#F9FAFB"></stop>
            <stop offset="1" style="stop-color:#FFFFFF"></stop>
        </linearGradient>
        <path class="st0" d="M45,0.8l27,26.7v71.3H0v-98L45,0.8z"></path>
        <path class="st1" d="M45,0.8l27,26.7v71.3H0v-98L45,0.8z"></path>
    </g>
    <g>
        <linearGradient id="SVGID_2_" gradientUnits="userSpaceOnUse" x1="45.075" y1="56.575" x2="58.575" y2="43.075" gradientTransform="matrix(1 0 0 1 0 -29)">
            <stop offset="0" style="stop-color:#FFFFFF"></stop>
            <stop offset="0.35" style="stop-color:#FAFBFB"></stop>
            <stop offset="0.532" style="stop-color:#EDF1F4"></stop>
            <stop offset="0.675" style="stop-color:#DDE5E9"></stop>
            <stop offset="0.799" style="stop-color:#C7D3DA"></stop>
            <stop offset="0.908" style="stop-color:#ADBDC7"></stop>
            <stop offset="1" style="stop-color:#92A5B0"></stop>
        </linearGradient>
        <path class="st2" d="M45,0.8l27,26.7H45V0.8z"></path>
        <path class="st3" d="M45,0.8l27,26.7H45V0.8z"></path>
    </g>
    <g class="st4">
        <path class="st5" d="M11.5,89.8v-6.9l-6-9.5h3.9l3.9,6.5l3.8-6.5h3.8l-6.1,9.6v6.9H11.5z"></path>
        <path class="st5" d="M35.3,89.8h-3.6l-1.4-3.7h-6.6l-1.4,3.7h-3.5l6.4-16.5h3.5L35.3,89.8z M29.1,83.3l-2.3-6.1l-2.2,6.1H29.1z"></path>
        <path class="st5" d="M37,89.8V73.3h5l3,11.2l3-11.2h5v16.5h-3.1v-13l-3.3,13h-3.2l-3.3-13v13H37z"></path>
        <path class="st5" d="M56.3,89.8V73.5h3.3V87h8.3v2.8H56.3z"></path>
    </g>
</svg>