<?xml version="1.0" encoding="utf-8"?>
<!-- Generator: Adobe Illustrator 21.1.0, SVG Export Plug-In . SVG Version: 6.00 Build 0)  -->
<svg version="1.1" id="Layer_1" xmlns="http://www.w3.org/2000/svg" xmlns:xlink="http://www.w3.org/1999/xlink" x="0px" y="0px"
	 viewBox="0 0 72 96" style="enable-background:new 0 0 72 96;" xml:space="preserve">
<style type="text/css">
	.st0{fill:#FF6600;}
	.st1{fill:#FFFFFF;}
</style>
<g>
	<path class="st0" d="M0,2l0,92c0,1.1,0.9,2,2,2h68c1.1,0,2-0.9,2-2V28H50c-1.1,0-2-0.9-2-2V0L2,0C0.9,0,0,0.9,0,2z"/>
	<path class="st0" d="M71.9,24c-0.1-0.4-0.2-0.7-0.4-1L52,1.2V24H71.9z"/>
</g>
<rect x="6" y="41" class="st1" width="60" height="49"/>
<g>
	<path class="st1" d="M7.5,17c0.4,0.4,1.1,0.7,1.7,0.7c0.9,0,1.6-0.4,1.6-1.6c0-1-0.7-1.5-2.3-1.5H7.6L7,12.8l2-2.5
		c0.5-0.6,0.9-1,0.9-1v0c0,0-0.4,0.1-1.1,0.1H6.5V6.4h7.2V9l-2.6,3.1c2,0.5,3.1,2.1,3.1,4.1c0,2.4-1.4,4.8-4.7,4.8
		c-1.3,0-2.5-0.4-3.5-1.3L7.5,17z"/>
	<path class="st1" d="M23.1,6.1c1.4,0,2.9,0.4,3.9,1.3l-1.4,2.8c-0.6-0.6-1.4-0.9-2.3-0.9c-2.2,0-3.2,1.9-3.2,4.2
		c0,2.6,1.2,4.3,2.9,4.3c0.6,0,1.3-0.2,1.7-0.6v-1.7h-1.5v-2.9h4.3v8.1h-2.6v-0.4c0-0.2,0-0.5,0-0.5h0c-0.5,0.7-1.6,1.2-2.7,1.2
		c-2.8,0-5.6-2.7-5.6-7.3C16.8,9.2,19.3,6.1,23.1,6.1z"/>
	<path class="st1" d="M31,6.4h4.5c2.6,0,4.4,2,4.4,4.9c0,2.9-1.7,5-4.4,5h-1.2v4.4H31V6.4z M34.9,13.4c1,0,1.6-0.9,1.6-2.1
		s-0.7-2-1.6-2h-0.7v4.1H34.9z"/>
</g>
<path class="st0" d="M13,83.1h46V47.9H13V83.1z M21.9,80.4h-5.5v-3.9h5.5V80.4L21.9,80.4z M38.8,80.4h-5.5v-3.9h5.5L38.8,80.4
	L38.8,80.4z M50.1,50.3h5.5v4h-5.5V50.3z M50.1,76.4h5.5v3.9h-5.5L50.1,76.4L50.1,76.4z M41.6,50.3H47v3.9h-5.5V50.3z M41.6,76.4H47
	v3.9h-5.5L41.6,76.4L41.6,76.4z M33.2,50.3h5.5v3.9h-5.5V50.3z M32.4,60l7.2,4.1c1.3,0.8,1.3,2,0,2.8L32.4,71
	c-1.3,0.8-2.4,0.1-2.4-1.4v-8.3C30,59.9,31.1,59.2,32.4,60z M24.7,50.3h5.4v3.9h-5.4V50.3z M24.7,76.4h5.4v3.9h-5.4V76.4L24.7,76.4z
	 M16.4,50.3h5.5v4h-5.5V50.3z"/>
</svg>
