<?xml version="1.0" encoding="utf-8"?>
<!-- Generator: Adobe Illustrator 21.1.0, SVG Export Plug-In . SVG Version: 6.00 Build 0)  -->
<svg version="1.1" id="Layer_1" xmlns="http://www.w3.org/2000/svg" xmlns:xlink="http://www.w3.org/1999/xlink" x="0px" y="0px"
	 viewBox="0 0 72 96" style="enable-background:new 0 0 72 96;" xml:space="preserve">
<style type="text/css">
	.st0{fill:#FEA500;}
	.st1{fill:#FFFFFF;}
	.st2{fill:#FEA500;stroke:#FEA500;stroke-width:1.25;stroke-miterlimit:10;}
</style>
<g>
	<path class="st0" d="M0,2l0,92c0,1.1,0.9,2,2,2h68c1.1,0,2-0.9,2-2V28H50c-1.1,0-2-0.9-2-2V0L2,0C0.9,0,0,0.9,0,2z"/>
	<path class="st0" d="M71.9,24c-0.1-0.4-0.2-0.7-0.4-1L52,1.2V24H71.9z"/>
</g>
<rect x="6" y="41" class="st1" width="60" height="49"/>
<g>
	<path class="st1" d="M9,6.4h3.6l3.6,14.3h-3.3l-0.6-3h-3l-0.6,3H5.4L9,6.4z M11.8,15l-0.6-2.8c-0.2-0.9-0.4-2.5-0.4-2.5h-0.1
		c0,0-0.2,1.5-0.4,2.5L9.8,15H11.8z"/>
	<path class="st1" d="M18.7,6.4H22v14.3h-3.3V6.4z"/>
</g>
<g>
	<path class="st2" d="M37.8,80.3l-2.7-8.7H25l-2.7,8.7h-3.7l9.7-28.9h3.7l9.8,28.9H37.8z M31,58.4c-0.3-1.1-0.7-2.6-0.8-3.7h-0.1
		c-0.2,1-0.5,2.5-0.9,3.7l-3.4,10.9h8.6L31,58.4z"/>
	<path class="st2" d="M47.7,53.4c-1.2,0-2.2-0.9-2.2-2.1s1-2.1,2.2-2.1s2.2,0.9,2.2,2.1S48.9,53.4,47.7,53.4z M45.9,80.3V57.7h3.7
		v22.6H45.9z"/>
</g>
</svg>
