<?xml version="1.0" encoding="utf-8"?>
<!-- Generator: Adobe Illustrator 21.1.0, SVG Export Plug-In . SVG Version: 6.00 Build 0)  -->
<svg version="1.1" id="Layer_1" xmlns="http://www.w3.org/2000/svg" xmlns:xlink="http://www.w3.org/1999/xlink" x="0px" y="0px"
	 viewBox="0 0 72 96" style="enable-background:new 0 0 72 96;" xml:space="preserve">
<style type="text/css">
	.st0{fill:#8ED200;}
	.st1{fill:#FFFFFF;}
</style>
<g>
	<path class="st0" d="M0,2l0,92c0,1.1,0.9,2,2,2h68c1.1,0,2-0.9,2-2V28H50c-1.1,0-2-0.9-2-2V0L2,0C0.9,0,0,0.9,0,2z"/>
	<path class="st0" d="M71.9,24c-0.1-0.4-0.2-0.7-0.4-1L52,1.2V24H71.9z"/>
</g>
<rect x="6" y="41" class="st1" width="60" height="49"/>
<g>
	<path class="st1" d="M9,6.4h3.6l3.6,14.3h-3.3l-0.6-3h-3l-0.6,3H5.4L9,6.4z M11.8,15l-0.6-2.8c-0.2-0.9-0.4-2.5-0.4-2.5h-0.1
		c0,0-0.2,1.5-0.4,2.5L9.8,15H11.8z"/>
	<path class="st1" d="M18.7,6.4h3.5l2.4,6.6c0.4,1,0.7,2.4,0.7,2.4h0.1c0,0-0.2-1.5-0.2-2.4V6.4h3.1v14.3h-3.4l-2.5-6.6
		c-0.4-1-0.7-2.4-0.7-2.4h-0.1c0,0,0.2,1.5,0.2,2.4v6.6h-3.1V6.4z"/>
	<path class="st1" d="M32,6.4h3.3v14.3H32V6.4z"/>
</g>
<path class="st0" d="M47.9,48.5H24.1c-1.2,0-2.1,0.9-2.1,2.1l0,0c0,1.2,0.9,2.1,2.1,2.1h0.1v2.1c0,4.4,2.7,8.3,6.7,9.9
	c0.2,0.1,0.4,0.3,0.4,0.5v0.2c0,0.2-0.2,0.4-0.4,0.5c-4.1,1.6-6.8,5.5-6.7,9.9v2.1h-0.1c-1.2,0-2.1,0.9-2.1,2.1l0,0
	c0,1.2,0.9,2.1,2.1,2.1h23.8c1.2,0,2.1-0.9,2.1-2.1l0,0c0-1.2-0.9-2.1-2.1-2.1h-0.1v-2.1c0-4.4-2.7-8.3-6.7-9.9
	c-0.2-0.1-0.4-0.3-0.4-0.5v-0.2c0-0.2,0.2-0.4,0.4-0.5c4.1-1.6,6.8-5.5,6.7-9.9v-2.1h0.1c1.2,0,2.1-0.9,2.1-2.1l0,0
	C50,49.4,49.1,48.5,47.9,48.5z M45,54.8c0,3.2-2,6.1-5,7.3c-1.3,0.5-2.2,1.7-2.2,3.1v0.2c0,1.4,0.9,2.6,2.2,3.1c3,1.2,5,4.1,5,7.3
	v2.1H27v-2.1c0-3.2,2-6.1,5-7.3c1.3-0.5,2.2-1.7,2.2-3.1v-0.2c0-1.4-0.9-2.6-2.2-3.1c-3-1.2-5-4.1-5-7.3v-2.1H45V54.8z M29.8,58.4
	c-0.2-0.3-0.1-0.7,0.2-0.9c0.1-0.1,0.2-0.1,0.4-0.1h11.3c0.3,0,0.6,0.3,0.6,0.6c0,0.1,0,0.3-0.1,0.4c-0.7,1-1.6,1.7-2.7,2.1
	c-1.2,0.4-2.1,1.3-2.7,2.4c-0.2,0.4-0.7,0.6-1.1,0.3c-0.1-0.1-0.3-0.2-0.3-0.3c-0.6-1.1-1.5-2-2.7-2.4C31.5,60,30.5,59.3,29.8,58.4z
	 M37.8,71c0.6,0.5,1.4,0.8,2.2,0.8l0,0c1.5,0,2.8,1,3.1,2.5l0,0.1c0.1,0.3,0.1,0.6,0.1,1l0,0c0,0.4-0.3,0.7-0.7,0.7c0,0,0,0,0,0
	H29.4c-0.4,0-0.7-0.3-0.7-0.7c0,0,0,0,0,0c0-0.3,0.1-0.7,0.1-1l0-0.1c0.4-1.4,1.7-2.4,3.2-2.4c0.8,0,1.6-0.3,2.2-0.8
	c0.4-0.4,0.8-0.8,1-1.3c0.2-0.3,0.5-0.5,0.9-0.4c0.3,0.1,0.5,0.2,0.6,0.4C37,70.2,37.3,70.6,37.8,71z"/>
</svg>
