<?xml version="1.0" encoding="utf-8"?>
<!-- Generator: Adobe Illustrator 21.1.0, SVG Export Plug-In . SVG Version: 6.00 Build 0)  -->
<svg version="1.1" id="Layer_1" xmlns="http://www.w3.org/2000/svg" xmlns:xlink="http://www.w3.org/1999/xlink" x="0px" y="0px"
	 viewBox="0 0 72 96" style="enable-background:new 0 0 72 96;" xml:space="preserve">
<style type="text/css">
	.st0{fill:#333333;}
	.st1{fill:#FFFFFF;}
	.st2{fill:#A4CA39;}
</style>
<g>
	<path class="st0" d="M0,2l0,92c0,1.1,0.9,2,2,2h68c1.1,0,2-0.9,2-2V28H50c-1.1,0-2-0.9-2-2V0L2,0C0.9,0,0,0.9,0,2z"/>
	<path class="st0" d="M71.9,24c-0.1-0.4-0.2-0.7-0.4-1L52,1.2V24H71.9z"/>
</g>
<rect x="6" y="41" class="st1" width="60" height="49"/>
<g>
	<path class="st1" d="M9,6.4h3.6l3.6,14.3h-3.3l-0.6-3h-3l-0.6,3H5.4L9,6.4z M11.8,15l-0.6-2.8c-0.2-0.9-0.4-2.5-0.4-2.5h-0.1
		c0,0-0.2,1.5-0.4,2.5L9.8,15H11.8z"/>
	<path class="st1" d="M18.7,6.4h4.5c2.6,0,4.4,2,4.4,4.9c0,2.9-1.7,5-4.4,5H22v4.4h-3.3V6.4z M22.6,13.4c1,0,1.6-0.9,1.6-2.1
		s-0.7-2-1.6-2H22v4.1H22.6z"/>
	<path class="st1" d="M30.5,6.4h3.3v5.5h0.6l2.3-5.5h3.5l-2.9,6.8v0l3,7.4h-3.7l-2.3-5.8h-0.6v5.8h-3.3V6.4z"/>
</g>
<g>
	<g id="android">
		<path class="st2" d="M26.7,75.1c0,0.9,0.6,1.5,1.5,1.5h1.6v5.4c0,1.2,1.1,2.3,2.3,2.3c1.2,0,2.3-1.1,2.3-2.3v-5.4h3.1v5.4
			c0,1.2,1.1,2.3,2.3,2.3c1.2,0,2.3-1.1,2.3-2.3v-5.4h1.5c0.9,0,1.5-0.6,1.5-1.6V59.6H26.7V75.1z M22.8,59.6c-1.2,0-2.3,1.1-2.3,2.3
			v10.8c0,1.2,1.1,2.3,2.3,2.3c1.2,0,2.3-1.1,2.3-2.3V61.9C25.1,60.7,24.1,59.6,22.8,59.6z M49.2,59.6c-1.2,0-2.3,1.1-2.3,2.3v10.8
			c0,1.2,1.1,2.3,2.3,2.3c1.2,0,2.3-1.1,2.3-2.3V61.9C51.5,60.7,50.4,59.6,49.2,59.6z M41.4,50.6l2-2c0.3-0.3,0.3-0.8,0-1.1
			c-0.3-0.3-0.8-0.3-1.1,0L40,49.8c-1.1-0.8-2.5-1.1-4-1.1c-1.6,0-2.9,0.3-4.2,0.9l-2.2-2.3c-0.3-0.2-0.9-0.2-1.2,0
			c-0.2,0.3-0.2,0.9,0,1.2l2,2c-2.2,1.7-3.7,4.3-3.7,7.4h18.6C45.3,54.9,43.8,52.2,41.4,50.6z M32.9,54.9h-1.6v-1.5h1.6V54.9z
			 M40.7,54.9h-1.6v-1.5h1.6V54.9z"/>
	</g>
</g>
</svg>
