<?xml version="1.0" encoding="utf-8"?>
<!-- Generator: Adobe Illustrator 21.1.0, SVG Export Plug-In . SVG Version: 6.00 Build 0)  -->
<svg version="1.1" id="Layer_1" xmlns="http://www.w3.org/2000/svg" xmlns:xlink="http://www.w3.org/1999/xlink" x="0px" y="0px"
	 viewBox="0 0 72 96" style="enable-background:new 0 0 72 96;" xml:space="preserve">
<style type="text/css">
	.st0{fill:#FFFFFF;}
</style>
<g>
	<path d="M0,2l0,92c0,1.1,0.9,2,2,2h68c1.1,0,2-0.9,2-2V28H50c-1.1,0-2-0.9-2-2V0L2,0C0.9,0,0,0.9,0,2z"/>
	<path d="M71.9,24c-0.1-0.4-0.2-0.7-0.4-1L52,1.2V24H71.9z"/>
</g>
<rect x="6" y="41" class="st0" width="60" height="49"/>
<g>
	<path class="st0" d="M9,6.4h3.6l3.6,14.3h-3.3l-0.6-3h-3l-0.6,3H5.4L9,6.4z M11.8,15l-0.6-2.8c-0.2-0.9-0.4-2.5-0.4-2.5h-0.1
		c0,0-0.2,1.5-0.4,2.5L9.8,15H11.8z"/>
	<path class="st0" d="M18.7,6.4h4.5c2.6,0,4.4,2,4.4,4.9c0,2.9-1.7,5-4.4,5H22v4.4h-3.3V6.4z M22.6,13.4c1,0,1.6-0.9,1.6-2.1
		s-0.7-2-1.6-2H22v4.1H22.6z"/>
	<path class="st0" d="M30.5,6.4H35c2.6,0,4.4,2,4.4,4.9c0,2.9-1.7,5-4.4,5h-1.2v4.4h-3.3V6.4z M34.4,13.4c1,0,1.6-0.9,1.6-2.1
		s-0.7-2-1.6-2h-0.7v4.1H34.4z"/>
</g>
<path d="M53.8,69.2c-1.6-0.5-2.7-2-2.7-3.7s1.1-3.2,2.7-3.7c0.5-0.2,0.8-0.7,0.6-1.2c-0.5-1.8-1.1-3.4-2.1-5
	c-0.3-0.5-0.8-0.6-1.3-0.4c-0.6,0.3-1.2,0.5-1.9,0.5c-2.2,0-3.9-1.8-3.9-3.9c0-0.7,0.2-1.3,0.5-1.9c0.3-0.5,0.1-1-0.4-1.3
	c-1.6-0.9-3.3-1.6-5-2.1c-0.5-0.1-1,0.1-1.2,0.6c-0.5,1.6-2,2.7-3.7,2.7s-3.2-1.1-3.7-2.7c-0.2-0.5-0.7-0.8-1.2-0.6
	c-1.8,0.5-3.4,1.1-5,2.1c-0.5,0.3-0.6,0.8-0.4,1.3c0.3,0.6,0.5,1.2,0.5,1.9c0,2.2-1.8,3.9-3.9,3.9c-0.7,0-1.3-0.2-1.9-0.5
	c-0.5-0.3-1-0.1-1.3,0.4c-0.9,1.6-1.6,3.3-2.1,5c-0.1,0.5,0.1,1,0.6,1.2c1.6,0.5,2.7,2,2.7,3.7c0,1.7-1.1,3.2-2.7,3.7
	c-0.5,0.2-0.8,0.7-0.6,1.2c0.5,1.8,1.1,3.4,2.1,5c0.3,0.5,0.8,0.6,1.3,0.4c0.6-0.3,1.2-0.5,1.9-0.5c2.2,0,3.9,1.8,3.9,3.9
	c0,0.7-0.2,1.3-0.5,1.9c-0.3,0.5-0.1,1,0.4,1.3c1.6,0.9,3.3,1.6,5,2.1c0.1,0,0.2,0,0.2,0c0.4,0,0.8-0.3,0.9-0.7
	c0.5-1.6,2-2.7,3.7-2.7c1.7,0,3.2,1.1,3.7,2.7c0.2,0.5,0.7,0.8,1.2,0.6c1.8-0.5,3.4-1.1,5-2.1c0.5-0.3,0.6-0.8,0.4-1.3
	c-0.3-0.6-0.5-1.2-0.5-1.9c0-2.2,1.8-3.9,3.9-3.9c0.7,0,1.3,0.2,1.9,0.5c0.5,0.3,1,0.1,1.3-0.4c0.9-1.6,1.6-3.3,2.1-5
	C54.6,69.9,54.3,69.4,53.8,69.2z M35.5,71.4c-3.2,0-5.9-2.6-5.9-5.9c0-3.2,2.6-5.9,5.9-5.9c3.2,0,5.9,2.6,5.9,5.9
	C41.4,68.7,38.7,71.4,35.5,71.4z"/>
</svg>
