<?xml version="1.0" encoding="utf-8"?>
<!-- Generator: Adobe Illustrator 21.1.0, SVG Export Plug-In . SVG Version: 6.00 Build 0)  -->
<svg version="1.1" id="Layer_1" xmlns="http://www.w3.org/2000/svg" xmlns:xlink="http://www.w3.org/1999/xlink" x="0px" y="0px"
	 viewBox="0 0 72 96" style="enable-background:new 0 0 72 96;" xml:space="preserve">
<style type="text/css">
	.st0{fill:#003399;}
	.st1{fill:#FFFFFF;}
</style>
<g>
	<path class="st0" d="M0,2l0,92c0,1.1,0.9,2,2,2h68c1.1,0,2-0.9,2-2V28H50c-1.1,0-2-0.9-2-2V0L2,0C0.9,0,0,0.9,0,2z"/>
	<path class="st0" d="M71.9,24c-0.1-0.4-0.2-0.7-0.4-1L52,1.2V24H71.9z"/>
</g>
<rect x="6" y="41" class="st1" width="60" height="49"/>
<g>
	<path class="st1" d="M9,6.4h3.6l3.6,14.3h-3.3l-0.6-3h-3l-0.6,3H5.4L9,6.4z M11.8,15l-0.6-2.8c-0.2-0.9-0.4-2.5-0.4-2.5h-0.1
		c0,0-0.2,1.5-0.4,2.5L9.8,15H11.8z"/>
	<path class="st1" d="M19.4,16.7c0.6,0.6,1.4,1.2,2.3,1.2c0.9,0,1.3-0.6,1.3-1.2c0-2-4.8-2.1-4.8-6.2c0-2.4,1.7-4.3,4.5-4.3
		c1.2,0,2.4,0.3,3.4,1l-1.2,2.9c-0.5-0.4-1.4-0.9-2.2-0.9c-0.9,0-1.3,0.6-1.3,1.2c0,2.1,4.8,2,4.8,6.1c0,2.3-1.5,4.4-4.4,4.4
		c-1.4,0-2.9-0.5-4-1.4L19.4,16.7z"/>
	<path class="st1" d="M31.7,13.6l-3.4-7.2h3.6l1.1,2.9c0.3,0.9,0.6,1.8,0.6,1.8h0c0,0,0.2-0.9,0.6-1.8l1.2-2.9H39l-3.4,7.2l3.3,7.1
		h-3.5l-1.1-3c-0.4-0.9-0.6-1.7-0.6-1.7h0c0,0-0.2,0.8-0.6,1.7l-1.1,3h-3.5L31.7,13.6z"/>
</g>
<path class="st0" d="M47,66c-3.1-1.2-6.7,0.3-8,3.4c-1.2,3.1,0.3,6.7,3.4,8c0.6,0.3,1.3,0.4,2,0.4c3.5,0.1,6.4-2.6,6.4-6
	c0-7.8,0-15.5,0-23.3c0-0.2,0-0.3,0-0.6c-0.2,0-0.3,0.1-0.5,0.1c-6.8,1.9-13.5,3.9-20.3,5.8c-0.6,0.2-0.6,0.5-0.6,1v16.8
	c-0.5-0.2-0.7-0.3-1.1-0.4c-2.5-0.9-4.7-0.4-6.5,1.4c-1.8,1.7-2.3,4.3-1.3,6.6c1.3,3.1,4.9,4.6,8,3.4c2.3-1,3.8-3.2,3.8-5.7
	c0-5.2,0-10.4,0-15.6c0-0.7,0.2-0.9,0.9-1.1c3.3-0.9,6.6-1.9,10-2.8l4.8-1.4v10.4C47.5,66.2,47.3,66.1,47,66z"/>
</svg>
