<?xml version="1.0" encoding="utf-8"?>
<!-- Generator: Adobe Illustrator 21.1.0, SVG Export Plug-In . SVG Version: 6.00 Build 0)  -->
<svg version="1.1" id="Layer_1" xmlns="http://www.w3.org/2000/svg" xmlns:xlink="http://www.w3.org/1999/xlink" x="0px" y="0px"
	 viewBox="0 0 72 96" style="enable-background:new 0 0 72 96;" xml:space="preserve">
<style type="text/css">
	.st0{fill:#003399;}
	.st1{fill:#FFFFFF;}
	.st2{fill:#003399;stroke:#003399;stroke-width:0.25;stroke-miterlimit:10;}
</style>
<g>
	<path class="st0" d="M0,2l0,92c0,1.1,0.9,2,2,2h68c1.1,0,2-0.9,2-2V28H50c-1.1,0-2-0.9-2-2V0L2,0C0.9,0,0,0.9,0,2z"/>
	<path class="st0" d="M71.9,24c-0.1-0.4-0.2-0.7-0.4-1L52,1.2V24H71.9z"/>
</g>
<rect x="6" y="41" class="st1" width="60" height="49"/>
<g>
	<path class="st1" d="M9,6.4h3.6l3.6,14.3h-3.3l-0.6-3h-3l-0.6,3H5.4L9,6.4z M11.8,15l-0.6-2.8c-0.2-0.9-0.4-2.5-0.4-2.5h-0.1
		c0,0-0.2,1.5-0.4,2.5L9.8,15H11.8z"/>
	<path class="st1" d="M18.5,6.4h3.3V16c0,1.4,0.6,1.9,1.5,1.9c0.9,0,1.5-0.5,1.5-1.9V6.4H28V16c0,3-1.9,4.9-4.7,4.9
		c-2.9,0-4.8-1.9-4.8-4.9V6.4z"/>
	<path class="st1" d="M31.6,6.4h4.5c2.6,0,4.4,2,4.4,4.9c0,2.9-1.7,5-4.4,5h-1.2v4.4h-3.3V6.4z M35.5,13.4c1,0,1.6-0.9,1.6-2.1
		s-0.7-2-1.6-2h-0.7v4.1H35.5z"/>
</g>
<g>
	<polygon class="st2" points="22.9,74.1 15.2,65.5 15.2,65.4 22.9,56.9 22.9,51.2 12.7,63.2 12.7,67.7 22.9,79.7 	"/>
	<polygon class="st2" points="48.9,51.2 48.9,56.9 56.8,65.4 56.8,65.5 48.9,74.1 48.9,79.7 59.1,67.9 59.1,63 	"/>
	<path class="st2" d="M41.1,55.6c-1.3-0.6-3-1.6-3.6-3c0-0.7-0.6-1.3-1.3-1.3s-1.3,0.6-1.3,1.3V70c-1.3-0.7-3.9-0.5-6,0.6
		c-3,1.7-4.4,4.9-3,7.2c1.3,2.2,5,2.7,8,1c2.1-1.2,3.6-3.2,3.6-5.2c0-5.1,0-10,0-15c4.4,0,7,1.8,6,6c-0.2,0.8-0.4,1.6-0.8,2.3l0,0
		c-0.2,0.3-0.2,0.5,0.1,0.8c0.2,0.2,0.6,0.2,1-0.2c1.7-1.6,2.7-3.7,2.8-6C46.7,58.6,43.7,56.7,41.1,55.6z"/>
</g>
</svg>
