<?xml version="1.0" encoding="utf-8"?>
<!-- Generator: Adobe Illustrator 21.1.0, SVG Export Plug-In . SVG Version: 6.00 Build 0)  -->
<svg version="1.1" id="Layer_1" xmlns="http://www.w3.org/2000/svg" xmlns:xlink="http://www.w3.org/1999/xlink" x="0px" y="0px"
	 viewBox="0 0 72 96" style="enable-background:new 0 0 72 96;" xml:space="preserve">
<style type="text/css">
	.st0{fill:#003399;}
	.st1{fill:#FFFFFF;}
	.st2{fill:#003399;stroke:#003399;stroke-width:0.5;stroke-miterlimit:10;}
</style>
<g>
	<path class="st0" d="M0,2l0,92c0,1.1,0.9,2,2,2h68c1.1,0,2-0.9,2-2V28H50c-1.1,0-2-0.9-2-2V0L2,0C0.9,0,0,0.9,0,2z"/>
	<path class="st0" d="M71.9,24c-0.1-0.4-0.2-0.7-0.4-1L52,1.2V24H71.9z"/>
</g>
<rect x="6" y="41" class="st1" width="60" height="49"/>
<g>
	<path class="st1" d="M9,6.4h3.6l3.6,14.3h-3.3l-0.6-3h-3l-0.6,3H5.4L9,6.4z M11.8,15l-0.6-2.8c-0.2-0.9-0.4-2.5-0.4-2.5h-0.1
		c0,0-0.2,1.5-0.4,2.5L9.8,15H11.8z"/>
	<path class="st1" d="M18.5,6.4h3.3V16c0,1.4,0.6,1.9,1.5,1.9c0.9,0,1.5-0.5,1.5-1.9V6.4H28V16c0,3-1.9,4.9-4.7,4.9
		c-2.9,0-4.8-1.9-4.8-4.9V6.4z"/>
	<path class="st1" d="M31.6,6.4h4.5c2.6,0,4.4,2,4.4,4.9c0,2.9-1.7,5-4.4,5h-1.2v4.4h-3.3V6.4z M35.5,13.4c1,0,1.6-0.9,1.6-2.1
		s-0.7-2-1.6-2h-0.7v4.1H35.5z"/>
</g>
<g>
	<polygon class="st2" points="21.5,75.1 12.8,65.5 12.8,65.4 21.5,55.8 21.5,49.4 10,62.9 10,68 21.5,81.5 	"/>
	<polygon class="st2" points="50.7,49.4 50.7,55.8 59.6,65.4 59.6,65.5 50.7,75.1 50.7,81.5 62.2,68.2 62.2,62.7 	"/>
	<path class="st2" d="M42,54.3c-1.5-0.7-3.4-1.8-4.1-3.4c0-0.8-0.7-1.5-1.5-1.5s-1.5,0.7-1.5,1.5v19.6c-1.5-0.8-4.4-0.6-6.7,0.7
		c-3.4,1.9-4.9,5.5-3.4,8.1c1.5,2.5,5.6,3,9,1.1c2.4-1.3,4-3.6,4.1-5.8c0-5.7,0-11.2,0-16.9c5,0,7.9,2,6.8,6.8
		c-0.2,0.9-0.5,1.8-0.9,2.6l0,0c-0.2,0.3-0.2,0.6,0.1,0.9c0.2,0.2,0.7,0.2,1.1-0.2c1.9-1.8,3-4.2,3.1-6.8
		C48.2,57.7,44.9,55.6,42,54.3z"/>
</g>
</svg>
