<?xml version="1.0" encoding="utf-8"?>
<!-- Generator: Adobe Illustrator 21.1.0, SVG Export Plug-In . SVG Version: 6.00 Build 0)  -->
<svg version="1.1" id="Layer_1" xmlns="http://www.w3.org/2000/svg" xmlns:xlink="http://www.w3.org/1999/xlink" x="0px" y="0px"
	 viewBox="0 0 72 96" style="enable-background:new 0 0 72 96;" xml:space="preserve">
<style type="text/css">
	.st0{fill:#2E61F2;}
	.st1{fill:#FFFFFF;}
	.st2{fill:#FF9800;}
</style>
<g>
	<path class="st0" d="M0,2l0,92c0,1.1,0.9,2,2,2h68c1.1,0,2-0.9,2-2V28H50c-1.1,0-2-0.9-2-2V0L2,0C0.9,0,0,0.9,0,2z"/>
	<path class="st0" d="M71.9,24c-0.1-0.4-0.2-0.7-0.4-1L52,1.2V24H71.9z"/>
</g>
<rect x="6" y="41" class="st1" width="60" height="49"/>
<g>
	<path class="st1" d="M9,6.4h3.6l3.6,14.3h-3.3l-0.6-3h-3l-0.6,3H5.4L9,6.4z M11.8,15l-0.6-2.8c-0.2-0.9-0.4-2.5-0.4-2.5h-0.1
		c0,0-0.2,1.5-0.4,2.5L9.8,15H11.8z"/>
	<path class="st1" d="M18.1,18.5l4.2-7.9c0.5-0.9,0.8-1.3,0.8-1.3v0c0,0-0.3,0.1-0.8,0.1h-4V6.4H27v2.2l-4.2,8
		c-0.5,0.9-0.8,1.3-0.8,1.3v0c0,0,0.3-0.1,0.8-0.1H27v2.9h-8.9V18.5z"/>
	<path class="st1" d="M30.2,6.4h7.2v2.9h-3.9V12h3.1v2.9h-3.1v2.9h4.1v2.9h-7.4V6.4z"/>
</g>
<path class="st2" d="M40.7,83.5c8.1-7.2,1.1-16.4-1-17.4c0.3,1.1,0.2,3-0.9,4.1c-0.5-2.8-2.7-6.3-5.8-7.5c0.5,4-1.8,6.8-2.8,8.2
	c-0.8,1.3-5.6,8-0.8,12.6c-11.5-3.6-8.6-15.1-5.3-20.2c3.5-5.3,7.6-9.6,6.7-16.2c5.6,2,9.4,7.9,10.4,12.4c1.9-1.8,2.2-5,1.7-6.8
	C46.8,54.3,59,76.3,40.7,83.5z"/>
</svg>
