<?xml version="1.0" encoding="utf-8"?>
<!-- Generator: Adobe Illustrator 21.1.0, SVG Export Plug-In . SVG Version: 6.00 Build 0)  -->
<svg version="1.1" id="Layer_1" xmlns="http://www.w3.org/2000/svg" xmlns:xlink="http://www.w3.org/1999/xlink" x="0px" y="0px"
	 viewBox="0 0 72 96" style="enable-background:new 0 0 72 96;" xml:space="preserve">
<style type="text/css">
	.st0{fill:#999999;}
	.st1{fill:#FFFFFF;}
</style>
<g>
	<g>
		<path class="st0" d="M0,2l0,92c0,1.1,0.9,2,2,2h68c1.1,0,2-0.9,2-2V28H50c-1.1,0-2-0.9-2-2V0L2,0C0.9,0,0,0.9,0,2z"/>
		<path class="st0" d="M71.9,24c-0.1-0.4-0.2-0.7-0.4-1L52,1.2V24H71.9z"/>
	</g>
	<rect x="6" y="41" class="st1" width="60" height="49"/>
</g>
<g>
	<path class="st1" d="M6.5,6.4h3.8c2.2,0,3.8,1.3,3.8,3.7c0,1.2-0.5,2.4-1.5,3v0c1.5,0.5,1.9,1.9,1.9,3.2c0,3.1-1.8,4.3-4,4.3h-4
		V6.4z M10.3,12c0.6,0,0.8-0.6,0.8-1.4s-0.3-1.3-0.9-1.3H9.5V12H10.3z M10.4,17.8c0.7,0,1-0.7,1-1.6c0-0.9-0.3-1.5-1-1.5H9.5v3.1
		H10.4z"/>
	<path class="st1" d="M18,6.4h3.2l3.2,14.3h-3l-0.5-3h-2.7l-0.5,3h-3L18,6.4z M20.5,15L20,12.1c-0.2-0.9-0.4-2.5-0.4-2.5h-0.1
		c0,0-0.2,1.5-0.4,2.5L18.7,15H20.5z"/>
	<path class="st1" d="M25.9,16.7c0.5,0.6,1.3,1.2,2.1,1.2c0.8,0,1.2-0.6,1.2-1.2c0-2-4.3-2.1-4.3-6.2c0-2.4,1.5-4.3,4.1-4.3
		c1.1,0,2.2,0.3,3.1,1L31,10.1c-0.4-0.4-1.3-0.9-1.9-0.9c-0.8,0-1.2,0.6-1.2,1.2c0,2.1,4.3,2,4.3,6.1c0,2.3-1.3,4.4-4,4.4
		c-1.3,0-2.6-0.5-3.6-1.4L25.9,16.7z"/>
	<path class="st1" d="M33.6,6.4h3v5.8h2.9V6.4h2.9v14.3h-2.9V15h-2.9v5.7h-3V6.4z"/>
</g>
<g>
	<path class="st0" d="M54.8,46.8h-38v38h38V46.8z M24.4,54.3h-3.8v-3.8h3.8V54.3z M51,54.3H28.1v-3.8H51V54.3z M51,80.9H20.5V58.2
		H51V80.9z"/>
	<polygon class="st0" points="26.5,61.4 23.8,64.1 28.2,68.5 23.8,72.8 26.5,75.5 33.6,68.5 	"/>
	<rect x="32.8" y="74.2" class="st0" width="7.6" height="3.8"/>
</g>
</svg>
