<?xml version="1.0" encoding="utf-8"?>
<!-- Generator: Adobe Illustrator 21.1.0, SVG Export Plug-In . SVG Version: 6.00 Build 0)  -->
<svg version="1.1" id="Layer_1" xmlns="http://www.w3.org/2000/svg" xmlns:xlink="http://www.w3.org/1999/xlink" x="0px" y="0px"
	 viewBox="0 0 72 96" style="enable-background:new 0 0 72 96;" xml:space="preserve">
<style type="text/css">
	.st0{fill:#999999;}
	.st1{fill:#FFFFFF;}
	.st2{fill:#999999;stroke:#999999;stroke-width:0.75;stroke-miterlimit:10;}
</style>
<g>
	<g>
		<path class="st0" d="M0,2l0,92c0,1.1,0.9,2,2,2h68c1.1,0,2-0.9,2-2V28H50c-1.1,0-2-0.9-2-2V0L2,0C0.9,0,0,0.9,0,2z"/>
		<path class="st0" d="M71.9,24c-0.1-0.4-0.2-0.7-0.4-1L52,1.2V24H71.9z"/>
	</g>
	<rect x="6" y="41" class="st1" width="60" height="49"/>
</g>
<g>
	<path class="st1" d="M6.6,6.4h4.2c2.5,0,4.2,1.3,4.2,3.7c0,1.2-0.5,2.4-1.7,3v0c1.6,0.5,2.1,1.9,2.1,3.2c0,3.1-2,4.3-4.4,4.3H6.6
		V6.4z M10.8,12c0.6,0,0.9-0.6,0.9-1.4s-0.3-1.3-1-1.3H9.9V12H10.8z M11,17.8c0.8,0,1.2-0.7,1.2-1.6c0-0.9-0.3-1.5-1.1-1.5H9.9v3.1
		H11z"/>
	<path class="st1" d="M18.6,6.4h3.3v14.3h-3.3V6.4z"/>
	<path class="st1" d="M25.5,6.4H29l2.4,6.6c0.4,1,0.7,2.4,0.7,2.4h0.1c0,0-0.2-1.5-0.2-2.4V6.4h3.1v14.3h-3.4l-2.5-6.6
		c-0.4-1-0.7-2.4-0.7-2.4h-0.1c0,0,0.2,1.5,0.2,2.4v6.6h-3.1V6.4z"/>
</g>
<g>
	<path class="st2" d="M22.2,53.4h0.9c0.3,0,0.4,0,0.6,0.1c0.1,0.1,0.2,0.2,0.2,0.4c0,0.2-0.1,0.3-0.2,0.4c-0.1,0.1-0.3,0.1-0.6,0.1
		h-3.4c-0.3,0-0.5,0-0.6-0.1C19,54.3,19,54.1,19,53.9c0-0.2,0.1-0.3,0.2-0.4c0.1-0.1,0.3-0.1,0.6-0.1h1.1V49l-0.7,0.2
		c-0.1,0-0.2,0-0.3,0c-0.1,0-0.1,0-0.1,0c-0.2,0-0.3,0-0.4-0.1c-0.1-0.1-0.1-0.2-0.1-0.4c0-0.1,0-0.2,0.1-0.3
		c0.1-0.1,0.2-0.1,0.4-0.2l1.4-0.4c0.1,0,0.2,0,0.3-0.1c0.1,0,0.1,0,0.2,0c0.2,0,0.3,0,0.3,0.1c0.1,0.1,0.1,0.2,0.1,0.4V53.4z"/>
	<path class="st2" d="M31.1,47.7c0.9,0,1.6,0.3,2.1,0.9c0.5,0.6,0.8,1.5,0.8,2.5c0,1.1-0.3,1.9-0.8,2.5c-0.5,0.6-1.2,0.9-2.1,0.9
		c-0.9,0-1.6-0.3-2.1-0.9c-0.5-0.6-0.8-1.5-0.8-2.5c0-1.1,0.3-1.9,0.8-2.5C29.5,48,30.2,47.7,31.1,47.7z M31.1,48.9
		c-0.4,0-0.7,0.2-1,0.6c-0.2,0.4-0.4,1-0.4,1.7c0,0.7,0.1,1.3,0.4,1.7c0.2,0.4,0.6,0.6,1,0.6c0.4,0,0.7-0.2,1-0.6
		c0.2-0.4,0.4-1,0.4-1.7c0-0.7-0.1-1.3-0.4-1.7C31.8,49.1,31.5,48.9,31.1,48.9z"/>
	<path class="st2" d="M41.8,53.4h0.9c0.3,0,0.4,0,0.6,0.1c0.1,0.1,0.2,0.2,0.2,0.4c0,0.2-0.1,0.3-0.2,0.4c-0.1,0.1-0.3,0.1-0.6,0.1
		h-3.4c-0.3,0-0.5,0-0.6-0.1s-0.2-0.2-0.2-0.4c0-0.2,0.1-0.3,0.2-0.4c0.1-0.1,0.3-0.1,0.6-0.1h1.1V49l-0.7,0.2c-0.1,0-0.2,0-0.3,0
		c-0.1,0-0.1,0-0.1,0c-0.2,0-0.3,0-0.4-0.1c-0.1-0.1-0.1-0.2-0.1-0.4c0-0.1,0-0.2,0.1-0.3c0.1-0.1,0.2-0.1,0.4-0.2l1.4-0.4
		c0.1,0,0.2,0,0.3-0.1c0.1,0,0.1,0,0.2,0c0.2,0,0.3,0,0.3,0.1c0.1,0.1,0.1,0.2,0.1,0.4V53.4z"/>
	<path class="st2" d="M51.6,53.4h0.9c0.3,0,0.4,0,0.6,0.1c0.1,0.1,0.2,0.2,0.2,0.4c0,0.2-0.1,0.3-0.2,0.4s-0.3,0.1-0.6,0.1h-3.4
		c-0.3,0-0.5,0-0.6-0.1c-0.1-0.1-0.2-0.2-0.2-0.4c0-0.2,0.1-0.3,0.2-0.4c0.1-0.1,0.3-0.1,0.6-0.1h1.1V49l-0.7,0.2
		c-0.1,0-0.2,0-0.3,0c-0.1,0-0.1,0-0.1,0c-0.2,0-0.3,0-0.4-0.1c-0.1-0.1-0.1-0.2-0.1-0.4c0-0.1,0-0.2,0.1-0.3
		c0.1-0.1,0.2-0.1,0.4-0.2l1.4-0.4c0.1,0,0.2,0,0.3-0.1c0.1,0,0.1,0,0.2,0c0.2,0,0.3,0,0.3,0.1c0.1,0.1,0.1,0.2,0.1,0.4V53.4z"/>
	<path class="st2" d="M21.3,57.4c0.9,0,1.6,0.3,2.1,0.9c0.5,0.6,0.8,1.5,0.8,2.5c0,1.1-0.3,1.9-0.8,2.5c-0.5,0.6-1.2,0.9-2.1,0.9
		c-0.9,0-1.6-0.3-2.1-0.9c-0.5-0.6-0.8-1.5-0.8-2.5c0-1.1,0.3-1.9,0.8-2.5C19.7,57.7,20.4,57.4,21.3,57.4z M21.3,58.6
		c-0.4,0-0.7,0.2-1,0.6c-0.2,0.4-0.4,1-0.4,1.7c0,0.7,0.1,1.3,0.4,1.7c0.2,0.4,0.6,0.6,1,0.6c0.4,0,0.7-0.2,1-0.6
		c0.2-0.4,0.4-1,0.4-1.7c0-0.7-0.1-1.3-0.4-1.7C22.1,58.8,21.7,58.6,21.3,58.6z"/>
	<path class="st2" d="M32,63.1h0.9c0.3,0,0.4,0,0.6,0.1c0.1,0.1,0.2,0.2,0.2,0.4c0,0.2-0.1,0.3-0.2,0.4c-0.1,0.1-0.3,0.1-0.6,0.1
		h-3.4c-0.3,0-0.5,0-0.6-0.1c-0.1-0.1-0.2-0.2-0.2-0.4c0-0.2,0.1-0.3,0.2-0.4c0.1-0.1,0.3-0.1,0.6-0.1h1.1v-4.4l-0.7,0.2
		c-0.1,0-0.2,0-0.3,0c-0.1,0-0.1,0-0.1,0c-0.2,0-0.3,0-0.4-0.1c-0.1-0.1-0.1-0.2-0.1-0.4c0-0.1,0-0.2,0.1-0.3
		c0.1-0.1,0.2-0.1,0.4-0.2l1.4-0.4c0.1,0,0.2,0,0.3-0.1c0.1,0,0.1,0,0.2,0c0.2,0,0.3,0,0.3,0.1c0.1,0.1,0.1,0.2,0.1,0.4V63.1z"/>
	<path class="st2" d="M40.9,57.4c0.9,0,1.6,0.3,2.1,0.9c0.5,0.6,0.8,1.5,0.8,2.5c0,1.1-0.3,1.9-0.8,2.5c-0.5,0.6-1.2,0.9-2.1,0.9
		c-0.9,0-1.6-0.3-2.1-0.9C38.3,62.8,38,62,38,60.9c0-1.1,0.3-1.9,0.8-2.5C39.3,57.7,40,57.4,40.9,57.4z M40.9,58.6
		c-0.4,0-0.7,0.2-1,0.6c-0.2,0.4-0.4,1-0.4,1.7c0,0.7,0.1,1.3,0.4,1.7c0.2,0.4,0.6,0.6,1,0.6c0.4,0,0.7-0.2,1-0.6
		c0.2-0.4,0.4-1,0.4-1.7c0-0.7-0.1-1.3-0.4-1.7C41.6,58.8,41.3,58.6,40.9,58.6z"/>
	<path class="st2" d="M51.6,63.1h0.9c0.3,0,0.4,0,0.6,0.1s0.2,0.2,0.2,0.4c0,0.2-0.1,0.3-0.2,0.4c-0.1,0.1-0.3,0.1-0.6,0.1h-3.4
		c-0.3,0-0.5,0-0.6-0.1c-0.1-0.1-0.2-0.2-0.2-0.4c0-0.2,0.1-0.3,0.2-0.4c0.1-0.1,0.3-0.1,0.6-0.1h1.1v-4.4l-0.7,0.2
		c-0.1,0-0.2,0-0.3,0c-0.1,0-0.1,0-0.1,0c-0.2,0-0.3,0-0.4-0.1c-0.1-0.1-0.1-0.2-0.1-0.4c0-0.1,0-0.2,0.1-0.3s0.2-0.1,0.4-0.2
		l1.4-0.4c0.1,0,0.2,0,0.3-0.1c0.1,0,0.1,0,0.2,0c0.2,0,0.3,0,0.3,0.1c0.1,0.1,0.1,0.2,0.1,0.4V63.1z"/>
	<path class="st2" d="M21.3,67.1c0.9,0,1.6,0.3,2.1,0.9c0.5,0.6,0.8,1.5,0.8,2.5c0,1.1-0.3,1.9-0.8,2.5c-0.5,0.6-1.2,0.9-2.1,0.9
		c-0.9,0-1.6-0.3-2.1-0.9c-0.5-0.6-0.8-1.5-0.8-2.5c0-1.1,0.3-1.9,0.8-2.5C19.7,67.4,20.4,67.1,21.3,67.1z M21.3,68.3
		c-0.4,0-0.7,0.2-1,0.6c-0.2,0.4-0.4,1-0.4,1.7c0,0.7,0.1,1.3,0.4,1.7c0.2,0.4,0.6,0.6,1,0.6c0.4,0,0.7-0.2,1-0.6
		c0.2-0.4,0.4-1,0.4-1.7c0-0.7-0.1-1.3-0.4-1.7C22.1,68.5,21.7,68.3,21.3,68.3z"/>
	<path class="st2" d="M32,72.8h0.9c0.3,0,0.4,0,0.6,0.1c0.1,0.1,0.2,0.2,0.2,0.4c0,0.2-0.1,0.3-0.2,0.4c-0.1,0.1-0.3,0.1-0.6,0.1
		h-3.4c-0.3,0-0.5,0-0.6-0.1c-0.1-0.1-0.2-0.2-0.2-0.4c0-0.2,0.1-0.3,0.2-0.4c0.1-0.1,0.3-0.1,0.6-0.1h1.1v-4.4l-0.7,0.2
		c-0.1,0-0.2,0-0.3,0c-0.1,0-0.1,0-0.1,0c-0.2,0-0.3,0-0.4-0.1C29.1,68.3,29,68.2,29,68c0-0.1,0-0.2,0.1-0.3
		c0.1-0.1,0.2-0.1,0.4-0.2l1.4-0.4c0.1,0,0.2,0,0.3-0.1c0.1,0,0.1,0,0.2,0c0.2,0,0.3,0,0.3,0.1c0.1,0.1,0.1,0.2,0.1,0.4V72.8z"/>
	<path class="st2" d="M41.8,72.8h0.9c0.3,0,0.4,0,0.6,0.1c0.1,0.1,0.2,0.2,0.2,0.4c0,0.2-0.1,0.3-0.2,0.4c-0.1,0.1-0.3,0.1-0.6,0.1
		h-3.4c-0.3,0-0.5,0-0.6-0.1c-0.1-0.1-0.2-0.2-0.2-0.4c0-0.2,0.1-0.3,0.2-0.4c0.1-0.1,0.3-0.1,0.6-0.1h1.1v-4.4l-0.7,0.2
		c-0.1,0-0.2,0-0.3,0c-0.1,0-0.1,0-0.1,0c-0.2,0-0.3,0-0.4-0.1c-0.1-0.1-0.1-0.2-0.1-0.4c0-0.1,0-0.2,0.1-0.3
		c0.1-0.1,0.2-0.1,0.4-0.2l1.4-0.4c0.1,0,0.2,0,0.3-0.1c0.1,0,0.1,0,0.2,0c0.2,0,0.3,0,0.3,0.1c0.1,0.1,0.1,0.2,0.1,0.4V72.8z"/>
	<path class="st2" d="M50.7,67.1c0.9,0,1.6,0.3,2.1,0.9c0.5,0.6,0.8,1.5,0.8,2.5c0,1.1-0.3,1.9-0.8,2.5c-0.5,0.6-1.2,0.9-2.1,0.9
		c-0.9,0-1.6-0.3-2.1-0.9c-0.5-0.6-0.8-1.5-0.8-2.5c0-1.1,0.3-1.9,0.8-2.5C49.1,67.4,49.8,67.1,50.7,67.1z M50.7,68.3
		c-0.4,0-0.7,0.2-1,0.6c-0.2,0.4-0.4,1-0.4,1.7c0,0.7,0.1,1.3,0.4,1.7c0.2,0.4,0.6,0.6,1,0.6c0.4,0,0.7-0.2,1-0.6
		c0.2-0.4,0.4-1,0.4-1.7c0-0.7-0.1-1.3-0.4-1.7C51.4,68.5,51.1,68.3,50.7,68.3z"/>
	<path class="st2" d="M22.2,82.5h0.9c0.3,0,0.4,0,0.6,0.1c0.1,0.1,0.2,0.2,0.2,0.4c0,0.2-0.1,0.3-0.2,0.4c-0.1,0.1-0.3,0.1-0.6,0.1
		h-3.4c-0.3,0-0.5,0-0.6-0.1C19,83.3,19,83.2,19,83c0-0.2,0.1-0.3,0.2-0.4c0.1-0.1,0.3-0.1,0.6-0.1h1.1V78l-0.7,0.2
		c-0.1,0-0.2,0-0.3,0c-0.1,0-0.1,0-0.1,0c-0.2,0-0.3,0-0.4-0.1c-0.1-0.1-0.1-0.2-0.1-0.4c0-0.1,0-0.2,0.1-0.3
		c0.1-0.1,0.2-0.1,0.4-0.2l1.4-0.4c0.1,0,0.2,0,0.3-0.1c0.1,0,0.1,0,0.2,0c0.2,0,0.3,0,0.3,0.1c0.1,0.1,0.1,0.2,0.1,0.4V82.5z"/>
	<path class="st2" d="M31.1,76.8c0.9,0,1.6,0.3,2.1,0.9c0.5,0.6,0.8,1.5,0.8,2.5c0,1.1-0.3,1.9-0.8,2.5c-0.5,0.6-1.2,0.9-2.1,0.9
		c-0.9,0-1.6-0.3-2.1-0.9c-0.5-0.6-0.8-1.5-0.8-2.5c0-1.1,0.3-1.9,0.8-2.5C29.5,77.1,30.2,76.8,31.1,76.8z M31.1,78
		c-0.4,0-0.7,0.2-1,0.6c-0.2,0.4-0.4,1-0.4,1.7c0,0.7,0.1,1.3,0.4,1.7c0.2,0.4,0.6,0.6,1,0.6c0.4,0,0.7-0.2,1-0.6
		c0.2-0.4,0.4-1,0.4-1.7c0-0.7-0.1-1.3-0.4-1.7C31.8,78.2,31.5,78,31.1,78z"/>
	<path class="st2" d="M40.9,76.8c0.9,0,1.6,0.3,2.1,0.9c0.5,0.6,0.8,1.5,0.8,2.5c0,1.1-0.3,1.9-0.8,2.5c-0.5,0.6-1.2,0.9-2.1,0.9
		c-0.9,0-1.6-0.3-2.1-0.9c-0.5-0.6-0.8-1.5-0.8-2.5c0-1.1,0.3-1.9,0.8-2.5C39.3,77.1,40,76.8,40.9,76.8z M40.9,78
		c-0.4,0-0.7,0.2-1,0.6c-0.2,0.4-0.4,1-0.4,1.7c0,0.7,0.1,1.3,0.4,1.7c0.2,0.4,0.6,0.6,1,0.6c0.4,0,0.7-0.2,1-0.6
		c0.2-0.4,0.4-1,0.4-1.7c0-0.7-0.1-1.3-0.4-1.7C41.6,78.2,41.3,78,40.9,78z"/>
	<path class="st2" d="M51.6,82.5h0.9c0.3,0,0.4,0,0.6,0.1c0.1,0.1,0.2,0.2,0.2,0.4c0,0.2-0.1,0.3-0.2,0.4c-0.1,0.1-0.3,0.1-0.6,0.1
		h-3.4c-0.3,0-0.5,0-0.6-0.1c-0.1-0.1-0.2-0.2-0.2-0.4c0-0.2,0.1-0.3,0.2-0.4c0.1-0.1,0.3-0.1,0.6-0.1h1.1V78l-0.7,0.2
		c-0.1,0-0.2,0-0.3,0c-0.1,0-0.1,0-0.1,0c-0.2,0-0.3,0-0.4-0.1c-0.1-0.1-0.1-0.2-0.1-0.4c0-0.1,0-0.2,0.1-0.3
		c0.1-0.1,0.2-0.1,0.4-0.2l1.4-0.4c0.1,0,0.2,0,0.3-0.1c0.1,0,0.1,0,0.2,0c0.2,0,0.3,0,0.3,0.1c0.1,0.1,0.1,0.2,0.1,0.4V82.5z"/>
</g>
</svg>
