<?xml version="1.0" encoding="utf-8"?>
<!-- Generator: Adobe Illustrator 21.1.0, SVG Export Plug-In . SVG Version: 6.00 Build 0)  -->
<svg version="1.1" id="Layer_1" xmlns="http://www.w3.org/2000/svg" xmlns:xlink="http://www.w3.org/1999/xlink" x="0px" y="0px"
	 viewBox="0 0 72 96" style="enable-background:new 0 0 72 96;" xml:space="preserve">
<style type="text/css">
	.st0{fill:#CCCCCC;}
	.st1{fill:#999999;}
	.st2{fill:#333333;}
</style>
<path class="st0" d="M0,2l0,92c0,1.1,0.9,2,2,2h68c1.1,0,2-0.9,2-2V28H50c-1.1,0-2-0.9-2-2V0L2,0C0.9,0,0,0.9,0,2z"/>
<g transform="translate(0,-1036.3622)">
	<path class="st1" d="M57.2,1059.1l-19.3,2.6v15.3h19.3V1059.1z M34.4,1062.1l-19.3,2.6v12.3h19.3V1062.1z M15.2,1080.5v12.3
		l19.3,2.6v-14.8L15.2,1080.5L15.2,1080.5z M37.9,1080.5v15.3l19.3,2.6v-17.9H37.9z"/>
</g>
<path class="st0" d="M71.9,24c-0.1-0.4-0.2-0.7-0.4-1L52,1.2V24H71.9z"/>
<g>
	<path class="st2" d="M7.7,70.4h3.1c1.9,0,3.2,1.3,3.2,3.7c0,1.2-0.4,2.4-1.2,3v0c1.2,0.5,1.6,1.9,1.6,3.2c0,3.1-1.5,4.3-3.3,4.3
		H7.7V70.4z M10.8,76c0.5,0,0.7-0.6,0.7-1.4c0-0.7-0.2-1.3-0.7-1.3h-0.6V76H10.8z M11,81.8c0.6,0,0.9-0.7,0.9-1.6
		c0-0.9-0.2-1.5-0.8-1.5h-0.9v3.1H11z"/>
	<path class="st2" d="M15.5,70.4h3.4c0.4,0,1,0.1,1.4,0.4c1.1,0.6,1.8,2.1,1.8,4c0,1.7-0.6,3.3-1.5,4v0c0,0,0.1,0.2,0.4,0.9l1.7,5
		H20l-1.5-4.8H18v4.8h-2.5V70.4z M18.5,77c0.6,0,1.2-0.7,1.2-1.9c0-0.7-0.2-1.2-0.4-1.5c-0.2-0.2-0.5-0.3-0.6-0.3H18V77H18.5z"/>
	<path class="st2" d="M27.5,70.2c2.8,0,4.4,3.1,4.4,7.3c0,4.2-1.6,7.5-4.4,7.5s-4.4-3.2-4.4-7.5C23.2,73.3,24.7,70.2,27.5,70.2z
		 M27.5,81.8c1.3,0,1.8-1.8,1.8-4.3c0-2.5-0.6-4.2-1.8-4.2s-1.9,1.7-1.9,4.2C25.7,80,26.3,81.8,27.5,81.8z"/>
	<path class="st2" d="M32.3,70.4h2.4l0.9,8.9c0.1,0.7,0.1,1.6,0.1,1.6h0.1c0,0,0-0.9,0.1-1.6l1-8.9h2.3l1,8.9
		c0.1,0.7,0.1,1.6,0.1,1.6h0.1c0,0,0-0.9,0.1-1.6l0.9-8.9h2.4l-1.9,14.3h-2.8l-0.8-7.2C38,76.6,38,75.8,38,75.8h0c0,0,0,0.8-0.1,1.7
		L37,84.7h-2.8L32.3,70.4z"/>
	<path class="st2" d="M45,80.7c0.4,0.6,1,1.2,1.7,1.2c0.7,0,1-0.6,1-1.2c0-2-3.6-2.1-3.6-6.2c0-2.4,1.3-4.3,3.4-4.3
		c0.9,0,1.8,0.3,2.6,1l-0.9,2.9c-0.4-0.4-1.1-0.9-1.6-0.9c-0.7,0-1,0.6-1,1.2c0,2.1,3.6,2,3.6,6.1c0,2.3-1.1,4.4-3.3,4.4
		c-1,0-2.2-0.5-3-1.4L45,80.7z"/>
	<path class="st2" d="M51.3,70.4h5.4v2.9h-2.9V76h2.3v2.9h-2.3v2.9h3.1v2.9h-5.5V70.4z"/>
	<path class="st2" d="M58.1,70.4h3.4c0.4,0,1,0.1,1.4,0.4c1.1,0.6,1.8,2.1,1.8,4c0,1.7-0.6,3.3-1.5,4v0c0,0,0.2,0.2,0.4,0.9l1.7,5
		h-2.7l-1.5-4.8h-0.6v4.8h-2.5V70.4z M61,77c0.6,0,1.2-0.7,1.2-1.9c0-0.7-0.2-1.2-0.4-1.5c-0.2-0.2-0.4-0.3-0.6-0.3h-0.6V77H61z"/>
</g>
<path class="st1" d="M0,94L0,2c0-1.1,0.9-2,2-2l48,0c0.6,0,1.1,0.2,1.5,0.7l20,22.3c0.3,0.4,0.5,0.8,0.5,1.3V94c0,1.1-0.9,2-2,2H2
	C0.9,96,0,95.1,0,94z M68,25.1L49.1,4H4v88h64V25.1z"/>
<path class="st1" d="M48,26V4c0-1.1,0.9-2,2-2s2,0.9,2,2v20h16c1.1,0,2,0.9,2,2s-0.9,2-2,2H50C48.9,28,48,27.1,48,26z"/>
</svg>
