<?xml version="1.0" encoding="utf-8"?>
<!-- Generator: Adobe Illustrator 21.1.0, SVG Export Plug-In . SVG Version: 6.00 Build 0)  -->
<svg version="1.1" id="Layer_1" xmlns="http://www.w3.org/2000/svg" xmlns:xlink="http://www.w3.org/1999/xlink" x="0px" y="0px"
	 viewBox="0 0 72 96" style="enable-background:new 0 0 72 96;" xml:space="preserve">
<style type="text/css">
	.st0{fill:#9900CC;}
	.st1{fill:#FFFFFF;}
</style>
<g>
	<path class="st0" d="M0,2l0,92c0,1.1,0.9,2,2,2h68c1.1,0,2-0.9,2-2V28H50c-1.1,0-2-0.9-2-2V0L2,0C0.9,0,0,0.9,0,2z"/>
	<path class="st0" d="M71.9,24c-0.1-0.4-0.2-0.7-0.4-1L52,1.2V24H71.9z"/>
</g>
<rect x="6" y="41" class="st1" width="60" height="49"/>
<g>
	<path class="st1" d="M6.6,6.4h4.2c2.5,0,4.2,1.3,4.2,3.7c0,1.2-0.5,2.4-1.7,3v0c1.6,0.5,2.1,1.9,2.1,3.2c0,3.1-2,4.3-4.4,4.3H6.6
		V6.4z M10.8,12c0.6,0,0.9-0.6,0.9-1.4s-0.3-1.3-1-1.3H9.9V12H10.8z M11,17.8c0.8,0,1.2-0.7,1.2-1.6c0-0.9-0.3-1.5-1.1-1.5H9.9v3.1
		H11z"/>
	<path class="st1" d="M18,18.5l4.2-7.9C22.6,9.7,23,9.3,23,9.3v0c0,0-0.3,0.1-0.8,0.1h-4V6.4h8.7v2.2l-4.2,8
		c-0.5,0.9-0.8,1.3-0.8,1.3v0c0,0,0.3-0.1,0.8-0.1h4.3v2.9H18V18.5z"/>
	<path class="st1" d="M29.8,19.1c0-5,4.5-5.5,4.5-8.4c0-1-0.5-1.4-1.2-1.4c-0.6,0-1.1,0.3-1.4,0.8l-2.2-1.8c0.8-1.1,2.3-2.1,4.1-2.1
		c2.1,0,4.2,1.3,4.2,4.2c0,4.1-4.2,5.4-4.4,7.5h4.6v2.9H30C29.9,20.1,29.8,19.7,29.8,19.1z"/>
</g>
<g>
	<path class="st0" d="M51.1,57.5h-5.7v-5.7L51.1,57.5z M35.8,51.8v20.7h15.4V58.9H44v-7.1H35.8z M38.2,46.4h-17v4h6.7l-4.2,3.3v3.5
		l6.2-4.8v-1.9h21.6v-1.6L38.2,46.4z M29.9,55.1l-6.2,4.8v3.5l6.2-4.8V55.1z M23.6,69.5l6.2-4.8v-3.5L23.6,66V69.5z M29.9,70.9v-3.5
		l-6.2,4.8V74h-2.5v4H25v2.8h-2.2c-0.4-0.7-1.1-1.2-2-1.2c-1.3,0-2.3,1-2.3,2.3c0,1.3,1,2.3,2.3,2.3c0.9,0,1.6-0.5,2-1.2H25v2.1h3.4
		v-2.1h2.2c0.4,0.7,1.1,1.2,2,1.2c1.3,0,2.3-1,2.3-2.3c0-1.3-1-2.3-2.3-2.3c-0.9,0-1.6,0.5-2,1.2h-2.2v-2.8h9.7l13.3-2.4V74H25.7
		L29.9,70.9z"/>
</g>
</svg>
