<?xml version="1.0" encoding="utf-8"?>
<!-- Generator: Adobe Illustrator 21.1.0, SVG Export Plug-In . SVG Version: 6.00 Build 0)  -->
<svg version="1.1" id="Layer_1" xmlns="http://www.w3.org/2000/svg" xmlns:xlink="http://www.w3.org/1999/xlink" x="0px" y="0px"
	 viewBox="0 0 72 96" style="enable-background:new 0 0 72 96;" xml:space="preserve">
<style type="text/css">
	.st0{fill:#CCCCCC;}
	.st1{fill:#999999;}
	.st2{fill:#333333;}
</style>
<path class="st0" d="M0,2l0,92c0,1.1,0.9,2,2,2h68c1.1,0,2-0.9,2-2V28H50c-1.1,0-2-0.9-2-2V0L2,0C0.9,0,0,0.9,0,2z"/>
<g>
	<path class="st1" d="M14.1,43.1v-4.9c1-0.1,1.8-0.2,2.3-0.5c0.5-0.2,0.9-0.7,1.3-1.2c0.4-0.6,0.6-1.3,0.8-2.2
		c0.1-0.7,0.2-1.8,0.2-3.4c0-2.7,0.1-4.5,0.4-5.6c0.2-1,0.7-1.9,1.3-2.5s1.6-1.1,2.8-1.5c0.8-0.2,2.1-0.4,3.9-0.4h1.1v4.9
		c-1.5,0-2.5,0.1-2.9,0.3c-0.4,0.2-0.7,0.4-1,0.8c-0.2,0.3-0.3,0.9-0.3,1.8s-0.1,2.5-0.2,4.9c-0.1,1.4-0.2,2.5-0.5,3.4
		c-0.3,0.8-0.7,1.5-1.1,2.1c-0.4,0.5-1.1,1.1-2,1.7c0.8,0.5,1.5,1,2,1.6s0.9,1.4,1.2,2.3s0.5,2.1,0.5,3.6C24,50.6,24,52,24,52.7
		c0,0.9,0.1,1.5,0.3,1.9c0.2,0.4,0.6,0.6,1,0.8s1.4,0.3,2.9,0.3v4.9h-1.1c-1.8,0-3.3-0.1-4.2-0.4c-1-0.3-1.8-0.8-2.5-1.5
		s-1.1-1.5-1.4-2.5c-0.2-1-0.3-2.6-0.3-4.8c0-2.5-0.1-4.2-0.3-4.9c-0.3-1.1-0.8-1.9-1.4-2.4C16.3,43.5,15.4,43.1,14.1,43.1z"/>
	<path class="st1" d="M58.4,43.1c-1,0.1-1.8,0.2-2.3,0.5c-0.5,0.2-0.9,0.7-1.3,1.2c-0.4,0.6-0.6,1.3-0.8,2.2
		c-0.1,0.7-0.2,1.8-0.2,3.4c0,2.7-0.1,4.5-0.4,5.6c-0.2,1.1-0.7,1.9-1.3,2.5s-1.6,1.1-2.8,1.5c-0.8,0.2-2.1,0.4-3.9,0.4h-1.1v-4.9
		c1.5,0,2.4-0.1,2.9-0.3s0.8-0.5,1-0.8s0.3-0.9,0.3-1.8c0-0.8,0.1-2.4,0.2-4.8c0.1-1.4,0.3-2.6,0.6-3.4c0.3-0.9,0.7-1.6,1.2-2.2
		s1.1-1.1,1.9-1.6c-1-0.7-1.8-1.3-2.2-1.9c-0.6-0.9-1.1-2.1-1.3-3.4c-0.2-1-0.3-3.1-0.3-6.3c0-1-0.1-1.7-0.3-2.1
		c-0.2-0.3-0.5-0.6-0.9-0.8c-0.4-0.2-1.4-0.3-3-0.3V21h1.1c1.8,0,3.3,0.1,4.2,0.4c1,0.3,1.8,0.8,2.5,1.5s1.1,1.5,1.4,2.5
		c0.2,1,0.4,2.6,0.4,4.8c0,2.5,0.1,4.1,0.3,4.9c0.3,1.1,0.8,1.9,1.4,2.3c0.6,0.5,1.6,0.7,2.8,0.8L58.4,43.1L58.4,43.1z"/>
</g>
<path class="st0" d="M71.9,24c-0.1-0.4-0.2-0.7-0.4-1L52,1.2V24H71.9z"/>
<g>
	<path class="st2" d="M15.1,70.2c1.3,0,2.6,0.4,3.6,1.2l-1.4,2.8c-0.4-0.5-1.3-0.9-2.1-0.9c-2.1,0-3.2,1.9-3.2,4.2
		c0,2.3,1.2,4.4,3.2,4.4c1,0,1.7-0.5,2.3-1l1.4,2.8c-0.9,0.7-2,1.3-3.9,1.3c-4,0-6.3-3.1-6.3-7.4C8.7,73.2,11.1,70.2,15.1,70.2z"/>
	<path class="st2" d="M21.7,70.4h3.3v11.4h4.3v2.9h-7.6V70.4z"/>
	<path class="st2" d="M34.4,70.4H38l3.6,14.3h-3.3l-0.6-3h-3l-0.6,3h-3.3L34.4,70.4z M37.2,79l-0.6-2.8c-0.2-0.9-0.4-2.5-0.4-2.5
		h-0.1c0,0-0.2,1.5-0.4,2.5L35.2,79H37.2z"/>
	<path class="st2" d="M44.8,80.7c0.6,0.6,1.4,1.2,2.3,1.2c0.9,0,1.3-0.6,1.3-1.2c0-2-4.8-2.1-4.8-6.2c0-2.4,1.7-4.3,4.5-4.3
		c1.2,0,2.4,0.3,3.4,1l-1.2,2.9c-0.5-0.4-1.4-0.9-2.2-0.9c-0.9,0-1.3,0.6-1.3,1.2c0,2.1,4.8,2,4.8,6.1c0,2.3-1.5,4.4-4.4,4.4
		c-1.4,0-2.9-0.5-4-1.4L44.8,80.7z"/>
	<path class="st2" d="M55.5,80.7c0.6,0.6,1.4,1.2,2.3,1.2c0.9,0,1.3-0.6,1.3-1.2c0-2-4.8-2.1-4.8-6.2c0-2.4,1.7-4.3,4.5-4.3
		c1.2,0,2.4,0.3,3.4,1l-1.2,2.9c-0.5-0.4-1.4-0.9-2.2-0.9c-0.9,0-1.3,0.6-1.3,1.2c0,2.1,4.8,2,4.8,6.1c0,2.3-1.5,4.4-4.4,4.4
		c-1.4,0-2.9-0.5-4-1.4L55.5,80.7z"/>
</g>
<path class="st1" d="M0,94L0,2c0-1.1,0.9-2,2-2l48,0c0.6,0,1.1,0.2,1.5,0.7l20,22.3c0.3,0.4,0.5,0.8,0.5,1.3V94c0,1.1-0.9,2-2,2H2
	C0.9,96,0,95.1,0,94z M68,25.1L49.1,4H4v88h64V25.1z"/>
<path class="st1" d="M48,26V4c0-1.1,0.9-2,2-2s2,0.9,2,2v20h16c1.1,0,2,0.9,2,2s-0.9,2-2,2H50C48.9,28,48,27.1,48,26z"/>
</svg>
