<?xml version="1.0" encoding="utf-8"?>
<!-- Generator: Adobe Illustrator 21.1.0, SVG Export Plug-In . SVG Version: 6.00 Build 0)  -->
<svg version="1.1" id="Layer_1" xmlns="http://www.w3.org/2000/svg" xmlns:xlink="http://www.w3.org/1999/xlink" x="0px" y="0px"
	 viewBox="0 0 72 96" style="enable-background:new 0 0 72 96;" xml:space="preserve">
<style type="text/css">
	.st0{fill:#999999;}
	.st1{fill:#FFFFFF;}
</style>
<g>
	<g>
		<path class="st0" d="M0,2l0,92c0,1.1,0.9,2,2,2h68c1.1,0,2-0.9,2-2V28H50c-1.1,0-2-0.9-2-2V0L2,0C0.9,0,0,0.9,0,2z"/>
		<path class="st0" d="M71.9,24c-0.1-0.4-0.2-0.7-0.4-1L52,1.2V24H71.9z"/>
	</g>
	<rect x="6" y="41" class="st1" width="60" height="49"/>
</g>
<g>
	<path class="st1" d="M12.1,6.1c1.2,0,2.5,0.4,3.4,1.2l-1.3,2.8c-0.4-0.5-1.2-0.9-2-0.9c-2,0-3.1,1.9-3.1,4.2c0,2.3,1.1,4.4,3,4.4
		c0.9,0,1.6-0.5,2.2-1l1.3,2.8c-0.9,0.7-1.9,1.3-3.7,1.3c-3.8,0-6-3.1-6-7.4C6,9.3,8.3,6.1,12.1,6.1z"/>
	<path class="st1" d="M18.3,6.4h3.5l1.3,6c0.2,0.9,0.4,2.4,0.4,2.4h0.1c0,0,0.2-1.5,0.4-2.4l1.3-6h3.5l0.9,14.3h-2.9l-0.4-6.4
		c-0.1-1.1,0-2.4,0-2.4h-0.1c0,0-0.2,1.5-0.4,2.4L25,18.4h-3l-0.8-4.1c-0.2-0.9-0.4-2.4-0.4-2.4h-0.1c0,0,0.1,1.3,0,2.4l-0.4,6.4
		h-2.9L18.3,6.4z"/>
	<path class="st1" d="M32.2,6.4h4c3.5,0,5.6,2.6,5.6,7.1s-2.1,7.2-5.6,7.2h-4V6.4z M36,17.8c1.6,0,2.5-1.5,2.5-4.3
		c0-2.8-0.9-4.2-2.5-4.2h-0.8v8.5H36z"/>
</g>
<g>
	<path class="st0" d="M54.8,46.8h-38v38h38V46.8z M24.4,54.3h-3.8v-3.8h3.8V54.3z M51,54.3H28.1v-3.8H51V54.3z M51,80.9H20.5V58.2
		H51V80.9z"/>
	<polygon class="st0" points="26.5,61.4 23.8,64.1 28.2,68.5 23.8,72.8 26.5,75.5 33.6,68.5 	"/>
	<rect x="32.8" y="74.2" class="st0" width="7.6" height="3.8"/>
</g>
</svg>
