<?xml version="1.0" encoding="utf-8"?>
<!-- Generator: Adobe Illustrator 21.1.0, SVG Export Plug-In . SVG Version: 6.00 Build 0)  -->
<svg version="1.1" id="Layer_1" xmlns="http://www.w3.org/2000/svg" xmlns:xlink="http://www.w3.org/1999/xlink" x="0px" y="0px"
	 viewBox="0 0 72 96" style="enable-background:new 0 0 72 96;" xml:space="preserve">
<style type="text/css">
	.st0{fill:#CCCCCC;}
	.st1{fill:#333333;}
	.st2{fill:#999999;}
</style>
<path class="st0" d="M0,2l0,92c0,1.1,0.9,2,2,2h68c1.1,0,2-0.9,2-2V28H50c-1.1,0-2-0.9-2-2V0L2,0C0.9,0,0,0.9,0,2z"/>
<path class="st0" d="M71.9,24c-0.1-0.4-0.2-0.7-0.4-1L52,1.2V24H71.9z"/>
<g>
	<path class="st1" d="M12.8,70.2c1,0,2.1,0.4,2.9,1.2l-1.1,2.8c-0.3-0.5-1-0.9-1.7-0.9c-1.7,0-2.6,1.9-2.6,4.2
		c0,2.3,0.9,4.4,2.5,4.4c0.8,0,1.3-0.5,1.8-1l1.1,2.8c-0.7,0.7-1.6,1.3-3.2,1.3c-3.2,0-5-3.1-5-7.4C7.6,73.2,9.5,70.2,12.8,70.2z"/>
	<path class="st1" d="M20.7,70.2c3,0,4.7,3.1,4.7,7.3c0,4.2-1.7,7.5-4.7,7.5S16,81.7,16,77.5C16,73.3,17.7,70.2,20.7,70.2z
		 M20.7,81.8c1.4,0,2-1.8,2-4.3c0-2.5-0.6-4.2-2-4.2c-1.4,0-2,1.7-2,4.2C18.7,80,19.3,81.8,20.7,81.8z"/>
	<path class="st1" d="M27.1,70.4H30l1.1,6c0.2,0.9,0.3,2.4,0.3,2.4h0c0,0,0.2-1.5,0.3-2.4l1.1-6h2.9l0.7,14.3h-2.4l-0.3-6.4
		c-0.1-1.1,0-2.4,0-2.4h-0.1c0,0-0.2,1.5-0.4,2.4l-0.7,4.1h-2.5l-0.7-4.1c-0.2-0.9-0.4-2.4-0.4-2.4H29c0,0,0.1,1.3,0,2.4l-0.3,6.4
		h-2.4L27.1,70.4z"/>
	<path class="st1" d="M37.9,70.4h3.6c2.1,0,3.5,2,3.5,4.9s-1.4,5-3.5,5h-1v4.4h-2.6V70.4z M41,77.4c0.8,0,1.3-0.9,1.3-2.1
		c0-1.2-0.5-2-1.2-2h-0.5v4.1H41z"/>
	<path class="st1" d="M46.1,70.4h2.6v14.3h-2.6V70.4z"/>
	<path class="st1" d="M50.5,70.4h2.6v11.4h3.4v2.9h-6.1V70.4z"/>
	<path class="st1" d="M57.5,70.4h5.7v2.9h-3.1V76h2.5v2.9h-2.5v2.9h3.3v2.9h-5.9V70.4z"/>
</g>
<path class="st2" d="M0,94L0,2c0-1.1,0.9-2,2-2l48,0c0.6,0,1.1,0.2,1.5,0.7l20,22.3c0.3,0.4,0.5,0.8,0.5,1.3V94c0,1.1-0.9,2-2,2H2
	C0.9,96,0,95.1,0,94z M68,25.1L49.1,4H4v88h64V25.1z"/>
<path class="st2" d="M48,26V4c0-1.1,0.9-2,2-2s2,0.9,2,2v20h16c1.1,0,2,0.9,2,2s-0.9,2-2,2H50C48.9,28,48,27.1,48,26z"/>
</svg>
