<?xml version="1.0" encoding="utf-8"?>
<!-- Generator: Adobe Illustrator 22.0.1, SVG Export Plug-In . SVG Version: 6.00 Build 0)  -->
<svg version="1.1" id="Layer_1" xmlns="http://www.w3.org/2000/svg" xmlns:xlink="http://www.w3.org/1999/xlink" x="0px" y="0px"
	 viewBox="0 0 72 96" enable-background="new 0 0 72 96" xml:space="preserve">
<g>
	<path fill="#999999" d="M0,2v92c0,1.1,0.9,2,2,2h68c1.1,0,2-0.9,2-2V28H50c-1.1,0-2-0.9-2-2V0H2C0.9,0,0,0.9,0,2z"/>
	<path fill="#999999" d="M71.9,24c-0.1-0.4-0.2-0.7-0.4-1L52,1.2V24H71.9z"/>
</g>
<rect x="6" y="41" fill="#FFFFFF" width="60" height="49"/>
<g>
	<path fill="#FFFFFF" d="M12.5,6.1c1.3,0,2.6,0.4,3.6,1.2l-1.4,2.8c-0.4-0.5-1.3-0.9-2.1-0.9c-2.1,0-3.2,1.9-3.2,4.2
		s1.2,4.4,3.2,4.4c1,0,1.7-0.5,2.3-1l1.4,2.8c-0.9,0.7-2,1.3-3.9,1.3c-4,0-6.3-3.1-6.3-7.4C6,9.3,8.4,6.1,12.5,6.1z"/>
	<path fill="#FFFFFF" d="M19,6.4h4.5c2.6,0,4.4,2,4.4,4.9s-1.7,5-4.4,5h-1.2v4.4H19V6.4z M22.9,13.4c1,0,1.6-0.9,1.6-2.1
		s-0.7-2-1.6-2h-0.7v4.1H22.9z"/>
	<path fill="#FFFFFF" d="M30.7,6.4h4.5c2.6,0,4.4,2,4.4,4.9s-1.7,5-4.4,5H34v4.4h-3.3V6.4z M34.6,13.4c1,0,1.6-0.9,1.6-2.1
		s-0.7-2-1.6-2H34v4.1H34.6z"/>
</g>
<g>
	<g>
		<path fill="#999999" d="M24.6,54c5.6,0,8.3,3.1,8.3,3.1l-2.5,5.4c0,0-2.2-2.2-5.3-2.2c-3.8,0-5.6,2.6-5.6,5.6c0,3,1.9,5.8,5.6,5.8
			c3.5,0,5.5-2.7,5.5-2.7l3,5.2c0,0-2.9,3.7-8.9,3.7c-7.1,0-11.8-5-11.8-11.9C12.8,59.2,17.6,54,24.6,54z"/>
	</g>
	<g>
		<path fill="#999999" d="M35.4,64.3h4v-4.5h3.3v4.5h4v3.4h-4v4.5h-3.3v-4.5h-4V64.3z"/>
		<path fill="#999999" d="M48.1,64.3h4v-4.5h3.3v4.5h4v3.4h-4v4.5H52v-4.5h-4L48.1,64.3L48.1,64.3z"/>
	</g>
</g>
</svg>
