<?xml version="1.0" encoding="utf-8"?>
<!-- Generator: Adobe Illustrator 21.1.0, SVG Export Plug-In . SVG Version: 6.00 Build 0)  -->
<svg version="1.1" id="Layer_1" xmlns="http://www.w3.org/2000/svg" xmlns:xlink="http://www.w3.org/1999/xlink" x="0px" y="0px"
	 viewBox="0 0 72 96" style="enable-background:new 0 0 72 96;" xml:space="preserve">
<style type="text/css">
	.st0{fill:#669966;}
	.st1{fill:#FFFFFF;}
</style>
<g>
	<path class="st0" d="M0,2l0,92c0,1.1,0.9,2,2,2h68c1.1,0,2-0.9,2-2V28H50c-1.1,0-2-0.9-2-2V0L2,0C0.9,0,0,0.9,0,2z"/>
	<path class="st0" d="M71.9,24c-0.1-0.4-0.2-0.7-0.4-1L52,1.2V24H71.9z"/>
</g>
<rect x="6" y="41" class="st1" width="60" height="49"/>
<g>
	<path class="st1" d="M12.5,6.1c1.3,0,2.6,0.4,3.6,1.2l-1.4,2.8c-0.4-0.5-1.3-0.9-2.1-0.9c-2.1,0-3.2,1.9-3.2,4.2
		c0,2.3,1.2,4.4,3.2,4.4c1,0,1.7-0.5,2.3-1l1.4,2.8c-0.9,0.7-2,1.3-3.9,1.3c-4,0-6.3-3.1-6.3-7.4C6,9.3,8.4,6.1,12.5,6.1z"/>
	<path class="st1" d="M19,6.4h4.5c0.6,0,1.3,0.1,1.9,0.4c1.4,0.6,2.4,2.1,2.4,4c0,1.7-0.8,3.3-2,4v0c0,0,0.2,0.2,0.5,0.9l2.3,5H25
		l-2-4.8h-0.8v4.8H19V6.4z M22.9,13c0.9,0,1.6-0.7,1.6-1.9c0-0.7-0.2-1.2-0.6-1.5c-0.3-0.2-0.6-0.3-0.9-0.3h-0.7V13H22.9z"/>
	<path class="st1" d="M33.3,9.3h-3.1V6.4h9.6v2.9h-3.2v11.4h-3.3V9.3z"/>
</g>
<g>
	<g>
		<path class="st0" d="M49.4,60.9h-2.3v-3.1c0-6-4.8-10.8-10.8-10.8s-10.8,4.9-10.8,10.9V61h-2.3c-0.4,0-0.8,0.3-0.8,0.8V81
			c0,1.7,1.4,3.1,3.1,3.1h21.6c1.7,0,3.1-1.4,3.1-3.1V61.7C50.1,61.2,49.8,60.9,49.4,60.9z M38.6,76.9c0,0.3-0.1,0.4-0.2,0.6
			c-0.2,0.2-0.3,0.3-0.6,0.3h-3.1c-0.3,0-0.4-0.1-0.6-0.3C34,77.4,34,77.2,34,76.9l0.5-4.4c-0.8-0.6-1.3-1.5-1.3-2.5
			c0-1.7,1.4-3.1,3.1-3.1s3.1,1.4,3.1,3.1c0,1-0.4,1.9-1.3,2.5L38.6,76.9z M42.4,60.9H30.2v-3.1c0-3.4,2.8-6.1,6.1-6.1
			c3.4,0,6.1,2.8,6.1,6.1V60.9z"/>
	</g>
</g>
</svg>
