<?xml version="1.0" encoding="utf-8"?>
<!-- Generator: Adobe Illustrator 21.1.0, SVG Export Plug-In . SVG Version: 6.00 Build 0)  -->
<svg version="1.1" id="Layer_1" xmlns="http://www.w3.org/2000/svg" xmlns:xlink="http://www.w3.org/1999/xlink" x="0px" y="0px"
	 viewBox="0 0 72 96" style="enable-background:new 0 0 72 96;" xml:space="preserve">
<style type="text/css">
	.st0{fill:#CCCCCC;}
	.st1{fill:#333333;}
	.st2{fill:#999999;}
</style>
<path class="st0" d="M0,2l0,92c0,1.1,0.9,2,2,2h68c1.1,0,2-0.9,2-2V28H50c-1.1,0-2-0.9-2-2V0L2,0C0.9,0,0,0.9,0,2z"/>
<path class="st0" d="M71.9,24c-0.1-0.4-0.2-0.7-0.4-1L52,1.2V24H71.9z"/>
<g>
	<path class="st1" d="M14.8,70.2c1.3,0,2.6,0.4,3.6,1.2L17,74.2c-0.4-0.5-1.3-0.9-2.1-0.9c-2.1,0-3.2,1.9-3.2,4.2
		c0,2.3,1.2,4.4,3.2,4.4c1,0,1.7-0.5,2.3-1l1.4,2.8c-0.9,0.7-2,1.3-3.9,1.3c-4,0-6.3-3.1-6.3-7.4C8.3,73.2,10.7,70.2,14.8,70.2z"/>
	<path class="st1" d="M20.8,70.4h4.5c0.6,0,1.3,0.1,1.9,0.4c1.4,0.6,2.4,2.1,2.4,4c0,1.7-0.8,3.3-2,4v0c0,0,0.2,0.2,0.5,0.9l2.3,5
		h-3.6l-2-4.8h-0.8v4.8h-3.3V70.4z M24.7,77c0.9,0,1.6-0.7,1.6-1.9c0-0.7-0.2-1.2-0.6-1.5c-0.3-0.2-0.6-0.3-0.9-0.3h-0.7V77H24.7z"
		/>
	<path class="st1" d="M34.6,78.8L31,70.4h3.6l1.1,3.4c0.3,1,0.5,2.1,0.5,2.1h0.1c0,0,0.2-1.1,0.5-2.1l1.1-3.4h3.6l-3.6,8.4v5.9h-3.3
		V78.8z"/>
	<path class="st1" d="M43.4,70.4h4.5c2.6,0,4.4,2,4.4,4.9s-1.7,5-4.4,5h-1.2v4.4h-3.3V70.4z M47.3,77.4c1,0,1.6-0.9,1.6-2.1
		c0-1.2-0.7-2-1.6-2h-0.7v4.1H47.3z"/>
	<path class="st1" d="M56.9,73.3h-3.1v-2.9h9.6v2.9h-3.2v11.4h-3.3V73.3z"/>
</g>
<path class="st2" d="M0,94L0,2c0-1.1,0.9-2,2-2l48,0c0.6,0,1.1,0.2,1.5,0.7l20,22.3c0.3,0.4,0.5,0.8,0.5,1.3V94c0,1.1-0.9,2-2,2H2
	C0.9,96,0,95.1,0,94z M68,25.1L49.1,4H4v88h64V25.1z"/>
<path class="st2" d="M48,26V4c0-1.1,0.9-2,2-2s2,0.9,2,2v20h16c1.1,0,2,0.9,2,2s-0.9,2-2,2H50C48.9,28,48,27.1,48,26z"/>
<path class="st2" d="M49.9,39.2h-2.6v-5c0-5.7-4.6-10.2-10.2-10.2c-5.7,0-10.2,4.6-10.2,10.2v5h-2.6c-1,0-1.8,0.8-1.8,1.8v17.4
	c0,1,0.8,1.8,1.8,1.8h25.6c1,0,1.8-0.8,1.8-1.8V40.9C51.7,40,50.9,39.2,49.9,39.2z M39.3,53.6c0.2,0.6-0.3,1.1-0.9,1.1h-2.7
	c-0.6,0-1-0.6-0.9-1.1l0.8-3.2c-1-0.5-1.7-1.5-1.7-2.8c0-1.7,1.4-3.1,3.1-3.1s3.1,1.4,3.1,3.1c0,1.2-0.7,2.3-1.7,2.8L39.3,53.6z
	 M42.2,39.2H32v-5c0-2.8,2.3-5.1,5.1-5.1c2.8,0,5.1,2.3,5.1,5.1L42.2,39.2L42.2,39.2z"/>
</svg>
