<?xml version="1.0" encoding="utf-8"?>
<!-- Generator: Adobe Illustrator 21.1.0, SVG Export Plug-In . SVG Version: 6.00 Build 0)  -->
<svg version="1.1" id="Layer_1" xmlns="http://www.w3.org/2000/svg" xmlns:xlink="http://www.w3.org/1999/xlink" x="0px" y="0px"
	 viewBox="0 0 72 96" style="enable-background:new 0 0 72 96;" xml:space="preserve">
<style type="text/css">
	.st0{fill:#336699;}
	.st1{fill:#FFFFFF;}
	.st2{fill:#336699;stroke:#336699;stroke-width:1.5;stroke-miterlimit:10;}
</style>
<g>
	<path class="st0" d="M0,2l0,92c0,1.1,0.9,2,2,2h68c1.1,0,2-0.9,2-2V28H50c-1.1,0-2-0.9-2-2V0L2,0C0.9,0,0,0.9,0,2z"/>
	<path class="st0" d="M71.9,24c-0.1-0.4-0.2-0.7-0.4-1L52,1.2V24H71.9z"/>
</g>
<rect x="6" y="41" class="st1" width="60" height="49"/>
<g>
	<path class="st1" d="M6.6,6.4h4.2c3.7,0,5.9,2.6,5.9,7.1s-2.2,7.2-5.9,7.2H6.6V6.4z M10.7,17.8c1.7,0,2.6-1.5,2.6-4.3
		c0-2.8-1-4.2-2.6-4.2H9.9v8.5H10.7z"/>
	<path class="st1" d="M24.6,6.1c1.4,0,2.9,0.4,3.9,1.3l-1.4,2.8c-0.6-0.6-1.4-0.9-2.3-0.9c-2.2,0-3.2,1.9-3.2,4.2
		c0,2.6,1.2,4.3,2.9,4.3c0.6,0,1.3-0.2,1.7-0.6v-1.7h-1.5v-2.9h4.3v8.1h-2.6v-0.4c0-0.2,0-0.5,0-0.5h0c-0.5,0.7-1.6,1.2-2.7,1.2
		c-2.8,0-5.6-2.7-5.6-7.3C18.3,9.2,20.7,6.1,24.6,6.1z"/>
	<path class="st1" d="M31.4,6.4h3.5l2.4,6.6c0.4,1,0.7,2.4,0.7,2.4h0.1c0,0-0.2-1.5-0.2-2.4V6.4H41v14.3h-3.4l-2.5-6.6
		c-0.4-1-0.7-2.4-0.7-2.4h-0.1c0,0,0.2,1.5,0.2,2.4v6.6h-3.1V6.4z"/>
</g>
<g>
	<path class="st2" d="M51.6,65.9c-0.5-0.2-1.1,0-1.3,0.5c-1.1,2.5-2.9,4.7-5.1,6.4l-6.7-13.6c1-0.8,1.6-2,1.6-3.4
		c0-2.1-1.5-3.9-3.5-4.3v-3.4c0-0.5-0.4-1-1-1c-0.5,0-1,0.4-1,1v3.4c-2,0.4-3.5,2.2-3.5,4.3c0,1.4,0.6,2.6,1.6,3.4l-6.7,13.6
		c-2.2-1.7-4-3.8-5.1-6.4c-0.2-0.5-0.8-0.7-1.3-0.5c-0.5,0.2-0.7,0.8-0.5,1.3c1.3,3,3.4,5.4,6,7.3l-4,8c-0.2,0.5,0,1.1,0.4,1.3
		c0.1,0,0.3,0.1,0.4,0.1c0.3,0,0.7-0.2,0.9-0.5l3.8-7.8c2.7,1.5,5.6,2.2,8.7,2.2s6-0.8,8.7-2.2l3.8,7.8c0.1,0.3,0.5,0.5,0.9,0.5
		c0.1,0,0.3,0,0.4-0.1c0.5-0.2,0.7-0.8,0.4-1.3l-3.9-8c2.6-1.8,4.7-4.4,6-7.3C52.2,66.7,52,66.1,51.6,65.9z M35.6,53.3
		c1.4,0,2.5,1.1,2.5,2.5c0,1.4-1.1,2.5-2.5,2.5s-2.5-1.1-2.5-2.5S34.3,53.3,35.6,53.3z M35.6,75.9c-2.8,0-5.4-0.7-7.8-2l6.8-13.7
		c0.3,0.1,0.7,0.1,1.1,0.1s0.7,0,1.1-0.1l6.8,13.7C41.1,75.2,38.4,75.9,35.6,75.9z"/>
</g>
</svg>
