<?xml version="1.0" encoding="utf-8"?>
<!-- Generator: Adobe Illustrator 21.1.0, SVG Export Plug-In . SVG Version: 6.00 Build 0)  -->
<svg version="1.1" id="Layer_1" xmlns="http://www.w3.org/2000/svg" xmlns:xlink="http://www.w3.org/1999/xlink" x="0px" y="0px"
	 viewBox="0 0 72 96" style="enable-background:new 0 0 72 96;" xml:space="preserve">
<style type="text/css">
	.st0{fill:#666666;}
	.st1{fill:#FFFFFF;}
</style>
<g>
	<path class="st0" d="M0,2l0,92c0,1.1,0.9,2,2,2h68c1.1,0,2-0.9,2-2V28H50c-1.1,0-2-0.9-2-2V0L2,0C0.9,0,0,0.9,0,2z"/>
	<path class="st0" d="M71.9,24c-0.1-0.4-0.2-0.7-0.4-1L52,1.2V24H71.9z"/>
</g>
<rect x="6" y="41" class="st1" width="60" height="49"/>
<g>
	<path class="st1" d="M6.6,6.4h4.2c3.7,0,5.9,2.6,5.9,7.1s-2.2,7.2-5.9,7.2H6.6V6.4z M10.7,17.8c1.7,0,2.6-1.5,2.6-4.3
		c0-2.8-1-4.2-2.6-4.2H9.9v8.5H10.7z"/>
	<path class="st1" d="M19.8,6.4h3.3v11.4h4.3v2.9h-7.6V6.4z"/>
	<path class="st1" d="M30.2,6.4h3.3v11.4h4.3v2.9h-7.6V6.4z"/>
</g>
<g transform="translate(0,-1036.3622)">
	<path class="st0" d="M54.2,1083.7l-17.1,2.3v13.5h17.1V1083.7z M34.1,1086.3l-17.1,2.3v10.9h17.1V1086.3z M17.1,1102.6v10.9
		l17.1,2.3v-13.1L17.1,1102.6L17.1,1102.6z M37.1,1102.6v13.5l17.1,2.3v-15.8H37.1z"/>
</g>
</svg>
