<?xml version="1.0" encoding="utf-8"?>
<!-- Generator: Adobe Illustrator 21.1.0, SVG Export Plug-In . SVG Version: 6.00 Build 0)  -->
<svg version="1.1" id="Layer_1" xmlns="http://www.w3.org/2000/svg" xmlns:xlink="http://www.w3.org/1999/xlink" x="0px" y="0px"
	 viewBox="0 0 72 96" style="enable-background:new 0 0 72 96;" xml:space="preserve">
<style type="text/css">
	.st0{fill:#1A75CE;}
	.st1{fill:#FFFFFF;}
	.st2{fill:#1A75CE;stroke:#1A75CE;stroke-width:0.5;stroke-miterlimit:10;}
</style>
<g>
	<path class="st0" d="M0,2l0,92c0,1.1,0.9,2,2,2h68c1.1,0,2-0.9,2-2V28H50c-1.1,0-2-0.9-2-2V0L2,0C0.9,0,0,0.9,0,2z"/>
	<path class="st0" d="M71.9,24c-0.1-0.4-0.2-0.7-0.4-1L52,1.2V24H71.9z"/>
</g>
<rect x="6" y="41" class="st1" width="60" height="49"/>
<g>
	<path class="st1" d="M6.6,6.4h4.2c3.7,0,5.9,2.6,5.9,7.1s-2.2,7.2-5.9,7.2H6.6V6.4z M10.7,17.8c1.7,0,2.6-1.5,2.6-4.3
		c0-2.8-1-4.2-2.6-4.2H9.9v8.5H10.7z"/>
	<path class="st1" d="M24.1,6.1c3.8,0,5.9,3.1,5.9,7.3c0,4.2-2.1,7.5-5.9,7.5s-5.8-3.2-5.8-7.5C18.3,9.3,20.4,6.1,24.1,6.1z
		 M24.1,17.8c1.7,0,2.5-1.8,2.5-4.3c0-2.5-0.8-4.2-2.5-4.2s-2.5,1.7-2.5,4.2C21.6,16,22.4,17.8,24.1,17.8z"/>
	<path class="st1" d="M38,6.1c1.3,0,2.6,0.4,3.6,1.2l-1.4,2.8c-0.4-0.5-1.3-0.9-2.1-0.9c-2.1,0-3.2,1.9-3.2,4.2
		c0,2.3,1.2,4.4,3.2,4.4c1,0,1.7-0.5,2.3-1l1.4,2.8c-0.9,0.7-2,1.3-3.9,1.3c-4,0-6.3-3.1-6.3-7.4C31.5,9.3,33.9,6.1,38,6.1z"/>
</g>
<g>
	<g>
		<g>
			<path class="st0" d="M19.5,67.1l-4.8-14.8c-0.2-0.6-0.3-0.8-0.4-0.8c-0.1-0.1-0.2-0.1-0.3-0.2l-1.7-0.5l-0.1-2.1l0.9,0
				c1,0,2.1,0,3.2,0c1.4,0,2.8,0,4.1,0l0.8,0l0.2,2.1l-1.7,0.5c0,0,0,0.1,0,0.2c0,0.2,0.1,0.6,0.3,1l1.8,5.7l3.2-9.5l2.4-0.1
				l2.9,9.5l2-5.7c0.1-0.4,0.3-0.8,0.3-1c0,0,0-0.1,0-0.1l-1.5-0.4l-0.1-2.2l0.9,0c1.1,0,2.1,0,2.8,0c0.7,0,1.6,0,2.5,0l0.8,0
				l0.2,2.1l-1.9,0.6c-0.1,0-0.2,0.1-0.3,0.1c0,0.1-0.2,0.2-0.3,0.7l-5.3,14.7l-2.5,0.2L25.2,58L22,66.9L19.5,67.1z"/>
		</g>
	</g>
	<rect x="42.4" y="48.6" class="st2" width="17.6" height="2.8"/>
	<rect x="42.4" y="56" class="st2" width="17.6" height="2.8"/>
	<rect x="42.4" y="63.7" class="st2" width="17.6" height="2.8"/>
	<rect x="13" y="71.5" class="st2" width="47" height="2.8"/>
	<rect x="13" y="79.1" class="st2" width="47" height="2.8"/>
</g>
</svg>
