<?xml version="1.0" encoding="utf-8"?>
<!-- Generator: Adobe Illustrator 21.1.0, SVG Export Plug-In . SVG Version: 6.00 Build 0)  -->
<svg version="1.1" id="Layer_1" xmlns="http://www.w3.org/2000/svg" xmlns:xlink="http://www.w3.org/1999/xlink" x="0px" y="0px"
	 viewBox="0 0 72 96" style="enable-background:new 0 0 72 96;" xml:space="preserve">
<style type="text/css">
	.st0{fill:#1A75CE;}
	.st1{fill:#FFFFFF;}
	.st2{fill:#1A75CE;stroke:#1A75CE;stroke-width:0.5;stroke-miterlimit:10;}
</style>
<g>
	<path class="st0" d="M0,2l0,92c0,1.1,0.9,2,2,2h68c1.1,0,2-0.9,2-2V28H50c-1.1,0-2-0.9-2-2V0L2,0C0.9,0,0,0.9,0,2z"/>
	<path class="st0" d="M71.9,24c-0.1-0.4-0.2-0.7-0.4-1L52,1.2V24H71.9z"/>
</g>
<rect x="6" y="41" class="st1" width="60" height="49"/>
<g>
	<path class="st1" d="M6.5,6.4H10c3.1,0,5,2.6,5,7.1s-1.9,7.2-5,7.2H6.5V6.4z M9.9,17.8c1.4,0,2.2-1.5,2.2-4.3
		c0-2.8-0.8-4.2-2.2-4.2H9.2v8.5H9.9z"/>
	<path class="st1" d="M20.9,6.1c3.2,0,5,3.1,5,7.3c0,4.2-1.8,7.5-5,7.5s-5-3.2-5-7.5C15.9,9.3,17.7,6.1,20.9,6.1z M20.9,17.8
		c1.4,0,2.1-1.8,2.1-4.3c0-2.5-0.6-4.2-2.1-4.2s-2.1,1.7-2.1,4.2C18.8,16,19.5,17.8,20.9,17.8z"/>
	<path class="st1" d="M28.6,9.3h-2.7V6.4H34v2.9h-2.7v11.4h-2.8V9.3z"/>
	<path class="st1" d="M37.1,13.6l-2.9-7.2h3.1l1,2.9c0.3,0.9,0.5,1.8,0.5,1.8h0c0,0,0.2-0.9,0.5-1.8l1-2.9h3.1l-2.9,7.2l2.8,7.1h-3
		l-0.9-3C39,16.8,38.8,16,38.8,16h0c0,0-0.2,0.8-0.5,1.7l-1,3h-3L37.1,13.6z"/>
</g>
<g>
	<g>
		<g>
			<path class="st0" d="M19.5,67.1l-4.8-14.8c-0.2-0.6-0.3-0.8-0.4-0.8c-0.1-0.1-0.2-0.1-0.3-0.2l-1.7-0.5l-0.1-2.1l0.9,0
				c1,0,2.1,0,3.2,0c1.4,0,2.8,0,4.1,0l0.8,0l0.2,2.1l-1.7,0.5c0,0,0,0.1,0,0.2c0,0.2,0.1,0.6,0.3,1l1.8,5.7l3.2-9.5l2.4-0.1
				l2.9,9.5l2-5.7c0.1-0.4,0.3-0.8,0.3-1c0,0,0-0.1,0-0.1l-1.5-0.4l-0.1-2.2l0.9,0c1.1,0,2.1,0,2.8,0c0.7,0,1.6,0,2.5,0l0.8,0
				l0.2,2.1l-1.9,0.6c-0.1,0-0.2,0.1-0.3,0.1c0,0.1-0.2,0.2-0.3,0.7l-5.3,14.7l-2.5,0.2L25.2,58L22,66.9L19.5,67.1z"/>
		</g>
	</g>
	<rect x="42.4" y="48.6" class="st2" width="17.6" height="2.8"/>
	<rect x="42.4" y="56" class="st2" width="17.6" height="2.8"/>
	<rect x="42.4" y="63.7" class="st2" width="17.6" height="2.8"/>
	<rect x="13" y="71.5" class="st2" width="47" height="2.8"/>
	<rect x="13" y="79.1" class="st2" width="47" height="2.8"/>
</g>
</svg>
