<?xml version="1.0" encoding="utf-8"?>
<!-- Generator: Adobe Illustrator 21.1.0, SVG Export Plug-In . SVG Version: 6.00 Build 0)  -->
<svg version="1.1" id="Layer_1" xmlns="http://www.w3.org/2000/svg" xmlns:xlink="http://www.w3.org/1999/xlink" x="0px" y="0px"
	 viewBox="0 0 72 96" style="enable-background:new 0 0 72 96;" xml:space="preserve">
<style type="text/css">
	.st0{fill:#999999;}
	.st1{fill:#FFFFFF;}
	.st2{fill:#999999;stroke:#999999;stroke-width:0.75;stroke-miterlimit:10;}
</style>
<g>
	<g>
		<path class="st0" d="M0,2l0,92c0,1.1,0.9,2,2,2h68c1.1,0,2-0.9,2-2V28H50c-1.1,0-2-0.9-2-2V0L2,0C0.9,0,0,0.9,0,2z"/>
		<path class="st0" d="M71.9,24c-0.1-0.4-0.2-0.7-0.4-1L52,1.2V24H71.9z"/>
	</g>
	<rect x="6" y="41" class="st1" width="60" height="49"/>
</g>
<g>
	<path class="st1" d="M6.6,6.4h4.2c3.7,0,5.9,2.6,5.9,7.1s-2.2,7.2-5.9,7.2H6.6V6.4z M10.7,17.8c1.7,0,2.6-1.5,2.6-4.3
		c0-2.8-1-4.2-2.6-4.2H9.9v8.5H10.7z"/>
	<path class="st1" d="M21.4,9.3h-3.1V6.4h9.6v2.9h-3.2v11.4h-3.3V9.3z"/>
	<path class="st1" d="M30.6,6.4h4.2c3.7,0,5.9,2.6,5.9,7.1s-2.2,7.2-5.9,7.2h-4.2V6.4z M34.7,17.8c1.7,0,2.6-1.5,2.6-4.3
		c0-2.8-1-4.2-2.6-4.2h-0.8v8.5H34.7z"/>
</g>
<g>
	<polygon class="st2" points="30.2,64.4 19.2,58.9 19.2,58.8 30.2,53.4 30.2,49.6 15.6,57.4 15.6,60.4 30.2,68.1 	"/>
	<polygon class="st2" points="37.7,61.2 38.4,48.4 33.6,48.4 34.3,61.2 	"/>
	<path class="st2" d="M36,69.2c1.6,0,2.7-1.4,2.7-3.1c0-1.9-1.1-3.1-2.7-3.1s-2.7,1.3-2.7,3.1C33.2,67.8,34.3,69.2,36,69.2z"/>
	<polygon class="st2" points="41.8,49.6 41.8,53.4 53,58.8 53,58.9 41.8,64.4 41.8,68.1 56.4,60.4 56.4,57.3 	"/>
	<rect x="17.8" y="73" class="st2" width="36.5" height="2.5"/>
	<rect x="17.8" y="80.1" class="st2" width="36.5" height="2.5"/>
</g>
</svg>
