<?xml version="1.0" encoding="utf-8"?>
<!-- Generator: Adobe Illustrator 21.1.0, SVG Export Plug-In . SVG Version: 6.00 Build 0)  -->
<svg version="1.1" id="Layer_1" xmlns="http://www.w3.org/2000/svg" xmlns:xlink="http://www.w3.org/1999/xlink" x="0px" y="0px"
	 viewBox="0 0 72 96" style="enable-background:new 0 0 72 96;" xml:space="preserve">
<style type="text/css">
	.st0{fill:#996633;}
	.st1{fill:#FFFFFF;}
</style>
<g>
	<path class="st0" d="M0,2l0,92c0,1.1,0.9,2,2,2h68c1.1,0,2-0.9,2-2V28H50c-1.1,0-2-0.9-2-2V0L2,0C0.9,0,0,0.9,0,2z"/>
	<path class="st0" d="M71.9,24c-0.1-0.4-0.2-0.7-0.4-1L52,1.2V24H71.9z"/>
</g>
<rect x="6" y="41" class="st1" width="60" height="49"/>
<g>
	<path class="st1" d="M6.5,6.4H13v2.9H9.5V12h2.8v2.9H9.5v2.9h3.7v2.9H6.5V6.4z"/>
	<path class="st1" d="M14.6,6.4h4.1c2.4,0,3.9,2,3.9,4.9c0,2.9-1.6,5-3.9,5h-1.1v4.4h-3V6.4z M18.1,13.4c0.9,0,1.5-0.9,1.5-2.1
		s-0.6-2-1.4-2h-0.6v4.1H18.1z"/>
	<path class="st1" d="M23.7,6.4h3V16c0,1.4,0.5,1.9,1.4,1.9c0.8,0,1.3-0.5,1.3-1.9V6.4h3V16c0,3-1.7,4.9-4.3,4.9
		c-2.6,0-4.3-1.9-4.3-4.9V6.4z"/>
	<path class="st1" d="M34.2,6.4H38c2.2,0,3.8,1.3,3.8,3.7c0,1.2-0.5,2.4-1.5,3v0c1.5,0.5,1.9,1.9,1.9,3.2c0,3.1-1.8,4.3-4,4.3h-4
		V6.4z M38,12c0.6,0,0.8-0.6,0.8-1.4s-0.3-1.3-0.9-1.3h-0.7V12H38z M38.1,17.8c0.7,0,1-0.7,1-1.6c0-0.9-0.3-1.5-1-1.5h-1.1v3.1H38.1
		z"/>
</g>
<path id="path1236" class="st0" d="M56.6,61.3c-0.2-0.5-0.6-0.9-1-1.3c-0.1,0.4-0.2,0.8-0.5,1.2L42.6,80.5c-0.5,0.7-1.5,0.9-2.3,0.7
	l-20-5.6c-1.2-0.3-2.6-1-2.7-2.4c0-0.5,0-0.7,0.3-0.9c0.3-0.2,0.6-0.2,0.9-0.1l18.8,5.2c2.7,0.8,3.5,0.2,5.5-2.8L54.5,57
	c0.6-0.9,0.7-2,0.4-2.9c-0.3-0.9-1.1-1.6-2.1-1.9l-16.5-4.6c-0.4-0.1-0.8-0.1-1.2-0.1l0-0.1c-2.5-1.5-3.5,1.3-4.8,2.4
	c-0.5,0.4-1.1,0.7-1.3,1.1c-0.2,0.4-0.1,0.8-0.2,1.1c-0.5,1.1-1.9,2.9-2.6,3.4c-0.4,0.3-1,0.4-1.3,0.9c-0.2,0.3-0.2,0.9-0.3,1.3
	c-0.4,1-1.7,2.7-2.6,3.5c-0.3,0.3-0.8,0.5-1,0.9c-0.2,0.3-0.1,0.9-0.4,1.2c-0.6,1-1.8,2.6-2.7,3.5c-0.5,0.5-1.1,0.7-1.3,1.2
	c-0.1,0.2,0,0.6-0.1,0.9c-0.2,0.5-0.4,0.9-0.5,1.3c-0.5,0.7-0.8,1.7-0.7,2.7c0.2,2.4,2,4.8,4.2,5.4l20,5.6c1.9,0.5,4.2-0.4,5.2-2
	l11.5-17.7C56.8,63.3,56.9,62.2,56.6,61.3z M33.5,54.9l0.8-1.2c0.2-0.3,0.7-0.5,1.1-0.4l13.2,3.7c0.4,0.1,0.5,0.5,0.3,0.8L48.1,59
	c-0.2,0.3-0.7,0.5-1.1,0.4l-13.2-3.7C33.4,55.6,33.3,55.3,33.5,54.9z M30.2,59.9l0.8-1.2c0.2-0.3,0.7-0.5,1.1-0.4l13.2,3.7
	c0.4,0.1,0.5,0.5,0.3,0.8l-0.8,1.2c-0.2,0.3-0.7,0.5-1.1,0.4l-13.2-3.7C30.1,60.6,29.9,60.2,30.2,59.9z"/>
</svg>
