<?xml version="1.0" encoding="utf-8"?>
<!-- Generator: Adobe Illustrator 21.1.0, SVG Export Plug-In . SVG Version: 6.00 Build 0)  -->
<svg version="1.1" id="Layer_1" xmlns="http://www.w3.org/2000/svg" xmlns:xlink="http://www.w3.org/1999/xlink" x="0px" y="0px"
	 viewBox="0 0 72 96" style="enable-background:new 0 0 72 96;" xml:space="preserve">
<style type="text/css">
	.st0{fill:#FEA500;}
	.st1{fill:#FFFFFF;}
	.st2{font-family:'MuseoSansCond-900';}
	.st3{font-size:20px;}
	.st4{letter-spacing:1;}
</style>
<g>
	<path class="st0" d="M0,2l0,92c0,1.1,0.9,2,2,2h68c1.1,0,2-0.9,2-2V28H50c-1.1,0-2-0.9-2-2V0L2,0C0.9,0,0,0.9,0,2z"/>
	<path class="st0" d="M71.9,24c-0.1-0.4-0.2-0.7-0.4-1L52,1.2V24H71.9z"/>
</g>
<rect x="6" y="41" class="st1" width="60" height="49"/>
<text transform="matrix(1 0 0 1 5.5171 20.6929)" class="st1 st2 st3 st4">FAX</text>
<path class="st0" d="M30.9,60.7V50.2c0-1.1,0.9-1.9,1.9-1.9h11.9l6.1,6.1v6.2c0,0.2-0.2,0.4-0.4,0.4h-2.1c-0.2,0-0.4-0.2-0.4-0.4
	v-4.2H44c-0.8,0-1.4-0.6-1.4-1.4v-3.8h-8.8v9.4c0,0.2-0.2,0.4-0.4,0.4h-2.1C31.1,61.1,30.9,60.9,30.9,60.7z M30.9,83.3V64.7
	c0-0.4,0.3-0.7,0.7-0.7h20.6c0.4,0,0.7,0.3,0.7,0.7v15.6c0,2-1.7,3.7-3.7,3.7H31.7C31.2,84,30.9,83.7,30.9,83.3
	C30.9,83.3,30.9,83.3,30.9,83.3L30.9,83.3z M45.4,68.9c0,0.9,0.7,1.5,1.5,1.5l0,0l0,0c0.8,0,1.5-0.7,1.5-1.5l0,0
	c0-0.9-0.7-1.5-1.5-1.5l0,0l0,0C46.1,67.3,45.4,68,45.4,68.9L45.4,68.9z M45.4,74c0,0.9,0.7,1.5,1.5,1.5h0l0,0
	c0.9,0,1.5-0.7,1.5-1.5v0l0,0c0-0.8-0.7-1.5-1.5-1.6l0,0C46.1,72.4,45.4,73.1,45.4,74C45.4,74,45.4,74,45.4,74z M40.3,68.9
	c0,0.8,0.7,1.5,1.5,1.5l0,0c0.8,0,1.5-0.7,1.5-1.5l0,0c0-0.8-0.7-1.5-1.5-1.5l0,0C41,67.3,40.3,68,40.3,68.9z M40.3,74
	c0,0.8,0.7,1.5,1.5,1.5l0,0c0.9,0,1.5-0.7,1.5-1.5v0l0,0c0-0.9-0.7-1.5-1.5-1.6l0,0C41,72.4,40.3,73.1,40.3,74L40.3,74L40.3,74z
	 M40.3,79.1c0,0.8,0.7,1.5,1.5,1.5l0,0c0.9,0,1.5-0.7,1.5-1.5v0l0,0c0-0.8-0.7-1.5-1.5-1.5l0,0C41,77.6,40.3,78.3,40.3,79.1
	C40.3,79.1,40.3,79.1,40.3,79.1z M35.2,68.9c0,0.9,0.7,1.5,1.5,1.5l0,0c0.8,0,1.5-0.7,1.5-1.5l0,0c0-0.9-0.7-1.5-1.5-1.5l0,0
	C35.8,67.3,35.2,68,35.2,68.9z M35.2,74c0,0.9,0.7,1.5,1.5,1.5h0l0,0c0.9,0,1.5-0.7,1.5-1.5l0,0l0,0c0-0.9-0.7-1.5-1.5-1.6
	c0,0,0,0,0,0l0,0C35.9,72.4,35.2,73.1,35.2,74L35.2,74L35.2,74z M35.2,79.1c0,0.8,0.7,1.5,1.5,1.5l0,0c0.9,0,1.5-0.7,1.5-1.5l0,0
	l0,0c0-0.8-0.7-1.5-1.5-1.5l0,0C35.8,77.6,35.2,78.3,35.2,79.1C35.2,79.1,35.2,79.1,35.2,79.1z M22.3,84h4.9c0.4,0,0.7-0.3,0.7-0.7
	V60c0-0.4-0.3-0.7-0.7-0.7h-3.9c-2.6,0-4.7,2.1-4.7,4.7c0,0,0,0,0,0v16.4C18.6,82.3,20.2,84,22.3,84z"/>
</svg>
