<?xml version="1.0" encoding="utf-8"?>
<!-- Generator: Adobe Illustrator 21.1.0, SVG Export Plug-In . SVG Version: 6.00 Build 0)  -->
<svg version="1.1" id="Layer_1" xmlns="http://www.w3.org/2000/svg" xmlns:xlink="http://www.w3.org/1999/xlink" x="0px" y="0px"
	 viewBox="0 0 72 96" style="enable-background:new 0 0 72 96;" xml:space="preserve">
<style type="text/css">
	.st0{fill:#D10407;}
	.st1{fill:#FFFFFF;}
	.st2{fill:#D10407;stroke:#D10407;stroke-width:1.25;stroke-miterlimit:10;}
</style>
<g>
	<path class="st0" d="M0,2l0,92c0,1.1,0.9,2,2,2h68c1.1,0,2-0.9,2-2V28H50c-1.1,0-2-0.9-2-2V0L2,0C0.9,0,0,0.9,0,2z"/>
	<path class="st0" d="M71.9,24c-0.1-0.4-0.2-0.7-0.4-1L52,1.2V24H71.9z"/>
</g>
<rect x="6" y="41" class="st1" width="60" height="49"/>
<g>
	<path class="st1" d="M6.6,6.4h7.1v2.9H9.9v3.1H13v2.9H9.9v5.4H6.6V6.4z"/>
	<path class="st1" d="M16.7,6.4h3.3v11.4h4.3v2.9h-7.6V6.4z"/>
	<path class="st1" d="M29.4,6.4H33l3.6,14.3h-3.3l-0.6-3h-3l-0.6,3h-3.3L29.4,6.4z M32.2,15l-0.6-2.8c-0.2-0.9-0.4-2.5-0.4-2.5h-0.1
		c0,0-0.2,1.5-0.4,2.5L30.2,15H32.2z"/>
</g>
<g>
	<path class="st2" d="M28.2,54v10.1h8.5v2.6h-8.5v13.7h-3.9V51.4h13.3V54H28.2z"/>
	<path class="st2" d="M42.6,80.3V51.6h3.7v28.7H42.6z"/>
</g>
</svg>
