<?xml version="1.0" encoding="utf-8"?>
<!-- Generator: Adobe Illustrator 21.1.0, SVG Export Plug-In . SVG Version: 6.00 Build 0)  -->
<svg version="1.1" id="Layer_1" xmlns="http://www.w3.org/2000/svg" xmlns:xlink="http://www.w3.org/1999/xlink" x="0px" y="0px"
	 viewBox="0 0 72 96" style="enable-background:new 0 0 72 96;" xml:space="preserve">
<style type="text/css">
	.st0{fill:#003399;}
	.st1{fill:#FFFFFF;}
</style>
<g>
	<path class="st0" d="M0,2l0,92c0,1.1,0.9,2,2,2h68c1.1,0,2-0.9,2-2V28H50c-1.1,0-2-0.9-2-2V0L2,0C0.9,0,0,0.9,0,2z"/>
	<path class="st0" d="M71.9,24c-0.1-0.4-0.2-0.7-0.4-1L52,1.2V24H71.9z"/>
</g>
<rect x="6" y="41" class="st1" width="60" height="49"/>
<g>
	<path class="st1" d="M6.6,6.4h6.8v2.9H9.7v3.1h3v2.9h-3v5.4H6.6V6.4z"/>
	<path class="st1" d="M14.7,6.4h3.1v11.4h4.1v2.9h-7.2V6.4z"/>
	<path class="st1" d="M25.4,6.4h3.4l3.4,14.3H29l-0.6-3h-2.9l-0.6,3h-3.1L25.4,6.4z M28,15l-0.5-2.8c-0.2-0.9-0.4-2.5-0.4-2.5H27
		c0,0-0.2,1.5-0.4,2.5L26.1,15H28z"/>
	<path class="st1" d="M38.4,6.1c1.2,0,2.5,0.4,3.4,1.2l-1.3,2.8c-0.4-0.5-1.2-0.9-2-0.9c-2,0-3.1,1.9-3.1,4.2c0,2.3,1.1,4.4,3,4.4
		c0.9,0,1.6-0.5,2.2-1l1.3,2.8c-0.9,0.7-1.9,1.3-3.7,1.3c-3.8,0-6-3.1-6-7.4C32.3,9.3,34.6,6.1,38.4,6.1z"/>
</g>
<path class="st0" d="M47,66c-3.1-1.2-6.7,0.3-8,3.4c-1.2,3.1,0.3,6.7,3.4,8c0.6,0.3,1.3,0.4,2,0.4c3.5,0.1,6.4-2.6,6.4-6
	c0-7.8,0-15.5,0-23.3c0-0.2,0-0.3,0-0.6c-0.2,0-0.3,0.1-0.5,0.1c-6.8,1.9-13.5,3.9-20.3,5.8c-0.6,0.2-0.6,0.5-0.6,1v16.8
	c-0.5-0.2-0.7-0.3-1.1-0.4c-2.5-0.9-4.7-0.4-6.5,1.4c-1.8,1.7-2.3,4.3-1.3,6.6c1.3,3.1,4.9,4.6,8,3.4c2.3-1,3.8-3.2,3.8-5.7
	c0-5.2,0-10.4,0-15.6c0-0.7,0.2-0.9,0.9-1.1c3.3-0.9,6.6-1.9,10-2.8l4.8-1.4v10.4C47.5,66.2,47.3,66.1,47,66z"/>
</svg>
