<?xml version="1.0" encoding="utf-8"?>
<!-- Generator: Adobe Illustrator 21.1.0, SVG Export Plug-In . SVG Version: 6.00 Build 0)  -->
<svg version="1.1" id="Layer_1" xmlns="http://www.w3.org/2000/svg" xmlns:xlink="http://www.w3.org/1999/xlink" x="0px" y="0px"
	 viewBox="0 0 72 96" style="enable-background:new 0 0 72 96;" xml:space="preserve">
<style type="text/css">
	.st0{fill:#FF6600;}
	.st1{fill:#FFFFFF;}
</style>
<g>
	<path class="st0" d="M0,2l0,92c0,1.1,0.9,2,2,2h68c1.1,0,2-0.9,2-2V28H50c-1.1,0-2-0.9-2-2V0L2,0C0.9,0,0,0.9,0,2z"/>
	<path class="st0" d="M71.9,24c-0.1-0.4-0.2-0.7-0.4-1L52,1.2V24H71.9z"/>
</g>
<rect x="6" y="41" class="st1" width="60" height="49"/>
<g>
	<path class="st1" d="M6.6,6.4h7.1v2.9H9.9v3.1H13v2.9H9.9v5.4H6.6V6.4z"/>
	<path class="st1" d="M16.7,6.4h3.3v11.4h4.3v2.9h-7.6V6.4z"/>
	<path class="st1" d="M24.4,6.4H28l1.6,8.1c0.2,0.9,0.3,2.3,0.3,2.3H30c0,0,0.2-1.4,0.3-2.3l1.7-8.1h3.5l-3.9,14.3h-3.3L24.4,6.4z"
		/>
</g>
<g transform="translate(0,-952.36218)">
	<path class="st0" d="M35.8,1000.4c-9.7,0-17.5,7.8-17.5,17.5c0,9.7,7.8,17.5,17.5,17.5s17.5-7.8,17.5-17.5
		C53.2,1008.2,45.4,1000.4,35.8,1000.4z M39,1004.5l-2.8,10.6h7.4l-11.1,16.1l2.8-10.6h-7.4L39,1004.5z"/>
</g>
</svg>
