<?xml version="1.0" encoding="utf-8"?>
<!-- Generator: Adobe Illustrator 21.1.0, SVG Export Plug-In . SVG Version: 6.00 Build 0)  -->
<svg version="1.1" id="Layer_1" xmlns="http://www.w3.org/2000/svg" xmlns:xlink="http://www.w3.org/1999/xlink" x="0px" y="0px"
	 viewBox="0 0 72 96" style="enable-background:new 0 0 72 96;" xml:space="preserve">
<style type="text/css">
	.st0{fill:#CCCCCC;}
	.st1{fill:#999999;}
	.st2{fill:#333333;}
</style>
<path class="st0" d="M0,2l0,92c0,1.1,0.9,2,2,2h68c1.1,0,2-0.9,2-2V28H50c-1.1,0-2-0.9-2-2V0L2,0C0.9,0,0,0.9,0,2z"/>
<g transform="translate(0,-1036.3622)">
	<path class="st1" d="M57.2,1059.1l-19.3,2.6v15.3h19.3V1059.1z M34.4,1062.1l-19.3,2.6v12.3h19.3V1062.1z M15.2,1080.5v12.3
		l19.3,2.6v-14.8L15.2,1080.5L15.2,1080.5z M37.9,1080.5v15.3l19.3,2.6v-17.9H37.9z"/>
</g>
<path class="st0" d="M71.9,24c-0.1-0.4-0.2-0.7-0.4-1L52,1.2V24H71.9z"/>
<g>
	<path class="st2" d="M13,70.2c1.1,0,2.3,0.4,3.2,1.3l-1.1,2.8c-0.4-0.6-1.1-0.9-1.9-0.9c-1.8,0-2.5,1.9-2.5,4.2
		c0,2.6,1,4.3,2.3,4.3c0.5,0,1-0.2,1.4-0.6v-1.7h-1.2v-2.9h3.5v8.1h-2v-0.4c0-0.2,0-0.5,0-0.5h0c-0.4,0.7-1.3,1.2-2.2,1.2
		c-2.2,0-4.5-2.7-4.5-7.3C8,73.2,9.9,70.2,13,70.2z"/>
	<path class="st2" d="M20.8,70.4h2.8l2.9,14.3h-2.6l-0.5-3H21l-0.5,3H18L20.8,70.4z M23.1,79l-0.4-2.8c-0.2-0.9-0.3-2.5-0.3-2.5
		h-0.1c0,0-0.2,1.5-0.3,2.5L21.5,79H23.1z"/>
	<path class="st2" d="M28.2,70.4h3.3c2.9,0,4.7,2.6,4.7,7.1c0,4.5-1.8,7.2-4.7,7.2h-3.3V70.4z M31.5,81.8c1.3,0,2.1-1.5,2.1-4.3
		c0-2.8-0.8-4.2-2.1-4.2h-0.7v8.5H31.5z"/>
	<path class="st2" d="M43,70.2c1.1,0,2.3,0.4,3.2,1.3L45,74.2c-0.4-0.6-1.1-0.9-1.9-0.9c-1.8,0-2.5,1.9-2.5,4.2c0,2.6,1,4.3,2.3,4.3
		c0.5,0,1-0.2,1.4-0.6v-1.7h-1.2v-2.9h3.5v8.1h-2v-0.4c0-0.2,0-0.5,0-0.5h0c-0.4,0.7-1.3,1.2-2.2,1.2c-2.2,0-4.5-2.7-4.5-7.3
		C37.9,73.2,39.9,70.2,43,70.2z"/>
	<path class="st2" d="M48.8,70.4h5.7v2.9h-3.1V76h2.5v2.9h-2.5v2.9h3.3v2.9h-5.9V70.4z"/>
	<path class="st2" d="M58.6,73.3h-2.5v-2.9h7.7v2.9h-2.5v11.4h-2.6V73.3z"/>
</g>
<path class="st1" d="M0,94L0,2c0-1.1,0.9-2,2-2l48,0c0.6,0,1.1,0.2,1.5,0.7l20,22.3c0.3,0.4,0.5,0.8,0.5,1.3V94c0,1.1-0.9,2-2,2H2
	C0.9,96,0,95.1,0,94z M68,25.1L49.1,4H4v88h64V25.1z"/>
<path class="st1" d="M48,26V4c0-1.1,0.9-2,2-2s2,0.9,2,2v20h16c1.1,0,2,0.9,2,2s-0.9,2-2,2H50C48.9,28,48,27.1,48,26z"/>
</svg>
