<?xml version="1.0" encoding="utf-8"?>
<!-- Generator: Adobe Illustrator 21.1.0, SVG Export Plug-In . SVG Version: 6.00 Build 0)  -->
<svg version="1.1" id="Layer_1" xmlns="http://www.w3.org/2000/svg" xmlns:xlink="http://www.w3.org/1999/xlink" x="0px" y="0px"
	 viewBox="0 0 72 96" style="enable-background:new 0 0 72 96;" xml:space="preserve">
<style type="text/css">
	.st0{fill:#8ED200;}
	.st1{fill:#FFFFFF;}
</style>
<g>
	<path class="st0" d="M0,2l0,92c0,1.1,0.9,2,2,2h68c1.1,0,2-0.9,2-2V28H50c-1.1,0-2-0.9-2-2V0L2,0C0.9,0,0,0.9,0,2z"/>
	<path class="st0" d="M71.9,24c-0.1-0.4-0.2-0.7-0.4-1L52,1.2V24H71.9z"/>
</g>
<rect x="6" y="41" class="st1" width="60" height="49"/>
<g>
	<path class="st1" d="M12.4,6.1c1.4,0,2.9,0.4,3.9,1.3l-1.4,2.8c-0.6-0.6-1.4-0.9-2.3-0.9c-2.2,0-3.2,1.9-3.2,4.2
		c0,2.6,1.2,4.3,2.9,4.3c0.6,0,1.3-0.2,1.7-0.6v-1.7h-1.5v-2.9h4.3v8.1h-2.6v-0.4c0-0.2,0-0.5,0-0.5h0c-0.5,0.7-1.6,1.2-2.7,1.2
		c-2.8,0-5.6-2.7-5.6-7.3C6,9.2,8.5,6.1,12.4,6.1z"/>
	<path class="st1" d="M20.2,6.4h3.3v14.3h-3.3V6.4z"/>
	<path class="st1" d="M27.2,6.4h7.1v2.9h-3.8v3.1h3.1v2.9h-3.1v5.4h-3.3V6.4z"/>
</g>
<g>
	<path class="st0" d="M14,48.5v33.9h44V48.5L14,48.5L14,48.5z M55.5,51v14.8l-10.5-8L33.5,69.3l-8.1-4.5l-8.8,7V51H55.5z"/>
	<circle class="st0" cx="23" cy="57.6" r="3.1"/>
</g>
</svg>
