<?xml version="1.0" encoding="utf-8"?>
<!-- Generator: Adobe Illustrator 21.1.0, SVG Export Plug-In . SVG Version: 6.00 Build 0)  -->
<svg version="1.1" id="Layer_1" xmlns="http://www.w3.org/2000/svg" xmlns:xlink="http://www.w3.org/1999/xlink" x="0px" y="0px"
	 viewBox="0 0 72 96" style="enable-background:new 0 0 72 96;" xml:space="preserve">
<style type="text/css">
	.st0{fill:#CCCCCC;}
	.st1{fill:#333333;}
	.st2{fill:#999999;}
</style>
<path class="st0" d="M0,2l0,92c0,1.1,0.9,2,2,2h68c1.1,0,2-0.9,2-2V28H50c-1.1,0-2-0.9-2-2V0L2,0C0.9,0,0,0.9,0,2z"/>
<path class="st0" d="M71.9,24c-0.1-0.4-0.2-0.7-0.4-1L52,1.2V24H71.9z"/>
<g>
	<path class="st1" d="M11.3,70.2c0.9,0,1.9,0.4,2.5,1.3L13,74.2c-0.4-0.6-0.9-0.9-1.5-0.9c-1.4,0-2,1.9-2,4.2c0,2.6,0.8,4.3,1.8,4.3
		c0.4,0,0.8-0.2,1.1-0.6v-1.7h-0.9v-2.9h2.8v8.1h-1.6v-0.4c0-0.2,0-0.5,0-0.5h0c-0.3,0.7-1,1.2-1.7,1.2c-1.8,0-3.6-2.7-3.6-7.3
		C7.3,73.2,8.9,70.2,11.3,70.2z"/>
	<path class="st1" d="M15.4,70.4h2.1v14.3h-2.1V70.4z"/>
	<path class="st1" d="M20.3,73.3h-2v-2.9h6.1v2.9h-2v11.4h-2.1V73.3z"/>
	<path class="st1" d="M25.3,70.4h2.1v14.3h-2.1V70.4z"/>
	<path class="st1" d="M32.4,70.2c0.9,0,1.9,0.4,2.5,1.3L34,74.2c-0.4-0.6-0.9-0.9-1.5-0.9c-1.4,0-2,1.9-2,4.2c0,2.6,0.8,4.3,1.8,4.3
		c0.4,0,0.8-0.2,1.1-0.6v-1.7h-0.9v-2.9h2.8v8.1h-1.6v-0.4c0-0.2,0-0.5,0-0.5h0c-0.3,0.7-1,1.2-1.7,1.2c-1.8,0-3.6-2.7-3.6-7.3
		C28.4,73.2,29.9,70.2,32.4,70.2z"/>
	<path class="st1" d="M36.5,70.4h2.2l1.6,6.6c0.3,1,0.4,2.4,0.4,2.4h0.1c0,0-0.1-1.5-0.1-2.4v-6.6h2v14.3h-2.2l-1.6-6.6
		c-0.2-1-0.4-2.4-0.4-2.4h-0.1c0,0,0.1,1.5,0.1,2.4v6.6h-2V70.4z"/>
	<path class="st1" d="M47.4,70.2c2.4,0,3.8,3.1,3.8,7.3c0,4.2-1.3,7.5-3.8,7.5s-3.7-3.2-3.7-7.5C43.7,73.3,45,70.2,47.4,70.2z
		 M47.4,81.8c1.1,0,1.6-1.8,1.6-4.3c0-2.5-0.5-4.2-1.6-4.2s-1.6,1.7-1.6,4.2C45.8,80,46.3,81.8,47.4,81.8z"/>
	<path class="st1" d="M52.2,70.4h2.9c0.4,0,0.8,0.1,1.2,0.4c0.9,0.6,1.5,2.1,1.5,4c0,1.7-0.5,3.3-1.3,4v0c0,0,0.1,0.2,0.3,0.9l1.5,5
		H56l-1.3-4.8h-0.5v4.8h-2.1V70.4z M54.7,77c0.5,0,1-0.7,1-1.9c0-0.7-0.1-1.2-0.4-1.5c-0.2-0.2-0.4-0.3-0.6-0.3h-0.5V77H54.7z"/>
	<path class="st1" d="M59,70.4h4.6v2.9h-2.5V76h2v2.9h-2v2.9h2.6v2.9H59V70.4z"/>
</g>
<path class="st2" d="M0,94L0,2c0-1.1,0.9-2,2-2l48,0c0.6,0,1.1,0.2,1.5,0.7l20,22.3c0.3,0.4,0.5,0.8,0.5,1.3V94c0,1.1-0.9,2-2,2H2
	C0.9,96,0,95.1,0,94z M68,25.1L49.1,4H4v88h64V25.1z"/>
<path class="st2" d="M48,26V4c0-1.1,0.9-2,2-2s2,0.9,2,2v20h16c1.1,0,2,0.9,2,2s-0.9,2-2,2H50C48.9,28,48,27.1,48,26z"/>
</svg>
