<?xml version="1.0" encoding="utf-8"?>
<!-- Generator: Adobe Illustrator 21.1.0, SVG Export Plug-In . SVG Version: 6.00 Build 0)  -->
<svg version="1.1" id="Layer_1" xmlns="http://www.w3.org/2000/svg" xmlns:xlink="http://www.w3.org/1999/xlink" x="0px" y="0px"
	 viewBox="0 0 72 96" style="enable-background:new 0 0 72 96;" xml:space="preserve">
<style type="text/css">
	.st0{fill:#8ED200;}
	.st1{fill:#FFFFFF;}
	.st2{fill:none;}
</style>
<g>
	<path class="st0" d="M0,2l0,92c0,1.1,0.9,2,2,2h68c1.1,0,2-0.9,2-2V28H50c-1.1,0-2-0.9-2-2V0L2,0C0.9,0,0,0.9,0,2z"/>
	<path class="st0" d="M71.9,24c-0.1-0.4-0.2-0.7-0.4-1L52,1.2V24H71.9z"/>
</g>
<rect x="6" y="41" class="st1" width="60" height="49"/>
<g>
	<path class="st1" d="M6.6,6.4h3.3v14.3H6.6V6.4z"/>
	<path class="st1" d="M19.4,6.1c1.3,0,2.6,0.4,3.6,1.2l-1.4,2.8c-0.4-0.5-1.3-0.9-2.1-0.9c-2.1,0-3.2,1.9-3.2,4.2
		c0,2.3,1.2,4.4,3.2,4.4c1,0,1.7-0.5,2.3-1l1.4,2.8c-0.9,0.7-2,1.3-3.9,1.3c-4,0-6.3-3.1-6.3-7.4C13,9.3,15.4,6.1,19.4,6.1z"/>
	<path class="st1" d="M30.8,6.1c3.8,0,5.9,3.1,5.9,7.3c0,4.2-2.1,7.5-5.9,7.5S25,17.7,25,13.5C25,9.3,27.1,6.1,30.8,6.1z M30.8,17.8
		c1.7,0,2.5-1.8,2.5-4.3c0-2.5-0.8-4.2-2.5-4.2s-2.5,1.7-2.5,4.2C28.4,16,29.1,17.8,30.8,17.8z"/>
</g>
<g>
	<g>
		<path class="st0" d="M36.3,47c0.1-0.4,0.3-0.4,0.4,0l4.1,12.8c0.1,0.4,0.5,0.7,0.9,0.7h13.4c0.4,0,0.4,0.2,0.1,0.4l-10.9,7.8
			c-0.3,0.3-0.4,0.7-0.3,1.1l4.1,12.8c0.1,0.4,0,0.5-0.3,0.2l-10.9-7.9c-0.3-0.2-0.8-0.2-1.1,0l-10.9,7.9c-0.3,0.2-0.5,0.1-0.3-0.2
			l4.1-12.8c0.1-0.4,0-0.8-0.3-1.1l-10.9-7.9c-0.3-0.2-0.2-0.4,0.1-0.4h13.4c0.4,0,0.8-0.3,0.9-0.7L36.3,47z"/>
	</g>
	<path class="st2" d="M36.3,47c0.1-0.4,0.3-0.4,0.4,0l4.1,12.8c0.1,0.4,0.5,0.7,0.9,0.7h13.4c0.4,0,0.4,0.2,0.1,0.4l-10.9,7.8
		c-0.3,0.3-0.4,0.7-0.3,1.1l4.1,12.8c0.1,0.4,0,0.5-0.3,0.2l-10.9-7.9c-0.3-0.2-0.8-0.2-1.1,0l-10.9,7.9c-0.3,0.2-0.5,0.1-0.3-0.2
		l4.1-12.8c0.1-0.4,0-0.8-0.3-1.1l-10.9-7.9c-0.3-0.2-0.2-0.4,0.1-0.4h13.4c0.4,0,0.8-0.3,0.9-0.7L36.3,47z"/>
</g>
</svg>
