<?xml version="1.0" encoding="utf-8"?>
<!-- Generator: Adobe Illustrator 21.1.0, SVG Export Plug-In . SVG Version: 6.00 Build 0)  -->
<svg version="1.1" id="Layer_1" xmlns="http://www.w3.org/2000/svg" xmlns:xlink="http://www.w3.org/1999/xlink" x="0px" y="0px"
	 viewBox="0 0 72 96" style="enable-background:new 0 0 72 96;" xml:space="preserve">
<style type="text/css">
	.st0{fill:#C11E07;}
	.st1{fill:#FFFFFF;}
	.st2{fill:#111111;}
</style>
<g>
	<path class="st0" d="M0,2l0,92c0,1.1,0.9,2,2,2h68c1.1,0,2-0.9,2-2V28H50c-1.1,0-2-0.9-2-2V0L2,0C0.9,0,0,0.9,0,2z"/>
	<path class="st0" d="M71.9,24c-0.1-0.4-0.2-0.7-0.4-1L52,1.2V24H71.9z"/>
</g>
<rect x="6" y="41" class="st1" width="60" height="49"/>
<g>
	<path class="st1" d="M6.6,6.4h3.3v14.3H6.6V6.4z"/>
	<path class="st1" d="M19.4,6.1c1.3,0,2.6,0.4,3.6,1.2l-1.4,2.8c-0.4-0.5-1.3-0.9-2.1-0.9c-2.1,0-3.2,1.9-3.2,4.2
		c0,2.3,1.2,4.4,3.2,4.4c1,0,1.7-0.5,2.3-1l1.4,2.8c-0.9,0.7-2,1.3-3.9,1.3c-4,0-6.3-3.1-6.3-7.4C13,9.3,15.4,6.1,19.4,6.1z"/>
	<path class="st1" d="M26.7,16.7c0.6,0.6,1.4,1.2,2.3,1.2c0.9,0,1.3-0.6,1.3-1.2c0-2-4.8-2.1-4.8-6.2c0-2.4,1.7-4.3,4.5-4.3
		c1.2,0,2.4,0.3,3.4,1l-1.2,2.9c-0.5-0.4-1.4-0.9-2.2-0.9c-0.9,0-1.3,0.6-1.3,1.2c0,2.1,4.8,2,4.8,6.1c0,2.3-1.5,4.4-4.4,4.4
		c-1.4,0-2.9-0.5-4-1.4L26.7,16.7z"/>
</g>
<path id="path1156" class="st2" d="M20,80.5v-5.7h6.6v5.7H20z M28,80.5v-5.7h7.3v5.7H28z M20,73.5v-6.4h6.6v6.4H20z M28,73.5v-6.4
	h7.3v6.4H28z M20,65.8v-5.7h6.6v5.7H20z M36.8,80.5v-5.7h7.3v5.7H36.8z M28,65.8v-5.7h7.3v5.7H28z M45.6,80.5v-5.7h6.6v5.7H45.6z
	 M36.8,73.5v-6.4h7.3v6.4H36.8z M28.8,56.3c0,0.3-0.3,0.6-0.7,0.6h-1.5c-0.4,0-0.7-0.3-0.7-0.6v-5.7c0-0.3,0.3-0.6,0.7-0.6H28
	c0.4,0,0.7,0.3,0.7,0.6V56.3z M45.6,73.5v-6.4h6.6v6.4H45.6z M36.8,65.8v-5.7h7.3v5.7H36.8z M45.6,65.8v-5.7h6.6v5.7H45.6z
	 M46.4,56.3c0,0.3-0.3,0.6-0.7,0.6h-1.5c-0.4,0-0.7-0.3-0.7-0.6v-5.7c0-0.3,0.3-0.6,0.7-0.6h1.5c0.4,0,0.7,0.3,0.7,0.6V56.3z
	 M55.2,55c0-1.4-1.3-2.5-2.9-2.5h-2.9v-1.9c0-1.7-1.6-3.2-3.7-3.2h-1.5c-2,0-3.7,1.4-3.7,3.2v1.9h-8.8v-1.9c0-1.7-1.6-3.2-3.7-3.2
	h-1.5c-2,0-3.7,1.4-3.7,3.2v1.9H20c-1.6,0-2.9,1.2-2.9,2.5v25.4c0,1.4,1.3,2.5,2.9,2.5h32.2c1.6,0,2.9-1.2,2.9-2.5V55z"/>
</svg>
