<?xml version="1.0" encoding="utf-8"?>
<!-- Generator: Adobe Illustrator 21.1.0, SVG Export Plug-In . SVG Version: 6.00 Build 0)  -->
<svg version="1.1" id="Layer_1" xmlns="http://www.w3.org/2000/svg" xmlns:xlink="http://www.w3.org/1999/xlink" x="0px" y="0px"
	 viewBox="0 0 72 96" style="enable-background:new 0 0 72 96;" xml:space="preserve">
<style type="text/css">
	.st0{fill:#999999;}
	.st1{fill:#FFFFFF;}
</style>
<g>
	<g>
		<path class="st0" d="M0,2l0,92c0,1.1,0.9,2,2,2h68c1.1,0,2-0.9,2-2V28H50c-1.1,0-2-0.9-2-2V0L2,0C0.9,0,0,0.9,0,2z"/>
		<path class="st0" d="M71.9,24c-0.1-0.4-0.2-0.7-0.4-1L52,1.2V24H71.9z"/>
	</g>
	<rect x="6" y="41" class="st1" width="60" height="49"/>
</g>
<g>
	<path class="st1" d="M6.6,6.4h3.3v14.3H6.6V6.4z"/>
	<path class="st1" d="M13.6,6.4h4.2c3.7,0,5.9,2.6,5.9,7.1s-2.2,7.2-5.9,7.2h-4.2V6.4z M17.7,17.8c1.7,0,2.6-1.5,2.6-4.3
		c0-2.8-1-4.2-2.6-4.2h-0.8v8.5H17.7z"/>
	<path class="st1" d="M28.9,13.6l-3.4-7.2h3.6l1.1,2.9c0.3,0.9,0.6,1.8,0.6,1.8h0c0,0,0.2-0.9,0.6-1.8l1.2-2.9h3.6l-3.4,7.2l3.3,7.1
		h-3.5l-1.1-3C31,16.8,30.8,16,30.8,16h0c0,0-0.2,0.8-0.6,1.7l-1.1,3h-3.5L28.9,13.6z"/>
</g>
<path class="st0" d="M49.7,70c0,2.3-1.7,10.1-1.7,10.1C47.6,82,45.9,84,43.7,84H33.3c-1.5,0-2.9-0.9-3.5-2.3c0,0-5.1-9.4-7.1-12.8
	c-1.4-2.4-1.4-2.4,0.4-3.4c0.3-0.2,0.6-0.3,1-0.3c0.7,0,1.2,0.4,1.7,1l3.1,3.6l0.9,1.2v-1.6V49.3c0-1.1,1-2,2.2-2c1.1,0,2,0.9,2,2
	l0.4,14h0.9l0.2-2.4c0-1.1,0.9-2,2-2c1.1,0,2,0.9,2,2l0.2,2.9h0.9l0.2-1.9c0-1.1,0.9-2,2-2c1.1,0,2,0.9,2,2l0.2,1.9l0,0.5h0.7l0.2-1
	l0,0v0c0-1.1,0.9-2,2-2c1.1,0,2,0.9,2,2C49.7,63.3,49.7,67.7,49.7,70z"/>
</svg>
