<?xml version="1.0" encoding="utf-8"?>
<!-- Generator: Adobe Illustrator 21.1.0, SVG Export Plug-In . SVG Version: 6.00 Build 0)  -->
<svg version="1.1" id="Layer_1" xmlns="http://www.w3.org/2000/svg" xmlns:xlink="http://www.w3.org/1999/xlink" x="0px" y="0px"
	 viewBox="0 0 72 96" style="enable-background:new 0 0 72 96;" xml:space="preserve">
<style type="text/css">
	.st0{fill:#EAB41B;}
	.st1{fill:#FFFFFF;}
</style>
<g>
	<path class="st0" d="M0,2l0,92c0,1.1,0.9,2,2,2h68c1.1,0,2-0.9,2-2V28H50c-1.1,0-2-0.9-2-2V0L2,0C0.9,0,0,0.9,0,2z"/>
	<path class="st0" d="M71.9,24c-0.1-0.4-0.2-0.7-0.4-1L52,1.2V24H71.9z"/>
</g>
<rect x="6" y="41" class="st1" width="60" height="49"/>
<g>
	<path class="st1" d="M6.6,6.4h3.3v14.3H6.6V6.4z"/>
	<path class="st1" d="M14.1,6.4h3.6l1.3,6c0.2,0.9,0.4,2.4,0.4,2.4h0.1c0,0,0.2-1.5,0.4-2.4l1.3-6h3.6l0.9,14.3h-3l-0.4-6.4
		c-0.1-1.1,0-2.4,0-2.4h-0.1c0,0-0.2,1.5-0.4,2.4l-0.9,4.1h-3.2l-0.9-4.1c-0.2-0.9-0.4-2.4-0.4-2.4h-0.1c0,0,0.1,1.3,0,2.4l-0.4,6.4
		h-3L14.1,6.4z"/>
	<path class="st1" d="M34.9,6.1c1.4,0,2.9,0.4,3.9,1.3l-1.4,2.8c-0.6-0.6-1.4-0.9-2.3-0.9c-2.2,0-3.2,1.9-3.2,4.2
		c0,2.6,1.2,4.3,2.9,4.3c0.6,0,1.3-0.2,1.7-0.6v-1.7h-1.5v-2.9h4.3v8.1h-2.6v-0.4c0-0.2,0-0.5,0-0.5h0c-0.5,0.7-1.6,1.2-2.7,1.2
		c-2.8,0-5.6-2.7-5.6-7.3C28.6,9.2,31,6.1,34.9,6.1z"/>
</g>
<g>
	<path class="st0" d="M33.7,65.5c0,0.6,0.2,1.2,0.7,1.6c0.9,0.9,2.4,0.9,3.3,0c0.4-0.4,0.7-1,0.7-1.6c0-0.6-0.2-1.2-0.7-1.6
		c-0.4-0.4-1-0.7-1.6-0.7s-1.2,0.2-1.6,0.7C33.9,64.3,33.7,64.9,33.7,65.5z"/>
	<path class="st0" d="M22.9,52.4c-7.2,7.2-7.2,18.9,0,26.2c7.2,7.2,18.9,7.2,26.2,0c7.2-7.2,7.2-18.9,0-26.2
		C41.9,45.2,30.1,45.2,22.9,52.4z M50.3,73.3c-0.7,1.2-1.6,2.4-2.6,3.4c-1,1-2.2,1.9-3.4,2.6L40,71.1c0,0,0.4-0.1,1.2-0.9
		c0.8-0.8,1-1.2,1-1.2L50.3,73.3z M39.3,62.2c0.9,0.9,1.4,2.1,1.4,3.3c0,1.2-0.5,2.4-1.4,3.3c-1.8,1.8-4.7,1.8-6.5,0
		c-0.9-0.9-1.4-2.1-1.4-3.3c0-1.2,0.4-2.4,1.4-3.3C34.5,60.4,37.5,60.4,39.3,62.2z M33,59c0,0-0.9,0.5-1.6,1.3
		c-0.7,0.8-0.7,0.9-1,1.3l-8.2-4.4c0.7-1.2,1.6-2.4,2.6-3.4c1.1-1,2.2-1.9,3.4-2.6L33,59z"/>
</g>
</svg>
