<?xml version="1.0" encoding="utf-8"?>
<!-- Generator: Adobe Illustrator 21.1.0, SVG Export Plug-In . SVG Version: 6.00 Build 0)  -->
<svg version="1.1" id="Layer_1" xmlns="http://www.w3.org/2000/svg" xmlns:xlink="http://www.w3.org/1999/xlink" x="0px" y="0px"
	 viewBox="0 0 72 96" style="enable-background:new 0 0 72 96;" xml:space="preserve">
<style type="text/css">
	.st0{fill:#DB007B;}
	.st1{fill:#FFFFFF;}
	.st2{fill:#DB007B;stroke:#DB007B;stroke-width:1.25;stroke-miterlimit:10;}
</style>
<g>
	<path class="st0" d="M0,2l0,92c0,1.1,0.9,2,2,2h68c1.1,0,2-0.9,2-2V28H50c-1.1,0-2-0.9-2-2V0L2,0C0.9,0,0,0.9,0,2z"/>
	<path class="st0" d="M71.9,24c-0.1-0.4-0.2-0.7-0.4-1L52,1.2V24H71.9z"/>
</g>
<rect x="6" y="41" class="st1" width="60" height="49"/>
<g>
	<path class="st1" d="M6.5,6.4h2.9v14.3H6.5V6.4z"/>
	<path class="st1" d="M11.7,6.4h3l2.1,6.6c0.4,1,0.6,2.4,0.6,2.4h0.1c0,0-0.2-1.5-0.2-2.4V6.4h2.7v14.3h-3L15,14.1
		c-0.3-1-0.6-2.4-0.6-2.4h-0.1c0,0,0.2,1.5,0.2,2.4v6.6h-2.7V6.4z"/>
	<path class="st1" d="M22.5,6.4h3.7c3.2,0,5.2,2.6,5.2,7.1s-2,7.2-5.2,7.2h-3.7V6.4z M26.1,17.8c1.5,0,2.3-1.5,2.3-4.3
		c0-2.8-0.8-4.2-2.3-4.2h-0.7v8.5H26.1z"/>
	<path class="st1" d="M33.3,6.4H37c3.2,0,5.2,2.6,5.2,7.1s-2,7.2-5.2,7.2h-3.7V6.4z M36.9,17.8c1.5,0,2.3-1.5,2.3-4.3
		c0-2.8-0.8-4.2-2.3-4.2h-0.7v8.5H36.9z"/>
</g>
<g>
	<path class="st2" d="M22.3,79.3V50.4h3.9v28.9H22.3z"/>
	<path class="st2" d="M41.6,79.7c-6.5,0-9.9-4-9.9-9.9c0-5.9,3.4-10.6,9.9-10.6c1.1,0,2.3,0.1,3.5,0.4v-9.3h3.7v28
		C47.2,79.1,44.6,79.7,41.6,79.7z M45.1,61.5c-0.9-0.2-1.9-0.4-2.9-0.4c-5.1,0-6.8,4-6.8,8.3c0,4.7,1.8,8.1,6.4,8.1
		c1.5,0,2.5-0.2,3.3-0.6V61.5z"/>
</g>
</svg>
