<?xml version="1.0" encoding="utf-8"?>
<!-- Generator: Adobe Illustrator 21.1.0, SVG Export Plug-In . SVG Version: 6.00 Build 0)  -->
<svg version="1.1" id="Layer_1" xmlns="http://www.w3.org/2000/svg" xmlns:xlink="http://www.w3.org/1999/xlink" x="0px" y="0px"
	 viewBox="0 0 72 96" style="enable-background:new 0 0 72 96;" xml:space="preserve">
<style type="text/css">
	.st0{fill:#CCCCCC;}
	.st1{fill:#999999;}
	.st2{fill:#333333;}
</style>
<path class="st0" d="M0,2l0,92c0,1.1,0.9,2,2,2h68c1.1,0,2-0.9,2-2V28H50c-1.1,0-2-0.9-2-2V0L2,0C0.9,0,0,0.9,0,2z"/>
<g>
	<path class="st1" d="M42.3,35.7c0-2.5-1.5-4.5-3.7-5.4v-7.3c0-1.2-0.9-2.1-2.1-2.1s-2.1,0.9-2.1,2.1v7.3c-2.2,0.8-3.7,2.9-3.7,5.4
		c0,2.5,1.5,4.6,3.7,5.4c0,0.1-0.1,0.3-0.1,0.4v18.4c0,1.2,0.9,2.1,2.1,2.1s2.1-0.9,2.1-2.1V41.5c0-0.2,0-0.3-0.1-0.4
		C40.8,40.3,42.3,38.2,42.3,35.7z M36.5,37.3c-0.9,0-1.6-0.7-1.6-1.6s0.7-1.6,1.6-1.6s1.6,0.7,1.6,1.6S37.4,37.3,36.5,37.3z"/>
	<path class="st1" d="M53.3,23.1c0-1.2-0.9-2.1-2.1-2.1s-2.1,0.9-2.1,2.1v17.2c-2.2,0.8-3.7,2.9-3.7,5.4c0,2.5,1.5,4.6,3.7,5.4
		c0,0.1-0.1,0.3-0.1,0.4v8.4c0,1.2,0.9,2.1,2.1,2.1s2.1-0.9,2.1-2.1v-8.4c0-0.2,0-0.3-0.1-0.4c2.2-0.8,3.7-2.9,3.7-5.4
		s-1.5-4.5-3.7-5.4V23.1z M51.2,47.3c-0.9,0-1.6-0.7-1.6-1.6s0.7-1.6,1.6-1.6s1.6,0.7,1.6,1.6S52.1,47.3,51.2,47.3z"/>
	<path class="st1" d="M19.7,59.9c0,1.2,0.9,2.1,2.1,2.1s2.1-0.9,2.1-2.1v-8.4c0-0.2,0-0.3-0.1-0.4c2.2-0.8,3.7-2.9,3.7-5.4
		s-1.5-4.5-3.7-5.4V23.1c0-1.2-0.9-2.1-2.1-2.1s-2.1,0.9-2.1,2.1v17.2c-2.2,0.8-3.7,2.9-3.7,5.4c0,2.5,1.5,4.6,3.7,5.4
		c0,0.1-0.1,0.3-0.1,0.4V59.9z M21.8,44.1c0.9,0,1.6,0.7,1.6,1.6s-0.7,1.6-1.6,1.6c-0.9,0-1.6-0.7-1.6-1.6S20.9,44.1,21.8,44.1z"/>
</g>
<path class="st0" d="M71.9,24c-0.1-0.4-0.2-0.7-0.4-1L52,1.2V24H71.9z"/>
<g>
	<path class="st2" d="M22.4,70.4h3.3v14.3h-3.3V70.4z"/>
	<path class="st2" d="M29.3,70.4h3.5l2.4,6.6c0.4,1,0.7,2.4,0.7,2.4H36c0,0-0.2-1.5-0.2-2.4v-6.6h3.1v14.3h-3.4L33,78.1
		c-0.4-1-0.7-2.4-0.7-2.4h-0.1c0,0,0.2,1.5,0.2,2.4v6.6h-3.1V70.4z"/>
	<path class="st2" d="M42.6,70.4h7.1v2.9h-3.8v3.1H49v2.9h-3.1v5.4h-3.3V70.4z"/>
</g>
<path class="st1" d="M0,94L0,2c0-1.1,0.9-2,2-2l48,0c0.6,0,1.1,0.2,1.5,0.7l20,22.3c0.3,0.4,0.5,0.8,0.5,1.3V94c0,1.1-0.9,2-2,2H2
	C0.9,96,0,95.1,0,94z M68,25.1L49.1,4H4v88h64V25.1z"/>
<path class="st1" d="M48,26V4c0-1.1,0.9-2,2-2s2,0.9,2,2v20h16c1.1,0,2,0.9,2,2s-0.9,2-2,2H50C48.9,28,48,27.1,48,26z"/>
</svg>
