<?xml version="1.0" encoding="utf-8"?>
<!-- Generator: Adobe Illustrator 21.1.0, SVG Export Plug-In . SVG Version: 6.00 Build 0)  -->
<svg version="1.1" id="Layer_1" xmlns="http://www.w3.org/2000/svg" xmlns:xlink="http://www.w3.org/1999/xlink" x="0px" y="0px"
	 viewBox="0 0 72 96" style="enable-background:new 0 0 72 96;" xml:space="preserve">
<style type="text/css">
	.st0{fill:#666666;}
	.st1{fill:#FFFFFF;}
	.st2{fill:#666666;stroke:#666666;stroke-miterlimit:10;}
</style>
<g>
	<path class="st0" d="M0,2l0,92c0,1.1,0.9,2,2,2h68c1.1,0,2-0.9,2-2V28H50c-1.1,0-2-0.9-2-2V0L2,0C0.9,0,0,0.9,0,2z"/>
	<path class="st0" d="M71.9,24c-0.1-0.4-0.2-0.7-0.4-1L52,1.2V24H71.9z"/>
</g>
<rect x="6" y="41" class="st1" width="60" height="49"/>
<g>
	<path class="st1" d="M5.7,15.3H9v1.1c0,1.5,0.4,1.6,0.7,1.6c0.5,0,0.7-0.3,0.7-1.6v-7H7.7V6.4h6v9.9c0,3.3-2,4.6-4,4.6
		c-2.1,0-4-1.4-4-4.6V15.3z"/>
	<path class="st1" d="M19.7,6.4h3.6l3.6,14.3h-3.3l-0.6-3h-3l-0.6,3h-3.3L19.7,6.4z M22.5,15L22,12.1c-0.2-0.9-0.4-2.5-0.4-2.5h-0.1
		c0,0-0.2,1.5-0.4,2.5L20.5,15H22.5z"/>
	<path class="st1" d="M29.4,6.4h4.5c0.6,0,1.3,0.1,1.9,0.4c1.4,0.6,2.4,2.1,2.4,4c0,1.7-0.8,3.3-2,4v0c0,0,0.2,0.2,0.5,0.9l2.3,5
		h-3.6l-2-4.8h-0.8v4.8h-3.3V6.4z M33.3,13c0.9,0,1.6-0.7,1.6-1.9c0-0.7-0.2-1.2-0.6-1.5c-0.3-0.2-0.6-0.3-0.9-0.3h-0.7V13H33.3z"/>
</g>
<path class="st2" d="M45,67.1c2.2-0.7,4.4,0.7,4.2,2.8c-0.2,2.4-3.3,3.6-5.1,4.2l0.1-0.1l-0.1-0.1c1.3-1,3.9-2.2,3.7-4.6
	c-0.1-1.2-1-2.1-2.7-2V67.1L45,67.1z M28.9,67.5l0.1-0.1c-1,0-1.9,0.4-2.7,0.7c-0.8,0.3-1.8,0.4-2.2,1.3c0.4,0.7,1.4,0.7,2.4,0.8
	c3.4,0.5,8.3,0.4,11.7,0c1.8-0.2,3.4-0.4,4.2-1.2l-0.1-0.1l0.1-0.1c-3.4,0.4-7.8,1-11.9,0.8c-1.3-0.1-3-0.1-3.7-0.8
	C27.2,68.1,28.2,67.9,28.9,67.5L28.9,67.5z M48.8,81.6v-0.1c-5.1,2.5-13.2,2.8-20.5,2.2l0.1,0.1L28.3,84c3,0.5,6.9,0.7,10.7,0.4
	c3.7-0.2,8.2-0.7,9.9-2.7L48.8,81.6z M34.4,66.2h0.1c-0.8-1.8-2.3-2.6-2.5-4.7c-0.2-1.9,0.7-3.1,1.6-4c1.1-1.2,2.7-2.2,3.9-3.5
	c1.6-1.8,3.4-4.5,1.9-7.1l-0.1,0.1L39,46.9c0.4,2.5-0.6,4.1-1.9,5.4c-1,1.2-2.6,2.2-4,3.3c-1.6,1.3-3.7,2.9-3.1,5.3
	c0.5,2.3,2.8,3.9,4.1,5.4L34.4,66.2z M42.4,54.6l-0.1-0.1c-2.7,1-6.7,2.6-7.1,5.7c-0.1,1.5,0.4,2.6,0.9,3.4c0.4,0.6,1.1,1,1.3,1.9
	c0.2,0.8,0,1.6-0.2,2.2h0.1l0.1,0.1c1.1-0.8,2.2-1.9,1.9-3.4c-0.2-1.5-1.9-2.5-2.1-3.9c-0.1-0.8,0.1-1.5,0.4-1.9
	C38.7,56.9,41.1,55.7,42.4,54.6L42.4,54.6z M28.6,72l-0.1-0.1c-0.5,0.3-1.5,0.4-1.4,1.2s1.5,1,2.2,1.2c3.7,0.8,9.2,0.3,11.9-0.6
	l-0.1-0.1l0.1-0.1c-0.3-0.1-0.7-0.7-1.3-0.7c-0.5-0.1-1.6,0.3-2.6,0.4c-1.6,0.2-3.3,0.3-4.8,0.2C31.4,73.3,28,73.3,28.6,72L28.6,72z
	 M29.5,76.1l0.1-0.1c-0.6,0.2-1.3,0.4-1.3,1.1c0,0.6,1.2,1,1.9,1.3c3.3,1,8.5,0.4,10.9-0.7c-0.2-0.3-0.6-0.4-0.9-0.6
	c-0.4-0.1-0.7-0.3-1.1-0.5c-2,0.5-5.1,0.7-7.5,0.4c-0.7-0.1-1.7-0.1-1.9-0.8L29.5,76.1z M47.2,79.3l-0.1-0.1c-0.1,1-1.3,1.1-2.1,1.3
	c-0.9,0.2-1.9,0.4-3,0.5c-4.9,0.6-11.5,0.9-16.3,0c-0.9-0.1-2.2-0.4-2.5-1.1c0.4-0.7,1.5-0.8,2.4-1.2l-0.1-0.1l0.1-0.1
	c-1.2,0.1-2.1,0.4-3,0.7c-0.7,0.3-1.7,0.7-1.9,1.5c0.6,0.8,1.8,0.8,2.8,1c6.6,1,15.7,1.2,21.4-0.7c1-0.4,3.1-1,2.1-1.9L47.2,79.3z
	 M43.5,74.2c0.2,0,0.4-0.1,0.7-0.2 M45.1,67.2c-0.2,0-0.4,0.1-0.7,0.1 M42.2,69c0.1,0,0.2-0.1,0.4-0.1 M30.1,67.3
	c-0.4,0.1-0.8,0.1-1.3,0.2 M26.6,83.4c0.5,0.2,1.1,0.2,1.7,0.4 M48.8,81.6c0.1-0.1,0.2-0.2,0.3-0.4 M39.2,46.9
	c0-0.1-0.1-0.3-0.1-0.4 M34.4,66.2c0.1,0.1,0.3,0.4,0.4,0.5 M37.1,67.9c0.1-0.1,0.2-0.2,0.3-0.4 M43.1,54.3
	c-0.3,0.1-0.5,0.2-0.7,0.4 M41.2,73.5c0.1,0,0.1,0,0.2,0 M28.8,71.7c0,0.1-0.2,0.1-0.2,0.2 M29.5,76.1c0.1-0.1,0.1-0.1,0.1-0.1
	 M26.8,78.7c-0.4,0-0.7,0.1-1,0.1 M47.2,79.3c0-0.1-0.1-0.1-0.1-0.1h-0.1"/>
</svg>
