<?xml version="1.0" encoding="utf-8"?>
<!-- Generator: Adobe Illustrator 21.1.0, SVG Export Plug-In . SVG Version: 6.00 Build 0)  -->
<svg version="1.1" id="Layer_1" xmlns="http://www.w3.org/2000/svg" xmlns:xlink="http://www.w3.org/1999/xlink" x="0px" y="0px"
	 viewBox="0 0 72 96" style="enable-background:new 0 0 72 96;" xml:space="preserve">
<style type="text/css">
	.st0{fill:#999999;}
	.st1{fill:#FFFFFF;}
</style>
<g>
	<g>
		<path class="st0" d="M0,2l0,92c0,1.1,0.9,2,2,2h68c1.1,0,2-0.9,2-2V28H50c-1.1,0-2-0.9-2-2V0L2,0C0.9,0,0,0.9,0,2z"/>
		<path class="st0" d="M71.9,24c-0.1-0.4-0.2-0.7-0.4-1L52,1.2V24H71.9z"/>
	</g>
	<rect x="6" y="41" class="st1" width="60" height="49"/>
</g>
<g>
	<path class="st1" d="M5.7,15.3H9v1.1c0,1.5,0.4,1.6,0.7,1.6c0.5,0,0.7-0.3,0.7-1.6v-7H7.7V6.4h6v9.9c0,3.3-2,4.6-4,4.6
		c-2.1,0-4-1.4-4-4.6V15.3z"/>
	<path class="st1" d="M18,16.7c0.6,0.6,1.4,1.2,2.3,1.2c0.9,0,1.3-0.6,1.3-1.2c0-2-4.8-2.1-4.8-6.2c0-2.4,1.7-4.3,4.5-4.3
		c1.2,0,2.4,0.3,3.4,1l-1.2,2.9c-0.5-0.4-1.4-0.9-2.2-0.9c-0.9,0-1.3,0.6-1.3,1.2c0,2.1,4.8,2,4.8,6.1c0,2.3-1.5,4.4-4.4,4.4
		c-1.4,0-2.9-0.5-4-1.4L18,16.7z"/>
</g>
<g>
	<path class="st0" d="M14,67.7v-4.6c1-0.1,1.8-0.2,2.3-0.5c0.5-0.2,0.9-0.7,1.3-1.1c0.4-0.6,0.6-1.2,0.8-2.1
		c0.1-0.7,0.2-1.7,0.2-3.2c0-2.5,0.1-4.2,0.4-5.2c0.2-0.9,0.7-1.8,1.3-2.3c0.6-0.6,1.6-1,2.8-1.4c0.8-0.2,2.1-0.4,3.9-0.4H28v4.6
		c-1.5,0-2.5,0.1-2.9,0.3c-0.4,0.2-0.7,0.4-1,0.7c-0.2,0.3-0.3,0.8-0.3,1.7s-0.1,2.3-0.2,4.6c-0.1,1.3-0.2,2.3-0.5,3.1
		c-0.3,0.7-0.7,1.4-1.1,2c-0.4,0.5-1.1,1-2,1.6c0.8,0.5,1.5,0.9,2,1.5c0.5,0.6,0.9,1.3,1.2,2.1c0.3,0.8,0.5,2,0.5,3.4
		c0.1,2.1,0.1,3.5,0.1,4.1c0,0.8,0.1,1.4,0.3,1.8c0.2,0.4,0.6,0.6,1,0.7c0.4,0.2,1.4,0.3,2.9,0.3V84h-1.1c-1.8,0-3.3-0.1-4.2-0.4
		c-1-0.3-1.8-0.7-2.5-1.4c-0.7-0.7-1.1-1.4-1.4-2.3c-0.2-0.9-0.3-2.4-0.3-4.5c0-2.3-0.1-3.9-0.3-4.6c-0.3-1-0.8-1.8-1.4-2.2
		C16.2,68,15.3,67.7,14,67.7z"/>
	<path class="st0" d="M57.9,67.7c-1,0.1-1.8,0.2-2.3,0.5c-0.5,0.2-0.9,0.7-1.3,1.1c-0.4,0.6-0.6,1.2-0.8,2.1
		c-0.1,0.7-0.2,1.7-0.2,3.2c0,2.5-0.1,4.2-0.4,5.2c-0.2,1-0.7,1.8-1.3,2.3c-0.6,0.6-1.6,1-2.8,1.4c-0.8,0.2-2.1,0.4-3.9,0.4h-1.1
		v-4.6c1.5,0,2.4-0.1,2.9-0.3s0.8-0.5,1-0.7c0.2-0.3,0.3-0.8,0.3-1.7c0-0.7,0.1-2.2,0.2-4.5c0.1-1.3,0.3-2.4,0.6-3.2
		c0.3-0.8,0.7-1.5,1.2-2.1c0.5-0.6,1.1-1,1.9-1.5c-1-0.7-1.8-1.2-2.2-1.8c-0.6-0.8-1.1-2-1.3-3.2c-0.2-0.9-0.3-2.9-0.3-5.9
		c0-0.9-0.1-1.6-0.3-2c-0.2-0.3-0.5-0.6-0.9-0.7c-0.4-0.2-1.4-0.3-3-0.3V47h1.1c1.8,0,3.3,0.1,4.2,0.4c1,0.3,1.8,0.7,2.5,1.4
		c0.7,0.7,1.1,1.4,1.4,2.3c0.2,0.9,0.4,2.4,0.4,4.5c0,2.3,0.1,3.8,0.3,4.6c0.3,1,0.8,1.8,1.4,2.1c0.6,0.5,1.6,0.7,2.8,0.7L57.9,67.7
		L57.9,67.7z"/>
</g>
</svg>
