<?xml version="1.0" encoding="utf-8"?>
<!-- Generator: Adobe Illustrator 21.1.0, SVG Export Plug-In . SVG Version: 6.00 Build 0)  -->
<svg version="1.1" id="Layer_1" xmlns="http://www.w3.org/2000/svg" xmlns:xlink="http://www.w3.org/1999/xlink" x="0px" y="0px"
	 viewBox="0 0 72 96" style="enable-background:new 0 0 72 96;" xml:space="preserve">
<style type="text/css">
	.st0{fill:#D5006E;}
	.st1{fill:#FFFFFF;}
</style>
<g>
	<path class="st0" d="M0,2l0,92c0,1.1,0.9,2,2,2h68c1.1,0,2-0.9,2-2V28H50c-1.1,0-2-0.9-2-2V0L2,0C0.9,0,0,0.9,0,2z"/>
	<path class="st0" d="M71.9,24c-0.1-0.4-0.2-0.7-0.4-1L52,1.2V24H71.9z"/>
</g>
<rect x="6" y="41" class="st1" width="60" height="49"/>
<g>
	<path class="st1" d="M6.5,6.4h2.8v11.4h3.7v2.9H6.5V6.4z"/>
	<path class="st1" d="M15.2,6.4H18v14.3h-2.8V6.4z"/>
	<path class="st1" d="M26.1,6.1c1.1,0,2.2,0.4,3.1,1.2L28,10.2c-0.3-0.5-1.1-0.9-1.8-0.9c-1.8,0-2.7,1.9-2.7,4.2
		c0,2.3,1,4.4,2.7,4.4c0.8,0,1.4-0.5,2-1l1.2,2.8c-0.8,0.7-1.7,1.3-3.3,1.3c-3.4,0-5.3-3.1-5.3-7.4C20.6,9.3,22.7,6.1,26.1,6.1z"/>
	<path class="st1" d="M33.7,13.6l-2.9-7.2h3.1l1,2.9c0.3,0.9,0.5,1.8,0.5,1.8h0c0,0,0.2-0.9,0.5-1.8l1-2.9h3.1l-2.9,7.2l2.8,7.1h-3
		l-0.9-3c-0.3-0.9-0.5-1.7-0.5-1.7h0c0,0-0.2,0.8-0.5,1.7l-1,3h-3L33.7,13.6z"/>
</g>
<path class="st0" d="M30.1,67.5c-1.1,0.9-2.2,1.7-3.3,2.5c-2.2,1.7-4.4,3.4-6.6,5.1c-0.3,0.2-0.5,0.3-0.8,0.1
	c-0.5-0.3-0.9-0.5-1.4-0.7c-0.3-0.1-0.4-0.3-0.4-0.6c0-5.9,0-11.7,0-17.6c0-0.2,0.2-0.5,0.3-0.6c0.5-0.3,1-0.5,1.6-0.8
	c0.3-0.1,0.5,0,0.7,0.1c1.8,1.4,3.6,2.8,5.5,4.2c1.5,1.1,3,2.3,4.5,3.4c0.1-0.1,0.2-0.2,0.3-0.3c5.5-5.3,10.9-10.6,16.4-15.9
	c0.3-0.3,0.5-0.3,0.9-0.2c2.3,0.9,4.6,1.9,6.9,2.8c0.2,0.1,0.3,0.3,0.4,0.5c0.1,0.1,0,0.3,0,0.4c0,10.1,0,20.2,0,30.2
	c0,0.7,0,0.7-0.7,1c-2.2,0.9-4.4,1.7-6.6,2.6c-0.4,0.2-0.6,0.1-0.9-0.2C41.4,78.5,36,73.2,30.5,68C30.4,67.8,30.3,67.7,30.1,67.5z
	 M45.8,72.3c0-4.8,0-9.6,0-14.4c-3.2,2.4-6.4,4.8-9.6,7.2C39.4,67.5,42.6,69.9,45.8,72.3z M25.7,65.1c-1.6-1.4-3.2-2.8-4.8-4.3
	c0,2.9,0,5.7,0,8.6C22.5,68,24.1,66.6,25.7,65.1z"/>
</svg>
