<?xml version="1.0" encoding="utf-8"?>
<!-- Generator: Adobe Illustrator 21.1.0, SVG Export Plug-In . SVG Version: 6.00 Build 0)  -->
<svg version="1.1" id="Layer_1" xmlns="http://www.w3.org/2000/svg" xmlns:xlink="http://www.w3.org/1999/xlink" x="0px" y="0px"
	 viewBox="0 0 72 96" style="enable-background:new 0 0 72 96;" xml:space="preserve">
<style type="text/css">
	.st0{fill:#999999;}
	.st1{fill:#FFFFFF;}
</style>
<g>
	<g>
		<path class="st0" d="M0,2l0,92c0,1.1,0.9,2,2,2h68c1.1,0,2-0.9,2-2V28H50c-1.1,0-2-0.9-2-2V0L2,0C0.9,0,0,0.9,0,2z"/>
		<path class="st0" d="M71.9,24c-0.1-0.4-0.2-0.7-0.4-1L52,1.2V24H71.9z"/>
	</g>
	<rect x="6" y="41" class="st1" width="60" height="49"/>
</g>
<g>
	<path class="st1" d="M6.6,6.4h3.3v11.4h4.3v2.9H6.6V6.4z"/>
	<path class="st1" d="M16.4,6.4h3.3V16c0,1.4,0.6,1.9,1.5,1.9c0.9,0,1.5-0.5,1.5-1.9V6.4h3.3V16c0,3-1.9,4.9-4.7,4.9
		c-2.9,0-4.8-1.9-4.8-4.9V6.4z"/>
	<path class="st1" d="M31.8,6.4h3.6L39,20.7h-3.3l-0.6-3h-3l-0.6,3h-3.3L31.8,6.4z M34.6,15L34,12.1c-0.2-0.9-0.4-2.5-0.4-2.5h-0.1
		c0,0-0.2,1.5-0.4,2.5L32.6,15H34.6z"/>
</g>
<g>
	<rect x="14" y="48.9" class="st0" width="37" height="4.3"/>
	<rect x="21" y="58.5" class="st0" width="37" height="4.3"/>
	<rect x="14" y="68.1" class="st0" width="37" height="4.3"/>
	<rect x="21" y="77.7" class="st0" width="37" height="4.3"/>
</g>
</svg>
