<?xml version="1.0" encoding="utf-8"?>
<!-- Generator: Adobe Illustrator 21.1.0, SVG Export Plug-In . SVG Version: 6.00 Build 0)  -->
<svg version="1.1" id="Layer_1" xmlns="http://www.w3.org/2000/svg" xmlns:xlink="http://www.w3.org/1999/xlink" x="0px" y="0px"
	 viewBox="0 0 72 96" style="enable-background:new 0 0 72 96;" xml:space="preserve">
<style type="text/css">
	.st0{fill:#003399;}
	.st1{fill:#FFFFFF;}
</style>
<g>
	<path class="st0" d="M0,2l0,92c0,1.1,0.9,2,2,2h68c1.1,0,2-0.9,2-2V28H50c-1.1,0-2-0.9-2-2V0L2,0C0.9,0,0,0.9,0,2z"/>
	<path class="st0" d="M71.9,24c-0.1-0.4-0.2-0.7-0.4-1L52,1.2V24H71.9z"/>
</g>
<rect x="6" y="41" class="st1" width="60" height="49"/>
<g>
	<path class="st1" d="M7.1,6.4h3.6l1.3,6c0.2,0.9,0.4,2.4,0.4,2.4h0.1c0,0,0.2-1.5,0.4-2.4l1.3-6H18l0.9,14.3h-3l-0.4-6.4
		c-0.1-1.1,0-2.4,0-2.4h-0.1c0,0-0.2,1.5-0.4,2.4l-0.9,4.1H11l-0.9-4.1c-0.2-0.9-0.4-2.4-0.4-2.4H9.6c0,0,0.1,1.3,0,2.4l-0.4,6.4h-3
		L7.1,6.4z"/>
	<path class="st1" d="M22.5,17c0.4,0.4,1.1,0.7,1.7,0.7c0.9,0,1.6-0.4,1.6-1.6c0-1-0.7-1.5-2.3-1.5h-0.9L22,12.8l2-2.5
		c0.5-0.6,0.9-1,0.9-1v0c0,0-0.4,0.1-1.1,0.1h-2.3V6.4h7.2V9l-2.6,3.1c2,0.5,3.1,2.1,3.1,4.1c0,2.4-1.4,4.8-4.7,4.8
		c-1.3,0-2.5-0.4-3.5-1.3L22.5,17z"/>
	<path class="st1" d="M31.8,6.4h3.3V16c0,1.4,0.6,1.9,1.5,1.9c0.9,0,1.5-0.5,1.5-1.9V6.4h3.3V16c0,3-1.9,4.9-4.7,4.9
		c-2.9,0-4.8-1.9-4.8-4.9V6.4z"/>
</g>
<g>
	<path class="st0" d="M14.6,54.3h22.9c1.2,0,2.1-0.9,2.1-2.1s-0.9-2.1-2.1-2.1H14.6c-1.2,0-2.1,0.9-2.1,2.1S13.4,54.3,14.6,54.3z"/>
	<path class="st0" d="M14.6,65.4h22.9c1.2,0,2.1-0.9,2.1-2.1s-0.9-2.1-2.1-2.1H14.6c-1.2,0-2.1,0.9-2.1,2.1S13.4,65.4,14.6,65.4z"/>
	<path class="st0" d="M25.6,71.3h-11c-1.2,0-2.1,0.9-2.1,2.1s0.9,2.1,2.1,2.1h11c1.2,0,2.1-0.9,2.1-2.1S26.8,71.3,25.6,71.3z"/>
	<path class="st0" d="M52.5,53.8c-1.6-0.8-3.7-2-4.5-3.7c0-0.9-0.7-1.6-1.6-1.6c-0.9,0-1.6,0.7-1.6,1.6v21.5
		c-1.7-0.9-4.9-0.6-7.3,0.8c-3.8,2.1-5.4,6.1-3.8,8.8s6.1,3.3,9.9,1.2c2.6-1.5,4.4-3.9,4.5-6.3c0-6.2,0-12.3,0-18.5
		c5.4,0,8.7,2.2,7.5,7.5c-0.2,1-0.6,1.9-1,2.9l0,0c-0.2,0.3-0.2,0.7,0.1,1c0.3,0.3,0.8,0.2,1.2-0.2c2-2,3.3-4.6,3.4-7.5
		C59.2,57.5,55.6,55.3,52.5,53.8z"/>
</g>
</svg>
