<?xml version="1.0" encoding="utf-8"?>
<!-- Generator: Adobe Illustrator 21.1.0, SVG Export Plug-In . SVG Version: 6.00 Build 0)  -->
<svg version="1.1" id="Layer_1" xmlns="http://www.w3.org/2000/svg" xmlns:xlink="http://www.w3.org/1999/xlink" x="0px" y="0px"
	 viewBox="0 0 72 96" style="enable-background:new 0 0 72 96;" xml:space="preserve">
<style type="text/css">
	.st0{fill:#003399;}
	.st1{fill:#FFFFFF;}
	.st2{font-family:'MuseoSansCond-700';}
	.st3{font-size:20px;}
</style>
<g>
	<path class="st0" d="M0,2l0,92c0,1.1,0.9,2,2,2h68c1.1,0,2-0.9,2-2V28H50c-1.1,0-2-0.9-2-2V0L2,0C0.9,0,0,0.9,0,2z"/>
	<path class="st0" d="M71.9,24c-0.1-0.4-0.2-0.7-0.4-1L52,1.2V24H71.9z"/>
</g>
<rect x="6" y="41" class="st1" width="60" height="49"/>
<text transform="matrix(0.85 0 0 1 5.5171 20.6929)" class="st1 st2 st3">M3U8</text>
<g>
	<path class="st0" d="M14.6,54.3h22.9c1.2,0,2.1-0.9,2.1-2.1s-0.9-2.1-2.1-2.1H14.6c-1.2,0-2.1,0.9-2.1,2.1S13.4,54.3,14.6,54.3z"/>
	<path class="st0" d="M14.6,65.4h22.9c1.2,0,2.1-0.9,2.1-2.1s-0.9-2.1-2.1-2.1H14.6c-1.2,0-2.1,0.9-2.1,2.1S13.4,65.4,14.6,65.4z"/>
	<path class="st0" d="M25.6,71.3h-11c-1.2,0-2.1,0.9-2.1,2.1s0.9,2.1,2.1,2.1h11c1.2,0,2.1-0.9,2.1-2.1S26.8,71.3,25.6,71.3z"/>
	<path class="st0" d="M52.5,53.8c-1.6-0.8-3.7-2-4.5-3.7c0-0.9-0.7-1.6-1.6-1.6c-0.9,0-1.6,0.7-1.6,1.6v21.5
		c-1.7-0.9-4.9-0.6-7.3,0.8c-3.8,2.1-5.4,6.1-3.8,8.8s6.1,3.3,9.9,1.2c2.6-1.5,4.4-3.9,4.5-6.3c0-6.2,0-12.3,0-18.5
		c5.4,0,8.7,2.2,7.5,7.5c-0.2,1-0.6,1.9-1,2.9l0,0c-0.2,0.3-0.2,0.7,0.1,1c0.3,0.3,0.8,0.2,1.2-0.2c2-2,3.3-4.6,3.4-7.5
		C59.2,57.5,55.6,55.3,52.5,53.8z"/>
</g>
</svg>
