<?xml version="1.0" encoding="utf-8"?>
<!-- Generator: Adobe Illustrator 21.1.0, SVG Export Plug-In . SVG Version: 6.00 Build 0)  -->
<svg version="1.1" id="Layer_1" xmlns="http://www.w3.org/2000/svg" xmlns:xlink="http://www.w3.org/1999/xlink" x="0px" y="0px"
	 viewBox="0 0 72 96" style="enable-background:new 0 0 72 96;" xml:space="preserve">
<style type="text/css">
	.st0{fill:#003399;}
	.st1{fill:#FFFFFF;}
</style>
<g>
	<path class="st0" d="M0,2l0,92c0,1.1,0.9,2,2,2h68c1.1,0,2-0.9,2-2V28H50c-1.1,0-2-0.9-2-2V0L2,0C0.9,0,0,0.9,0,2z"/>
	<path class="st0" d="M71.9,24c-0.1-0.4-0.2-0.7-0.4-1L52,1.2V24H71.9z"/>
</g>
<rect x="6" y="41" class="st1" width="60" height="49"/>
<g>
	<path class="st1" d="M7.1,6.4h3.6l1.3,6c0.2,0.9,0.4,2.4,0.4,2.4h0.1c0,0,0.2-1.5,0.4-2.4l1.3-6H18l0.9,14.3h-3l-0.4-6.4
		c-0.1-1.1,0-2.4,0-2.4h-0.1c0,0-0.2,1.5-0.4,2.4l-0.9,4.1H11l-0.9-4.1c-0.2-0.9-0.4-2.4-0.4-2.4H9.6c0,0,0.1,1.3,0,2.4l-0.4,6.4h-3
		L7.1,6.4z"/>
	<path class="st1" d="M21,15.2l3.7-8.8h4.2v8.1h1.2v3h-1.2v3.2h-3.2v-3.2H21V15.2z M25.7,14.5v-3.4c0-0.8,0.1-1.3,0.1-1.3h0
		c0,0-0.1,0.6-0.3,1.2L24,14.5v0H25.7z"/>
	<path class="st1" d="M32.8,6.4h4.5c0.6,0,1.3,0.1,1.9,0.4c1.4,0.6,2.4,2.1,2.4,4c0,1.7-0.8,3.3-2,4v0c0,0,0.2,0.2,0.5,0.9l2.3,5
		h-3.6l-2-4.8H36v4.8h-3.3V6.4z M36.7,13c0.9,0,1.6-0.7,1.6-1.9c0-0.7-0.2-1.2-0.6-1.5c-0.3-0.2-0.6-0.3-0.9-0.3H36V13H36.7z"/>
</g>
<g>
	<path class="st0" d="M18.2,55c-0.6,1.5,0.6,6,0.6,6c2.3,6.4,7.7,11.9,7.7,11.9c5.3,5.5,10.6,8.9,15.3,10c4.7,1.1,5.6-0.8,5.6-0.8
		s3.9-3.8,5-5.1c1.1-1.4-0.3-2.2-0.3-2.2s-6.8-4.1-7.9-4.5c-1.1-0.5-1.7,0.3-2.4,0.9s-2.1,1.9-2.1,1.9c-0.8,0.1-2.3-0.5-4.7-2.4
		s-5.3-5.5-6.1-6.8c-0.8-1.2-0.8-2.5-0.8-2.5s1-0.8,2-1.9c1-1.1,0.7-2.1,0.7-2.1l-3.1-5.7c-1.9-4-2.4-3.2-2.4-3.2
		c-1.3,0.5-2.4,1.5-3.1,2.2C21.7,51.2,19,53.5,18.2,55z"/>
	<path class="st0" d="M45.2,63.5c0.8,0,1.5-0.6,1.5-1.5c0-4.4-3.6-8.2-8.2-8.2c-0.8,0-1.5,0.6-1.5,1.5c0,0.8,0.6,1.5,1.5,1.5
		c2.8,0,5.1,2.3,5.1,5.1C43.6,62.8,44.4,63.5,45.2,63.5z"/>
	<path class="st0" d="M39.2,49.1c-0.8,0-1.5,0.6-1.5,1.5c0,0.8,0.6,1.5,1.5,1.5c5.1,0,9.2,4.1,9.2,9.2c0,0.8,0.6,1.5,1.5,1.5
		c0.9,0,1.5-0.6,1.5-1.5C51.4,54.6,45.9,49.1,39.2,49.1z"/>
	<path class="st0" d="M37.2,58c-0.8,0-1.5,0.6-1.5,1.5c0,0.9,0.6,1.5,1.5,1.5c1.3,0,2.4,1.1,2.4,2.4c0,0.8,0.6,1.5,1.5,1.5
		c0.8,0,1.5-0.6,1.5-1.5C42.5,60.4,40.1,58,37.2,58z"/>
</g>
</svg>
