<?xml version="1.0" encoding="utf-8"?>
<!-- Generator: Adobe Illustrator 21.1.0, SVG Export Plug-In . SVG Version: 6.00 Build 0)  -->
<svg version="1.1" id="Layer_1" xmlns="http://www.w3.org/2000/svg" xmlns:xlink="http://www.w3.org/1999/xlink" x="0px" y="0px"
	 viewBox="0 0 72 96" style="enable-background:new 0 0 72 96;" xml:space="preserve">
<style type="text/css">
	.st0{fill:#CCCCCC;}
	.st1{fill:#333333;}
	.st2{fill:#999999;}
</style>
<path class="st0" d="M0,2l0,92c0,1.1,0.9,2,2,2h68c1.1,0,2-0.9,2-2V28H50c-1.1,0-2-0.9-2-2V0L2,0C0.9,0,0,0.9,0,2z"/>
<path class="st0" d="M71.9,24c-0.1-0.4-0.2-0.7-0.4-1L52,1.2V24H71.9z"/>
<g>
	<path class="st1" d="M7.6,70.4h3.3l1.2,6c0.2,0.9,0.4,2.4,0.4,2.4h0.1c0,0,0.2-1.5,0.4-2.4l1.2-6h3.3l0.8,14.3h-2.7l-0.3-6.4
		c-0.1-1.1,0-2.4,0-2.4h-0.1c0,0-0.2,1.5-0.4,2.4L14,82.4h-2.9l-0.8-4.1c-0.2-0.9-0.4-2.4-0.4-2.4H9.9c0,0,0.1,1.3,0,2.4l-0.4,6.4
		H6.8L7.6,70.4z"/>
	<path class="st1" d="M22.5,70.4h3.2l3.2,14.3h-3l-0.5-3h-2.7l-0.5,3h-3L22.5,70.4z M25,79l-0.5-2.8c-0.2-0.9-0.4-2.5-0.4-2.5H24
		c0,0-0.2,1.5-0.4,2.5L23.2,79H25z"/>
	<path class="st1" d="M30.9,80.7c0.5,0.6,1.3,1.2,2.1,1.2c0.8,0,1.2-0.6,1.2-1.2c0-2-4.3-2.1-4.3-6.2c0-2.4,1.5-4.3,4.1-4.3
		c1.1,0,2.2,0.3,3.1,1L36,74.1c-0.4-0.4-1.3-0.9-1.9-0.9c-0.8,0-1.2,0.6-1.2,1.2c0,2.1,4.3,2,4.3,6.1c0,2.3-1.3,4.4-4,4.4
		c-1.3,0-2.6-0.5-3.6-1.4L30.9,80.7z"/>
	<path class="st1" d="M41,73.3h-2.8v-2.9h8.6v2.9h-2.8v11.4H41V73.3z"/>
	<path class="st1" d="M48.4,70.4h6.5v2.9h-3.5V76h2.8v2.9h-2.8v2.9H55v2.9h-6.6V70.4z"/>
	<path class="st1" d="M56.9,70.4H61c0.5,0,1.2,0.1,1.7,0.4c1.3,0.6,2.2,2.1,2.2,4c0,1.7-0.7,3.3-1.8,4v0c0,0,0.2,0.2,0.4,0.9l2.1,5
		h-3.2l-1.8-4.8h-0.7v4.8h-3V70.4z M60.5,77c0.8,0,1.4-0.7,1.4-1.9c0-0.7-0.2-1.2-0.5-1.5c-0.2-0.2-0.5-0.3-0.8-0.3h-0.7V77H60.5z"
		/>
</g>
<path class="st2" d="M0,94L0,2c0-1.1,0.9-2,2-2l48,0c0.6,0,1.1,0.2,1.5,0.7l20,22.3c0.3,0.4,0.5,0.8,0.5,1.3V94c0,1.1-0.9,2-2,2H2
	C0.9,96,0,95.1,0,94z M68,25.1L49.1,4H4v88h64V25.1z"/>
<path class="st2" d="M48,26V4c0-1.1,0.9-2,2-2s2,0.9,2,2v20h16c1.1,0,2,0.9,2,2s-0.9,2-2,2H50C48.9,28,48,27.1,48,26z"/>
</svg>
