<?xml version="1.0" encoding="utf-8"?>
<!-- Generator: Adobe Illustrator 21.1.0, SVG Export Plug-In . SVG Version: 6.00 Build 0)  -->
<svg version="1.1" id="Layer_1" xmlns="http://www.w3.org/2000/svg" xmlns:xlink="http://www.w3.org/1999/xlink" x="0px" y="0px"
	 viewBox="0 0 72 96" style="enable-background:new 0 0 72 96;" xml:space="preserve">
<style type="text/css">
	.st0{fill:#999999;}
	.st1{fill:#FFFFFF;}
</style>
<g>
	<path class="st0" d="M0,2l0,92c0,1.1,0.9,2,2,2h68c1.1,0,2-0.9,2-2V28H50c-1.1,0-2-0.9-2-2V0L2,0C0.9,0,0,0.9,0,2z"/>
	<path class="st0" d="M71.9,24c-0.1-0.4-0.2-0.7-0.4-1L52,1.2V24H71.9z"/>
</g>
<rect x="6" y="41" class="st1" width="60" height="49"/>
<g>
	<path class="st1" d="M7.1,6.4h3.6l1.3,6c0.2,0.9,0.4,2.4,0.4,2.4h0.1c0,0,0.2-1.5,0.4-2.4l1.3-6H18l0.9,14.3h-3l-0.4-6.4
		c-0.1-1.1,0-2.4,0-2.4h-0.1c0,0-0.2,1.5-0.4,2.4l-0.9,4.1H11l-0.9-4.1c-0.2-0.9-0.4-2.4-0.4-2.4H9.6c0,0,0.1,1.3,0,2.4l-0.4,6.4h-3
		L7.1,6.4z"/>
	<path class="st1" d="M21.2,6.4h4.5c2.6,0,4.4,2,4.4,4.9c0,2.9-1.7,5-4.4,5h-1.2v4.4h-3.3V6.4z M25.1,13.4c1,0,1.6-0.9,1.6-2.1
		s-0.7-2-1.6-2h-0.7v4.1H25.1z"/>
	<path class="st1" d="M31.9,6.4h4.2c3.7,0,5.9,2.6,5.9,7.1s-2.2,7.2-5.9,7.2h-4.2V6.4z M36,17.8c1.7,0,2.6-1.5,2.6-4.3
		c0-2.8-1-4.2-2.6-4.2h-0.8v8.5H36z"/>
</g>
<g>
	<g>
		<g>
			<polygon class="st0" points="17.1,51.3 38.4,47.2 38.4,83 17.1,79.1 			"/>
		</g>
		<g>
			<path class="st0" d="M53.3,79.5H35.2c-0.9,0-1.6-0.7-1.6-1.6V52.4c0-0.9,0.7-1.6,1.6-1.6h18.1c0.9,0,1.6,0.7,1.6,1.6v25.5
				C54.9,78.8,54.2,79.5,53.3,79.5z M35.2,52.3c-0.1,0-0.2,0.1-0.2,0.2v25.5c0,0.1,0.1,0.2,0.2,0.2h18.1c0.1,0,0.2-0.1,0.2-0.2V52.4
				c0-0.1-0.1-0.2-0.2-0.2C53.3,52.3,35.2,52.3,35.2,52.3z"/>
		</g>
		<g>
			<polygon class="st0" points="50.7,66.4 48.3,66.4 48.3,58 37.2,58 37.2,55.6 50.7,55.6 			"/>
		</g>
		<g>
			<polygon class="st0" points="49.4,68.5 45.1,63.8 49.4,63.8 53.6,63.8 			"/>
		</g>
		<g>
			
				<rect x="39.7" y="67.8" transform="matrix(0.7071 -0.7071 0.7071 0.7071 -37.6338 51.1491)" class="st0" width="6.5" height="6.5"/>
		</g>
	</g>
	<g>
		<path class="st1" d="M30.4,59.7c-0.4-0.4-0.8-0.6-1.4-0.8c-0.5-0.2-1.2-0.1-1.8-0.1C26,58.8,23.9,59,23.9,59l-0.1,11.6l2.2,0.2
			v-4.1c0,0,1.3,0.2,2.4-0.1c0.6-0.2,1.2-0.5,1.5-0.8c0.4-0.4,0.7-0.8,0.9-1.2c0.3-0.6,0.4-1.2,0.4-2.1
			C31.4,61.4,31.1,60.4,30.4,59.7z M28.7,63.7c-0.4,0.9-1.5,0.9-1.5,0.9H26v-3.7c0,0,0.8-0.1,1.4,0c0.3,0.1,0.6,0.2,0.8,0.3
			C28.8,61.7,29.1,62.9,28.7,63.7z"/>
	</g>
</g>
</svg>
