<?xml version="1.0" encoding="utf-8"?>
<!-- Generator: Adobe Illustrator 21.1.0, SVG Export Plug-In . SVG Version: 6.00 Build 0)  -->
<svg version="1.1" id="Layer_1" xmlns="http://www.w3.org/2000/svg" xmlns:xlink="http://www.w3.org/1999/xlink" x="0px" y="0px"
	 viewBox="0 0 72 96" style="enable-background:new 0 0 72 96;" xml:space="preserve">
<style type="text/css">
	.st0{fill:#FF6600;}
	.st1{fill:#FFFFFF;}
</style>
<g>
	<path class="st0" d="M0,2l0,92c0,1.1,0.9,2,2,2h68c1.1,0,2-0.9,2-2V28H50c-1.1,0-2-0.9-2-2V0L2,0C0.9,0,0,0.9,0,2z"/>
	<path class="st0" d="M71.9,24c-0.1-0.4-0.2-0.7-0.4-1L52,1.2V24H71.9z"/>
</g>
<rect x="6" y="41" class="st1" width="60" height="49"/>
<g>
	<path class="st1" d="M7.1,6.4h3.6l1.3,6c0.2,0.9,0.4,2.4,0.4,2.4h0.1c0,0,0.2-1.5,0.4-2.4l1.3-6H18l0.9,14.3h-3l-0.4-6.4
		c-0.1-1.1,0-2.4,0-2.4h-0.1c0,0-0.2,1.5-0.4,2.4l-0.9,4.1H11l-0.9-4.1c-0.2-0.9-0.4-2.4-0.4-2.4H9.6c0,0,0.1,1.3,0,2.4l-0.4,6.4h-3
		L7.1,6.4z"/>
	<path class="st1" d="M22.2,6.4h4.5c2.6,0,4.4,2,4.4,4.9c0,2.9-1.7,5-4.4,5h-1.2v4.4h-3.3V6.4z M26.1,13.4c1,0,1.6-0.9,1.6-2.1
		s-0.7-2-1.6-2h-0.7v4.1H26.1z"/>
	<path class="st1" d="M33.9,6.4h7.2v2.9h-3.9V12h3.1v2.9h-3.1v2.9h4.1v2.9h-7.4V6.4z"/>
</g>
<path class="st0" d="M13,83.1h46V47.9H13V83.1z M21.9,80.4h-5.5v-3.9h5.5V80.4L21.9,80.4z M38.8,80.4h-5.5v-3.9h5.5L38.8,80.4
	L38.8,80.4z M50.1,50.3h5.5v4h-5.5V50.3z M50.1,76.4h5.5v3.9h-5.5L50.1,76.4L50.1,76.4z M41.6,50.3H47v3.9h-5.5V50.3z M41.6,76.4H47
	v3.9h-5.5L41.6,76.4L41.6,76.4z M33.2,50.3h5.5v3.9h-5.5V50.3z M32.4,60l7.2,4.1c1.3,0.8,1.3,2,0,2.8L32.4,71
	c-1.3,0.8-2.4,0.1-2.4-1.4v-8.3C30,59.9,31.1,59.2,32.4,60z M24.7,50.3h5.4v3.9h-5.4V50.3z M24.7,76.4h5.4v3.9h-5.4V76.4L24.7,76.4z
	 M16.4,50.3h5.5v4h-5.5V50.3z"/>
</svg>
