<?xml version="1.0" encoding="utf-8"?>
<!-- Generator: Adobe Illustrator 21.1.0, SVG Export Plug-In . SVG Version: 6.00 Build 0)  -->
<svg version="1.1" id="Layer_1" xmlns="http://www.w3.org/2000/svg" xmlns:xlink="http://www.w3.org/1999/xlink" x="0px" y="0px"
	 viewBox="0 0 72 96" style="enable-background:new 0 0 72 96;" xml:space="preserve">
<style type="text/css">
	.st0{fill:#FF6600;}
	.st1{fill:#FFFFFF;}
</style>
<g>
	<path class="st0" d="M0,2l0,92c0,1.1,0.9,2,2,2h68c1.1,0,2-0.9,2-2V28H50c-1.1,0-2-0.9-2-2V0L2,0C0.9,0,0,0.9,0,2z"/>
	<path class="st0" d="M71.9,24c-0.1-0.4-0.2-0.7-0.4-1L52,1.2V24H71.9z"/>
</g>
<rect x="6" y="41" class="st1" width="60" height="49"/>
<g>
	<path class="st1" d="M6.8,6.4h2.9l1.1,6c0.2,0.9,0.3,2.4,0.3,2.4h0c0,0,0.2-1.5,0.3-2.4l1.1-6h2.9l0.7,14.3h-2.4l-0.3-6.4
		c-0.1-1.1,0-2.4,0-2.4h-0.1c0,0-0.2,1.5-0.4,2.4l-0.7,4.1H9.9l-0.7-4.1c-0.2-0.9-0.4-2.4-0.4-2.4H8.8c0,0,0.1,1.3,0,2.4l-0.3,6.4H6
		L6.8,6.4z"/>
	<path class="st1" d="M18,6.4h3.6c2.1,0,3.5,2,3.5,4.9c0,2.9-1.4,5-3.5,5h-1v4.4H18V6.4z M21.2,13.4c0.8,0,1.3-0.9,1.3-2.1
		s-0.5-2-1.2-2h-0.5v4.1H21.2z"/>
	<path class="st1" d="M26.6,6.4h5.7v2.9h-3.1V12h2.5v2.9h-2.5v2.9h3.3v2.9h-5.9V6.4z"/>
	<path class="st1" d="M38.6,6.1c1.1,0,2.3,0.4,3.2,1.3l-1.1,2.8c-0.4-0.6-1.1-0.9-1.9-0.9c-1.8,0-2.5,1.9-2.5,4.2
		c0,2.6,1,4.3,2.3,4.3c0.5,0,1-0.2,1.4-0.6v-1.7h-1.2v-2.9h3.5v8.1h-2v-0.4c0-0.2,0-0.5,0-0.5h0c-0.4,0.7-1.3,1.2-2.2,1.2
		c-2.2,0-4.5-2.7-4.5-7.3C33.6,9.2,35.5,6.1,38.6,6.1z"/>
</g>
<path class="st0" d="M13,83.1h46V47.9H13V83.1z M21.9,80.4h-5.5v-3.9h5.5V80.4L21.9,80.4z M38.8,80.4h-5.5v-3.9h5.5L38.8,80.4
	L38.8,80.4z M50.1,50.3h5.5v4h-5.5V50.3z M50.1,76.4h5.5v3.9h-5.5L50.1,76.4L50.1,76.4z M41.6,50.3H47v3.9h-5.5V50.3z M41.6,76.4H47
	v3.9h-5.5L41.6,76.4L41.6,76.4z M33.2,50.3h5.5v3.9h-5.5V50.3z M32.4,60l7.2,4.1c1.3,0.8,1.3,2,0,2.8L32.4,71
	c-1.3,0.8-2.4,0.1-2.4-1.4v-8.3C30,59.9,31.1,59.2,32.4,60z M24.7,50.3h5.4v3.9h-5.4V50.3z M24.7,76.4h5.4v3.9h-5.4V76.4L24.7,76.4z
	 M16.4,50.3h5.5v4h-5.5V50.3z"/>
</svg>
