<?xml version="1.0" encoding="utf-8"?>
<!-- Generator: Adobe Illustrator 21.1.0, SVG Export Plug-In . SVG Version: 6.00 Build 0)  -->
<svg version="1.1" id="Layer_1" xmlns="http://www.w3.org/2000/svg" xmlns:xlink="http://www.w3.org/1999/xlink" x="0px" y="0px"
	 viewBox="0 0 72 96" style="enable-background:new 0 0 72 96;" xml:space="preserve">
<style type="text/css">
	.st0{fill:#003399;}
	.st1{fill:#FFFFFF;}
</style>
<g>
	<path class="st0" d="M0,2l0,92c0,1.1,0.9,2,2,2h68c1.1,0,2-0.9,2-2V28H50c-1.1,0-2-0.9-2-2V0L2,0C0.9,0,0,0.9,0,2z"/>
	<path class="st0" d="M71.9,24c-0.1-0.4-0.2-0.7-0.4-1L52,1.2V24H71.9z"/>
</g>
<rect x="6" y="41" class="st1" width="60" height="49"/>
<g>
	<path class="st1" d="M7,6.5h2.2l1.6,6.9c0.2,0.9,0.4,2.2,0.4,2.2h0c0,0,0.2-1.3,0.4-2.2l1.6-6.9h2.2l0.7,14.2h-1.9l-0.4-7.9
		c0-0.9,0-2.2,0-2.2h0c0,0-0.2,1.4-0.4,2.3l-1.3,5.4h-2L9,12.9c-0.2-0.8-0.4-2.3-0.4-2.3H8.5c0,0,0.1,1.3,0,2.2l-0.4,7.9H6.2L7,6.5z
		"/>
	<path class="st1" d="M18,6.5h3.4c2.1,0,3.5,1.9,3.5,4.6s-1.4,4.7-3.5,4.7H20v4.9h-2V6.5z M21,13.6c1.1,0,1.8-1,1.8-2.5
		c0-1.5-0.7-2.5-1.7-2.5h-1v5H21z"/>
	<path class="st1" d="M30.8,6.2c1.1,0,2.3,0.4,3.1,1.2L33,9.6c-0.5-0.6-1.3-1-2.2-1c-2,0-3.1,2.1-3.1,5c0,3.1,1.3,5,2.9,5
		c0.7,0,1.4-0.3,1.9-1v-2.2h-1.3v-2.2h3.1v7.5h-1.6v-0.5c0-0.2,0-0.5,0-0.5h0c-0.5,0.8-1.4,1.3-2.5,1.3c-2.4,0-4.6-2.7-4.6-7.3
		C25.7,9.2,27.7,6.2,30.8,6.2z"/>
	<path class="st1" d="M38.2,6.5h2.2l3.1,14.2h-2L40.8,17h-2.9l-0.7,3.7h-2L38.2,6.5z M40.4,15l-0.7-3.8C39.5,10.4,39.3,9,39.3,9h0
		c0,0-0.2,1.4-0.3,2.2L38.2,15H40.4z"/>
</g>
<path class="st0" d="M47,66c-3.1-1.2-6.7,0.3-8,3.4c-1.2,3.1,0.3,6.7,3.4,8c0.6,0.3,1.3,0.4,2,0.4c3.5,0.1,6.4-2.6,6.4-6
	c0-7.8,0-15.5,0-23.3c0-0.2,0-0.3,0-0.6c-0.2,0-0.3,0.1-0.5,0.1c-6.8,1.9-13.5,3.9-20.3,5.8c-0.6,0.2-0.6,0.5-0.6,1v16.8
	c-0.5-0.2-0.7-0.3-1.1-0.4c-2.5-0.9-4.7-0.4-6.5,1.4c-1.8,1.7-2.3,4.3-1.3,6.6c1.3,3.1,4.9,4.6,8,3.4c2.3-1,3.8-3.2,3.8-5.7
	c0-5.2,0-10.4,0-15.6c0-0.7,0.2-0.9,0.9-1.1c3.3-0.9,6.6-1.9,10-2.8l4.8-1.4v10.4C47.5,66.2,47.3,66.1,47,66z"/>
</svg>
