<?xml version="1.0" encoding="utf-8"?>
<!-- Generator: Adobe Illustrator 21.1.0, SVG Export Plug-In . SVG Version: 6.00 Build 0)  -->
<svg version="1.1" id="Layer_1" xmlns="http://www.w3.org/2000/svg" xmlns:xlink="http://www.w3.org/1999/xlink" x="0px" y="0px"
	 viewBox="0 0 72 96" style="enable-background:new 0 0 72 96;" xml:space="preserve">
<style type="text/css">
	.st0{fill:#4D1B9B;}
	.st1{fill:#FFFFFF;}
	.st2{fill:#4D1B9B;stroke:#4D1B9B;stroke-width:1.5;stroke-miterlimit:10;}
</style>
<g>
	<path class="st0" d="M0,2l0,92c0,1.1,0.9,2,2,2h68c1.1,0,2-0.9,2-2V28H50c-1.1,0-2-0.9-2-2V0L2,0C0.9,0,0,0.9,0,2z"/>
	<path class="st0" d="M71.9,24c-0.1-0.4-0.2-0.7-0.4-1L52,1.2V24H71.9z"/>
</g>
<rect x="6" y="41" class="st1" width="60" height="49"/>
<g>
	<path class="st1" d="M7.1,6.4h3.6l1.3,6c0.2,0.9,0.4,2.4,0.4,2.4h0.1c0,0,0.2-1.5,0.4-2.4l1.3-6H18l0.9,14.3h-3l-0.4-6.4
		c-0.1-1.1,0-2.4,0-2.4h-0.1c0,0-0.2,1.5-0.4,2.4l-0.9,4.1H11l-0.9-4.1c-0.2-0.9-0.4-2.4-0.4-2.4H9.6c0,0,0.1,1.3,0,2.4l-0.4,6.4h-3
		L7.1,6.4z"/>
	<path class="st1" d="M22.9,16.7c0.6,0.6,1.4,1.2,2.3,1.2c0.9,0,1.3-0.6,1.3-1.2c0-2-4.8-2.1-4.8-6.2c0-2.4,1.7-4.3,4.5-4.3
		c1.2,0,2.4,0.3,3.4,1l-1.2,2.9c-0.5-0.4-1.4-0.9-2.2-0.9c-0.9,0-1.3,0.6-1.3,1.2c0,2.1,4.8,2,4.8,6.1c0,2.3-1.5,4.4-4.4,4.4
		c-1.4,0-2.9-0.5-4-1.4L22.9,16.7z"/>
	<path class="st1" d="M32.9,6.4h3.3v14.3h-3.3V6.4z"/>
</g>
<g transform="translate(0,-952.36218)">
	<path class="st2" d="M30.9,999.1c-0.1,0-0.2,0-0.3,0.1l-14.3,6.5c-0.5,0.2-0.6,0.9-0.3,1.3l4.4,5.2l-4.4,5.2
		c-0.3,0.4-0.2,1.1,0.3,1.3l4.4,2v8.6c0,0.3,0.2,0.6,0.5,0.7l14.7,6.5c0.2,0.1,0.5,0.1,0.7,0l14.7-6.5c0.3-0.1,0.5-0.4,0.5-0.7v-8.6
		l4.4-2c0.5-0.2,0.6-0.9,0.3-1.3l-4.4-5.2l4.4-5.2c0.3-0.4,0.2-1.1-0.3-1.3l-14.3-6.5c-0.1-0.1-0.3-0.1-0.4-0.1
		c-0.2,0-0.4,0.1-0.5,0.3l-4.7,5.1l-4.7-5.1C31.4,999.2,31.1,999.1,30.9,999.1L30.9,999.1z M30.8,1000.9l4.1,4.4l-13.1,5.8l-3.8-4.4
		L30.8,1000.9z M41.8,1000.9l12.8,5.8l-3.8,4.4l-13.1-5.8L41.8,1000.9z M36.3,1006.5l12.7,5.6l-12.7,5.6l-12.7-5.6L36.3,1006.5z
		 M21.8,1013.1l13.1,5.8l-4.1,4.4l-12.8-5.8L21.8,1013.1z M50.7,1013.1l3.8,4.4l-12.8,5.8l-4.1-4.4L50.7,1013.1z M35.5,1020.8v13.8
		l-13-5.8v-7.4l8.2,3.8c0.3,0.1,0.7,0.1,0.9-0.2L35.5,1020.8z M37.1,1020.8l3.9,4.2c0.2,0.3,0.6,0.3,0.9,0.2l8.2-3.8v7.4l-13,5.8
		V1020.8z"/>
</g>
</svg>
