<?xml version="1.0" encoding="utf-8"?>
<!-- Generator: Adobe Illustrator 21.1.0, SVG Export Plug-In . SVG Version: 6.00 Build 0)  -->
<svg version="1.1" id="Layer_1" xmlns="http://www.w3.org/2000/svg" xmlns:xlink="http://www.w3.org/1999/xlink" x="0px" y="0px"
	 viewBox="0 0 72 96" style="enable-background:new 0 0 72 96;" xml:space="preserve">
<style type="text/css">
	.st0{fill:#8ED200;}
	.st1{fill:#FFFFFF;}
</style>
<g>
	<path class="st0" d="M0,2l0,92c0,1.1,0.9,2,2,2h68c1.1,0,2-0.9,2-2V28H50c-1.1,0-2-0.9-2-2V0L2,0C0.9,0,0,0.9,0,2z"/>
	<path class="st0" d="M71.9,24c-0.1-0.4-0.2-0.7-0.4-1L52,1.2V24H71.9z"/>
</g>
<rect x="6" y="41" class="st1" width="60" height="49"/>
<g>
	<path class="st1" d="M6.6,6.4h3.5l2.4,6.6c0.4,1,0.7,2.4,0.7,2.4h0.1c0,0-0.2-1.5-0.2-2.4V6.4h3.1v14.3h-3.4l-2.5-6.6
		c-0.4-1-0.7-2.4-0.7-2.4H9.5c0,0,0.2,1.5,0.2,2.4v6.6H6.6V6.4z"/>
	<path class="st1" d="M19.9,6.4h7.2v2.9h-3.9V12h3.1v2.9h-3.1v2.9h4.1v2.9h-7.4V6.4z"/>
	<path class="st1" d="M30.4,6.4h7.1v2.9h-3.8v3.1h3.1v2.9h-3.1v5.4h-3.3V6.4z"/>
</g>
<g>
	<path class="st0" d="M14,48.5v33.9h44V48.5L14,48.5L14,48.5z M55.5,51v14.8l-10.5-8L33.5,69.3l-8.1-4.5l-8.8,7V51H55.5z"/>
	<circle class="st0" cx="23" cy="57.6" r="3.1"/>
</g>
</svg>
