<?xml version="1.0" encoding="utf-8"?>
<!-- Generator: Adobe Illustrator 21.1.0, SVG Export Plug-In . SVG Version: 6.00 Build 0)  -->
<svg version="1.1" id="Layer_1" xmlns="http://www.w3.org/2000/svg" xmlns:xlink="http://www.w3.org/1999/xlink" x="0px" y="0px"
	 viewBox="0 0 72 96" style="enable-background:new 0 0 72 96;" xml:space="preserve">
<style type="text/css">
	.st0{fill:#FF141F;}
	.st1{fill:#FFFFFF;}
	.st2{fill:#FF141F;stroke:#FF141F;stroke-width:0.75;stroke-miterlimit:10;}
</style>
<g>
	<path class="st0" d="M0,2l0,92c0,1.1,0.9,2,2,2h68c1.1,0,2-0.9,2-2V28H50c-1.1,0-2-0.9-2-2V0L2,0C0.9,0,0,0.9,0,2z"/>
	<path class="st0" d="M71.9,24c-0.1-0.4-0.2-0.7-0.4-1L52,1.2V24H71.9z"/>
</g>
<rect x="6" y="41" class="st1" width="60" height="49"/>
<g>
	<path class="st1" d="M6.6,6.4h3.5l2.4,6.6c0.4,1,0.7,2.4,0.7,2.4h0.1c0,0-0.2-1.5-0.2-2.4V6.4h3.1v14.3h-3.4l-2.5-6.6
		c-0.4-1-0.7-2.4-0.7-2.4H9.5c0,0,0.2,1.5,0.2,2.4v6.6H6.6V6.4z"/>
	<path class="st1" d="M19.9,6.4h7.2v2.9h-3.9V12h3.1v2.9h-3.1v2.9h4.1v2.9h-7.4V6.4z"/>
	<path class="st1" d="M31.1,16.7c0.6,0.6,1.4,1.2,2.3,1.2c0.9,0,1.3-0.6,1.3-1.2c0-2-4.8-2.1-4.8-6.2c0-2.4,1.7-4.3,4.5-4.3
		c1.2,0,2.4,0.3,3.4,1l-1.2,2.9c-0.5-0.4-1.4-0.9-2.2-0.9c-0.9,0-1.3,0.6-1.3,1.2c0,2.1,4.8,2,4.8,6.1c0,2.3-1.5,4.4-4.4,4.4
		c-1.4,0-2.9-0.5-4-1.4L31.1,16.7z"/>
</g>
<g>
	<path class="st2" d="M57.8,58.2H25.2v-7.1h-2.3v7.1h-8.8c-0.6,0-1.1,0.5-1.1,1.1v19.1c0,0.6,0.5,1.1,1.1,1.1h43.7
		c0.6,0,1.1-0.5,1.1-1.1V59.3C58.9,58.7,58.4,58.2,57.8,58.2z M56.7,77.3H15.3V60.5h41.4L56.7,77.3L56.7,77.3z"/>
	<path class="st2" d="M29.8,73.3h2.3c0.6,0,1.1-0.5,1.1-1.1s-0.5-1.1-1.1-1.1h-2.3c-0.6,0-1.1,0.5-1.1,1.1S29.2,73.3,29.8,73.3z"/>
	<path class="st2" d="M36.1,73.3h2.3c0.6,0,1.1-0.5,1.1-1.1s-0.5-1.1-1.1-1.1h-2.3c-0.6,0-1.1,0.5-1.1,1.1S35.5,73.3,36.1,73.3z"/>
	<polygon class="st2" points="19.7,73.3 22,73.3 22,70.6 24.8,70.6 24.8,68.3 22,68.3 22,65.6 19.7,65.6 19.7,68.3 17,68.3 17,70.6 
		19.7,70.6 	"/>
	<circle class="st2" cx="46.6" cy="70.9" r="2.1"/>
	<circle class="st2" cx="52.9" cy="70.9" r="2.1"/>
</g>
</svg>
