<?xml version="1.0" encoding="utf-8"?>
<!-- Generator: Adobe Illustrator 21.1.0, SVG Export Plug-In . SVG Version: 6.00 Build 0)  -->
<svg version="1.1" id="Layer_1" xmlns="http://www.w3.org/2000/svg" xmlns:xlink="http://www.w3.org/1999/xlink" x="0px" y="0px"
	 viewBox="0 0 72 96" style="enable-background:new 0 0 72 96;" xml:space="preserve">
<style type="text/css">
	.st0{fill:#A03537;}
	.st1{fill:#FFFFFF;}
	.st2{fill:#A03537;stroke:#FFFFFF;stroke-width:0.75;stroke-miterlimit:10;}
</style>
<g>
	<path class="st0" d="M0,2l0,92c0,1.1,0.9,2,2,2h68c1.1,0,2-0.9,2-2V28H50c-1.1,0-2-0.9-2-2V0L2,0C0.9,0,0,0.9,0,2z"/>
	<path class="st0" d="M71.9,24c-0.1-0.4-0.2-0.7-0.4-1L52,1.2V24H71.9z"/>
</g>
<rect x="6" y="41" class="st1" width="60" height="49"/>
<g>
	<path class="st1" d="M11.9,6.1c3.8,0,5.9,3.1,5.9,7.3c0,4.2-2.1,7.5-5.9,7.5s-5.8-3.2-5.8-7.5C6.1,9.3,8.1,6.1,11.9,6.1z
		 M11.9,17.8c1.7,0,2.5-1.8,2.5-4.3c0-2.5-0.8-4.2-2.5-4.2S9.4,11,9.4,13.5C9.4,16,10.2,17.8,11.9,17.8z"/>
	<path class="st1" d="M20.4,6.4h4.2c3.7,0,5.9,2.6,5.9,7.1s-2.2,7.2-5.9,7.2h-4.2V6.4z M24.5,17.8c1.7,0,2.6-1.5,2.6-4.3
		c0-2.8-1-4.2-2.6-4.2h-0.8v8.5H24.5z"/>
	<path class="st1" d="M33.1,6.4h4.2c2.5,0,4.2,1.3,4.2,3.7c0,1.2-0.5,2.4-1.7,3v0c1.6,0.5,2.1,1.9,2.1,3.2c0,3.1-2,4.3-4.4,4.3h-4.4
		V6.4z M37.3,12c0.6,0,0.9-0.6,0.9-1.4s-0.3-1.3-1-1.3h-0.8V12H37.3z M37.5,17.8c0.8,0,1.2-0.7,1.2-1.6c0-0.9-0.3-1.5-1.1-1.5h-1.2
		v3.1H37.5z"/>
</g>
<g transform="translate(4973.0369,-638.0698)">
	<path class="st0" d="M-4938.1,722.8c-4.8-0.2-9.1-1.7-11.4-4c-0.7-0.6-1.4-1.5-1.7-2.1l-0.2-0.4l0-4.5c0-4.5,0-4.5,0.1-4.1
		c0.2,1,0.8,2,1.7,2.8c0.6,0.5,1.8,1.4,2.8,1.9c1.7,0.9,3.9,1.5,6.2,1.8c1.4,0.2,1.9,0.2,3.9,0.2s2.5,0,3.9-0.2
		c2.3-0.3,4.4-1,6.2-1.8c1-0.5,2.2-1.3,2.8-1.9c0.8-0.8,1.5-1.8,1.7-2.8c0.1-0.3,0.1-0.3,0.1,4.1l0,4.4l-0.2,0.4
		c-0.7,1.4-1.9,2.6-3.5,3.6C-4928.8,722-4933.5,723-4938.1,722.8z M-4938.1,711.6c-4.2-0.2-8.1-1.4-10.6-3.2
		c-0.6-0.4-1.4-1.2-1.7-1.6c-0.3-0.4-0.6-0.9-0.8-1.4l-0.2-0.4l0-4.4c0-4.4,0-4.4,0.1-4.1c0.2,0.7,0.5,1.5,1.1,2.1
		c0.3,0.4,0.8,0.9,1.1,1.1c0.1,0.1,0.4,0.2,0.6,0.4c2,1.4,4.8,2.4,8,2.9c1.4,0.2,1.9,0.2,3.9,0.2s2.5,0,3.9-0.2
		c2.3-0.3,4.4-1,6.2-1.8c1-0.5,2.2-1.3,2.8-1.9c0.8-0.8,1.4-1.8,1.7-2.8c0.1-0.3,0.1-0.3,0.1,4.1l0,4.4l-0.3,0.6
		c-0.5,0.9-0.8,1.4-1.4,2c-0.6,0.6-1.2,1.1-2,1.5C-4928.8,710.9-4933.5,711.9-4938.1,711.6L-4938.1,711.6z M-4938.4,700.5
		c-2.8-0.2-5-0.7-7.1-1.5c-2.5-1-4.3-2.3-5.2-3.9c-0.2-0.3-0.4-0.7-0.5-1.2c-0.1-0.4-0.2-1.4-0.1-2c0.6-3.2,4.9-5.8,10.7-6.7
		c1.4-0.2,1.9-0.2,3.9-0.2s2.5,0,3.9,0.2c2.3,0.3,4.4,1,6.2,1.8c2.6,1.3,4.2,3,4.5,4.8c0.1,0.5,0.1,1.6-0.1,2
		c-0.3,1-0.7,1.6-1.5,2.4c-2.1,2.2-5.8,3.6-10.4,4.1C-4934.7,700.5-4937.8,700.5-4938.4,700.5z"/>
</g>
<path class="st2" d="M38.5,55.7c0.5,0,1.2,0,1.7,0c2.5,0.2,4.5,0.8,6.5,1.6c3.7-1.7,9.1-0.4,12.4,0.9c-4.3-0.4-9.3,0-12.2,1.7
	c-2.9-2.4-8.5-3-13.7-2.4C34.6,56.5,36.3,56,38.5,55.7z M37.2,62.3c-3,0.2-5.5,1.2-7.2,2.6c-5-2.3-13.7-1.3-17,1.8
	c-0.3,0.2-0.6,0.4-0.5,0.7c2.8-0.9,6.3-1.6,9.9-1.3c3.5,0.3,6.2,1.5,8.2,3.1c3.6-3.3,9-5.1,15.9-5C44.1,62.8,40.7,61.9,37.2,62.3z"
	/>
</svg>
