<?xml version="1.0" encoding="utf-8"?>
<!-- Generator: Adobe Illustrator 21.1.0, SVG Export Plug-In . SVG Version: 6.00 Build 0)  -->
<svg version="1.1" id="Layer_1" xmlns="http://www.w3.org/2000/svg" xmlns:xlink="http://www.w3.org/1999/xlink" x="0px" y="0px"
	 viewBox="0 0 72 96" style="enable-background:new 0 0 72 96;" xml:space="preserve">
<style type="text/css">
	.st0{fill:#1D6FB5;}
	.st1{fill:#FFFFFF;}
</style>
<g>
	<path class="st0" d="M0,2l0,92c0,1.1,0.9,2,2,2h68c1.1,0,2-0.9,2-2V28H50c-1.1,0-2-0.9-2-2V0L2,0C0.9,0,0,0.9,0,2z"/>
	<path class="st0" d="M71.9,24c-0.1-0.4-0.2-0.7-0.4-1L52,1.2V24H71.9z"/>
</g>
<rect x="6" y="41" class="st1" width="60" height="49"/>
<g>
	<path class="st1" d="M11.9,6.1c3.8,0,5.9,3.1,5.9,7.3c0,4.2-2.1,7.5-5.9,7.5s-5.8-3.2-5.8-7.5C6.1,9.3,8.1,6.1,11.9,6.1z
		 M11.9,17.8c1.7,0,2.5-1.8,2.5-4.3c0-2.5-0.8-4.2-2.5-4.2S9.4,11,9.4,13.5C9.4,16,10.2,17.8,11.9,17.8z"/>
	<path class="st1" d="M21.6,16.7c0.6,0.6,1.4,1.2,2.3,1.2c0.9,0,1.3-0.6,1.3-1.2c0-2-4.8-2.1-4.8-6.2c0-2.4,1.7-4.3,4.5-4.3
		c1.2,0,2.4,0.3,3.4,1l-1.2,2.9c-0.5-0.4-1.4-0.9-2.2-0.9c-0.9,0-1.3,0.6-1.3,1.2c0,2.1,4.8,2,4.8,6.1c0,2.3-1.5,4.4-4.4,4.4
		c-1.4,0-2.9-0.5-4-1.4L21.6,16.7z"/>
	<path class="st1" d="M33.8,9.3h-3.1V6.4h9.6v2.9h-3.2v11.4h-3.3V9.3z"/>
</g>
<g>
	<g>
		<path class="st0" d="M26.9,62.1c-1.5,0.2-2.7,1.8-2.7,3.5s1.2,3.4,2.7,3.5c1.5,0.2,2.7-1.4,2.7-3.5C29.6,63.5,28.4,61.9,26.9,62.1
			z"/>
		<path class="st0" d="M16.4,51.9v27.7L38,83.5V47.7L16.4,51.9z M26.9,71.3c-2.4-0.3-4.3-2.9-4.3-5.7c0-2.9,1.9-5.4,4.3-5.7
			s4.3,2.3,4.3,5.7C31.2,69.1,29.3,71.6,26.9,71.3z"/>
	</g>
	<polygon class="st0" points="55.1,56.1 43.2,66 40,63.4 40,55.2 55.1,55.2 	"/>
	<polygon class="st0" points="55.1,58 43.2,67.9 40,65.3 40,76.4 55.1,76.4 	"/>
</g>
</svg>
