<?xml version="1.0" encoding="utf-8"?>
<!-- Generator: Adobe Illustrator 21.1.0, SVG Export Plug-In . SVG Version: 6.00 Build 0)  -->
<svg version="1.1" id="Layer_1" xmlns="http://www.w3.org/2000/svg" xmlns:xlink="http://www.w3.org/1999/xlink" x="0px" y="0px"
	 viewBox="0 0 72 96" style="enable-background:new 0 0 72 96;" xml:space="preserve">
<style type="text/css">
	.st0{fill:#4D1B9B;}
	.st1{fill:#FFFFFF;}
</style>
<g>
	<path class="st0" d="M0,2l0,92c0,1.1,0.9,2,2,2h68c1.1,0,2-0.9,2-2V28H50c-1.1,0-2-0.9-2-2V0L2,0C0.9,0,0,0.9,0,2z"/>
	<path class="st0" d="M71.9,24c-0.1-0.4-0.2-0.7-0.4-1L52,1.2V24H71.9z"/>
</g>
<rect x="6" y="41" class="st1" width="60" height="49"/>
<g>
	<path class="st1" d="M11.9,6.1c3.8,0,5.9,3.1,5.9,7.3c0,4.2-2.1,7.5-5.9,7.5s-5.8-3.2-5.8-7.5C6.1,9.3,8.1,6.1,11.9,6.1z
		 M11.9,17.8c1.7,0,2.5-1.8,2.5-4.3c0-2.5-0.8-4.2-2.5-4.2S9.4,11,9.4,13.5C9.4,16,10.2,17.8,11.9,17.8z"/>
	<path class="st1" d="M19.4,6.4h3.6l1.6,8.1c0.2,0.9,0.3,2.3,0.3,2.3H25c0,0,0.2-1.4,0.3-2.3L27,6.4h3.5l-3.9,14.3h-3.3L19.4,6.4z"
		/>
	<path class="st1" d="M32.9,6.4H40v2.9h-3.8v3.1h3.1v2.9h-3.1v5.4h-3.3V6.4z"/>
</g>
<g>
	<path class="st0" d="M56.5,76.6c0-1.6-1.3-2.9-2.9-2.9H17.7c-1.6,0-2.9,1.3-2.9,2.9v4.1c0,1.6,1.3,2.9,2.9,2.9h35.9
		c1.6,0,2.9-1.3,2.9-2.9V76.6z M41,80.4c-0.9,0-1.7-0.7-1.7-1.7S40.1,77,41,77s1.7,0.7,1.7,1.7S42,80.4,41,80.4z M46.1,80.4
		c-0.9,0-1.7-0.7-1.7-1.7s0.7-1.7,1.7-1.7c0.9,0,1.7,0.7,1.7,1.7S47,80.4,46.1,80.4z M51.1,80.4c-0.9,0-1.7-0.7-1.7-1.7
		s0.7-1.7,1.7-1.7c0.9,0,1.7,0.7,1.7,1.7S52,80.4,51.1,80.4z"/>
	<path class="st0" d="M17.7,72h35.9c0.8,0,1.6,0.2,2.2,0.6l-3.5-7.3c-1-2.1-2.6-2.9-4.2-2.9h-3.9l-5.6,5.8c-0.4,0.4-0.9,0.7-1.4,0.9
		c-0.5,0.2-1.1,0.3-1.6,0.3c-0.6,0-1.1-0.1-1.6-0.3l-0.1,0l-0.1,0c-0.4-0.2-0.8-0.5-1.2-0.8l0,0l0,0L27,62.3h-3.9
		c-1.6,0-3.1,0.9-4.2,2.9l-3.5,7.3C16.1,72.2,16.8,72,17.7,72z"/>
	<path class="st0" d="M44,59.6c0.2-0.2,0.3-0.4,0.5-0.7c0.1-0.3,0.2-0.5,0.2-0.9c0-0.3-0.1-0.6-0.2-0.8c-0.1-0.3-0.3-0.5-0.5-0.7
		c-0.2-0.2-0.5-0.4-0.7-0.5c-0.2-0.1-0.5-0.2-0.8-0.2s-0.6,0.1-0.8,0.2c-0.3,0.1-0.5,0.3-0.7,0.5l-3.2,3.2V49.7
		c0-0.3-0.1-0.6-0.2-0.8c-0.1-0.3-0.3-0.5-0.5-0.7c-0.2-0.2-0.4-0.4-0.7-0.5c-0.2-0.1-0.5-0.1-0.8-0.1c-0.3,0-0.6,0-0.8,0.1
		c-0.3,0.1-0.5,0.3-0.7,0.5c-0.2,0.2-0.4,0.4-0.5,0.7c-0.1,0.3-0.2,0.5-0.2,0.8v10.1l-3.2-3.2c-0.2-0.2-0.4-0.4-0.7-0.5
		c-0.2-0.1-0.5-0.2-0.8-0.2c-0.3,0-0.6,0.1-0.8,0.2c-0.2,0.1-0.5,0.3-0.7,0.5c-0.2,0.2-0.4,0.4-0.5,0.7c-0.1,0.3-0.2,0.5-0.2,0.8
		c0,0.3,0.1,0.6,0.2,0.9c0.1,0.3,0.3,0.5,0.5,0.7l6.9,7c0.2,0.2,0.4,0.4,0.7,0.5c0.2,0.1,0.5,0.2,0.8,0.2c0.3,0,0.6-0.1,0.8-0.2
		c0.3-0.1,0.5-0.3,0.7-0.5L44,59.6z"/>
</g>
</svg>
