<?xml version="1.0" encoding="utf-8"?>
<!-- Generator: Adobe Illustrator 21.1.0, SVG Export Plug-In . SVG Version: 6.00 Build 0)  -->
<svg version="1.1" id="Layer_1" xmlns="http://www.w3.org/2000/svg" xmlns:xlink="http://www.w3.org/1999/xlink" x="0px" y="0px"
	 viewBox="0 0 72 96" style="enable-background:new 0 0 72 96;" xml:space="preserve">
<style type="text/css">
	.st0{fill:#1A75CE;}
	.st1{fill:#FFFFFF;}
	.st2{fill:#1A75CE;stroke:#1A75CE;stroke-width:0.25;stroke-miterlimit:10;}
	.st3{fill:#1A75CE;fill-opacity:0;stroke:#1A75CE;stroke-width:0.25;stroke-linejoin:round;stroke-miterlimit:1;}
</style>
<g>
	<path class="st0" d="M0,2l0,92c0,1.1,0.9,2,2,2h68c1.1,0,2-0.9,2-2V28H50c-1.1,0-2-0.9-2-2V0L2,0C0.9,0,0,0.9,0,2z"/>
	<path class="st0" d="M71.9,24c-0.1-0.4-0.2-0.7-0.4-1L52,1.2V24H71.9z"/>
</g>
<rect x="6" y="41" class="st1" width="60" height="49"/>
<g>
	<path class="st1" d="M6.3,6.4h3.3c1.9,0,3.2,2,3.2,4.9c0,2.9-1.3,5-3.2,5H8.8v4.4H6.3V6.4z M9.2,13.4c0.8,0,1.2-0.9,1.2-2.1
		s-0.5-2-1.2-2H8.8v4.1H9.2z"/>
	<path class="st1" d="M15.2,6.4h2.6l2.7,14.3h-2.4l-0.4-3h-2.2l-0.4,3h-2.4L15.2,6.4z M17.3,15l-0.4-2.8c-0.1-0.9-0.3-2.5-0.3-2.5
		h-0.1c0,0-0.1,1.5-0.3,2.5L15.8,15H17.3z"/>
	<path class="st1" d="M25.3,6.1c1,0,2.1,0.4,2.9,1.3l-1,2.8c-0.4-0.6-1-0.9-1.7-0.9c-1.6,0-2.3,1.9-2.3,4.2c0,2.6,0.9,4.3,2.1,4.3
		c0.5,0,0.9-0.2,1.3-0.6v-1.7h-1.1v-2.9h3.2v8.1h-1.9v-0.4c0-0.2,0-0.5,0-0.5h0c-0.4,0.7-1.2,1.2-2,1.2c-2.1,0-4.1-2.7-4.1-7.3
		C20.6,9.2,22.4,6.1,25.3,6.1z"/>
	<path class="st1" d="M30,6.4h5.3v2.9h-2.9V12h2.3v2.9h-2.3v2.9h3v2.9H30V6.4z"/>
	<path class="st1" d="M37.1,16.7c0.4,0.6,1,1.2,1.7,1.2c0.7,0,1-0.6,1-1.2c0-2-3.5-2.1-3.5-6.2c0-2.4,1.2-4.3,3.4-4.3
		c0.9,0,1.8,0.3,2.5,1l-0.9,2.9c-0.4-0.4-1.1-0.9-1.6-0.9c-0.7,0-1,0.6-1,1.2c0,2.1,3.5,2,3.5,6.1c0,2.3-1.1,4.4-3.3,4.4
		c-1,0-2.1-0.5-3-1.4L37.1,16.7z"/>
</g>
<g>
	<g>
		<path class="st2" d="M57.4,81.5l-0.1,0.6l-0.1,0.8l-41.3-0.1l-0.5-0.1l-0.2-0.3l-0.1-0.4l0.1-0.3l0.4-0.3H57.4z"/>
		<path class="st3" d="M57.4,81.5l-0.1,0.6l-0.1,0.8l-41.3-0.1l-0.5-0.1l-0.2-0.3l-0.1-0.4l0.1-0.3l0.4-0.3H57.4z"/>
	</g>
	<g>
		<path class="st2" d="M18.1,76.9l1.5,1.6l-2,1.4l-1,0.6h-0.4L16,80.1l0.7-1L18.1,76.9z"/>
		<path class="st3" d="M18.1,76.9l1.5,1.6l-2,1.4l-1,0.6h-0.4L16,80.1l0.7-1L18.1,76.9z"/>
	</g>
	<g>
		<path class="st2" d="M31.4,61.7l3.3,3.4L31.8,68l-3.2,2.9l-3.2,2.8l-2.5,2.2l-2.7,1.9l-1.6-1.6l1.5-2.2l2.1-2.5l1.6-1.9l2.1-2.2
			l2.6-2.8L31.4,61.7z"/>
		<path class="st3" d="M31.4,61.7l3.3,3.4L31.8,68l-3.2,2.9l-3.2,2.8l-2.5,2.2l-2.7,1.9l-1.6-1.6l1.5-2.2l2.1-2.5l1.6-1.9l2.1-2.2
			l2.6-2.8L31.4,61.7z"/>
	</g>
	<g>
		<path class="st2" d="M46.6,48l0.8,0.1l0.5,0.4c0,0,0.4,0.7,0.4,0.7v0.9L48,50.9l-0.4,0.6v0.7l0.3,0.4l0.1,0.5l-0.1,0.7L41.2,61
			l-1.9,2l-0.7,0.9l-0.1,0.4l0.1,0.5l-0.4,0.5L37.5,65l-0.2-0.7l0.1-0.7l0.4-0.6l4.7-5l4-4.4l0.1-0.5L46.1,53l-2.8,3.1l-4.6,4.8
			l-3.3,3.4l-3.4-3.1l3.8-4l4.3-4.2l4-3.7l1-0.7l0.7-0.4H46.6z"/>
		<path class="st3" d="M46.6,48l0.8,0.1l0.5,0.4c0,0,0.4,0.7,0.4,0.7v0.9L48,50.9l-0.4,0.6v0.7l0.3,0.4l0.1,0.5l-0.1,0.7L41.2,61
			l-1.9,2l-0.7,0.9l-0.1,0.4l0.1,0.5l-0.4,0.5L37.5,65l-0.2-0.7l0.1-0.7l0.4-0.6l4.7-5l4-4.4l0.1-0.5L46.1,53l-2.8,3.1l-4.6,4.8
			l-3.3,3.4l-3.4-3.1l3.8-4l4.3-4.2l4-3.7l1-0.7l0.7-0.4H46.6z"/>
	</g>
</g>
</svg>
