<?xml version="1.0" encoding="utf-8"?>
<!-- Generator: Adobe Illustrator 21.1.0, SVG Export Plug-In . SVG Version: 6.00 Build 0)  -->
<svg version="1.1" id="Layer_1" xmlns="http://www.w3.org/2000/svg" xmlns:xlink="http://www.w3.org/1999/xlink" x="0px" y="0px"
	 viewBox="0 0 72 96" style="enable-background:new 0 0 72 96;" xml:space="preserve">
<style type="text/css">
	.st0{fill:#CCCCCC;}
	.st1{fill:#333333;}
	.st2{fill:#999999;}
</style>
<path class="st0" d="M0,2l0,92c0,1.1,0.9,2,2,2h68c1.1,0,2-0.9,2-2V28H50c-1.1,0-2-0.9-2-2V0L2,0C0.9,0,0,0.9,0,2z"/>
<path class="st0" d="M71.9,24c-0.1-0.4-0.2-0.7-0.4-1L52,1.2V24H71.9z"/>
<g>
	<path class="st1" d="M13.7,70.4h4.5c2.6,0,4.4,2,4.4,4.9s-1.7,5-4.4,5h-1.2v4.4h-3.3V70.4z M17.6,77.4c1,0,1.6-0.9,1.6-2.1
		c0-1.2-0.7-2-1.6-2h-0.7v4.1H17.6z"/>
	<path class="st1" d="M27.1,70.4h3.6l3.6,14.3H31l-0.6-3h-3l-0.6,3h-3.3L27.1,70.4z M29.9,79l-0.6-2.8c-0.2-0.9-0.4-2.5-0.4-2.5
		h-0.1c0,0-0.2,1.5-0.4,2.5L27.9,79H29.9z"/>
	<path class="st1" d="M36.8,70.4h4.5c0.6,0,1.3,0.1,1.9,0.4c1.4,0.6,2.4,2.1,2.4,4c0,1.7-0.8,3.3-2,4v0c0,0,0.2,0.2,0.5,0.9l2.3,5
		h-3.6l-2-4.8h-0.8v4.8h-3.3V70.4z M40.7,77c0.9,0,1.6-0.7,1.6-1.9c0-0.7-0.2-1.2-0.6-1.5c-0.3-0.2-0.6-0.3-0.9-0.3h-0.7V77H40.7z"
		/>
	<path class="st1" d="M51.1,73.3H48v-2.9h9.6v2.9h-3.2v11.4h-3.3V73.3z"/>
</g>
<path class="st2" d="M0,94L0,2c0-1.1,0.9-2,2-2l48,0c0.6,0,1.1,0.2,1.5,0.7l20,22.3c0.3,0.4,0.5,0.8,0.5,1.3V94c0,1.1-0.9,2-2,2H2
	C0.9,96,0,95.1,0,94z M68,25.1L49.1,4H4v88h64V25.1z"/>
<path class="st2" d="M48,26V4c0-1.1,0.9-2,2-2s2,0.9,2,2v20h16c1.1,0,2,0.9,2,2s-0.9,2-2,2H50C48.9,28,48,27.1,48,26z"/>
<path class="st2" d="M55.1,39.1c-0.5-0.1-0.9-0.2-1.4-0.1c-1.1,0.1-2.3,0.7-3.4,0.9c-0.8,0.1-1.5-0.5-1.6-1.4
	c-0.2-2.6-0.2-5.3,0-7.9c0-0.4-0.3-0.6-0.6-0.6c-3-0.1-5.9,0.2-9,0.9c-0.8,0.2-1.4,0.9-1.4,1.6c0.1,1.6,1.2,3.4,0.7,5.1
	c-0.4,1.5-1.6,2.6-3.2,2.9l0,0l0,0c-1.5,0.3-3.1-0.4-3.9-1.6c-1-1.4-0.5-3.4-0.9-5.1c-0.2-0.8-1-1.2-1.8-1.1c-3,0.3-5.9,1-8.7,2.1
	c-0.4,0.1-0.6,0.5-0.4,0.8c1.1,2.4,1.9,4.9,2.6,7.5c0.2,0.8-0.3,1.6-1.1,1.8c-1.1,0.3-2.4,0.1-3.5,0.4c-0.5,0.1-0.9,0.3-1.3,0.6
	c-1.4,0.9-2,2.4-1.8,3.9c0.2,1.4,1.3,2.6,2.6,3.2c1.7,0.6,3.2-0.5,4.9-0.6c0.8-0.1,1.5,0.5,1.6,1.4c0.2,2.6,0.2,5.3,0,7.9
	c0,0.4,0.3,0.6,0.6,0.6c3,0.2,6-0.2,9-0.9c0.8-0.2,1.4-0.9,1.4-1.6c-0.1-1.7-1.3-3.4-0.8-5.2c0.4-1.4,1.8-2.6,3.2-2.8l0,0l0,0
	c1.4-0.2,3.1,0.4,3.9,1.6c1.1,1.4,0.5,3.5,0.9,5.2c0.2,0.8,1,1.2,1.8,1.1c3-0.3,6-0.9,8.7-2.1c0.4-0.1,0.6-0.5,0.4-0.8
	c-1.1-2.4-1.9-4.9-2.6-7.5c-0.2-0.8,0.3-1.6,1.1-1.8c1.6-0.4,3.4,0.1,4.9-1c1.1-0.9,1.8-2.4,1.5-3.8C57.6,40.8,56.4,39.5,55.1,39.1z
	"/>
</svg>
