<?xml version="1.0" encoding="utf-8"?>
<!-- Generator: Adobe Illustrator 21.1.0, SVG Export Plug-In . SVG Version: 6.00 Build 0)  -->
<svg version="1.1" id="Layer_1" xmlns="http://www.w3.org/2000/svg" xmlns:xlink="http://www.w3.org/1999/xlink" x="0px" y="0px"
	 viewBox="0 0 72 96" style="enable-background:new 0 0 72 96;" xml:space="preserve">
<style type="text/css">
	.st0{fill:#CCCCCC;}
	.st1{fill:#333333;}
	.st2{fill:#999999;}
</style>
<path class="st0" d="M0,2l0,92c0,1.1,0.9,2,2,2h68c1.1,0,2-0.9,2-2V28H50c-1.1,0-2-0.9-2-2V0L2,0C0.9,0,0,0.9,0,2z"/>
<path class="st0" d="M71.9,24c-0.1-0.4-0.2-0.7-0.4-1L52,1.2V24H71.9z"/>
<g>
	<path class="st1" d="M18.9,70.4h4.5c2.6,0,4.4,2,4.4,4.9s-1.7,5-4.4,5h-1.2v4.4h-3.3V70.4z M22.8,77.4c1,0,1.6-0.9,1.6-2.1
		c0-1.2-0.7-2-1.6-2h-0.7v4.1H22.8z"/>
	<path class="st1" d="M36.5,70.2c1.3,0,2.6,0.4,3.6,1.2l-1.4,2.8c-0.4-0.5-1.3-0.9-2.1-0.9c-2.1,0-3.2,1.9-3.2,4.2
		c0,2.3,1.2,4.4,3.2,4.4c1,0,1.7-0.5,2.3-1l1.4,2.8c-0.9,0.7-2,1.3-3.9,1.3c-4,0-6.3-3.1-6.3-7.4C30.1,73.2,32.5,70.2,36.5,70.2z"/>
	<path class="st1" d="M43,70.4h4.2c3.7,0,5.9,2.6,5.9,7.1c0,4.5-2.2,7.2-5.9,7.2H43V70.4z M47.1,81.8c1.7,0,2.6-1.5,2.6-4.3
		c0-2.8-1-4.2-2.6-4.2h-0.8v8.5H47.1z"/>
</g>
<path class="st2" d="M0,94L0,2c0-1.1,0.9-2,2-2l48,0c0.6,0,1.1,0.2,1.5,0.7l20,22.3c0.3,0.4,0.5,0.8,0.5,1.3V94c0,1.1-0.9,2-2,2H2
	C0.9,96,0,95.1,0,94z M68,25.1L49.1,4H4v88h64V25.1z"/>
<path class="st2" d="M48,26V4c0-1.1,0.9-2,2-2s2,0.9,2,2v20h16c1.1,0,2,0.9,2,2s-0.9,2-2,2H50C48.9,28,48,27.1,48,26z"/>
</svg>
