<?xml version="1.0" encoding="utf-8"?>
<!-- Generator: Adobe Illustrator 21.1.0, SVG Export Plug-In . SVG Version: 6.00 Build 0)  -->
<svg version="1.1" id="Layer_1" xmlns="http://www.w3.org/2000/svg" xmlns:xlink="http://www.w3.org/1999/xlink" x="0px" y="0px"
	 viewBox="0 0 72 96" style="enable-background:new 0 0 72 96;" xml:space="preserve">
<style type="text/css">
	.st0{fill:#C11E07;}
	.st1{fill:#FFFFFF;}
	.st2{fill:#C11E07;stroke:#C11E07;stroke-width:0.75;stroke-miterlimit:10;}
</style>
<g>
	<path class="st0" d="M0,2l0,92c0,1.1,0.9,2,2,2h68c1.1,0,2-0.9,2-2V28H50c-1.1,0-2-0.9-2-2V0L2,0C0.9,0,0,0.9,0,2z"/>
	<path class="st0" d="M71.9,24c-0.1-0.4-0.2-0.7-0.4-1L52,1.2V24H71.9z"/>
</g>
<rect x="6" y="41" class="st1" width="60" height="49"/>
<g>
	<path class="st1" d="M6.6,6.4h4.5c2.6,0,4.4,2,4.4,4.9c0,2.9-1.7,5-4.4,5H9.9v4.4H6.6V6.4z M10.5,13.4c1,0,1.6-0.9,1.6-2.1
		s-0.7-2-1.6-2H9.9v4.1H10.5z"/>
	<path class="st1" d="M18.4,6.4h4.2c3.7,0,5.9,2.6,5.9,7.1s-2.2,7.2-5.9,7.2h-4.2V6.4z M22.5,17.8c1.7,0,2.6-1.5,2.6-4.3
		c0-2.8-1-4.2-2.6-4.2h-0.8v8.5H22.5z"/>
	<path class="st1" d="M31.6,6.4h7.1v2.9h-3.8v3.1H38v2.9h-3.1v5.4h-3.3V6.4z"/>
</g>
<g transform="translate(0,-952.36218)">
	<path class="st2" d="M33.5,998.9c-2.3,0-4.1,1.9-4.1,4.1c0,2.8,1.6,6.3,3.2,9.6c-1.3,4-2.7,8.3-4.6,11.9c-3.8,1.5-7.2,2.6-9.2,4.3
		c0,0-0.1,0.1-0.1,0.1c-0.7,0.8-1.2,1.8-1.2,2.9c0,2.3,1.9,4.1,4.1,4.1c1.1,0,2.2-0.4,2.9-1.2c0,0,0.1,0,0.1-0.1
		c1.5-1.8,3.3-5.1,4.9-8c3.6-1.4,7.5-2.9,11.1-3.8c2.7,2.2,6.6,3.6,9.8,3.6c2.3,0,4.1-1.9,4.1-4.1c0-2.3-1.9-4.1-4.1-4.1
		c-2.6,0-6.3,0.9-9.1,1.9c-2.3-2.2-4.4-4.9-6-7.8c1.1-3.4,2.4-6.7,2.4-9.3C37.6,1000.7,35.8,998.9,33.5,998.9z M33.5,1001.3
		c0.9,0,1.6,0.7,1.6,1.6c0,1.2-0.7,3.5-1.4,5.9c-1-2.4-1.9-4.7-1.9-5.9C31.9,1002.1,32.6,1001.3,33.5,1001.3z M34.2,1015.4
		c1.2,2,2.7,3.8,4.3,5.4c-2.4,0.7-4.8,1.5-7.2,2.4C32.5,1020.7,33.4,1018,34.2,1015.4z M50.4,1020.7c0.9,0,1.6,0.7,1.6,1.6
		c0,0.9-0.7,1.6-1.6,1.6c-1.9,0-4.5-0.8-6.6-2C46.2,1021.3,48.9,1020.7,50.4,1020.7z M25.9,1028c-1.2,2.1-2.3,4-3.1,5
		c-0.3,0.3-0.6,0.4-1.1,0.4c-0.9,0-1.6-0.7-1.6-1.6c0-0.4,0.2-0.9,0.4-1.1C21.4,1029.9,23.5,1029,25.9,1028z"/>
</g>
</svg>
