<?xml version="1.0" encoding="utf-8"?>
<!-- Generator: Adobe Illustrator 21.1.0, SVG Export Plug-In . SVG Version: 6.00 Build 0)  -->
<svg version="1.1" id="Layer_1" xmlns="http://www.w3.org/2000/svg" xmlns:xlink="http://www.w3.org/1999/xlink" x="0px" y="0px"
	 viewBox="0 0 72 96" style="enable-background:new 0 0 72 96;" xml:space="preserve">
<style type="text/css">
	.st0{fill:#669966;}
	.st1{fill:#FFFFFF;}
</style>
<g>
	<path class="st0" d="M0,2l0,92c0,1.1,0.9,2,2,2h68c1.1,0,2-0.9,2-2V28H50c-1.1,0-2-0.9-2-2V0L2,0C0.9,0,0,0.9,0,2z"/>
	<path class="st0" d="M71.9,24c-0.1-0.4-0.2-0.7-0.4-1L52,1.2V24H71.9z"/>
</g>
<rect x="6" y="41" class="st1" width="60" height="49"/>
<g>
	<path class="st1" d="M6.6,6.4h4.5c2.6,0,4.4,2,4.4,4.9c0,2.9-1.7,5-4.4,5H9.9v4.4H6.6V6.4z M10.5,13.4c1,0,1.6-0.9,1.6-2.1
		s-0.7-2-1.6-2H9.9v4.1H10.5z"/>
	<path class="st1" d="M18.4,6.4h7.2v2.9h-3.9V12h3.1v2.9h-3.1v2.9h4.1v2.9h-7.4V6.4z"/>
	<path class="st1" d="M29.3,6.4H33l1.3,6c0.2,0.9,0.4,2.4,0.4,2.4h0.1c0,0,0.2-1.5,0.4-2.4l1.3-6h3.6l0.9,14.3h-3l-0.4-6.4
		c-0.1-1.1,0-2.4,0-2.4h-0.1c0,0-0.2,1.5-0.4,2.4l-0.9,4.1h-3.2l-0.9-4.1c-0.2-0.9-0.4-2.4-0.4-2.4h-0.1c0,0,0.1,1.3,0,2.4l-0.4,6.4
		h-3L29.3,6.4z"/>
</g>
<path class="st0" d="M49.2,62.2h-2.6v-5c0-5.7-4.6-10.2-10.2-10.2s-10.2,4.6-10.2,10.2v5h-2.6c-1,0-1.8,0.8-1.8,1.8v17.4
	c0,1,0.8,1.8,1.8,1.8h25.6c1,0,1.8-0.8,1.8-1.8V63.9C51,63,50.2,62.2,49.2,62.2z M38.6,76.6c0.2,0.6-0.3,1.1-0.9,1.1h-2.7
	c-0.6,0-1-0.6-0.9-1.1l0.8-3.2c-1-0.5-1.7-1.5-1.7-2.8c0-1.7,1.4-3.1,3.1-3.1c1.7,0,3.1,1.4,3.1,3.1c0,1.2-0.7,2.3-1.7,2.8
	L38.6,76.6z M41.5,62.2H31.3v-5c0-2.8,2.3-5.1,5.1-5.1s5.1,2.3,5.1,5.1L41.5,62.2L41.5,62.2z"/>
</svg>
