<?xml version="1.0" encoding="utf-8"?>
<!-- Generator: Adobe Illustrator 21.1.0, SVG Export Plug-In . SVG Version: 6.00 Build 0)  -->
<svg version="1.1" id="Layer_1" xmlns="http://www.w3.org/2000/svg" xmlns:xlink="http://www.w3.org/1999/xlink" x="0px" y="0px"
	 viewBox="0 0 72 96" style="enable-background:new 0 0 72 96;" xml:space="preserve">
<style type="text/css">
	.st0{fill:#666666;}
	.st1{fill:#FFFFFF;}
</style>
<g>
	<path class="st0" d="M0,2l0,92c0,1.1,0.9,2,2,2h68c1.1,0,2-0.9,2-2V28H50c-1.1,0-2-0.9-2-2V0L2,0C0.9,0,0,0.9,0,2z"/>
	<path class="st0" d="M71.9,24c-0.1-0.4-0.2-0.7-0.4-1L52,1.2V24H71.9z"/>
</g>
<rect x="6" y="41" class="st1" width="60" height="49"/>
<g>
	<path class="st1" d="M6.6,6.4h4.5c2.6,0,4.4,2,4.4,4.9c0,2.9-1.7,5-4.4,5H9.9v4.4H6.6V6.4z M10.5,13.4c1,0,1.6-0.9,1.6-2.1
		s-0.7-2-1.6-2H9.9v4.1H10.5z"/>
	<path class="st1" d="M18.4,6.4h3.3v5.8h3.2V6.4h3.3v14.3h-3.3V15h-3.2v5.7h-3.3V6.4z"/>
	<path class="st1" d="M31.8,6.4h4.5c2.6,0,4.4,2,4.4,4.9c0,2.9-1.7,5-4.4,5h-1.2v4.4h-3.3V6.4z M35.7,13.4c1,0,1.6-0.9,1.6-2.1
		s-0.7-2-1.6-2h-0.7v4.1H35.7z"/>
</g>
<g>
	<path class="st0" d="M33.9,73c1.9,0.7,5,0.6,7.2,0.3c0.4,0.9-0.2,2.1,0.2,3.1c0.2,0.5,0.8,0.9,1.8,1.4c0.2,0.1,0.5,0.1,0.7,0.2
		l0.2,0.2c0.4,0.3,1.2,0.8,1.4,0.8c0.3,0.1,0.6,0.1,0.8,0.1c0.3,0,0.7,0,1,0c1.4-0.1,2.8-0.5,3.2-1c0.7-0.9,0.3-2.9,0.2-4.7
		c-0.1-1.5-0.3-3.5,0-4.7c0.1-0.4,0.5-0.8,0.7-1.3c0.8-1.7,1.6-4.5,1.3-7.2c-0.2-1.2-0.8-2.3-0.9-3.2c1.9,0.2,3.7-0.2,5.3,0
		c1,0.1,1.8,0.8,2.7,0.7c0.2-0.5,0.8-0.8,0.8-1.4c0.1-0.7-0.2-1.5-0.5-2c-1.3-0.2-2.3,1-3.6,1.1c-0.4,0-0.9-0.1-1.4-0.2
		c-1.5-0.1-3.6,0.3-4.9,0c-0.9-0.2-1.7-1.2-2.6-1.6c-0.2-0.1-0.6,0-0.8-0.2c-0.3-0.1-0.5-0.3-0.7-0.3c-1-0.4-2.1-0.8-3.1-0.9
		c-1.9-0.5-4.5-0.5-6.9-0.3c-0.8,0.1-1.5,0.5-2.3,0.3c-0.6-0.1-0.7-0.5-1.1-0.7c-1.7-0.8-3.4,0.1-4.5,0.7c-0.8,0.4-1.8,1-2.6,1.1
		c-0.8,0.2-2,0-2.7,0c-0.9,0-2.1,0.2-3.1,0.3c-0.9,0.2-2.2,0.3-2.7,0.7c-1.4,0.8-1.8,4.5-2.3,6.7c-0.2,0.8-0.5,1.6-0.7,2.4
		c-0.3,1.8-0.5,3.7-0.5,5.4c-0.1,3.5-0.5,8.4,1.3,9.7c0.4,0.3,1.7,0.7,2.1,0.5c0.1,0,0.6-0.5,0.7-0.7c0.1-0.3-0.2-0.7-0.2-1.1
		c0-0.8-0.2-1.8-0.2-2.6c0-2.1,0.4-4.4,0.9-5.3c0-0.1,0.3-0.1,0.3-0.2c0.1-0.2,0-0.4,0.2-0.5c0.4-0.4,1-0.8,1.4-0.9
		c1.2-0.5,1.9,0.1,2.4,0.8c1,1.3,1.2,3.5,1.3,5.6c0,0.4,0,0.9,0,1.3c0,0.5-0.2,1-0.2,1.3c0.3,0.8,1.7,1.2,2.3,1.6
		c0,0.3,0.1,0.7,0.3,0.9c0.3,0.5,0.8,0.8,1.1,1c1.5,0.8,5.3,0.3,6-0.7c0.1-0.1,0.2-0.2,0.2-0.4c0.1-0.3,0.3-0.6,0.3-0.8
		C34.3,76.5,33.6,74.9,33.9,73z"/>
	<path class="st0" d="M31.8,55.1C31.7,55.2,31.7,55.2,31.8,55.1"/>
</g>
</svg>
