<?xml version="1.0" encoding="utf-8"?>
<!-- Generator: Adobe Illustrator 21.1.0, SVG Export Plug-In . SVG Version: 6.00 Build 0)  -->
<svg version="1.1" id="Layer_1" xmlns="http://www.w3.org/2000/svg" xmlns:xlink="http://www.w3.org/1999/xlink" x="0px" y="0px"
	 viewBox="0 0 72 96" style="enable-background:new 0 0 72 96;" xml:space="preserve">
<style type="text/css">
	.st0{fill:#F57E00;}
	.st1{fill:#FFFFFF;}
	.st2{fill:#F57E00;stroke:#F57E00;stroke-miterlimit:10;}
</style>
<g>
	<path class="st0" d="M0,2l0,92c0,1.1,0.9,2,2,2h68c1.1,0,2-0.9,2-2V28H50c-1.1,0-2-0.9-2-2V0L2,0C0.9,0,0,0.9,0,2z"/>
	<path class="st0" d="M71.9,24c-0.1-0.4-0.2-0.7-0.4-1L52,1.2V24H71.9z"/>
</g>
<rect x="6" y="41" class="st1" width="60" height="49"/>
<g>
	<path class="st1" d="M6.4,6.4H10c2.1,0,3.5,2,3.5,4.9c0,2.9-1.4,5-3.5,5H9v4.4H6.4V6.4z M9.5,13.4c0.8,0,1.3-0.9,1.3-2.1
		s-0.5-2-1.2-2H9v4.1H9.5z"/>
	<path class="st1" d="M15,6.4h3.6c2.1,0,3.5,2,3.5,4.9c0,2.9-1.4,5-3.5,5h-1v4.4H15V6.4z M18.1,13.4c0.8,0,1.3-0.9,1.3-2.1
		s-0.5-2-1.2-2h-0.5v4.1H18.1z"/>
	<path class="st1" d="M25.4,9.3h-2.5V6.4h7.7v2.9H28v11.4h-2.6V9.3z"/>
	<path class="st1" d="M32.3,6.4h2.9l1.1,6c0.2,0.9,0.3,2.4,0.3,2.4h0c0,0,0.2-1.5,0.3-2.4l1.1-6H41l0.7,14.3h-2.4L39,14.3
		c-0.1-1.1,0-2.4,0-2.4h-0.1c0,0-0.2,1.5-0.4,2.4l-0.7,4.1h-2.5l-0.7-4.1c-0.2-0.9-0.4-2.4-0.4-2.4h-0.1c0,0,0.1,1.3,0,2.4L34,20.7
		h-2.4L32.3,6.4z"/>
</g>
<g>
	<path class="st2" d="M53,47.7H19c-1.7,0-3.1,1.4-3.1,3.1v21.8c0,1.7,1.4,3.1,3.1,3.1h14.2L31.8,81h-1.6c-0.7,0-1.2,0.5-1.2,1.2v0
		c0,0.7,0.5,1.2,1.2,1.2h11.5c0.7,0,1.2-0.5,1.2-1.2v0c0-0.7-0.5-1.2-1.2-1.2h-1.7l-1.4-5.4H53c1.7,0,3.1-1.4,3.1-3.1V50.8
		C56.1,49.1,54.7,47.7,53,47.7z M53.3,72.8H18.7V50.6h34.5L53.3,72.8L53.3,72.8z"/>
	<rect x="27.6" y="63.9" class="st2" width="2.8" height="5.6"/>
	<rect x="32.3" y="62.1" class="st2" width="2.8" height="7.4"/>
	<rect x="36.9" y="60.2" class="st2" width="2.8" height="9.3"/>
	<rect x="41.5" y="58.4" class="st2" width="2.8" height="11.1"/>
	<polygon class="st2" points="41.3,54.3 36.4,57 32.8,55.8 26.7,59.1 27.6,60.1 33,57.3 36.6,58.5 42.2,55.4 43.1,56.4 45.2,52.9 
		40.4,53.2 	"/>
</g>
</svg>
