<?xml version="1.0" encoding="utf-8"?>
<!-- Generator: Adobe Illustrator 21.1.0, SVG Export Plug-In . SVG Version: 6.00 Build 0)  -->
<svg version="1.1" id="Layer_1" xmlns="http://www.w3.org/2000/svg" xmlns:xlink="http://www.w3.org/1999/xlink" x="0px" y="0px"
	 viewBox="0 0 72 96" style="enable-background:new 0 0 72 96;" xml:space="preserve">
<style type="text/css">
	.st0{fill:#CCCCCC;}
	.st1{fill:#333333;}
	.st2{fill:#999999;}
</style>
<path class="st0" d="M0,2l0,92c0,1.1,0.9,2,2,2h68c1.1,0,2-0.9,2-2V28H50c-1.1,0-2-0.9-2-2V0L2,0C0.9,0,0,0.9,0,2z"/>
<path class="st0" d="M71.9,24c-0.1-0.4-0.2-0.7-0.4-1L52,1.2V24H71.9z"/>
<g>
	<path class="st1" d="M12.6,70.4h4.5c2.6,0,4.4,2,4.4,4.9s-1.7,5-4.4,5h-1.2v4.4h-3.3V70.4z M16.5,77.4c1,0,1.6-0.9,1.6-2.1
		c0-1.2-0.7-2-1.6-2h-0.7v4.1H16.5z"/>
	<path class="st1" d="M24.3,70.4h4.5c0.6,0,1.3,0.1,1.9,0.4c1.4,0.6,2.4,2.1,2.4,4c0,1.7-0.8,3.3-2,4v0c0,0,0.2,0.2,0.5,0.9l2.3,5
		h-3.6l-2-4.8h-0.8v4.8h-3.3V70.4z M28.2,77c0.9,0,1.6-0.7,1.6-1.9c0-0.7-0.2-1.2-0.6-1.5c-0.3-0.2-0.6-0.3-0.9-0.3h-0.7V77H28.2z"
		/>
	<path class="st1" d="M41.8,70.2c3.8,0,5.9,3.1,5.9,7.3c0,4.2-2.1,7.5-5.9,7.5S36,81.7,36,77.5C36,73.3,38.1,70.2,41.8,70.2z
		 M41.8,81.8c1.7,0,2.5-1.8,2.5-4.3c0-2.5-0.8-4.2-2.5-4.2s-2.5,1.7-2.5,4.2C39.4,80,40.1,81.8,41.8,81.8z"/>
	<path class="st1" d="M50.8,70.4h4.5c2.6,0,4.4,2,4.4,4.9s-1.7,5-4.4,5h-1.2v4.4h-3.3V70.4z M54.7,77.4c1,0,1.6-0.9,1.6-2.1
		c0-1.2-0.7-2-1.6-2h-0.7v4.1H54.7z"/>
</g>
<path class="st2" d="M0,94L0,2c0-1.1,0.9-2,2-2l48,0c0.6,0,1.1,0.2,1.5,0.7l20,22.3c0.3,0.4,0.5,0.8,0.5,1.3V94c0,1.1-0.9,2-2,2H2
	C0.9,96,0,95.1,0,94z M68,25.1L49.1,4H4v88h64V25.1z"/>
<path class="st2" d="M48,26V4c0-1.1,0.9-2,2-2s2,0.9,2,2v20h16c1.1,0,2,0.9,2,2s-0.9,2-2,2H50C48.9,28,48,27.1,48,26z"/>
</svg>
