<?xml version="1.0" encoding="utf-8"?>
<!-- Generator: Adobe Illustrator 21.1.0, SVG Export Plug-In . SVG Version: 6.00 Build 0)  -->
<svg version="1.1" id="Layer_1" xmlns="http://www.w3.org/2000/svg" xmlns:xlink="http://www.w3.org/1999/xlink" x="0px" y="0px"
	 viewBox="0 0 72 96" style="enable-background:new 0 0 72 96;" xml:space="preserve">
<style type="text/css">
	.st0{fill:#0033CC;}
	.st1{fill:#FFFFFF;}
	.st2{fill:#0033CC;stroke:#0033CC;stroke-width:1.25;stroke-miterlimit:10;}
</style>
<g>
	<path class="st0" d="M0,2l0,92c0,1.1,0.9,2,2,2h68c1.1,0,2-0.9,2-2V28H50c-1.1,0-2-0.9-2-2V0L2,0C0.9,0,0,0.9,0,2z"/>
	<path class="st0" d="M71.9,24c-0.1-0.4-0.2-0.7-0.4-1L52,1.2V24H71.9z"/>
</g>
<rect x="6" y="41" class="st1" width="60" height="49"/>
<g>
	<path class="st1" d="M6.6,6.4h4.5c2.6,0,4.4,2,4.4,4.9c0,2.9-1.7,5-4.4,5H9.9v4.4H6.6V6.4z M10.5,13.4c1,0,1.6-0.9,1.6-2.1
		s-0.7-2-1.6-2H9.9v4.1H10.5z"/>
	<path class="st1" d="M19.1,16.7c0.6,0.6,1.4,1.2,2.3,1.2c0.9,0,1.3-0.6,1.3-1.2c0-2-4.8-2.1-4.8-6.2c0-2.4,1.7-4.3,4.5-4.3
		c1.2,0,2.4,0.3,3.4,1l-1.2,2.9c-0.5-0.4-1.4-0.9-2.2-0.9c-0.9,0-1.3,0.6-1.3,1.2c0,2.1,4.8,2,4.8,6.1c0,2.3-1.5,4.4-4.4,4.4
		c-1.4,0-2.9-0.5-4-1.4L19.1,16.7z"/>
	<path class="st1" d="M29,6.4h4.2c3.7,0,5.9,2.6,5.9,7.1s-2.2,7.2-5.9,7.2H29V6.4z M33.1,17.8c1.7,0,2.6-1.5,2.6-4.3
		c0-2.8-1-4.2-2.6-4.2h-0.8v8.5H33.1z"/>
</g>
<g>
	<path class="st2" d="M25.9,68.5c-1,0-2-0.1-2.8-0.3v12.1h-3.8V52.6c1.9-0.9,4.5-1.6,7.2-1.6c6.8,0,9.9,3.6,9.9,8.7
		C36.4,64.6,33.2,68.5,25.9,68.5z M26.5,53.3c-1.3,0-2.5,0.3-3.4,0.6V66c0.8,0.1,1.8,0.2,2.8,0.2c5,0,6.8-2.9,6.8-6.5
		C32.7,55.8,30.9,53.3,26.5,53.3z"/>
	<path class="st2" d="M46,80.8c-2.2,0-4.7-0.6-6.1-1.6l1-2.4c1.3,0.8,3.1,1.3,4.7,1.3c2.6,0,4.4-1.7,4.4-3.9c0-5.5-9.6-3.3-9.6-10.8
		c0-3.5,2.8-6.2,7-6.2c2.2,0,4.2,0.5,5.7,1.6l-1,2.2c-1.2-0.8-2.7-1.3-4.2-1.3c-2.6,0-3.8,1.6-3.8,3.6c0,5.2,9.7,3.1,9.7,10.8
		C53.7,77.7,50.6,80.8,46,80.8z"/>
</g>
</svg>
