<?xml version="1.0" encoding="utf-8"?>
<!-- Generator: Adobe Illustrator 21.1.0, SVG Export Plug-In . SVG Version: 6.00 Build 0)  -->
<svg version="1.1" id="Layer_1" xmlns="http://www.w3.org/2000/svg" xmlns:xlink="http://www.w3.org/1999/xlink" x="0px" y="0px"
	 viewBox="0 0 72 96" style="enable-background:new 0 0 72 96;" xml:space="preserve">
<style type="text/css">
	.st0{fill:#009966;}
	.st1{fill:#FFFFFF;}
</style>
<g>
	<path class="st0" d="M0,2l0,92c0,1.1,0.9,2,2,2h68c1.1,0,2-0.9,2-2V28H50c-1.1,0-2-0.9-2-2V0L2,0C0.9,0,0,0.9,0,2z"/>
	<path class="st0" d="M71.9,24c-0.1-0.4-0.2-0.7-0.4-1L52,1.2V24H71.9z"/>
</g>
<rect x="6" y="41" class="st1" width="60" height="49"/>
<g>
	<path class="st1" d="M6.6,6.4h4.5c2.6,0,4.4,2,4.4,4.9c0,2.9-1.7,5-4.4,5H9.9v4.4H6.6V6.4z M10.5,13.4c1,0,1.6-0.9,1.6-2.1
		s-0.7-2-1.6-2H9.9v4.1H10.5z"/>
	<path class="st1" d="M19.1,16.7c0.6,0.6,1.4,1.2,2.3,1.2c0.9,0,1.3-0.6,1.3-1.2c0-2-4.8-2.1-4.8-6.2c0-2.4,1.7-4.3,4.5-4.3
		c1.2,0,2.4,0.3,3.4,1l-1.2,2.9c-0.5-0.4-1.4-0.9-2.2-0.9c-0.9,0-1.3,0.6-1.3,1.2c0,2.1,4.8,2,4.8,6.1c0,2.3-1.5,4.4-4.4,4.4
		c-1.4,0-2.9-0.5-4-1.4L19.1,16.7z"/>
	<path class="st1" d="M29,6.4h4.2c3.7,0,5.9,2.6,5.9,7.1s-2.2,7.2-5.9,7.2H29V6.4z M33.1,17.8c1.7,0,2.6-1.5,2.6-4.3
		c0-2.8-1-4.2-2.6-4.2h-0.8v8.5H33.1z"/>
</g>
<g>
	<g>
		<path class="st0" d="M30.2,79.4c0,0,5.7,0.6,13.4-4.8c-3.2-0.1-6-0.6-6.2-1.1c1.3,0.6,4.2,0.7,7,0.5c1.6-1.2,3.2-2.6,4.7-4.1
			c8.3-8.4,4.1-22.7,4.1-22.7c-1.7,3.1-4,5.7-6.7,7.9c-1.2,0.9-2.4,1.7-3.7,2.4c-0.9,1.3-1.5,2.8-1.9,4.3c0.3-1.3,0.7-2.6,1.2-3.9
			c-10.5,5.7-22.8,7.2-17.7,19.1c-1.4-3.1-1.8-3.1-3-4.9c0,0,0.4,1.8,0.6,2.9c0.4,1.7,2,2.8,2,2.8l-7.4,5.4l0.6,0.9l7.3-5.4
			c0,0,2.1,2.3,7.5,2.4c-1.3-0.9-2.7-1.7-4.1-2.3L30.2,79.4z M39,65.7l9.5-6.5l-0.7,0.6c-1,0.8-1.7,1.3-2.8,2.1
			c-2.4,1.7-4.9,3.3-7,5C32.2,71.8,25.9,77,25.9,77S34.8,69,39,65.7z"/>
	</g>
</g>
</svg>
