<?xml version="1.0" encoding="utf-8"?>
<!-- Generator: Adobe Illustrator 21.1.0, SVG Export Plug-In . SVG Version: 6.00 Build 0)  -->
<svg version="1.1" id="Layer_1" xmlns="http://www.w3.org/2000/svg" xmlns:xlink="http://www.w3.org/1999/xlink" x="0px" y="0px"
	 viewBox="0 0 72 96" style="enable-background:new 0 0 72 96;" xml:space="preserve">
<style type="text/css">
	.st0{fill:#077265;}
	.st1{fill:#FFFFFF;}
</style>
<g>
	<path class="st0" d="M0,2l0,92c0,1.1,0.9,2,2,2h68c1.1,0,2-0.9,2-2V28H50c-1.1,0-2-0.9-2-2V0L2,0C0.9,0,0,0.9,0,2z"/>
	<path class="st0" d="M71.9,24c-0.1-0.4-0.2-0.7-0.4-1L52,1.2V24H71.9z"/>
</g>
<rect x="6" y="41" class="st1" width="60" height="49"/>
<g>
	<path class="st1" d="M6.6,6.4h4.5c2.6,0,4.4,2,4.4,4.9c0,2.9-1.7,5-4.4,5H9.9v4.4H6.6V6.4z M10.5,13.4c1,0,1.6-0.9,1.6-2.1
		s-0.7-2-1.6-2H9.9v4.1H10.5z"/>
	<path class="st1" d="M18.3,6.4h3.3V16c0,1.4,0.6,1.9,1.5,1.9c0.9,0,1.5-0.5,1.5-1.9V6.4h3.3V16c0,3-1.9,4.9-4.7,4.9
		c-2.9,0-4.8-1.9-4.8-4.9V6.4z"/>
	<path class="st1" d="M31.4,6.4h4.2c2.5,0,4.2,1.3,4.2,3.7c0,1.2-0.5,2.4-1.7,3v0c1.6,0.5,2.1,1.9,2.1,3.2c0,3.1-2,4.3-4.4,4.3h-4.4
		V6.4z M35.6,12c0.6,0,0.9-0.6,0.9-1.4s-0.3-1.3-1-1.3h-0.8V12H35.6z M35.8,17.8c0.8,0,1.2-0.7,1.2-1.6c0-0.9-0.3-1.5-1.1-1.5h-1.2
		v3.1H35.8z"/>
</g>
<g>
	<g>
		<path class="st0" d="M31.2,61.2c0-2.7-1.3-4-3.4-4c-0.8,0-1.4,0.1-1.8,0.3v8c0.4,0.2,0.9,0.3,1.5,0.3
			C29.9,65.6,31.2,64.1,31.2,61.2z"/>
		<path class="st0" d="M17.6,77.3l22,5.6V47l-22,5.6V77.3z M24.2,55.4c0.9-0.3,2.1-0.4,3.5-0.4c1.9,0,3.2,0.6,4,1.7
			c0.8,1,1.3,2.4,1.3,4.3c0,1.9-0.4,3.4-1.1,4.4c-1,1.5-2.6,2.3-4.4,2.3c-0.6,0-1.1,0-1.5-0.2v8.2h-1.9V55.4z"/>
		<polygon class="st0" points="41.5,51.5 41.5,53.7 48.9,53.7 48.9,59.9 41.5,59.9 41.5,62.2 48.9,62.2 48.9,64.9 41.5,64.9 
			41.5,67.1 48.9,67.1 48.9,69.9 41.5,69.9 41.5,72.3 48.9,72.3 48.9,75.1 41.5,75.1 41.5,79.7 54,79.7 54,51.5 		"/>
	</g>
</g>
</svg>
