<?xml version="1.0" encoding="utf-8"?>
<!-- Generator: Adobe Illustrator 21.1.0, SVG Export Plug-In . SVG Version: 6.00 Build 0)  -->
<svg version="1.1" id="Layer_1" xmlns="http://www.w3.org/2000/svg" xmlns:xlink="http://www.w3.org/1999/xlink" x="0px" y="0px"
	 viewBox="0 0 72 96" style="enable-background:new 0 0 72 96;" xml:space="preserve">
<style type="text/css">
	.st0{fill:#666666;}
	.st1{fill:#FFFFFF;}
</style>
<g>
	<path class="st0" d="M0,2l0,92c0,1.1,0.9,2,2,2h68c1.1,0,2-0.9,2-2V28H50c-1.1,0-2-0.9-2-2V0L2,0C0.9,0,0,0.9,0,2z"/>
	<path class="st0" d="M71.9,24c-0.1-0.4-0.2-0.7-0.4-1L52,1.2V24H71.9z"/>
</g>
<rect x="6" y="41" class="st1" width="60" height="49"/>
<g>
	<path class="st1" d="M6.6,6.4h4.5c2.6,0,4.4,2,4.4,4.9c0,2.9-1.7,5-4.4,5H9.9v4.4H6.6V6.4z M10.5,13.4c1,0,1.6-0.9,1.6-2.1
		s-0.7-2-1.6-2H9.9v4.1H10.5z"/>
	<path class="st1" d="M20.5,14.8l-3.6-8.4h3.6l1.1,3.4c0.3,1,0.5,2.1,0.5,2.1h0.1c0,0,0.2-1.1,0.5-2.1l1.1-3.4h3.6l-3.6,8.4v5.9
		h-3.3V14.8z"/>
</g>
<path class="st0" d="M37.9,46.8h-6.4c-6.4,0-6.4,4.5-6.4,4.5V54h12.7v1.8H25.1c-6.4,0-6.4,4.5-6.4,4.5v4.5c0,4.5,6.4,4.5,6.4,4.5
	c0-4.5,6.4-4.5,6.4-4.5h6.4c6.4,0,6.4-4.5,6.4-4.5v-9C44.3,46.8,37.9,46.8,37.9,46.8z M27.7,52.6c-0.7,0-1.2-0.5-1.2-1.2
	c0-0.7,0.5-1.2,1.2-1.2c0.7,0,1.2,0.5,1.2,1.2C28.9,52,28.4,52.6,27.7,52.6z M45.2,60.9c0,4.5-6.4,4.5-6.4,4.5h-6.3
	c-6.4,0-6.4,4.5-6.4,4.5v9c0,4.5,6.4,4.5,6.4,4.5h6.4c6.4,0,6.4-4.5,6.4-4.5V76H32.6v-1.8h12.8c6.4,0,6.4-4.5,6.4-4.5v-4.5
	C51.6,60.9,45.2,60.9,45.2,60.9z M42.7,77.4c0.7,0,1.2,0.5,1.2,1.2c0,0.7-0.5,1.2-1.2,1.2s-1.2-0.5-1.2-1.2
	C41.6,77.9,42.1,77.4,42.7,77.4z"/>
</svg>
