<?xml version="1.0" encoding="utf-8"?>
<!-- Generator: Adobe Illustrator 21.1.0, SVG Export Plug-In . SVG Version: 6.00 Build 0)  -->
<svg version="1.1" id="Layer_1" xmlns="http://www.w3.org/2000/svg" xmlns:xlink="http://www.w3.org/1999/xlink" x="0px" y="0px"
	 viewBox="0 0 72 96" style="enable-background:new 0 0 72 96;" xml:space="preserve">
<style type="text/css">
	.st0{fill:#003399;}
	.st1{fill:#FFFFFF;}
	.st2{fill:#003399;stroke:#003399;stroke-width:0.5;stroke-miterlimit:10;}
</style>
<g>
	<path class="st0" d="M0,2l0,92c0,1.1,0.9,2,2,2h68c1.1,0,2-0.9,2-2V28H50c-1.1,0-2-0.9-2-2V0L2,0C0.9,0,0,0.9,0,2z"/>
	<path class="st0" d="M71.9,24c-0.1-0.4-0.2-0.7-0.4-1L52,1.2V24H71.9z"/>
</g>
<rect x="6" y="41" class="st1" width="60" height="49"/>
<g>
	<path class="st1" d="M6.6,6.4h4.5c0.6,0,1.3,0.1,1.9,0.4c1.4,0.6,2.4,2.1,2.4,4c0,1.7-0.8,3.3-2,4v0c0,0,0.2,0.2,0.5,0.9l2.3,5
		h-3.6l-2-4.8H9.9v4.8H6.6V6.4z M10.5,13c0.9,0,1.6-0.7,1.6-1.9c0-0.7-0.2-1.2-0.6-1.5c-0.3-0.2-0.6-0.3-0.9-0.3H9.9V13H10.5z"/>
	<path class="st1" d="M20.3,6.4h3.6l3.6,14.3h-3.3l-0.6-3h-3l-0.6,3h-3.3L20.3,6.4z M23.1,15l-0.6-2.8c-0.2-0.9-0.4-2.5-0.4-2.5H22
		c0,0-0.2,1.5-0.4,2.5L21,15H23.1z"/>
	<path class="st1" d="M29.4,6.4h3.6l1.3,6c0.2,0.9,0.4,2.4,0.4,2.4h0.1c0,0,0.2-1.5,0.4-2.4l1.3-6h3.6l0.9,14.3h-3l-0.4-6.4
		c-0.1-1.1,0-2.4,0-2.4h-0.1c0,0-0.2,1.5-0.4,2.4l-0.9,4.1h-3.2l-0.9-4.1c-0.2-0.9-0.4-2.4-0.4-2.4h-0.1c0,0,0.1,1.3,0,2.4l-0.4,6.4
		h-3L29.4,6.4z"/>
</g>
<g>
	<polygon class="st2" points="22.9,73.9 15.2,65.4 15.2,65.3 22.9,56.8 22.9,51.1 12.7,63.1 12.7,67.6 22.9,79.5 	"/>
	<polygon class="st2" points="48.7,51.1 48.7,56.8 56.6,65.3 56.6,65.4 48.7,73.9 48.7,79.5 58.9,67.8 58.9,62.9 	"/>
	<path class="st2" d="M41,55.5c-1.3-0.6-3-1.6-3.6-3c0-0.7-0.6-1.3-1.3-1.3s-1.3,0.6-1.3,1.3v17.3c-1.3-0.7-3.9-0.5-5.9,0.6
		c-3,1.7-4.3,4.9-3,7.2c1.3,2.2,5,2.7,8,1c2.1-1.2,3.5-3.2,3.6-5.1c0-5,0-9.9,0-15c4.4,0,7,1.8,6,6c-0.2,0.8-0.4,1.6-0.8,2.3l0,0
		c-0.2,0.3-0.2,0.5,0.1,0.8c0.2,0.2,0.6,0.2,1-0.2c1.7-1.6,2.7-3.7,2.7-6C46.5,58.5,43.6,56.6,41,55.5z"/>
</g>
</svg>
