<?xml version="1.0" encoding="utf-8"?>
<!-- Generator: Adobe Illustrator 21.1.0, SVG Export Plug-In . SVG Version: 6.00 Build 0)  -->
<svg version="1.1" id="Layer_1" xmlns="http://www.w3.org/2000/svg" xmlns:xlink="http://www.w3.org/1999/xlink" x="0px" y="0px"
	 viewBox="0 0 72 96" style="enable-background:new 0 0 72 96;" xml:space="preserve">
<style type="text/css">
	.st0{fill:#666666;}
	.st1{fill:#FFFFFF;}
	.st2{fill:#666666;fill-opacity:0;stroke:#FFFFFF;}
</style>
<g>
	<path class="st0" d="M0,2l0,92c0,1.1,0.9,2,2,2h68c1.1,0,2-0.9,2-2V28H50c-1.1,0-2-0.9-2-2V0L2,0C0.9,0,0,0.9,0,2z"/>
	<path class="st0" d="M71.9,24c-0.1-0.4-0.2-0.7-0.4-1L52,1.2V24H71.9z"/>
</g>
<rect x="6" y="41" class="st1" width="60" height="49"/>
<g>
	<path class="st1" d="M6.6,6.4h4.5c0.6,0,1.3,0.1,1.9,0.4c1.4,0.6,2.4,2.1,2.4,4c0,1.7-0.8,3.3-2,4v0c0,0,0.2,0.2,0.5,0.9l2.3,5
		h-3.6l-2-4.8H9.9v4.8H6.6V6.4z M10.5,13c0.9,0,1.6-0.7,1.6-1.9c0-0.7-0.2-1.2-0.6-1.5c-0.3-0.2-0.6-0.3-0.9-0.3H9.9V13H10.5z"/>
	<path class="st1" d="M18.8,6.4H23c2.5,0,4.2,1.3,4.2,3.7c0,1.2-0.5,2.4-1.7,3v0c1.6,0.5,2.1,1.9,2.1,3.2c0,3.1-2,4.3-4.4,4.3h-4.4
		V6.4z M23,12c0.6,0,0.9-0.6,0.9-1.4s-0.3-1.3-1-1.3h-0.8V12H23z M23.2,17.8c0.8,0,1.2-0.7,1.2-1.6c0-0.9-0.3-1.5-1.1-1.5h-1.2v3.1
		H23.2z"/>
</g>
<g>
	<path class="st0" d="M52,47.5v36l-9-27L52,47.5z M16,83.5h36l-27-9L16,83.5z M25,74.5l27,9l-18-18L25,74.5z M34,65.5l18,18l-9-27
		L34,65.5z M16,74.5v9l9-9H16z M34,65.5h-9v9L34,65.5z M43,56.5h-9v9L43,56.5z M52,47.5h-9v9L52,47.5z M25,65.5l-9,9h9V65.5z
		 M34,56.5l-9,9h9V56.5z M43,47.5l-9,9h9V47.5z"/>
	<path class="st2" d="M52,47.5v36l-9-27L52,47.5z M16,83.5h36l-27-9L16,83.5z M25,74.5l27,9l-18-18L25,74.5z M34,65.5l18,18l-9-27
		L34,65.5z M16,74.5v9l9-9H16z M34,65.5h-9v9L34,65.5z M43,56.5h-9v9L43,56.5z M52,47.5h-9v9L52,47.5z M25,65.5l-9,9h9V65.5z
		 M34,56.5l-9,9h9V56.5z M43,47.5l-9,9h9V47.5z"/>
</g>
</svg>
