<?xml version="1.0" encoding="utf-8"?>
<!-- Generator: Adobe Illustrator 21.1.0, SVG Export Plug-In . SVG Version: 6.00 Build 0)  -->
<svg version="1.1" id="Layer_1" xmlns="http://www.w3.org/2000/svg" xmlns:xlink="http://www.w3.org/1999/xlink" x="0px" y="0px"
	 viewBox="0 0 72 96" style="enable-background:new 0 0 72 96;" xml:space="preserve">
<style type="text/css">
	.st0{fill:#FF6600;}
	.st1{fill:#FFFFFF;}
</style>
<g>
	<path class="st0" d="M0,2l0,92c0,1.1,0.9,2,2,2h68c1.1,0,2-0.9,2-2V28H50c-1.1,0-2-0.9-2-2V0L2,0C0.9,0,0,0.9,0,2z"/>
	<path class="st0" d="M71.9,24c-0.1-0.4-0.2-0.7-0.4-1L52,1.2V24H71.9z"/>
</g>
<rect x="6" y="41" class="st1" width="60" height="49"/>
<g>
	<path class="st1" d="M6.6,6.4h4.5c0.6,0,1.3,0.1,1.9,0.4c1.4,0.6,2.4,2.1,2.4,4c0,1.7-0.8,3.3-2,4v0c0,0,0.2,0.2,0.5,0.9l2.3,5
		h-3.6l-2-4.8H9.9v4.8H6.6V6.4z M10.5,13c0.9,0,1.6-0.7,1.6-1.9c0-0.7-0.2-1.2-0.6-1.5c-0.3-0.2-0.6-0.3-0.9-0.3H9.9V13H10.5z"/>
	<path class="st1" d="M19.3,6.4H23l1.3,6c0.2,0.9,0.4,2.4,0.4,2.4h0.1c0,0,0.2-1.5,0.4-2.4l1.3-6h3.6l0.9,14.3h-3l-0.4-6.4
		c-0.1-1.1,0-2.4,0-2.4h-0.1c0,0-0.2,1.5-0.4,2.4l-0.9,4.1h-3.2l-0.9-4.1c-0.2-0.9-0.4-2.4-0.4-2.4h-0.1c0,0,0.1,1.3,0,2.4l-0.4,6.4
		h-3L19.3,6.4z"/>
</g>
<path class="st0" d="M13,83.1h46V47.9H13V83.1z M21.9,80.4h-5.5v-3.9h5.5V80.4L21.9,80.4z M38.8,80.4h-5.5v-3.9h5.5L38.8,80.4
	L38.8,80.4z M50.1,50.3h5.5v4h-5.5V50.3z M50.1,76.4h5.5v3.9h-5.5L50.1,76.4L50.1,76.4z M41.6,50.3H47v3.9h-5.5V50.3z M41.6,76.4H47
	v3.9h-5.5L41.6,76.4L41.6,76.4z M33.2,50.3h5.5v3.9h-5.5V50.3z M32.4,60l7.2,4.1c1.3,0.8,1.3,2,0,2.8L32.4,71
	c-1.3,0.8-2.4,0.1-2.4-1.4v-8.3C30,59.9,31.1,59.2,32.4,60z M24.7,50.3h5.4v3.9h-5.4V50.3z M24.7,76.4h5.4v3.9h-5.4V76.4L24.7,76.4z
	 M16.4,50.3h5.5v4h-5.5V50.3z"/>
</svg>
