<?xml version="1.0" encoding="utf-8"?>
<!-- Generator: Adobe Illustrator 21.1.0, SVG Export Plug-In . SVG Version: 6.00 Build 0)  -->
<svg version="1.1" id="Layer_1" xmlns="http://www.w3.org/2000/svg" xmlns:xlink="http://www.w3.org/1999/xlink" x="0px" y="0px"
	 viewBox="0 0 72 96" style="enable-background:new 0 0 72 96;" xml:space="preserve">
<style type="text/css">
	.st0{fill:#A03537;}
	.st1{fill:#FFFFFF;}
</style>
<g>
	<path class="st0" d="M0,2l0,92c0,1.1,0.9,2,2,2h68c1.1,0,2-0.9,2-2V28H50c-1.1,0-2-0.9-2-2V0L2,0C0.9,0,0,0.9,0,2z"/>
	<path class="st0" d="M71.9,24c-0.1-0.4-0.2-0.7-0.4-1L52,1.2V24H71.9z"/>
</g>
<rect x="6" y="41" class="st1" width="60" height="49"/>
<g>
	<path class="st1" d="M7.3,16.7c0.6,0.6,1.4,1.2,2.3,1.2c0.9,0,1.3-0.6,1.3-1.2c0-2-4.8-2.1-4.8-6.2c0-2.4,1.7-4.3,4.5-4.3
		c1.2,0,2.4,0.3,3.4,1L13,10.1c-0.5-0.4-1.4-0.9-2.2-0.9c-0.9,0-1.3,0.6-1.3,1.2c0,2.1,4.8,2,4.8,6.1c0,2.3-1.5,4.4-4.4,4.4
		c-1.4,0-2.9-0.5-4-1.4L7.3,16.7z"/>
	<path class="st1" d="M22.6,6.1c3.7,0,5.9,3.1,5.9,7.3c0,1.8-0.6,3.3-1.1,4.2l1.4,1.3L27,21.1l-1.3-1.3c-0.6,0.5-1.6,1.1-3.1,1.1
		c-3.8,0-5.9-3.2-5.9-7.5C16.7,9.3,18.8,6.1,22.6,6.1z M22.6,17.9c0.3,0,0.5,0,0.9-0.3l-1.6-1.5l1.8-2.1l1.2,1.3
		c0.2-0.7,0.2-1.2,0.2-1.9c0-2.5-0.7-4.2-2.5-4.2s-2.5,1.7-2.5,4.2C20.1,16.1,20.9,17.9,22.6,17.9z"/>
	<path class="st1" d="M31.6,6.4h3.3v11.4h4.3v2.9h-7.6V6.4z"/>
</g>
<g transform="translate(4973.0369,-638.0698)">
	<path class="st0" d="M-4938.1,722.8c-4.8-0.2-9.1-1.7-11.4-4c-0.7-0.6-1.4-1.5-1.7-2.1l-0.2-0.4l0-4.5c0-4.5,0-4.5,0.1-4.1
		c0.2,1,0.8,2,1.7,2.8c0.6,0.5,1.8,1.4,2.8,1.9c1.7,0.9,3.9,1.5,6.2,1.8c1.4,0.2,1.9,0.2,3.9,0.2s2.5,0,3.9-0.2
		c2.3-0.3,4.4-1,6.2-1.8c1-0.5,2.2-1.3,2.8-1.9c0.8-0.8,1.5-1.8,1.7-2.8c0.1-0.3,0.1-0.3,0.1,4.1l0,4.4l-0.2,0.4
		c-0.7,1.4-1.9,2.6-3.5,3.6C-4928.8,722-4933.5,723-4938.1,722.8z M-4938.1,711.6c-4.2-0.2-8.1-1.4-10.6-3.2
		c-0.6-0.4-1.4-1.2-1.7-1.6c-0.3-0.4-0.6-0.9-0.8-1.4l-0.2-0.4l0-4.4c0-4.4,0-4.4,0.1-4.1c0.2,0.7,0.5,1.5,1.1,2.1
		c0.3,0.4,0.8,0.9,1.1,1.1c0.1,0.1,0.4,0.2,0.6,0.4c2,1.4,4.8,2.4,8,2.9c1.4,0.2,1.9,0.2,3.9,0.2s2.5,0,3.9-0.2
		c2.3-0.3,4.4-1,6.2-1.8c1-0.5,2.2-1.3,2.8-1.9c0.8-0.8,1.4-1.8,1.7-2.8c0.1-0.3,0.1-0.3,0.1,4.1l0,4.4l-0.3,0.6
		c-0.5,0.9-0.8,1.4-1.4,2c-0.6,0.6-1.2,1.1-2,1.5C-4928.8,710.9-4933.5,711.9-4938.1,711.6L-4938.1,711.6z M-4938.4,700.5
		c-2.8-0.2-5-0.7-7.1-1.5c-2.5-1-4.3-2.3-5.2-3.9c-0.2-0.3-0.4-0.7-0.5-1.2c-0.1-0.4-0.2-1.4-0.1-2c0.6-3.2,4.9-5.8,10.7-6.7
		c1.4-0.2,1.9-0.2,3.9-0.2s2.5,0,3.9,0.2c2.3,0.3,4.4,1,6.2,1.8c2.6,1.3,4.2,3,4.5,4.8c0.1,0.5,0.1,1.6-0.1,2
		c-0.3,1-0.7,1.6-1.5,2.4c-2.1,2.2-5.8,3.6-10.4,4.1C-4934.7,700.5-4937.8,700.5-4938.4,700.5z"/>
</g>
</svg>
