<?xml version="1.0" encoding="utf-8"?>
<!-- Generator: Adobe Illustrator 21.1.0, SVG Export Plug-In . SVG Version: 6.00 Build 0)  -->
<svg version="1.1" id="Layer_1" xmlns="http://www.w3.org/2000/svg" xmlns:xlink="http://www.w3.org/1999/xlink" x="0px" y="0px"
	 viewBox="0 0 72 96" style="enable-background:new 0 0 72 96;" xml:space="preserve">
<style type="text/css">
	.st0{fill:#336699;}
	.st1{fill:#FFFFFF;}
	.st2{fill:#336699;stroke:#336699;stroke-width:1.5;stroke-miterlimit:10;}
</style>
<g>
	<path class="st0" d="M0,2l0,92c0,1.1,0.9,2,2,2h68c1.1,0,2-0.9,2-2V28H50c-1.1,0-2-0.9-2-2V0L2,0C0.9,0,0,0.9,0,2z"/>
	<path class="st0" d="M71.9,24c-0.1-0.4-0.2-0.7-0.4-1L52,1.2V24H71.9z"/>
</g>
<rect x="6" y="41" class="st1" width="60" height="49"/>
<g>
	<path class="st1" d="M7.2,16.7c0.5,0.6,1.3,1.2,2.2,1.2c0.8,0,1.2-0.6,1.2-1.2c0-2-4.5-2.1-4.5-6.2c0-2.4,1.6-4.3,4.3-4.3
		c1.1,0,2.3,0.3,3.2,1l-1.1,2.9c-0.5-0.4-1.4-0.9-2.1-0.9c-0.9,0-1.3,0.6-1.3,1.2c0,2.1,4.5,2,4.5,6.1c0,2.3-1.4,4.4-4.2,4.4
		c-1.3,0-2.7-0.5-3.8-1.4L7.2,16.7z"/>
	<path class="st1" d="M17.9,9.3h-3V6.4H24v2.9h-3v11.4h-3.1V9.3z"/>
	<path class="st1" d="M25.7,6.4h6.8v2.9h-3.7V12h2.9v2.9h-2.9v2.9h3.9v2.9h-7V6.4z"/>
	<path class="st1" d="M34.7,6.4H39c2.5,0,4.1,2,4.1,4.9c0,2.9-1.7,5-4.1,5h-1.2v4.4h-3.1V6.4z M38.4,13.4c1,0,1.5-0.9,1.5-2.1
		s-0.6-2-1.5-2h-0.6v4.1H38.4z"/>
</g>
<g>
	<path class="st2" d="M51.6,65.9c-0.5-0.2-1.1,0-1.3,0.5c-1.1,2.5-2.9,4.7-5.1,6.4l-6.7-13.6c1-0.8,1.6-2,1.6-3.4
		c0-2.1-1.5-3.9-3.5-4.3v-3.4c0-0.5-0.4-1-1-1c-0.5,0-1,0.4-1,1v3.4c-2,0.4-3.5,2.2-3.5,4.3c0,1.4,0.6,2.6,1.6,3.4l-6.7,13.6
		c-2.2-1.7-4-3.8-5.1-6.4c-0.2-0.5-0.8-0.7-1.3-0.5c-0.5,0.2-0.7,0.8-0.5,1.3c1.3,3,3.4,5.4,6,7.3l-4,8c-0.2,0.5,0,1.1,0.4,1.3
		c0.1,0,0.3,0.1,0.4,0.1c0.3,0,0.7-0.2,0.9-0.5l3.8-7.8c2.7,1.5,5.6,2.2,8.7,2.2s6-0.8,8.7-2.2l3.8,7.8c0.1,0.3,0.5,0.5,0.9,0.5
		c0.1,0,0.3,0,0.4-0.1c0.5-0.2,0.7-0.8,0.4-1.3l-3.9-8c2.6-1.8,4.7-4.4,6-7.3C52.2,66.7,52,66.1,51.6,65.9z M35.6,53.3
		c1.4,0,2.5,1.1,2.5,2.5c0,1.4-1.1,2.5-2.5,2.5s-2.5-1.1-2.5-2.5S34.3,53.3,35.6,53.3z M35.6,75.9c-2.8,0-5.4-0.7-7.8-2l6.8-13.7
		c0.3,0.1,0.7,0.1,1.1,0.1s0.7,0,1.1-0.1l6.8,13.7C41.1,75.2,38.4,75.9,35.6,75.9z"/>
</g>
</svg>
