<?xml version="1.0" encoding="utf-8"?>
<!-- Generator: Adobe Illustrator 21.1.0, SVG Export Plug-In . SVG Version: 6.00 Build 0)  -->
<svg version="1.1" id="Layer_1" xmlns="http://www.w3.org/2000/svg" xmlns:xlink="http://www.w3.org/1999/xlink" x="0px" y="0px"
	 viewBox="0 0 72 96" style="enable-background:new 0 0 72 96;" xml:space="preserve">
<style type="text/css">
	.st0{fill:#FEA500;}
	.st1{fill:#FFFFFF;}
</style>
<g>
	<path class="st0" d="M0,2l0,92c0,1.1,0.9,2,2,2h68c1.1,0,2-0.9,2-2V28H50c-1.1,0-2-0.9-2-2V0L2,0C0.9,0,0,0.9,0,2z"/>
	<path class="st0" d="M71.9,24c-0.1-0.4-0.2-0.7-0.4-1L52,1.2V24H71.9z"/>
</g>
<rect x="6" y="41" class="st1" width="60" height="49"/>
<g>
	<path class="st1" d="M7.3,16.7c0.6,0.6,1.4,1.2,2.3,1.2c0.9,0,1.3-0.6,1.3-1.2c0-2-4.8-2.1-4.8-6.2c0-2.4,1.7-4.3,4.5-4.3
		c1.2,0,2.4,0.3,3.4,1L13,10.1c-0.5-0.4-1.4-0.9-2.2-0.9c-0.9,0-1.3,0.6-1.3,1.2c0,2.1,4.8,2,4.8,6.1c0,2.3-1.5,4.4-4.4,4.4
		c-1.4,0-2.9-0.5-4-1.4L7.3,16.7z"/>
	<path class="st1" d="M16,6.4h3.6l1.6,8.1c0.2,0.9,0.3,2.3,0.3,2.3h0.1c0,0,0.2-1.4,0.3-2.3l1.7-8.1h3.5l-3.9,14.3h-3.3L16,6.4z"/>
	<path class="st1" d="M35.1,6.1c1.4,0,2.9,0.4,3.9,1.3l-1.4,2.8c-0.6-0.6-1.4-0.9-2.3-0.9c-2.2,0-3.2,1.9-3.2,4.2
		c0,2.6,1.2,4.3,2.9,4.3c0.6,0,1.3-0.2,1.7-0.6v-1.7h-1.5v-2.9h4.3v8.1h-2.6v-0.4c0-0.2,0-0.5,0-0.5h0c-0.5,0.7-1.6,1.2-2.7,1.2
		c-2.8,0-5.6-2.7-5.6-7.3C28.8,9.2,31.2,6.1,35.1,6.1z"/>
</g>
<g>
	<path class="st0" d="M27.1,60.2L18,79.4l1.7,1.7L31,69.8c-0.4-0.9-0.3-2,0.5-2.8c1-1,2.5-1,3.5,0c1,1,1,2.5,0,3.5
		c-0.7,0.7-1.9,0.9-2.8,0.5L20.9,82.3l1.7,1.7l19.2-9.1L46,63.4L38.6,56L27.1,60.2z"/>
	<path class="st0" d="M53.4,57.9l-9.4-9.4c-0.8-0.8-2-0.8-2.8,0l-2.2,2.2c-0.8,0.8-0.8,2,0,2.8l9.4,9.4c0.8,0.8,2,0.8,2.8,0l2.2-2.2
		C54.2,59.9,54.2,58.7,53.4,57.9z"/>
</g>
</svg>
