<?xml version="1.0" encoding="utf-8"?>
<!-- Generator: Adobe Illustrator 21.1.0, SVG Export Plug-In . SVG Version: 6.00 Build 0)  -->
<svg version="1.1" id="Layer_1" xmlns="http://www.w3.org/2000/svg" xmlns:xlink="http://www.w3.org/1999/xlink" x="0px" y="0px"
	 viewBox="0 0 72 96" style="enable-background:new 0 0 72 96;" xml:space="preserve">
<style type="text/css">
	.st0{fill:#D10407;}
	.st1{fill:#FFFFFF;}
</style>
<g>
	<path class="st0" d="M0,2l0,92c0,1.1,0.9,2,2,2h68c1.1,0,2-0.9,2-2V28H50c-1.1,0-2-0.9-2-2V0L2,0C0.9,0,0,0.9,0,2z"/>
	<path class="st0" d="M71.9,24c-0.1-0.4-0.2-0.7-0.4-1L52,1.2V24H71.9z"/>
</g>
<rect x="6" y="41" class="st1" width="60" height="49"/>
<g>
	<path class="st1" d="M7.3,16.7c0.6,0.6,1.4,1.2,2.3,1.2c0.9,0,1.3-0.6,1.3-1.2c0-2-4.8-2.1-4.8-6.2c0-2.4,1.7-4.3,4.5-4.3
		c1.2,0,2.4,0.3,3.4,1L13,10.1c-0.5-0.4-1.4-0.9-2.2-0.9c-0.9,0-1.3,0.6-1.3,1.2c0,2.1,4.8,2,4.8,6.1c0,2.3-1.5,4.4-4.4,4.4
		c-1.4,0-2.9-0.5-4-1.4L7.3,16.7z"/>
	<path class="st1" d="M16.3,6.4h3.2l1.2,8.9c0.1,0.7,0.1,1.6,0.1,1.6h0.1c0,0,0-0.9,0.1-1.6l1.3-8.9h3.1l1.3,8.9
		c0.1,0.7,0.1,1.6,0.1,1.6h0.1c0,0,0-0.9,0.1-1.6l1.2-8.9h3.2l-2.5,14.3h-3.7L24,13.5c-0.1-0.9-0.2-1.7-0.2-1.7h-0.1
		c0,0,0,0.8-0.1,1.7l-1.1,7.2h-3.8L16.3,6.4z"/>
	<path class="st1" d="M34,6.4h7.1v2.9h-3.8v3.1h3.1v2.9h-3.1v5.4H34V6.4z"/>
</g>
<g transform="translate(0,-952.36218)">
	<path class="st0" d="M35.8,1000.4c-9.7,0-17.5,7.8-17.5,17.5c0,9.7,7.8,17.5,17.5,17.5s17.5-7.8,17.5-17.5
		C53.2,1008.2,45.4,1000.4,35.8,1000.4z M39,1004.5l-2.8,10.6h7.4l-11.1,16.1l2.8-10.6h-7.4L39,1004.5z"/>
</g>
</svg>
