<?xml version="1.0" encoding="utf-8"?>
<!-- Generator: Adobe Illustrator 21.1.0, SVG Export Plug-In . SVG Version: 6.00 Build 0)  -->
<svg version="1.1" id="Layer_1" xmlns="http://www.w3.org/2000/svg" xmlns:xlink="http://www.w3.org/1999/xlink" x="0px" y="0px"
	 viewBox="0 0 72 96" style="enable-background:new 0 0 72 96;" xml:space="preserve">
<style type="text/css">
	.st0{fill:#FF6633;}
	.st1{fill:#FFFFFF;}
	.st2{fill:#FFFFFF;stroke:#FFFFFF;stroke-width:0.25;stroke-miterlimit:10;}
	.st3{fill:#FA2A22;}
</style>
<g>
	<path class="st0" d="M0,2l0,92c0,1.1,0.9,2,2,2h68c1.1,0,2-0.9,2-2V28H50c-1.1,0-2-0.9-2-2V0L2,0C0.9,0,0,0.9,0,2z"/>
	<path class="st0" d="M71.9,24c-0.1-0.4-0.2-0.7-0.4-1L52,1.2V24H71.9z"/>
</g>
<rect x="6" y="41" class="st1" width="60" height="49"/>
<g>
	<path class="st2" d="M6.8,17.5c0.5,0.7,1.2,1.2,2,1.2c0.9,0,1.4-0.7,1.4-1.8c0-2.6-4.1-2.5-4.1-6.6c0-2.3,1.3-4,3.5-4
		c0.9,0,1.8,0.3,2.6,0.9l-0.7,2.2c-0.4-0.4-1.2-0.8-1.8-0.8c-1,0-1.5,0.8-1.5,1.7c0,2.6,4.1,2.4,4.1,6.5c0,2.2-1.1,4.1-3.4,4.1
		c-1.1,0-2.2-0.5-3-1.4L6.8,17.5z"/>
	<path class="st2" d="M13,6.5h2l1.3,9.8c0.1,0.7,0.1,1.6,0.1,1.6h0.1c0,0,0-0.9,0.1-1.6l1.4-9.8h1.9l1.3,9.8
		c0.1,0.7,0.1,1.6,0.1,1.6h0.1c0,0,0-0.9,0.1-1.6l1.3-9.8h2l-2.1,14.2h-2.3l-1.2-8.4c-0.1-0.9-0.2-1.9-0.2-1.9h-0.1
		c0,0,0,0.9-0.2,1.9l-1.2,8.4h-2.3L13,6.5z"/>
	<path class="st2" d="M26,6.5h2v14.2h-2V6.5z"/>
	<path class="st2" d="M30.1,6.5h5.4v2.2h-3.4v4.1h2.8v2.2h-2.8v5.8h-2V6.5z"/>
	<path class="st2" d="M38.8,8.7H36V6.5h7.6v2.2h-2.8v12h-2V8.7z"/>
</g>
<g>
	<path class="st3" d="M55.3,49.1c-0.2-0.1-0.7-0.2-1.3-0.2c-0.2,0-0.5,0-0.8,0c-1.1,0.1-2,0.3-3.1,1.1c-0.3,0.2-0.6,0.6-0.8,0.8
		c-0.1,0.1-0.2,0.3-0.4,0.1c-0.3-0.4-0.7-1.2-1.4-1.8C47,48.7,46,48,44.1,48c-0.3,0-0.5,0-0.8,0c-2.3,0.2-6,1.2-8.6,2
		c-2.3,0.7-12.2,4-12.3,4c0,0-0.8,0.3-0.7,0.7c0.1,0.3,0.7,0.3,0.9,0.2c1.2-0.2,11.8-1.4,14.1-1.5c1.6-0.1,2.4,0.4,2.6,1.3
		c0.1,0.6-0.8,3.8-1.8,5.1c-0.6,0.3-4.5,2.3-6.2,3c-0.3,0.1-1.1,0.5-2,0.9C24.8,65.6,16,69.4,15,69.9c-0.6,0.3-0.7,1.2-0.5,1.2
		c0.5-0.2,1.1-0.4,1.3-0.5c1-0.4,10.5-4.1,13-4.8c1.7-0.4,2.9-0.7,3.7-0.7c0.1,0,0.6,0,0.7,0.4c0.2,0.6-0.5,1.6-1.1,2.4
		c-0.1,0.1-0.1,0.2-0.2,0.3c-0.7,1.1-2.7,3.9-3.6,5c-1,1.1-7.3,8.6-7.4,8.8c-0.1,0.2,0.6,0.1,0.6,0.1c0.2-0.1,0.9-0.2,1.3-0.8
		c0.5-0.7,14.5-15,15.7-16.1c0.5-0.4,1.8-1.3,3-1.1c1.4,0.1,2.7,1.5,2.7,3c0,0.9-0.1,2.1-0.4,3.8c-0.4,2-0.6,2.8-1.1,5.1
		c-0.1,0.4-0.2,0.9-0.4,1.5c-0.2,0.6-0.3,1.3-0.5,2c-1,4-1,4.4-0.8,4.6c0.1,0.1,0.4,0,1-0.8c0.3-0.4,0.9-1.1,1.6-1.9
		c1.2-1.5,2.9-3.7,4.5-6.1c2-2.9,5.5-10.6,5.9-12.2c0.1-0.5,0.9-2.9,0.3-3.9c-0.1-0.1-1-1.1-0.9-1.6c0-0.5,0.4-1.2,0.9-1.9
		c0.4-0.6,0.9-1.4,1.2-2.3c0.6-1.4,0.6-2.5,0.7-3l0.4-1.6L55.3,49.1z"/>
	<path class="st3" d="M55.4,50.4c0,0-0.6,2.3-1.5,3.5c-0.9,1.2-3.9,4.1-2.4,5.1c1.5,1,2.3,0.9,1.4,4.2c-0.9,3.3-4.2,9.3-4.8,10.3
		c-1.4,2.3-4.5,4.4-4.3,1.5c0.1-1.5,0.4-2.4,0.7-4.1c0.3-1.7,0.5-3,0.5-3.9c0-1.4-1.5-3.8-1.7-4c-0.2-0.2-0.5-0.6-1-0.6
		c-1.4-0.1-3.5,1.9-4,2.3c-0.3,0.2-1.2,1.1-2.4,2.3c-1.2,1-3,2.5-3.5,2.8c-0.7,0.5-1.3,1.4-0.1-0.7c0.1-0.1,0.5-0.8,0.6-0.9
		c0.7-1.1,1.4-2.2,1.1-3.1c-0.1-0.4-0.6-0.7-1.3-0.7c-0.9,0-2.1,0.3-3.8,0.7c-0.8,0.2-4.1,1.3-4.1,1.2c0-0.2,3.7-1.7,4.8-2.1
		c1-0.4,1.7-0.7,2.1-0.9c1.8-0.8,6.2-3,6.3-3l0.1,0l0-0.1c1.3-1.7,2-5.1,1.9-5.6c-0.1-0.8-0.7-1.8-2.8-1.8c-0.1,0-0.3,0-0.4,0
		c-0.7,0-2,0.1-3.5,0.3c-2.2,0.1-5,0.2-5.3-0.1c0,0,0-0.1,0.1-0.2c2.7-0.9,5.7-1.9,6.9-2.2c1.6-0.5,3.5-1,5.2-1.4
		c2.9-0.6,4.6-0.5,5.5-0.3c2.2,0.7,2.1,2.7,2.5,3.2c0.6,0.7,1.4-0.5,1.9-1c0.4-0.4,0.8-0.7,1.2-1c1-0.7,2.7-0.7,2.9-0.7
		c0.7,0,1.2,0.2,1.2,0.2l0.1,0l0.5-0.1L55.4,50.4z"/>
</g>
</svg>
