<?xml version="1.0" encoding="utf-8"?>
<!-- Generator: Adobe Illustrator 21.1.0, SVG Export Plug-In . SVG Version: 6.00 Build 0)  -->
<svg version="1.1" id="Layer_1" xmlns="http://www.w3.org/2000/svg" xmlns:xlink="http://www.w3.org/1999/xlink" x="0px" y="0px"
	 viewBox="0 0 72 96" style="enable-background:new 0 0 72 96;" xml:space="preserve">
<style type="text/css">
	.st0{fill:#CCCCCC;}
	.st1{fill:#333333;}
	.st2{fill:#999999;}
</style>
<path class="st0" d="M0,2l0,92c0,1.1,0.9,2,2,2h68c1.1,0,2-0.9,2-2V28H50c-1.1,0-2-0.9-2-2V0L2,0C0.9,0,0,0.9,0,2z"/>
<path class="st0" d="M71.9,24c-0.1-0.4-0.2-0.7-0.4-1L52,1.2V24H71.9z"/>
<g>
	<path class="st1" d="M10.2,73.3H7.9v-2.9h7.2v2.9h-2.4v11.4h-2.4V73.3z"/>
	<path class="st1" d="M19.6,70.2c2.8,0,4.4,3.1,4.4,7.3c0,4.2-1.6,7.5-4.4,7.5s-4.4-3.2-4.4-7.5C15.2,73.3,16.8,70.2,19.6,70.2z
		 M19.6,81.8c1.3,0,1.8-1.8,1.8-4.3c0-2.5-0.6-4.2-1.8-4.2s-1.9,1.7-1.9,4.2C17.8,80,18.3,81.8,19.6,81.8z"/>
	<path class="st1" d="M25.4,70.4h3.4c0.4,0,1,0.1,1.4,0.4c1.1,0.6,1.8,2.1,1.8,4c0,1.7-0.6,3.3-1.5,4v0c0,0,0.1,0.2,0.4,0.9l1.7,5
		h-2.7l-1.5-4.8h-0.6v4.8h-2.5V70.4z M28.3,77c0.6,0,1.2-0.7,1.2-1.9c0-0.7-0.2-1.2-0.4-1.5c-0.2-0.2-0.5-0.3-0.6-0.3h-0.6V77H28.3z
		"/>
	<path class="st1" d="M33.6,70.4H37c0.4,0,1,0.1,1.4,0.4c1.1,0.6,1.8,2.1,1.8,4c0,1.7-0.6,3.3-1.5,4v0c0,0,0.1,0.2,0.4,0.9l1.7,5
		h-2.7l-1.5-4.8H36v4.8h-2.5V70.4z M36.5,77c0.6,0,1.2-0.7,1.2-1.9c0-0.7-0.2-1.2-0.4-1.5c-0.2-0.2-0.5-0.3-0.6-0.3H36V77H36.5z"/>
	<path class="st1" d="M41.8,70.4h5.4v2.9h-2.9V76h2.3v2.9h-2.3v2.9h3.1v2.9h-5.5V70.4z"/>
	<path class="st1" d="M48.6,70.4h2.6l1.8,6.6c0.3,1,0.5,2.4,0.5,2.4h0.1c0,0-0.1-1.5-0.1-2.4v-6.6h2.3v14.3h-2.6l-1.8-6.6
		c-0.3-1-0.5-2.4-0.5-2.4h-0.1c0,0,0.1,1.5,0.1,2.4v6.6h-2.3V70.4z"/>
	<path class="st1" d="M59.3,73.3h-2.4v-2.9h7.2v2.9h-2.4v11.4h-2.4V73.3z"/>
</g>
<path class="st2" d="M0,94L0,2c0-1.1,0.9-2,2-2l48,0c0.6,0,1.1,0.2,1.5,0.7l20,22.3c0.3,0.4,0.5,0.8,0.5,1.3V94c0,1.1-0.9,2-2,2H2
	C0.9,96,0,95.1,0,94z M68,25.1L49.1,4H4v88h64V25.1z"/>
<path class="st2" d="M48,26V4c0-1.1,0.9-2,2-2s2,0.9,2,2v20h16c1.1,0,2,0.9,2,2s-0.9,2-2,2H50C48.9,28,48,27.1,48,26z"/>
<g>
	<path class="st2" d="M54,56.8c-0.2,0.9-0.8,1.5-1.5,2.2c-9.2,9.6-25.1,7.8-31.8-3.7c-1.8-3.1-2.8-6.3-2.7-9.9
		c0.2-4.5,1.7-8.4,4.5-11.9c3.3-4.2,7.5-7,12.9-7.9c1.3-0.2,2.6-0.3,3.9-0.5c0,1.3,0,2.5,0,3.7c-0.9,0.1-1.8,0.2-2.7,0.3
		C29,30.2,22.6,36.6,22.1,44c-0.3,4.6,0.9,8.8,4,12.3c1.2,1.5,2.6,2.8,4.3,3.6c0.5,0.2,1.1,0.3,1.6,0.4c-4.8-2.8-7.6-7-8.5-12.4
		c-0.6-3.6,0.1-7.1,2.1-10.2c5.1-7.9,14-9.2,20.1-6.6c-0.5,1.1-1,2.2-1.5,3.2c-1.2-0.2-2.4-0.6-3.6-0.6c-3.5-0.2-6.6,0.6-9.2,3.1
		c-6.6,6.1-4.9,15.5,1.5,19.7c2,1.4,4.2,2.4,6.6,2.9c0.6,0.2,1.2,0,1.9-0.1c-0.1-0.1-0.2-0.1-0.3-0.1c-3-0.6-5.8-1.6-8.2-3.7
		c-2.4-2.1-4.2-4.7-4.5-8c-0.3-4.7,1.5-8.5,5.5-10.9c3.5-2.2,7.2-2.2,10.9-0.4c2.1,1,3.6,2.6,4.8,4.6c-1.1,0.6-2.1,1.1-3.1,1.6
		c-0.9-0.9-1.7-1.9-2.7-2.5c-4.7-3.2-11.3-0.2-11.8,5.7c-0.2,2.9,1,5.1,3,7.1c2.4,2.2,5.3,3,8.5,3.4c3.1,0.4,6.2,0.3,9.3-0.1
		c0.6-0.1,0.9,0.3,1.1,0.8C54,56.7,54,56.8,54,56.8z"/>
</g>
</svg>
