<?xml version="1.0" encoding="utf-8"?>
<!-- Generator: Adobe Illustrator 21.1.0, SVG Export Plug-In . SVG Version: 6.00 Build 0)  -->
<svg version="1.1" id="Layer_1" xmlns="http://www.w3.org/2000/svg" xmlns:xlink="http://www.w3.org/1999/xlink" x="0px" y="0px"
	 viewBox="0 0 72 96" style="enable-background:new 0 0 72 96;" xml:space="preserve">
<style type="text/css">
	.st0{fill:#1F7244;}
	.st1{fill:#FFFFFF;}
	.st2{fill:none;stroke:#1F7244;stroke-width:3;stroke-miterlimit:10;}
</style>
<g>
	<path class="st0" d="M0,2l0,92c0,1.1,0.9,2,2,2h68c1.1,0,2-0.9,2-2V28H50c-1.1,0-2-0.9-2-2V0L2,0C0.9,0,0,0.9,0,2z"/>
	<path class="st0" d="M71.9,24c-0.1-0.4-0.2-0.7-0.4-1L52,1.2V24H71.9z"/>
</g>
<rect x="6" y="41" class="st1" width="60" height="49"/>
<g>
	<path class="st1" d="M8.9,9.3H5.7V6.4h9.6v2.9h-3.2v11.4H8.9V9.3z"/>
	<path class="st1" d="M18.8,16.7c0.6,0.6,1.4,1.2,2.3,1.2c0.9,0,1.3-0.6,1.3-1.2c0-2-4.8-2.1-4.8-6.2c0-2.4,1.7-4.3,4.5-4.3
		c1.2,0,2.4,0.3,3.4,1l-1.2,2.9c-0.5-0.4-1.4-0.9-2.2-0.9c-0.9,0-1.3,0.6-1.3,1.2c0,2.1,4.8,2,4.8,6.1c0,2.3-1.5,4.4-4.4,4.4
		c-1.4,0-2.9-0.5-4-1.4L18.8,16.7z"/>
	<path class="st1" d="M27.5,6.4h3.6l1.6,8.1c0.2,0.9,0.3,2.3,0.3,2.3h0.1c0,0,0.2-1.4,0.3-2.3l1.7-8.1h3.5l-3.9,14.3h-3.3L27.5,6.4z
		"/>
</g>
<g>
	<g>
		<line class="st2" x1="14" y1="54" x2="22.5" y2="54"/>
		<line class="st2" x1="25.8" y1="54" x2="34.3" y2="54"/>
		<line class="st2" x1="37.7" y1="54" x2="46.2" y2="54"/>
		<line class="st2" x1="49.5" y1="54" x2="58" y2="54"/>
	</g>
	<g>
		<line class="st2" x1="14" y1="59.9" x2="22.5" y2="59.9"/>
		<line class="st2" x1="25.8" y1="59.9" x2="34.3" y2="59.9"/>
		<line class="st2" x1="37.7" y1="59.9" x2="46.2" y2="59.9"/>
		<line class="st2" x1="49.5" y1="59.9" x2="58" y2="59.9"/>
	</g>
	<g>
		<line class="st2" x1="14" y1="65.8" x2="22.5" y2="65.8"/>
		<line class="st2" x1="25.8" y1="65.8" x2="34.3" y2="65.8"/>
		<line class="st2" x1="37.7" y1="65.8" x2="46.2" y2="65.8"/>
		<line class="st2" x1="49.5" y1="65.8" x2="58" y2="65.8"/>
	</g>
	<g>
		<line class="st2" x1="14" y1="71.7" x2="22.5" y2="71.7"/>
		<line class="st2" x1="25.8" y1="71.7" x2="34.3" y2="71.7"/>
		<line class="st2" x1="37.7" y1="71.7" x2="46.2" y2="71.7"/>
		<line class="st2" x1="49.5" y1="71.7" x2="58" y2="71.7"/>
	</g>
	<g>
		<line class="st2" x1="14" y1="77.6" x2="22.5" y2="77.6"/>
		<line class="st2" x1="25.8" y1="77.6" x2="34.3" y2="77.6"/>
		<line class="st2" x1="37.7" y1="77.6" x2="46.2" y2="77.6"/>
		<line class="st2" x1="49.5" y1="77.6" x2="58" y2="77.6"/>
	</g>
</g>
</svg>
