<?xml version="1.0" encoding="utf-8"?>
<!-- Generator: Adobe Illustrator 21.1.0, SVG Export Plug-In . SVG Version: 6.00 Build 0)  -->
<svg version="1.1" id="Layer_1" xmlns="http://www.w3.org/2000/svg" xmlns:xlink="http://www.w3.org/1999/xlink" x="0px" y="0px"
	 viewBox="0 0 72 96" style="enable-background:new 0 0 72 96;" xml:space="preserve">
<style type="text/css">
	.st0{fill:#36454D;}
	.st1{fill:#FFFFFF;}
	.st2{enable-background:new    ;}
	.st3{fill:#7291A1;}
</style>
<g>
	<path class="st0" d="M0,2l0,92c0,1.1,0.9,2,2,2h68c1.1,0,2-0.9,2-2V28H50c-1.1,0-2-0.9-2-2V0L2,0C0.9,0,0,0.9,0,2z"/>
	<path class="st0" d="M71.9,24c-0.1-0.4-0.2-0.7-0.4-1L52,1.2V24H71.9z"/>
</g>
<rect x="6" y="41" class="st1" width="60" height="49"/>
<g>
	<path class="st1" d="M8.9,9.3H5.7V6.4h9.6v2.9h-3.2v11.4H8.9V9.3z"/>
	<path class="st1" d="M20.3,9.3h-3.1V6.4h9.6v2.9h-3.2v11.4h-3.3V9.3z"/>
	<path class="st1" d="M29.5,6.4h7.1v2.9h-3.8v3.1h3.1v2.9h-3.1v5.4h-3.3V6.4z"/>
</g>
<g class="st2">
	<path class="st3" d="M42.4,47v7.9h-0.8c-0.5-1.8-1-3.1-1.5-3.9s-1.3-1.4-2.3-1.9c-0.5-0.3-1.5-0.4-2.9-0.4h-2.2v22.5
		c0,1.5,0.1,2.4,0.2,2.8c0.2,0.4,0.5,0.7,1,1c0.5,0.3,1.1,0.4,2,0.4h1v0.8H21.7v-0.8h1c0.8,0,1.5-0.2,2-0.5c0.4-0.2,0.7-0.5,0.9-1
		c0.2-0.3,0.2-1.2,0.2-2.7V48.7h-2.1c-2,0-3.4,0.4-4.3,1.2c-1.2,1.2-2,2.8-2.4,5h-0.8V47H42.4z"/>
</g>
<g class="st2">
	<path class="st0" d="M55.6,55.6v7.9h-0.8c-0.5-1.8-1-3.1-1.5-3.9s-1.3-1.4-2.3-1.9c-0.5-0.3-1.5-0.4-2.9-0.4h-2.2v22.5
		c0,1.5,0.1,2.4,0.2,2.8c0.2,0.4,0.5,0.7,1,1s1.1,0.4,2,0.4h1v0.8H34.8V84h1c0.8,0,1.5-0.2,2-0.5c0.4-0.2,0.7-0.5,0.9-1
		c0.2-0.3,0.2-1.2,0.2-2.7V57.3h-2.1c-2,0-3.4,0.4-4.3,1.2c-1.2,1.2-2,2.8-2.4,5h-0.8v-7.9H55.6z"/>
</g>
</svg>
