<?xml version="1.0" encoding="utf-8"?>
<!-- Generator: Adobe Illustrator 21.1.0, SVG Export Plug-In . SVG Version: 6.00 Build 0)  -->
<svg version="1.1" id="Layer_1" xmlns="http://www.w3.org/2000/svg" xmlns:xlink="http://www.w3.org/1999/xlink" x="0px" y="0px"
	 viewBox="0 0 72 96" style="enable-background:new 0 0 72 96;" xml:space="preserve">
<style type="text/css">
	.st0{fill:#666666;}
	.st1{fill:#FFFFFF;}
</style>
<g>
	<path class="st0" d="M0,2l0,92c0,1.1,0.9,2,2,2h68c1.1,0,2-0.9,2-2V28H50c-1.1,0-2-0.9-2-2V0L2,0C0.9,0,0,0.9,0,2z"/>
	<path class="st0" d="M71.9,24c-0.1-0.4-0.2-0.7-0.4-1L52,1.2V24H71.9z"/>
</g>
<rect x="6" y="41" class="st1" width="60" height="49"/>
<g>
	<path class="st1" d="M8.9,9.3H5.7V6.4h9.6v2.9h-3.2v11.4H8.9V9.3z"/>
	<path class="st1" d="M20.4,13.6L17,6.4h3.6l1.1,2.9c0.3,0.9,0.6,1.8,0.6,1.8h0c0,0,0.2-0.9,0.6-1.8l1.2-2.9h3.6l-3.4,7.2l3.3,7.1
		H24l-1.1-3c-0.4-0.9-0.6-1.7-0.6-1.7h0c0,0-0.2,0.8-0.6,1.7l-1.1,3h-3.5L20.4,13.6z"/>
	<path class="st1" d="M32.5,9.3h-3.1V6.4h9.6v2.9h-3.2v11.4h-3.3V9.3z"/>
</g>
<g>
	<rect x="14.6" y="77.2" class="st0" width="42.8" height="6.2"/>
	<rect x="14.6" y="62.4" class="st0" width="42.8" height="6.2"/>
	<rect x="14.6" y="47.4" class="st0" width="42.8" height="6.2"/>
</g>
</svg>
