<?xml version="1.0" encoding="utf-8"?>
<!-- Generator: Adobe Illustrator 21.1.0, SVG Export Plug-In . SVG Version: 6.00 Build 0)  -->
<svg version="1.1" id="Layer_1" xmlns="http://www.w3.org/2000/svg" xmlns:xlink="http://www.w3.org/1999/xlink" x="0px" y="0px"
	 viewBox="0 0 72 96" style="enable-background:new 0 0 72 96;" xml:space="preserve">
<style type="text/css">
	.st0{fill:#CCCCCC;}
	.st1{fill:#999999;}
	.st2{fill:#333333;}
</style>
<path class="st0" d="M0,2l0,92c0,1.1,0.9,2,2,2h68c1.1,0,2-0.9,2-2V28H50c-1.1,0-2-0.9-2-2V0L2,0C0.9,0,0,0.9,0,2z"/>
<path class="st1" d="M28.3,44.7c-1.3,1-2.5,1.9-3.7,2.8c-2.5,1.9-4.9,3.7-7.4,5.6c-0.3,0.3-0.6,0.3-0.9,0.1c-0.5-0.3-1-0.5-1.6-0.8
	c-0.3-0.1-0.4-0.4-0.4-0.7c0-6.5,0-13,0-19.5c0-0.2,0.2-0.5,0.4-0.6c0.6-0.3,1.2-0.6,1.7-0.9c0.3-0.2,0.6,0,0.8,0.2
	c2,1.6,4.1,3.1,6.1,4.6c1.7,1.3,3.3,2.5,5,3.8c0.1-0.1,0.2-0.2,0.3-0.3c6.1-5.9,12.1-11.8,18.2-17.7c0.3-0.3,0.6-0.3,1-0.2
	c2.6,1,5.1,2.1,7.7,3.1c0.2,0.1,0.3,0.3,0.4,0.5c0.1,0.1,0,0.3,0,0.5c0,11.2,0,22.4,0,33.6c0,0.8,0,0.8-0.8,1.1
	c-2.4,1-4.9,1.9-7.3,2.9c-0.4,0.2-0.7,0.1-1-0.2c-6-5.9-12-11.7-18-17.5C28.7,45,28.5,44.9,28.3,44.7z M45.8,50c0-5.4,0-10.7,0-16
	c-3.6,2.7-7.1,5.3-10.7,8C38.7,44.7,42.2,47.3,45.8,50z M23.4,42c-1.8-1.6-3.5-3.2-5.3-4.8c0,3.2,0,6.4,0,9.6
	C19.9,45.2,21.6,43.6,23.4,42z"/>
<path class="st0" d="M71.9,24c-0.1-0.4-0.2-0.7-0.4-1L52,1.2V24H71.9z"/>
<g>
	<path class="st2" d="M7.1,70.4h3l1.4,8.1c0.2,0.9,0.3,2.3,0.3,2.3h0.1c0,0,0.1-1.4,0.3-2.3l1.4-8.1h3l-3.3,14.3h-2.8L7.1,70.4z"/>
	<path class="st2" d="M17.7,70.4h3.6c2.1,0,3.6,1.3,3.6,3.7c0,1.2-0.4,2.4-1.4,3v0c1.4,0.5,1.8,1.9,1.8,3.2c0,3.1-1.7,4.3-3.8,4.3
		h-3.7V70.4z M21.3,76c0.5,0,0.7-0.6,0.7-1.4c0-0.7-0.3-1.3-0.8-1.3h-0.7V76H21.3z M21.4,81.8c0.7,0,1-0.7,1-1.6
		c0-0.9-0.3-1.5-0.9-1.5h-1v3.1H21.4z"/>
	<path class="st2" d="M27,70.4h3.8c2.2,0,3.7,2,3.7,4.9s-1.5,5-3.7,5h-1v4.4H27V70.4z M30.3,77.4c0.9,0,1.4-0.9,1.4-2.1
		c0-1.2-0.6-2-1.3-2h-0.6v4.1H30.3z"/>
	<path class="st2" d="M36.2,70.4H40c0.5,0,1.1,0.1,1.6,0.4c1.2,0.6,2,2.1,2,4c0,1.7-0.7,3.3-1.7,4v0c0,0,0.2,0.2,0.4,0.9l2,5h-3.1
		l-1.7-4.8H39v4.8h-2.8V70.4z M39.5,77c0.7,0,1.3-0.7,1.3-1.9c0-0.7-0.2-1.2-0.5-1.5c-0.2-0.2-0.5-0.3-0.7-0.3H39V77H39.5z"/>
	<path class="st2" d="M50.2,70.2c3.2,0,5,3.1,5,7.3c0,4.2-1.8,7.5-5,7.5c-3.2,0-5-3.2-5-7.5C45.2,73.3,47,70.2,50.2,70.2z
		 M50.2,81.8c1.4,0,2.1-1.8,2.1-4.3c0-2.5-0.6-4.2-2.1-4.2c-1.4,0-2.1,1.7-2.1,4.2C48.1,80,48.7,81.8,50.2,81.8z"/>
	<path class="st2" d="M56.2,79.3H59v1.1c0,1.5,0.3,1.6,0.6,1.6c0.4,0,0.6-0.3,0.6-1.6v-7h-2.3v-2.9H63v9.9c0,3.3-1.7,4.6-3.4,4.6
		c-1.8,0-3.4-1.4-3.4-4.6V79.3z"/>
</g>
<path class="st1" d="M0,94L0,2c0-1.1,0.9-2,2-2l48,0c0.6,0,1.1,0.2,1.5,0.7l20,22.3c0.3,0.4,0.5,0.8,0.5,1.3V94c0,1.1-0.9,2-2,2H2
	C0.9,96,0,95.1,0,94z M68,25.1L49.1,4H4v88h64V25.1z"/>
<path class="st1" d="M48,26V4c0-1.1,0.9-2,2-2s2,0.9,2,2v20h16c1.1,0,2,0.9,2,2s-0.9,2-2,2H50C48.9,28,48,27.1,48,26z"/>
</svg>
