<?xml version="1.0" encoding="utf-8"?>
<!-- Generator: Adobe Illustrator 21.1.0, SVG Export Plug-In . SVG Version: 6.00 Build 0)  -->
<svg version="1.1" id="Layer_1" xmlns="http://www.w3.org/2000/svg" xmlns:xlink="http://www.w3.org/1999/xlink" x="0px" y="0px"
	 viewBox="0 0 72 96" style="enable-background:new 0 0 72 96;" xml:space="preserve">
<style type="text/css">
	.st0{fill:#C11E07;}
	.st1{fill:#FFFFFF;}
	.st2{fill:#111111;}
</style>
<g>
	<path class="st0" d="M0,2l0,92c0,1.1,0.9,2,2,2h68c1.1,0,2-0.9,2-2V28H50c-1.1,0-2-0.9-2-2V0L2,0C0.9,0,0,0.9,0,2z"/>
	<path class="st0" d="M71.9,24c-0.1-0.4-0.2-0.7-0.4-1L52,1.2V24H71.9z"/>
</g>
<rect x="6" y="41" class="st1" width="60" height="49"/>
<g>
	<path class="st1" d="M5.4,6.4h3.6l1.6,8.1c0.2,0.9,0.3,2.3,0.3,2.3H11c0,0,0.2-1.4,0.3-2.3L13,6.4h3.5l-3.9,14.3H9.3L5.4,6.4z"/>
	<path class="st1" d="M24.5,6.1c1.3,0,2.6,0.4,3.6,1.2l-1.4,2.8c-0.4-0.5-1.3-0.9-2.1-0.9c-2.1,0-3.2,1.9-3.2,4.2
		c0,2.3,1.2,4.4,3.2,4.4c1,0,1.7-0.5,2.3-1l1.4,2.8c-0.9,0.7-2,1.3-3.9,1.3c-4,0-6.3-3.1-6.3-7.4C18.1,9.3,20.5,6.1,24.5,6.1z"/>
	<path class="st1" d="M31.8,16.7c0.6,0.6,1.4,1.2,2.3,1.2c0.9,0,1.3-0.6,1.3-1.2c0-2-4.8-2.1-4.8-6.2c0-2.4,1.7-4.3,4.5-4.3
		c1.2,0,2.4,0.3,3.4,1l-1.2,2.9c-0.5-0.4-1.4-0.9-2.2-0.9c-0.9,0-1.3,0.6-1.3,1.2c0,2.1,4.8,2,4.8,6.1c0,2.3-1.5,4.4-4.4,4.4
		c-1.4,0-2.9-0.5-4-1.4L31.8,16.7z"/>
</g>
<g id="Layer_1_1_">
	<g>
		<path class="st2" d="M52.4,81.3H19.6c-3.4,0-6.1-2.8-6.1-6.1V54.7c0-3.4,2.8-6.1,6.1-6.1h32.7c3.4,0,6.1,2.8,6.1,6.1v20.5
			C58.5,78.5,55.7,81.3,52.4,81.3z M19.6,52.6c-1.1,0-2,0.9-2,2v20.5c0,1.1,0.9,2,2,2h32.7c1.1,0,2-0.9,2-2V54.7c0-1.1-0.9-2-2-2
			H19.6z"/>
	</g>
	<g>
		<path class="st2" d="M31.9,71h-8.2c-1.1,0-2-0.9-2-2s0.9-2,2-2h8.2c1.1,0,2,0.9,2,2S33,71,31.9,71z"/>
	</g>
	<g>
		<path class="st2" d="M31.9,62.9h-8.2c-1.1,0-2-0.9-2-2c0-1.1,0.9-2,2-2h8.2c1.1,0,2,0.9,2,2C34,61.9,33,62.9,31.9,62.9z"/>
	</g>
	<g>
		<circle class="st2" cx="44.2" cy="61.8" r="4.1"/>
	</g>
	<g>
		<g>
			<path class="st2" d="M44.2,67.7c-3.2,0-5.1,1.5-5.1,2.9c0,0.7,1.9,1.5,5.1,1.5c3,0,5.1-0.7,5.1-1.5
				C49.3,69.1,47.3,67.7,44.2,67.7z"/>
		</g>
	</g>
</g>
</svg>
