<?xml version="1.0" encoding="utf-8"?>
<!-- Generator: Adobe Illustrator 21.1.0, SVG Export Plug-In . SVG Version: 6.00 Build 0)  -->
<svg version="1.1" id="Layer_1" xmlns="http://www.w3.org/2000/svg" xmlns:xlink="http://www.w3.org/1999/xlink" x="0px" y="0px"
	 viewBox="0 0 72 96" style="enable-background:new 0 0 72 96;" xml:space="preserve">
<style type="text/css">
	.st0{fill:#4D1B9B;}
	.st1{fill:#FFFFFF;}
</style>
<g>
	<path class="st0" d="M0,2l0,92c0,1.1,0.9,2,2,2h68c1.1,0,2-0.9,2-2V28H50c-1.1,0-2-0.9-2-2V0L2,0C0.9,0,0,0.9,0,2z"/>
	<path class="st0" d="M71.9,24c-0.1-0.4-0.2-0.7-0.4-1L52,1.2V24H71.9z"/>
</g>
<rect x="6" y="41" class="st1" width="60" height="49"/>
<g>
	<path class="st1" d="M5.7,6.5h1.8l1.2,9.8c0.1,0.7,0.1,1.6,0.1,1.6h0.1c0,0,0-0.9,0.1-1.6l1.3-9.8H12l1.2,9.8
		c0.1,0.7,0.1,1.6,0.1,1.6h0.1c0,0,0-0.9,0.1-1.6l1.2-9.8h1.8l-1.9,14.2h-2.1l-1.1-8.4c-0.1-0.9-0.1-1.9-0.1-1.9h-0.1
		c0,0,0,0.9-0.2,1.9l-1.1,8.4H7.7L5.7,6.5z"/>
	<path class="st1" d="M18,6.5h2l1.4,6.9c0.2,0.9,0.3,2.2,0.3,2.2h0c0,0,0.2-1.3,0.3-2.2l1.4-6.9h2l0.7,14.2h-1.7l-0.4-7.9
		c0-0.9,0-2.2,0-2.2h0c0,0-0.2,1.4-0.4,2.3l-1.1,5.4h-1.8l-1.1-5.4c-0.2-0.8-0.3-2.3-0.3-2.3h-0.1c0,0,0.1,1.3,0,2.2L19,20.7h-1.7
		L18,6.5z"/>
	<path class="st1" d="M27.9,6.5h3c2.6,0,4.3,2.6,4.3,7.1s-1.7,7.1-4.3,7.1h-3V6.5z M30.7,18.5c1.6,0,2.5-1.7,2.5-4.9
		c0-3.2-0.9-4.9-2.5-4.9h-1v9.8H30.7z"/>
	<path class="st1" d="M36.6,6.5h1.8v5.8h0.8l1.9-5.8h2l-2.3,6.8v0l2.4,7.4h-2.1l-2-6.2h-0.8v6.2h-1.8V6.5z"/>
</g>
<g>
	<path class="st0" d="M56.5,76.6c0-1.6-1.3-2.9-2.9-2.9H17.7c-1.6,0-2.9,1.3-2.9,2.9v4.1c0,1.6,1.3,2.9,2.9,2.9h35.9
		c1.6,0,2.9-1.3,2.9-2.9V76.6z M41,80.4c-0.9,0-1.7-0.7-1.7-1.7S40.1,77,41,77s1.7,0.7,1.7,1.7S42,80.4,41,80.4z M46.1,80.4
		c-0.9,0-1.7-0.7-1.7-1.7s0.7-1.7,1.7-1.7c0.9,0,1.7,0.7,1.7,1.7S47,80.4,46.1,80.4z M51.1,80.4c-0.9,0-1.7-0.7-1.7-1.7
		s0.7-1.7,1.7-1.7c0.9,0,1.7,0.7,1.7,1.7S52,80.4,51.1,80.4z"/>
	<path class="st0" d="M17.7,72h35.9c0.8,0,1.6,0.2,2.2,0.6l-3.5-7.3c-1-2.1-2.6-2.9-4.2-2.9h-3.9l-5.6,5.8c-0.4,0.4-0.9,0.7-1.4,0.9
		c-0.5,0.2-1.1,0.3-1.6,0.3c-0.6,0-1.1-0.1-1.6-0.3l-0.1,0l-0.1,0c-0.4-0.2-0.8-0.5-1.2-0.8l0,0l0,0L27,62.3h-3.9
		c-1.6,0-3.1,0.9-4.2,2.9l-3.5,7.3C16.1,72.2,16.8,72,17.7,72z"/>
	<path class="st0" d="M44,59.6c0.2-0.2,0.3-0.4,0.5-0.7c0.1-0.3,0.2-0.5,0.2-0.9c0-0.3-0.1-0.6-0.2-0.8c-0.1-0.3-0.3-0.5-0.5-0.7
		c-0.2-0.2-0.5-0.4-0.7-0.5c-0.2-0.1-0.5-0.2-0.8-0.2s-0.6,0.1-0.8,0.2c-0.3,0.1-0.5,0.3-0.7,0.5l-3.2,3.2V49.7
		c0-0.3-0.1-0.6-0.2-0.8c-0.1-0.3-0.3-0.5-0.5-0.7c-0.2-0.2-0.4-0.4-0.7-0.5c-0.2-0.1-0.5-0.1-0.8-0.1c-0.3,0-0.6,0-0.8,0.1
		c-0.3,0.1-0.5,0.3-0.7,0.5c-0.2,0.2-0.4,0.4-0.5,0.7c-0.1,0.3-0.2,0.5-0.2,0.8v10.1l-3.2-3.2c-0.2-0.2-0.4-0.4-0.7-0.5
		c-0.2-0.1-0.5-0.2-0.8-0.2c-0.3,0-0.6,0.1-0.8,0.2c-0.2,0.1-0.5,0.3-0.7,0.5c-0.2,0.2-0.4,0.4-0.5,0.7c-0.1,0.3-0.2,0.5-0.2,0.8
		c0,0.3,0.1,0.6,0.2,0.9c0.1,0.3,0.3,0.5,0.5,0.7l6.9,7c0.2,0.2,0.4,0.4,0.7,0.5c0.2,0.1,0.5,0.2,0.8,0.2c0.3,0,0.6-0.1,0.8-0.2
		c0.3-0.1,0.5-0.3,0.7-0.5L44,59.6z"/>
</g>
</svg>
