<?xml version="1.0" encoding="utf-8"?>
<!-- Generator: Adobe Illustrator 21.1.0, SVG Export Plug-In . SVG Version: 6.00 Build 0)  -->
<svg version="1.1" id="Layer_1" xmlns="http://www.w3.org/2000/svg" xmlns:xlink="http://www.w3.org/1999/xlink" x="0px" y="0px"
	 viewBox="0 0 72 96" style="enable-background:new 0 0 72 96;" xml:space="preserve">
<style type="text/css">
	.st0{fill:#FF6600;}
	.st1{fill:#FFFFFF;}
</style>
<g>
	<path class="st0" d="M0,2l0,92c0,1.1,0.9,2,2,2h68c1.1,0,2-0.9,2-2V28H50c-1.1,0-2-0.9-2-2V0L2,0C0.9,0,0,0.9,0,2z"/>
	<path class="st0" d="M71.9,24c-0.1-0.4-0.2-0.7-0.4-1L52,1.2V24H71.9z"/>
</g>
<rect x="6" y="41" class="st1" width="60" height="49"/>
<g>
	<path class="st1" d="M5.4,6.4h3.6l1.6,8.1c0.2,0.9,0.3,2.3,0.3,2.3H11c0,0,0.2-1.4,0.3-2.3L13,6.4h3.5l-3.9,14.3H9.3L5.4,6.4z"/>
	<path class="st1" d="M24,6.1c3.8,0,5.9,3.1,5.9,7.3c0,4.2-2.1,7.5-5.9,7.5s-5.8-3.2-5.8-7.5C18.1,9.3,20.2,6.1,24,6.1z M24,17.8
		c1.7,0,2.5-1.8,2.5-4.3c0-2.5-0.8-4.2-2.5-4.2s-2.5,1.7-2.5,4.2C21.5,16,22.3,17.8,24,17.8z"/>
	<path class="st1" d="M32.9,6.4h4.2c2.5,0,4.2,1.3,4.2,3.7c0,1.2-0.5,2.4-1.7,3v0c1.6,0.5,2.1,1.9,2.1,3.2c0,3.1-2,4.3-4.4,4.3h-4.4
		V6.4z M37.1,12c0.6,0,0.9-0.6,0.9-1.4s-0.3-1.3-1-1.3h-0.8V12H37.1z M37.3,17.8c0.8,0,1.2-0.7,1.2-1.6c0-0.9-0.3-1.5-1.1-1.5h-1.2
		v3.1H37.3z"/>
</g>
<path class="st0" d="M13,83.1h46V47.9H13V83.1z M21.9,80.4h-5.5v-3.9h5.5V80.4L21.9,80.4z M38.8,80.4h-5.5v-3.9h5.5L38.8,80.4
	L38.8,80.4z M50.1,50.3h5.5v4h-5.5V50.3z M50.1,76.4h5.5v3.9h-5.5L50.1,76.4L50.1,76.4z M41.6,50.3H47v3.9h-5.5V50.3z M41.6,76.4H47
	v3.9h-5.5L41.6,76.4L41.6,76.4z M33.2,50.3h5.5v3.9h-5.5V50.3z M32.4,60l7.2,4.1c1.3,0.8,1.3,2,0,2.8L32.4,71
	c-1.3,0.8-2.4,0.1-2.4-1.4v-8.3C30,59.9,31.1,59.2,32.4,60z M24.7,50.3h5.4v3.9h-5.4V50.3z M24.7,76.4h5.4v3.9h-5.4V76.4L24.7,76.4z
	 M16.4,50.3h5.5v4h-5.5V50.3z"/>
</svg>
