<?xml version="1.0" encoding="utf-8"?>
<!-- Generator: Adobe Illustrator 21.1.0, SVG Export Plug-In . SVG Version: 6.00 Build 0)  -->
<svg version="1.1" id="Layer_1" xmlns="http://www.w3.org/2000/svg" xmlns:xlink="http://www.w3.org/1999/xlink" x="0px" y="0px"
	 viewBox="0 0 72 96" style="enable-background:new 0 0 72 96;" xml:space="preserve">
<style type="text/css">
	.st0{fill:#37539D;}
	.st1{fill:#FFFFFF;}
	.st2{fill:none;stroke:#37539D;stroke-width:2;stroke-miterlimit:10;}
	.st3{fill:#FFFFFF;stroke:#FFFFFF;stroke-width:0.75;stroke-miterlimit:10;}
</style>
<g>
	<path class="st0" d="M0,2l0,92c0,1.1,0.9,2,2,2h68c1.1,0,2-0.9,2-2V28H50c-1.1,0-2-0.9-2-2V0L2,0C0.9,0,0,0.9,0,2z"/>
	<path class="st0" d="M71.9,24c-0.1-0.4-0.2-0.7-0.4-1L52,1.2V24H71.9z"/>
</g>
<rect x="6" y="41" class="st1" width="60" height="49"/>
<g>
	<path class="st1" d="M5.4,6.4h3.6l1.6,8.1c0.2,0.9,0.3,2.3,0.3,2.3H11c0,0,0.2-1.4,0.3-2.3L13,6.4h3.5l-3.9,14.3H9.3L5.4,6.4z"/>
	<path class="st1" d="M19.5,16.7c0.6,0.6,1.4,1.2,2.3,1.2c0.9,0,1.3-0.6,1.3-1.2c0-2-4.8-2.1-4.8-6.2c0-2.4,1.7-4.3,4.5-4.3
		c1.2,0,2.4,0.3,3.4,1l-1.2,2.9c-0.5-0.4-1.4-0.9-2.2-0.9c-0.9,0-1.3,0.6-1.3,1.2c0,2.1,4.8,2,4.8,6.1c0,2.3-1.5,4.4-4.4,4.4
		c-1.4,0-2.9-0.5-4-1.4L19.5,16.7z"/>
	<path class="st1" d="M29.5,6.4h4.2c3.7,0,5.9,2.6,5.9,7.1s-2.2,7.2-5.9,7.2h-4.2V6.4z M33.6,17.8c1.7,0,2.6-1.5,2.6-4.3
		c0-2.8-1-4.2-2.6-4.2h-0.8v8.5H33.6z"/>
</g>
<g>
	<g>
		<polygon class="st0" points="17.1,51.3 38.4,47.2 38.4,83 17.1,79.1 		"/>
	</g>
	<g>
		<path class="st0" d="M53.3,79.5H35.2c-0.9,0-1.6-0.7-1.6-1.6V52.4c0-0.9,0.7-1.6,1.6-1.6h18.1c0.9,0,1.6,0.7,1.6,1.6v25.5
			C54.9,78.8,54.2,79.5,53.3,79.5z M35.2,52.3c-0.1,0-0.2,0.1-0.2,0.2v25.5c0,0.1,0.1,0.2,0.2,0.2h18.1c0.1,0,0.2-0.1,0.2-0.2V52.4
			c0-0.1-0.1-0.2-0.2-0.2L35.2,52.3z"/>
	</g>
	<rect x="36" y="68" class="st2" width="6" height="6"/>
	
		<rect x="44.1" y="56.1" transform="matrix(0.7071 -0.7071 0.7071 0.7071 -27.8246 50.2041)" class="st2" width="5.1" height="5.1"/>
	<line class="st2" x1="43" y1="58.8" x2="38" y2="58.8"/>
	<line class="st2" x1="47" y1="62" x2="47" y2="71"/>
	<line class="st2" x1="42" y1="71" x2="48" y2="71"/>
	<g>
		<path class="st3" d="M23,60.2h2.1l2.3,6.9c0.2,0.6,0.4,1.6,0.4,1.6h0c0,0,0.2-0.9,0.4-1.6l2.4-6.9h2.1l-3.9,10.6h-1.9L23,60.2z"/>
	</g>
</g>
</svg>
