<?xml version="1.0" encoding="utf-8"?>
<!-- Generator: Adobe Illustrator 21.1.0, SVG Export Plug-In . SVG Version: 6.00 Build 0)  -->
<svg version="1.1" id="Layer_1" xmlns="http://www.w3.org/2000/svg" xmlns:xlink="http://www.w3.org/1999/xlink" x="0px" y="0px"
	 viewBox="0 0 72 96" style="enable-background:new 0 0 72 96;" xml:space="preserve">
<style type="text/css">
	.st0{fill:#CCCCCC;}
	.st1{fill:#333333;}
	.st2{fill:#999999;}
</style>
<path class="st0" d="M0,2l0,92c0,1.1,0.9,2,2,2h68c1.1,0,2-0.9,2-2V28H50c-1.1,0-2-0.9-2-2V0L2,0C0.9,0,0,0.9,0,2z"/>
<path class="st0" d="M71.9,24c-0.1-0.4-0.2-0.7-0.4-1L52,1.2V24H71.9z"/>
<g>
	<path class="st1" d="M6.3,70.4h2.6l0.9,8.9c0.1,0.7,0.1,1.6,0.1,1.6H10c0,0,0-0.9,0.1-1.6l1-8.9h2.4l1,8.9c0.1,0.7,0.1,1.6,0.1,1.6
		h0.1c0,0,0-0.9,0.1-1.6l0.9-8.9h2.6l-2,14.3h-3l-0.9-7.2c-0.1-0.9-0.1-1.7-0.1-1.7h0c0,0,0,0.8-0.1,1.7l-0.9,7.2h-3L6.3,70.4z"/>
	<path class="st1" d="M19.3,70.4H25v2.9h-3.1V76h2.5v2.9h-2.5v2.9h3.3v2.9h-5.9V70.4z"/>
	<path class="st1" d="M26.5,70.4h3.3c2,0,3.4,1.3,3.4,3.7c0,1.2-0.4,2.4-1.3,3v0c1.3,0.5,1.7,1.9,1.7,3.2c0,3.1-1.6,4.3-3.6,4.3
		h-3.5V70.4z M29.8,76c0.5,0,0.7-0.6,0.7-1.4c0-0.7-0.2-1.3-0.8-1.3h-0.6V76H29.8z M30,81.8c0.7,0,0.9-0.7,0.9-1.6
		c0-0.9-0.3-1.5-0.8-1.5h-0.9v3.1H30z"/>
	<path class="st1" d="M34.8,70.4h2.6v14.3h-2.6V70.4z"/>
	<path class="st1" d="M39.2,70.4H42l2,6.6c0.3,1,0.6,2.4,0.6,2.4h0.1c0,0-0.1-1.5-0.1-2.4v-6.6h2.5v14.3h-2.8l-2-6.6
		c-0.3-1-0.5-2.4-0.5-2.4h-0.1c0,0,0.1,1.5,0.1,2.4v6.6h-2.5V70.4z"/>
	<path class="st1" d="M48.6,70.4h5.7v2.9h-3.1v3.1h2.5v2.9h-2.5v5.4h-2.6V70.4z"/>
	<path class="st1" d="M59.7,70.2c3,0,4.7,3.1,4.7,7.3c0,4.2-1.7,7.5-4.7,7.5S55,81.7,55,77.5C55,73.3,56.7,70.2,59.7,70.2z
		 M59.7,81.8c1.4,0,2-1.8,2-4.3c0-2.5-0.6-4.2-2-4.2s-2,1.7-2,4.2C57.7,80,58.3,81.8,59.7,81.8z"/>
</g>
<path class="st2" d="M0,94L0,2c0-1.1,0.9-2,2-2l48,0c0.6,0,1.1,0.2,1.5,0.7l20,22.3c0.3,0.4,0.5,0.8,0.5,1.3V94c0,1.1-0.9,2-2,2H2
	C0.9,96,0,95.1,0,94z M68,25.1L49.1,4H4v88h64V25.1z"/>
<path class="st2" d="M48,26V4c0-1.1,0.9-2,2-2s2,0.9,2,2v20h16c1.1,0,2,0.9,2,2s-0.9,2-2,2H50C48.9,28,48,27.1,48,26z"/>
</svg>
