<?xml version="1.0" encoding="utf-8"?>
<!-- Generator: Adobe Illustrator 21.1.0, SVG Export Plug-In . SVG Version: 6.00 Build 0)  -->
<svg version="1.1" id="Layer_1" xmlns="http://www.w3.org/2000/svg" xmlns:xlink="http://www.w3.org/1999/xlink" x="0px" y="0px"
	 viewBox="0 0 72 96" style="enable-background:new 0 0 72 96;" xml:space="preserve">
<style type="text/css">
	.st0{fill:#8ED200;}
	.st1{fill:#FFFFFF;}
</style>
<g>
	<path class="st0" d="M0,2l0,92c0,1.1,0.9,2,2,2h68c1.1,0,2-0.9,2-2V28H50c-1.1,0-2-0.9-2-2V0L2,0C0.9,0,0,0.9,0,2z"/>
	<path class="st0" d="M71.9,24c-0.1-0.4-0.2-0.7-0.4-1L52,1.2V24H71.9z"/>
</g>
<rect x="6" y="41" class="st1" width="60" height="49"/>
<g>
	<path class="st1" d="M5.6,6.4h2.7l1,8.9c0.1,0.7,0.1,1.6,0.1,1.6h0.1c0,0,0-0.9,0.1-1.6l1.1-8.9h2.6l1.1,8.9
		c0.1,0.7,0.1,1.6,0.1,1.6h0.1c0,0,0-0.9,0.1-1.6l1-8.9h2.7l-2.1,14.3H13l-0.9-7.2c-0.1-0.9-0.1-1.7-0.1-1.7h-0.1c0,0,0,0.8-0.1,1.7
		l-0.9,7.2H7.7L5.6,6.4z"/>
	<path class="st1" d="M19.4,6.4h6v2.9h-3.3V12h2.6v2.9h-2.6v2.9h3.4v2.9h-6.2V6.4z"/>
	<path class="st1" d="M27.1,6.4h3.5c2.1,0,3.5,1.3,3.5,3.7c0,1.2-0.4,2.4-1.4,3v0c1.4,0.5,1.8,1.9,1.8,3.2c0,3.1-1.6,4.3-3.7,4.3
		h-3.7V6.4z M30.6,12c0.5,0,0.7-0.6,0.7-1.4s-0.3-1.3-0.8-1.3h-0.7V12H30.6z M30.8,17.8c0.7,0,1-0.7,1-1.6c0-0.9-0.3-1.5-0.9-1.5h-1
		v3.1H30.8z"/>
	<path class="st1" d="M36,6.4h3.8c2.2,0,3.7,2,3.7,4.9c0,2.9-1.5,5-3.7,5h-1v4.4H36V6.4z M39.3,13.4c0.9,0,1.4-0.9,1.4-2.1
		s-0.6-2-1.3-2h-0.6v4.1H39.3z"/>
</g>
<g>
	<path class="st0" d="M14,48.5v33.9h44V48.5L14,48.5L14,48.5z M55.5,51v14.8l-10.5-8L33.5,69.3l-8.1-4.5l-8.8,7V51H55.5z"/>
	<circle class="st0" cx="23" cy="57.6" r="3.1"/>
</g>
</svg>
