<?xml version="1.0" encoding="utf-8"?>
<!-- Generator: Adobe Illustrator 21.1.0, SVG Export Plug-In . SVG Version: 6.00 Build 0)  -->
<svg version="1.1" id="Layer_1" xmlns="http://www.w3.org/2000/svg" xmlns:xlink="http://www.w3.org/1999/xlink" x="0px" y="0px"
	 viewBox="0 0 72 96" style="enable-background:new 0 0 72 96;" xml:space="preserve">
<style type="text/css">
	.st0{fill:#FEA500;}
	.st1{fill:#FFFFFF;}
</style>
<g>
	<path class="st0" d="M0,2l0,92c0,1.1,0.9,2,2,2h68c1.1,0,2-0.9,2-2V28H50c-1.1,0-2-0.9-2-2V0L2,0C0.9,0,0,0.9,0,2z"/>
	<path class="st0" d="M71.9,24c-0.1-0.4-0.2-0.7-0.4-1L52,1.2V24H71.9z"/>
</g>
<rect x="6" y="41" class="st1" width="60" height="49"/>
<g>
	<path class="st1" d="M5.6,6.4h3l1.1,8.9c0.1,0.7,0.1,1.6,0.1,1.6h0.1c0,0,0-0.9,0.1-1.6l1.2-8.9h2.8l1.2,8.9
		c0.1,0.7,0.1,1.6,0.1,1.6h0.1c0,0,0-0.9,0.1-1.6l1.1-8.9h3l-2.3,14.3h-3.4l-1-7.2c-0.1-0.9-0.1-1.7-0.1-1.7h-0.1c0,0,0,0.8-0.1,1.7
		l-1,7.2H7.9L5.6,6.4z"/>
	<path class="st1" d="M21.9,6.4h3.3l1.2,6c0.2,0.9,0.4,2.4,0.4,2.4h0.1c0,0,0.2-1.5,0.4-2.4l1.2-6h3.3l0.8,14.3H30l-0.3-6.4
		c-0.1-1.1,0-2.4,0-2.4h-0.1c0,0-0.2,1.5-0.4,2.4l-0.8,4.1h-2.9l-0.8-4.1c-0.2-0.9-0.4-2.4-0.4-2.4h-0.1c0,0,0.1,1.3,0,2.4l-0.4,6.4
		H21L21.9,6.4z"/>
	<path class="st1" d="M35.3,6.4h6.6v2.9h-3.5v3.1h2.9v2.9h-2.9v5.4h-3V6.4z"/>
</g>
<g>
	<path class="st0" d="M27.1,60.2L18,79.4l1.7,1.7L31,69.8c-0.4-0.9-0.3-2,0.5-2.8c1-1,2.5-1,3.5,0c1,1,1,2.5,0,3.5
		c-0.7,0.7-1.9,0.9-2.8,0.5L20.9,82.3l1.7,1.7l19.2-9.1L46,63.4L38.6,56L27.1,60.2z"/>
	<path class="st0" d="M53.4,57.9l-9.4-9.4c-0.8-0.8-2-0.8-2.8,0l-2.2,2.2c-0.8,0.8-0.8,2,0,2.8l9.4,9.4c0.8,0.8,2,0.8,2.8,0l2.2-2.2
		C54.2,59.9,54.2,58.7,53.4,57.9z"/>
</g>
</svg>
