<?xml version="1.0" encoding="utf-8"?>
<!-- Generator: Adobe Illustrator 21.1.0, SVG Export Plug-In . SVG Version: 6.00 Build 0)  -->
<svg version="1.1" id="Layer_1" xmlns="http://www.w3.org/2000/svg" xmlns:xlink="http://www.w3.org/1999/xlink" x="0px" y="0px"
	 viewBox="0 0 72 96" style="enable-background:new 0 0 72 96;" xml:space="preserve">
<style type="text/css">
	.st0{fill:#36454D;}
	.st1{fill:#FFFFFF;}
	.st2{enable-background:new    ;}
	.st3{fill:#7291A1;}
</style>
<g>
	<path class="st0" d="M0,2l0,92c0,1.1,0.9,2,2,2h68c1.1,0,2-0.9,2-2V28H50c-1.1,0-2-0.9-2-2V0L2,0C0.9,0,0,0.9,0,2z"/>
	<path class="st0" d="M71.9,24c-0.1-0.4-0.2-0.7-0.4-1L52,1.2V24H71.9z"/>
</g>
<rect x="6" y="41" class="st1" width="60" height="49"/>
<g>
	<path class="st1" d="M5.7,6.5h1.7l1.1,9.8c0.1,0.7,0.1,1.6,0.1,1.6h0.1c0,0,0-0.9,0.1-1.6l1.2-9.8h1.6l1.1,9.8
		c0.1,0.7,0.1,1.6,0.1,1.6h0.1c0,0,0-0.9,0.1-1.6L14,6.5h1.7l-1.8,14.2h-2l-1-8.4c-0.1-0.9-0.1-1.9-0.1-1.9h-0.1c0,0,0,0.9-0.2,1.9
		l-1.1,8.4h-2L5.7,6.5z"/>
	<path class="st1" d="M20.3,6.2c2.5,0,4,3,4,7.3c0,4.3-1.6,7.4-4,7.4c-2.5,0-4-3.1-4-7.4C16.3,9.3,17.8,6.2,20.3,6.2z M20.3,18.6
		c1.4,0,2.2-2,2.2-5.1c0-3-0.8-4.9-2.2-4.9c-1.4,0-2.3,1.9-2.3,4.9C18,16.6,18.9,18.6,20.3,18.6z"/>
	<path class="st1" d="M25.7,6.5h4.6v2.2h-2.9v4.1h2.4v2.2h-2.4v5.8h-1.7V6.5z"/>
	<path class="st1" d="M31.5,6.5h4.6v2.2h-2.9v4.1h2.4v2.2h-2.4v5.8h-1.7V6.5z"/>
	<path class="st1" d="M37,19.4c0-4.8,3.4-5.5,3.4-8.9c0-1.2-0.5-1.9-1.2-1.9c-0.5,0-1,0.4-1.3,1l-1.2-1.4c0.5-1.1,1.5-2,2.7-2
		c1.5,0,2.7,1.4,2.7,4c0,4.3-3.3,5.5-3.4,8.3h3.5v2.2h-5.2C37,20.2,37,19.9,37,19.4z"/>
</g>
<g class="st2">
	<path class="st3" d="M28.1,68.3h-8.9l-1.1,2.4c-0.3,0.8-0.5,1.4-0.5,2c0,0.7,0.3,1.2,0.9,1.5c0.3,0.2,1.2,0.3,2.5,0.4v0.7h-8.4
		v-0.7c0.9-0.1,1.6-0.5,2.2-1.1c0.6-0.6,1.3-1.8,2.1-3.7l9-19.4h0.4l9.1,19.9c0.9,1.9,1.6,3.1,2.1,3.6c0.4,0.4,1,0.6,1.8,0.6v0.7
		H27.2v-0.7h0.5c1,0,1.7-0.1,2.1-0.4c0.3-0.2,0.4-0.5,0.4-0.8c0-0.2,0-0.4-0.1-0.7c0-0.1-0.2-0.6-0.6-1.3L28.1,68.3z M27.5,67
		l-3.7-8.4L19.9,67H27.5z"/>
</g>
<g class="st2">
	<path class="st0" d="M58.2,59.2l-3.6,11.9l-0.4,1.5c0,0.2-0.1,0.3-0.1,0.4c0,0.1,0.1,0.3,0.2,0.4c0.1,0.1,0.2,0.2,0.3,0.2
		c0.3,0,0.6-0.2,1.1-0.6c0.2-0.2,0.6-0.7,1.3-1.6l0.6,0.3c-0.9,1.6-1.8,2.7-2.8,3.4c-1,0.7-2.1,1.1-3.2,1.1c-0.7,0-1.2-0.2-1.6-0.5
		c-0.4-0.4-0.6-0.8-0.6-1.3c0-0.5,0.2-1.3,0.6-2.6l0.4-1.5c-1.4,2.4-2.8,4.1-4.1,5.1c-0.8,0.6-1.6,0.9-2.4,0.9c-1.1,0-2-0.5-2.5-1.4
		s-0.8-1.9-0.8-3.1c0-1.7,0.5-3.6,1.6-5.8c1.1-2.2,2.5-3.9,4.2-5.3c1.4-1.1,2.8-1.6,4-1.6c0.7,0,1.2,0.2,1.7,0.6
		c0.4,0.4,0.7,1.1,0.9,2.1l0.7-2.2L58.2,59.2z M52.3,62.7c0-1-0.2-1.7-0.5-2.1c-0.2-0.3-0.5-0.4-0.9-0.4s-0.8,0.2-1.2,0.5
		c-0.8,0.7-1.7,2.2-2.7,4.5c-1,2.3-1.4,4.2-1.4,5.9c0,0.6,0.1,1.1,0.3,1.4c0.2,0.3,0.5,0.4,0.7,0.4c0.6,0,1.1-0.3,1.7-0.9
		c0.8-0.9,1.6-2,2.2-3.2C51.7,66.4,52.3,64.4,52.3,62.7z"/>
</g>
</svg>
