<?xml version="1.0" encoding="utf-8"?>
<!-- Generator: Adobe Illustrator 21.1.0, SVG Export Plug-In . SVG Version: 6.00 Build 0)  -->
<svg version="1.1" id="Layer_1" xmlns="http://www.w3.org/2000/svg" xmlns:xlink="http://www.w3.org/1999/xlink" x="0px" y="0px"
	 viewBox="0 0 72 96" style="enable-background:new 0 0 72 96;" xml:space="preserve">
<style type="text/css">
	.st0{fill:#AB7E43;}
	.st1{fill:#FFFFFF;}
	.st2{fill:#7A5A31;}
</style>
<g>
	<path class="st0" d="M0,2l0,92c0,1.1,0.9,2,2,2h68c1.1,0,2-0.9,2-2V28H50c-1.1,0-2-0.9-2-2V0L2,0C0.9,0,0,0.9,0,2z"/>
	<path class="st0" d="M71.9,24c-0.1-0.4-0.2-0.7-0.4-1L52,1.2V24H71.9z"/>
</g>
<rect x="6" y="41" class="st1" width="60" height="49"/>
<g>
	<path class="st1" d="M9,13.6L5.5,6.4h3.6l1.1,2.9c0.3,0.9,0.6,1.8,0.6,1.8h0c0,0,0.2-0.9,0.6-1.8l1.2-2.9h3.6l-3.4,7.2l3.3,7.1
		h-3.5l-1.1-3c-0.4-0.9-0.6-1.7-0.6-1.7h0c0,0-0.2,0.8-0.6,1.7l-1.1,3H5.7L9,13.6z"/>
	<path class="st1" d="M24.4,6.1c1.3,0,2.6,0.4,3.6,1.2l-1.4,2.8c-0.4-0.5-1.3-0.9-2.1-0.9c-2.1,0-3.2,1.9-3.2,4.2
		c0,2.3,1.2,4.4,3.2,4.4c1,0,1.7-0.5,2.3-1l1.4,2.8c-0.9,0.7-2,1.3-3.9,1.3c-4,0-6.3-3.1-6.3-7.4C18,9.3,20.4,6.1,24.4,6.1z"/>
	<path class="st1" d="M30.9,6.4h7.1v2.9h-3.8v3.1h3.1v2.9h-3.1v5.4h-3.3V6.4z"/>
</g>
<path class="st2" d="M47.6,71.7c0.4,0.2,0.9,0.4,1.3,0.7c1.3,0.8,2.5,1.6,3.7,2.4c0.2,0.1,0.4,0.2,0.6,0.1c1.4-0.3,2.9,0.5,3.3,1.9
	c0.3,0.9,0.4,1.8,0.5,2.8c0.1,1.1,0.1,2.3,0.2,3.5c-2-0.5-3.9-1.1-5.3-2.6c-0.4-0.4-0.5-1-0.8-1.5c-0.1-0.1-0.2-0.3-0.3-0.3
	c-2.6-0.6-5.1-1.5-7.5-2.7c-0.1-0.1-0.4-0.1-0.5,0c-2.4,1.2-5,1.7-7.7,1.5c-3.6-0.2-6.9-1.4-10.1-2.9c-0.5-0.3-1.1-0.6-1.6-0.9
	c2.5-1.2,3.6-3.2,3.6-5.9c-0.6-0.1-1.2-0.1-1.7-0.2c-0.1,0.5-0.1,1.1-0.2,1.7c-0.6,2.2-2.7,3.4-5,2.8c-3-0.8-5.7-4.3-5.4-7.7
	c0.2-2.5,2.4-4.1,4.8-3.5c0.4,0.1,0.8,0.2,1.2,0.4c0.4,0.2,0.7,0.4,1.1,0.6c0.3-0.5,0.5-1.1,0.8-1.6c0.1-0.1,0-0.3,0-0.4
	c0-2.5,0-5,0-7.6c0-0.1,0-0.3,0-0.4c0,0,0.1,0,0.1,0c0.1,0.1,0.2,0.2,0.3,0.4c0.9,1.3,1.7,2.6,2.8,3.7c1.3,1.2,2.6,2.2,4.3,2.6
	c0.5,0.1,0.9,0.1,1.4-0.2c1.9-1.2,3.8-1.3,5.8-0.3c0.1,0.1,0.3,0.1,0.5,0.1c2.8-0.7,5.4-1.9,7.5-4c0.9-0.9,1.6-2,2.1-3.3
	c0.2-0.6,0.5-1.1,0.8-1.7c0.3-0.5,0.7-0.8,1.2-0.7c0.6,0.1,0.9,0.5,1,1c0.2,1,0.4,2,0.5,3c0.1,1.8,0.1,3.6,0.1,5.4
	c-0.1,3.7-0.5,7.4-1.8,10.9C48.6,69.5,48.1,70.6,47.6,71.7z M42.6,71.5c0.4-0.6,0.4-1.2,0.1-1.8c-0.5-0.9-1.3-1.6-2.3-2
	c0,0,0,0-0.1,0c0.1,0.2,0.2,0.4,0.3,0.6c0.1,0.2,0.2,0.4,0.2,0.7c0.2,0.8,0.1,1.2-0.7,1.5c-0.5,0.2-1,0.3-1.4,0.4
	c-2.4,0.4-4.9,0.4-7.3,0.3c-0.2,0-0.5,0-0.7,0c0,0.1,0.1,0.1,0.1,0.1c2.4,0.8,4.8,1.4,7.3,1.6c0.9,0.1,1.9,0.1,2.8-0.2
	c0.3-0.1,0.5,0,0.7,0.1c2.7,1.8,5.6,3.1,8.8,3.9c0.6,0.2,0.6,0.2,0.9-0.4c0.1-0.1,0.1-0.2,0.2-0.3C48.8,74,45.8,72.6,42.6,71.5z
	 M34.1,62.1c-0.1,1.2,0.1,1.7,0.8,1.9c0.6,0.2,1.3,0,1.5-0.5c0.2-0.3,0.2-0.7,0.2-1.1c-0.1-0.3-0.4-0.6-0.6-0.9
	c1.2,0.1,1.9,0.8,2.3,1.9c0.3-1-0.2-3-1.7-4c-1.6-1-3.8-0.8-5.1,0.6c-1.3,1.4-1.4,3.5-0.4,5.1c1,1.5,3,2,3.9,1.6
	c-1.1-0.4-1.8-1.2-1.9-2.4C33.1,63.4,33.4,62.7,34.1,62.1z M26.8,65.9c-1.8-1-2.2-2.9-0.9-3.8c-0.2,0.8,0,1.3,0.6,1.6
	c0.4,0.2,1.1,0.1,1.3-0.4c0.2-0.3,0.3-0.7,0.2-1c-0.1-0.3-0.4-0.5-0.6-0.9c0.5,0.2,0.9,0.3,1.3,0.5c0.3-0.9,0.3-0.9,0-1.3
	c-0.9-0.8-1.9-1.1-3-0.8c-1.2,0.3-1.9,1.1-2.2,2.3c-0.1,0.5-0.2,1,0.1,1.5c0.3,0.5,0.6,1,0.9,1.5c0.1,0.1,0.1,0.3,0.3,0.3
	C25.3,65.8,26,65.9,26.8,65.9z M16.3,64.7c0,0.5,0.2,1.1,0.6,1.6c0.6,0.7,1.6,0.7,2.3,0c1-1,0.9-2.7-0.2-3.6
	c-0.3-0.3-0.7-0.4-1.1-0.3C16.9,62.5,16.2,63.4,16.3,64.7z"/>
</svg>
