<?xml version="1.0" encoding="utf-8"?>
<!-- Generator: Adobe Illustrator 21.1.0, SVG Export Plug-In . SVG Version: 6.00 Build 0)  -->
<svg version="1.1" id="Layer_1" xmlns="http://www.w3.org/2000/svg" xmlns:xlink="http://www.w3.org/1999/xlink" x="0px" y="0px"
	 viewBox="0 0 72 96" style="enable-background:new 0 0 72 96;" xml:space="preserve">
<style type="text/css">
	.st0{fill:#1F7244;}
	.st1{fill:#FFFFFF;}
</style>
<g>
	<path class="st0" d="M0,2l0,92c0,1.1,0.9,2,2,2h68c1.1,0,2-0.9,2-2V28H50c-1.1,0-2-0.9-2-2V0L2,0C0.9,0,0,0.9,0,2z"/>
	<path class="st0" d="M71.9,24c-0.1-0.4-0.2-0.7-0.4-1L52,1.2V24H71.9z"/>
</g>
<rect x="6" y="41" class="st1" width="60" height="49"/>
<g>
	<path class="st1" d="M9,13.6L5.5,6.4h3.6l1.1,2.9c0.3,0.9,0.6,1.8,0.6,1.8h0c0,0,0.2-0.9,0.6-1.8l1.2-2.9h3.6l-3.4,7.2l3.3,7.1
		h-3.5l-1.1-3c-0.4-0.9-0.6-1.7-0.6-1.7h0c0,0-0.2,0.8-0.6,1.7l-1.1,3H5.7L9,13.6z"/>
	<path class="st1" d="M18.8,6.4h3.3v11.4h4.3v2.9h-7.6V6.4z"/>
	<path class="st1" d="M29.6,6.4h3.6l1.3,6c0.2,0.9,0.4,2.4,0.4,2.4h0.1c0,0,0.2-1.5,0.4-2.4l1.3-6h3.6l0.9,14.3h-3L38,14.3
		c-0.1-1.1,0-2.4,0-2.4H38c0,0-0.2,1.5-0.4,2.4l-0.9,4.1h-3.2l-0.9-4.1c-0.2-0.9-0.4-2.4-0.4-2.4h-0.1c0,0,0.1,1.3,0,2.4l-0.4,6.4
		h-3L29.6,6.4z"/>
</g>
<g>
	<rect x="46.8" y="49.2" class="st0" width="12.2" height="8.1"/>
	<rect x="46.8" y="61.7" class="st0" width="12.2" height="8.1"/>
	<rect x="46.8" y="74.1" class="st0" width="12.2" height="8.1"/>
	<rect x="30.3" y="74.1" class="st0" width="12.2" height="8.1"/>
	<rect x="13.8" y="74.1" class="st0" width="12.2" height="8.1"/>
	<polygon class="st0" points="40.9,69.3 32.9,59.2 40.2,50 33,50 29.2,55 25.7,50 18.2,50 25.6,59.4 17.8,69.3 25.1,69.3 29.2,63.8 
		33.3,69.3 	"/>
</g>
</svg>
