<?xml version="1.0" encoding="utf-8"?>
<!-- Generator: Adobe Illustrator 21.1.0, SVG Export Plug-In . SVG Version: 6.00 Build 0)  -->
<svg version="1.1" id="Layer_1" xmlns="http://www.w3.org/2000/svg" xmlns:xlink="http://www.w3.org/1999/xlink" x="0px" y="0px"
	 viewBox="0 0 72 96" style="enable-background:new 0 0 72 96;" xml:space="preserve">
<style type="text/css">
	.st0{fill:#1F7244;}
	.st1{fill:#FFFFFF;}
</style>
<g>
	<path class="st0" d="M0,2l0,92c0,1.1,0.9,2,2,2h68c1.1,0,2-0.9,2-2V28H50c-1.1,0-2-0.9-2-2V0L2,0C0.9,0,0,0.9,0,2z"/>
	<path class="st0" d="M71.9,24c-0.1-0.4-0.2-0.7-0.4-1L52,1.2V24H71.9z"/>
</g>
<rect x="6" y="41" class="st1" width="60" height="49"/>
<g>
	<path class="st1" d="M8.4,13.6L5.5,6.4h3.1l1,2.9c0.3,0.9,0.5,1.8,0.5,1.8h0c0,0,0.2-0.9,0.5-1.8l1-2.9h3.1l-2.9,7.2l2.8,7.1h-3
		l-0.9-3c-0.3-0.9-0.5-1.7-0.5-1.7h0c0,0-0.2,0.8-0.5,1.7l-1,3h-3L8.4,13.6z"/>
	<path class="st1" d="M16,6.4h2.8v11.4h3.7v2.9H16V6.4z"/>
	<path class="st1" d="M24.5,16.7c0.5,0.6,1.2,1.2,2,1.2c0.7,0,1.1-0.6,1.1-1.2c0-2-4-2.1-4-6.2c0-2.4,1.4-4.3,3.9-4.3
		c1,0,2.1,0.3,2.9,1l-1,2.9c-0.4-0.4-1.2-0.9-1.8-0.9c-0.8,0-1.1,0.6-1.1,1.2c0,2.1,4.1,2,4.1,6.1c0,2.3-1.3,4.4-3.8,4.4
		c-1.2,0-2.4-0.5-3.4-1.4L24.5,16.7z"/>
	<path class="st1" d="M32.5,6.4h3.1l1.1,6c0.2,0.9,0.4,2.4,0.4,2.4h0.1c0,0,0.2-1.5,0.4-2.4l1.1-6h3.1l0.8,14.3H40l-0.3-6.4
		c-0.1-1.1,0-2.4,0-2.4h-0.1c0,0-0.2,1.5-0.4,2.4l-0.7,4.1h-2.7l-0.7-4.1c-0.2-0.9-0.4-2.4-0.4-2.4h-0.1c0,0,0.1,1.3,0,2.4l-0.3,6.4
		h-2.6L32.5,6.4z"/>
</g>
<g>
	<rect x="46.8" y="49.2" class="st0" width="12.2" height="8.1"/>
	<rect x="46.8" y="61.7" class="st0" width="12.2" height="8.1"/>
	<rect x="46.8" y="74.1" class="st0" width="12.2" height="8.1"/>
	<rect x="30.3" y="74.1" class="st0" width="12.2" height="8.1"/>
	<rect x="13.8" y="74.1" class="st0" width="12.2" height="8.1"/>
	<polygon class="st0" points="40.9,69.3 32.9,59.2 40.2,50 33,50 29.2,55 25.7,50 18.2,50 25.6,59.4 17.8,69.3 25.1,69.3 29.2,63.8 
		33.3,69.3 	"/>
</g>
</svg>
