<?xml version="1.0" encoding="utf-8"?>
<!-- Generator: Adobe Illustrator 21.1.0, SVG Export Plug-In . SVG Version: 6.00 Build 0)  -->
<svg version="1.1" id="Layer_1" xmlns="http://www.w3.org/2000/svg" xmlns:xlink="http://www.w3.org/1999/xlink" x="0px" y="0px"
	 viewBox="0 0 72 96" style="enable-background:new 0 0 72 96;" xml:space="preserve">
<style type="text/css">
	.st0{fill:#999999;}
	.st1{fill:#FFFFFF;}
	.st2{fill:#999999;stroke:#999999;stroke-width:1.5;stroke-miterlimit:10;}
</style>
<g>
	<path class="st0" d="M0,2l0,92c0,1.1,0.9,2,2,2h68c1.1,0,2-0.9,2-2V28H50c-1.1,0-2-0.9-2-2V0L2,0C0.9,0,0,0.9,0,2z"/>
	<path class="st0" d="M71.9,24c-0.1-0.4-0.2-0.7-0.4-1L52,1.2V24H71.9z"/>
</g>
<rect x="6" y="41" class="st1" width="60" height="49"/>
<g>
	<path class="st1" d="M9,13.6L5.5,6.4h3.6l1.1,2.9c0.3,0.9,0.6,1.8,0.6,1.8h0c0,0,0.2-0.9,0.6-1.8l1.2-2.9h3.6l-3.4,7.2l3.3,7.1
		h-3.5l-1.1-3c-0.4-0.9-0.6-1.7-0.6-1.7h0c0,0-0.2,0.8-0.6,1.7l-1.1,3H5.7L9,13.6z"/>
	<path class="st1" d="M19.3,6.4H23l1.3,6c0.2,0.9,0.4,2.4,0.4,2.4h0.1c0,0,0.2-1.5,0.4-2.4l1.3-6h3.6l0.9,14.3h-3l-0.4-6.4
		c-0.1-1.1,0-2.4,0-2.4h-0.1c0,0-0.2,1.5-0.4,2.4l-0.9,4.1h-3.2l-0.9-4.1c-0.2-0.9-0.4-2.4-0.4-2.4h-0.1c0,0,0.1,1.3,0,2.4l-0.4,6.4
		h-3L19.3,6.4z"/>
	<path class="st1" d="M34.4,6.4h3.3v11.4H42v2.9h-7.6V6.4z"/>
</g>
<g>
	<path class="st2" d="M23,75c-0.5,0-1.1-0.2-1.5-0.6L13.1,66c-0.8-0.8-0.8-2.1,0-3l8.4-8.4c0.8-0.8,2.1-0.8,3,0c0.8,0.8,0.8,2.1,0,3
		l-6.9,6.9l6.9,6.9c0.8,0.8,0.8,2.1,0,3C24,74.8,23.5,75,23,75z"/>
	<path class="st2" d="M48,75c-0.5,0-1.1-0.2-1.5-0.6c-0.8-0.8-0.8-2.1,0-3l6.9-6.9l-6.9-6.9c-0.8-0.8-0.8-2.1,0-3
		c0.8-0.8,2.1-0.8,3,0l8.4,8.4c0.8,0.8,0.8,2.1,0,3l-8.4,8.4C49.1,74.8,48.6,75,48,75z"/>
	<path class="st2" d="M31.3,79.1c-0.2,0-0.4,0-0.7-0.1c-1.1-0.4-1.7-1.5-1.3-2.6l8.4-25.1c0.4-1.1,1.5-1.7,2.6-1.3
		c1.1,0.4,1.7,1.5,1.3,2.6l-8.4,25.1C33,78.6,32.2,79.1,31.3,79.1z"/>
</g>
</svg>
