<?xml version="1.0" encoding="utf-8"?>
<!-- Generator: Adobe Illustrator 21.1.0, SVG Export Plug-In . SVG Version: 6.00 Build 0)  -->
<svg version="1.1" id="Layer_1" xmlns="http://www.w3.org/2000/svg" xmlns:xlink="http://www.w3.org/1999/xlink" x="0px" y="0px"
	 viewBox="0 0 72 96" style="enable-background:new 0 0 72 96;" xml:space="preserve">
<style type="text/css">
	.st0{fill:#999999;}
	.st1{fill:#FFFFFF;}
	.st2{fill:#999999;stroke:#999999;stroke-width:0.5;stroke-miterlimit:10;}
</style>
<g>
	<g>
		<path class="st0" d="M0,2l0,92c0,1.1,0.9,2,2,2h68c1.1,0,2-0.9,2-2V28H50c-1.1,0-2-0.9-2-2V0L2,0C0.9,0,0,0.9,0,2z"/>
		<path class="st0" d="M71.9,24c-0.1-0.4-0.2-0.7-0.4-1L52,1.2V24H71.9z"/>
	</g>
	<rect x="6" y="41" class="st1" width="60" height="49"/>
</g>
<g>
	<path class="st1" d="M9,13.6L5.5,6.4h3.6l1.1,2.9c0.3,0.9,0.6,1.8,0.6,1.8h0c0,0,0.2-0.9,0.6-1.8l1.2-2.9h3.6l-3.4,7.2l3.3,7.1
		h-3.5l-1.1-3c-0.4-0.9-0.6-1.7-0.6-1.7h0c0,0-0.2,0.8-0.6,1.7l-1.1,3H5.7L9,13.6z"/>
	<path class="st1" d="M18.8,6.4h4.5c2.6,0,4.4,2,4.4,4.9c0,2.9-1.7,5-4.4,5h-1.2v4.4h-3.3V6.4z M22.7,13.4c1,0,1.6-0.9,1.6-2.1
		s-0.7-2-1.6-2h-0.7v4.1H22.7z"/>
	<path class="st1" d="M30.6,6.4h3.3v14.3h-3.3V6.4z"/>
</g>
<g>
	<g>
		<g>
			<g>
				<path class="st2" d="M16.8,62.4C16.8,62.4,16.8,62.4,16.8,62.4C16.8,62.5,16.8,62.6,16.8,62.4z"/>
				<polygon class="st2" points="16.8,62.4 16.8,62.4 16.8,62.4 				"/>
				<path class="st2" d="M54.4,60.9c-0.2,1.3-0.4,2-0.5,2c0,0-0.1-7-2.4-9.3c0.4,4.1,0,2.4,0,2.4c-3.1-5.4-9-9.1-15.7-9.1
					c-5.6,0-10.6,2.5-13.9,6.5c0,0-0.1-0.1-0.1-0.1c-0.5-0.5-0.8-2.8-0.8-2.8c0,0,0,0,0,0c0,0,0,0,0,0c0,0,0,0,0,0c0,0,0,0,0,0
					c0,0,0,0,0,0c0,0,0,0,0,0c0,0,0,0,0,0c0,0,0,0,0,0c0,0,0,0,0,0c0,0,0,0,0,0c0,0,0,0,0,0c0,0,0,0,0,0c0,0,0,0,0,0c0,0,0,0,0,0
					c0,0,0,0,0,0c0,0,0,0,0,0c0,0-1,1.3-1.3,2.7c-0.2,1.1,0,0,0,0c0,0,0,0,0,0c0,0,0,0,0,0c0,0,0,0,0,0c-0.3,1.1-0.4,2.5-0.4,4.1
					c0,0,0,0,0,0c0,0-1.7,1.9-2,3.9c-0.1,0.4-0.1,0.6-0.1,0.8c0,0,0,0,0,0c0,0.1,0,0.1,0,0.2c0,0,0,0,0,0c0,0.1,0,0.3,0.1,0.4l1-0.8
					c0,0.1,0,0.2,0,0.3c-0.3,0.9-0.6,1.9-0.7,2.9c-0.3,3.1,0.3,6.1,1.9,9.1c0,0,0.7,1.2,1.1,1.7c0.1,0.1,0.1,0.2,0.2,0.2l0,0
					c3.4,4.6,8.9,7.7,15,7.7c5.5,0,10.3-2.4,13.8-6.1l0.1,0c0.2-0.3,0.4-0.6,0.6-0.8c0.6-0.7,1.1-1.4,1.6-2.2l0,0
					c1.5-2.4,2.4-4.9,2.9-7.4C54.8,64.9,54.9,62.7,54.4,60.9z M21.8,53.6C21.8,53.6,21.8,53.6,21.8,53.6
					C21.8,53.5,21.8,53.5,21.8,53.6C21.8,53.5,21.8,53.5,21.8,53.6C21.8,53.5,21.8,53.5,21.8,53.6C21.8,53.5,21.8,53.5,21.8,53.6
					C21.8,53.5,21.8,53.6,21.8,53.6z M49.2,60.1c-0.4-0.6-0.9-1-1.5-1.2c0.8,3.1,0.9,5.7,0.2,7.7c-0.4-1.4-0.9-2.2-1.2-2.5
					c0.5,4.2-0.2,7.3-2.1,9.3c0.4-1.2,0.5-2.2,0.4-3c-2.2,3.3-4.7,5-7.6,5.1c-1.1,0-2.2-0.2-3.2-0.5c0,0,0,0-0.1,0
					C34.1,75,34,75,33.9,75c0,0,0,0,0,0c-0.1,0-0.2-0.1-0.2-0.1c-0.1,0-0.2-0.1-0.2-0.1c-0.1,0-0.2-0.1-0.2-0.1
					c-0.1,0-0.1-0.1-0.2-0.1c-0.1,0-0.2-0.1-0.2-0.1c-0.1,0-0.1-0.1-0.2-0.1c-0.1,0-0.1-0.1-0.2-0.1c-0.1,0-0.1-0.1-0.2-0.1
					c-0.1,0-0.1-0.1-0.2-0.1c-0.1,0-0.1-0.1-0.2-0.1c-0.1,0-0.1-0.1-0.2-0.1c-0.1,0-0.1-0.1-0.2-0.1c-0.1,0-0.1-0.1-0.2-0.1
					c-0.1,0-0.1-0.1-0.2-0.1c-0.1,0-0.1-0.1-0.2-0.2c-0.1,0-0.1-0.1-0.2-0.2c-0.1,0-0.1-0.1-0.2-0.2c0,0-0.1-0.1-0.1-0.1
					c0,0,0,0,0.1,0c0,0,0.1,0,0.1,0c0,0,0.1,0,0.1,0c0,0,0.1,0,0.1,0c0,0,0.1,0,0.1,0c0,0,0.1,0,0.1,0c0,0,0.1,0,0.1,0
					c0,0,0.1,0,0.1,0c0,0,0.1,0,0.1,0c0,0,0.1,0,0.1,0c0,0,0.1,0,0.1,0c0,0,0.1,0,0.1,0c0,0,0.1,0,0.1,0c0,0,0.1,0,0.1,0
					c0,0,0.1,0,0.1,0c0,0,0.1,0,0.1,0c0,0,0.1,0,0.1,0c0,0,0.1,0,0.1,0c0,0,0.1,0,0.1,0c0,0,0.1,0,0.1,0c0,0,0.1,0,0.1,0
					c0,0,0.1,0,0.1,0c0.1,0,0.1,0,0.1,0c0,0,0.1,0,0.1,0c0.1,0,0.1,0,0.1,0c0,0,0.1,0,0.1,0c0.1,0,0.1,0,0.2,0c0,0,0.1,0,0.1,0
					c0.1,0,0.1,0,0.2-0.1c0.1,0,0.1,0,0.2-0.1c0.1,0,0.1,0,0.2-0.1c0.1,0,0.1,0,0.2-0.1c0.1,0,0.1-0.1,0.2-0.1
					c0.1,0,0.1-0.1,0.2-0.1c0.1,0,0.1,0,0.2-0.1c0,0,0.1,0,0.1,0l0.1-0.1l0.2-0.1l0.2-0.1l0.2-0.1l0.2-0.1l0.2-0.1l0.2-0.1l0.2-0.1
					l0.2-0.1l0.2-0.1l0.2-0.1l0.2-0.1l0.2-0.1l0.1-0.1l0,0c0.3-0.1,0.6-0.1,0.9,0c0.6-0.1,0.8-0.4,0.6-0.9c-0.3-0.4-0.7-0.7-1.3-1.1
					c-1.2-0.6-2.5-0.5-3.8,0.3c-1.2,0.7-2.5,0.7-3.6-0.1c-0.8-0.5-1.5-1.2-2.2-2.1L28,65.9c0,0,0,0,0,0.1c0,0,0,0,0-0.1v0
					c0,0,0,0,0,0c0-0.1,0-0.2,0-0.3c0-0.1,0-0.2,0.1-0.3c0.1-0.2,0.1-0.3,0.2-0.4c0.1-0.2,0.3-0.3,0.5-0.3c0.1,0,0.2,0,0.2-0.1
					c-0.1,0-0.1,0-0.1,0c-0.1,0-0.2,0-0.4,0c-0.1,0-0.3,0-0.4,0c-0.1,0-0.1,0-0.2,0c-0.1,0-0.1,0-0.2,0c-0.1,0-0.2,0-0.3,0
					c0,0,0,0-0.1,0c-0.1,0-0.2,0-0.3,0c0.1,0,0.2,0,0.3,0c0.2,0,0.3,0,0.5,0c0.2,0,0.5,0,1,0.1c0.8,0.1,1.7,0.3,2.7,0.5
					c0.2-1-0.1-2-0.7-3c0,0,0,0,0,0c-0.1-0.1-0.1-0.2-0.2-0.3c0,0,0.1,0.1,0.1,0.1c0,0.1,0.1,0.1,0.1,0.2c0,0,0,0,0,0.1
					c0,0,0.1,0,0.1-0.1c0,0,0.1-0.1,0.1-0.1c0,0,0.1-0.1,0.1-0.1c0,0,0.1-0.1,0.1-0.1c0,0,0.1-0.1,0.1-0.1c0,0,0.1-0.1,0.1-0.1
					c0,0,0.1-0.1,0.1-0.1c0,0,0.1-0.1,0.1-0.1c0,0,0.1-0.1,0.1-0.1c0,0,0.1-0.1,0.1-0.1c0,0,0.1-0.1,0.1-0.1c0,0,0.1-0.1,0.1-0.1
					c0,0,0.1-0.1,0.1-0.1c0,0,0.1-0.1,0.1-0.1c0,0,0.1-0.1,0.1-0.1c0,0,0.1-0.1,0.1-0.1c0,0,0.1-0.1,0.1-0.1c0,0,0.1-0.1,0.1-0.1
					c0,0,0.1,0,0.1-0.1c0,0,0.1,0,0.1-0.1c0,0,0.1-0.1,0.1-0.1c0,0,0,0,0,0c0,0,0.1,0,0.1-0.1c0,0,0.1-0.1,0.1-0.1
					c0,0,0.1-0.1,0.1-0.1c0-0.1,0.1-0.1,0.1-0.2c0.1-0.1,0.1-0.2,0.1-0.3c0,0,0,0,0,0l0,0c0,0,0,0,0,0c0.2-0.3,0.1-0.5-0.2-0.7
					c-0.7,0-2-0.1-2-0.1c0,0,0,0,0,0c-1.6-0.7-2.5-2.1-2.5-2.1c0,0,0,0,0,0l-0.1-0.1c0,0,0,0,0,0c0,0,0,0,0,0c0,0,0,0,0,0
					c0,0,0,0,0,0c0,0,0,0,0,0h0c0,0,0,0,0,0c0,0,0,0,0,0c0,0,0,0,0,0c0,0,0,0,0,0c-0.3-2.4,2.9-4,2.9-4s-3.8,1.1-5,2.5l-0.2,0l0.2,0
					c0,0,0,0,0,0c0,0,0,0,0,0c0,0,0,0,0,0c0,0,0,0,0,0c0,0,0,0,0,0c0,0,0,0-0.1,0c-2.3-0.6-4.2,0.3-4.2,0.3c0,0,0,0,0,0c0,0,0,0,0,0
					c0,0,0,0,0,0c0,0,0,0,0,0c-0.3-0.2-0.6-0.4-0.9-0.8c3.2-4,8.2-6.5,13.7-6.5c4.3,0,8.2,1.5,11.2,4c-0.5-0.2-1-0.4-1.5-0.6
					c-1.6-0.5-3.4-0.7-5.5-0.8c0.9,0.2,1.7,0.4,2.4,0.7c0,0,0.1,0,0.1,0c0.9,0.4,1.5,1,1.8,1.6c-0.9-0.2-1.8-0.1-2.5,0.2
					C47,54.8,49.5,57.2,49.2,60.1z"/>
				<path class="st2" d="M16.9,61.7c0,0.2-0.1,0.4-0.1,0.6C16.8,62.1,16.9,61.7,16.9,61.7C16.9,61.7,16.9,61.7,16.9,61.7z"/>
				<path class="st2" d="M16.8,62.3C16.8,62.4,16.8,62.4,16.8,62.3C16.8,62.4,16.8,62.4,16.8,62.3C16.8,62.4,16.8,62.4,16.8,62.3z"
					/>
			</g>
		</g>
	</g>
</g>
</svg>
