<?xml version="1.0" encoding="utf-8"?>
<!-- Generator: Adobe Illustrator 21.1.0, SVG Export Plug-In . SVG Version: 6.00 Build 0)  -->
<svg version="1.1" id="Layer_1" xmlns="http://www.w3.org/2000/svg" xmlns:xlink="http://www.w3.org/1999/xlink" x="0px" y="0px"
	 viewBox="0 0 72 96" style="enable-background:new 0 0 72 96;" xml:space="preserve">
<style type="text/css">
	.st0{fill:#003399;}
	.st1{fill:#FFFFFF;}
</style>
<g>
	<path class="st0" d="M0,2l0,92c0,1.1,0.9,2,2,2h68c1.1,0,2-0.9,2-2V28H50c-1.1,0-2-0.9-2-2V0L2,0C0.9,0,0,0.9,0,2z"/>
	<path class="st0" d="M71.9,24c-0.1-0.4-0.2-0.7-0.4-1L52,1.2V24H71.9z"/>
</g>
<rect x="6" y="41" class="st1" width="60" height="49"/>
<g>
	<path class="st1" d="M9,13.6L5.5,6.4h3.6l1.1,2.9c0.3,0.9,0.6,1.8,0.6,1.8h0c0,0,0.2-0.9,0.6-1.8l1.2-2.9h3.6l-3.4,7.2l3.3,7.1
		h-3.5l-1.1-3c-0.4-0.9-0.6-1.7-0.6-1.7h0c0,0-0.2,0.8-0.6,1.7l-1.1,3H5.7L9,13.6z"/>
	<path class="st1" d="M18,16.7c0.6,0.6,1.4,1.2,2.3,1.2c0.9,0,1.3-0.6,1.3-1.2c0-2-4.8-2.1-4.8-6.2c0-2.4,1.7-4.3,4.5-4.3
		c1.2,0,2.4,0.3,3.4,1l-1.2,2.9c-0.5-0.4-1.4-0.9-2.2-0.9c-0.9,0-1.3,0.6-1.3,1.2c0,2.1,4.8,2,4.8,6.1c0,2.3-1.5,4.4-4.4,4.4
		c-1.4,0-2.9-0.5-4-1.4L18,16.7z"/>
	<path class="st1" d="M26.5,6.4H31c2.6,0,4.4,2,4.4,4.9c0,2.9-1.7,5-4.4,5h-1.2v4.4h-3.3V6.4z M30.4,13.4c1,0,1.6-0.9,1.6-2.1
		s-0.7-2-1.6-2h-0.7v4.1H30.4z"/>
	<path class="st1" d="M36.7,6.4h7.1v2.9H40v3.1h3.1v2.9H40v5.4h-3.3V6.4z"/>
</g>
<g>
	<path class="st0" d="M14.6,54.3h22.9c1.2,0,2.1-0.9,2.1-2.1s-0.9-2.1-2.1-2.1H14.6c-1.2,0-2.1,0.9-2.1,2.1S13.4,54.3,14.6,54.3z"/>
	<path class="st0" d="M14.6,65.4h22.9c1.2,0,2.1-0.9,2.1-2.1s-0.9-2.1-2.1-2.1H14.6c-1.2,0-2.1,0.9-2.1,2.1S13.4,65.4,14.6,65.4z"/>
	<path class="st0" d="M25.6,71.3h-11c-1.2,0-2.1,0.9-2.1,2.1s0.9,2.1,2.1,2.1h11c1.2,0,2.1-0.9,2.1-2.1S26.8,71.3,25.6,71.3z"/>
	<path class="st0" d="M52.5,53.8c-1.6-0.8-3.7-2-4.5-3.7c0-0.9-0.7-1.6-1.6-1.6c-0.9,0-1.6,0.7-1.6,1.6v21.5
		c-1.7-0.9-4.9-0.6-7.3,0.8c-3.8,2.1-5.4,6.1-3.8,8.8s6.1,3.3,9.9,1.2c2.6-1.5,4.4-3.9,4.5-6.3c0-6.2,0-12.3,0-18.5
		c5.4,0,8.7,2.2,7.5,7.5c-0.2,1-0.6,1.9-1,2.9l0,0c-0.2,0.3-0.2,0.7,0.1,1c0.3,0.3,0.8,0.2,1.2-0.2c2-2,3.3-4.6,3.4-7.5
		C59.2,57.5,55.6,55.3,52.5,53.8z"/>
</g>
</svg>
