<svg xmlns="http://www.w3.org/2000/svg" viewBox="0 0 72 96"><style type="text/css">  
	.st0{fill:#CCCCCC;}
	.st1{fill:#333333;}
	.st2{fill:#999999;}
</style><path class="st0" d="M0 2l0 92c0 1.1 0.9 2 2 2h68c1.1 0 2-0.9 2-2V28H50c-1.1 0-2-0.9-2-2V0L2 0C0.9 0 0 0.9 0 2z"/><path class="st0" d="M71.9 24c-0.1-0.4-0.2-0.7-0.4-1L52 1.2V24H71.9z"/><path class="st1" d="M22.8 70.4h3.6L30 84.7h-3.3l-0.6-3h-3l-0.6 3h-3.3L22.8 70.4zM25.6 79L25 76.1c-0.2-0.9-0.4-2.5-0.4-2.5h-0.1c0 0-0.2 1.5-0.4 2.5L23.6 79H25.6z"/><path class="st1" d="M33.2 80.7c0.6 0.6 1.4 1.2 2.3 1.2 0.9 0 1.3-0.6 1.3-1.2 0-2-4.8-2.1-4.8-6.2 0-2.4 1.7-4.3 4.5-4.3 1.2 0 2.4 0.3 3.4 1l-1.2 2.9c-0.5-0.4-1.4-0.9-2.2-0.9 -0.9 0-1.3 0.6-1.3 1.2 0 2.1 4.8 2 4.8 6.1 0 2.3-1.5 4.4-4.4 4.4 -1.4 0-2.9-0.5-4-1.4L33.2 80.7z"/><path class="st1" d="M49 70.2c1.3 0 2.6 0.4 3.6 1.2l-1.4 2.8c-0.4-0.5-1.3-0.9-2.1-0.9 -2.1 0-3.2 1.9-3.2 4.2 0 2.3 1.2 4.4 3.2 4.4 1 0 1.7-0.5 2.3-1l1.4 2.8c-0.9 0.7-2 1.3-3.9 1.3 -4 0-6.3-3.1-6.3-7.4C42.6 73.2 45 70.2 49 70.2z"/><path class="st2" d="M0 94L0 2c0-1.1 0.9-2 2-2l48 0c0.6 0 1.1 0.2 1.5 0.7l20 22.3c0.3 0.4 0.5 0.8 0.5 1.3V94c0 1.1-0.9 2-2 2H2C0.9 96 0 95.1 0 94zM68 25.1L49.1 4H4v88h64V25.1z"/><path class="st2" d="M48 26V4c0-1.1 0.9-2 2-2s2 0.9 2 2v20h16c1.1 0 2 0.9 2 2s-0.9 2-2 2H50C48.9 28 48 27.1 48 26z"/></svg>