<svg xmlns="http://www.w3.org/2000/svg" viewBox="0 0 72 96"><style type="text/css">  
	.st0{fill:#AA5E3A;}
	.st1{fill:#FFFFFF;}
</style><path class="st0" d="M0 2v92c0 1.1 0.9 2 2 2h68c1.1 0 2-0.9 2-2V28H50c-1.1 0-2-0.9-2-2V0H2C0.9 0 0 0.9 0 2z"/><path class="st0" d="M71.9 24c-0.1-0.4-0.2-0.7-0.4-1L52 1.2V24H71.9z"/><path class="st1" d="M6 41h60v49H6V41zM9 6.4h3.6l3.6 14.3h-3.3l-0.6-3h-3l-0.6 3H5.4L9 6.4zM11.8 15l-0.6-2.8c-0.2-0.9-0.4-2.5-0.4-2.5h-0.1c0 0-0.2 1.5-0.4 2.5L9.8 15H11.8zM19.4 16.7c0.6 0.6 1.4 1.2 2.3 1.2s1.3-0.6 1.3-1.2c0-2-4.8-2.1-4.8-6.2 0-2.4 1.7-4.3 4.5-4.3 1.2 0 2.4 0.3 3.4 1l-1.2 2.9c-0.5-0.4-1.4-0.9-2.2-0.9 -0.9 0-1.3 0.6-1.3 1.2 0 2.1 4.8 2 4.8 6.1 0 2.3-1.5 4.4-4.4 4.4 -1.4 0-2.9-0.5-4-1.4C17.8 19.5 19.4 16.7 19.4 16.7zM29.4 6.4h4.5c2.6 0 4.4 2 4.4 4.9s-1.7 5-4.4 5h-1.2v4.4h-3.3C29.4 20.7 29.4 6.4 29.4 6.4zM33.3 13.4c1 0 1.6-0.9 1.6-2.1s-0.7-2-1.6-2h-0.7v4.1C32.6 13.4 33.3 13.4 33.3 13.4z"/><path class="st0" d="M30.1 67.5c-1.1 0.9-2.2 1.7-3.3 2.5l-6.6 5.1c-0.3 0.2-0.5 0.3-0.8 0.1 -0.5-0.3-0.9-0.5-1.4-0.7 -0.3-0.1-0.4-0.3-0.4-0.6V56.3c0-0.2 0.2-0.5 0.3-0.6 0.5-0.3 1-0.5 1.6-0.8 0.3-0.1 0.5 0 0.7 0.1 1.8 1.4 3.6 2.8 5.5 4.2 1.5 1.1 3 2.3 4.5 3.4l0.3-0.3C36 57 41.4 51.7 46.9 46.4c0.3-0.3 0.5-0.3 0.9-0.2 2.3 0.9 4.6 1.9 6.9 2.8 0.2 0.1 0.3 0.3 0.4 0.5 0.1 0.1 0 0.3 0 0.4v30.2c0 0.7 0 0.7-0.7 1 -2.2 0.9-4.4 1.7-6.6 2.6 -0.4 0.2-0.6 0.1-0.9-0.2C41.4 78.5 36 73.2 30.5 68 30.4 67.8 30.3 67.7 30.1 67.5zM45.8 72.3V57.9l-9.6 7.2C36.2 65.1 45.8 72.3 45.8 72.3zM25.7 65.1c-1.6-1.4-3.2-2.8-4.8-4.3v8.6C22.5 68 24.1 66.6 25.7 65.1z"/></svg>