<svg id="Layer_1" xmlns="http://www.w3.org/2000/svg" viewBox="0 0 72 96"><style>.st0{fill:#999}.st1{fill:#fff}</style><path class="st0" d="M0 2v92c0 1.1.9 2 2 2h68c1.1 0 2-.9 2-2V28H50c-1.1 0-2-.9-2-2V0H2C.9 0 0 .9 0 2z"/><path class="st0" d="M71.9 24c-.1-.4-.2-.7-.4-1L52 1.2V24h19.9z"/><path class="st1" d="M6 41h60v49H6zm.5-34.6h3.8c2.2 0 3.8 1.3 3.8 3.7 0 1.2-.5 2.4-1.5 3 1.5.5 1.9 1.9 1.9 3.2 0 3.1-1.8 4.3-4 4.3h-4V6.4zm3.8 5.6c.6 0 .8-.6.8-1.4s-.3-1.3-.9-1.3h-.7V12h.8zm.1 5.8c.7 0 1-.7 1-1.6 0-.9-.3-1.5-1-1.5h-.9v3.1h.9zM18 6.4h3.2l3.2 14.3h-3l-.5-3h-2.7l-.5 3h-3L18 6.4zm2.5 8.6l-.5-2.9c-.2-.9-.4-2.5-.4-2.5h-.1s-.2 1.5-.4 2.5l-.4 2.9h1.8zm5.4 1.7c.5.6 1.3 1.2 2.1 1.2s1.2-.6 1.2-1.2c0-2-4.3-2.1-4.3-6.2 0-2.4 1.5-4.3 4.1-4.3 1.1 0 2.2.3 3.1 1L31 10.1c-.4-.4-1.3-.9-1.9-.9-.8 0-1.2.6-1.2 1.2 0 2.1 4.3 2 4.3 6.1 0 2.3-1.3 4.4-4 4.4-1.3 0-2.6-.5-3.6-1.4l1.3-2.8zm7.7-10.3h3v5.8h2.9V6.4h2.9v14.3h-2.9V15h-2.9v5.7h-3V6.4z"/><path class="st0" d="M54.8 46.8h-38v38h38v-38zm-30.4 7.5h-3.8v-3.8h3.8v3.8zm26.6 0H28.1v-3.8H51v3.8zm0 26.6H20.5V58.2H51v22.7z"/><path class="st0" d="M26.5 61.4l-2.7 2.7 4.4 4.4-4.4 4.3 2.7 2.7 7.1-7zm6.3 12.8h7.6V78h-7.6z"/></svg>