<svg id="Layer_1" xmlns="http://www.w3.org/2000/svg" viewBox="0 0 72 96"><style>.st0{fill:#999}.st1{fill:#fff}.st2{fill:#999;stroke:#999;stroke-width:.75;stroke-miterlimit:10}</style><path class="st0" d="M0 2v92c0 1.1.9 2 2 2h68c1.1 0 2-.9 2-2V28H50c-1.1 0-2-.9-2-2V0H2C.9 0 0 .9 0 2z"/><path class="st0" d="M71.9 24c-.1-.4-.2-.7-.4-1L52 1.2V24h19.9z"/><path class="st1" d="M6 41h60v49H6zm.6-34.6h4.2c2.5 0 4.2 1.3 4.2 3.7 0 1.2-.5 2.4-1.7 3 1.6.5 2.1 1.9 2.1 3.2 0 3.1-2 4.3-4.4 4.3H6.6V6.4zm4.2 5.6c.6 0 .9-.6.9-1.4s-.3-1.3-1-1.3h-.8V12h.9zm.2 5.8c.8 0 1.2-.7 1.2-1.6 0-.9-.3-1.5-1.1-1.5H9.9v3.1H11zm7.6-11.4h3.3v14.3h-3.3V6.4zm6.9 0H29l2.4 6.6c.4 1 .7 2.4.7 2.4h.1S32 13.9 32 13V6.4h3.1v14.3h-3.4l-2.5-6.6c-.4-1-.7-2.4-.7-2.4h-.1s.2 1.5.2 2.4v6.6h-3.1V6.4z"/><path class="st2" d="M22.2 53.4h.9c.3 0 .4 0 .6.1.1.1.2.2.2.4s-.1.3-.2.4c-.1.1-.3.1-.6.1h-3.4c-.3 0-.5 0-.6-.1-.1 0-.1-.2-.1-.4s.1-.3.2-.4c.1-.1.3-.1.6-.1h1.1V49l-.7.2h-.4c-.2 0-.3 0-.4-.1-.1-.1-.1-.2-.1-.4 0-.1 0-.2.1-.3.1-.1.2-.1.4-.2l1.4-.4c.1 0 .2 0 .3-.1h.2c.2 0 .3 0 .3.1.1.1.1.2.1.4v5.2zm8.9-5.7c.9 0 1.6.3 2.1.9.5.6.8 1.5.8 2.5 0 1.1-.3 1.9-.8 2.5-.5.6-1.2.9-2.1.9-.9 0-1.6-.3-2.1-.9-.5-.6-.8-1.5-.8-2.5 0-1.1.3-1.9.8-2.5.5-.6 1.2-.9 2.1-.9zm0 1.2c-.4 0-.7.2-1 .6-.2.4-.4 1-.4 1.7s.1 1.3.4 1.7c.2.4.6.6 1 .6s.7-.2 1-.6c.2-.4.4-1 .4-1.7s-.1-1.3-.4-1.7c-.3-.4-.6-.6-1-.6zm10.7 4.5h.9c.3 0 .4 0 .6.1.1.1.2.2.2.4s-.1.3-.2.4c-.1.1-.3.1-.6.1h-3.4c-.3 0-.5 0-.6-.1s-.2-.2-.2-.4.1-.3.2-.4c.1-.1.3-.1.6-.1h1.1V49l-.7.2h-.4c-.2 0-.3 0-.4-.1-.1-.1-.1-.2-.1-.4 0-.1 0-.2.1-.3.1-.1.2-.1.4-.2l1.4-.4c.1 0 .2 0 .3-.1h.2c.2 0 .3 0 .3.1.1.1.1.2.1.4v5.2zm9.8 0h.9c.3 0 .4 0 .6.1.1.1.2.2.2.4s-.1.3-.2.4-.3.1-.6.1h-3.4c-.3 0-.5 0-.6-.1-.1-.1-.2-.2-.2-.4s.1-.3.2-.4c.1-.1.3-.1.6-.1h1.1V49l-.7.2h-.4c-.2 0-.3 0-.4-.1-.1-.1-.1-.2-.1-.4 0-.1 0-.2.1-.3.1-.1.2-.1.4-.2l1.4-.4c.1 0 .2 0 .3-.1h.2c.2 0 .3 0 .3.1.1.1.1.2.1.4v5.2zm-30.3 4c.9 0 1.6.3 2.1.9.5.6.8 1.5.8 2.5 0 1.1-.3 1.9-.8 2.5-.5.6-1.2.9-2.1.9-.9 0-1.6-.3-2.1-.9-.5-.6-.8-1.5-.8-2.5 0-1.1.3-1.9.8-2.5.5-.6 1.2-.9 2.1-.9zm0 1.2c-.4 0-.7.2-1 .6-.2.4-.4 1-.4 1.7s.1 1.3.4 1.7c.2.4.6.6 1 .6s.7-.2 1-.6c.2-.4.4-1 .4-1.7s-.1-1.3-.4-1.7c-.2-.4-.6-.6-1-.6zM32 63.1h.9c.3 0 .4 0 .6.1.1.1.2.2.2.4s-.1.3-.2.4c-.1.1-.3.1-.6.1h-3.4c-.3 0-.5 0-.6-.1-.1-.1-.2-.2-.2-.4s.1-.3.2-.4c.1-.1.3-.1.6-.1h1.1v-4.4l-.7.2h-.4c-.2 0-.3 0-.4-.1-.1-.1-.1-.2-.1-.4 0-.1 0-.2.1-.3.1-.1.2-.1.4-.2l1.4-.4c.1 0 .2 0 .3-.1h.2c.2 0 .3 0 .3.1.1.1.1.2.1.4v5.2zm8.9-5.7c.9 0 1.6.3 2.1.9.5.6.8 1.5.8 2.5 0 1.1-.3 1.9-.8 2.5-.5.6-1.2.9-2.1.9-.9 0-1.6-.3-2.1-.9-.5-.5-.8-1.3-.8-2.4 0-1.1.3-1.9.8-2.5.5-.7 1.2-1 2.1-1zm0 1.2c-.4 0-.7.2-1 .6-.2.4-.4 1-.4 1.7s.1 1.3.4 1.7c.2.4.6.6 1 .6s.7-.2 1-.6c.2-.4.4-1 .4-1.7s-.1-1.3-.4-1.7c-.3-.4-.6-.6-1-.6zm10.7 4.5h.9c.3 0 .4 0 .6.1s.2.2.2.4-.1.3-.2.4c-.1.1-.3.1-.6.1h-3.4c-.3 0-.5 0-.6-.1-.1-.1-.2-.2-.2-.4s.1-.3.2-.4c.1-.1.3-.1.6-.1h1.1v-4.4l-.7.2h-.4c-.2 0-.3 0-.4-.1-.1-.1-.1-.2-.1-.4 0-.1 0-.2.1-.3s.2-.1.4-.2l1.4-.4c.1 0 .2 0 .3-.1h.2c.2 0 .3 0 .3.1.1.1.1.2.1.4v5.2zm-30.3 4c.9 0 1.6.3 2.1.9.5.6.8 1.5.8 2.5 0 1.1-.3 1.9-.8 2.5-.5.6-1.2.9-2.1.9-.9 0-1.6-.3-2.1-.9-.5-.6-.8-1.5-.8-2.5 0-1.1.3-1.9.8-2.5.5-.6 1.2-.9 2.1-.9zm0 1.2c-.4 0-.7.2-1 .6-.2.4-.4 1-.4 1.7s.1 1.3.4 1.7c.2.4.6.6 1 .6s.7-.2 1-.6c.2-.4.4-1 .4-1.7s-.1-1.3-.4-1.7c-.2-.4-.6-.6-1-.6zM32 72.8h.9c.3 0 .4 0 .6.1.1.1.2.2.2.4s-.1.3-.2.4c-.1.1-.3.1-.6.1h-3.4c-.3 0-.5 0-.6-.1-.1-.1-.2-.2-.2-.4s.1-.3.2-.4c.1-.1.3-.1.6-.1h1.1v-4.4l-.7.2h-.4c-.2 0-.3 0-.4-.1 0-.2-.1-.3-.1-.5 0-.1 0-.2.1-.3.1-.1.2-.1.4-.2l1.4-.4c.1 0 .2 0 .3-.1h.2c.2 0 .3 0 .3.1.1.1.1.2.1.4v5.3zm9.8 0h.9c.3 0 .4 0 .6.1.1.1.2.2.2.4s-.1.3-.2.4c-.1.1-.3.1-.6.1h-3.4c-.3 0-.5 0-.6-.1-.1-.1-.2-.2-.2-.4s.1-.3.2-.4c.1-.1.3-.1.6-.1h1.1v-4.4l-.7.2h-.4c-.2 0-.3 0-.4-.1-.1-.1-.1-.2-.1-.4 0-.1 0-.2.1-.3.1-.1.2-.1.4-.2l1.4-.4c.1 0 .2 0 .3-.1h.2c.2 0 .3 0 .3.1.1.1.1.2.1.4v5.2zm8.9-5.7c.9 0 1.6.3 2.1.9.5.6.8 1.5.8 2.5 0 1.1-.3 1.9-.8 2.5-.5.6-1.2.9-2.1.9-.9 0-1.6-.3-2.1-.9-.5-.6-.8-1.5-.8-2.5 0-1.1.3-1.9.8-2.5.5-.6 1.2-.9 2.1-.9zm0 1.2c-.4 0-.7.2-1 .6-.2.4-.4 1-.4 1.7s.1 1.3.4 1.7c.2.4.6.6 1 .6s.7-.2 1-.6c.2-.4.4-1 .4-1.7s-.1-1.3-.4-1.7c-.3-.4-.6-.6-1-.6zM22.2 82.5h.9c.3 0 .4 0 .6.1.1.1.2.2.2.4s-.1.3-.2.4c-.1.1-.3.1-.6.1h-3.4c-.3 0-.5 0-.6-.1-.1-.1-.1-.2-.1-.4s.1-.3.2-.4c.1-.1.3-.1.6-.1h1.1V78l-.7.2h-.4c-.2 0-.3 0-.4-.1-.1-.1-.1-.2-.1-.4 0-.1 0-.2.1-.3.1-.1.2-.1.4-.2l1.4-.4c.1 0 .2 0 .3-.1h.2c.2 0 .3 0 .3.1.1.1.1.2.1.4v5.3zm8.9-5.7c.9 0 1.6.3 2.1.9.5.6.8 1.5.8 2.5 0 1.1-.3 1.9-.8 2.5-.5.6-1.2.9-2.1.9-.9 0-1.6-.3-2.1-.9-.5-.6-.8-1.5-.8-2.5 0-1.1.3-1.9.8-2.5.5-.6 1.2-.9 2.1-.9zm0 1.2c-.4 0-.7.2-1 .6-.2.4-.4 1-.4 1.7s.1 1.3.4 1.7c.2.4.6.6 1 .6s.7-.2 1-.6c.2-.4.4-1 .4-1.7s-.1-1.3-.4-1.7c-.3-.4-.6-.6-1-.6zm9.8-1.2c.9 0 1.6.3 2.1.9.5.6.8 1.5.8 2.5 0 1.1-.3 1.9-.8 2.5-.5.6-1.2.9-2.1.9-.9 0-1.6-.3-2.1-.9-.5-.6-.8-1.5-.8-2.5 0-1.1.3-1.9.8-2.5.5-.6 1.2-.9 2.1-.9zm0 1.2c-.4 0-.7.2-1 .6-.2.4-.4 1-.4 1.7s.1 1.3.4 1.7c.2.4.6.6 1 .6s.7-.2 1-.6c.2-.4.4-1 .4-1.7s-.1-1.3-.4-1.7c-.3-.4-.6-.6-1-.6zm10.7 4.5h.9c.3 0 .4 0 .6.1.1.1.2.2.2.4s-.1.3-.2.4c-.1.1-.3.1-.6.1h-3.4c-.3 0-.5 0-.6-.1-.1-.1-.2-.2-.2-.4s.1-.3.2-.4c.1-.1.3-.1.6-.1h1.1V78l-.7.2h-.4c-.2 0-.3 0-.4-.1-.1-.1-.1-.2-.1-.4 0-.1 0-.2.1-.3.1-.1.2-.1.4-.2l1.4-.4c.1 0 .2 0 .3-.1h.2c.2 0 .3 0 .3.1.1.1.1.2.1.4v5.3z"/></svg>