<svg xmlns="http://www.w3.org/2000/svg" viewBox="0 0 72 96"><style type="text/css">  
	.st0{fill:#999999;}
	.st1{fill:#FFFFFF;}
	.st2{fill:#999999;stroke:#999999;stroke-miterlimit:10;}
</style><path class="st0" d="M0 2l0 92c0 1.1 0.9 2 2 2h68c1.1 0 2-0.9 2-2V28H50c-1.1 0-2-0.9-2-2V0L2 0C0.9 0 0 0.9 0 2z"/><path class="st0" d="M71.9 24c-0.1-0.4-0.2-0.7-0.4-1L52 1.2V24H71.9z"/><rect x="6" y="41" class="st1" width="60" height="49"/><path class="st1" d="M6.6 6.4h4.2c2.5 0 4.2 1.3 4.2 3.7 0 1.2-0.5 2.4-1.7 3v0c1.6 0.5 2.1 1.9 2.1 3.2 0 3.1-2 4.3-4.4 4.3H6.6V6.4zM10.8 12c0.6 0 0.9-0.6 0.9-1.4s-0.3-1.3-1-1.3H9.9V12H10.8zM11 17.8c0.8 0 1.2-0.7 1.2-1.6 0-0.9-0.3-1.5-1.1-1.5H9.9v3.1H11z"/><path class="st1" d="M18.6 6.4h3.3v14.3h-3.3V6.4z"/><path class="st1" d="M25.5 6.4H29l2.4 6.6c0.4 1 0.7 2.4 0.7 2.4h0.1c0 0-0.2-1.5-0.2-2.4V6.4h3.1v14.3h-3.4l-2.5-6.6c-0.4-1-0.7-2.4-0.7-2.4h-0.1c0 0 0.2 1.5 0.2 2.4v6.6h-3.1V6.4z"/><path class="st2" d="M35.8 49.7c-2.9 0-5.4 2.8-5.4 6.2 0 3.4 2.4 6.2 5.4 6.2 2.9 0 5.4-2.8 5.4-6.2C41.2 52.5 38.8 49.7 35.8 49.7zM35.8 59.8c-1.6 0-3-1.7-3-3.9 0-2.1 1.3-3.9 3-3.9s3 1.7 3 3.9C38.8 58.1 37.5 59.8 35.8 59.8z"/><path class="st2" d="M25 61V50.9c0-0.7-0.5-1.2-1.2-1.2s-1.2 0.5-1.2 1.2V61c0 0.7 0.5 1.2 1.2 1.2S25 61.6 25 61z"/><path class="st2" d="M23.9 67.9c-2.9 0-5.4 2.8-5.4 6.2 0 3.4 2.4 6.2 5.4 6.2s5.4-2.8 5.4-6.2C29.2 70.8 26.8 67.9 23.9 67.9zM23.9 78.1c-1.6 0-3-1.7-3-3.9 0-2.1 1.3-3.9 3-3.9s3 1.7 3 3.9C26.8 76.3 25.5 78.1 23.9 78.1z"/><path class="st2" d="M37 79.2V69.1c0-0.7-0.5-1.2-1.2-1.2s-1.2 0.5-1.2 1.2v10.1c0 0.7 0.5 1.2 1.2 1.2S37 79.9 37 79.2z"/><path class="st2" d="M49.3 61.9V51.8c0-0.7-0.5-1.2-1.2-1.2S47 51.1 47 51.8v10.1c0 0.7 0.5 1.2 1.2 1.2S49.3 62.5 49.3 61.9z"/><path class="st2" d="M48.1 68.8c-2.9 0-5.4 2.8-5.4 6.2 0 3.4 2.4 6.2 5.4 6.2 2.9 0 5.4-2.8 5.4-6.2C53.5 71.6 51.1 68.8 48.1 68.8zM48.1 78.9c-1.6 0-3-1.7-3-3.9 0-2.1 1.3-3.9 3-3.9s3 1.7 3 3.9C51.1 77.2 49.8 78.9 48.1 78.9z"/></svg>