<svg id="Layer_1" xmlns="http://www.w3.org/2000/svg" viewBox="0 0 72 96"><style>.st0{fill:#ccc}.st1{fill:#999}.st2{fill:#333}</style><path class="st0" d="M0 2v92c0 1.1.9 2 2 2h68c1.1 0 2-.9 2-2V28H50c-1.1 0-2-.9-2-2V0H2C.9 0 0 .9 0 2z"/><path class="st1" d="M57.2 1059.1l-19.3 2.6v15.3h19.3v-17.9zm-22.8 3l-19.3 2.6v12.3h19.3v-14.9zm-19.2 18.4v12.3l19.3 2.6v-14.8l-19.3-.1zm22.7 0v15.3l19.3 2.6v-17.9H37.9z" transform="translate(0 -1036.362)"/><path class="st0" d="M71.9 24c-.1-.4-.2-.7-.4-1L52 1.2V24h19.9z"/><path class="st2" d="M7.7 70.4h3.1c1.9 0 3.2 1.3 3.2 3.7 0 1.2-.4 2.4-1.2 3 1.2.5 1.6 1.9 1.6 3.2 0 3.1-1.5 4.3-3.3 4.3H7.7V70.4zm3.1 5.6c.5 0 .7-.6.7-1.4 0-.7-.2-1.3-.7-1.3h-.6V76h.6zm.2 5.8c.6 0 .9-.7.9-1.6 0-.9-.2-1.5-.8-1.5h-.9v3.1h.8zm4.5-11.4h3.4c.4 0 1 .1 1.4.4 1.1.6 1.8 2.1 1.8 4 0 1.7-.6 3.3-1.5 4 0 0 .1.2.4.9l1.7 5H20l-1.5-4.8H18v4.8h-2.5V70.4zm3 6.6c.6 0 1.2-.7 1.2-1.9 0-.7-.2-1.2-.4-1.5-.2-.2-.5-.3-.6-.3H18V77h.5zm9-6.8c2.8 0 4.4 3.1 4.4 7.3 0 4.2-1.6 7.5-4.4 7.5s-4.4-3.2-4.4-7.5c.1-4.2 1.6-7.3 4.4-7.3zm0 11.6c1.3 0 1.8-1.8 1.8-4.3s-.6-4.2-1.8-4.2-1.9 1.7-1.9 4.2c.1 2.5.7 4.3 1.9 4.3zm4.8-11.4h2.4l.9 8.9c.1.7.1 1.6.1 1.6h.1s0-.9.1-1.6l1-8.9h2.3l1 8.9c.1.7.1 1.6.1 1.6h.1s0-.9.1-1.6l.9-8.9h2.4l-1.9 14.3h-2.8l-.8-7.2c-.3-.9-.3-1.7-.3-1.7s0 .8-.1 1.7l-.9 7.2h-2.8l-1.9-14.3zM45 80.7c.4.6 1 1.2 1.7 1.2s1-.6 1-1.2c0-2-3.6-2.1-3.6-6.2 0-2.4 1.3-4.3 3.4-4.3.9 0 1.8.3 2.6 1l-.9 2.9c-.4-.4-1.1-.9-1.6-.9-.7 0-1 .6-1 1.2 0 2.1 3.6 2 3.6 6.1 0 2.3-1.1 4.4-3.3 4.4-1 0-2.2-.5-3-1.4l1.1-2.8zm6.3-10.3h5.4v2.9h-2.9V76h2.3v2.9h-2.3v2.9h3.1v2.9h-5.5V70.4zm6.8 0h3.4c.4 0 1 .1 1.4.4 1.1.6 1.8 2.1 1.8 4 0 1.7-.6 3.3-1.5 4 0 0 .2.2.4.9l1.7 5h-2.7l-1.5-4.8h-.6v4.8H58V70.4zM61 77c.6 0 1.2-.7 1.2-1.9 0-.7-.2-1.2-.4-1.5-.2-.2-.4-.3-.6-.3h-.6V77h.4z"/><path class="st1" d="M0 94V2C0 .9.9 0 2 0h48c.6 0 1.1.2 1.5.7l20 22.3c.3.4.5.8.5 1.3V94c0 1.1-.9 2-2 2H2c-1.1 0-2-.9-2-2zm68-68.9L49.1 4H4v88h64V25.1z"/><path class="st1" d="M48 26V4c0-1.1.9-2 2-2s2 .9 2 2v20h16c1.1 0 2 .9 2 2s-.9 2-2 2H50c-1.1 0-2-.9-2-2z"/></svg>