<svg xmlns="http://www.w3.org/2000/svg" viewBox="0 0 72 96"><style>.st0{fill:#ccc}.st1{fill:#999}</style><path class="st0" d="M0 2v92c0 1.1.9 2 2 2h68c1.1 0 2-.9 2-2V28H50c-1.1 0-2-.9-2-2V0H2C.9 0 0 .9 0 2z"/><path class="st1" d="M42.3 35.7c0-2.5-1.5-4.5-3.7-5.4V23c0-1.2-.9-2.1-2.1-2.1s-2.1.9-2.1 2.1v7.3c-2.2.8-3.7 2.9-3.7 5.4s1.5 4.6 3.7 5.4c0 .1-.1.3-.1.4v18.4c0 1.2.9 2.1 2.1 2.1s2.1-.9 2.1-2.1V41.5c0-.2 0-.3-.1-.4 2.4-.8 3.9-2.9 3.9-5.4zm-5.8 1.6c-.9 0-1.6-.7-1.6-1.6s.7-1.6 1.6-1.6 1.6.7 1.6 1.6-.7 1.6-1.6 1.6zm16.8-14.2c0-1.2-.9-2.1-2.1-2.1s-2.1.9-2.1 2.1v17.2c-2.2.8-3.7 2.9-3.7 5.4s1.5 4.6 3.7 5.4c0 .1-.1.3-.1.4v8.4c0 1.2.9 2.1 2.1 2.1s2.1-.9 2.1-2.1v-8.4c0-.2 0-.3-.1-.4 2.2-.8 3.7-2.9 3.7-5.4s-1.5-4.5-3.7-5.4V23.1h.2zm-2.1 24.2c-.9 0-1.6-.7-1.6-1.6s.7-1.6 1.6-1.6 1.6.7 1.6 1.6-.7 1.6-1.6 1.6zM19.7 59.9c0 1.2.9 2.1 2.1 2.1s2.1-.9 2.1-2.1v-8.4c0-.2 0-.3-.1-.4 2.2-.8 3.7-2.9 3.7-5.4s-1.5-4.5-3.7-5.4V23.1c0-1.2-.9-2.1-2.1-2.1s-2.1.9-2.1 2.1v17.2c-2.2.8-3.7 2.9-3.7 5.4s1.5 4.6 3.7 5.4c0 .1-.1.3-.1.4v8.4h.2zm2.1-15.8c.9 0 1.6.7 1.6 1.6s-.7 1.6-1.6 1.6-1.6-.7-1.6-1.6.7-1.6 1.6-1.6z"/><path class="st0" d="M71.9 24c-.1-.4-.2-.7-.4-1L52 1.2V24h19.9z"/><path d="M25.8 70.2c1.3 0 2.6.4 3.6 1.2L28 74.2c-.4-.5-1.3-.9-2.1-.9-2.1 0-3.2 1.9-3.2 4.2 0 2.3 1.2 4.4 3.2 4.4 1 0 1.7-.5 2.3-1l1.4 2.8c-.9.7-2 1.3-3.9 1.3-4 0-6.3-3.1-6.3-7.4 0-4.4 2.4-7.4 6.4-7.4zm6.5.2h7.1v2.9h-3.8v3.1h3.1v2.9h-3.1v5.4h-3.3V70.4zm15.8-.2c1.4 0 2.9.4 3.9 1.3l-1.4 2.8c-.6-.6-1.4-.9-2.3-.9-2.2 0-3.2 1.9-3.2 4.2 0 2.6 1.2 4.3 2.9 4.3.6 0 1.3-.2 1.7-.6v-1.7h-1.5v-2.9h4.3v8.1h-2.6v-.9c-.5.7-1.6 1.2-2.7 1.2-2.8 0-5.6-2.7-5.6-7.3.2-4.6 2.6-7.6 6.5-7.6z" fill="#333"/><path class="st1" d="M0 94V2C0 .9.9 0 2 0h48c.6 0 1.1.2 1.5.7l20 22.3c.3.4.5.8.5 1.3V94c0 1.1-.9 2-2 2H2c-1.1 0-2-.9-2-2zm68-68.9L49.1 4H4v88h64V25.1z"/><path class="st1" d="M48 26V4c0-1.1.9-2 2-2s2 .9 2 2v20h16c1.1 0 2 .9 2 2s-.9 2-2 2H50c-1.1 0-2-.9-2-2z"/></svg>