<svg xmlns="http://www.w3.org/2000/svg" viewBox="0 0 72 96"><style type="text/css">  
	.st0{fill:#CCCCCC;}
	.st1{fill:#999999;}
	.st2{fill:#333333;}
</style><path class="st0" d="M0 2l0 92c0 1.1 0.9 2 2 2h68c1.1 0 2-0.9 2-2V28H50c-1.1 0-2-0.9-2-2V0L2 0C0.9 0 0 0.9 0 2z"/><path class="st1" d="M42.3 35.7c0-2.5-1.5-4.5-3.7-5.4V23c0-1.2-0.9-2.1-2.1-2.1s-2.1 0.9-2.1 2.1v7.3c-2.2 0.8-3.7 2.9-3.7 5.4s1.5 4.6 3.7 5.4c0 0.1-0.1 0.3-0.1 0.4v18.4c0 1.2 0.9 2.1 2.1 2.1s2.1-0.9 2.1-2.1V41.5c0-0.2 0-0.3-0.1-0.4C40.8 40.3 42.3 38.2 42.3 35.7zM36.5 37.3c-0.9 0-1.6-0.7-1.6-1.6s0.7-1.6 1.6-1.6 1.6 0.7 1.6 1.6S37.4 37.3 36.5 37.3zM53.3 23.1c0-1.2-0.9-2.1-2.1-2.1s-2.1 0.9-2.1 2.1v17.2c-2.2 0.8-3.7 2.9-3.7 5.4s1.5 4.6 3.7 5.4c0 0.1-0.1 0.3-0.1 0.4v8.4c0 1.2 0.9 2.1 2.1 2.1s2.1-0.9 2.1-2.1v-8.4c0-0.2 0-0.3-0.1-0.4 2.2-0.8 3.7-2.9 3.7-5.4s-1.5-4.5-3.7-5.4V23.1L53.3 23.1zM51.2 47.3c-0.9 0-1.6-0.7-1.6-1.6s0.7-1.6 1.6-1.6 1.6 0.7 1.6 1.6S52.1 47.3 51.2 47.3zM19.7 59.9c0 1.2 0.9 2.1 2.1 2.1s2.1-0.9 2.1-2.1v-8.4c0-0.2 0-0.3-0.1-0.4 2.2-0.8 3.7-2.9 3.7-5.4s-1.5-4.5-3.7-5.4V23.1c0-1.2-0.9-2.1-2.1-2.1s-2.1 0.9-2.1 2.1v17.2c-2.2 0.8-3.7 2.9-3.7 5.4s1.5 4.6 3.7 5.4c0 0.1-0.1 0.3-0.1 0.4v8.4L19.7 59.9zM21.8 44.1c0.9 0 1.6 0.7 1.6 1.6s-0.7 1.6-1.6 1.6 -1.6-0.7-1.6-1.6S20.9 44.1 21.8 44.1z"/><path class="st0" d="M71.9 24c-0.1-0.4-0.2-0.7-0.4-1L52 1.2V24H71.9z"/><path class="st2" d="M25.8 70.2c1.3 0 2.6 0.4 3.6 1.2L28 74.2c-0.4-0.5-1.3-0.9-2.1-0.9 -2.1 0-3.2 1.9-3.2 4.2 0 2.3 1.2 4.4 3.2 4.4 1 0 1.7-0.5 2.3-1l1.4 2.8c-0.9 0.7-2 1.3-3.9 1.3 -4 0-6.3-3.1-6.3-7.4C19.4 73.2 21.8 70.2 25.8 70.2z"/><path class="st2" d="M32.3 70.4h7.1v2.9h-3.8v3.1h3.1v2.9h-3.1v5.4h-3.3V70.4z"/><path class="st2" d="M48.1 70.2c1.4 0 2.9 0.4 3.9 1.3l-1.4 2.8c-0.6-0.6-1.4-0.9-2.3-0.9 -2.2 0-3.2 1.9-3.2 4.2 0 2.6 1.2 4.3 2.9 4.3 0.6 0 1.3-0.2 1.7-0.6v-1.7h-1.5v-2.9h4.3v8.1h-2.6v-0.4c0-0.2 0-0.5 0-0.5h0c-0.5 0.7-1.6 1.2-2.7 1.2 -2.8 0-5.6-2.7-5.6-7.3C41.8 73.2 44.2 70.2 48.1 70.2z"/><path class="st1" d="M0 94L0 2c0-1.1 0.9-2 2-2l48 0c0.6 0 1.1 0.2 1.5 0.7l20 22.3c0.3 0.4 0.5 0.8 0.5 1.3V94c0 1.1-0.9 2-2 2H2C0.9 96 0 95.1 0 94zM68 25.1L49.1 4H4v88h64V25.1z"/><path class="st1" d="M48 26V4c0-1.1 0.9-2 2-2s2 0.9 2 2v20h16c1.1 0 2 0.9 2 2s-0.9 2-2 2H50C48.9 28 48 27.1 48 26z"/></svg>