<svg xmlns="http://www.w3.org/2000/svg" viewBox="0 0 72 96"><style type="text/css">  
	.st0{fill:#679EB2;}
	.st1{fill:#FFFFFF;}
	.st2{fill:#679EB2;stroke:#679EB2;stroke-width:1.25;stroke-miterlimit:10;}
</style><path class="st0" d="M0 2l0 92c0 1.1 0.9 2 2 2h68c1.1 0 2-0.9 2-2V28H50c-1.1 0-2-0.9-2-2V0L2 0C0.9 0 0 0.9 0 2z"/><path class="st0" d="M71.9 24c-0.1-0.4-0.2-0.7-0.4-1L52 1.2V24H71.9z"/><rect x="6" y="41" class="st1" width="60" height="49"/><path class="st1" d="M11.9 6.2c1.1 0 2.3 0.4 3.2 1.2l-0.9 2.1c-0.4-0.5-1.4-1-2.2-1 -2.3 0-3.5 2.2-3.5 4.9 0 2.8 1.3 5.2 3.5 5.2 1 0 1.8-0.5 2.4-1l0.9 2.1c-0.8 0.7-1.9 1.3-3.5 1.3 -3.5 0-5.6-3.2-5.6-7.4C6.1 9.3 8.3 6.2 11.9 6.2z"/><path class="st1" d="M16.7 6.5h6.1v2.2h-3.8v4.1h3.2v2.2h-3.2v5.8h-2.2V6.5z"/><path class="st1" d="M24.8 6.5h2.5l1.8 6.9c0.2 0.9 0.4 2.2 0.4 2.2h0.1c0 0 0.2-1.3 0.4-2.2l1.8-6.9h2.5l0.8 14.2h-2.1l-0.4-7.9c-0.1-0.9 0-2.2 0-2.2h-0.1c0 0-0.2 1.4-0.4 2.3l-1.4 5.4h-2.2L27 12.9c-0.2-0.8-0.4-2.3-0.4-2.3h-0.1c0 0 0.1 1.3 0 2.2L26 20.7h-2.1L24.8 6.5z"/><path class="st1" d="M36.9 6.5h2.2v12h4.2v2.2h-6.5V6.5z"/><path class="st2" d="M31.5 81.8c-7.4 0-10.8-7.1-10.8-14.9C20.6 59.2 24 52 31.5 52c2.3 0 4.2 0.6 5.7 1.6l-1 2.4c-1.1-0.7-2.6-1.2-4.2-1.2 -5.2 0-7.3 6-7.3 12.1 0 6 2.1 12 7.2 12 1.6 0 3.2-0.5 4.2-1.2l1 2.5C35.6 81.2 33.8 81.8 31.5 81.8z"/><path class="st2" d="M46.4 61v20.3h-3.7V61h-2.6v-2.3h2.6v-3.2c0-4.3 2.4-7.2 6.9-7.2 0.3 0 0.3 0 0.8 0v2.4h-0.3c-2 0-3.7 1-3.7 4.6v3.3h3.9V61H46.4z"/></svg>