<svg id="Layer_1" xmlns="http://www.w3.org/2000/svg" viewBox="0 0 72 96"><style>.st0{fill:#ccc}.st1{fill:#999}.st2{fill:#333}</style><path class="st0" d="M0 2v92c0 1.1.9 2 2 2h68c1.1 0 2-.9 2-2V28H50c-1.1 0-2-.9-2-2V0H2C.9 0 0 .9 0 2z"/><path class="st1" d="M14.1 43.1v-4.9c1-.1 1.8-.2 2.3-.5.5-.2.9-.7 1.3-1.2.4-.6.6-1.3.8-2.2.1-.7.2-1.8.2-3.4 0-2.7.1-4.5.4-5.6.2-1 .7-1.9 1.3-2.5s1.6-1.1 2.8-1.5c.8-.2 2.1-.4 3.9-.4h1.1v4.9c-1.5 0-2.5.1-2.9.3-.4.2-.7.4-1 .8-.2.3-.3.9-.3 1.8s-.1 2.5-.2 4.9c-.1 1.4-.2 2.5-.5 3.4-.3.8-.7 1.5-1.1 2.1-.4.5-1.1 1.1-2 1.7.8.5 1.5 1 2 1.6s.9 1.4 1.2 2.3.5 2.1.5 3.6c.1 2.3.1 3.7.1 4.4 0 .9.1 1.5.3 1.9.2.4.6.6 1 .8s1.4.3 2.9.3v4.9h-1.1c-1.8 0-3.3-.1-4.2-.4-1-.3-1.8-.8-2.5-1.5s-1.1-1.5-1.4-2.5c-.2-1-.3-2.6-.3-4.8 0-2.5-.1-4.2-.3-4.9-.3-1.1-.8-1.9-1.4-2.4-.7-.6-1.6-1-2.9-1zm44.3 0c-1 .1-1.8.2-2.3.5-.5.2-.9.7-1.3 1.2-.4.6-.6 1.3-.8 2.2-.1.7-.2 1.8-.2 3.4 0 2.7-.1 4.5-.4 5.6-.2 1.1-.7 1.9-1.3 2.5s-1.6 1.1-2.8 1.5c-.8.2-2.1.4-3.9.4h-1.1v-4.9c1.5 0 2.4-.1 2.9-.3s.8-.5 1-.8.3-.9.3-1.8c0-.8.1-2.4.2-4.8.1-1.4.3-2.6.6-3.4.3-.9.7-1.6 1.2-2.2s1.1-1.1 1.9-1.6c-1-.7-1.8-1.3-2.2-1.9-.6-.9-1.1-2.1-1.3-3.4-.2-1-.3-3.1-.3-6.3 0-1-.1-1.7-.3-2.1-.2-.3-.5-.6-.9-.8-.4-.2-1.4-.3-3-.3V21h1.1c1.8 0 3.3.1 4.2.4 1 .3 1.8.8 2.5 1.5s1.1 1.5 1.4 2.5c.2 1 .4 2.6.4 4.8 0 2.5.1 4.1.3 4.9.3 1.1.8 1.9 1.4 2.3.6.5 1.6.7 2.8.8l-.1 4.9z"/><path class="st0" d="M71.9 24c-.1-.4-.2-.7-.4-1L52 1.2V24h19.9z"/><path class="st2" d="M15.1 70.2c1.3 0 2.6.4 3.6 1.2l-1.4 2.8c-.4-.5-1.3-.9-2.1-.9-2.1 0-3.2 1.9-3.2 4.2 0 2.3 1.2 4.4 3.2 4.4 1 0 1.7-.5 2.3-1l1.4 2.8c-.9.7-2 1.3-3.9 1.3-4 0-6.3-3.1-6.3-7.4 0-4.4 2.4-7.4 6.4-7.4zm6.6.2H25v11.4h4.3v2.9h-7.6V70.4zm12.7 0H38l3.6 14.3h-3.3l-.6-3h-3l-.6 3h-3.3l3.6-14.3zm2.8 8.6l-.6-2.8c-.2-.9-.4-2.5-.4-2.5h-.1s-.2 1.5-.4 2.5l-.5 2.8h2zm7.6 1.7c.6.6 1.4 1.2 2.3 1.2.9 0 1.3-.6 1.3-1.2 0-2-4.8-2.1-4.8-6.2 0-2.4 1.7-4.3 4.5-4.3 1.2 0 2.4.3 3.4 1l-1.2 2.9c-.5-.4-1.4-.9-2.2-.9-.9 0-1.3.6-1.3 1.2 0 2.1 4.8 2 4.8 6.1 0 2.3-1.5 4.4-4.4 4.4-1.4 0-2.9-.5-4-1.4l1.6-2.8zm10.7 0c.6.6 1.4 1.2 2.3 1.2.9 0 1.3-.6 1.3-1.2 0-2-4.8-2.1-4.8-6.2 0-2.4 1.7-4.3 4.5-4.3 1.2 0 2.4.3 3.4 1L61 74.1c-.5-.4-1.4-.9-2.2-.9-.9 0-1.3.6-1.3 1.2 0 2.1 4.8 2 4.8 6.1 0 2.3-1.5 4.4-4.4 4.4-1.4 0-2.9-.5-4-1.4l1.6-2.8z"/><path class="st1" d="M0 94V2C0 .9.9 0 2 0h48c.6 0 1.1.2 1.5.7l20 22.3c.3.4.5.8.5 1.3V94c0 1.1-.9 2-2 2H2c-1.1 0-2-.9-2-2zm68-68.9L49.1 4H4v88h64V25.1z"/><path class="st1" d="M48 26V4c0-1.1.9-2 2-2s2 .9 2 2v20h16c1.1 0 2 .9 2 2s-.9 2-2 2H50c-1.1 0-2-.9-2-2z"/></svg>