<?xml version="1.0" encoding="utf-8"?>
<!-- Generator: Adobe Illustrator 22.1.0, SVG Export Plug-In . SVG Version: 6.00 Build 0)  -->
<svg version="1.1" id="Layer_1" xmlns="http://www.w3.org/2000/svg" xmlns:xlink="http://www.w3.org/1999/xlink" x="0px" y="0px"
	 viewBox="0 0 72 96" style="enable-background:new 0 0 72 96;" xml:space="preserve">
<style type="text/css">
	.st0{fill:#FFFFFF;}
	.st1{fill:#666666;}
	.st2{fill:#28334C;}
</style>
<path class="st0" d="M0,2v92c0,1.1,0.9,2,2,2h68c1.1,0,2-0.9,2-2V28H50c-1.1,0-2-0.9-2-2V0H2C0.9,0,0,0.9,0,2z"/>
<path class="st0" d="M71.9,24c-0.1-0.4-0.2-0.7-0.4-1L52,1.2V24H71.9z"/>
<path class="st1" d="M14.9,70.2c1.1,0,2.4,0.4,3.2,1.2l-1.2,2.8c-0.4-0.5-1.2-0.9-1.9-0.9c-1.9,0-2.9,1.9-2.9,4.2
	c0,2.3,1,4.4,2.9,4.4c0.9,0,1.5-0.5,2.1-1l1.2,2.8c-0.8,0.7-1.8,1.3-3.5,1.3c-3.6,0-5.7-3.1-5.7-7.4C9.1,73.2,11.3,70.2,14.9,70.2z
	 M24.2,70.2c3.4,0,5.3,3.1,5.3,7.3c0,4.2-1.9,7.5-5.3,7.5s-5.3-3.2-5.3-7.5C19,73.3,20.9,70.2,24.2,70.2z M24.2,81.8
	c1.5,0,2.2-1.8,2.2-4.3s-0.7-4.2-2.2-4.2S22,75,22,77.5S22.7,81.8,24.2,81.8z M31.4,70.4h6.4v2.9h-3.5v3.1h2.9v2.9h-2.8v5.4h-3
	C31.4,84.7,31.4,70.4,31.4,70.4z M39.6,70.4H46v2.9h-3.5v3.1h2.8v2.9h-2.8v5.4h-3C39.5,84.7,39.6,70.4,39.6,70.4z M47.7,70.4h6.5
	v2.9h-3.5V76h2.8v2.9h-2.8v2.9h3.7v2.9h-6.6V70.4C47.8,70.4,47.7,70.4,47.7,70.4z M56.2,70.4h6.5v2.9h-3.5V76H62v2.9h-2.8v2.9h3.7
	v2.9h-6.7C56.2,84.7,56.2,70.4,56.2,70.4z"/>
<path class="st2" d="M0,94V2c0-1.1,0.9-2,2-2h48c0.6,0,1.1,0.2,1.5,0.7l20,22.3c0.3,0.4,0.5,0.8,0.5,1.3V94c0,1.1-0.9,2-2,2H2
	C0.9,96,0,95.1,0,94z M68,25.1L49.1,4H4v88h64C68,92,68,25.1,68,25.1z"/>
<path class="st2" d="M48,26V4c0-1.1,0.9-2,2-2s2,0.9,2,2v20h16c1.1,0,2,0.9,2,2s-0.9,2-2,2H50C48.9,28,48,27.1,48,26z M30.9,33.5
	c4-0.3,5.1-2.9,9.8-3.3c2.3-0.2,3.7,0.3,3.9,1.1c0.1,0.7-1,1.3-2.4,1.4c-1.9,0.2-2.7-0.5-2.9-1.2c-1.4,0.1-1.6,0.7-1.6,1.2
	c0.1,0.8,1.9,1.6,4.8,1.3c3.3-0.3,4.4-1.6,4.2-2.9c-0.3-1.7-2.9-3.1-7.5-2.7c-5.9,0.5-5.9,3.2-9.8,3.6c-1.6,0.1-2.6-0.2-2.7-0.9
	c-0.1-0.6,0.7-1,1.6-1c0.9-0.1,1.9,0.1,2.5,0.3c0.4-0.2,0.5-0.4,0.4-0.6c-0.1-0.6-1.4-0.9-2.9-0.7c-3,0.3-3,1.6-2.9,2.2
	C25.8,32.7,28,33.7,30.9,33.5z M50.8,40.2c-3.7,0.9-8.4,1.4-14,1.4c-5.8,0-10.5-0.6-14.1-1.4c-3.3-0.9-5-1.8-5.7-2.7
	c0.3,2.1,0.9,4.2,1.6,6.2c-0.8,0.5-1.6,1.2-2.3,2c-1.3,1.6-1.9,3.5-1.8,5.4c0.1,1.9,1,3.4,2.5,4.6c1.5,1.2,3.2,1.5,5,1.2
	c0.7-0.1,1.5-0.5,2.2-0.7c-1.5,0-2.8-0.5-4.1-1.5c-1.4-1-2.4-2.5-2.6-4.2c-0.3-1.6,0-3.2,0.9-4.5c0.2-0.3,0.4-0.5,0.6-0.7
	c0.5,1.3,1.1,2.5,1.8,3.7c1.4,2.1,2.8,4,4.2,6c0.6,1.2,1,2.4,1.3,3.5c0.9,1.3,2.2,2.2,3.9,2.7c2,0.7,4.1,1,6.3,1h0.2
	c2.1,0,4.4-0.3,6.5-1c1.5-0.5,2.8-1.4,3.8-2.7h0.1c0.2-1,0.6-2.3,1.2-3.5c1.4-2,2.8-3.9,4.2-6c1.9-3.4,3.2-7.3,3.9-11.5
	C55.8,38.6,54,39.5,50.8,40.2z M22.7,37.3c3.7,0.9,8.4,1.4,14,1.4c5.8,0,10.4-0.5,14-1.4c3.9-0.9,5.8-2.1,5.8-3.3
	c0-0.9-0.9-1.6-2.4-2.2c0.3,0.2,0.6,0.6,0.6,1c0,1.2-1.8,2.1-5.3,2.9c-3.3,0.7-7.5,1.2-12.6,1.2c-4.9,0-9.3-0.5-12.5-1.2
	c-3.4-0.9-5.2-1.8-5.2-2.9c0-0.5,0.2-0.9,0.9-1.4c-2.1,0.9-3.3,1.5-3.3,2.6C16.8,35.2,18.7,36.4,22.7,37.3z"/>
</svg>
