<svg xmlns="http://www.w3.org/2000/svg" viewBox="0 0 72 96"><style type="text/css">  
	.st0{fill:#CCCCCC;}
	.st1{fill:#333333;}
	.st2{fill:#999999;}
</style><path class="st0" d="M0 2v92c0 1.1 0.9 2 2 2h68c1.1 0 2-0.9 2-2V28H50c-1.1 0-2-0.9-2-2V0H2C0.9 0 0 0.9 0 2z"/><path class="st0" d="M71.9 24c-0.1-0.4-0.2-0.7-0.4-1L52 1.2V24H71.9z"/><path class="st1" d="M12.8 70.2c1 0 2.1 0.4 2.9 1.2l-1.1 2.8c-0.3-0.5-1-0.9-1.7-0.9 -1.7 0-2.6 1.9-2.6 4.2 0 2.3 0.9 4.4 2.5 4.4 0.8 0 1.3-0.5 1.8-1l1.1 2.8C15 84.4 14.1 85 12.5 85c-3.2 0-5-3.1-5-7.4C7.6 73.2 9.5 70.2 12.8 70.2zM20.7 70.2c3 0 4.7 3.1 4.7 7.3 0 4.2-1.7 7.5-4.7 7.5S16 81.7 16 77.5 17.7 70.2 20.7 70.2zM20.7 81.8c1.4 0 2-1.8 2-4.3s-0.6-4.2-2-4.2 -2 1.7-2 4.2S19.3 81.8 20.7 81.8zM27.1 70.4H30l1.1 6c0.2 0.9 0.3 2.4 0.3 2.4s0.2-1.5 0.3-2.4l1.1-6h2.9l0.7 14.3H34l-0.3-6.4c-0.1-1.1 0-2.4 0-2.4h-0.1c0 0-0.2 1.5-0.4 2.4l-0.7 4.1H30l-0.7-4.1c-0.2-0.9-0.4-2.4-0.4-2.4H29c0 0 0.1 1.3 0 2.4l-0.3 6.4h-2.4L27.1 70.4zM37.9 70.4h3.6c2.1 0 3.5 2 3.5 4.9s-1.4 5-3.5 5h-1v4.4h-2.6C37.9 84.7 37.9 70.4 37.9 70.4zM41 77.4c0.8 0 1.3-0.9 1.3-2.1s-0.5-2-1.2-2h-0.5v4.1H41zM46.1 70.4h2.6v14.3h-2.6C46.1 84.7 46.1 70.4 46.1 70.4zM50.5 70.4h2.6v11.4h3.4v2.9h-6.1L50.5 70.4 50.5 70.4zM57.5 70.4h5.7v2.9h-3.1V76h2.5v2.9h-2.5v2.9h3.3v2.9h-5.9C57.5 84.7 57.5 70.4 57.5 70.4z"/><path class="st2" d="M0 94V2c0-1.1 0.9-2 2-2h48c0.6 0 1.1 0.2 1.5 0.7l20 22.3c0.3 0.4 0.5 0.8 0.5 1.3V94c0 1.1-0.9 2-2 2H2C0.9 96 0 95.1 0 94zM68 25.1L49.1 4H4v88h64C68 92 68 25.1 68 25.1z"/><path class="st2" d="M48 26V4c0-1.1 0.9-2 2-2s2 0.9 2 2v20h16c1.1 0 2 0.9 2 2s-0.9 2-2 2H50C48.9 28 48 27.1 48 26z"/><line class="st2" x1="52" y1="53.4" x2="15" y2="53.4"/><path class="st2" d="M52.5 57.9c0-7.6 0-15.2 0-22.7 1.6 0 3 0 4.5 0 0 9.1 0 18.2 0 27.3 -13.7 0-27.3 0-41 0 0-9.1 0-18.2 0-27.3 1.5 0 3 0 4.5 0 0 7.6 0 15.2 0 22.7C31.2 57.9 41.7 57.9 52.5 57.9z"/><path class="st2" d="M25.3 23.7c7.5 0 15 0 22.3 0 -3.7 3.7-7.4 7.4-11.2 11.2C32.8 31.3 29 27.5 25.3 23.7z"/><path class="st2" d="M29.7 44.2c0-1.5 0-3 0-4.5 1.5 0 3 0 4.5 0 0 1.6 0 3 0 4.5C32.6 44.2 31.2 44.2 29.7 44.2z"/><path class="st2" d="M43.3 44.2c-1.5 0-3 0-4.5 0 0-1.5 0-3 0-4.5 1.5 0 3 0 4.5 0C43.3 41.2 43.3 42.7 43.3 44.2z"/><path class="st2" d="M25.1 48.8c1.5 0 3 0 4.5 0 0 1.5 0 3 0 4.5 -1.5 0-3 0-4.5 0C25.1 51.9 25.1 50.4 25.1 48.8z"/><path class="st2" d="M43.4 53.3c0-1.6 0-3 0-4.5 1.5 0 3 0 4.5 0 0 1.5 0 3 0 4.5C46.3 53.3 44.9 53.3 43.4 53.3z"/><path class="st2" d="M38.7 48.8c0 1.5 0 3 0 4.5 -1.5 0-3 0-4.5 0 0-1.5 0-3 0-4.5C35.8 48.8 37.2 48.8 38.7 48.8z"/></svg>