<svg xmlns="http://www.w3.org/2000/svg" viewBox="0 0 72 96"><style type="text/css">  
	.st0{fill:#66E283;}
	.st1{fill:#FFFFFF;}
	.st2{fill:#66E283;stroke:#66E283;stroke-width:1.25;stroke-miterlimit:10;}
</style><path class="st0" d="M0 2v92c0 1.1 0.9 2 2 2h68c1.1 0 2-0.9 2-2V28H50c-1.1 0-2-0.9-2-2V0H2C0.9 0 0 0.9 0 2z"/><path class="st0" d="M71.9 24c-0.1-0.4-0.2-0.7-0.4-1L52 1.2V24H71.9z"/><rect x="6" y="41" class="st1" width="60" height="49"/><path class="st1" d="M11.8 6.1c1.1 0 2.4 0.4 3.2 1.2l-1.2 2.8c-0.4-0.5-1.2-0.9-1.9-0.9C10 9.3 9 11.2 9 13.4c0 2.3 1 4.4 2.9 4.4 0.9 0 1.5-0.5 2.1-1l1.2 2.8c-0.8 0.7-1.8 1.3-3.5 1.3 -3.6 0-5.7-3.1-5.7-7.4C6 9.3 8.1 6.1 11.8 6.1z"/><path class="st1" d="M16.4 6.4h4.1c2.4 0 3.9 2 3.9 4.9s-1.6 5-3.9 5h-1.1v4.4h-3V6.4zM19.9 13.4c0.9 0 1.5-0.9 1.5-2.1s-0.6-2-1.4-2h-0.6v4.1H19.9z"/><path class="st1" d="M27.7 9.3h-2.8V6.4h8.6v2.9h-2.8v11.4h-2.9V9.3H27.7z"/><path class="st1" d="M36.9 13.6l-3.1-7.2H37l1 2.9c0.3 0.9 0.5 1.8 0.5 1.8l0 0c0 0 0.2-0.9 0.5-1.8l1-2.9h3.2l-3.1 7.2 3 7.1h-3.2l-1-3c-0.3-0.9-0.5-1.7-0.5-1.7l0 0c0 0-0.2 0.8-0.5 1.7l-1 3h-3.2L36.9 13.6z"/><path class="st2" d="M27.5 78.7c-7.8 0-11.4-6.8-11.4-14.2s3.6-14.2 11.4-14.2c2.4 0 4.4 0.6 5.9 1.5l-1 2.2c-1.1-0.6-2.8-1.2-4.4-1.2 -5.5 0-7.6 5.8-7.6 11.5 0 5.7 2.2 11.4 7.6 11.4 1.7 0 3.3-0.5 4.4-1.2l1.1 2.4C31.9 78.2 30 78.7 27.5 78.7z"/><path class="st2" d="M45.5 78.7c-1.4 0-2.8-0.2-3.7-0.5V87H38V57.9c2-1 4.6-1.5 7.3-1.5 6.8 0 10.5 4.2 10.5 10.8C55.9 74.4 51.8 78.7 45.5 78.7zM45.2 58.5c-1.2 0-2.5 0.2-3.4 0.6V76c0.7 0.2 1.7 0.4 2.9 0.4 4.8 0 7.3-3.3 7.3-9C52 62 50.2 58.5 45.2 58.5z"/></svg>