<svg xmlns="http://www.w3.org/2000/svg" viewBox="0 0 72 96"><style type="text/css">  
	.st0{fill:#66E283;}
	.st1{fill:#FFFFFF;}
	.st2{fill:#66E283;stroke:#66E283;stroke-width:1.25;stroke-miterlimit:10;}
</style><path class="st0" d="M0 2l0 92c0 1.1 0.9 2 2 2h68c1.1 0 2-0.9 2-2V28H50c-1.1 0-2-0.9-2-2V0L2 0C0.9 0 0 0.9 0 2z"/><path class="st0" d="M71.9 24c-0.1-0.4-0.2-0.7-0.4-1L52 1.2V24H71.9z"/><rect x="6" y="41" class="st1" width="60" height="49"/><path class="st1" d="M11.8 6.1c1.1 0 2.4 0.4 3.2 1.2l-1.2 2.8c-0.4-0.5-1.2-0.9-1.9-0.9C10 9.3 9 11.2 9 13.4c0 2.3 1 4.4 2.9 4.4 0.9 0 1.5-0.5 2.1-1l1.2 2.8c-0.8 0.7-1.8 1.3-3.5 1.3 -3.6 0-5.7-3.1-5.7-7.4C6 9.3 8.1 6.1 11.8 6.1z"/><path class="st1" d="M16.4 6.4h4.1c2.4 0 3.9 2 3.9 4.9 0 2.9-1.6 5-3.9 5h-1.1v4.4h-3V6.4zM19.9 13.4c0.9 0 1.5-0.9 1.5-2.1s-0.6-2-1.4-2h-0.6v4.1H19.9z"/><path class="st1" d="M27.7 9.3h-2.8V6.4h8.6v2.9h-2.8v11.4h-2.9V9.3z"/><path class="st1" d="M36.9 13.6l-3.1-7.2H37l1 2.9c0.3 0.9 0.5 1.8 0.5 1.8h0c0 0 0.2-0.9 0.5-1.8l1-2.9h3.2l-3.1 7.2 3 7.1h-3.2l-1-3c-0.3-0.9-0.5-1.7-0.5-1.7h0c0 0-0.2 0.8-0.5 1.7l-1 3h-3.2L36.9 13.6z"/><path class="st2" d="M28.5 78.7c-7.3 0-10.6-7-10.6-14.5 0-7.5 3.3-14.5 10.6-14.5 2.3 0 4.1 0.6 5.5 1.6l-0.9 2.3c-1-0.7-2.6-1.2-4.1-1.2 -5.1 0-7.1 5.9-7.1 11.8 0 5.9 2.1 11.7 7.1 11.7 1.6 0 3.1-0.5 4.1-1.2l1 2.5C32.6 78.2 30.8 78.7 28.5 78.7z"/><path class="st2" d="M45.3 78.7c-1.3 0-2.6-0.2-3.4-0.5v9h-3.6V57.3c1.9-1 4.3-1.5 6.8-1.5 6.3 0 9.8 4.3 9.8 11.1C54.9 74.3 51.1 78.7 45.3 78.7zM45 58c-1.1 0-2.3 0.2-3.2 0.6v17.3c0.7 0.2 1.6 0.5 2.7 0.5 4.5 0 6.8-3.4 6.8-9.3C51.3 61.6 49.6 58 45 58z"/></svg>