<svg xmlns="http://www.w3.org/2000/svg" viewBox="0 0 72 96"><style type="text/css">  
	.st0{fill:#B4BDCC;}
	.st1{opacity:0.55;fill:#F44336;}
	.st2{opacity:0.55;fill:#2196F3;}
	.st3{opacity:0.55;fill:#4CAF50;}
	.st4{opacity:0.55;fill:#FFC107;}
</style><path class="st0" d="M0 94V2c0-1.1 0.9-2 2-2h48c0.6 0 1.1 0.2 1.5 0.7l20 22.3c0.3 0.4 0.5 0.8 0.5 1.3V94c0 1.1-0.9 2-2 2H2C0.9 96 0 95.1 0 94zM68 25.1L49.1 4H4v88h64V25.1z"/><path class="st0" d="M48 26V4c0-1.1 0.9-2 2-2s2 0.9 2 2v20h16c1.1 0 2 0.9 2 2s-0.9 2-2 2H50C48.9 28 48 27.1 48 26z"/><path class="st1" d="M19.7 36c10-11.6 28.5-9.3 35.5 4.3 -4.9 0-12.5 0-16.7 0 -3 0-4.9-0.1-7 1 -2.5 1.3-4.3 3.7-5 6.5L19.7 36z"/><path class="st2" d="M28.8 50c0 3.9 3.2 7.1 7.1 7.1s7.1-3.2 7.1-7.1 -3.2-7.1-7.1-7.1C32.1 42.8 28.8 46.1 28.8 50z"/><path class="st3" d="M38.8 59.4c-4 1.2-8.7-0.1-11.3-4.6 -2-3.4-7.1-12.4-9.5-16.5 -8.3 12.7-1.1 29.9 13.8 32.8L38.8 59.4z"/><path class="st4" d="M42.6 42.8c3.3 3.1 4.1 8.1 1.8 12 -1.7 2.9-7.1 12.1-9.8 16.6 15.4 1 26.7-14.2 21.6-28.6L42.6 42.8z"/></svg>