<svg id="Layer_1" xmlns="http://www.w3.org/2000/svg" viewBox="0 0 72 96"><style>.st0{fill:#999}.st1{fill:#fff}</style><path class="st0" d="M0 2v92c0 1.1.9 2 2 2h68c1.1 0 2-.9 2-2V28H50c-1.1 0-2-.9-2-2V0H2C.9 0 0 .9 0 2z"/><path class="st0" d="M71.9 24c-.1-.4-.2-.7-.4-1L52 1.2V24h19.9z"/><path class="st1" d="M6 41h60v49H6zm6.5-34.9c1.3 0 2.6.4 3.6 1.2l-1.4 2.8c-.4-.5-1.3-.9-2.1-.9-2.1 0-3.2 1.9-3.2 4.2 0 2.3 1.2 4.4 3.2 4.4 1 0 1.7-.5 2.3-1l1.4 2.8c-.9.7-2 1.3-3.9 1.3-4 0-6.3-3.1-6.3-7.4-.1-4.2 2.3-7.4 6.4-7.4zm7.2 10.6c.6.6 1.4 1.2 2.3 1.2.9 0 1.3-.6 1.3-1.2 0-2-4.8-2.1-4.8-6.2 0-2.4 1.7-4.3 4.5-4.3 1.2 0 2.4.3 3.4 1l-1.2 2.9c-.5-.4-1.4-.9-2.2-.9-.9 0-1.3.6-1.3 1.2 0 2.1 4.8 2 4.8 6.1 0 2.3-1.5 4.4-4.4 4.4-1.4 0-2.9-.5-4-1.4l1.6-2.8zm10.7 0c.6.6 1.4 1.2 2.3 1.2.9 0 1.3-.6 1.3-1.2 0-2-4.8-2.1-4.8-6.2 0-2.4 1.7-4.3 4.5-4.3 1.2 0 2.4.3 3.4 1L36 10.1c-.5-.4-1.4-.9-2.2-.9-.9 0-1.3.6-1.3 1.2 0 2.1 4.8 2 4.8 6.1 0 2.3-1.5 4.4-4.4 4.4-1.4 0-2.9-.5-4-1.4l1.5-2.8z"/><path class="st0" d="M14 67.7v-4.6c1-.1 1.8-.2 2.3-.5.5-.2.9-.7 1.3-1.1.4-.6.6-1.2.8-2.1.1-.7.2-1.7.2-3.2 0-2.5.1-4.2.4-5.2.2-.9.7-1.8 1.3-2.3.6-.6 1.6-1 2.8-1.4.8-.2 2.1-.4 3.9-.4h1v4.6c-1.5 0-2.5.1-2.9.3-.4.2-.7.4-1 .7-.2.3-.3.8-.3 1.7s-.1 2.3-.2 4.6c-.1 1.3-.2 2.3-.5 3.1-.3.7-.7 1.4-1.1 2-.4.5-1.1 1-2 1.6.8.5 1.5.9 2 1.5s.9 1.3 1.2 2.1c.3.8.5 2 .5 3.4.1 2.1.1 3.5.1 4.1 0 .8.1 1.4.3 1.8.2.4.6.6 1 .7.4.2 1.4.3 2.9.3V84h-1.1c-1.8 0-3.3-.1-4.2-.4-1-.3-1.8-.7-2.5-1.4s-1.1-1.4-1.4-2.3c-.2-.9-.3-2.4-.3-4.5 0-2.3-.1-3.9-.3-4.6-.3-1-.8-1.8-1.4-2.2-.6-.6-1.5-.9-2.8-.9zm43.9 0c-1 .1-1.8.2-2.3.5-.5.2-.9.7-1.3 1.1-.4.6-.6 1.2-.8 2.1-.1.7-.2 1.7-.2 3.2 0 2.5-.1 4.2-.4 5.2-.2 1-.7 1.8-1.3 2.3-.6.6-1.6 1-2.8 1.4-.8.2-2.1.4-3.9.4h-1.1v-4.6c1.5 0 2.4-.1 2.9-.3s.8-.5 1-.7c.2-.3.3-.8.3-1.7 0-.7.1-2.2.2-4.5.1-1.3.3-2.4.6-3.2.3-.8.7-1.5 1.2-2.1.5-.6 1.1-1 1.9-1.5-1-.7-1.8-1.2-2.2-1.8-.6-.8-1.1-2-1.3-3.2-.2-.9-.3-2.9-.3-5.9 0-.9-.1-1.6-.3-2-.2-.3-.5-.6-.9-.7-.4-.2-1.4-.3-3-.3V47H45c1.8 0 3.3.1 4.2.4 1 .3 1.8.7 2.5 1.4s1.1 1.4 1.4 2.3c.2.9.4 2.4.4 4.5 0 2.3.1 3.8.3 4.6.3 1 .8 1.8 1.4 2.1.6.5 1.6.7 2.8.7l-.1 4.7z"/></svg>