<svg xmlns="http://www.w3.org/2000/svg" viewBox="0 0 72 96"><style type="text/css">  
	.st0{fill:#4D1B9B;}
	.st1{fill:#FFFFFF;}
</style><path class="st0" d="M0 2l0 92c0 1.1 0.9 2 2 2h68c1.1 0 2-0.9 2-2V28H50c-1.1 0-2-0.9-2-2V0L2 0C0.9 0 0 0.9 0 2z"/><path class="st0" d="M71.9 24c-0.1-0.4-0.2-0.7-0.4-1L52 1.2V24H71.9z"/><rect x="6" y="41" class="st1" width="60" height="49"/><path class="st1" d="M6.6 6.4h4.2c3.7 0 5.9 2.6 5.9 7.1s-2.2 7.2-5.9 7.2H6.6V6.4zM10.7 17.8c1.7 0 2.6-1.5 2.6-4.3 0-2.8-1-4.2-2.6-4.2H9.9v8.5H10.7z"/><path class="st1" d="M19.8 6.4H27v2.9h-3.9V12h3.1v2.9h-3.1v2.9h4.1v2.9h-7.4V6.4z"/><path class="st1" d="M30.3 6.4h4.2c2.5 0 4.2 1.3 4.2 3.7 0 1.2-0.5 2.4-1.7 3v0c1.6 0.5 2.1 1.9 2.1 3.2 0 3.1-2 4.3-4.4 4.3h-4.4V6.4zM34.5 12c0.6 0 0.9-0.6 0.9-1.4s-0.3-1.3-1-1.3h-0.8V12H34.5zM34.7 17.8c0.8 0 1.2-0.7 1.2-1.6 0-0.9-0.3-1.5-1.1-1.5h-1.2v3.1H34.7z"/><path class="st0" d="M43.6 68.3l-7.3-3.4L51 58l7.3 3.4L51 64.9 43.6 68.3zM51 51.2l-7.3-3.4 -7.3 3.4L51 58.1l7.3-3.4L51 51.2zM28.9 61.4L21.6 58l-7.3 3.4 14.7 6.9 7.3-3.4L28.9 61.4zM28.9 54.6l7.3-3.4 -7.3-3.4 -14.7 6.9 7.3 3.4L28.9 54.6zM51 66.9l-6.6 3 -0.8 0.4 -0.8-0.4 -6.6-3 -6.6 3 -0.8 0.4 -0.8-0.4 -6.6-3v10.7l14.7 7.7L51 77.6V66.9z"/></svg>