<svg id="Layer_1" xmlns="http://www.w3.org/2000/svg" viewBox="0 0 72 96"><style>.st0{fill:#4d1b9b}.st1{fill:#fff}.st2{fill:#4d1b9b;stroke:#4d1b9b;stroke-width:1.5;stroke-miterlimit:10}</style><path class="st0" d="M0 2v92c0 1.1.9 2 2 2h68c1.1 0 2-.9 2-2V28H50c-1.1 0-2-.9-2-2V0H2C.9 0 0 .9 0 2z"/><path class="st0" d="M71.9 24c-.1-.4-.2-.7-.4-1L52 1.2V24h19.9z"/><path class="st1" d="M6 41h60v49H6zm.6-34.6h4.2c3.7 0 5.9 2.6 5.9 7.1s-2.2 7.2-5.9 7.2H6.6V6.4zm4.1 11.4c1.7 0 2.6-1.5 2.6-4.3s-1-4.2-2.6-4.2h-.8v8.5h.8zm9.1-11.4H27v2.9h-3.9V12h3.1v2.9h-3.1v2.9h4.1v2.9h-7.4V6.4zm10.5 0h4.2c2.5 0 4.2 1.3 4.2 3.7 0 1.2-.5 2.4-1.7 3 1.6.5 2.1 1.9 2.1 3.2 0 3.1-2 4.3-4.4 4.3h-4.4V6.4zm4.2 5.6c.6 0 .9-.6.9-1.4s-.3-1.3-1-1.3h-.8V12h.9zm.2 5.8c.8 0 1.2-.7 1.2-1.6 0-.9-.3-1.5-1.1-1.5h-1.2v3.1h1.1z"/><path class="st2" d="M30.9 999.1c-.1 0-.2 0-.3.1l-14.3 6.5c-.5.2-.6.9-.3 1.3l4.4 5.2-4.4 5.2c-.3.4-.2 1.1.3 1.3l4.4 2v8.6c0 .3.2.6.5.7l14.7 6.5c.2.1.5.1.7 0l14.7-6.5c.3-.1.5-.4.5-.7v-8.6l4.4-2c.5-.2.6-.9.3-1.3l-4.4-5.2 4.4-5.2c.3-.4.2-1.1-.3-1.3l-14.3-6.5c-.1-.1-.3-.1-.4-.1-.2 0-.4.1-.5.3l-4.7 5.1-4.7-5.1c-.2-.2-.5-.3-.7-.3zm-.1 1.8l4.1 4.4-13.1 5.8-3.8-4.4 12.8-5.8zm11 0l12.8 5.8-3.8 4.4-13.1-5.8 4.1-4.4zm-5.5 5.6l12.7 5.6-12.7 5.6-12.7-5.6 12.7-5.6zm-14.5 6.6l13.1 5.8-4.1 4.4-12.8-5.8 3.8-4.4zm28.9 0l3.8 4.4-12.8 5.8-4.1-4.4 13.1-5.8zm-15.2 7.7v13.8l-13-5.8v-7.4l8.2 3.8c.3.1.7.1.9-.2l3.9-4.2zm1.6 0l3.9 4.2c.2.3.6.3.9.2l8.2-3.8v7.4l-13 5.8v-13.8z" transform="translate(0 -952.362)"/></svg>