<svg xmlns="http://www.w3.org/2000/svg" viewBox="0 0 72 96"><style type="text/css">  
	.st0{fill:#999999;}
	.st1{fill:#FFFFFF;}
	.st2{fill:#999999;stroke:#999999;stroke-width:1.5;stroke-miterlimit:10;}
</style><path class="st0" d="M0 2v92c0 1.1 0.9 2 2 2h68c1.1 0 2-0.9 2-2V28H50c-1.1 0-2-0.9-2-2V0H2C0.9 0 0 0.9 0 2z"/><path class="st0" d="M71.9 24c-0.1-0.4-0.2-0.7-0.4-1L52 1.2V24H71.9z"/><rect x="6" y="41" class="st1" width="60" height="49"/><path class="st1" d="M6.6 6.4h4.2c3.7 0 5.9 2.6 5.9 7.1s-2.2 7.2-5.9 7.2H6.6V6.4zM10.7 17.8c1.7 0 2.6-1.5 2.6-4.3s-1-4.2-2.6-4.2H9.9v8.5H10.7z"/><path class="st1" d="M18.8 6.4h3.3v14.3h-3.3V6.4z"/><path class="st1" d="M25.5 16.7c0.6 0.6 1.4 1.2 2.3 1.2s1.3-0.6 1.3-1.2c0-2-4.8-2.1-4.8-6.2 0-2.4 1.7-4.3 4.5-4.3 1.2 0 2.4 0.3 3.4 1L31 10.1c-0.5-0.4-1.4-0.9-2.2-0.9 -0.9 0-1.3 0.6-1.3 1.2 0 2.1 4.8 2 4.8 6.1 0 2.3-1.5 4.4-4.4 4.4 -1.4 0-2.9-0.5-4-1.4L25.5 16.7z"/><path class="st1" d="M36.7 9.3h-3.1V6.4h9.6v2.9H40v11.4h-3.3V9.3z"/><path class="st2" d="M23.7 76c-0.5 0-1.1-0.2-1.5-0.6L13.8 67c-0.8-0.8-0.8-2.1 0-3l8.4-8.4c0.8-0.8 2.1-0.8 3 0 0.8 0.8 0.8 2.1 0 3l-6.9 6.9 6.9 6.9c0.8 0.8 0.8 2.1 0 3C24.8 75.8 24.2 76 23.7 76z"/><path class="st2" d="M48.8 76c-0.5 0-1.1-0.2-1.5-0.6 -0.8-0.8-0.8-2.1 0-3l6.9-6.9 -6.9-6.9c-0.8-0.8-0.8-2.1 0-3 0.8-0.8 2.1-0.8 3 0l8.4 8.4c0.8 0.8 0.8 2.1 0 3l-8.4 8.4C49.9 75.8 49.3 76 48.8 76z"/><path class="st2" d="M32.1 80.1c-0.2 0-0.4 0-0.7-0.1 -1.1-0.4-1.7-1.5-1.3-2.6l8.4-25.1c0.4-1.1 1.5-1.7 2.6-1.3s1.7 1.5 1.3 2.6L34 78.7C33.8 79.6 32.9 80.1 32.1 80.1z"/></svg>