<svg xmlns="http://www.w3.org/2000/svg" viewBox="0 0 72 96"><style>.st0{fill:#ccc}.st2{fill:#999}</style><path class="st0" d="M0 2v92c0 1.1.9 2 2 2h68c1.1 0 2-.9 2-2V28H50c-1.1 0-2-.9-2-2V0H2C.9 0 0 .9 0 2z"/><path class="st0" d="M71.9 24c-.1-.4-.2-.7-.4-1L52 1.2V24h19.9z"/><path d="M22 70.4h4.2c3.7 0 5.9 2.6 5.9 7.1s-2.2 7.2-5.9 7.2H22V70.4zm4.1 11.4c1.7 0 2.6-1.5 2.6-4.3s-1-4.2-2.6-4.2h-.8v8.5h.8zm9.1-11.4h3.3v14.3h-3.3V70.4zm6.4 12.1l4.2-7.9c.5-.9.8-1.3.8-1.3s-.3.1-.8.1h-4v-2.9h8.7v2.2l-4.2 8c-.5.9-.8 1.3-.8 1.3s.3-.1.8-.1h4.3v2.9h-8.9v-2.3z" fill="#333"/><path class="st2" d="M0 94V2C0 .9.9 0 2 0h48c.6 0 1.1.2 1.5.7l20 22.3c.3.4.5.8.5 1.3V94c0 1.1-.9 2-2 2H2c-1.1 0-2-.9-2-2zm68-68.9L49.1 4H4v88h64V25.1z"/><path class="st2" d="M48 26V4c0-1.1.9-2 2-2s2 .9 2 2v20h16c1.1 0 2 .9 2 2s-.9 2-2 2H50c-1.1 0-2-.9-2-2zm7.3 2.5c-2.9 0-2.1 2.9-2.7 4.2-.2.5-.6 1.3-.9 2.1l.2-.5c-.2.4-.3.6-.8.9 0 0-2 1.2-3.8 2.3-2.1-3.7-6-5.9-10.2-5.9-4.2 0-8.1 2.3-10.2 5.9-1.9-1.1-3.9-2.3-3.9-2.3-.5-.3-.7-.5-.8-.9l.2.5c-.3-.8-.7-1.6-.9-2.1-.5-1.3.3-4.2-2.7-4.2-2.9 0-2.4 4-3.3 5.5-.6 1-2.3 2-3.1 3.2-.1.1-.1.2-.1.3-.3.6-.4 1.3.1 2.1 1.5 2.5 3.6.4 5 .2.6-.1 1.4-.1 2.3-.3l-.6.1c.4-.1.7 0 1.2.3 0 0 2.2 1.2 5 2.8v.7c0 2.2.6 4.4 1.8 6.2-3.8 2.3-7.1 4.3-7.1 4.3-.5.3-.7.4-1.1.3h.5-2.1c-1.3 0-3.1-1.6-4.7.6s1.7 3.2 2.4 4.4c.7 1.2-.2 4.6 2.6 4.3 2.7-.3 2.3-2.6 2.9-3.8.3-.5.7-1.1 1-1.8l-.2.5c.2-.3.4-.5.9-.8 0 0 3.2-1.7 6.8-3.8V59c1 .4 2 .7 3 .9v-2.8l1.5.3v2.8c1 .2 2 .3 3 .3v-2.8h1.4v2.7c1 0 2-.1 3-.3v-2.8l1.5-.3v2.8c1-.2 2-.5 3-.9v-5.2c3.7 2 6.8 3.8 6.8 3.8.5.3.7.5.9.8.3.5.6 1 .8 1.4.6 1.1.2 3.5 2.9 3.8 2.7.3 1.9-3.1 2.6-4.3.7-1.2 4-2.1 2.4-4.4-1.6-2.2-3.4-.7-4.7-.6H55h.5c-.4 0-.6 0-1.1-.3 0 0-3.3-2-7.1-4.3 1.2-1.9 1.8-4 1.8-6.2v-.7c2.8-1.6 5-2.8 5-2.8.5-.3.8-.3 1.2-.3l-.6-.1c.9.1 1.7.2 2.3.3 1.4.2 3.5 2.3 5-.2s-2.2-4.1-3.1-5.6c-.6-1-.5-3-1.2-4.3 0-.1-.1-.2-.1-.2-.9-.7-1.4-1-2.3-1zM32.6 42.1c.3 0 .5 0 .8.1 1.6.4 2 1.9 1.6 3.6-.4 1.6-2.1 2.6-3.7 2.1-1.6-.4-2.1-2-1.6-3.6.3-1.3 1.5-2.2 2.9-2.2zm8.8 0c1.4 0 2.7.9 3 2.2.4 1.6 0 3.1-1.6 3.6-1.6.4-3.3-.5-3.7-2.1-.4-1.6 0-3.1 1.6-3.6.2 0 .4 0 .7-.1zM37 49.7c.4 0 2.4 2.5 2.2 2.8-.2.3-4.1.3-4.3 0-.3-.3 1.7-2.8 2.1-2.8z"/></svg>