<svg xmlns="http://www.w3.org/2000/svg" viewBox="0 0 72 96"><style type="text/css">  
	.st0{fill:#CCCCCC;}
	.st1{fill:#333333;}
	.st2{fill:#999999;}
</style><path class="st0" d="M0 2l0 92c0 1.1 0.9 2 2 2h68c1.1 0 2-0.9 2-2V28H50c-1.1 0-2-0.9-2-2V0L2 0C0.9 0 0 0.9 0 2z"/><path class="st0" d="M71.9 24c-0.1-0.4-0.2-0.7-0.4-1L52 1.2V24H71.9z"/><path class="st1" d="M22 70.4h4.2c3.7 0 5.9 2.6 5.9 7.1 0 4.5-2.2 7.2-5.9 7.2H22V70.4zM26.1 81.8c1.7 0 2.6-1.5 2.6-4.3 0-2.8-1-4.2-2.6-4.2h-0.8v8.5H26.1z"/><path class="st1" d="M35.2 70.4h3.3v14.3h-3.3V70.4z"/><path class="st1" d="M41.6 82.5l4.2-7.9c0.5-0.9 0.8-1.3 0.8-1.3v0c0 0-0.3 0.1-0.8 0.1h-4v-2.9h8.7v2.2l-4.2 8c-0.5 0.9-0.8 1.3-0.8 1.3v0c0 0 0.3-0.1 0.8-0.1h4.3v2.9h-8.9V82.5z"/><path class="st2" d="M0 94L0 2c0-1.1 0.9-2 2-2l48 0c0.6 0 1.1 0.2 1.5 0.7l20 22.3c0.3 0.4 0.5 0.8 0.5 1.3V94c0 1.1-0.9 2-2 2H2C0.9 96 0 95.1 0 94zM68 25.1L49.1 4H4v88h64V25.1z"/><path class="st2" d="M48 26V4c0-1.1 0.9-2 2-2s2 0.9 2 2v20h16c1.1 0 2 0.9 2 2s-0.9 2-2 2H50C48.9 28 48 27.1 48 26z"/><path class="st2" d="M55.3 28.5c-2.9 0-2.1 2.9-2.7 4.2 -0.2 0.5-0.6 1.3-0.9 2.1l0.2-0.5c-0.2 0.4-0.3 0.6-0.8 0.9 0 0-2 1.2-3.8 2.3 -2.1-3.7-6-5.9-10.2-5.9 -4.2 0-8.1 2.3-10.2 5.9 -1.9-1.1-3.9-2.3-3.9-2.3 -0.5-0.3-0.7-0.5-0.8-0.9l0.2 0.5c-0.3-0.8-0.7-1.6-0.9-2.1 -0.5-1.3 0.3-4.2-2.7-4.2 -2.9 0-2.4 4-3.3 5.5 -0.6 1-2.3 2-3.1 3.2 -0.1 0.1-0.1 0.2-0.1 0.3 -0.3 0.6-0.4 1.3 0.1 2.1 1.5 2.5 3.6 0.4 5 0.2 0.6-0.1 1.4-0.1 2.3-0.3l-0.6 0.1c0.4-0.1 0.7 0 1.2 0.3 0 0 2.2 1.2 5 2.8 0 0.2 0 0.5 0 0.7 0 2.2 0.6 4.4 1.8 6.2 -3.8 2.3-7.1 4.3-7.1 4.3 -0.5 0.3-0.7 0.4-1.1 0.3l0.5 0c-0.8 0-1.6 0-2.1 0 -1.3 0-3.1-1.6-4.7 0.6 -1.6 2.2 1.7 3.2 2.4 4.4 0.7 1.2-0.2 4.6 2.6 4.3 2.7-0.3 2.3-2.6 2.9-3.8 0.3-0.5 0.7-1.1 1-1.8l-0.2 0.5c0.2-0.3 0.4-0.5 0.9-0.8 0 0 3.2-1.7 6.8-3.8v5.2c1 0.4 2 0.7 3 0.9v-2.8c0.5 0.1 1 0.2 1.5 0.3v2.8c1 0.2 2 0.3 3 0.3v-2.8c0.2 0 0.5 0 0.7 0 0.2 0 0.5 0 0.7 0v2.7c1 0 2-0.1 3-0.3v-2.8c0.5-0.1 1-0.2 1.5-0.3v2.8c1-0.2 2-0.5 3-0.9v-5.2c3.7 2 6.8 3.8 6.8 3.8 0.5 0.3 0.7 0.5 0.9 0.8 0.3 0.5 0.6 1 0.8 1.4 0.6 1.1 0.2 3.5 2.9 3.8 2.7 0.3 1.9-3.1 2.6-4.3 0.7-1.2 4-2.1 2.4-4.4 -1.6-2.2-3.4-0.7-4.7-0.6 -0.5 0-1.3 0-2.1 0l0.5 0c-0.4 0-0.6 0-1.1-0.3 0 0-3.3-2-7.1-4.3 1.2-1.9 1.8-4 1.8-6.2 0-0.2 0-0.5 0-0.7 2.8-1.6 5-2.8 5-2.8 0.5-0.3 0.8-0.3 1.2-0.3l-0.6-0.1c0.9 0.1 1.7 0.2 2.3 0.3 1.4 0.2 3.5 2.3 5-0.2 1.5-2.5-2.2-4.1-3.1-5.6 -0.6-1-0.5-3-1.2-4.3 0-0.1-0.1-0.2-0.1-0.2C56.7 28.8 56.2 28.5 55.3 28.5L55.3 28.5zM32.6 42.1c0.3 0 0.5 0 0.8 0.1 1.6 0.4 2 1.9 1.6 3.6 -0.4 1.6-2.1 2.6-3.7 2.1 -1.6-0.4-2.1-2-1.6-3.6C30 43 31.2 42.1 32.6 42.1L32.6 42.1zM41.4 42.1c1.4 0 2.7 0.9 3 2.2 0.4 1.6 0 3.1-1.6 3.6 -1.6 0.4-3.3-0.5-3.7-2.1 -0.4-1.6 0-3.1 1.6-3.6C40.9 42.2 41.1 42.2 41.4 42.1L41.4 42.1zM37 49.7c0.4 0 2.4 2.5 2.2 2.8 -0.2 0.3-4.1 0.3-4.3 0C34.6 52.2 36.6 49.7 37 49.7z"/></svg>