<svg xmlns="http://www.w3.org/2000/svg" viewBox="0 0 72 96"><style type="text/css">  
	.st0{fill:#4D1B9B;}
	.st1{fill:#FFFFFF;}
</style><path class="st0" d="M0 2v92c0 1.1 0.9 2 2 2h68c1.1 0 2-0.9 2-2V28H50c-1.1 0-2-0.9-2-2V0H2C0.9 0 0 0.9 0 2z"/><path class="st0" d="M71.9 24c-0.1-0.4-0.2-0.7-0.4-1L52 1.2V24H71.9z"/><path class="st1" d="M6 41h60v49H6V41zM6.6 6.4h4.2c3.7 0 5.9 2.6 5.9 7.1s-2.2 7.2-5.9 7.2H6.6C6.6 20.7 6.6 6.4 6.6 6.4zM10.7 17.8c1.7 0 2.6-1.5 2.6-4.3s-1-4.2-2.6-4.2H9.9v8.5C9.9 17.8 10.7 17.8 10.7 17.8zM18.8 6.4h3.6l1.3 6c0.2 0.9 0.4 2.4 0.4 2.4h0.1c0 0 0.2-1.5 0.4-2.4l1.3-6h3.6l0.9 14.3h-3L27 14.3c-0.1-1.1 0-2.4 0-2.4h-0.1c0 0-0.2 1.5-0.4 2.4l-0.9 4.1h-3.2l-0.9-4.1c-0.2-0.9-0.4-2.4-0.4-2.4H21c0 0 0.1 1.3 0 2.4l-0.4 6.4h-3C17.6 20.7 18.8 6.4 18.8 6.4zM38.1 6.1c1.4 0 2.9 0.4 3.9 1.3l-1.4 2.8c-0.6-0.6-1.4-0.9-2.3-0.9 -2.2 0-3.2 1.9-3.2 4.2 0 2.6 1.2 4.3 2.9 4.3 0.6 0 1.3-0.2 1.7-0.6v-1.7h-1.5v-2.9h4.3v8.1h-2.6v-0.9c-0.5 0.7-1.6 1.2-2.7 1.2 -2.8 0-5.6-2.7-5.6-7.3C31.8 9.2 34.3 6.1 38.1 6.1z"/><path class="st0" d="M50.9 70.8c1.4 0 2.6 0.6 3.5 1.4l-3-21.8c-0.2-1.8-1.8-3-3.5-3H25.1c-1.8 0-3.3 1.2-3.6 3l-3 21.8c1-0.8 2.2-1.4 3.6-1.4H50.9z"/><path class="st0" d="M50.9 72.5H22.1c-2 0-3.6 1.6-3.6 3.6v3.6c0 2 1.6 3.6 3.6 3.6h28.8c2 0 3.6-1.6 3.6-3.6v-3.6C54.5 74.1 52.9 72.5 50.9 72.5zM47.8 79.4h-2.2c-0.6 0-1.1-0.5-1.1-1.1 0-0.6 0.5-1.1 1.1-1.1h2.2c0.6 0 1.1 0.5 1.1 1.1C48.9 78.9 48.4 79.4 47.8 79.4zM50.7 79.4c-0.6 0-1.1-0.5-1.1-1.1 0-0.6 0.5-1.1 1.1-1.1s1.1 0.5 1.1 1.1C51.9 78.9 51.4 79.4 50.7 79.4z"/></svg>