<svg xmlns="http://www.w3.org/2000/svg" viewBox="0 0 72 96"><style type="text/css">  
	.st0{fill:#B4BDCC;}
	.st1{opacity:0.6;fill:#EF806F;enable-background:new    ;}
	.st2{opacity:0.6;fill:#1EA6C6;enable-background:new    ;}
	.st3{fill:#FFFFFF;}
</style><path class="st0" d="M0 94V2c0-1.1 0.9-2 2-2h48c0.6 0 1.1 0.2 1.5 0.7l20 22.3c0.3 0.4 0.5 0.8 0.5 1.3V94c0 1.1-0.9 2-2 2H2C0.9 96 0 95.1 0 94zM68 25.1L49.1 4H4v88h64V25.1z"/><path class="st0" d="M48 26V4c0-1.1 0.9-2 2-2s2 0.9 2 2v20h16c1.1 0 2 0.9 2 2s-0.9 2-2 2H50C48.9 28 48 27.1 48 26z"/><path class="st1" d="M55.2 54.5c1.7 1.6 2.8 4 2.8 6.6 0 5-4.1 9.1-9.1 9.1s-9.1-4.1-9.1-9.1c0-0.3 0-0.7 0.1-1 0.5-4.5 4.4-8.1 9.1-8.1C51.4 51.9 53.6 53 55.2 54.5z"/><path class="st2" d="M55.9 51c0 0.7-0.1 1.4-0.2 2.2 -1.9-1.6-4.3-2.5-6.8-2.5 -5.3 0-9.8 4-10.4 9.3V60H21.2c-4 0-7.2-3.2-7.2-7.2 0-3.1 2-5.8 4.7-6.8 0-0.1 0-0.3 0-0.4 0-3.7 3-6.7 6.7-6.7 1.2 0 2.3 0.3 3.3 0.8 1-4.5 5.1-8 10-8 5.7 0 10.3 4.6 10.3 10.3 0 0.1 0 0.1 0 0.2C53 43.1 55.9 46.7 55.9 51z"/><polygon class="st3" points="53.7 61.2 49.1 65.9 44.4 61.2 47.2 61.2 47.2 54.7 50.9 54.7 50.9 61.2 "/></svg>