<svg xmlns="http://www.w3.org/2000/svg" viewBox="0 0 72 96"><style type="text/css">  
	.st0{fill:#CCCCCC;}
	.st1{fill:#999999;}
	.st2{fill:#999999;stroke:#999999;stroke-width:0.5;stroke-miterlimit:10;}
</style><path class="st0" d="M0 2v92c0 1.1 0.9 2 2 2h68c1.1 0 2-0.9 2-2V28H50c-1.1 0-2-0.9-2-2V0H2C0.9 0 0 0.9 0 2z"/><path class="st0" d="M71.9 24c-0.1-0.4-0.2-0.7-0.4-1L52 1.2V24H71.9z"/><path class="st1" d="M0 94V2c0-1.1 0.9-2 2-2h48c0.6 0 1.1 0.2 1.5 0.7l20 22.3c0.3 0.4 0.5 0.8 0.5 1.3V94c0 1.1-0.9 2-2 2H2C0.9 96 0 95.1 0 94zM68 25.1L49.1 4H4v88h64V25.1z"/><path class="st1" d="M48 26V4c0-1.1 0.9-2 2-2s2 0.9 2 2v20h16c1.1 0 2 0.9 2 2s-0.9 2-2 2H50C48.9 28 48 27.1 48 26z"/><rect x="30.5" y="61.2" class="st0" width="11.1" height="4.8"/><path class="st2" d="M52.4 62.3h-3.7c-0.6 0-1.2-0.5-1.2-1.2 0-0.6 0.5-1.2 1.2-1.2h3.7c1 0 1.8-0.8 1.8-1.8V37c0-1-0.8-1.8-1.8-1.8H19.6c-1 0-1.8 0.8-1.8 1.8v21.2c0 1 0.8 1.8 1.8 1.8h21.9c0.6 0 1.2 0.5 1.2 1.2 0 0.6-0.5 1.2-1.2 1.2H19.6c-2.3 0-4.1-1.9-4.1-4.1V37c0-2.3 1.9-4.1 4.1-4.1h32.7c2.3 0 4.1 1.9 4.1 4.1v21.2C56.5 60.5 54.6 62.3 52.4 62.3z"/><path class="st2" d="M41.5 67.1h-11c-0.6 0-1.2-0.5-1.2-1.2v-4.8c0-0.6 0.5-1.2 1.2-1.2h11.1c0.6 0 1.2 0.5 1.2 1.2V66C42.7 66.6 42.2 67.1 41.5 67.1zM31.6 64.8h8.8v-2.5h-8.8L31.6 64.8 31.6 64.8z"/><path class="st2" d="M45 67.1H27c-0.6 0-1.2-0.5-1.2-1.2s0.5-1.2 1.2-1.2h18c0.6 0 1.2 0.5 1.2 1.2S45.6 67.1 45 67.1z"/><path class="st2" d="M46.9 55.8h-8.1c-0.4 0-0.8-0.2-1-0.6s-0.2-0.8 0-1.2 0.4-0.8 0.4-1.2c0-1.2-1-2.3-2.3-2.3 -1.2 0-2.3 1-2.3 2.3 0 0.4 0.1 0.9 0.4 1.2 0.2 0.4 0.2 0.8 0 1.2s-0.6 0.6-1 0.6h-8.1c-0.6 0-1.2-0.5-1.2-1.2v-4c0-0.6 0.4-1.1 1-1.1l1.7-0.3c0.4-1 0.9-1.9 1.6-2.7l-0.6-1.7c-0.2-0.5 0-1.1 0.5-1.4l3.8-2.2c0.5-0.3 1.1-0.2 1.5 0.3l1.1 1.4c1-0.2 2.1-0.2 3.1 0l1.1-1.4c0.4-0.4 1-0.6 1.5-0.3l3.8 2.2c0.5 0.3 0.7 0.9 0.5 1.4l-0.6 1.7c0.7 0.8 1.2 1.7 1.6 2.7l1.7 0.3c0.6 0.1 1 0.6 1 1.1v4C48.1 55.3 47.6 55.8 46.9 55.8zM40.5 53.5h5.3v-1.9l-1.5-0.2c-0.4-0.1-0.8-0.4-0.9-0.8 -0.3-1.1-0.9-2.2-1.8-3 -0.3-0.3-0.4-0.8-0.2-1.2l0.5-1.4 -2.1-1.2 -0.9 1.1c-0.3 0.3-0.7 0.5-1.2 0.4 -1.2-0.3-2.4-0.3-3.5 0 -0.4 0.1-0.9-0.1-1.2-0.4l-0.9-1.1L30 45l0.5 1.4c0.2 0.4 0.1 0.9-0.2 1.2 -0.8 0.9-1.4 1.9-1.8 3 -0.1 0.4-0.5 0.7-0.9 0.8l-1.5 0.2v1.9h5.3c0-0.2-0.1-0.5-0.1-0.7 0-2.5 2.1-4.6 4.6-4.6s4.6 2.1 4.6 4.6C40.6 53 40.6 53.3 40.5 53.5z"/></svg>