<svg xmlns="http://www.w3.org/2000/svg" viewBox="0 0 72 96"><style>.st0{fill:#ccc}.st1,.st2{fill:#999}.st2{stroke:#999;stroke-width:.5;stroke-miterlimit:10}</style><path class="st0" d="M0 2v92c0 1.1.9 2 2 2h68c1.1 0 2-.9 2-2V28H50c-1.1 0-2-.9-2-2V0H2C.9 0 0 .9 0 2z"/><path class="st0" d="M71.9 24c-.1-.4-.2-.7-.4-1L52 1.2V24h19.9z"/><path class="st1" d="M0 94V2C0 .9.9 0 2 0h48c.6 0 1.1.2 1.5.7l20 22.3c.3.4.5.8.5 1.3V94c0 1.1-.9 2-2 2H2c-1.1 0-2-.9-2-2zm68-68.9L49.1 4H4v88h64V25.1z"/><path class="st1" d="M48 26V4c0-1.1.9-2 2-2s2 .9 2 2v20h16c1.1 0 2 .9 2 2s-.9 2-2 2H50c-1.1 0-2-.9-2-2z"/><path class="st0" d="M30.5 61.2h11.1V66H30.5z"/><path class="st2" d="M52.4 62.3h-3.7c-.6 0-1.2-.5-1.2-1.2 0-.6.5-1.2 1.2-1.2h3.7c1 0 1.8-.8 1.8-1.8V37c0-1-.8-1.8-1.8-1.8H19.6c-1 0-1.8.8-1.8 1.8v21.2c0 1 .8 1.8 1.8 1.8h21.9c.6 0 1.2.5 1.2 1.2 0 .6-.5 1.2-1.2 1.2H19.6c-2.3 0-4.1-1.9-4.1-4.1V37c0-2.3 1.9-4.1 4.1-4.1h32.7c2.3 0 4.1 1.9 4.1 4.1v21.2c.1 2.3-1.8 4.1-4 4.1z"/><path class="st2" d="M41.5 67.1h-11c-.6 0-1.2-.5-1.2-1.2v-4.8c0-.6.5-1.2 1.2-1.2h11.1c.6 0 1.2.5 1.2 1.2V66c-.1.6-.6 1.1-1.3 1.1zm-9.9-2.3h8.8v-2.5h-8.8v2.5z"/><path class="st2" d="M45 67.1H27c-.6 0-1.2-.5-1.2-1.2s.5-1.2 1.2-1.2h18c.6 0 1.2.5 1.2 1.2s-.6 1.2-1.2 1.2zm1.9-11.3h-8.1c-.4 0-.8-.2-1-.6s-.2-.8 0-1.2.4-.8.4-1.2c0-1.2-1-2.3-2.3-2.3-1.2 0-2.3 1-2.3 2.3 0 .4.1.9.4 1.2.2.4.2.8 0 1.2s-.6.6-1 .6h-8.1c-.6 0-1.2-.5-1.2-1.2v-4c0-.6.4-1.1 1-1.1l1.7-.3c.4-1 .9-1.9 1.6-2.7l-.6-1.7c-.2-.5 0-1.1.5-1.4l3.8-2.2c.5-.3 1.1-.2 1.5.3l1.1 1.4c1-.2 2.1-.2 3.1 0l1.1-1.4c.4-.4 1-.6 1.5-.3l3.8 2.2c.5.3.7.9.5 1.4l-.6 1.7c.7.8 1.2 1.7 1.6 2.7l1.7.3c.6.1 1 .6 1 1.1v4c.1.7-.4 1.2-1.1 1.2zm-6.4-2.3h5.3v-1.9l-1.5-.2c-.4-.1-.8-.4-.9-.8-.3-1.1-.9-2.2-1.8-3-.3-.3-.4-.8-.2-1.2l.5-1.4-2.1-1.2-.9 1.1c-.3.3-.7.5-1.2.4-1.2-.3-2.4-.3-3.5 0-.4.1-.9-.1-1.2-.4l-.9-1.1L30 45l.5 1.4c.2.4.1.9-.2 1.2-.8.9-1.4 1.9-1.8 3-.1.4-.5.7-.9.8l-1.5.2v1.9h5.3c0-.2-.1-.5-.1-.7 0-2.5 2.1-4.6 4.6-4.6s4.6 2.1 4.6 4.6c.1.2.1.5 0 .7z"/></svg>