<svg xmlns="http://www.w3.org/2000/svg" viewBox="0 0 72 96"><style type="text/css">  
	.st0{fill:#669966;}
	.st1{fill:#FFFFFF;}
</style><path class="st0" d="M0 2l0 92c0 1.1 0.9 2 2 2h68c1.1 0 2-0.9 2-2V28H50c-1.1 0-2-0.9-2-2V0L2 0C0.9 0 0 0.9 0 2z"/><path class="st0" d="M71.9 24c-0.1-0.4-0.2-0.7-0.4-1L52 1.2V24H71.9z"/><rect x="6" y="41" class="st1" width="60" height="49"/><path class="st1" d="M6.6 6.4h7.2v2.9H9.9V12H13v2.9H9.9v2.9H14v2.9H6.6V6.4z"/><path class="st1" d="M17.1 6.4h3.5L23 13c0.4 1 0.7 2.4 0.7 2.4h0.1c0 0-0.2-1.5-0.2-2.4V6.4h3.1v14.3h-3.4l-2.5-6.6c-0.4-1-0.7-2.4-0.7-2.4H20c0 0 0.2 1.5 0.2 2.4v6.6h-3.1V6.4z"/><path class="st1" d="M36.2 6.1c1.3 0 2.6 0.4 3.6 1.2l-1.4 2.8c-0.4-0.5-1.3-0.9-2.1-0.9 -2.1 0-3.2 1.9-3.2 4.2 0 2.3 1.2 4.4 3.2 4.4 1 0 1.7-0.5 2.3-1l1.4 2.8c-0.9 0.7-2 1.3-3.9 1.3 -4 0-6.3-3.1-6.3-7.4C29.8 9.3 32.2 6.1 36.2 6.1z"/><path class="st0" d="M49.2 62.2h-2.6v-5c0-5.7-4.6-10.2-10.2-10.2s-10.2 4.6-10.2 10.2v5h-2.6c-1 0-1.8 0.8-1.8 1.8v17.4c0 1 0.8 1.8 1.8 1.8h25.6c1 0 1.8-0.8 1.8-1.8V63.9C51 63 50.2 62.2 49.2 62.2zM38.6 76.6c0.2 0.6-0.3 1.1-0.9 1.1h-2.7c-0.6 0-1-0.6-0.9-1.1l0.8-3.2c-1-0.5-1.7-1.5-1.7-2.8 0-1.7 1.4-3.1 3.1-3.1 1.7 0 3.1 1.4 3.1 3.1 0 1.2-0.7 2.3-1.7 2.8L38.6 76.6zM41.5 62.2H31.3v-5c0-2.8 2.3-5.1 5.1-5.1s5.1 2.3 5.1 5.1L41.5 62.2 41.5 62.2z"/></svg>