<svg id="Layer_1" xmlns="http://www.w3.org/2000/svg" viewBox="0 0 72 96"><style>.st0{fill:#d10407}.st1{fill:#fff}</style><path class="st0" d="M0 2v92c0 1.1.9 2 2 2h68c1.1 0 2-.9 2-2V28H50c-1.1 0-2-.9-2-2V0H2C.9 0 0 .9 0 2z"/><path class="st0" d="M71.9 24c-.1-.4-.2-.7-.4-1L52 1.2V24h19.9z"/><path class="st1" d="M6 41h60v49H6zm.6-34.6h7.1v2.9H9.9v3.1H13v2.9H9.9v5.4H6.6V6.4zm9.3 8.8l3.7-8.8h4.2v8.1H25v3h-1.2v3.2h-3.2v-3.2h-4.7v-2.3zm4.7-.7v-3.4c0-.8.1-1.3.1-1.3s-.1.6-.3 1.2L19 14.5h1.6zm6.1-8.1h3.6l1.6 8.1c.2.9.3 2.3.3 2.3h.1s.2-1.4.3-2.3l1.7-8.1h3.5l-3.9 14.3h-3.3L26.7 6.4z"/><path class="st0" d="M35.8 1000.4c-9.7 0-17.5 7.8-17.5 17.5s7.8 17.5 17.5 17.5 17.5-7.8 17.5-17.5c-.1-9.7-7.9-17.5-17.5-17.5zm3.2 4.1l-2.8 10.6h7.4l-11.1 16.1 2.8-10.6h-7.4l11.1-16.1z" transform="translate(0 -952.362)"/></svg>