<svg id="Layer_1" xmlns="http://www.w3.org/2000/svg" viewBox="0 0 72 96"><style>.st0{fill:#fea500}.st1{fill:#fff}.st2{font-family:&apos;MuseoSansCond-900&apos;}.st3{font-size:20px}.st4{letter-spacing:1}</style><path class="st0" d="M0 2v92c0 1.1.9 2 2 2h68c1.1 0 2-.9 2-2V28H50c-1.1 0-2-.9-2-2V0H2C.9 0 0 .9 0 2z"/><path class="st0" d="M71.9 24c-.1-.4-.2-.7-.4-1L52 1.2V24h19.9z"/><path class="st1" d="M6 41h60v49H6z"/><text transform="translate(5.517 20.693)" class="st1 st2 st3 st4">FAX</text><path class="st0" d="M30.9 60.7V50.2c0-1.1.9-1.9 1.9-1.9h11.9l6.1 6.1v6.2c0 .2-.2.4-.4.4h-2.1c-.2 0-.4-.2-.4-.4v-4.2H44c-.8 0-1.4-.6-1.4-1.4v-3.8h-8.8v9.4c0 .2-.2.4-.4.4h-2.1c-.2.1-.4-.1-.4-.3zm0 22.6V64.7c0-.4.3-.7.7-.7h20.6c.4 0 .7.3.7.7v15.6c0 2-1.7 3.7-3.7 3.7H31.7c-.5 0-.8-.3-.8-.7zm14.5-14.4c0 .9.7 1.5 1.5 1.5s1.5-.7 1.5-1.5c0-.9-.7-1.5-1.5-1.5-.8-.1-1.5.6-1.5 1.5zm0 5.1c0 .9.7 1.5 1.5 1.5.9 0 1.5-.7 1.5-1.5s-.7-1.5-1.5-1.6c-.8 0-1.5.7-1.5 1.6zm-5.1-5.1c0 .8.7 1.5 1.5 1.5s1.5-.7 1.5-1.5-.7-1.5-1.5-1.5c-.8-.1-1.5.6-1.5 1.5zm0 5.1c0 .8.7 1.5 1.5 1.5.9 0 1.5-.7 1.5-1.5 0-.9-.7-1.5-1.5-1.6-.8 0-1.5.7-1.5 1.6zm0 5.1c0 .8.7 1.5 1.5 1.5.9 0 1.5-.7 1.5-1.5s-.7-1.5-1.5-1.5-1.5.7-1.5 1.5zm-5.1-10.2c0 .9.7 1.5 1.5 1.5s1.5-.7 1.5-1.5c0-.9-.7-1.5-1.5-1.5-.9-.1-1.5.6-1.5 1.5zm0 5.1c0 .9.7 1.5 1.5 1.5.9 0 1.5-.7 1.5-1.5 0-.9-.7-1.5-1.5-1.6-.8 0-1.5.7-1.5 1.6zm0 5.1c0 .8.7 1.5 1.5 1.5.9 0 1.5-.7 1.5-1.5s-.7-1.5-1.5-1.5c-.9 0-1.5.7-1.5 1.5zM22.3 84h4.9c.4 0 .7-.3.7-.7V60c0-.4-.3-.7-.7-.7h-3.9c-2.6 0-4.7 2.1-4.7 4.7v16.4c0 1.9 1.6 3.6 3.7 3.6z"/></svg>