<svg xmlns="http://www.w3.org/2000/svg" viewBox="0 0 72 96"><style type="text/css">  
	.st0{fill:#FEA500;}
	.st1{fill:#FFFFFF;}
	.st2{enable-background:new    ;}
</style><path class="st0" d="M0 2v92c0 1.1 0.9 2 2 2h68c1.1 0 2-0.9 2-2V28H50c-1.1 0-2-0.9-2-2V0H2C0.9 0 0 0.9 0 2z"/><path class="st0" d="M71.9 24c-0.1-0.4-0.2-0.7-0.4-1L52 1.2V24H71.9z"/><path class="st1" d="M6 41h60v49H6V41z"/><g class="st2"><path class="st1" d="M6.6 6.4h7.1v2.9H9.9v3.1H13v2.9H9.9v5.4H6.6V6.4z"/><path class="st1" d="M18 6.4h3.6l3.6 14.3h-3.3l-0.6-3h-3l-0.6 3h-3.3L18 6.4zM20.8 15l-0.6-2.8c-0.2-0.9-0.4-2.5-0.4-2.5h-0.1c0 0-0.2 1.5-0.4 2.5L18.7 15H20.8z"/><path class="st1" d="M29.5 13.6L26 6.4h3.6l1.1 2.9c0.3 0.9 0.6 1.8 0.6 1.8h0c0 0 0.2-0.9 0.6-1.8l1.2-2.9h3.6l-3.4 7.2 3.3 7.1h-3.5l-1.1-3c-0.4-0.9-0.6-1.7-0.6-1.7h0c0 0-0.2 0.8-0.6 1.7l-1.1 3h-3.5L29.5 13.6z"/></g><path class="st0" d="M30.9 60.7V50.2c0-1.1 0.9-1.9 1.9-1.9h11.9l6.1 6.1v6.2c0 0.2-0.2 0.4-0.4 0.4h-2.1c-0.2 0-0.4-0.2-0.4-0.4v-4.2H44c-0.8 0-1.4-0.6-1.4-1.4v-3.8h-8.8v9.4c0 0.2-0.2 0.4-0.4 0.4h-2.1C31.1 61.1 30.9 60.9 30.9 60.7zM30.9 83.3V64.7c0-0.4 0.3-0.7 0.7-0.7h20.6c0.4 0 0.7 0.3 0.7 0.7v15.6c0 2-1.7 3.7-3.7 3.7H31.7C31.2 84 30.9 83.7 30.9 83.3zM45.4 68.9c0 0.9 0.7 1.5 1.5 1.5s1.5-0.7 1.5-1.5c0-0.9-0.7-1.5-1.5-1.5C46.1 67.3 45.4 68 45.4 68.9zM45.4 74c0 0.9 0.7 1.5 1.5 1.5 0.9 0 1.5-0.7 1.5-1.5s-0.7-1.5-1.5-1.6C46.1 72.4 45.4 73.1 45.4 74zM40.3 68.9c0 0.8 0.7 1.5 1.5 1.5s1.5-0.7 1.5-1.5 -0.7-1.5-1.5-1.5C41 67.3 40.3 68 40.3 68.9zM40.3 74c0 0.8 0.7 1.5 1.5 1.5 0.9 0 1.5-0.7 1.5-1.5 0-0.9-0.7-1.5-1.5-1.6C41 72.4 40.3 73.1 40.3 74zM40.3 79.1c0 0.8 0.7 1.5 1.5 1.5 0.9 0 1.5-0.7 1.5-1.5s-0.7-1.5-1.5-1.5S40.3 78.3 40.3 79.1zM35.2 68.9c0 0.9 0.7 1.5 1.5 1.5s1.5-0.7 1.5-1.5c0-0.9-0.7-1.5-1.5-1.5C35.8 67.3 35.2 68 35.2 68.9zM35.2 74c0 0.9 0.7 1.5 1.5 1.5 0.9 0 1.5-0.7 1.5-1.5 0-0.9-0.7-1.5-1.5-1.6C35.9 72.4 35.2 73.1 35.2 74zM35.2 79.1c0 0.8 0.7 1.5 1.5 1.5 0.9 0 1.5-0.7 1.5-1.5s-0.7-1.5-1.5-1.5C35.8 77.6 35.2 78.3 35.2 79.1zM22.3 84h4.9c0.4 0 0.7-0.3 0.7-0.7V60c0-0.4-0.3-0.7-0.7-0.7h-3.9c-2.6 0-4.7 2.1-4.7 4.7v16.4C18.6 82.3 20.2 84 22.3 84z"/></svg>