<svg xmlns="http://www.w3.org/2000/svg" viewBox="0 0 72 96"><style>.st0{fill:#ccc}.st1{fill:#333}.st2{fill:#999}</style><path class="st0" d="M0 2v92c0 1.1.9 2 2 2h68c1.1 0 2-.9 2-2V28H50c-1.1 0-2-.9-2-2V0H2C.9 0 0 .9 0 2z"/><path class="st0" d="M71.9 24c-.1-.4-.2-.7-.4-1L52 1.2V24h19.9z"/><path class="st1" d="M22.3 64.4H25v3.3h-2.7v-3.3zm9.5-11.2c1.2 0 2.6.4 3.5 1.3L34 57.3c-.5-.6-1.3-.9-2.1-.9-2 0-2.8 1.9-2.8 4.2 0 2.6 1.1 4.3 2.6 4.3.6 0 1.1-.2 1.5-.6v-1.7H32v-2.9h3.9v8.1h-2.3v-.9c-.5.7-1.4 1.2-2.4 1.2-2.5 0-5-2.7-5-7.3-.1-4.6 2.2-7.6 5.6-7.6zm5.9.2h3v14.3h-3V53.4zm7.1 2.9H42v-2.9h8.6v2.9h-2.8v11.4h-2.9V56.3zM8.6 71.4h3v14.3h-3V71.4zm10.3-.2c1.2 0 2.6.4 3.5 1.3l-1.3 2.8c-.5-.6-1.3-.9-2.1-.9-2 0-2.8 1.9-2.8 4.2 0 2.6 1.1 4.3 2.6 4.3.6 0 1.1-.2 1.5-.6v-1.7H19v-2.9h4v8.1h-2.3v-.9c-.5.7-1.4 1.2-2.4 1.2-2.5 0-5-2.7-5-7.3-.1-4.6 2.1-7.6 5.6-7.6zm5.9.2h3.1l2.2 6.6c.4 1 .6 2.4.6 2.4h.1s-.2-1.5-.2-2.4v-6.6h2.8v14.3h-3.1l-2.2-6.6c-.3-1-.6-2.4-.6-2.4h-.1s.2 1.5.2 2.4v6.6h-2.8V71.4zm15.5-.2c3.4 0 5.3 3.1 5.3 7.3 0 4.2-1.9 7.5-5.3 7.5S35 82.8 35 78.5c.1-4.2 1.9-7.3 5.3-7.3zm0 11.6c1.5 0 2.2-1.8 2.2-4.3s-.7-4.2-2.2-4.2-2.2 1.7-2.2 4.2.7 4.3 2.2 4.3zm6.9-11.4h4.1c.5 0 1.2.1 1.7.4 1.3.6 2.2 2.1 2.2 4 0 1.7-.7 3.3-1.8 4 0 0 .2.2.5.9l2.1 5h-3.2L51 80.9h-.7v4.8h-3V71.4zm3.6 6.6c.8 0 1.4-.7 1.4-1.9 0-.7-.2-1.2-.5-1.5-.2-.2-.5-.3-.8-.3h-.7V78h.6zm6.3-6.6h6.5v2.9H60V77h2.8v2.9H60v2.9h3.7v2.9h-6.6V71.4z"/><path class="st2" d="M0 94V2C0 .9.9 0 2 0h48c.6 0 1.1.2 1.5.7l20 22.3c.3.4.5.8.5 1.3V94c0 1.1-.9 2-2 2H2c-1.1 0-2-.9-2-2zm68-68.9L49.1 4H4v88h64V25.1z"/><path class="st2" d="M48 26V4c0-1.1.9-2 2-2s2 .9 2 2v20h16c1.1 0 2 .9 2 2s-.9 2-2 2H50c-1.1 0-2-.9-2-2z"/></svg>