<svg xmlns="http://www.w3.org/2000/svg" viewBox="0 0 72 96"><style type="text/css">  
	.st0{fill:#CCCCCC;}
	.st1{fill:#999999;}
</style><path class="st0" d="M0 2v92c0 1.1 0.9 2 2 2h68c1.1 0 2-0.9 2-2V28H50c-1.1 0-2-0.9-2-2V0H2C0.9 0 0 0.9 0 2z"/><path class="st0" d="M71.9 24c-0.1-0.4-0.2-0.7-0.4-1L52 1.2V24H71.9z"/><path class="st1" d="M0 94V2c0-1.1 0.9-2 2-2h48c0.6 0 1.1 0.2 1.5 0.7l20 22.3c0.3 0.4 0.5 0.8 0.5 1.3V94c0 1.1-0.9 2-2 2H2C0.9 96 0 95.1 0 94zM68 25.1L49.1 4H4v88h64C68 92 68 25.1 68 25.1z"/><path class="st1" d="M48 26V4c0-1.1 0.9-2 2-2s2 0.9 2 2v20h16c1.1 0 2 0.9 2 2s-0.9 2-2 2H50C48.9 28 48 27.1 48 26z"/><path class="st1" d="M50.5 35c-8-8-21-8-29 0 -8 8-8 21 0 29s21 8 29 0S58.5 43 50.5 35zM23.3 57.7c-3.8-5.9-3.1-13.8 2-18.9 5.1-5.1 13-5.8 18.9-2L23.3 57.7zM27.8 62.2l20.9-20.9c3.8 5.9 3.1 13.8-2 18.9C41.6 65.3 33.7 66 27.8 62.2z"/></svg>