<svg id="Layer_1" xmlns="http://www.w3.org/2000/svg" viewBox="0 0 72 96"><style>.st0{fill:#ccc}.st1{fill:#333}.st2{fill:#999}</style><path class="st0" d="M0 2v92c0 1.1.9 2 2 2h68c1.1 0 2-.9 2-2V28H50c-1.1 0-2-.9-2-2V0H2C.9 0 0 .9 0 2z"/><path class="st0" d="M71.9 24c-.1-.4-.2-.7-.4-1L52 1.2V24h19.9z"/><path class="st1" d="M11.3 70.2c.9 0 1.9.4 2.5 1.3l-.8 2.7c-.4-.6-.9-.9-1.5-.9-1.4 0-2 1.9-2 4.2 0 2.6.8 4.3 1.8 4.3.4 0 .8-.2 1.1-.6v-1.7h-.9v-2.9h2.8v8.1h-1.6v-.9c-.3.7-1 1.2-1.7 1.2-1.8 0-3.6-2.7-3.6-7.3-.1-4.5 1.5-7.5 3.9-7.5zm4.1.2h2.1v14.3h-2.1V70.4zm4.9 2.9h-2v-2.9h6.1v2.9h-2v11.4h-2.1V73.3zm5-2.9h2.1v14.3h-2.1V70.4zm7.1-.2c.9 0 1.9.4 2.5 1.3l-.9 2.7c-.4-.6-.9-.9-1.5-.9-1.4 0-2 1.9-2 4.2 0 2.6.8 4.3 1.8 4.3.4 0 .8-.2 1.1-.6v-1.7h-.9v-2.9h2.8v8.1h-1.6v-.9c-.3.7-1 1.2-1.7 1.2-1.8 0-3.6-2.7-3.6-7.3 0-4.5 1.5-7.5 4-7.5zm4.1.2h2.2l1.6 6.6c.3 1 .4 2.4.4 2.4h.1s-.1-1.5-.1-2.4v-6.6h2v14.3h-2.2l-1.6-6.6c-.2-1-.4-2.4-.4-2.4h-.1s.1 1.5.1 2.4v6.6h-2V70.4zm10.9-.2c2.4 0 3.8 3.1 3.8 7.3 0 4.2-1.3 7.5-3.8 7.5s-3.7-3.2-3.7-7.5c0-4.2 1.3-7.3 3.7-7.3zm0 11.6c1.1 0 1.6-1.8 1.6-4.3s-.5-4.2-1.6-4.2-1.6 1.7-1.6 4.2.5 4.3 1.6 4.3zm4.8-11.4h2.9c.4 0 .8.1 1.2.4.9.6 1.5 2.1 1.5 4 0 1.7-.5 3.3-1.3 4 0 0 .1.2.3.9l1.5 5H56l-1.3-4.8h-.5v4.8h-2.1V70.4zm2.5 6.6c.5 0 1-.7 1-1.9 0-.7-.1-1.2-.4-1.5-.2-.2-.4-.3-.6-.3h-.5V77h.5zm4.3-6.6h4.6v2.9h-2.5V76h2v2.9h-2v2.9h2.6v2.9H59V70.4z"/><path class="st2" d="M0 94V2C0 .9.9 0 2 0h48c.6 0 1.1.2 1.5.7l20 22.3c.3.4.5.8.5 1.3V94c0 1.1-.9 2-2 2H2c-1.1 0-2-.9-2-2zm68-68.9L49.1 4H4v88h64V25.1z"/><path class="st2" d="M48 26V4c0-1.1.9-2 2-2s2 .9 2 2v20h16c1.1 0 2 .9 2 2s-.9 2-2 2H50c-1.1 0-2-.9-2-2z"/></svg>