<svg xmlns="http://www.w3.org/2000/svg" viewBox="0 0 72 96"><style type="text/css">  
	.st0{fill:#CCCCCC;}
	.st1{fill:#333333;}
	.st2{fill:#999999;}
</style><path class="st0" d="M0 2l0 92c0 1.1 0.9 2 2 2h68c1.1 0 2-0.9 2-2V28H50c-1.1 0-2-0.9-2-2V0L2 0C0.9 0 0 0.9 0 2z"/><path class="st0" d="M71.9 24c-0.1-0.4-0.2-0.7-0.4-1L52 1.2V24H71.9z"/><path class="st1" d="M22.3 64.4H25v3.3h-2.7V64.4z"/><path class="st1" d="M31.8 53.2c1.2 0 2.6 0.4 3.5 1.3l-1.3 2.8c-0.5-0.6-1.3-0.9-2.1-0.9 -2 0-2.8 1.9-2.8 4.2 0 2.6 1.1 4.3 2.6 4.3 0.6 0 1.1-0.2 1.5-0.6v-1.7H32v-2.9h3.9v8.1h-2.3v-0.4c0-0.2 0-0.5 0-0.5h0c-0.5 0.7-1.4 1.2-2.4 1.2 -2.5 0-5-2.7-5-7.3C26.1 56.2 28.4 53.2 31.8 53.2z"/><path class="st1" d="M37.7 53.4h3v14.3h-3V53.4z"/><path class="st1" d="M44.8 56.3H42v-2.9h8.6v2.9h-2.8v11.4h-2.9V56.3z"/><path class="st1" d="M8.6 71.4h3v14.3h-3V71.4z"/><path class="st1" d="M18.9 71.2c1.2 0 2.6 0.4 3.5 1.3l-1.3 2.8c-0.5-0.6-1.3-0.9-2.1-0.9 -2 0-2.8 1.9-2.8 4.2 0 2.6 1.1 4.3 2.6 4.3 0.6 0 1.1-0.2 1.5-0.6v-1.7h-1.3v-2.9H23v8.1h-2.3v-0.4c0-0.2 0-0.5 0-0.5h0c-0.5 0.7-1.4 1.2-2.4 1.2 -2.5 0-5-2.7-5-7.3C13.2 74.2 15.4 71.2 18.9 71.2z"/><path class="st1" d="M24.8 71.4h3.1l2.2 6.6c0.4 1 0.6 2.4 0.6 2.4h0.1c0 0-0.2-1.5-0.2-2.4v-6.6h2.8v14.3h-3.1l-2.2-6.6c-0.3-1-0.6-2.4-0.6-2.4h-0.1c0 0 0.2 1.5 0.2 2.4v6.6h-2.8V71.4z"/><path class="st1" d="M40.3 71.2c3.4 0 5.3 3.1 5.3 7.3 0 4.2-1.9 7.5-5.3 7.5 -3.4 0-5.3-3.2-5.3-7.5C35.1 74.3 36.9 71.2 40.3 71.2zM40.3 82.8c1.5 0 2.2-1.8 2.2-4.3 0-2.5-0.7-4.2-2.2-4.2s-2.2 1.7-2.2 4.2C38.1 81 38.8 82.8 40.3 82.8z"/><path class="st1" d="M47.2 71.4h4.1c0.5 0 1.2 0.1 1.7 0.4 1.3 0.6 2.2 2.1 2.2 4 0 1.7-0.7 3.3-1.8 4v0c0 0 0.2 0.2 0.5 0.9l2.1 5h-3.2l-1.8-4.8h-0.7v4.8h-3V71.4zM50.8 78c0.8 0 1.4-0.7 1.4-1.9 0-0.7-0.2-1.2-0.5-1.5 -0.2-0.2-0.5-0.3-0.8-0.3h-0.7V78H50.8z"/><path class="st1" d="M57.1 71.4h6.5v2.9H60V77h2.8v2.9H60v2.9h3.7v2.9h-6.6V71.4z"/><path class="st2" d="M0 94L0 2c0-1.1 0.9-2 2-2l48 0c0.6 0 1.1 0.2 1.5 0.7l20 22.3c0.3 0.4 0.5 0.8 0.5 1.3V94c0 1.1-0.9 2-2 2H2C0.9 96 0 95.1 0 94zM68 25.1L49.1 4H4v88h64V25.1z"/><path class="st2" d="M48 26V4c0-1.1 0.9-2 2-2s2 0.9 2 2v20h16c1.1 0 2 0.9 2 2s-0.9 2-2 2H50C48.9 28 48 27.1 48 26z"/></svg>