<svg xmlns="http://www.w3.org/2000/svg" viewBox="0 0 72 96"><style type="text/css">  
	.st0{fill:#2DBCAF;}
	.st1{fill:#FFFFFF;}
</style><path class="st0" d="M0 2v92c0 1.1 0.9 2 2 2h68c1.1 0 2-0.9 2-2V28H50c-1.1 0-2-0.9-2-2V0H2C0.9 0 0 0.9 0 2z"/><path class="st0" d="M71.9 24c-0.1-0.4-0.2-0.7-0.4-1L52 1.2V24H71.9z"/><path class="st1" d="M6 41h60v49H6V41zM12.4 6.1c1.4 0 2.9 0.4 3.9 1.3l-1.4 2.8c-0.6-0.6-1.4-0.9-2.3-0.9 -2.2 0-3.2 1.9-3.2 4.2 0 2.6 1.2 4.3 2.9 4.3 0.6 0 1.3-0.2 1.7-0.6v-1.7h-1.5v-2.9h4.3v8.1h-2.6v-0.9c-0.5 0.7-1.6 1.2-2.7 1.2 -2.8 0-5.6-2.7-5.6-7.3C6 9.2 8.5 6.1 12.4 6.1zM25.5 6.1c3.8 0 5.9 3.1 5.9 7.3s-2.1 7.5-5.9 7.5 -5.8-3.2-5.8-7.5C19.6 9.3 21.7 6.1 25.5 6.1zM25.5 17.8c1.7 0 2.5-1.8 2.5-4.3s-0.8-4.2-2.5-4.2S23 11 23 13.5 23.8 17.8 25.5 17.8z"/><path class="st0" d="M35.5 60.9c-1.9 0.5-3.2 0.9-5.1 1.4 -0.5 0.1-0.5 0.1-0.9-0.2 -0.5-0.5-0.7-0.9-1.4-1.1 -1.9-1-3.7-0.6-5.5 0.5 -2.1 1.4-3.1 3.4-3.1 5.7s1.7 4.5 4.1 4.7c2.1 0.2 3.7-0.5 5.1-2 0.2-0.4 0.5-0.7 0.9-1.1h-5.9c-0.6 0-0.7-0.4-0.6-0.9 0.4-1 1.1-2.5 1.5-3.4 0.1-0.1 0.2-0.5 0.7-0.5h11.1c0 0.9 0 1.6-0.1 2.5 -0.4 2.2-1.1 4.2-2.5 6 -2.2 2.9-5 4.6-8.6 5.1 -3 0.4-5.7-0.1-8.1-2 -2.2-1.7-3.5-4-3.9-6.7 -0.4-3.4 0.6-6.2 2.6-8.8 2.1-2.9 5-4.6 8.5-5.2 2.9-0.5 5.6-0.1 8.1 1.5 1.6 1.1 2.7 2.5 3.5 4.2C35.9 60.6 35.9 60.7 35.5 60.9L35.5 60.9z"/><path class="st0" d="M45.4 77.6c-2.7 0-5.2-0.9-7.3-2.6 -1.7-1.5-2.9-3.5-3.2-5.9 -0.5-3.5 0.4-6.5 2.5-9.2 2.2-2.9 4.9-4.5 8.5-5.1 3.1-0.5 6-0.2 8.6 1.5 2.4 1.6 3.9 3.9 4.2 6.7 0.5 4.1-0.6 7.5-3.5 10.3 -2 2-4.5 3.4-7.2 3.9C47.1 77.4 46.2 77.6 45.4 77.6zM52.7 65.4c0-0.4 0-0.7-0.1-1 -0.5-3-3.4-4.7-6.2-4 -2.9 0.6-4.6 2.4-5.4 5.2 -0.5 2.4 0.6 4.7 2.7 5.7 1.6 0.7 3.4 0.6 5-0.1C51.2 70 52.5 68 52.7 65.4z"/></svg>