<svg id="Layer_1" xmlns="http://www.w3.org/2000/svg" viewBox="0 0 72 96"><style>.st0{fill:#2dbcaf}.st1{fill:#fff}</style><path class="st0" d="M0 2v92c0 1.1.9 2 2 2h68c1.1 0 2-.9 2-2V28H50c-1.1 0-2-.9-2-2V0H2C.9 0 0 .9 0 2z"/><path class="st0" d="M71.9 24c-.1-.4-.2-.7-.4-1L52 1.2V24h19.9z"/><path class="st1" d="M6 41h60v49H6zm6.4-34.9c1.4 0 2.9.4 3.9 1.3l-1.4 2.8c-.6-.6-1.4-.9-2.3-.9-2.2 0-3.2 1.9-3.2 4.2 0 2.6 1.2 4.3 2.9 4.3.6 0 1.3-.2 1.7-.6v-1.7h-1.5v-2.9h4.3v8.1h-2.6v-.9c-.5.7-1.6 1.2-2.7 1.2-2.8 0-5.6-2.7-5.6-7.3.1-4.5 2.6-7.6 6.5-7.6zm13.1 0c3.8 0 5.9 3.1 5.9 7.3 0 4.2-2.1 7.5-5.9 7.5s-5.8-3.2-5.8-7.5c-.1-4.1 2-7.3 5.8-7.3zm0 11.7c1.7 0 2.5-1.8 2.5-4.3s-.8-4.2-2.5-4.2S23 11 23 13.5s.8 4.3 2.5 4.3z"/><path class="st0" d="M13.8 62.3c-.1 0-.1 0-.1-.1l.5-.7c0-.1.2-.1.3-.1h8.7c.1 0 .1.1.1.1l-.4.6c0 .1-.2.1-.2.1l-8.9.1zm-3.7 2.3c-.1 0-.1 0-.1-.1l.5-.7c0-.1.2-.1.3-.1h11.1c.1 0 .1.1.1.1l-.2.6c0 .1-.1.1-.2.1l-11.5.1zm5.9 2.2c-.1 0-.1-.1-.1-.1l.3-.6c0-.1.1-.1.2-.1h4.9c.1 0 .1.1.1.2v.6c0 .1-.1.2-.2.2.1-.2-5.2-.2-5.2-.2zm25.3-4.9c-1.5.4-2.6.7-4.1 1.1-.4.1-.4.1-.7-.2-.4-.4-.6-.7-1.1-.9-1.5-.8-3-.5-4.4.4-1.7 1.1-2.5 2.7-2.5 4.6 0 1.9 1.4 3.6 3.3 3.8 1.7.2 3-.4 4.1-1.6.2-.3.4-.6.7-.9h-4.7c-.5 0-.6-.3-.5-.7.3-.8.9-2 1.2-2.7.1-.1.2-.4.6-.4h8.9c0 .7 0 1.3-.1 2-.3 1.8-.9 3.4-2 4.8-1.8 2.3-4 3.7-6.9 4.1-2.4.3-4.6-.1-6.5-1.6-1.8-1.4-2.8-3.2-3.1-5.4-.3-2.7.5-5 2.1-7.1 1.7-2.3 4-3.7 6.8-4.2 2.3-.4 4.5-.1 6.5 1.2 1.3.9 2.2 2 2.8 3.4-.1.1-.1.2-.4.3z"/><path class="st0" d="M49.3 75.3c-2.2 0-4.2-.7-5.9-2.1-1.4-1.2-2.3-2.8-2.6-4.7-.4-2.8.3-5.2 2-7.4 1.8-2.3 3.9-3.6 6.8-4.1 2.5-.4 4.8-.2 6.9 1.2 1.9 1.3 3.1 3.1 3.4 5.4.4 3.3-.5 6-2.8 8.3-1.6 1.6-3.6 2.7-5.8 3.1-.7.2-1.4.3-2 .3zm5.8-9.8c0-.3 0-.6-.1-.8-.4-2.4-2.7-3.8-5-3.2-2.3.5-3.7 1.9-4.3 4.2-.4 1.9.5 3.8 2.2 4.6 1.3.6 2.7.5 4-.1 2-1 3.1-2.6 3.2-4.7z"/></svg>