<svg id="Layer_1" xmlns="http://www.w3.org/2000/svg" viewBox="0 0 72 96"><style>.st0{fill:#999}.st1{fill:#fff}.st2{fill:#999;stroke:#999;stroke-width:1.5;stroke-miterlimit:10}</style><path class="st0" d="M0 2v92c0 1.1.9 2 2 2h68c1.1 0 2-.9 2-2V28H50c-1.1 0-2-.9-2-2V0H2C.9 0 0 .9 0 2z"/><path class="st0" d="M71.9 24c-.1-.4-.2-.7-.4-1L52 1.2V24h19.9z"/><path class="st1" d="M6 41h60v49H6zm.6-34.5h2.1v6h3.7v-6h2.1v14.2h-2.1v-6H8.7v6H6.6V6.5zm12.1 2.2h-2.9V6.5h7.9v2.2h-2.9v12h-2.1v-12zm6.6-2.2h2.3l1.6 6.9c.2.9.4 2.2.4 2.2h.1s.2-1.3.4-2.2l1.6-6.9H34l.8 14.2h-1.9l-.4-7.9c-.1-.9 0-2.2 0-2.2h-.1s-.2 1.4-.4 2.3l-1.3 5.4h-2l-1.3-5.4c-.2-.8-.4-2.3-.4-2.3h-.1s.1 1.3 0 2.2l-.4 7.9h-1.9l.7-14.2zm11.2 0h2.1v12h3.9v2.2h-6V6.5z"/><path class="st2" d="M23 75c-.5 0-1.1-.2-1.5-.6L13.1 66c-.8-.8-.8-2.1 0-3l8.4-8.4c.8-.8 2.1-.8 3 0 .8.8.8 2.1 0 3l-6.9 6.9 6.9 6.9c.8.8.8 2.1 0 3-.5.4-1 .6-1.5.6zm25 0c-.5 0-1.1-.2-1.5-.6-.8-.8-.8-2.1 0-3l6.9-6.9-6.9-6.9c-.8-.8-.8-2.1 0-3 .8-.8 2.1-.8 3 0l8.4 8.4c.8.8.8 2.1 0 3l-8.4 8.4c-.4.4-.9.6-1.5.6zm-16.7 4.1c-.2 0-.4 0-.7-.1-1.1-.4-1.7-1.5-1.3-2.6l8.4-25.1c.4-1.1 1.5-1.7 2.6-1.3 1.1.4 1.7 1.5 1.3 2.6l-8.4 25.1c-.2.9-1 1.4-1.9 1.4z"/></svg>