<svg xmlns="http://www.w3.org/2000/svg" viewBox="0 0 72 96"><style type="text/css">  
	.st0{fill:#BABABA;}
	.st1{fill:#FFFFFF;}
</style><path class="st0" d="M0 2l0 92c0 1.1 0.9 2 2 2h68c1.1 0 2-0.9 2-2V28H50c-1.1 0-2-0.9-2-2V0L2 0C0.9 0 0 0.9 0 2z"/><path class="st0" d="M71.9 24c-0.1-0.4-0.2-0.7-0.4-1L52 1.2V24H71.9z"/><rect x="6" y="41" class="st1" width="60" height="49"/><path class="st1" d="M6.6 6.4h3.3v14.3H6.6V6.4z"/><path class="st1" d="M13.6 6.4h7.1v2.9h-3.8v3.1H20v2.9h-3.1v5.4h-3.3V6.4z"/><path class="st1" d="M28.9 6.1c3.8 0 5.9 3.1 5.9 7.3 0 4.2-2.1 7.5-5.9 7.5s-5.8-3.2-5.8-7.5C23.1 9.3 25.1 6.1 28.9 6.1zM28.9 17.8c1.7 0 2.5-1.8 2.5-4.3 0-2.5-0.8-4.2-2.5-4.2s-2.5 1.7-2.5 4.2C26.4 16 27.2 17.8 28.9 17.8z"/><path class="st0" d="M33.7 65.5c0 0.6 0.2 1.2 0.7 1.6 0.9 0.9 2.4 0.9 3.3 0 0.4-0.4 0.7-1 0.7-1.6 0-0.6-0.2-1.2-0.7-1.6 -0.4-0.4-1-0.7-1.6-0.7s-1.2 0.2-1.6 0.7C33.9 64.3 33.7 64.9 33.7 65.5z"/><path class="st0" d="M22.9 52.4c-7.2 7.2-7.2 18.9 0 26.2 7.2 7.2 18.9 7.2 26.2 0 7.2-7.2 7.2-18.9 0-26.2C41.9 45.2 30.1 45.2 22.9 52.4zM50.3 73.3c-0.7 1.2-1.6 2.4-2.6 3.4 -1 1-2.2 1.9-3.4 2.6L40 71.1c0 0 0.4-0.1 1.2-0.9 0.8-0.8 1-1.2 1-1.2L50.3 73.3zM39.3 62.2c0.9 0.9 1.4 2.1 1.4 3.3 0 1.2-0.5 2.4-1.4 3.3 -1.8 1.8-4.7 1.8-6.5 0 -0.9-0.9-1.4-2.1-1.4-3.3 0-1.2 0.4-2.4 1.4-3.3C34.5 60.4 37.5 60.4 39.3 62.2zM33 59c0 0-0.9 0.5-1.6 1.3 -0.7 0.8-0.7 0.9-1 1.3l-8.2-4.4c0.7-1.2 1.6-2.4 2.6-3.4 1.1-1 2.2-1.9 3.4-2.6L33 59z"/></svg>