<svg xmlns="http://www.w3.org/2000/svg" viewBox="0 0 72 96"><style type="text/css">  
	.st0{fill:#33CC33;}
	.st1{fill:#FFFFFF;}
</style><path class="st0" d="M0 2v92c0 1.1 0.9 2 2 2h68c1.1 0 2-0.9 2-2V28H50c-1.1 0-2-0.9-2-2V0H2C0.9 0 0 0.9 0 2z"/><path class="st0" d="M71.9 24c-0.1-0.4-0.2-0.7-0.4-1L52 1.2V24H71.9z"/><path class="st1" d="M9.8 74V37h52.8v35.4l-14.9-20c-0.1-0.1-0.2-0.2-0.3-0.2s-0.3 0.1-0.3 0.2L34.4 67.9l-9.8-8.7c-0.2-0.1-0.4-0.1-0.6 0L9.8 74z"/><path class="st0" d="M30.4 46.9c0-2.8-2.3-5.1-5.1-5.1s-5.1 2.3-5.1 5.1 2.3 5.1 5.1 5.1C28.1 51.9 30.4 49.7 30.4 46.9z"/></svg>