<svg xmlns="http://www.w3.org/2000/svg" viewBox="0 0 72 96"><style type="text/css">  
	.st0{fill:#B41717;}
	.st1{fill:#FFFFFF;}
	.st2{fill:#B41717;stroke:#B41717;stroke-width:0.25;stroke-miterlimit:10;}
</style><path class="st0" d="M0 2v92c0 1.1 0.9 2 2 2h68c1.1 0 2-0.9 2-2V28H50c-1.1 0-2-0.9-2-2V0H2C0.9 0 0 0.9 0 2z"/><path class="st0" d="M71.9 24c-0.1-0.4-0.2-0.7-0.4-1L52 1.2V24H71.9z"/><rect x="6" y="41" class="st1" width="60" height="49"/><path class="st1" d="M5.7 15.3H9v1.1C9 17.9 9.4 18 9.7 18c0.5 0 0.7-0.3 0.7-1.6v-7H7.7v-3h6v9.9c0 3.3-2 4.6-4 4.6 -2.1 0-4-1.4-4-4.6V15.3z"/><path class="st1" d="M17.1 19.1c0-5 4.5-5.5 4.5-8.4 0-1-0.5-1.4-1.2-1.4 -0.6 0-1.1 0.3-1.4 0.8l-2.2-1.8c0.8-1.1 2.3-2.1 4.1-2.1 2.1 0 4.2 1.3 4.2 4.2 0 4.1-4.2 5.4-4.4 7.5h4.6v2.9h-7.9C17.1 20.1 17.1 19.7 17.1 19.1z"/><path class="st2" d="M55.8 47c0 0-7.6 3.6-13.7 4.4 -6.1 0.8-17.9 1.6-20.2 1s-4-1.2-4-1.2l0.5 1.6 -1.5 1.3 0.3 0.5h0.6l1.9 0.2 0.3 0.8 1.1 0.1 0.5 1.8c0 0 2.2 0.2 2.9 0.2 0.7 0 2-0.1 2-0.1v0.7l0.5 0.1v0.8l-1.1 0.9h0.3v0.3c0 0-2.4 0.2-3.3 0 -1-0.1-1.1-0.1-1.1-0.1l-0.1 0.1v0.4h0.2l0.1 1.8 4.9-0.2L26.4 69v0.8l-4.1-0.2v-1.7h0.9l0.1-0.7 0.8-0.2 0.1-0.2L21 66.1l-2.4 0.7 0.4 0.3h0.4v0.6h0.8v1.6l-0.9 0.2 0.2 0.4 0.2 0.1v1.3h0.6v5.9l-0.9 0.1 0.1 1.7 0.6 0.1 -0.1 4h2.5L22 79.3l3.8-0.1 -0.3 2.1 -0.4 1.5h3.8v-3.7l2.6-0.2 -0.1 2.4 -0.1 1.4h2.2l-0.1-3.8h0.3L34 77h-0.4l-0.1-0.8L33.3 74l0.1-2.5h0.5V70h-0.6l0.1-1.8 0.7-0.1v-0.6l0.4-0.1 0.4-0.3 -2.5-0.5 -2.5 0.6 0.2 0.4h0.3 0.3l0.1 0.7h0.7v1.6l-3-0.1 0.1-1.7 0.1-1.5v-2l0.1-2.1 6-0.3 7.1-0.4 0.1 1.3 -0.3 3.2 -0.1 3H39v-2.1h1v-0.6l0.4-0.1v-0.1h0.4l0.2-0.3 -3-0.7L35.1 66l0.2 0.4h0.3v0.2H36v0.7h0.9v1.9H36v0.4h0.3v1.6h0.6l-0.1 6.4L36 77.8v0.3h0.3v1.6h0.5L36.6 82l-0.2 1.9 3.1 0.1 -0.1-1.7 -0.2-1.4v-1.2h2.6l-0.1 1.9v2l1.5 0.1 2-0.1 0.6-0.2 -0.4-1.1 -0.1-1.7 -0.2-1.2 2.5-0.1 -0.1 1.5v2.3l1 0.1h1L50 83l-0.3-2.2 -0.1-1.6H50v-1.5h0.1v-0.3h-0.5l-0.1-1.1v-4.7h0.4V70h0.2v-0.3h-0.6v-1.8l0.9-0.1 -0.1-0.6h0.4v-0.1l0.5-0.3 -2.7-0.6L46 66.8l0.2 0.3h0.4v0.1H47v0.7h0.9l0.1 1.7h-3.2L44.4 67l-0.3-1.4 -0.2-2.5 0.1-1.4 6.3-0.5v-2.1l0.3-0.1v-0.3l-0.2-0.1c0 0-3.5 0.5-4.6 0.6 -0.3 0-0.3 0-0.5 0.1v-0.4L44 58.2v-0.8h0.5v-1.1c0 0 2.7-0.2 3.7-0.4s2.4-0.5 2.4-0.5l0.7-1.8 1.3-0.4 0.1-0.3 3-0.8 0.3-0.3 -1.1-2.5 0.1-0.6 0.6-0.3 0.4-1.3L55.8 47zM41.4 56.5v0.9h0.7v0.9l-1.3 0.9 -0.1 0.3h0.5v0.2L37 59.9v-0.6l0.2-0.3v-0.2 -0.4l0.1-0.3v-0.2 -0.2l0.2-0.7L41.4 56.5zM32.9 57.3l-0.1 0.6 0.3 0.4V59l0.3 0.5L33.3 60l0.2 0.3 -4.2 0.2v-0.1l0.5-0.1v-0.2l-1.1-0.6 -0.1-0.9h0.5v-1L32.9 57.3zM39 71.4l2.5 0.2L41.4 75l0.3 2.8L39 77.7V71.4zM22.1 71.5l4 0.2L25.8 74v2l0.3 1.1 -4 0.2L22.1 71.5zM48 71.5v5.8l-2.6 0.2 -0.1-3.1L45 71.6 48 71.5zM28.5 71.6h3V77h-2.8l-0.1-1.7v-1.7L28.5 71.6z"/></svg>