<svg xmlns="http://www.w3.org/2000/svg" viewBox="0 0 72 96"><style type="text/css">  
	.st0{fill:#33CC33;}
	.st1{fill:#FFFFFF;}
</style><path class="st0" d="M0 2l0 92c0 1.1 0.9 2 2 2h68c1.1 0 2-0.9 2-2V28H50c-1.1 0-2-0.9-2-2V0L2 0C0.9 0 0 0.9 0 2z"/><path class="st0" d="M71.9 24c-0.1-0.4-0.2-0.7-0.4-1L52 1.2V24H71.9z"/><rect x="6" y="41" class="st1" width="60" height="49"/><path class="st1" d="M5.8 15.7h2.3v0.9c0 1.9 0.6 2.1 1.1 2.1 0.6 0 1.1-0.4 1.1-2.1V8.7H7.9V6.5h4.8v10c0 3.2-1.7 4.4-3.4 4.4 -1.7 0-3.4-1.2-3.4-4.4V15.7z"/><path class="st1" d="M15.1 6.5h3.8c2.4 0 4 1.9 4 4.6s-1.6 4.7-4 4.7h-1.5v4.9h-2.3V6.5zM18.5 13.6c1.3 0 2-1 2-2.5 0-1.5-0.8-2.5-2-2.5h-1.2v5H18.5z"/><path class="st1" d="M24.5 6.5h6.4v2.2h-4.1v3.8h3.3v2.2h-3.3v3.9h4.3v2.2h-6.6V6.5z"/><path class="st1" d="M37.9 6.2c1.3 0 2.6 0.4 3.6 1.2l-1 2.1c-0.6-0.6-1.5-1-2.5-1 -2.3 0-3.6 2.1-3.6 5 0 3.1 1.4 5 3.4 5 0.8 0 1.7-0.3 2.2-1v-2.2h-1.5v-2.2H42v7.5h-1.8v-0.5c0-0.2 0-0.5 0-0.5h0c-0.6 0.8-1.6 1.3-2.8 1.3 -2.7 0-5.3-2.7-5.3-7.3C32.1 9.2 34.4 6.2 37.9 6.2z"/><path class="st0" d="M14 48.5v33.9h44V48.5L14 48.5 14 48.5zM55.5 51v14.8l-10.5-8L33.5 69.3l-8.1-4.5 -8.8 7V51H55.5z"/><circle class="st0" cx="23" cy="57.6" r="3.1"/></svg>