<svg xmlns="http://www.w3.org/2000/svg" viewBox="0 0 72 96"><style type="text/css">  
	.st0{fill:#33CC33;}
	.st1{fill:#FFFFFF;}
</style><path class="st0" d="M0 2l0 92c0 1.1 0.9 2 2 2h68c1.1 0 2-0.9 2-2V28H50c-1.1 0-2-0.9-2-2V0L2 0C0.9 0 0 0.9 0 2z"/><path class="st0" d="M71.9 24c-0.1-0.4-0.2-0.7-0.4-1L52 1.2V24H71.9z"/><rect x="6" y="41" class="st1" width="60" height="49"/><path class="st1" d="M5.7 15.3H9v1.1c0 1.5 0.4 1.6 0.7 1.6 0.5 0 0.7-0.3 0.7-1.6v-7H7.7V6.4h6v9.9c0 3.3-2 4.6-4 4.6 -2.1 0-4-1.4-4-4.6V15.3z"/><path class="st1" d="M17.3 6.4h4.5c2.6 0 4.4 2 4.4 4.9 0 2.9-1.7 5-4.4 5h-1.2v4.4h-3.3V6.4zM21.2 13.4c1 0 1.6-0.9 1.6-2.1s-0.7-2-1.6-2h-0.7v4.1H21.2z"/><path class="st1" d="M34.8 6.1c1.4 0 2.9 0.4 3.9 1.3l-1.4 2.8c-0.6-0.6-1.4-0.9-2.3-0.9 -2.2 0-3.2 1.9-3.2 4.2 0 2.6 1.2 4.3 2.9 4.3 0.6 0 1.3-0.2 1.7-0.6v-1.7H35v-2.9h4.3v8.1h-2.6v-0.4c0-0.2 0-0.5 0-0.5h0c-0.5 0.7-1.6 1.2-2.7 1.2 -2.8 0-5.6-2.7-5.6-7.3C28.5 9.2 30.9 6.1 34.8 6.1z"/><path class="st0" d="M14 48.5v33.9h44V48.5L14 48.5 14 48.5zM55.5 51v14.8l-10.5-8L33.5 69.3l-8.1-4.5 -8.8 7V51H55.5z"/><circle class="st0" cx="23" cy="57.6" r="3.1"/></svg>