<svg xmlns="http://www.w3.org/2000/svg" viewBox="0 0 72 96"><style type="text/css">  
	.st0{fill:#999999;}
	.st1{fill:#FFFFFF;}
</style><path class="st0" d="M0 2l0 92c0 1.1 0.9 2 2 2h68c1.1 0 2-0.9 2-2V28H50c-1.1 0-2-0.9-2-2V0L2 0C0.9 0 0 0.9 0 2z"/><path class="st0" d="M71.9 24c-0.1-0.4-0.2-0.7-0.4-1L52 1.2V24H71.9z"/><rect x="6" y="41" class="st1" width="60" height="49"/><path class="st0" d="M14 67.7v-4.6c1-0.1 1.8-0.2 2.3-0.5 0.5-0.2 0.9-0.7 1.3-1.1 0.4-0.6 0.6-1.2 0.8-2.1 0.1-0.7 0.2-1.7 0.2-3.2 0-2.5 0.1-4.2 0.4-5.2 0.2-0.9 0.7-1.8 1.3-2.3 0.6-0.6 1.6-1 2.8-1.4 0.8-0.2 2.1-0.4 3.9-0.4H28v4.6c-1.5 0-2.5 0.1-2.9 0.3 -0.4 0.2-0.7 0.4-1 0.7 -0.2 0.3-0.3 0.8-0.3 1.7s-0.1 2.3-0.2 4.6c-0.1 1.3-0.2 2.3-0.5 3.1 -0.3 0.7-0.7 1.4-1.1 2 -0.4 0.5-1.1 1-2 1.6 0.8 0.5 1.5 0.9 2 1.5 0.5 0.6 0.9 1.3 1.2 2.1 0.3 0.8 0.5 2 0.5 3.4 0.1 2.1 0.1 3.5 0.1 4.1 0 0.8 0.1 1.4 0.3 1.8 0.2 0.4 0.6 0.6 1 0.7 0.4 0.2 1.4 0.3 2.9 0.3V84h-1.1c-1.8 0-3.3-0.1-4.2-0.4 -1-0.3-1.8-0.7-2.5-1.4 -0.7-0.7-1.1-1.4-1.4-2.3 -0.2-0.9-0.3-2.4-0.3-4.5 0-2.3-0.1-3.9-0.3-4.6 -0.3-1-0.8-1.8-1.4-2.2C16.2 68 15.3 67.7 14 67.7z"/><path class="st0" d="M57.9 67.7c-1 0.1-1.8 0.2-2.3 0.5 -0.5 0.2-0.9 0.7-1.3 1.1 -0.4 0.6-0.6 1.2-0.8 2.1 -0.1 0.7-0.2 1.7-0.2 3.2 0 2.5-0.1 4.2-0.4 5.2 -0.2 1-0.7 1.8-1.3 2.3 -0.6 0.6-1.6 1-2.8 1.4 -0.8 0.2-2.1 0.4-3.9 0.4h-1.1v-4.6c1.5 0 2.4-0.1 2.9-0.3s0.8-0.5 1-0.7c0.2-0.3 0.3-0.8 0.3-1.7 0-0.7 0.1-2.2 0.2-4.5 0.1-1.3 0.3-2.4 0.6-3.2 0.3-0.8 0.7-1.5 1.2-2.1 0.5-0.6 1.1-1 1.9-1.5 -1-0.7-1.8-1.2-2.2-1.8 -0.6-0.8-1.1-2-1.3-3.2 -0.2-0.9-0.3-2.9-0.3-5.9 0-0.9-0.1-1.6-0.3-2 -0.2-0.3-0.5-0.6-0.9-0.7 -0.4-0.2-1.4-0.3-3-0.3V47h1.1c1.8 0 3.3 0.1 4.2 0.4 1 0.3 1.8 0.7 2.5 1.4 0.7 0.7 1.1 1.4 1.4 2.3 0.2 0.9 0.4 2.4 0.4 4.5 0 2.3 0.1 3.8 0.3 4.6 0.3 1 0.8 1.8 1.4 2.1 0.6 0.5 1.6 0.7 2.8 0.7L57.9 67.7 57.9 67.7z"/><path class="st1" d="M5.8 15.7H8v0.9c0 1.9 0.6 2.1 1.1 2.1 0.6 0 1.1-0.4 1.1-2.1V8.7H7.8V6.5h4.6v10c0 3.2-1.6 4.4-3.3 4.4 -1.7 0-3.3-1.2-3.3-4.4V15.7z"/><path class="st1" d="M14.8 17.5c0.6 0.7 1.4 1.2 2.2 1.2 1 0 1.6-0.7 1.6-1.8 0-2.6-4.5-2.5-4.5-6.6 0-2.3 1.4-4 3.8-4 1 0 2 0.3 2.8 0.9L20 9.4c-0.5-0.4-1.3-0.8-2-0.8 -1.1 0-1.6 0.8-1.6 1.7 0 2.6 4.5 2.4 4.5 6.5 0 2.2-1.3 4.1-3.7 4.1 -1.2 0-2.4-0.5-3.3-1.4L14.8 17.5z"/><path class="st1" d="M27.1 6.2c3.2 0 5.1 3 5.1 7.3 0 4.3-2 7.4-5.1 7.4 -3.2 0-5.1-3.1-5.1-7.4C22 9.3 24 6.2 27.1 6.2zM27.1 18.6c1.8 0 2.9-2 2.9-5.1 0-3-1.1-4.9-2.9-4.9 -1.8 0-2.9 1.9-2.9 4.9C24.2 16.6 25.3 18.6 27.1 18.6z"/><path class="st1" d="M34 6.5h2.3l3.3 8c0.3 0.9 0.6 2.2 0.6 2.2h0.1c0 0-0.1-1.3-0.1-2.2v-8h2.1v14.2H40l-3.3-8.1c-0.3-0.9-0.6-2.2-0.6-2.2H36c0 0 0.1 1.3 0.1 2.2v8H34V6.5z"/><path class="st0" d="M45.1 67.3c-0.8-0.3-1.3-1-1.3-1.8s0.6-1.6 1.3-1.8c0.3-0.1 0.4-0.3 0.3-0.6 -0.3-0.9-0.6-1.8-1.1-2.5 -0.1-0.3-0.4-0.3-0.7-0.2s-0.6 0.3-0.9 0.3c-1.1 0-1.9-0.9-1.9-1.9 0-0.3 0.1-0.7 0.3-0.9 0.1-0.3 0-0.5-0.2-0.7 -0.8-0.5-1.7-0.8-2.5-1.1 -0.3-0.1-0.5 0.1-0.6 0.3 -0.3 0.8-1 1.3-1.8 1.3s-1.6-0.6-1.8-1.3c-0.1-0.3-0.3-0.4-0.6-0.3 -0.9 0.3-1.8 0.6-2.5 1.1 -0.3 0.1-0.3 0.4-0.2 0.7 0.2 0.3 0.3 0.6 0.3 0.9 0 1.1-0.9 1.9-1.9 1.9 -0.3 0-0.7-0.1-0.9-0.3 -0.3-0.1-0.5 0-0.7 0.2 -0.5 0.8-0.8 1.7-1.1 2.5 -0.1 0.3 0.1 0.5 0.3 0.6 0.8 0.3 1.3 1 1.3 1.8s-0.6 1.6-1.3 1.8c-0.3 0.1-0.4 0.3-0.3 0.6 0.3 0.9 0.6 1.8 1.1 2.5 0.1 0.3 0.4 0.3 0.7 0.2 0.3-0.2 0.6-0.3 0.9-0.3 1.1 0 1.9 0.9 1.9 1.9 0 0.3-0.1 0.7-0.3 0.9 -0.1 0.3 0 0.5 0.2 0.7 0.8 0.5 1.7 0.8 2.5 1.1h0.1c0.2 0 0.4-0.1 0.5-0.3 0.3-0.8 1-1.3 1.8-1.3 0.8 0 1.6 0.6 1.8 1.3 0.1 0.3 0.3 0.4 0.6 0.3 0.9-0.3 1.8-0.6 2.5-1.1 0.3-0.1 0.3-0.4 0.2-0.7s-0.3-0.6-0.3-0.9c0-1.1 0.9-1.9 1.9-1.9 0.3 0 0.7 0.1 0.9 0.3 0.3 0.1 0.5 0 0.7-0.2 0.5-0.8 0.8-1.7 1.1-2.5C45.6 67.7 45.4 67.4 45.1 67.3zM35.8 68.4c-1.7 0-3-1.3-3-3 0-1.7 1.3-3 3-3s3 1.3 3 3C38.9 67.1 37.5 68.4 35.8 68.4z"/></svg>