<svg xmlns="http://www.w3.org/2000/svg" viewBox="0 0 72 96"><style type="text/css">  
	.st0{fill:#72BED3;}
	.st1{fill:#FFFFFF;}
	.st2{fill:#72BED3;stroke:#72BED3;stroke-width:0.75;stroke-miterlimit:10;}
</style><path class="st0" d="M0 2l0 92c0 1.1 0.9 2 2 2h68c1.1 0 2-0.9 2-2V28H50c-1.1 0-2-0.9-2-2V0L2 0C0.9 0 0 0.9 0 2z"/><path class="st0" d="M71.9 24c-0.1-0.4-0.2-0.7-0.4-1L52 1.2V24H71.9z"/><rect x="6" y="41" class="st1" width="60" height="49"/><path class="st1" d="M5.7 15.3H9v1.1c0 1.5 0.4 1.6 0.7 1.6 0.5 0 0.7-0.3 0.7-1.6v-7H7.7V6.4h6v9.9c0 3.3-2 4.6-4 4.6 -2.1 0-4-1.4-4-4.6V15.3z"/><path class="st1" d="M18 16.7c0.6 0.6 1.4 1.2 2.3 1.2 0.9 0 1.3-0.6 1.3-1.2 0-2-4.8-2.1-4.8-6.2 0-2.4 1.7-4.3 4.5-4.3 1.2 0 2.4 0.3 3.4 1l-1.2 2.9c-0.5-0.4-1.4-0.9-2.2-0.9 -0.9 0-1.3 0.6-1.3 1.2 0 2.1 4.8 2 4.8 6.1 0 2.3-1.5 4.4-4.4 4.4 -1.4 0-2.9-0.5-4-1.4L18 16.7z"/><path class="st1" d="M30.3 13.6l-3.4-7.2h3.6l1.1 2.9c0.3 0.9 0.6 1.8 0.6 1.8h0c0 0 0.2-0.9 0.6-1.8L34 6.4h3.6l-3.4 7.2 3.3 7.1h-3.5l-1.1-3c-0.4-0.9-0.6-1.7-0.6-1.7h0c0 0-0.2 0.8-0.6 1.7l-1.1 3H27L30.3 13.6z"/><path class="st2" d="M56.4 65.6c0-2.7-3.4-5.3-8.5-6.9 1.2-5.3 0.7-9.5-1.7-10.9 -0.6-0.3-1.2-0.4-1.9-0.4v1.9c0.4 0 0.7 0.1 0.9 0.2 1.1 0.7 1.7 3.1 1.2 6.3 -0.1 0.8-0.2 1.6-0.4 2.4 -1.7-0.4-3.4-0.7-5.3-0.9 -1.1-1.6-2.3-2.9-3.4-4.2 2.8-2.5 5.3-3.9 7-3.9v-1.9l0 0c-2.3 0-5.3 1.7-8.3 4.5 -3.1-2.8-6.1-4.4-8.3-4.4v1.9c1.8 0 4.2 1.3 7 3.9 -1.2 1.2-2.3 2.6-3.4 4.2 -1.9 0.2-3.7 0.4-5.3 0.9 -0.1-0.9-0.3-1.7-0.4-2.4 -0.4-3.1 0.1-5.7 1.2-6.3 0.2-0.1 0.6-0.2 0.9-0.2v-1.9l0 0c-0.7 0-1.3 0.1-1.9 0.4 -2.3 1.3-2.8 5.5-1.7 10.9 -5.3 1.6-8.7 4.2-8.7 6.9 0 2.7 3.4 5.3 8.5 6.9 -1.2 5.3-0.7 9.5 1.7 10.9 0.6 0.3 1.2 0.4 1.9 0.4 2.3 0 5.3-1.7 8.3-4.5 3.1 2.8 6.1 4.4 8.3 4.4 0.7 0 1.3-0.1 1.9-0.4 2.3-1.3 2.8-5.5 1.7-10.9C53.1 70.8 56.4 68.3 56.4 65.6zM45.6 60c-0.3 1.1-0.7 2.2-1.1 3.3 -0.3-0.7-0.7-1.3-1.1-2 -0.4-0.7-0.8-1.3-1.2-2C43.4 59.5 44.5 59.7 45.6 60zM41.8 68.9c-0.7 1.1-1.3 2.2-2 3.1 -1.2 0.1-2.4 0.2-3.7 0.2s-2.5-0.1-3.8-0.1c-0.7-1-1.3-2-2-3.1 -0.7-1.1-1.2-2.2-1.8-3.3 0.6-1.1 1.1-2.2 1.8-3.3 0.7-1.1 1.3-2.2 2-3.1 1.2-0.1 2.5-0.1 3.8-0.1s2.5 0.1 3.8 0.1c0.7 1 1.3 2 2 3.1 0.7 1.1 1.2 2.2 1.8 3.3C43 66.7 42.4 67.8 41.8 68.9zM44.5 67.8c0.4 1.1 0.9 2.2 1.2 3.3 -1.1 0.2-2.3 0.4-3.4 0.7 0.4-0.7 0.8-1.3 1.2-2C43.8 69.2 44.1 68.5 44.5 67.8zM36 76.7c-0.8-0.8-1.6-1.8-2.3-2.7 0.8 0 1.5 0.1 2.3 0.1s1.6 0 2.3-0.1C37.6 75 36.8 75.9 36 76.7zM29.8 71.8c-1.2-0.1-2.3-0.4-3.4-0.7 0.3-1.1 0.7-2.2 1.1-3.3 0.3 0.7 0.7 1.3 1.1 2C29 70.5 29.4 71.1 29.8 71.8zM36 54.5c0.8 0.8 1.6 1.8 2.3 2.7 -0.8 0-1.5-0.1-2.3-0.1s-1.6 0-2.3 0.1C34.4 56.2 35.2 55.3 36 54.5zM29.8 59.4c-0.4 0.7-0.8 1.3-1.2 2s-0.7 1.3-1.1 2c-0.4-1.1-0.9-2.2-1.2-3.3C27.5 59.7 28.6 59.5 29.8 59.4zM22.3 69.8c-3-1.2-4.9-2.9-4.9-4.2 0-1.3 1.9-3 4.9-4.2 0.7-0.3 1.5-0.6 2.3-0.9 0.4 1.7 1.1 3.3 1.9 5.1 -0.8 1.8-1.4 3.4-1.9 5C23.8 70.4 23 70.2 22.3 69.8zM26.7 81.7c-1.1-0.7-1.7-3.1-1.2-6.3 0.1-0.8 0.2-1.6 0.4-2.4 1.7 0.4 3.4 0.7 5.3 0.9 1.1 1.6 2.3 2.9 3.4 4.2 -2.8 2.5-5.3 3.9-7 3.9C27.4 81.9 27 81.9 26.7 81.7zM46.5 75.4c0.4 3.1-0.1 5.7-1.2 6.3 -0.2 0.1-0.6 0.2-0.9 0.2 -1.8 0-4.2-1.3-7-3.9 1.2-1.2 2.3-2.6 3.4-4.2 1.9-0.2 3.7-0.4 5.3-0.9C46.3 73.7 46.4 74.6 46.5 75.4zM49.7 69.8c-0.7 0.3-1.5 0.6-2.3 0.9 -0.4-1.7-1.1-3.3-1.9-5.1 0.8-1.8 1.4-3.4 1.9-5 0.8 0.2 1.6 0.6 2.3 0.9 3 1.2 4.9 2.9 4.9 4.2C54.5 66.9 52.6 68.6 49.7 69.8z"/><circle class="st2" cx="36" cy="65.6" r="3.8"/></svg>