<svg xmlns="http://www.w3.org/2000/svg" viewBox="0 0 72 96"><style type="text/css">  
	.st0{fill:#7058C6;}
	.st1{fill:#FFFFFF;}
</style><path class="st0" d="M0 2l0 92c0 1.1 0.9 2 2 2h68c1.1 0 2-0.9 2-2V28H50c-1.1 0-2-0.9-2-2V0L2 0C0.9 0 0 0.9 0 2z"/><path class="st0" d="M71.9 24c-0.1-0.4-0.2-0.7-0.4-1L52 1.2V24H71.9z"/><rect x="6" y="41" class="st1" width="60" height="49"/><path class="st0" d="M14 67.7v-4.6c1-0.1 1.8-0.2 2.3-0.5 0.5-0.2 0.9-0.7 1.3-1.1 0.4-0.6 0.6-1.2 0.8-2.1 0.1-0.7 0.2-1.7 0.2-3.2 0-2.5 0.1-4.2 0.4-5.2 0.2-0.9 0.7-1.8 1.3-2.3 0.6-0.6 1.6-1 2.8-1.4 0.8-0.2 2.1-0.4 3.9-0.4H28v4.6c-1.5 0-2.5 0.1-2.9 0.3 -0.4 0.2-0.7 0.4-1 0.7 -0.2 0.3-0.3 0.8-0.3 1.7s-0.1 2.3-0.2 4.6c-0.1 1.3-0.2 2.3-0.5 3.1 -0.3 0.7-0.7 1.4-1.1 2 -0.4 0.5-1.1 1-2 1.6 0.8 0.5 1.5 0.9 2 1.5 0.5 0.6 0.9 1.3 1.2 2.1 0.3 0.8 0.5 2 0.5 3.4 0.1 2.1 0.1 3.5 0.1 4.1 0 0.8 0.1 1.4 0.3 1.8 0.2 0.4 0.6 0.6 1 0.7 0.4 0.2 1.4 0.3 2.9 0.3V84h-1.1c-1.8 0-3.3-0.1-4.2-0.4 -1-0.3-1.8-0.7-2.5-1.4 -0.7-0.7-1.1-1.4-1.4-2.3 -0.2-0.9-0.3-2.4-0.3-4.5 0-2.3-0.1-3.9-0.3-4.6 -0.3-1-0.8-1.8-1.4-2.2C16.2 68 15.3 67.7 14 67.7z"/><path class="st0" d="M57.9 67.7c-1 0.1-1.8 0.2-2.3 0.5 -0.5 0.2-0.9 0.7-1.3 1.1 -0.4 0.6-0.6 1.2-0.8 2.1 -0.1 0.7-0.2 1.7-0.2 3.2 0 2.5-0.1 4.2-0.4 5.2 -0.2 1-0.7 1.8-1.3 2.3 -0.6 0.6-1.6 1-2.8 1.4 -0.8 0.2-2.1 0.4-3.9 0.4h-1.1v-4.6c1.5 0 2.4-0.1 2.9-0.3s0.8-0.5 1-0.7c0.2-0.3 0.3-0.8 0.3-1.7 0-0.7 0.1-2.2 0.2-4.5 0.1-1.3 0.3-2.4 0.6-3.2 0.3-0.8 0.7-1.5 1.2-2.1 0.5-0.6 1.1-1 1.9-1.5 -1-0.7-1.8-1.2-2.2-1.8 -0.6-0.8-1.1-2-1.3-3.2 -0.2-0.9-0.3-2.9-0.3-5.9 0-0.9-0.1-1.6-0.3-2 -0.2-0.3-0.5-0.6-0.9-0.7 -0.4-0.2-1.4-0.3-3-0.3V47h1.1c1.8 0 3.3 0.1 4.2 0.4 1 0.3 1.8 0.7 2.5 1.4 0.7 0.7 1.1 1.4 1.4 2.3 0.2 0.9 0.4 2.4 0.4 4.5 0 2.3 0.1 3.8 0.3 4.6 0.3 1 0.8 1.8 1.4 2.1 0.6 0.5 1.6 0.7 2.8 0.7L57.9 67.7 57.9 67.7z"/><path class="st1" d="M6.5 6.4h3v11.4h3.9v2.9H6.5V6.4z"/><path class="st1" d="M15.8 6.4h6.5v2.9h-3.5V12h2.8v2.9h-2.8v2.9h3.7v2.9h-6.6V6.4z"/><path class="st1" d="M25.9 16.7c0.5 0.6 1.3 1.2 2.1 1.2 0.8 0 1.2-0.6 1.2-1.2 0-2-4.3-2.1-4.3-6.2 0-2.4 1.5-4.3 4.1-4.3 1.1 0 2.2 0.3 3.1 1l-1.1 2.9c-0.4-0.4-1.3-0.9-1.9-0.9 -0.8 0-1.2 0.6-1.2 1.2 0 2.1 4.3 2 4.3 6.1 0 2.3-1.3 4.4-4 4.4 -1.3 0-2.6-0.5-3.6-1.4L25.9 16.7z"/><path class="st1" d="M35.5 16.7c0.5 0.6 1.3 1.2 2.1 1.2 0.8 0 1.2-0.6 1.2-1.2 0-2-4.3-2.1-4.3-6.2 0-2.4 1.5-4.3 4.1-4.3 1.1 0 2.2 0.3 3.1 1l-1.1 2.9c-0.4-0.4-1.3-0.9-1.9-0.9 -0.8 0-1.2 0.6-1.2 1.2 0 2.1 4.3 2 4.3 6.1 0 2.3-1.3 4.4-4 4.4 -1.3 0-2.6-0.5-3.6-1.4L35.5 16.7z"/></svg>