<svg xmlns="http://www.w3.org/2000/svg" viewBox="0 0 72 96"><style>.st0{fill:#666}</style><path class="st0" d="M0 2v92c0 1.1.9 2 2 2h68c1.1 0 2-.9 2-2V28H50c-1.1 0-2-.9-2-2V0H2C.9 0 0 .9 0 2z"/><path class="st0" d="M71.9 24c-.1-.4-.2-.7-.4-1L52 1.2V24h19.9z"/><path d="M6 41h60v49H6zm.6-34.6h3.3v11.4h4.3v2.9H6.6V6.4zm9.8 0h3.3v14.3h-3.3V6.4zm7.2 10.3c.6.6 1.4 1.2 2.3 1.2.9 0 1.3-.6 1.3-1.2 0-2-4.8-2.1-4.8-6.2 0-2.4 1.7-4.3 4.5-4.3 1.2 0 2.4.3 3.4 1l-1.2 2.9c-.5-.4-1.4-.9-2.2-.9-.9 0-1.3.6-1.3 1.2 0 2.1 4.8 2 4.8 6.1 0 2.3-1.5 4.4-4.4 4.4-1.4 0-2.9-.5-4-1.4l1.6-2.8zm9.5-10.3h4.5c2.6 0 4.4 2 4.4 4.9 0 2.9-1.7 5-4.4 5h-1.2v4.4h-3.3V6.4zm3.9 7c1 0 1.6-.9 1.6-2.1s-.7-2-1.6-2h-.7v4.1h.7z" fill="#fff"/><path class="st0" d="M40.8 49.7h11.8c1.5 0 2.9.2 4.2 1.1 2.1 1.4 3.1 3.3 3.2 5.8.1 3-1.1 5.4-3.6 7.1-.9.6-1.9.9-3 .9s-2.1.2-2.6 1.3c-.3.6-.4 1.4-.4 2.1-.1 2.1-.1 4.1-.1 6.2v.8c-.2 1.3-1.3 2.1-2.7 2.1-1.2-.1-2.1-1-2.1-2.3 0-3 0-6 .1-9.1.1-1.6 1-2.9 2.2-4 1.4-1.3 3.2-1.9 5.1-2 2-.1 3.2-1.8 2.3-3.6-.3-.7-.9-1.1-1.7-1.3-.3 0-.5-.1-.8-.1H29.2c-.5 0-1 .1-1.5.2-1.3.3-2 1.2-2.2 2.5v14.4c0 .3 0 .6-.1 1-.2 1.2-1.3 2-2.5 1.9-1.2-.1-2.2-1-2.2-2.2-.1-3.1-.1-6.2-.1-9.2 0-1.9-.1-3.9 0-5.8.1-4.1 3.4-7.5 7.5-7.6 4.2-.2 8.4-.1 12.7-.2 0 .1 0 0 0 0z"/><path class="st0" d="M13 66v-8.5c0-1 .3-1.9 1.2-2.5 1.5-.9 3.4 0 3.6 1.8 0 .3.1.7.1 1.1 0 5.2.1 10.4.1 15.6 0 .9.1 1.8.7 2.5.8.9 1.8 1.1 2.9 1.1h14c1.2-.1 2.1-1.1 2.2-2.4 0-1.2-.8-2.3-2-2.4-.7-.1-1.4-.1-2.1-.2-2.8-.6-4.5-2.4-5.3-5-1.1-3.4.2-6.9 3.3-8.7 1-.6 2-.9 3.1-.9 2.6-.1 5.2-.1 7.9-.1 1.2 0 2.1.7 2.4 1.8.3 1.2-.1 2.5-1.1 3-.4.2-1 .3-1.5.3h-6.7c-1.1 0-2 .4-2.4 1.5-.7 1.6.3 3.3 2.1 3.4 1.5.1 2.9.3 4.2 1.1 2.3 1.4 3.3 3.4 3.3 6 0 3-1.2 5.3-4 6.7-.9.4-1.8.6-2.8.6-5.2.1-10.3.1-15.5.1-3.7 0-6.8-2.6-7.4-6.4-.1-.6-.1-1.1-.1-1.7-.2-2.6-.2-5.2-.2-7.8z"/></svg>