<svg xmlns="http://www.w3.org/2000/svg" viewBox="0 0 72 96"><style type="text/css">  
	.st0{fill:#666666;}
	.st1{fill:#FFFFFF;}
</style><path class="st0" d="M0 2l0 92c0 1.1 0.9 2 2 2h68c1.1 0 2-0.9 2-2V28H50c-1.1 0-2-0.9-2-2V0L2 0C0.9 0 0 0.9 0 2z"/><path class="st0" d="M71.9 24c-0.1-0.4-0.2-0.7-0.4-1L52 1.2V24H71.9z"/><rect x="6" y="41" class="st1" width="60" height="49"/><path class="st1" d="M6.6 6.4h3.3v11.4h4.3v2.9H6.6V6.4z"/><path class="st1" d="M16.4 6.4h3.3v14.3h-3.3V6.4z"/><path class="st1" d="M23.6 16.7c0.6 0.6 1.4 1.2 2.3 1.2 0.9 0 1.3-0.6 1.3-1.2 0-2-4.8-2.1-4.8-6.2 0-2.4 1.7-4.3 4.5-4.3 1.2 0 2.4 0.3 3.4 1l-1.2 2.9c-0.5-0.4-1.4-0.9-2.2-0.9 -0.9 0-1.3 0.6-1.3 1.2 0 2.1 4.8 2 4.8 6.1 0 2.3-1.5 4.4-4.4 4.4 -1.4 0-2.9-0.5-4-1.4L23.6 16.7z"/><path class="st1" d="M33.1 6.4h4.5c2.6 0 4.4 2 4.4 4.9 0 2.9-1.7 5-4.4 5h-1.2v4.4h-3.3V6.4zM37 13.4c1 0 1.6-0.9 1.6-2.1s-0.7-2-1.6-2h-0.7v4.1H37z"/><path class="st0" d="M40.8 49.7c3.9 0 7.9 0 11.8 0 1.5 0 2.9 0.2 4.2 1.1 2.1 1.4 3.1 3.3 3.2 5.8 0.1 3-1.1 5.4-3.6 7.1 -0.9 0.6-1.9 0.9-3 0.9 -1.1 0-2.1 0.2-2.6 1.3 -0.3 0.6-0.4 1.4-0.4 2.1 -0.1 2.1-0.1 4.1-0.1 6.2 0 0.3 0 0.6 0 0.8 -0.2 1.3-1.3 2.1-2.7 2.1 -1.2-0.1-2.1-1-2.1-2.3 0-3 0-6 0.1-9.1 0.1-1.6 1-2.9 2.2-4 1.4-1.3 3.2-1.9 5.1-2 2-0.1 3.2-1.8 2.3-3.6 -0.3-0.7-0.9-1.1-1.7-1.3 -0.3 0-0.5-0.1-0.8-0.1 -7.8 0-15.7 0-23.5 0 -0.5 0-1 0.1-1.5 0.2 -1.3 0.3-2 1.2-2.2 2.5 0 0.3 0 0.6 0 0.8 0 4.5 0 9 0 13.6 0 0.3 0 0.6-0.1 1 -0.2 1.2-1.3 2-2.5 1.9 -1.2-0.1-2.2-1-2.2-2.2 -0.1-3.1-0.1-6.2-0.1-9.2 0-1.9-0.1-3.9 0-5.8 0.1-4.1 3.4-7.5 7.5-7.6C32.3 49.7 36.5 49.8 40.8 49.7 40.8 49.8 40.8 49.7 40.8 49.7z"/><path class="st0" d="M13 66c0-2.8 0-5.6 0-8.5 0-1 0.3-1.9 1.2-2.5 1.5-0.9 3.4 0 3.6 1.8 0 0.3 0.1 0.7 0.1 1.1 0 5.2 0.1 10.4 0.1 15.6 0 0.9 0.1 1.8 0.7 2.5 0.8 0.9 1.8 1.1 2.9 1.1 4.4 0 8.7 0 13.1 0 0.3 0 0.6 0 0.9 0 1.2-0.1 2.1-1.1 2.2-2.4 0-1.2-0.8-2.3-2-2.4 -0.7-0.1-1.4-0.1-2.1-0.2 -2.8-0.6-4.5-2.4-5.3-5 -1.1-3.4 0.2-6.9 3.3-8.7 1-0.6 2-0.9 3.1-0.9 2.6-0.1 5.2-0.1 7.9-0.1 1.2 0 2.1 0.7 2.4 1.8 0.3 1.2-0.1 2.5-1.1 3 -0.4 0.2-1 0.3-1.5 0.3 -2.2 0-4.5 0-6.7 0 -1.1 0-2 0.4-2.4 1.5 -0.7 1.6 0.3 3.3 2.1 3.4 1.5 0.1 2.9 0.3 4.2 1.1 2.3 1.4 3.3 3.4 3.3 6 0 3-1.2 5.3-4 6.7 -0.9 0.4-1.8 0.6-2.8 0.6 -5.2 0.1-10.3 0.1-15.5 0.1 -3.7 0-6.8-2.6-7.4-6.4 -0.1-0.6-0.1-1.1-0.1-1.7C13 71.2 13 68.6 13 66 13 66 13 66 13 66z"/></svg>