<svg xmlns="http://www.w3.org/2000/svg" viewBox="0 0 72 96"><style type="text/css">  
	.st0{fill:#000080;}
	.st1{fill:#FFFFFF;}
</style><path class="st0" d="M0 2v92c0 1.1 0.9 2 2 2h68c1.1 0 2-0.9 2-2V28H50c-1.1 0-2-0.9-2-2V0H2C0.9 0 0 0.9 0 2z"/><path class="st0" d="M71.9 24c-0.1-0.4-0.2-0.7-0.4-1L52 1.2V24H71.9z"/><path class="st1" d="M6 41h60v49H6V41zM6.6 6.4h3.3v11.4h4.3v2.9H6.6C6.6 20.7 6.6 6.4 6.6 6.4zM16.4 6.4h3.3V16c0 1.4 0.6 1.9 1.5 1.9s1.5-0.5 1.5-1.9V6.4H26V16c0 3-1.9 4.9-4.7 4.9 -2.9 0-4.8-1.9-4.8-4.9V6.4L16.4 6.4zM31.8 6.4h3.6L39 20.7h-3.3l-0.6-3h-3l-0.6 3h-3.3C28.2 20.7 31.8 6.4 31.8 6.4zM34.6 15L34 12.1c-0.2-0.9-0.4-2.5-0.4-2.5h-0.1c0 0-0.2 1.5-0.4 2.5L32.6 15H34.6z"/><path class="st0" d="M33.7 84C25 84 18 77 18 68.3s7-15.8 16-15.7c8.5 0.2 15.3 7 15.3 15.7S42.3 84 33.7 84zM40.1 57.2c-2.5 0-4.7 2.2-4.7 4.7 0 2.5 2 4.7 4.7 4.7 2.5 0 4.7-2 4.7-4.7C44.8 59.3 42.8 57.2 40.1 57.2zM49.3 57.2c-2.5 0-4.7-2-4.5-4.7 0-2.5 2-4.5 4.7-4.5 2.5 0 4.5 2.2 4.5 4.7S51.8 57.2 49.3 57.2z"/></svg>