<svg xmlns="http://www.w3.org/2000/svg" viewBox="0 0 72 96"><style type="text/css">  
	.st0{fill:#CCCCCC;}
	.st1{fill:#333333;}
	.st2{fill:#999999;}
</style><path class="st0" d="M0 2l0 92c0 1.1 0.9 2 2 2h68c1.1 0 2-0.9 2-2V28H50c-1.1 0-2-0.9-2-2V0L2 0C0.9 0 0 0.9 0 2z"/><path class="st0" d="M71.9 24c-0.1-0.4-0.2-0.7-0.4-1L52 1.2V24H71.9z"/><path class="st1" d="M31.1 70.4h3.6l1.3 6c0.2 0.9 0.4 2.4 0.4 2.4h0.1c0 0 0.2-1.5 0.4-2.4l1.3-6H42l0.9 14.3h-3l-0.4-6.4c-0.1-1.1 0-2.4 0-2.4h-0.1c0 0-0.2 1.5-0.4 2.4l-0.9 4.1h-3.2l-0.9-4.1c-0.2-0.9-0.4-2.4-0.4-2.4h-0.1c0 0 0.1 1.3 0 2.4l-0.4 6.4h-3L31.1 70.4z"/><path class="st2" d="M0 94L0 2c0-1.1 0.9-2 2-2l48 0c0.6 0 1.1 0.2 1.5 0.7l20 22.3c0.3 0.4 0.5 0.8 0.5 1.3V94c0 1.1-0.9 2-2 2H2C0.9 96 0 95.1 0 94zM68 25.1L49.1 4H4v88h64V25.1z"/><path class="st2" d="M48 26V4c0-1.1 0.9-2 2-2s2 0.9 2 2v20h16c1.1 0 2 0.9 2 2s-0.9 2-2 2H50C48.9 28 48 27.1 48 26z"/><rect x="15" y="29.9" class="st2" width="37" height="4.3"/><rect x="22" y="39.5" class="st2" width="37" height="4.3"/><rect x="15" y="49.1" class="st2" width="37" height="4.3"/><rect x="22" y="58.7" class="st2" width="37" height="4.3"/></svg>