<svg id="Layer_1" xmlns="http://www.w3.org/2000/svg" viewBox="0 0 72 96"><style>.st0{fill:#039}.st1{fill:#fff}.st2{font-family:&apos;MuseoSansCond-700&apos;}.st3{font-size:20px}</style><path class="st0" d="M0 2v92c0 1.1.9 2 2 2h68c1.1 0 2-.9 2-2V28H50c-1.1 0-2-.9-2-2V0H2C.9 0 0 .9 0 2z"/><path class="st0" d="M71.9 24c-.1-.4-.2-.7-.4-1L52 1.2V24h19.9z"/><path class="st1" d="M6 41h60v49H6z"/><text transform="matrix(.85 0 0 1 5.517 20.693)" class="st1 st2 st3">M3U8</text><path class="st0" d="M14.6 54.3h22.9c1.2 0 2.1-.9 2.1-2.1s-.9-2.1-2.1-2.1H14.6c-1.2 0-2.1.9-2.1 2.1s.9 2.1 2.1 2.1zm0 11.1h22.9c1.2 0 2.1-.9 2.1-2.1s-.9-2.1-2.1-2.1H14.6c-1.2 0-2.1.9-2.1 2.1s.9 2.1 2.1 2.1zm11 5.9h-11c-1.2 0-2.1.9-2.1 2.1s.9 2.1 2.1 2.1h11c1.2 0 2.1-.9 2.1-2.1s-.9-2.1-2.1-2.1z"/><path class="st0" d="M52.5 53.8c-1.6-.8-3.7-2-4.5-3.7 0-.9-.7-1.6-1.6-1.6-.9 0-1.6.7-1.6 1.6v21.5c-1.7-.9-4.9-.6-7.3.8-3.8 2.1-5.4 6.1-3.8 8.8s6.1 3.3 9.9 1.2c2.6-1.5 4.4-3.9 4.5-6.3V57.6c5.4 0 8.7 2.2 7.5 7.5-.2 1-.6 1.9-1 2.9-.2.3-.2.7.1 1 .3.3.8.2 1.2-.2 2-2 3.3-4.6 3.4-7.5-.1-3.8-3.7-6-6.8-7.5z"/></svg>