<svg xmlns="http://www.w3.org/2000/svg" viewBox="0 0 72 96"><style type="text/css">  
	.st0{fill:#003399;}
	.st1{fill:#FFFFFF;}
	.st2{enable-background:new    ;}
</style><path class="st0" d="M0 2v92c0 1.1 0.9 2 2 2h68c1.1 0 2-0.9 2-2V28H50c-1.1 0-2-0.9-2-2V0H2C0.9 0 0 0.9 0 2z"/><path class="st0" d="M71.9 24c-0.1-0.4-0.2-0.7-0.4-1L52 1.2V24H71.9z"/><path class="st1" d="M6 41h60v49H6V41z"/><g class="st2"><path class="st1" d="M7 6.5h2.3l1.6 6.9c0.2 0.9 0.4 2.2 0.4 2.2h0.1c0 0 0.2-1.3 0.4-2.2l1.6-6.9h2.3l0.8 14.2h-1.9l-0.4-7.9c-0.1-0.9 0-2.2 0-2.2h-0.1c0 0-0.2 1.4-0.4 2.3l-1.3 5.4h-2L9 12.9c-0.2-0.8-0.4-2.3-0.4-2.3H8.6c0 0 0.1 1.3 0 2.2l-0.4 7.9H6.2L7 6.5z"/><path class="st1" d="M18.6 17.7c0.4 0.5 1 0.9 1.7 0.9 1 0 1.8-0.7 1.8-2.3 0-1.4-0.8-2.1-2.3-2.1h-0.8l-0.4-1.4 2.2-3.3c0.4-0.5 0.7-0.8 0.7-0.8v0c0 0-0.3 0-0.9 0h-2.6V6.5h5.8v1.9l-2.6 3.8c1.8 0.3 3 1.7 3 4.1 0 2.4-1.3 4.6-3.7 4.6 -1 0-2.1-0.4-2.9-1.3L18.6 17.7z"/><path class="st1" d="M25.9 6.5H28v9.6c0 1.8 0.7 2.6 1.8 2.6s1.8-0.8 1.8-2.6V6.5h2.1v9.6c0 3-1.5 4.8-3.8 4.8 -2.3 0-3.9-1.8-3.9-4.8V6.5z"/><path class="st1" d="M37 13.1c-0.8-0.8-1.4-1.7-1.4-3.2 0-1.9 1-3.7 3.2-3.7C41 6.2 42 7.9 42 9.8c0 1.8-1 3.2-1.3 3.7 0.8 0.7 1.5 1.8 1.5 3.4 0 2.2-1.2 4-3.6 4 -2.3 0-3.5-1.8-3.5-3.9C35.2 14.9 36.6 13.5 37 13.1zM38.3 14.2c-0.3 0.3-1 1.1-1 2.5 0 1.1 0.5 2 1.4 2 0.9 0 1.4-0.8 1.4-1.8C40.2 15.4 39.2 14.8 38.3 14.2zM39.3 12.5c0.2-0.3 0.7-1.1 0.7-2.3 0-1-0.4-1.7-1.3-1.7s-1.1 0.6-1.1 1.4C37.6 11.3 38.5 12 39.3 12.5z"/></g><path class="st0" d="M14.6 54.3h22.9c1.2 0 2.1-0.9 2.1-2.1s-0.9-2.1-2.1-2.1H14.6c-1.2 0-2.1 0.9-2.1 2.1S13.4 54.3 14.6 54.3zM14.6 65.4h22.9c1.2 0 2.1-0.9 2.1-2.1s-0.9-2.1-2.1-2.1H14.6c-1.2 0-2.1 0.9-2.1 2.1S13.4 65.4 14.6 65.4zM25.6 71.3h-11c-1.2 0-2.1 0.9-2.1 2.1s0.9 2.1 2.1 2.1h11c1.2 0 2.1-0.9 2.1-2.1S26.8 71.3 25.6 71.3z"/><path class="st0" d="M52.5 53.8c-1.6-0.8-3.7-2-4.5-3.7 0-0.9-0.7-1.6-1.6-1.6 -0.9 0-1.6 0.7-1.6 1.6v21.5c-1.7-0.9-4.9-0.6-7.3 0.8 -3.8 2.1-5.4 6.1-3.8 8.8s6.1 3.3 9.9 1.2c2.6-1.5 4.4-3.9 4.5-6.3V57.6c5.4 0 8.7 2.2 7.5 7.5 -0.2 1-0.6 1.9-1 2.9 -0.2 0.3-0.2 0.7 0.1 1s0.8 0.2 1.2-0.2c2-2 3.3-4.6 3.4-7.5C59.2 57.5 55.6 55.3 52.5 53.8z"/></svg>