<svg id="Layer_1" xmlns="http://www.w3.org/2000/svg" viewBox="0 0 72 96"><style>.st0{fill:#fff}.st2{fill:#bababa}</style><path class="st0" d="M0 2v92c0 1.1.9 2 2 2h68c1.1 0 2-.9 2-2V28H50c-1.1 0-2-.9-2-2V0H2C.9 0 0 .9 0 2z"/><path class="st0" d="M71.9 24c-.1-.4-.2-.7-.4-1L52 1.2V24h19.9z"/><path d="M19.5 70.4h3.6l1.3 6c.2.9.4 2.4.4 2.4h.1s.2-1.5.4-2.4l1.3-6h3.6l.9 14.3h-3l-.4-6.4c-.1-1.1 0-2.4 0-2.4h-.1s-.2 1.5-.4 2.4l-.9 4.1h-3.2l-.9-4.1c-.2-.9-.4-2.4-.4-2.4h-.1s.1 1.3 0 2.4l-.4 6.4h-3l1.2-14.3zm17.4 0h3.6l3.6 14.3h-3.3l-.6-3h-3l-.6 3h-3.3l3.6-14.3zm2.8 8.6l-.6-2.8c-.2-.9-.4-2.5-.4-2.5h-.1s-.2 1.5-.4 2.5l-.5 2.8h2zm6.9-8.6h4.5c2.6 0 4.4 2 4.4 4.9s-1.7 5-4.4 5h-1.2v4.4h-3.3V70.4zm3.9 7c1 0 1.6-.9 1.6-2.1s-.7-2-1.6-2h-.7v4.1h.7z" fill="#666"/><path class="st2" d="M0 94V2C0 .9.9 0 2 0h48c.6 0 1.1.2 1.5.7l20 22.3c.3.4.5.8.5 1.3V94c0 1.1-.9 2-2 2H2c-1.1 0-2-.9-2-2zm68-68.9L49.1 4H4v88h64V25.1z"/><path class="st2" d="M48 26V4c0-1.1.9-2 2-2s2 .9 2 2v20h16c1.1 0 2 .9 2 2s-.9 2-2 2H50c-1.1 0-2-.9-2-2z"/><path d="M41.9 58.3l-.3 3.4c-.1.4.4.9.9.9h11.6c.6 0 1.1-.6.8-1.2l-.9-2.6c-.1-.4-.4-.6-.7-.6l-10.5-.8c-.5.1-.9.4-.9.9zM36.8 57l-17.3-1.3c-.4-.1-.7.1-.9.6L17 61.4c-.1.5.3 1.2.9 1.2h18.6c.4 0 .9-.4.9-.8l.3-3.9c-.1-.4-.4-.7-.9-.9zm-2.4-13.4h-11c-.4 0-.7.3-.9.6l-2 6.3c-.1.5.1 1.1.7 1.2l15.9 1.2c.4.1.9-.4.9-.8l.1-2c0-.1 0-.4-.1-.4-1-1.7-2-3.7-2.9-5.4-.2-.5-.4-.7-.7-.7zm17.7 9l-2.8-8.5c-.1-.4-.4-.6-.8-.6h-1.3c-.4 0-.6.1-.8.4-1.1 2-2.1 4-3.2 5.9-.1.3-.4.5-.6.7-.1.1-.3.4-.3.6l-.1 1.1c-.1.4.4.9.8.9l8.1.6c.8.2 1.3-.5 1-1.1zM40.8 25.4c-4.2 0-7.5 3.4-7.5 7.5 0 3.4 5.1 12.7 6.9 15.9.3.4 1 .4 1.2 0 1.7-3.1 6.9-12.4 6.9-15.9 0-4.1-3.4-7.5-7.5-7.5zm0 13.8c-3.2 0-5.9-2.6-5.9-5.9s2.6-5.9 5.9-5.9 5.9 2.6 5.9 5.9-2.7 5.9-5.9 5.9z" stroke="#bababa" stroke-miterlimit="10" fill="#bababa" opacity=".85"/></svg>