<svg xmlns="http://www.w3.org/2000/svg" viewBox="0 0 72 96"><style>.st0{fill:#ccc}.st2{stroke:#999;stroke-miterlimit:10}.st2,.st3{fill:#999}</style><path class="st0" d="M0 2v92c0 1.1.9 2 2 2h68c1.1 0 2-.9 2-2V28H50c-1.1 0-2-.9-2-2V0H2C.9 0 0 .9 0 2z"/><path class="st0" d="M71.9 24c-.1-.4-.2-.7-.4-1L52 1.2V24h19.9z"/><path d="M19.5 70.4h3.6l1.3 6c.2.9.4 2.4.4 2.4h.1s.2-1.5.4-2.4l1.3-6h3.6l.9 14.3h-3l-.4-6.4c-.1-1.1 0-2.4 0-2.4h-.1s-.2 1.5-.4 2.4l-.9 4.1h-3.2l-.9-4.1c-.2-.9-.4-2.4-.4-2.4h-.1s.1 1.3 0 2.4l-.4 6.4h-3l1.2-14.3zm17.4 0h3.6l3.6 14.3h-3.3l-.6-3h-3l-.6 3h-3.3l3.6-14.3zm2.8 8.6l-.6-2.8c-.2-.9-.4-2.5-.4-2.5h-.1s-.2 1.5-.4 2.5l-.5 2.8h2zm6.9-8.6h4.5c2.6 0 4.4 2 4.4 4.9s-1.7 5-4.4 5h-1.2v4.4h-3.3V70.4zm3.9 7c1 0 1.6-.9 1.6-2.1 0-1.2-.7-2-1.6-2h-.7v4.1h.7z" fill="#333"/><path class="st2" d="M53.8 63.5c-.1 0-.4-.1-.5-.1L44 59.1l-14.1 4.3c-.3.1-.6.1-.8 0L17.8 59c-.4-.2-.8-.6-.8-1.1V26.7c0-.4.2-.8.5-1 .4-.2.7-.3 1.1-.1l11 4.3 14.1-4.3c.3-.1.6-.1.8.1l9.7 4.4c.4.2.7.6.7 1.1v31.2c0 .4-.2.8-.6 1-.1 0-.3.1-.5.1zM19.4 57l10.2 4 14.1-4.3c.3-.1.6-.1.8.1l8 3.7V31.9L44 28l-14.1 4.3c-.3.1-.6.1-.8 0l-9.7-3.8V57z"/><path class="st2" d="M24.1 54c-.5 0-1-.3-1.1-.8-.2-.6.1-1.3.8-1.5.4-.1.7-.3 1.1-.4.6-.2 1.3.1 1.5.6.2.6-.1 1.3-.7 1.5-.4.1-.8.3-1.2.4-.1.2-.3.2-.4.2zm4.9-2.4c-.4 0-.7-.1-1-.5-.4-.6-.3-1.3.3-1.7.6-.4 1.1-.8 1.5-1.3.5-.4 1.3-.4 1.7.1.4.5.4 1.2-.1 1.7-.6.5-1.1 1-1.8 1.4-.1.2-.4.3-.6.3zm4.3-4.6c-.2 0-.5-.1-.6-.2-.6-.4-.7-1.1-.4-1.6.4-.6.8-1.1 1.1-1.8.4-.6 1.1-.8 1.6-.4.6.4.8 1.1.4 1.6-.4.6-.8 1.3-1.2 1.8-.1.4-.5.6-.9.6zm3.2-5.5c-.2 0-.4-.1-.6-.1-.6-.4-.8-1.1-.4-1.6.4-.7.8-1.3 1.2-1.8.4-.6 1.1-.6 1.7-.3.6.4.6 1.1.3 1.7-.4.5-.7 1.1-1.1 1.7-.3.2-.7.4-1.1.4zm4.1-4.7c-.4 0-.8-.2-1-.6-.4-.6-.2-1.3.4-1.6.6-.4 1.3-.8 2.1-1.1.6-.2 1.3.1 1.5.7.2.6-.1 1.3-.7 1.5-.6.2-1.1.5-1.6.8-.2.3-.4.3-.7.3zm6.1-1.8c-.6 0-1.1-.5-1.2-1.1-.1-.6.5-1.2 1.1-1.3.4 0 .8-.1 1.3-.1.6 0 1.2.6 1.2 1.2s-.6 1.3-1.2 1.3h-1.2c.1 0 0 0 0 0zm-2.6 24.1c-.6 0-1.2-.6-1.2-1.2V44.5c0-.6.6-1.2 1.2-1.2s1.2.6 1.2 1.2v13.4c0 .6-.6 1.2-1.2 1.2zM29.5 37.6c-.6 0-1.2-.6-1.2-1.2v-5.3c0-.6.6-1.2 1.2-1.2s1.2.6 1.2 1.2v5.3c0 .6-.5 1.2-1.2 1.2zm0 25.9c-.6 0-1.2-.6-1.2-1.2v-4.9c0-.6.6-1.2 1.2-1.2s1.2.6 1.2 1.2v4.9c0 .6-.5 1.2-1.2 1.2z"/><path class="st3" d="M0 94V2C0 .9.9 0 2 0h48c.6 0 1.1.2 1.5.7l20 22.3c.3.4.5.8.5 1.3V94c0 1.1-.9 2-2 2H2c-1.1 0-2-.9-2-2zm68-68.9L49.1 4H4v88h64V25.1z"/><path class="st3" d="M48 26V4c0-1.1.9-2 2-2s2 .9 2 2v20h16c1.1 0 2 .9 2 2s-.9 2-2 2H50c-1.1 0-2-.9-2-2z"/></svg>