<svg xmlns="http://www.w3.org/2000/svg" viewBox="0 0 72 96"><style type="text/css">  
	.st0{fill:#999999;}
	.st1{fill:#FFFFFF;}
</style><path class="st0" d="M0 2l0 92c0 1.1 0.9 2 2 2h68c1.1 0 2-0.9 2-2V28H50c-1.1 0-2-0.9-2-2V0L2 0C0.9 0 0 0.9 0 2z"/><path class="st0" d="M71.9 24c-0.1-0.4-0.2-0.7-0.4-1L52 1.2V24H71.9z"/><rect x="6" y="41" class="st1" width="60" height="49"/><path class="st1" d="M7.1 6.4h3.6l1.3 6c0.2 0.9 0.4 2.4 0.4 2.4h0.1c0 0 0.2-1.5 0.4-2.4l1.3-6H18l0.9 14.3h-3l-0.4-6.4c-0.1-1.1 0-2.4 0-2.4h-0.1c0 0-0.2 1.5-0.4 2.4l-0.9 4.1H11l-0.9-4.1c-0.2-0.9-0.4-2.4-0.4-2.4H9.6c0 0 0.1 1.3 0 2.4l-0.4 6.4h-3L7.1 6.4z"/><path class="st1" d="M28 6.1c1.3 0 2.6 0.4 3.6 1.2l-1.4 2.8c-0.4-0.5-1.3-0.9-2.1-0.9 -2.1 0-3.2 1.9-3.2 4.2 0 2.3 1.2 4.4 3.2 4.4 1 0 1.7-0.5 2.3-1l1.4 2.8c-0.9 0.7-2 1.3-3.9 1.3 -4 0-6.3-3.1-6.3-7.4C21.6 9.3 24 6.1 28 6.1z"/><path class="st0" d="M54.5 65.5C54.5 75.7 46.2 84 36 84c-10.2 0-18.5-8.3-18.5-18.5C17.5 55.3 25.8 47 36 47 46.2 47 54.5 55.3 54.5 65.5"/><path class="st1" d="M48.9 66.9c-0.6-3.9-4.7-6.5-7.8-8.4 -1.3-0.8-3.5-1.9-3.8-3.7 -0.1-0.7-0.1-1.5-0.1-2.2 0-0.3 0-0.6 0-0.9 0-0.4-0.4 0.1-0.6-0.2 -0.5-0.8-0.3 0.2-0.3 0.7 0.1 1 0.3 2 0.3 3 0 1.9-0.3 3.8-0.8 5.6 -1.1 4.3-2 8.8-0.9 13.2 0.2 0.9 0.5 1.8 0.9 2.7 0.1 0.3 0.3 1 0.7 1.1 1.2 0.3 2.1 0.4 3 1.3 0.6 0.5 1 0.2 1.7 0 2.1-0.8 3.9-1.9 5.4-3.6C48.5 72.9 49.4 70 48.9 66.9M46.7 70.8c-0.2 1.6-1.2 3.1-2.2 4.3 -0.8 0.9-1.8 2-2.9 2.4 -0.4 0.1 0.1-0.7 0.1-0.7 0.3-0.5 0.8-1 1.2-1.5 0.6-0.7 1.1-1.5 1.4-2.3 1.1-2.9 0.9-6.3-0.8-8.9 -0.9-1.4-2.2-2.6-3.4-3.7 -0.6-0.5-1.2-1-1.7-1.6 -0.1-0.1-1.2-1.5-0.8-1.7 0.1-0.1 2.4 2.3 2.6 2.5 0.9 0.7 1.9 1.4 2.8 2.2 1.2 1.1 2.4 2.3 3.1 3.8C46.8 67.2 46.9 69.1 46.7 70.8"/><path class="st1" d="M35.3 47.5c0.3 0.2 0.4 1.6 0.4 2.8 0 1.2 0.1 6.5-0.3 7.9 -0.4 1.4-1.3 3-2.2 4.4 -1 1.4-2.1 4.3-2 6.1 0 1.8 1.1 4.7 1.9 6 0.8 1.2 2.2 2.9 1.9 3.3 -0.5 0.7-2.7-1.7-3.9-3.1 -1.1-1.4-2.3-4.2-2.3-6.4 0-2.2 1.2-4.2 2.1-5.4 0.9-1.2 2.6-3.3 3.1-4.3 0.5-1 1-2 1.1-3.3 0.2-1.3 0-6.1 0-6.1S35 47.3 35.3 47.5"/><path class="st1" d="M34.4 49.8c0.3 0.2 0.4 0.6 0.4 1 0 0.4-0.1 2.1-0.2 3.8 -0.1 1.7-1.5 3.1-2.4 4.1 -1 1-3.9 4.1-4.9 5.6 -1.1 1.5-1.6 3.5-1.5 5.2 0.1 1.7 0.5 3.4 2.1 5.2 1.6 1.8 2.7 2.6 3.6 3.1 0.8 0.4 1.7 0.7 1.5 1.1 -0.2 0.4-1 0.1-1.9-0.2 -0.9-0.3-3.9-1.5-5.6-3.5 -1.7-2-2.6-4.6-2.5-7 0.1-2.5 0.8-3.5 1.9-5.1 1.1-1.6 4.3-4 5.3-4.6 1-0.6 2.3-1.6 3-2.5 0.7-0.8 1-1.5 1-2.7 0-1.1 0.1-2.2 0-2.6C34.1 50.4 34.1 49.6 34.4 49.8"/><path class="st1" d="M34.5 79.8c0.2 0 0.1 0.7-0.2 1 -0.3 0.3-0.7 0.5-0.8 0.4 -0.1-0.1 0.3-0.2 0.6-0.5C34.4 80.3 34.3 79.8 34.5 79.8"/><path class="st1" d="M37.6 79.7c-0.2 0-0.1 0.7 0.2 1 0.3 0.3 0.7 0.5 0.8 0.4 0.1-0.1-0.3-0.2-0.6-0.5C37.7 80.3 37.8 79.7 37.6 79.7"/><path class="st1" d="M36.2 80.5c0 0.6 0 1.1-0.1 1.1 -0.2 0-0.1-0.5-0.1-1.1 0-0.6-0.1-1.1 0.1-1.1C36.3 79.4 36.2 79.9 36.2 80.5"/></svg>