<svg xmlns="http://www.w3.org/2000/svg" viewBox="0 0 72 96"><style type="text/css">  
	.st0{fill:#999999;}
	.st1{fill:#FFFFFF;}
	.st2{enable-background:new    ;}
</style><path class="st0" d="M0 2v92c0 1.1 0.9 2 2 2h68c1.1 0 2-0.9 2-2V28H50c-1.1 0-2-0.9-2-2V0H2C0.9 0 0 0.9 0 2z"/><path class="st0" d="M71.9 24c-0.1-0.4-0.2-0.7-0.4-1L52 1.2V24H71.9z"/><rect x="6" y="41" class="st1" width="60" height="49"/><g class="st2"><path class="st1" d="M7.1 6.4h3.6l1.3 6c0.2 0.9 0.4 2.4 0.4 2.4h0.1c0 0 0.2-1.5 0.4-2.4l1.3-6H18l0.9 14.3h-3l-0.4-6.4c-0.1-1.1 0-2.4 0-2.4h-0.1c0 0-0.2 1.5-0.4 2.4l-0.9 4.1H11l-0.9-4.1c-0.2-0.9-0.4-2.4-0.4-2.4H9.6c0 0 0.1 1.3 0 2.4l-0.4 6.4h-3L7.1 6.4z"/><path class="st1" d="M21.7 6.4h4.2c3.7 0 5.9 2.6 5.9 7.1s-2.2 7.2-5.9 7.2h-4.2V6.4zM25.8 17.8c1.7 0 2.6-1.5 2.6-4.3 0-2.8-1-4.2-2.6-4.2H25v8.5H25.8z"/></g><path class="st0" d="M13.5 76.4V54.6h6.4l6.4 8 6.4-8h6.4v21.8h-6.4V63.9l-6.4 8 -6.4-8v12.5H13.5z"/><path class="st0" d="M51.9 76.4l-9.6-10.6h6.4V54.6h6.4v11.2h6.4L51.9 76.4z"/></svg>