<svg id="Layer_1" xmlns="http://www.w3.org/2000/svg" viewBox="0 0 72 96"><style>.st0{fill:#999}</style><path class="st0" d="M0 2v92c0 1.1.9 2 2 2h68c1.1 0 2-.9 2-2V28H50c-1.1 0-2-.9-2-2V0H2C.9 0 0 .9 0 2z"/><path class="st0" d="M71.9 24c-.1-.4-.2-.7-.4-1L52 1.2V24h19.9z"/><path d="M6 41h60v49H6zM7.1 6.4h3.6l1.3 6c.2.9.4 2.4.4 2.4h.1s.2-1.5.4-2.4l1.3-6H18l.9 14.3h-3l-.4-6.4c-.1-1.1 0-2.4 0-2.4h-.1s-.2 1.5-.4 2.4l-.9 4.1H11l-.9-4.1c-.2-.9-.4-2.4-.4-2.4h-.1s.1 1.3 0 2.4l-.4 6.4h-3l.9-14.3zm15.1 0h3.3v5.5h.5l2.3-5.5h3.5L29 13.2l3 7.4h-3.7L26 14.9h-.6v5.8h-3.3V6.4z" fill="#fff"/><path class="st0" d="M54.3 69.2c-1.6-.5-2.7-2-2.7-3.7s1.1-3.2 2.7-3.7c.5-.2.8-.7.6-1.2-.5-1.8-1.1-3.4-2.1-5-.3-.5-.8-.6-1.3-.4-.6.3-1.2.5-1.9.5-2.2 0-3.9-1.8-3.9-3.9 0-.7.2-1.3.5-1.9.3-.5.1-1-.4-1.3-1.6-.9-3.3-1.6-5-2.1-.5-.1-1 .1-1.2.6-.5 1.6-2 2.7-3.7 2.7s-3.2-1.1-3.7-2.7c-.2-.5-.7-.8-1.2-.6-1.8.5-3.4 1.1-5 2.1-.5.3-.6.8-.4 1.3.3.6.5 1.2.5 1.9 0 2.2-1.8 3.9-3.9 3.9-.7 0-1.3-.2-1.9-.5-.5-.3-1-.1-1.3.4-.9 1.6-1.6 3.3-2.1 5-.1.5.1 1 .6 1.2 1.6.5 2.7 2 2.7 3.7 0 1.7-1.1 3.2-2.7 3.7-.5.2-.8.7-.6 1.2.5 1.8 1.1 3.4 2.1 5 .3.5.8.6 1.3.4.6-.3 1.2-.5 1.9-.5 2.2 0 3.9 1.8 3.9 3.9 0 .7-.2 1.3-.5 1.9-.3.5-.1 1 .4 1.3 1.6.9 3.3 1.6 5 2.1h.2c.4 0 .8-.3.9-.7.5-1.6 2-2.7 3.7-2.7 1.7 0 3.2 1.1 3.7 2.7.2.5.7.8 1.2.6 1.8-.5 3.4-1.1 5-2.1.5-.3.6-.8.4-1.3-.3-.6-.5-1.2-.5-1.9 0-2.2 1.8-3.9 3.9-3.9.7 0 1.3.2 1.9.5.5.3 1 .1 1.3-.4.9-1.6 1.6-3.3 2.1-5 .3-.4 0-.9-.5-1.1zM36 71.4c-3.2 0-5.9-2.6-5.9-5.9 0-3.2 2.6-5.9 5.9-5.9 3.2 0 5.9 2.6 5.9 5.9 0 3.2-2.7 5.9-5.9 5.9z"/></svg>