<?xml version="1.0" encoding="utf-8"?>
<!-- Generator: Adobe Illustrator 22.1.0, SVG Export Plug-In . SVG Version: 6.00 Build 0)  -->
<svg version="1.1" id="Layer_1" xmlns="http://www.w3.org/2000/svg" xmlns:xlink="http://www.w3.org/1999/xlink" x="0px" y="0px"
	 viewBox="0 0 72 96" style="enable-background:new 0 0 72 96;" xml:space="preserve">
<style type="text/css">
	.st0{fill:#A87C2D;}
	.st1{fill:#FFFFFF;}
	.st2{fill:#A87C2D;stroke:#A87C2D;stroke-width:0.75;stroke-miterlimit:10;}
</style>
<path class="st0" d="M0,2v92c0,1.1,0.9,2,2,2h68c1.1,0,2-0.9,2-2V28H50c-1.1,0-2-0.9-2-2V0H2C0.9,0,0,0.9,0,2z"/>
<path class="st0" d="M71.9,24c-0.1-0.4-0.2-0.7-0.4-1L52,1.2V24H71.9z"/>
<rect x="6" y="41" class="st1" width="60" height="49"/>
<path class="st1" d="M7.1,6.4h3.6l1.3,6c0.2,0.9,0.4,2.4,0.4,2.4h0.1c0,0,0.2-1.5,0.4-2.4l1.3-6H18l0.9,14.3h-3l-0.4-6.4
	c-0.1-1.1,0-2.4,0-2.4h-0.1c0,0-0.2,1.5-0.4,2.4l-0.9,4.1H11l-0.9-4.1c-0.2-0.9-0.4-2.4-0.4-2.4H9.6c0,0,0.1,1.3,0,2.4l-0.4,6.4h-3
	L7.1,6.4z"/>
<path class="st1" d="M27.5,6.1c3.8,0,5.9,3.1,5.9,7.3s-2.1,7.5-5.9,7.5s-5.8-3.2-5.8-7.5C21.6,9.3,23.7,6.1,27.5,6.1z M27.5,17.8
	c1.7,0,2.5-1.8,2.5-4.3s-0.8-4.2-2.5-4.2S25,11,25,13.5S25.8,17.8,27.5,17.8z"/>
<path class="st2" d="M34.9,68.2c-2.5-2.4-4.7-4.6-6-9.6h8.8V55H29v-4.9h-3.8v5h-8.8v3.7h9c0,0-0.1,0.7-0.2,1.3
	c-1.3,4.9-2.7,8-8.8,11l1.3,3.7c5.7-3,8.7-6.9,10-11.1c1.3,3.2,3.4,5.8,5.8,8.2L34.9,68.2z"/>
<path class="st2" d="M46.5,56.2h-5l-8.8,24.7h3.8l2.5-7.4h10l2.5,7.4h3.8L46.5,56.2z M40.3,69.8l3.8-9.8l3.8,9.9L40.3,69.8
	L40.3,69.8z"/>
</svg>
