<svg id="Layer_1" xmlns="http://www.w3.org/2000/svg" viewBox="0 0 72 96"><style>.st0{fill:#55486d}.st1{fill:#fff}.st2{fill:#55486d;stroke:#55486d;stroke-width:1.5;stroke-miterlimit:10}</style><path class="st0" d="M0 2v92c0 1.1.9 2 2 2h68c1.1 0 2-.9 2-2V28H50c-1.1 0-2-.9-2-2V0H2C.9 0 0 .9 0 2z"/><path class="st0" d="M71.9 24c-.1-.4-.2-.7-.4-1L52 1.2V24h19.9z"/><path class="st1" d="M6 41h60v49H6zM7.1 6.4h3.6l1.3 6c.2.9.4 2.4.4 2.4h.1s.2-1.5.4-2.4l1.3-6H18l.9 14.3h-3l-.4-6.4c-.1-1.1 0-2.4 0-2.4h-.1s-.2 1.5-.4 2.4l-.9 4.1H11l-.9-4.1c-.2-.9-.4-2.4-.4-2.4h-.1s.1 1.3 0 2.4l-.4 6.4h-3l.9-14.3zm15.8 10.3c.6.6 1.4 1.2 2.3 1.2.9 0 1.3-.6 1.3-1.2 0-2-4.8-2.1-4.8-6.2 0-2.4 1.7-4.3 4.5-4.3 1.2 0 2.4.3 3.4 1l-1.2 2.9c-.5-.4-1.4-.9-2.2-.9-.9 0-1.3.6-1.3 1.2 0 2.1 4.8 2 4.8 6.1 0 2.3-1.5 4.4-4.4 4.4-1.4 0-2.9-.5-4-1.4l1.6-2.8zm9.9-10.3H36V16c0 1.4.6 1.9 1.5 1.9S39 17.4 39 16V6.4h3.3V16c0 3-1.9 4.9-4.7 4.9-2.9 0-4.8-1.9-4.8-4.9V6.4z"/><path class="st2" d="M30.9 999.1c-.1 0-.2 0-.3.1l-14.3 6.5c-.5.2-.6.9-.3 1.3l4.4 5.2-4.4 5.2c-.3.4-.2 1.1.3 1.3l4.4 2v8.6c0 .3.2.6.5.7l14.7 6.5c.2.1.5.1.7 0l14.7-6.5c.3-.1.5-.4.5-.7v-8.6l4.4-2c.5-.2.6-.9.3-1.3l-4.4-5.2 4.4-5.2c.3-.4.2-1.1-.3-1.3l-14.3-6.5c-.1-.1-.3-.1-.4-.1-.2 0-.4.1-.5.3l-4.7 5.1-4.7-5.1c-.2-.2-.5-.3-.7-.3zm-.1 1.8l4.1 4.4-13.1 5.8-3.8-4.4 12.8-5.8zm11 0l12.8 5.8-3.8 4.4-13.1-5.8 4.1-4.4zm-5.5 5.6l12.7 5.6-12.7 5.6-12.7-5.6 12.7-5.6zm-14.5 6.6l13.1 5.8-4.1 4.4-12.8-5.8 3.8-4.4zm28.9 0l3.8 4.4-12.8 5.8-4.1-4.4 13.1-5.8zm-15.2 7.7v13.8l-13-5.8v-7.4l8.2 3.8c.3.1.7.1.9-.2l3.9-4.2zm1.6 0l3.9 4.2c.2.3.6.3.9.2l8.2-3.8v7.4l-13 5.8v-13.8z" transform="translate(0 -952.362)"/></svg>