<svg id="Layer_1" xmlns="http://www.w3.org/2000/svg" viewBox="0 0 72 96"><style>.st0{fill:#ff141f}.st1{fill:#fff}.st2{fill:#ff141f;stroke:#ff141f;stroke-width:.75;stroke-miterlimit:10}</style><path class="st0" d="M0 2v92c0 1.1.9 2 2 2h68c1.1 0 2-.9 2-2V28H50c-1.1 0-2-.9-2-2V0H2C.9 0 0 .9 0 2z"/><path class="st0" d="M71.9 24c-.1-.4-.2-.7-.4-1L52 1.2V24h19.9z"/><path class="st1" d="M6 41h60v49H6zm.6-34.6h3.5l2.4 6.6c.4 1 .7 2.4.7 2.4h.1s-.2-1.5-.2-2.4V6.4h3.1v14.3h-3.4l-2.5-6.6c-.4-1-.7-2.4-.7-2.4h-.1s.2 1.5.2 2.4v6.6H6.6V6.4zm13.3 0h7.2v2.9h-3.9V12h3.1v2.9h-3.1v2.9h4.1v2.9h-7.4V6.4zm11.2 10.3c.6.6 1.4 1.2 2.3 1.2.9 0 1.3-.6 1.3-1.2 0-2-4.8-2.1-4.8-6.2 0-2.4 1.7-4.3 4.5-4.3 1.2 0 2.4.3 3.4 1l-1.2 2.9c-.5-.4-1.4-.9-2.2-.9-.9 0-1.3.6-1.3 1.2 0 2.1 4.8 2 4.8 6.1 0 2.3-1.5 4.4-4.4 4.4-1.4 0-2.9-.5-4-1.4l1.6-2.8z"/><path class="st2" d="M57.8 58.2H25.2v-7.1h-2.3v7.1h-8.8c-.6 0-1.1.5-1.1 1.1v19.1c0 .6.5 1.1 1.1 1.1h43.7c.6 0 1.1-.5 1.1-1.1V59.3c0-.6-.5-1.1-1.1-1.1zm-1.1 19.1H15.3V60.5h41.4v16.8z"/><path class="st2" d="M29.8 73.3h2.3c.6 0 1.1-.5 1.1-1.1s-.5-1.1-1.1-1.1h-2.3c-.6 0-1.1.5-1.1 1.1s.5 1.1 1.1 1.1zm6.3 0h2.3c.6 0 1.1-.5 1.1-1.1s-.5-1.1-1.1-1.1h-2.3c-.6 0-1.1.5-1.1 1.1s.5 1.1 1.1 1.1zm-16.4 0H22v-2.7h2.8v-2.3H22v-2.7h-2.3v2.7H17v2.3h2.7z"/><circle class="st2" cx="46.6" cy="70.9" r="2.1"/><circle class="st2" cx="52.9" cy="70.9" r="2.1"/></svg>