<svg xmlns="http://www.w3.org/2000/svg" viewBox="0 0 72 96"><style type="text/css">  
	.st0{fill:#BABABA;}
	.st1{fill:#FFFFFF;}
	.st2{fill:#BABABA;stroke:#BABABA;stroke-miterlimit:10;}
	.st3{fill:#BABABA;stroke:#FFFFFF;stroke-width:3;stroke-miterlimit:10;}
</style><path class="st0" d="M0 2l0 92c0 1.1 0.9 2 2 2h68c1.1 0 2-0.9 2-2V28H50c-1.1 0-2-0.9-2-2V0L2 0C0.9 0 0 0.9 0 2z"/><path class="st0" d="M71.9 24c-0.1-0.4-0.2-0.7-0.4-1L52 1.2V24H71.9z"/><rect x="6" y="41" class="st1" width="60" height="49"/><path class="st1" d="M6.6 6.4h3.5l2.4 6.6c0.4 1 0.7 2.4 0.7 2.4h0.1c0 0-0.2-1.5-0.2-2.4V6.4h3.1v14.3h-3.4l-2.5-6.6c-0.4-1-0.7-2.4-0.7-2.4H9.5c0 0 0.2 1.5 0.2 2.4v6.6H6.6V6.4z"/><path class="st1" d="M19.9 6.4H27v2.9h-3.8v3.1h3.1v2.9h-3.1v5.4h-3.3V6.4z"/><path class="st1" d="M35.2 6.1c3.8 0 5.9 3.1 5.9 7.3 0 4.2-2.1 7.5-5.9 7.5s-5.8-3.2-5.8-7.5C29.4 9.3 31.5 6.1 35.2 6.1zM35.2 17.8c1.7 0 2.5-1.8 2.5-4.3 0-2.5-0.8-4.2-2.5-4.2s-2.5 1.7-2.5 4.2C32.7 16 33.5 17.8 35.2 17.8z"/><polyline class="st2" points="58 47.3 58 51.5 14.4 51.5 14.4 47.3 "/><polyline class="st2" points="57.6 57.4 57.6 61.6 14 61.6 14 57.4 "/><polyline class="st2" points="57.6 68 57.6 72.1 14 72.1 14 68 "/><polyline class="st2" points="57.6 78.5 57.6 82.7 14 82.7 14 78.5 "/><path class="st3" d="M29.8 60.9v-1.8c0.5-0.2 1.2-0.4 2.2-0.7 0.9-0.3 1.8-0.4 2.8-0.6 1-0.2 2-0.3 2.9-0.4 0.9-0.1 1.8-0.2 2.6-0.2l0.9 0.6 -4.8 22.8h3.7v1.9c-0.4 0.3-1 0.6-1.6 0.9 -0.6 0.3-1.3 0.5-2 0.8 -0.7 0.3-1.4 0.4-2.1 0.5 -0.7 0.1-1.4 0.2-2 0.2 -1.4 0-2.2-0.3-2.8-0.8C29.2 83.6 29 83 29 82.4c0-0.7 0.1-1.4 0.2-2.1 0.1-0.7 0.3-1.4 0.4-2.2l3.6-16.4L29.8 60.9zM34.3 48.9c0-1.2 0.4-2.2 1.2-2.8 0.8-0.7 1.8-1 3.1-1 1.4 0 2.4 0.3 3.2 1 0.8 0.7 1.2 1.6 1.2 2.8 0 1.1-0.4 2.1-1.2 2.7 -0.8 0.7-1.9 1-3.2 1 -1.2 0-2.2-0.3-3.1-1C34.8 51 34.3 50.1 34.3 48.9z"/></svg>