<svg xmlns="http://www.w3.org/2000/svg" viewBox="0 0 72 96"><style type="text/css">  
	.st0{fill:#666666;}
	.st1{fill:#FFFFFF;}
</style><path class="st0" d="M0 2l0 92c0 1.1 0.9 2 2 2h68c1.1 0 2-0.9 2-2V28H50c-1.1 0-2-0.9-2-2V0L2 0C0.9 0 0 0.9 0 2z"/><path class="st0" d="M71.9 24c-0.1-0.4-0.2-0.7-0.4-1L52 1.2V24H71.9z"/><rect x="6" y="41" class="st1" width="60" height="49"/><path class="st1" d="M6.6 6.4h3.5l2.4 6.6c0.4 1 0.7 2.4 0.7 2.4h0.1c0 0-0.2-1.5-0.2-2.4V6.4h3.1v14.3h-3.4l-2.5-6.6c-0.4-1-0.7-2.4-0.7-2.4H9.5c0 0 0.2 1.5 0.2 2.4v6.6H6.6V6.4z"/><path class="st1" d="M19.9 6.4h3.3v14.3h-3.3V6.4z"/><path class="st1" d="M29.2 13.6l-3.4-7.2h3.6l1.1 2.9c0.3 0.9 0.6 1.8 0.6 1.8h0c0 0 0.2-0.9 0.6-1.8l1.2-2.9h3.6L33 13.6l3.3 7.1h-3.5l-1.1-3c-0.4-0.9-0.6-1.7-0.6-1.7h0c0 0-0.2 0.8-0.6 1.7l-1.1 3h-3.5L29.2 13.6z"/><rect x="14" y="48.9" class="st0" width="37" height="4.3"/><rect x="21" y="58.5" class="st0" width="37" height="4.3"/><rect x="14" y="68.1" class="st0" width="37" height="4.3"/><rect x="21" y="77.7" class="st0" width="37" height="4.3"/></svg>