<?xml version="1.0" encoding="UTF-8" standalone="no"?>
<svg
   xmlns:dc="http://purl.org/dc/elements/1.1/"
   xmlns:cc="http://creativecommons.org/ns#"
   xmlns:rdf="http://www.w3.org/1999/02/22-rdf-syntax-ns#"
   xmlns:svg="http://www.w3.org/2000/svg"
   xmlns="http://www.w3.org/2000/svg"
   xmlns:sodipodi="http://sodipodi.sourceforge.net/DTD/sodipodi-0.dtd"
   xmlns:inkscape="http://www.inkscape.org/namespaces/inkscape"
   id="Layer_1"
   viewBox="0 0 72 96"
   version="1.1"
   inkscape:version="0.91 r13725"
   sodipodi:docname="ods.svg">
  <metadata
     id="metadata17">
    <rdf:RDF>
      <cc:Work
         rdf:about="">
        <dc:format>image/svg+xml</dc:format>
        <dc:type
           rdf:resource="http://purl.org/dc/dcmitype/StillImage" />
        <dc:title></dc:title>
      </cc:Work>
    </rdf:RDF>
  </metadata>
  <defs
     id="defs15" />
  <sodipodi:namedview
     pagecolor="#ffffff"
     bordercolor="#666666"
     borderopacity="1"
     objecttolerance="10"
     gridtolerance="10"
     guidetolerance="10"
     inkscape:pageopacity="0"
     inkscape:pageshadow="2"
     inkscape:window-width="1855"
     inkscape:window-height="1176"
     id="namedview13"
     showgrid="false"
     inkscape:zoom="9.8333333"
     inkscape:cx="45.2904"
     inkscape:cy="52.504549"
     inkscape:window-x="1985"
     inkscape:window-y="24"
     inkscape:window-maximized="1"
     inkscape:current-layer="Layer_1" />
  <style
     id="style3">.st0{fill:#1f7244}.st1{fill:#fff}</style>
  <path
     class="st0"
     d="M0 2v92c0 1.1.9 2 2 2h68c1.1 0 2-.9 2-2V28H50c-1.1 0-2-.9-2-2V0H2C.9 0 0 .9 0 2z"
     id="path5" />
  <path
     class="st0"
     d="M71.9 24c-.1-.4-.2-.7-.4-1L52 1.2V24h19.9z"
     id="path7" />
  <path
     class="st1"
     d="m 6,41 60,0 0,49 -60,0 z"
     id="path9"
     inkscape:connector-curvature="0"
     style="fill:#ffffff"
     sodipodi:nodetypes="ccccc" />
  <path
     class="st0"
     d="m 46.8,49.2 12.2,0 0,8.1 -12.2,0 z m 0,12.5 12.2,0 0,8.1 -12.2,0 z m 0,12.4 12.2,0 0,8.1 -12.2,0 z m -16.5,0 12.2,0 0,8.1 -12.2,0 z m -16.5,0 12.2,0 0,8.1 -12.2,0 z"
     id="path11"
     inkscape:connector-curvature="0"
     style="fill:#1f7244"
     sodipodi:nodetypes="ccccccccccccccccccccccccc" />
  <text
     xml:space="preserve"
     style="font-style:normal;font-weight:normal;font-size:21.96858406px;line-height:125%;font-family:sans-serif;letter-spacing:0px;word-spacing:0px;fill:#000000;fill-opacity:1;stroke:none;stroke-width:1px;stroke-linecap:butt;stroke-linejoin:miter;stroke-opacity:1"
     x="4.3821197"
     y="21.860083"
     id="text3370"
     sodipodi:linespacing="125%"><tspan
       sodipodi:role="line"
       id="tspan3372"
       x="4.3821197"
       y="21.860083"
       style="font-style:normal;font-variant:normal;font-weight:bold;font-stretch:normal;font-family:'Liberation Mono';-inkscape-font-specification:'Liberation Mono Bold';fill:#ffffff">ODS</tspan></text>
  <path
     inkscape:connector-curvature="0"
     class="st0"
     d="m 35.100485,43.842373 1.7,0 c 2.6,0.2 4.6,0.8 6.6,1.6 3.8,-1.7 9.2,-0.4 12.6,0.9 -4.3,-0.4 -9.4,0 -12.4,1.7 -3,-2.4 -8.6,-3.1 -13.9,-2.4 1.5,-1 3.3,-1.6 5.4,-1.8 z m -1.2,6.5 c -3.1,0.2 -5.6,1.2 -7.3,2.6 -5.1,-2.3 -13.9,-1.3 -17.1999993,1.8 -0.3,0.2 -0.6,0.4 -0.5,0.7 2.9000003,-0.9 6.3999993,-1.6 9.9999993,-1.3 3.6,0.3 6.3,1.5 8.3,3.1 3.7,-3.3 9.2,-5.2 16.1,-5.1 -2.4,-1.1 -5.9,-2 -9.4,-1.8 z"
     id="path13"
     style="fill:#1f7244" />
  <path
     class="st0"
     d="m 30.408474,61.78983 12.2,0 0,8.1 -12.2,0 z m -16.5,0 12.2,0 0,8.1 -12.2,0 z"
     id="path11-3"
     inkscape:connector-curvature="0"
     style="fill:#1f7244"
     sodipodi:nodetypes="cccccccccc" />
</svg>
