<svg xmlns="http://www.w3.org/2000/svg" viewBox="0 0 72 96"><style type="text/css">  
	.st0{fill:#1F7244;}
	.st1{fill:#FFFFFF;}
</style><path class="st0" d="M0 2l0 92c0 1.1 0.9 2 2 2h68c1.1 0 2-0.9 2-2V28H50c-1.1 0-2-0.9-2-2V0L2 0C0.9 0 0 0.9 0 2z"/><path class="st0" d="M71.9 24c-0.1-0.4-0.2-0.7-0.4-1L52 1.2V24H71.9z"/><rect x="6" y="41" class="st1" width="60" height="49"/><path class="st1" d="M11.9 6.1c3.8 0 5.9 3.1 5.9 7.3 0 4.2-2.1 7.5-5.9 7.5s-5.8-3.2-5.8-7.5C6.1 9.3 8.1 6.1 11.9 6.1zM11.9 17.8c1.7 0 2.5-1.8 2.5-4.3 0-2.5-0.8-4.2-2.5-4.2S9.4 11 9.4 13.5C9.4 16 10.2 17.8 11.9 17.8z"/><path class="st1" d="M19.9 6.4h4.2c3.7 0 5.9 2.6 5.9 7.1s-2.2 7.2-5.9 7.2h-4.2V6.4zM24 17.8c1.7 0 2.6-1.5 2.6-4.3 0-2.8-1-4.2-2.6-4.2h-0.8v8.5H24z"/><path class="st1" d="M32.8 16.7c0.6 0.6 1.4 1.2 2.3 1.2 0.9 0 1.3-0.6 1.3-1.2 0-2-4.8-2.1-4.8-6.2 0-2.4 1.7-4.3 4.5-4.3 1.2 0 2.4 0.3 3.4 1l-1.2 2.9C38 9.6 37 9.2 36.3 9.2c-0.9 0-1.3 0.6-1.3 1.2 0 2.1 4.8 2 4.8 6.1 0 2.3-1.5 4.4-4.4 4.4 -1.4 0-2.9-0.5-4-1.4L32.8 16.7z"/><rect x="43.4" y="59.6" class="st0" width="15.8" height="2.5"/><rect x="12.5" y="66.5" class="st0" width="46.7" height="2.8"/><rect x="12.5" y="73.3" class="st0" width="46.7" height="2.8"/><path class="st0" d="M38.7 48.2c0.5 0 1.2 0 1.7 0C43 48.4 45 49 47 49.8c3.8-1.7 9.2-0.4 12.6 0.9 -4.3-0.4-9.4 0-12.4 1.7 -3-2.4-8.6-3.1-13.9-2.4C34.8 49 36.6 48.4 38.7 48.2zM37.5 54.7c-3.1 0.2-5.6 1.2-7.3 2.6C25.1 55 16.3 56 13 59.1c-0.3 0.2-0.6 0.4-0.5 0.7 2.9-0.9 6.4-1.6 10-1.3 3.6 0.3 6.3 1.5 8.3 3.1 3.7-3.3 9.2-5.2 16.1-5.1C44.5 55.4 41 54.5 37.5 54.7z"/><rect x="12.5" y="80" class="st0" width="46.7" height="2.8"/></svg>
