<svg xmlns="http://www.w3.org/2000/svg" viewBox="0 0 72 96"><style type="text/css">  
	.st0{fill:#1F7244;}
	.st1{fill:#FFFFFF;}
</style><path class="st0" d="M0 2l0 92c0 1.1 0.9 2 2 2h68c1.1 0 2-0.9 2-2V28H50c-1.1 0-2-0.9-2-2V0L2 0C0.9 0 0 0.9 0 2z"/><path class="st0" d="M71.9 24c-0.1-0.4-0.2-0.7-0.4-1L52 1.2V24H71.9z"/><rect x="6" y="41" class="st1" width="60" height="49"/><path class="st1" d="M11.9 6.1c3.8 0 5.9 3.1 5.9 7.3 0 4.2-2.1 7.5-5.9 7.5s-5.8-3.2-5.8-7.5C6.1 9.3 8.1 6.1 11.9 6.1zM11.9 17.8c1.7 0 2.5-1.8 2.5-4.3 0-2.5-0.8-4.2-2.5-4.2S9.4 11 9.4 13.5C9.4 16 10.2 17.8 11.9 17.8z"/><path class="st1" d="M19.9 6.4h4.2c3.7 0 5.9 2.6 5.9 7.1s-2.2 7.2-5.9 7.2h-4.2V6.4zM24 17.8c1.7 0 2.6-1.5 2.6-4.3 0-2.8-1-4.2-2.6-4.2h-0.8v8.5H24z"/><path class="st1" d="M32.8 16.7c0.6 0.6 1.4 1.2 2.3 1.2 0.9 0 1.3-0.6 1.3-1.2 0-2-4.8-2.1-4.8-6.2 0-2.4 1.7-4.3 4.5-4.3 1.2 0 2.4 0.3 3.4 1l-1.2 2.9C38 9.6 37 9.2 36.3 9.2c-0.9 0-1.3 0.6-1.3 1.2 0 2.1 4.8 2 4.8 6.1 0 2.3-1.5 4.4-4.4 4.4 -1.4 0-2.9-0.5-4-1.4L32.8 16.7z"/><path class="st0" d="M46 53.1h11.4v7.6H46V53.1zM46 64.8h11.4v7.6H46V64.8zM46 76.4h11.4V84H46V76.4zM30.5 76.4H42V84H30.5V76.4zM15.1 76.4h11.4V84H15.1L15.1 76.4z"/><path class="st0" d="M35 48h1.6c2.4 0.2 4.3 0.8 6.2 1.5 3.6-1.6 8.6-0.4 11.8 0.8 -4-0.4-8.8 0-11.6 1.6 -2.8-2.3-8.1-2.9-13-2.3C31.4 48.8 33.1 48.2 35 48zM33.9 54.1c-2.9 0.2-5.3 1.1-6.8 2.4 -4.8-2.2-13-1.2-16.1 1.7 -0.3 0.2-0.6 0.4-0.5 0.7 2.7-0.8 6-1.5 9.4-1.2s5.9 1.4 7.8 2.9c3.5-3.1 8.6-4.9 15.1-4.8C40.5 54.8 37.2 53.9 33.9 54.1z"/><path class="st0" d="M30.6 64.9h11.4v7.6H30.6V64.9zM15.2 64.9h11.4v7.6H15.2L15.2 64.9z"/></svg>