<svg id="Layer_1" xmlns="http://www.w3.org/2000/svg" viewBox="0 0 72 96"><style>.st0{fill:#ccc}.st1{fill:#333}.st2{fill:#999}</style><path class="st0" d="M0 2v92c0 1.1.9 2 2 2h68c1.1 0 2-.9 2-2V28H50c-1.1 0-2-.9-2-2V0H2C.9 0 0 .9 0 2z"/><path class="st0" d="M71.9 24c-.1-.4-.2-.7-.4-1L52 1.2V24h19.9z"/><path class="st1" d="M13.7 70.4h4.5c2.6 0 4.4 2 4.4 4.9s-1.7 5-4.4 5H17v4.4h-3.3V70.4zm3.9 7c1 0 1.6-.9 1.6-2.1 0-1.2-.7-2-1.6-2h-.7v4.1h.7zm9.5-7h3.6l3.6 14.3H31l-.6-3h-3l-.6 3h-3.3l3.6-14.3zm2.8 8.6l-.6-2.8c-.2-.9-.4-2.5-.4-2.5h-.1s-.2 1.5-.4 2.5l-.5 2.8h2zm6.9-8.6h4.5c.6 0 1.3.1 1.9.4 1.4.6 2.4 2.1 2.4 4 0 1.7-.8 3.3-2 4 0 0 .2.2.5.9l2.3 5h-3.6l-2-4.8H40v4.8h-3.3V70.4zm3.9 6.6c.9 0 1.6-.7 1.6-1.9 0-.7-.2-1.2-.6-1.5-.3-.2-.6-.3-.9-.3h-.7V77h.6zm10.4-3.7H48v-2.9h9.6v2.9h-3.2v11.4h-3.3V73.3z"/><path class="st2" d="M0 94V2C0 .9.9 0 2 0h48c.6 0 1.1.2 1.5.7l20 22.3c.3.4.5.8.5 1.3V94c0 1.1-.9 2-2 2H2c-1.1 0-2-.9-2-2zm68-68.9L49.1 4H4v88h64V25.1z"/><path class="st2" d="M48 26V4c0-1.1.9-2 2-2s2 .9 2 2v20h16c1.1 0 2 .9 2 2s-.9 2-2 2H50c-1.1 0-2-.9-2-2zm7.1 13.1c-.5-.1-.9-.2-1.4-.1-1.1.1-2.3.7-3.4.9-.8.1-1.5-.5-1.6-1.4-.2-2.6-.2-5.3 0-7.9 0-.4-.3-.6-.6-.6-3-.1-5.9.2-9 .9-.8.2-1.4.9-1.4 1.6.1 1.6 1.2 3.4.7 5.1-.4 1.5-1.6 2.6-3.2 2.9-1.5.3-3.1-.4-3.9-1.6-1-1.4-.5-3.4-.9-5.1-.2-.8-1-1.2-1.8-1.1-3 .3-5.9 1-8.7 2.1-.4.1-.6.5-.4.8 1.1 2.4 1.9 4.9 2.6 7.5.2.8-.3 1.6-1.1 1.8-1.1.3-2.4.1-3.5.4-.5.1-.9.3-1.3.6-1.4.9-2 2.4-1.8 3.9.2 1.4 1.3 2.6 2.6 3.2 1.7.6 3.2-.5 4.9-.6.8-.1 1.5.5 1.6 1.4.2 2.6.2 5.3 0 7.9 0 .4.3.6.6.6 3 .2 6-.2 9-.9.8-.2 1.4-.9 1.4-1.6-.1-1.7-1.3-3.4-.8-5.2.4-1.4 1.8-2.6 3.2-2.8 1.4-.2 3.1.4 3.9 1.6 1.1 1.4.5 3.5.9 5.2.2.8 1 1.2 1.8 1.1 3-.3 6-.9 8.7-2.1.4-.1.6-.5.4-.8-1.1-2.4-1.9-4.9-2.6-7.5-.2-.8.3-1.6 1.1-1.8 1.6-.4 3.4.1 4.9-1 1.1-.9 1.8-2.4 1.5-3.8.1-1.9-1.1-3.2-2.4-3.6z"/></svg>