<svg xmlns="http://www.w3.org/2000/svg" viewBox="0 0 72 96"><style>.st0{fill:#6781b2}.st1{fill:#fff}</style><path class="st0" d="M0 2v92c0 1.1.9 2 2 2h68c1.1 0 2-.9 2-2V28H50c-1.1 0-2-.9-2-2V0H2C.9 0 0 .9 0 2z"/><path class="st0" d="M71.9 24c-.1-.4-.2-.7-.4-1L52 1.2V24h19.9z"/><path class="st1" d="M6 41h60v49H6zm.6-33.9h4.3c2.5 0 4.1 1.9 4.1 4.7 0 2.7-1.7 4.7-4.1 4.7H9.7v4.2H6.6V7.1zm3.7 6.6c1 0 1.5-.8 1.5-2s-.6-1.9-1.5-1.9h-.6v3.9h.6zm5.5-6.6h3.1v5.5h3V7.1H25v13.6h-3v-5.4h-3v5.4h-3.1V7.1zm13.2 0h3.4l3.4 13.6h-3.1l-.6-2.9h-2.9l-.6 2.9h-3.1L29 7.1zm2.6 8.1l-.5-2.7c-.2-.9-.4-2.3-.4-2.3h-.1s-.2 1.5-.4 2.3l-.5 2.7h1.9zm4.7-8.1h4.3c.5 0 1.2.1 1.8.4 1.3.6 2.3 2 2.3 3.8 0 1.7-.8 3.1-1.9 3.8 0 0 .2.2.5.8l2.2 4.7H42L40.1 16h-.7v4.6h-3.1V7.1zm3.7 6.3c.8 0 1.5-.6 1.5-1.8 0-.6-.2-1.2-.6-1.5-.2-.2-.6-.3-.8-.3h-.7v3.5h.6z"/><path class="st0" d="M55.2 54.8L36 47.1l-7.6 3.1 19.2 7.6zm-31.6-2.7l-6.8 2.7L36 62.5l6.8-2.7zm-7.6 25l19.4 7.8V63.5L16 55.7zm32.4-18.3v6l-.8-.5-.8 1.1-.8-.4-.8 1.1-.8-.5-.8 1.1v-6l-7 2.8v21.4L56 77.1V55.7z"/><path class="st1" d="M20.4 68.5c.4.2.8.2 1 .1.2-.1.5-.3.7-.6.2-.3.3-.6.2-.7s-.3-.4-.7-.5l-.6-.4-1.1 1.8.5.3zM17.3 70s-.1 0 0 0c-.1-.1-.1-.1 0-.2l2.9-4.8.1-.1 2.1.8c.7.3 1.1.6 1.3 1.1.2.5.1 1-.3 1.6-.1.2-.3.5-.5.6-.2.2-.4.3-.7.4-.3.1-.6.2-.9.2-.3 0-.7-.1-1.1-.3l-.9-.3-.8 1.2-.1.1-1.1-.3zm8.5 1.7c-.1-.1-.1-.1 0-.2l1.3-2.1c.1-.2.2-.4.1-.4 0-.1-.1-.2-.4-.3l-.8-.3-1.6 2.6-.1.1-1.1-.4s-.1 0-.1-.1v-.1l2.9-4.8.1-.1 1.1.4s.1 0 .1.1v.1l-.7 1.2.8.3c.6.2 1 .5 1.2.9.2.3.1.8-.2 1.2L27 72l-.1.1-1.1-.4zm4.6.6c.4.2.8.2 1.1.1.3-.1.5-.3.7-.6.2-.3.3-.6.2-.7-.1-.2-.3-.4-.7-.5l-.7-.3-1.1 1.8.5.2zm-3.2 1.5c-.1-.1-.1-.1-.1-.2l3-4.8s.1-.1.2 0l2.2.8c.7.3 1.1.6 1.3 1.1.2.5.1 1-.3 1.6-.1.2-.3.5-.5.6-.2.2-.4.3-.7.4-.3.1-.7.2-1 .2-.3 0-.7-.1-1.2-.3l-.8-.2-.8 1.2s-.1.1-.2 0l-1.1-.4z"/></svg>