<svg xmlns="http://www.w3.org/2000/svg" viewBox="0 0 72 96"><style type="text/css">  
	.st0{fill:#6781B2;}
	.st1{fill:#FFFFFF;}
</style><path class="st0" d="M0 2l0 92c0 1.1 0.9 2 2 2h68c1.1 0 2-0.9 2-2V28H50c-1.1 0-2-0.9-2-2V0L2 0C0.9 0 0 0.9 0 2z"/><path class="st0" d="M71.9 24c-0.1-0.4-0.2-0.7-0.4-1L52 1.2V24H71.9z"/><rect x="6" y="41" class="st1" width="60" height="49"/><path class="st1" d="M6.6 7.1h4.3c2.5 0 4.1 1.9 4.1 4.7 0 2.7-1.7 4.7-4.1 4.7H9.7v4.2H6.6V7.1zM10.3 13.7c1 0 1.5-0.8 1.5-2s-0.6-1.9-1.5-1.9H9.7v3.9H10.3z"/><path class="st1" d="M15.8 7.1h3.1v5.5h3V7.1h3.1v13.6H22v-5.4h-3v5.4h-3.1V7.1z"/><path class="st1" d="M29 7.1h3.4l3.4 13.6h-3.1l-0.6-2.9h-2.9l-0.6 2.9h-3.1L29 7.1zM31.6 15.2l-0.5-2.7c-0.2-0.9-0.4-2.3-0.4-2.3h-0.1c0 0-0.2 1.5-0.4 2.3l-0.5 2.7H31.6z"/><path class="st1" d="M36.3 7.1h4.3c0.5 0 1.2 0.1 1.8 0.4 1.3 0.6 2.3 2 2.3 3.8 0 1.7-0.8 3.1-1.9 3.8v0c0 0 0.2 0.2 0.5 0.8l2.2 4.7H42l-1.9-4.6h-0.7v4.6h-3.1V7.1zM40 13.4c0.8 0 1.5-0.6 1.5-1.8 0-0.6-0.2-1.2-0.6-1.5 -0.2-0.2-0.6-0.3-0.8-0.3h-0.7v3.5H40z"/><polygon class="st0" points="55.2 54.8 36 47.1 28.4 50.2 47.6 57.8 "/><polygon class="st0" points="23.6 52.1 16.8 54.8 36 62.5 42.8 59.8 "/><polygon class="st0" points="16 77.1 35.4 84.9 35.4 63.5 16 55.7 "/><polygon class="st0" points="48.4 58.8 48.4 64.8 47.6 64.3 46.8 65.4 46 65 45.2 66.1 44.4 65.6 43.6 66.7 43.6 60.7 36.6 63.5 36.6 84.9 56 77.1 56 55.7 "/><path class="st1" d="M20.4 68.5c0.4 0.2 0.8 0.2 1 0.1 0.2-0.1 0.5-0.3 0.7-0.6 0.2-0.3 0.3-0.6 0.2-0.7s-0.3-0.4-0.7-0.5L21 66.4l-1.1 1.8C19.9 68.2 20.4 68.5 20.4 68.5zM17.3 70C17.3 70 17.2 70 17.3 70c-0.1-0.1-0.1-0.1 0-0.2l2.9-4.8c0 0 0.1-0.1 0.1-0.1l2.1 0.8c0.7 0.3 1.1 0.6 1.3 1.1 0.2 0.5 0.1 1-0.3 1.6 -0.1 0.2-0.3 0.5-0.5 0.6 -0.2 0.2-0.4 0.3-0.7 0.4 -0.3 0.1-0.6 0.2-0.9 0.2 -0.3 0-0.7-0.1-1.1-0.3l-0.9-0.3 -0.8 1.2c0 0-0.1 0.1-0.1 0.1L17.3 70 17.3 70z"/><path class="st1" d="M25.8 71.7C25.8 71.7 25.8 71.7 25.8 71.7c-0.1-0.1-0.1-0.1 0-0.2l1.3-2.1c0.1-0.2 0.2-0.4 0.1-0.4 0-0.1-0.1-0.2-0.4-0.3L26 68.4 24.4 71c0 0-0.1 0.1-0.1 0.1l-1.1-0.4c0 0-0.1 0-0.1-0.1 0 0 0-0.1 0-0.1l2.9-4.8c0 0 0.1-0.1 0.1-0.1l1.1 0.4c0 0 0.1 0 0.1 0.1 0 0 0 0.1 0 0.1l-0.7 1.2 0.8 0.3c0.6 0.2 1 0.5 1.2 0.9 0.2 0.3 0.1 0.8-0.2 1.2l-1.4 2.2c0 0-0.1 0.1-0.1 0.1L25.8 71.7 25.8 71.7z"/><path class="st1" d="M30.4 72.3c0.4 0.2 0.8 0.2 1.1 0.1 0.3-0.1 0.5-0.3 0.7-0.6 0.2-0.3 0.3-0.6 0.2-0.7 -0.1-0.2-0.3-0.4-0.7-0.5L31 70.3l-1.1 1.8L30.4 72.3zM27.2 73.8C27.2 73.8 27.2 73.8 27.2 73.8c-0.1-0.1-0.1-0.1-0.1-0.2l3-4.8c0 0 0.1-0.1 0.2 0l2.2 0.8c0.7 0.3 1.1 0.6 1.3 1.1 0.2 0.5 0.1 1-0.3 1.6 -0.1 0.2-0.3 0.5-0.5 0.6 -0.2 0.2-0.4 0.3-0.7 0.4 -0.3 0.1-0.7 0.2-1 0.2 -0.3 0-0.7-0.1-1.2-0.3L29.3 73l-0.8 1.2c0 0-0.1 0.1-0.2 0L27.2 73.8 27.2 73.8z"/></svg>