<svg xmlns="http://www.w3.org/2000/svg" viewBox="0 0 72 96"><style type="text/css">  
	.st0{fill:#4D1B9B;}
	.st1{fill:#FFFFFF;}
	.st2{fill:#4D1B9B;stroke:#4D1B9B;stroke-width:1.5;stroke-miterlimit:10;}
</style><path class="st0" d="M0 2l0 92c0 1.1 0.9 2 2 2h68c1.1 0 2-0.9 2-2V28H50c-1.1 0-2-0.9-2-2V0L2 0C0.9 0 0 0.9 0 2z"/><path class="st0" d="M71.9 24c-0.1-0.4-0.2-0.7-0.4-1L52 1.2V24H71.9z"/><rect x="6" y="41" class="st1" width="60" height="49"/><path class="st1" d="M6.6 6.4h4.5c2.6 0 4.4 2 4.4 4.9 0 2.9-1.7 5-4.4 5H9.9v4.4H6.6V6.4zM10.5 13.4c1 0 1.6-0.9 1.6-2.1s-0.7-2-1.6-2H9.9v4.1H10.5z"/><path class="st1" d="M18.4 6.4h3.3v5.5h0.6l2.3-5.5H28l-2.9 6.8v0l3 7.4h-3.7l-2.3-5.8h-0.6v5.8h-3.3V6.4z"/><path class="st1" d="M36.3 6.1c1.4 0 2.9 0.4 3.9 1.3l-1.4 2.8c-0.6-0.6-1.4-0.9-2.3-0.9 -2.2 0-3.2 1.9-3.2 4.2 0 2.6 1.2 4.3 2.9 4.3 0.6 0 1.3-0.2 1.7-0.6v-1.7h-1.5v-2.9h4.3v8.1h-2.6v-0.4c0-0.2 0-0.5 0-0.5h0c-0.5 0.7-1.6 1.2-2.7 1.2 -2.8 0-5.6-2.7-5.6-7.3C30 9.2 32.4 6.1 36.3 6.1z"/><path class="st2" d="M30.9 46.7c-0.1 0-0.2 0-0.3 0.1l-14.3 6.5c-0.5 0.2-0.6 0.9-0.3 1.3l4.4 5.2 -4.4 5.2c-0.3 0.4-0.2 1.1 0.3 1.3l4.4 2v8.6c0 0.3 0.2 0.6 0.5 0.7l14.7 6.5c0.2 0.1 0.5 0.1 0.7 0l14.7-6.5c0.3-0.1 0.5-0.4 0.5-0.7v-8.6l4.4-2c0.5-0.2 0.6-0.9 0.3-1.3l-4.4-5.2 4.4-5.2c0.3-0.4 0.2-1.1-0.3-1.3l-14.3-6.5c-0.1-0.1-0.3-0.1-0.4-0.1 -0.2 0-0.4 0.1-0.5 0.3l-4.7 5.1 -4.7-5.1C31.4 46.8 31.1 46.7 30.9 46.7L30.9 46.7zM30.8 48.5l4.1 4.4 -13.1 5.8 -3.8-4.4L30.8 48.5zM41.8 48.5l12.8 5.8 -3.8 4.4 -13.1-5.8L41.8 48.5zM36.3 54.1l12.7 5.6 -12.7 5.6 -12.7-5.6L36.3 54.1zM21.8 60.7l13.1 5.8 -4.1 4.4 -12.8-5.8L21.8 60.7zM50.7 60.7l3.8 4.4 -12.8 5.8 -4.1-4.4L50.7 60.7zM35.5 68.4v13.8l-13-5.8v-7.4l8.2 3.8c0.3 0.1 0.7 0.1 0.9-0.2L35.5 68.4zM37.1 68.4l3.9 4.2c0.2 0.3 0.6 0.3 0.9 0.2l8.2-3.8v7.4l-13 5.8V68.4z"/></svg>