<svg xmlns="http://www.w3.org/2000/svg" viewBox="0 0 72 96"><style type="text/css">  
	.st0{fill:#33CC33;}
	.st1{fill:#FFFFFF;}
</style><path class="st0" d="M0 2l0 92c0 1.1 0.9 2 2 2h68c1.1 0 2-0.9 2-2V28H50c-1.1 0-2-0.9-2-2V0L2 0C0.9 0 0 0.9 0 2z"/><path class="st0" d="M71.9 24c-0.1-0.4-0.2-0.7-0.4-1L52 1.2V24H71.9z"/><rect x="6" y="41" class="st1" width="60" height="49"/><path class="st1" d="M6.6 6.4h4.5c2.6 0 4.4 2 4.4 4.9 0 2.9-1.7 5-4.4 5H9.9v4.4H6.6V6.4zM10.5 13.4c1 0 1.6-0.9 1.6-2.1s-0.7-2-1.6-2H9.9v4.1H10.5z"/><path class="st1" d="M18.4 6.4h3.5l2.4 6.6c0.4 1 0.7 2.4 0.7 2.4H25c0 0-0.2-1.5-0.2-2.4V6.4h3.1v14.3h-3.4L22 14.1c-0.4-1-0.7-2.4-0.7-2.4h-0.1c0 0 0.2 1.5 0.2 2.4v6.6h-3.1V6.4z"/><path class="st1" d="M37.4 6.1c1.4 0 2.9 0.4 3.9 1.3l-1.4 2.8c-0.6-0.6-1.4-0.9-2.3-0.9 -2.2 0-3.2 1.9-3.2 4.2 0 2.6 1.2 4.3 2.9 4.3 0.6 0 1.3-0.2 1.7-0.6v-1.7h-1.5v-2.9h4.3v8.1h-2.6v-0.4c0-0.2 0-0.5 0-0.5h0c-0.5 0.7-1.6 1.2-2.7 1.2 -2.8 0-5.6-2.7-5.6-7.3C31.1 9.2 33.5 6.1 37.4 6.1z"/><path class="st0" d="M14 48.5v33.9h44V48.5L14 48.5 14 48.5zM55.5 51v14.8l-10.5-8L33.5 69.3l-8.1-4.5 -8.8 7V51H55.5z"/><circle class="st0" cx="23" cy="57.6" r="3.1"/></svg>