<svg xmlns="http://www.w3.org/2000/svg" viewBox="0 0 72 96"><style type="text/css">  
	.st0{fill:#A87C2D;}
	.st1{fill:#FFFFFF;}
	.st2{fill:#A87C2D;stroke:#A87C2D;stroke-width:0.75;stroke-miterlimit:10;}
</style><path class="st0" d="M0 2v92c0 1.1 0.9 2 2 2h68c1.1 0 2-0.9 2-2V28H50c-1.1 0-2-0.9-2-2V0H2C0.9 0 0 0.9 0 2z"/><path class="st0" d="M71.9 24c-0.1-0.4-0.2-0.7-0.4-1L52 1.2V24H71.9z"/><path class="st1" d="M6 41h60v49H6V41zM6.6 6.4h4.5c2.6 0 4.4 2 4.4 4.9s-1.7 5-4.4 5H9.9v4.4H6.6C6.6 20.7 6.6 6.4 6.6 6.4zM10.5 13.4c1 0 1.6-0.9 1.6-2.1s-0.7-2-1.6-2H9.9v4.1H10.5zM23.6 6.1c3.8 0 5.9 3.1 5.9 7.3s-2.1 7.5-5.9 7.5 -5.8-3.2-5.8-7.5C17.8 9.3 19.9 6.1 23.6 6.1zM23.6 17.8c1.7 0 2.5-1.8 2.5-4.3s-0.8-4.2-2.5-4.2 -2.5 1.7-2.5 4.2C21.2 16 21.9 17.8 23.6 17.8z"/><path class="st2" d="M34.9 68.2c-2.5-2.4-4.7-4.6-6-9.6h8.8V55H29v-4.9h-3.8v5h-8.8v3.7h9c0 0-0.1 0.7-0.2 1.3 -1.3 4.9-2.7 8-8.8 11l1.3 3.7c5.7-3 8.7-6.9 10-11.1 1.3 3.2 3.4 5.8 5.8 8.2L34.9 68.2zM46.5 56.2h-5l-8.8 24.7h3.8l2.5-7.4h10l2.5 7.4h3.8C55.3 80.9 46.5 56.2 46.5 56.2zM40.3 69.8l3.8-9.8 3.8 9.9L40.3 69.8z"/></svg>