<svg xmlns="http://www.w3.org/2000/svg" viewBox="0 0 72 96"><style type="text/css">  
	.st0{fill:#EF712F;}
	.st1{fill:#FFFFFF;}
	.st2{font-family:&#39;MuseoSansCond-900&#39;;}
	.st3{font-size:20px;}
</style><path class="st0" d="M0 2l0 92c0 1.1 0.9 2 2 2h68c1.1 0 2-0.9 2-2V28H50c-1.1 0-2-0.9-2-2V0L2 0C0.9 0 0 0.9 0 2z"/><path class="st0" d="M71.9 24c-0.1-0.4-0.2-0.7-0.4-1L52 1.2V24H71.9z"/><rect x="6" y="41" class="st1" width="60" height="49"/><text transform="matrix(1 0 0 1 5.5171 20.6929)" class="st1 st2 st3">  POM</text><path class="st0" d="M52.5 47.1c0 0-14.4 0.2-23.6 11.9 -0.5 0.7-1 1.3-1.5 2 -0.3 0.4-0.6 4.4-0.6 4.4s-0.4-0.3-0.6-0.8c-0.3-0.6-0.4-1.3-0.4-1.3 -5.2 8.5-3.7 12.9-3.7 12.9 -0.4 1-1.2 1.6-2.3 3.9 -1.1 2.3-1 4.5-1 4.5 0 0.4 0.1 0.5 0.3 0.1 0 0 1.2-2.3 2.1-3.8 0.6-1 2.4-3.3 2.4-3.3s3 0.1 6.6-0.8c-0.3-0.1-1.3-0.4-2-0.7 -0.7-0.3-1.1-0.8-1.1-0.8L40 72.3c1.8-1.1 3.4-2.4 4.7-4 6.8-8.1 8.5-20.5 8.5-20.5C53.3 47.4 53 47.1 52.5 47.1zM39.7 60c0 0-6 5.3-9 8.1 -3 2.8-7 9.5-7 9.5l-1.5-1.4c0 0 1.1-2.7 5.5-8.1 4.3-5.3 11.8-8.6 11.8-8.6C40.4 59.1 40.5 59.3 39.7 60z"/></svg>