<svg xmlns="http://www.w3.org/2000/svg" viewBox="0 0 72 96"><style type="text/css">  
	.st0{fill:#6190AA;}
	.st1{fill:#FFFFFF;}
	.st2{fill:#737373;}
	.st3{fill:#444444;}
	.st4{fill:#517889;}
</style><path class="st0" d="M0 2l0 92c0 1.1 0.9 2 2 2h68c1.1 0 2-0.9 2-2V28H50c-1.1 0-2-0.9-2-2V0L2 0C0.9 0 0 0.9 0 2z"/><path class="st0" d="M71.9 24c-0.1-0.4-0.2-0.7-0.4-1L52 1.2V24H71.9z"/><rect x="6" y="41" class="st1" width="60" height="49"/><path class="st1" d="M6.6 6.4h4.5c2.6 0 4.4 2 4.4 4.9 0 2.9-1.7 5-4.4 5H9.9v4.4H6.6V6.4zM10.5 13.4c1 0 1.6-0.9 1.6-2.1s-0.7-2-1.6-2H9.9v4.1H10.5z"/><path class="st1" d="M19.1 16.7c0.6 0.6 1.4 1.2 2.3 1.2 0.9 0 1.3-0.6 1.3-1.2 0-2-4.8-2.1-4.8-6.2 0-2.4 1.7-4.3 4.5-4.3 1.2 0 2.4 0.3 3.4 1l-1.2 2.9c-0.5-0.4-1.4-0.9-2.2-0.9 -0.9 0-1.3 0.6-1.3 1.2 0 2.1 4.8 2 4.8 6.1 0 2.3-1.5 4.4-4.4 4.4 -1.4 0-2.9-0.5-4-1.4L19.1 16.7z"/><path class="st1" d="M28.9 17.9h2.3v-6.2c0-0.5 0.1-1 0.1-1h0c0 0-0.1 0.3-0.4 0.7L30.3 12l-1.9-1.9 3.2-3.7h2.8v11.5h2.3v2.8h-7.9V17.9z"/><polygon class="st2" points="37.7 45.8 24.2 53.6 24.2 69.1 37.7 76.9 51.2 69.1 51.2 53.6 "/><polygon class="st2" points="24.2 53.6 37.7 61.4 51.2 53.6 37.7 45.8 "/><polygon class="st2" points="24.2 69.1 37.7 76.9 51.2 69.1 37.7 61.4 "/><path class="st1" d="M23.8 69.9l13.5 7.7c0.1 0.1 0.3 0.1 0.4 0.1s0.3-0.1 0.4-0.1l13.5-7.8c0.3-0.1 0.4-0.4 0.4-0.7V53.6c0-0.3-0.1-0.5-0.4-0.7l-13.5-7.7c-0.3-0.1-0.5-0.1-0.8 0l-13.5 7.8c-0.3 0.1-0.4 0.4-0.4 0.7v15.6C23.4 69.4 23.5 69.7 23.8 69.9zM37.7 46.7l11.9 6.9 -11.9 7 0 0 0 0 0 0 0 0 -11.9-7L37.7 46.7M39.3 61.4L50.4 55v13.7l0 0 0 0 0 0 0 0 -11.9 6.9V62.8v-0.9M25 67.7L25 67.7V55l11.1 6.4 0.8 0.5 0 0 0 0 0 0v0.9 12.8L25 68.7l0 0"/><polygon class="st1" points="27.5 67.4 20.4 71.5 20.4 79.6 27.5 83.7 34.5 79.6 34.5 71.5 "/><polygon class="st1" points="20.4 71.5 27.5 75.5 34.5 71.5 27.5 67.4 "/><polygon class="st1" points="20.4 79.6 27.5 83.7 34.5 79.6 27.5 75.5 "/><path class="st3" d="M20.2 80l7.1 4.1c0.1 0.1 0.1 0.1 0.2 0.1s0.1 0 0.2-0.1l7.1-4.1c0.1-0.1 0.2-0.2 0.2-0.3v-8.2c0-0.1-0.1-0.3-0.2-0.3l-7.1-4.1c-0.1-0.1-0.3-0.1-0.4 0l-7.1 4.1c-0.1 0.1-0.2 0.2-0.2 0.3v8.1C20 79.7 20.1 79.9 20.2 80zM27.5 67.9l6.2 3.6 -6.2 3.7 0 0 0 0 0 0 0 0 -6.2-3.7L27.5 67.9M28.3 75.5l5.8-3.3v7.2l0 0 0 0 0 0 0 0 -6.2 3.5v-6.7 -0.5M20.9 78.9L20.9 78.9v-6.7l5.8 3.3 0.4 0.3 0 0 0 0 0 0v0.5 6.7l-6.2-3.6 0 0"/><polygon class="st4" points="35.3 74.1 30.7 76.7 30.7 82 35.3 84.7 39.9 82 39.9 76.7 "/><polygon class="st4" points="30.7 76.7 35.3 79.3 39.9 76.7 35.3 74.1 "/><polygon class="st4" points="30.7 82 35.3 84.7 39.9 82 35.3 79.3 "/><path class="st1" d="M30.6 82.3l4.6 2.7c0.1 0 0.1 0.1 0.1 0.1s0.1 0 0.1-0.1l4.6-2.7c0.1-0.1 0.1-0.1 0.1-0.3v-5.3c0-0.1-0.1-0.2-0.1-0.3l-4.6-2.7c-0.1-0.1-0.2-0.1-0.3 0l-4.6 2.7c-0.1 0.1-0.1 0.1-0.1 0.3V82C30.5 82.1 30.5 82.2 30.6 82.3zM35.3 74.4l4.1 2.3 -4.1 2.3 0 0 0 0 0 0 0 0 -4.1-2.4L35.3 74.4M35.9 79.3l3.7-2.2v4.7l0 0 0 0 0 0 0 0 -4.1 2.3v-4.3 -0.3M31 81.5L31 81.5v-4.3l3.7 2.2 0.3 0.1 0 0 0 0 0 0v0.3 4.3l-4.1-2.3 0 0"/></svg>