<svg xmlns="http://www.w3.org/2000/svg" viewBox="0 0 72 96"><style type="text/css">  
	.st0{fill:#999999;}
	.st1{fill:#FFFFFF;}
	.st2{fill:none;stroke:#999999;stroke-width:4;stroke-miterlimit:10;}
	.st3{fill:#999999;stroke:#999999;stroke-width:1.5;stroke-miterlimit:10;}
</style><path class="st0" d="M0 2l0 92c0 1.1 0.9 2 2 2h68c1.1 0 2-0.9 2-2V28H50c-1.1 0-2-0.9-2-2V0L2 0C0.9 0 0 0.9 0 2z"/><path class="st0" d="M71.9 24c-0.1-0.4-0.2-0.7-0.4-1L52 1.2V24H71.9z"/><rect x="6" y="41" class="st1" width="60" height="49"/><path class="st1" d="M6.6 6.4h4.5c2.6 0 4.4 2 4.4 4.9 0 2.9-1.7 5-4.4 5H9.9v4.4H6.6V6.4zM10.5 13.4c1 0 1.6-0.9 1.6-2.1s-0.7-2-1.6-2H9.9v4.1H10.5z"/><path class="st1" d="M19.1 16.7c0.6 0.6 1.4 1.2 2.3 1.2 0.9 0 1.3-0.6 1.3-1.2 0-2-4.8-2.1-4.8-6.2 0-2.4 1.7-4.3 4.5-4.3 1.2 0 2.4 0.3 3.4 1l-1.2 2.9c-0.5-0.4-1.4-0.9-2.2-0.9 -0.9 0-1.3 0.6-1.3 1.2 0 2.1 4.8 2 4.8 6.1 0 2.3-1.5 4.4-4.4 4.4 -1.4 0-2.9-0.5-4-1.4L19.1 16.7z"/><path class="st1" d="M28.9 17.9h2.3v-6.2c0-0.5 0.1-1 0.1-1h0c0 0-0.1 0.3-0.4 0.7L30.3 12l-1.9-1.9 3.2-3.7h2.8v11.5h2.3v2.8h-7.9V17.9z"/><path class="st2" d="M39.4 51c4.5 0 9 0 13.5 0 2.7 0 3.4 0.9 2.8 3.5 -1.6 7.6-3.4 15.3-5.2 23 -0.5 2.4-1.8 3.4-4.4 3.4 -9 0-18 0-26.9 0 -2.9 0-3.7-1-3.1-3.7 1.7-7.5 3.4-15 5.2-22.5C22 51.9 23 51 25.9 51 30.4 51 34.9 51 39.4 51z"/><path class="st3" d="M34.4 65.9c-0.4-0.4-0.7-0.9-1-1.2 -1.7-1.9-3.2-3.7-4.9-5.5 -0.7-0.8-1-1.6-0.1-2.5C29.2 56 30.1 56 31 57c2.3 2.6 4.6 5.2 7 7.7 0.9 1 0.7 1.6-0.3 2.3 -3.7 2.7-7.4 5.5-11.1 8.2 -0.8 0.6-1.6 0.7-2.3-0.1 -0.7-1-0.1-1.6 0.7-2.2 2.8-2 5.5-4 8.2-6.1C33.6 66.6 34.1 66.1 34.4 65.9z"/><path class="st3" d="M37.1 75.1c-0.7 0-1.2-0.7-1.2-1.4 0-0.7 0.4-1.4 1.2-1.4 2.9 0 4.3 0 6.6 0 0.7 0 1.2 0.7 1.2 1.4 0 0.7-0.4 1.4-1.2 1.4C42.2 75.1 39.4 75.1 37.1 75.1z"/></svg>