<svg xmlns="http://www.w3.org/2000/svg" viewBox="0 0 72 96"><style type="text/css">  
	.st0{fill:#666666;}
	.st1{fill:#FFFFFF;}
	.st2{fill:#FED142;}
	.st3{fill:#3571A3;}
</style><path class="st0" d="M0 2v92c0 1.1 0.9 2 2 2h68c1.1 0 2-0.9 2-2V28H50c-1.1 0-2-0.9-2-2V0H2C0.9 0 0 0.9 0 2z"/><path class="st0" d="M71.9 24c-0.1-0.4-0.2-0.7-0.4-1L52 1.2V24H71.9z"/><path class="st1" d="M6 41h60v49H6V41zM6.6 6.4h4.5c2.6 0 4.4 2 4.4 4.9s-1.7 5-4.4 5H9.9v4.4H6.6C6.6 20.7 6.6 6.4 6.6 6.4zM10.5 13.4c1 0 1.6-0.9 1.6-2.1s-0.7-2-1.6-2H9.9v4.1H10.5zM20.5 14.8l-3.6-8.4h3.6l1.1 3.4c0.3 1 0.5 2.1 0.5 2.1h0.1c0 0 0.2-1.1 0.5-2.1l1.1-3.4h3.6l-3.6 8.4v5.9h-3.3C20.5 20.7 20.5 14.8 20.5 14.8z"/><path class="st2" d="M34.5 83.4c-4.4-0.1-7.2-1.5-7.9-3.8l-0.1-0.3v-4.5c0-5.2 0-5.3 0.3-6.1 0.5-1.5 1.7-2.5 3.5-2.9l0.4-0.1h5.1c3.7 0 5.2 0 5.4-0.1 1.1-0.2 1.7-0.4 2.3-0.9 0.8-0.6 1.4-1.6 1.6-2.6 0.2-0.8 0.2-0.7 0.2-3.5v-2.5h1.8 1.8l0.4 0.1c1.9 0.6 3.3 2.3 3.9 5.1 0.2 1.1 0.2 1.1 0.2 3.8 0 2.6 0 2.6-0.2 3.5 -0.2 0.8-0.4 1.6-0.8 2.3 -0.7 1.4-1.8 2.4-3.1 2.8 -0.8 0.3-0.1 0.2-7.5 0.3h-6.7v0.6 0.6h4.4 4.4v2.2c0 1.2 0 2.3 0 2.4 -0.1 0.3-0.1 0.6-0.4 1s-0.8 0.9-1.1 1.2c-1.2 0.8-3 1.3-5.4 1.4C36.5 83.4 35.3 83.4 34.5 83.4L34.5 83.4zM40.6 80.6c0.8-0.1 1.5-1 1.3-1.8 -0.1-0.7-0.6-1.2-1.3-1.3 -1.1-0.1-2 0.8-1.8 1.8 0.1 0.8 0.8 1.3 1.6 1.3C40.4 80.6 40.5 80.6 40.6 80.6L40.6 80.6zM21.6 74.1c-1-0.2-2-0.8-2.7-1.7 -1.3-1.6-2-4.4-1.9-7.8 0.1-2.1 0.4-3.7 1.1-5.1 0.8-1.8 2.1-2.7 3.8-3.1 0.4-0.1 0.4-0.1 6.9-0.1 3.6 0 6.6 0 6.6 0 0.1 0 0.1-0.1 0.1-0.6 0-0.4 0-0.6 0-0.6s-2 0-4.4 0h-4.4v-2.3c0-2.5 0-2.5 0.2-3 0.8-1.6 3-2.6 6.5-2.9 0.3 0 0.9-0.1 1.6-0.1 3.9-0.1 6.8 0.6 8.3 2 0.1 0.1 0.4 0.4 0.5 0.5 0.2 0.3 0.5 0.8 0.6 1.3l0.1 0.3v4.8c0 4.4 0 4.8-0.1 5.1 -0.1 0.4-0.3 1-0.4 1.3 -0.6 1.1-1.6 1.8-2.9 2.2 -0.8 0.2-0.5 0.2-6.1 0.3 -5.6 0-5.3 0-6.1 0.2 -1.6 0.4-2.7 1.6-3.1 3.3 -0.2 0.8-0.2 0.7-0.2 3.5v2.6h-1.7C22.2 74.2 21.7 74.2 21.6 74.1L21.6 74.1zM31 52.7c0.6-0.3 1.1-1.1 0.9-1.7s-0.6-1.1-1.1-1.3c-0.9-0.3-1.9 0.3-2 1.3 -0.1 0.8 0.3 1.6 1.1 1.8 0.1 0.1 0.3 0.1 0.6 0.1C30.7 52.8 30.7 52.8 31 52.7L31 52.7z"/><path class="st3" d="M21.6 74.1c-1-0.2-2-0.8-2.7-1.7 -1.3-1.6-2-4.4-1.9-7.8 0.1-2.1 0.4-3.7 1.1-5.1 0.8-1.8 2.1-2.7 3.8-3.1 0.4-0.1 0.4-0.1 6.9-0.1 3.6 0 6.6 0 6.6 0 0.1 0 0.1-0.1 0.1-0.6 0-0.4 0-0.6 0-0.6s-2 0-4.4 0h-4.4v-2.3c0-2.5 0-2.5 0.2-3 0.8-1.6 3-2.6 6.5-2.9 0.3 0 0.9-0.1 1.6-0.1 3.9-0.1 6.8 0.6 8.3 2 0.1 0.1 0.4 0.4 0.5 0.5 0.2 0.3 0.5 0.8 0.6 1.3l0.1 0.3v4.8c0 4.4 0 4.8-0.1 5.1 -0.1 0.4-0.3 1-0.4 1.3 -0.6 1.1-1.6 1.8-2.9 2.2 -0.8 0.2-0.5 0.2-6.1 0.3 -5.6 0-5.3 0-6.1 0.2 -1.6 0.4-2.7 1.6-3.1 3.3 -0.2 0.8-0.2 0.7-0.2 3.5v2.6h-1.7C22.2 74.2 21.7 74.2 21.6 74.1L21.6 74.1zM31 52.7c0.6-0.3 1.1-1.1 0.9-1.7s-0.6-1.1-1.1-1.3c-0.9-0.3-1.9 0.3-2 1.3 -0.1 0.8 0.3 1.6 1.1 1.8 0.1 0.1 0.3 0.1 0.6 0.1C30.7 52.8 30.7 52.8 31 52.7L31 52.7z"/></svg>