<svg id="Layer_1" xmlns="http://www.w3.org/2000/svg" viewBox="0 0 72 96"><style>.st0{fill:#666}.st1{fill:#fff}</style><path class="st0" d="M0 2v92c0 1.1.9 2 2 2h68c1.1 0 2-.9 2-2V28H50c-1.1 0-2-.9-2-2V0H2C.9 0 0 .9 0 2z"/><path class="st0" d="M71.9 24c-.1-.4-.2-.7-.4-1L52 1.2V24h19.9z"/><path class="st1" d="M6 41h60v49H6zm.6-34.6h4.5c2.6 0 4.4 2 4.4 4.9 0 2.9-1.7 5-4.4 5H9.9v4.4H6.6V6.4zm3.9 7c1 0 1.6-.9 1.6-2.1s-.7-2-1.6-2h-.6v4.1h.6zm10 1.4l-3.6-8.4h3.6l1.1 3.4c.3 1 .5 2.1.5 2.1h.1s.2-1.1.5-2.1l1.1-3.4h3.6l-3.6 8.4v5.9h-3.3v-5.9z"/><path class="st0" d="M37.9 46.8h-6.4c-6.4 0-6.4 4.5-6.4 4.5V54h12.7v1.8H25.1c-6.4 0-6.4 4.5-6.4 4.5v4.5c0 4.5 6.4 4.5 6.4 4.5 0-4.5 6.4-4.5 6.4-4.5h6.4c6.4 0 6.4-4.5 6.4-4.5v-9c0-4.5-6.4-4.5-6.4-4.5zm-10.2 5.8c-.7 0-1.2-.5-1.2-1.2s.5-1.2 1.2-1.2 1.2.5 1.2 1.2c0 .6-.5 1.2-1.2 1.2zm17.5 8.3c0 4.5-6.4 4.5-6.4 4.5h-6.3c-6.4 0-6.4 4.5-6.4 4.5v9c0 4.5 6.4 4.5 6.4 4.5h6.4c6.4 0 6.4-4.5 6.4-4.5V76H32.6v-1.8h12.8c6.4 0 6.4-4.5 6.4-4.5v-4.5c-.2-4.3-6.6-4.3-6.6-4.3zm-2.5 16.5c.7 0 1.2.5 1.2 1.2s-.5 1.2-1.2 1.2-1.2-.5-1.2-1.2c.1-.7.6-1.2 1.2-1.2z"/></svg>