<svg id="Layer_1" xmlns="http://www.w3.org/2000/svg" viewBox="0 0 72 96"><style>.st0{fill:#55486d}.st1{fill:#fff}.st2{fill:#55486d;stroke:#55486d;stroke-width:1.5;stroke-miterlimit:10}</style><path class="st0" d="M0 2v92c0 1.1.9 2 2 2h68c1.1 0 2-.9 2-2V28H50c-1.1 0-2-.9-2-2V0H2C.9 0 0 .9 0 2z"/><path class="st0" d="M71.9 24c-.1-.4-.2-.7-.4-1L52 1.2V24h19.9z"/><path class="st1" d="M6 41h60v49H6zm.6-34.6h4.5c.6 0 1.3.1 1.9.4 1.4.6 2.4 2.1 2.4 4 0 1.7-.8 3.3-2 4 0 0 .2.2.5.9l2.3 5h-3.6l-2-4.8h-.7v4.8H6.6V6.4zm3.9 6.6c.9 0 1.6-.7 1.6-1.9 0-.7-.2-1.2-.6-1.5-.3-.2-.6-.3-.9-.3h-.7V13h.6zm8.3-6.6h4.5c2.6 0 4.4 2 4.4 4.9 0 2.9-1.7 5-4.4 5h-1.2v4.4h-3.3V6.4zm3.9 7c1 0 1.6-.9 1.6-2.1s-.7-2-1.6-2H22v4.1h.7zm8.4-7h3.6l1.3 6c.2.9.4 2.4.4 2.4h.1s.2-1.5.4-2.4l1.3-6h3.6l.9 14.3h-3l-.4-6.4c-.1-1.1 0-2.4 0-2.4h-.1s-.2 1.5-.4 2.4l-.9 4.1h-3.2l-.9-4.1c-.2-.9-.4-2.4-.4-2.4h-.1s.1 1.3 0 2.4l-.4 6.4h-3l1.2-14.3z"/><path class="st2" d="M30.9 999.1c-.1 0-.2 0-.3.1l-14.3 6.5c-.5.2-.6.9-.3 1.3l4.4 5.2-4.4 5.2c-.3.4-.2 1.1.3 1.3l4.4 2v8.6c0 .3.2.6.5.7l14.7 6.5c.2.1.5.1.7 0l14.7-6.5c.3-.1.5-.4.5-.7v-8.6l4.4-2c.5-.2.6-.9.3-1.3l-4.4-5.2 4.4-5.2c.3-.4.2-1.1-.3-1.3l-14.3-6.5c-.1-.1-.3-.1-.4-.1-.2 0-.4.1-.5.3l-4.7 5.1-4.7-5.1c-.2-.2-.5-.3-.7-.3zm-.1 1.8l4.1 4.4-13.1 5.8-3.8-4.4 12.8-5.8zm11 0l12.8 5.8-3.8 4.4-13.1-5.8 4.1-4.4zm-5.5 5.6l12.7 5.6-12.7 5.6-12.7-5.6 12.7-5.6zm-14.5 6.6l13.1 5.8-4.1 4.4-12.8-5.8 3.8-4.4zm28.9 0l3.8 4.4-12.8 5.8-4.1-4.4 13.1-5.8zm-15.2 7.7v13.8l-13-5.8v-7.4l8.2 3.8c.3.1.7.1.9-.2l3.9-4.2zm1.6 0l3.9 4.2c.2.3.6.3.9.2l8.2-3.8v7.4l-13 5.8v-13.8z" transform="translate(0 -952.362)"/></svg>