<svg xmlns="http://www.w3.org/2000/svg" viewBox="0 0 72 96"><style type="text/css">  
	.st0{fill:#669966;}
	.st1{fill:#FFFFFF;}
</style><path class="st0" d="M0 2l0 92c0 1.1 0.9 2 2 2h68c1.1 0 2-0.9 2-2V28H50c-1.1 0-2-0.9-2-2V0L2 0C0.9 0 0 0.9 0 2z"/><path class="st0" d="M71.9 24c-0.1-0.4-0.2-0.7-0.4-1L52 1.2V24H71.9z"/><rect x="6" y="41" class="st1" width="60" height="49"/><path class="st1" d="M6.6 6.4h4.5c0.6 0 1.3 0.1 1.9 0.4 1.4 0.6 2.4 2.1 2.4 4 0 1.7-0.8 3.3-2 4v0c0 0 0.2 0.2 0.5 0.9l2.3 5h-3.6l-2-4.8H9.9v4.8H6.6V6.4zM10.5 13c0.9 0 1.6-0.7 1.6-1.9 0-0.7-0.2-1.2-0.6-1.5 -0.3-0.2-0.6-0.3-0.9-0.3H9.9V13H10.5z"/><path class="st1" d="M19.5 16.7c0.6 0.6 1.4 1.2 2.3 1.2 0.9 0 1.3-0.6 1.3-1.2 0-2-4.8-2.1-4.8-6.2 0-2.4 1.7-4.3 4.5-4.3 1.2 0 2.4 0.3 3.4 1l-1.2 2.9c-0.5-0.4-1.4-0.9-2.2-0.9 -0.9 0-1.3 0.6-1.3 1.2 0 2.1 4.8 2 4.8 6.1 0 2.3-1.5 4.4-4.4 4.4 -1.4 0-2.9-0.5-4-1.4L19.5 16.7z"/><path class="st1" d="M31.8 6.4h3.6L39 20.7h-3.3l-0.6-3h-3l-0.6 3h-3.3L31.8 6.4zM34.6 15L34 12.1c-0.2-0.9-0.4-2.5-0.4-2.5h-0.1c0 0-0.2 1.5-0.4 2.5L32.6 15H34.6z"/><path class="st0" d="M49.2 62.2h-2.6v-5c0-5.7-4.6-10.2-10.2-10.2s-10.2 4.6-10.2 10.2v5h-2.6c-1 0-1.8 0.8-1.8 1.8v17.4c0 1 0.8 1.8 1.8 1.8h25.6c1 0 1.8-0.8 1.8-1.8V63.9C51 63 50.2 62.2 49.2 62.2zM38.6 76.6c0.2 0.6-0.3 1.1-0.9 1.1h-2.7c-0.6 0-1-0.6-0.9-1.1l0.8-3.2c-1-0.5-1.7-1.5-1.7-2.8 0-1.7 1.4-3.1 3.1-3.1 1.7 0 3.1 1.4 3.1 3.1 0 1.2-0.7 2.3-1.7 2.8L38.6 76.6zM41.5 62.2H31.3v-5c0-2.8 2.3-5.1 5.1-5.1s5.1 2.3 5.1 5.1L41.5 62.2 41.5 62.2z"/></svg>