<svg xmlns="http://www.w3.org/2000/svg" viewBox="0 0 72 96"><style type="text/css">  
	.st0{fill:#CD6799;}
	.st1{fill:#FFFFFF;}
	.st2{fill:#CD6799;stroke:#CD6799;stroke-width:0.25;stroke-miterlimit:10;}
</style><path class="st0" d="M0 2l0 92c0 1.1 0.9 2 2 2h68c1.1 0 2-0.9 2-2V28H50c-1.1 0-2-0.9-2-2V0L2 0C0.9 0 0 0.9 0 2z"/><path class="st0" d="M71.9 24c-0.1-0.4-0.2-0.7-0.4-1L52 1.2V24H71.9z"/><rect x="6" y="41" class="st1" width="60" height="49"/><path class="st1" d="M7.1 16.7c0.5 0.6 1.3 1.2 2.1 1.2 0.8 0 1.2-0.6 1.2-1.2 0-2-4.3-2.1-4.3-6.2 0-2.4 1.5-4.3 4.1-4.3 1.1 0 2.2 0.3 3.1 1l-1.1 2.9c-0.4-0.4-1.3-0.9-1.9-0.9 -0.8 0-1.2 0.6-1.2 1.2 0 2.1 4.3 2 4.3 6.1 0 2.3-1.3 4.4-4 4.4 -1.3 0-2.6-0.5-3.6-1.4L7.1 16.7z"/><path class="st1" d="M17.7 6.4h3.2l3.2 14.3h-3l-0.5-3H18l-0.5 3h-3L17.7 6.4zM20.2 15l-0.5-2.8c-0.2-0.9-0.4-2.5-0.4-2.5h-0.1c0 0-0.2 1.5-0.4 2.5L18.4 15H20.2z"/><path class="st1" d="M26.6 16.7c0.5 0.6 1.3 1.2 2.1 1.2 0.8 0 1.2-0.6 1.2-1.2 0-2-4.3-2.1-4.3-6.2 0-2.4 1.5-4.3 4.1-4.3 1.1 0 2.2 0.3 3.1 1l-1.1 2.9c-0.4-0.4-1.3-0.9-1.9-0.9 -0.8 0-1.2 0.6-1.2 1.2 0 2.1 4.3 2 4.3 6.1 0 2.3-1.3 4.4-4 4.4 -1.3 0-2.6-0.5-3.6-1.4L26.6 16.7z"/><path class="st1" d="M35.8 16.7c0.5 0.6 1.3 1.2 2.1 1.2 0.8 0 1.2-0.6 1.2-1.2 0-2-4.3-2.1-4.3-6.2 0-2.4 1.5-4.3 4.1-4.3 1.1 0 2.2 0.3 3.1 1l-1.1 2.9c-0.4-0.4-1.3-0.9-1.9-0.9 -0.8 0-1.2 0.6-1.2 1.2 0 2.1 4.3 2 4.3 6.1 0 2.3-1.3 4.4-4 4.4 -1.3 0-2.6-0.5-3.6-1.4L35.8 16.7z"/><path class="st2" d="M53.6 69.6c-1.6 0-3.1 0.4-4.3 1 -0.4-0.9-0.9-1.6-1-2.2 -0.1-0.7-0.2-1-0.1-1.8 0.1-0.8 0.6-1.9 0.6-2s-0.1-0.5-1-0.5c-1 0-1.8 0.1-1.8 0.4 -0.1 0.2-0.3 0.8-0.4 1.4 -0.1 0.9-1.9 3.9-2.9 5.5 -0.3-0.7-0.6-1.2-0.7-1.6 -0.1-0.7-0.2-1-0.1-1.8 0.1-0.8 0.6-1.9 0.6-2 0-0.1-0.1-0.5-1-0.5s-1.8 0.1-1.8 0.4c-0.1 0.3-0.2 0.8-0.4 1.4 -0.2 0.6-2.5 5.6-3.1 7 -0.3 0.7-0.6 1.2-0.7 1.6l0 0c0 0 0 0 0 0.1 -0.1 0.3-0.3 0.5-0.3 0.5l0 0c-0.1 0.2-0.3 0.4-0.4 0.4s-0.1-0.6 0-1.5c0.4-1.8 1.2-4.5 1.2-4.6 0-0.1 0.1-0.5-0.5-0.8 -0.7-0.2-0.9 0.1-1 0.1 -0.1 0-0.1 0.1-0.1 0.1s0.7-3.1-1.4-3.1c-1.3 0-3.2 1.5-4.2 2.8 -0.6 0.3-1.8 1-3.2 1.7 -0.5 0.3-1 0.6-1.5 0.8 0 0-0.1-0.1-0.1-0.1 -2.6-2.8-7.5-4.8-7.3-8.6 0.1-1.4 0.5-5 9.3-9.3 7.2-3.6 13-2.6 13.9-0.4 1.4 3.2-3.1 9-10.6 9.8 -2.9 0.3-4.3-0.8-4.7-1.2 -0.4-0.4-0.4-0.4-0.6-0.4 -0.2 0.1-0.1 0.5 0 0.7 0.2 0.6 1.2 1.6 2.7 2.1 1.4 0.4 4.7 0.7 8.7-0.9 4.5-1.8 8.1-6.6 7-10.7 -1-4.1-7.9-5.5-14.4-3.2 -3.9 1.4-8.1 3.5-11.1 6.4 -3.6 3.4-4.1 6.2-3.9 7.5 0.8 4.3 6.8 7.1 9.2 9.2 -0.1 0.1-0.2 0.1-0.3 0.1 -1.2 0.6-5.7 2.9-6.9 5.5 -1.3 2.9 0.2 4.9 1.2 5.1 3.1 0.9 6.2-0.7 7.9-3.2 1.7-2.5 1.5-5.8 0.7-7.3 0 0 0 0 0-0.1 0.3-0.1 0.7-0.4 1-0.5 0.6-0.4 1.2-0.7 1.7-1 -0.3 0.8-0.5 1.8-0.6 3.2 -0.1 1.6 0.5 3.7 1.4 4.5 0.4 0.4 0.8 0.4 1.1 0.4 1 0 1.5-0.8 2-1.8 0.6-1.2 1.2-2.6 1.2-2.6s-0.7 3.8 1.2 3.8c0.7 0 1.4-0.9 1.7-1.3l0 0c0 0 0 0 0.1-0.1 0.1-0.1 0.1-0.1 0.1-0.1l0 0c0.3-0.5 0.9-1.5 1.8-3.4 1.2-2.3 2.3-5.3 2.3-5.3s0.1 0.7 0.4 1.9c0.2 0.7 0.7 1.5 1 2.2 -0.3 0.4-0.4 0.6-0.4 0.6l0 0c-0.2 0.3-0.4 0.6-0.7 1 -1 1.1-2.1 2.4-2.2 2.8 -0.1 0.4-0.1 0.7 0.2 1 0.2 0.2 0.7 0.2 1.2 0.2 0.8-0.1 1.5-0.3 1.7-0.4 0.4-0.1 1-0.4 1.5-0.8 1-0.7 1.5-1.6 1.4-2.9 0-0.7-0.3-1.4-0.5-2.1 0.1-0.1 0.1-0.2 0.2-0.4 1.5-2.1 2.6-4.5 2.6-4.5s0.1 0.7 0.4 1.9c0.1 0.6 0.5 1.2 0.8 1.9 -1.4 1.1-2.2 2.4-2.5 3.2 -0.5 1.5-0.1 2.3 0.7 2.4 0.4 0.1 0.9-0.1 1.2-0.3 0.5-0.1 1-0.4 1.6-0.8 1-0.7 1.8-1.6 1.8-2.9 0-0.6-0.1-1.2-0.4-1.7 1.2-0.5 2.6-0.7 4.5-0.5 4.1 0.5 4.9 3 4.8 4.1 -0.1 1.1-1 1.7-1.3 1.8s-0.4 0.2-0.4 0.4c0 0.2 0.1 0.1 0.4 0.1 0.4-0.1 2.1-0.9 2.2-2.9C60.2 72.3 57.8 69.6 53.6 69.6zM22.1 80.3c-1.3 1.5-3.2 2.1-4 1.5 -0.9-0.5-0.5-2.7 1.1-4.3 1-1 2.3-1.8 3.2-2.3 0.2-0.1 0.5-0.3 0.8-0.5 0.1 0 0.1-0.1 0.1-0.1l0 0c0.1-0.1 0.1-0.1 0.2-0.1C24.1 76.7 23.5 78.6 22.1 80.3zM32 73.5c-0.4 1.2-1.5 4.1-2.1 4 -0.5-0.1-0.8-2.3-0.1-4.5 0.4-1.1 1.2-2.4 1.6-2.9 0.7-0.8 1.5-1.1 1.8-0.7C33.4 69.6 32.3 72.8 32 73.5zM40.1 77.4c-0.2 0.1-0.4 0.1-0.4 0.1s0.1-0.1 0.1-0.1 1-1.1 1.4-1.6c0.2-0.3 0.5-0.7 0.8-1 0 0 0 0.1 0 0.1C41.9 76.1 40.6 77 40.1 77.4zM46.3 76c-0.1-0.1-0.1-0.4 0.4-1.5 0.2-0.4 0.7-1.1 1.4-1.8 0.1 0.3 0.1 0.5 0.1 0.8C48.2 75.1 47.1 75.7 46.3 76z"/></svg>