<svg id="Layer_1" xmlns="http://www.w3.org/2000/svg" viewBox="0 0 72 96"><style>.st0{fill:#999}.st1{fill:#fff}</style><path class="st0" d="M0 2v92c0 1.1.9 2 2 2h68c1.1 0 2-.9 2-2V28H50c-1.1 0-2-.9-2-2V0H2C.9 0 0 .9 0 2z"/><path class="st0" d="M71.9 24c-.1-.4-.2-.7-.4-1L52 1.2V24h19.9z"/><path class="st1" d="M6 41h60v49H6zm1.3-24.3c.6.6 1.4 1.2 2.3 1.2.9 0 1.3-.6 1.3-1.2 0-2-4.8-2.1-4.8-6.2 0-2.4 1.7-4.3 4.5-4.3 1.2 0 2.4.3 3.4 1l-1 2.9c-.5-.4-1.4-.9-2.2-.9-.9 0-1.3.6-1.3 1.2 0 2.1 4.8 2 4.8 6.1 0 2.3-1.5 4.4-4.4 4.4-1.4 0-2.9-.5-4-1.4l1.4-2.8zm10-10.3h3.3v5.8h3.2V6.4H27v14.3h-3.3V15h-3.2v5.7h-3.3V6.4z"/><path class="st0" d="M54.8 46.8h-38v38h38v-38zm-30.4 7.5h-3.8v-3.8h3.8v3.8zm26.6 0H28.1v-3.8H51v3.8zm0 26.6H20.5V58.2H51v22.7z"/><path class="st0" d="M26.5 61.4l-2.7 2.7 4.4 4.4-4.4 4.3 2.7 2.7 7.1-7zm6.3 12.8h7.6V78h-7.6z"/></svg>