<svg xmlns="http://www.w3.org/2000/svg" viewBox="0 0 72 96"><style type="text/css">  
	.st0{fill:#999999;}
	.st1{fill:#FFFFFF;}
	.st2{fill:#999999;stroke:#999999;stroke-width:0.75;stroke-miterlimit:10;}
</style><path class="st0" d="M0 2l0 92c0 1.1 0.9 2 2 2h68c1.1 0 2-0.9 2-2V28H50c-1.1 0-2-0.9-2-2V0L2 0C0.9 0 0 0.9 0 2z"/><path class="st0" d="M71.9 24c-0.1-0.4-0.2-0.7-0.4-1L52 1.2V24H71.9z"/><rect x="6" y="41" class="st1" width="60" height="49"/><path class="st1" d="M7.3 16.7c0.6 0.6 1.4 1.2 2.3 1.2 0.9 0 1.3-0.6 1.3-1.2 0-2-4.8-2.1-4.8-6.2 0-2.4 1.7-4.3 4.5-4.3 1.2 0 2.4 0.3 3.4 1L13 10.1c-0.5-0.4-1.4-0.9-2.2-0.9 -0.9 0-1.3 0.6-1.3 1.2 0 2.1 4.8 2 4.8 6.1 0 2.3-1.5 4.4-4.4 4.4 -1.4 0-2.9-0.5-4-1.4L7.3 16.7z"/><path class="st1" d="M17.3 6.4h3.3v5.8h3.2V6.4H27v14.3h-3.3V15h-3.2v5.7h-3.3V6.4z"/><path class="st2" d="M30.8 61.4h10.9v2.7H30.8V61.4zM30.8 66.8h10.9v2.7H30.8V66.8zM30.8 72.3h10.9v2.7H30.8V72.3zM49.8 47.9H28.1c-3 0-5.4 2.4-5.4 5.4v24.4h-5.4c0 3 2.4 5.4 5.4 5.4h21.7c3 0 5.4-2.4 5.4-5.4V56h5.4v-2.7C55.2 50.3 52.8 47.9 49.8 47.9zM47.1 77.2c0 1.8-1.4 3.2-3.2 3.2H24c1.3-0.9 1.3-2.7 1.3-2.7V53.3c0-1.5 1.2-2.7 2.7-2.7s2.7 1.2 2.7 2.7V56H47L47.1 77.2 47.1 77.2zM33.5 53.3v-2.7h16.3c2.5 0 2.7 1.6 2.7 2.7H33.5z"/></svg>