<svg xmlns="http://www.w3.org/2000/svg" viewBox="0 0 72 96"><style type="text/css">  
	.st0{fill:#FEA500;}
	.st1{fill:#FFFFFF;}
</style><path class="st0" d="M0 2l0 92c0 1.1 0.9 2 2 2h68c1.1 0 2-0.9 2-2V28H50c-1.1 0-2-0.9-2-2V0L2 0C0.9 0 0 0.9 0 2z"/><path class="st0" d="M71.9 24c-0.1-0.4-0.2-0.7-0.4-1L52 1.2V24H71.9z"/><rect x="6" y="41" class="st1" width="60" height="49"/><path class="st1" d="M7.3 16.7c0.6 0.6 1.4 1.2 2.3 1.2 0.9 0 1.3-0.6 1.3-1.2 0-2-4.8-2.1-4.8-6.2 0-2.4 1.7-4.3 4.5-4.3 1.2 0 2.4 0.3 3.4 1L13 10.1c-0.5-0.4-1.4-0.9-2.2-0.9 -0.9 0-1.3 0.6-1.3 1.2 0 2.1 4.8 2 4.8 6.1 0 2.3-1.5 4.4-4.4 4.4 -1.4 0-2.9-0.5-4-1.4L7.3 16.7z"/><path class="st1" d="M22.6 6.1c3.8 0 5.9 3.1 5.9 7.3 0 4.2-2.1 7.5-5.9 7.5s-5.8-3.2-5.8-7.5C16.7 9.3 18.8 6.1 22.6 6.1zM22.6 17.8c1.7 0 2.5-1.8 2.5-4.3 0-2.5-0.8-4.2-2.5-4.2s-2.5 1.7-2.5 4.2C20.1 16 20.9 17.8 22.6 17.8z"/><path class="st1" d="M31.6 6.4h3.3v11.4h4.3v2.9h-7.6V6.4z"/><circle class="st0" cx="36" cy="65.5" r="10.4"/><path class="st0" d="M35.3 53.9h1.5c0.5 0 0.8-0.4 0.8-0.8v-5.2c0-0.5-0.4-0.8-0.8-0.8h-1.5c-0.5 0-0.8 0.4-0.8 0.8V53C34.4 53.5 34.8 53.9 35.3 53.9z"/><path class="st0" d="M47.6 64.8v1.5c0 0.5 0.4 0.8 0.8 0.8h5.2c0.5 0 0.8-0.4 0.8-0.8v-1.5c0-0.5-0.4-0.8-0.8-0.8h-5.2C48 63.9 47.6 64.3 47.6 64.8z"/><path class="st0" d="M36.7 84c0.5 0 0.8-0.4 0.8-0.8V78c0-0.5-0.4-0.8-0.8-0.8h-1.5c-0.5 0-0.8 0.4-0.8 0.8v5.2c0 0.5 0.4 0.8 0.8 0.8H36.7z"/><path class="st0" d="M18.3 67.1h5.2c0.5 0 0.8-0.4 0.8-0.8v-1.5c0-0.5-0.4-0.8-0.8-0.8h-5.2c-0.5 0-0.8 0.4-0.8 0.8v1.5C17.5 66.7 17.9 67.1 18.3 67.1z"/><path class="st0" d="M44.7 57.8c0.3 0.3 0.9 0.3 1.2 0l3.7-3.7c0.3-0.3 0.3-0.9 0-1.2l-1-1c-0.3-0.3-0.9-0.3-1.2 0l-3.7 3.7c-0.3 0.3-0.3 0.9 0 1.2L44.7 57.8z"/><path class="st0" d="M48.6 79.1l1-1c0.3-0.3 0.3-0.9 0-1.2l-3.7-3.7c-0.3-0.3-0.9-0.3-1.2 0l-1 1c-0.3 0.3-0.3 0.9 0 1.2l3.7 3.7C47.7 79.4 48.2 79.4 48.6 79.1z"/><path class="st0" d="M24.6 79.1l3.7-3.7c0.3-0.3 0.3-0.9 0-1.2l-1-1c-0.3-0.3-0.9-0.3-1.2 0l-3.7 3.7c-0.3 0.3-0.3 0.9 0 1.2l1 1C23.8 79.4 24.3 79.4 24.6 79.1z"/><path class="st0" d="M26.1 57.8c0.3 0.3 0.9 0.3 1.2 0l1-1c0.3-0.3 0.3-0.9 0-1.2l-3.7-3.7c-0.3-0.3-0.9-0.3-1.2 0l-1 1c-0.3 0.3-0.3 0.9 0 1.2L26.1 57.8z"/></svg>