<svg id="Layer_1" xmlns="http://www.w3.org/2000/svg" viewBox="0 0 72 96"><style>.st0{fill:#d10407}.st1{fill:#fff}.st2{fill:#d10407;stroke:#d10407;stroke-width:1.25;stroke-miterlimit:10}</style><path class="st0" d="M0 2v92c0 1.1.9 2 2 2h68c1.1 0 2-.9 2-2V28H50c-1.1 0-2-.9-2-2V0H2C.9 0 0 .9 0 2z"/><path class="st0" d="M71.9 24c-.1-.4-.2-.7-.4-1L52 1.2V24h19.9z"/><path class="st1" d="M6 41h60v49H6zm1.3-24.3c.6.6 1.4 1.2 2.3 1.2.9 0 1.3-.6 1.3-1.2 0-2-4.8-2.1-4.8-6.2 0-2.4 1.7-4.3 4.5-4.3 1.2 0 2.4.3 3.4 1l-1 2.9c-.5-.4-1.4-.9-2.2-.9-.9 0-1.3.6-1.3 1.2 0 2.1 4.8 2 4.8 6.1 0 2.3-1.5 4.4-4.4 4.4-1.4 0-2.9-.5-4-1.4l1.4-2.8zm8-10.3h3.2l1.2 8.9c.1.7.1 1.6.1 1.6h.1s0-.9.1-1.6l1.3-8.9h3.1l1.3 8.9c.1.7.1 1.6.1 1.6h.1s0-.9.1-1.6l1.2-8.9h3.2l-2.5 14.3h-3.7L23 13.5c-.1-.9-.2-1.7-.2-1.7h-.1s0 .8-.1 1.7l-1.1 7.2h-3.8L15.3 6.4zm16.7 0h4.2c3.7 0 5.9 2.6 5.9 7.1s-2.2 7.2-5.9 7.2H32V6.4zm4.1 11.4c1.7 0 2.6-1.5 2.6-4.3s-1-4.2-2.6-4.2h-.8v8.5h.8z"/><path class="st2" d="M28.2 54v10.1h8.5v2.6h-8.5v13.7h-3.9v-29h13.3V54h-9.4zm14.4 26.3V51.6h3.7v28.7h-3.7z"/></svg>