<svg id="Layer_1" xmlns="http://www.w3.org/2000/svg" viewBox="0 0 72 96"><style>.st0{fill:#d10407}.st1{fill:#fff}</style><path class="st0" d="M0 2v92c0 1.1.9 2 2 2h68c1.1 0 2-.9 2-2V28H50c-1.1 0-2-.9-2-2V0H2C.9 0 0 .9 0 2z"/><path class="st0" d="M71.9 24c-.1-.4-.2-.7-.4-1L52 1.2V24h19.9z"/><path class="st1" d="M6 41h60v49H6zm1.3-24.3c.6.6 1.4 1.2 2.3 1.2.9 0 1.3-.6 1.3-1.2 0-2-4.8-2.1-4.8-6.2 0-2.4 1.7-4.3 4.5-4.3 1.2 0 2.4.3 3.4 1l-1 2.9c-.5-.4-1.4-.9-2.2-.9-.9 0-1.3.6-1.3 1.2 0 2.1 4.8 2 4.8 6.1 0 2.3-1.5 4.4-4.4 4.4-1.4 0-2.9-.5-4-1.4l1.4-2.8zm9-10.3h3.2l1.2 8.9c.1.7.1 1.6.1 1.6h.1s0-.9.1-1.6l1.3-8.9h3.1l1.3 8.9c.1.7.1 1.6.1 1.6h.1s0-.9.1-1.6l1.2-8.9h3.2l-2.5 14.3h-3.7L24 13.5c-.1-.9-.2-1.7-.2-1.7h-.1s0 .8-.1 1.7l-1.1 7.2h-3.8L16.3 6.4zm17.7 0h7.1v2.9h-3.8v3.1h3.1v2.9h-3.1v5.4H34V6.4z"/><path class="st0" d="M35.8 1000.4c-9.7 0-17.5 7.8-17.5 17.5s7.8 17.5 17.5 17.5 17.5-7.8 17.5-17.5c-.1-9.7-7.9-17.5-17.5-17.5zm3.2 4.1l-2.8 10.6h7.4l-11.1 16.1 2.8-10.6h-7.4l11.1-16.1z" transform="translate(0 -952.362)"/></svg>