<svg xmlns="http://www.w3.org/2000/svg" viewBox="0 0 72 96"><style type="text/css">  
	.st0{fill:#FF6633;}
	.st1{fill:#FFFFFF;}
	.st2{fill:#FFFFFF;stroke:#FFFFFF;stroke-width:0.25;stroke-miterlimit:10;}
	.st3{fill:#FA2A22;}
</style><path class="st0" d="M0 2l0 92c0 1.1 0.9 2 2 2h68c1.1 0 2-0.9 2-2V28H50c-1.1 0-2-0.9-2-2V0L2 0C0.9 0 0 0.9 0 2z"/><path class="st0" d="M71.9 24c-0.1-0.4-0.2-0.7-0.4-1L52 1.2V24H71.9z"/><rect x="6" y="41" class="st1" width="60" height="49"/><path class="st2" d="M6.8 17.5c0.5 0.7 1.2 1.2 2 1.2 0.9 0 1.4-0.7 1.4-1.8 0-2.6-4.1-2.5-4.1-6.6 0-2.3 1.3-4 3.5-4 0.9 0 1.8 0.3 2.6 0.9l-0.7 2.2c-0.4-0.4-1.2-0.8-1.8-0.8 -1 0-1.5 0.8-1.5 1.7 0 2.6 4.1 2.4 4.1 6.5 0 2.2-1.1 4.1-3.4 4.1 -1.1 0-2.2-0.5-3-1.4L6.8 17.5z"/><path class="st2" d="M13 6.5h2l1.3 9.8c0.1 0.7 0.1 1.6 0.1 1.6h0.1c0 0 0-0.9 0.1-1.6l1.4-9.8h1.9l1.3 9.8c0.1 0.7 0.1 1.6 0.1 1.6h0.1c0 0 0-0.9 0.1-1.6l1.3-9.8h2l-2.1 14.2h-2.3l-1.2-8.4c-0.1-0.9-0.2-1.9-0.2-1.9h-0.1c0 0 0 0.9-0.2 1.9l-1.2 8.4h-2.3L13 6.5z"/><path class="st2" d="M26 6.5h2v14.2h-2V6.5z"/><path class="st2" d="M30.1 6.5h5.4v2.2h-3.4v4.1h2.8v2.2h-2.8v5.8h-2V6.5z"/><path class="st2" d="M38.8 8.7H36V6.5h7.6v2.2h-2.8v12h-2V8.7z"/><path class="st3" d="M52.5 72.3c0 0 5.9-13.3-12.2-25.3 0 0 7.4 9.1 3.6 19.4 0 0-13.3-9.2-20-15.9 0 0 8.4 11.8 11.4 14.2 0 0-5-2.5-16.5-12.2 0 0 13.3 17 19.5 20.5 0 0-9.5 6.3-23.3-2.6 0 0 7.3 12.6 22.6 12.6 6.9 0 8.9-3.5 12.3-3.5 3.5 0 5.7 3.5 5.7 3.5C57.6 78 52.5 72.3 52.5 72.3z"/></svg>