<svg id="Layer_1" xmlns="http://www.w3.org/2000/svg" viewBox="0 0 72 96"><style>.st0{fill:#f63}.st1,.st2{fill:#fff}.st2{stroke:#fff;stroke-width:.25;stroke-miterlimit:10}.st3{fill:#fa2a22}</style><path class="st0" d="M0 2v92c0 1.1.9 2 2 2h68c1.1 0 2-.9 2-2V28H50c-1.1 0-2-.9-2-2V0H2C.9 0 0 .9 0 2z"/><path class="st0" d="M71.9 24c-.1-.4-.2-.7-.4-1L52 1.2V24h19.9z"/><path class="st1" d="M6 41h60v49H6z"/><path class="st2" d="M6.8 17.5c.5.7 1.2 1.2 2 1.2.9 0 1.4-.7 1.4-1.8 0-2.6-4.1-2.5-4.1-6.6 0-2.3 1.3-4 3.5-4 .9 0 1.8.3 2.6.9l-.7 2.2c-.4-.4-1.2-.8-1.8-.8-1 0-1.5.8-1.5 1.7 0 2.6 4.1 2.4 4.1 6.5 0 2.2-1.1 4.1-3.4 4.1-1.1 0-2.2-.5-3-1.4l.9-2zm6.2-11h2l1.3 9.8c.1.7.1 1.6.1 1.6h.1s0-.9.1-1.6L18 6.5h1.9l1.3 9.8c.1.7.1 1.6.1 1.6h.1s0-.9.1-1.6l1.3-9.8h2l-2.1 14.2h-2.3l-1.2-8.4c-.1-.9-.2-1.9-.2-1.9h-.1s0 .9-.2 1.9l-1.2 8.4h-2.3L13 6.5zm13 0h2v14.2h-2V6.5zm4.1 0h5.4v2.2h-3.4v4.1h2.8V15h-2.8v5.8h-2V6.5zm8.7 2.2H36V6.5h7.6v2.2h-2.8v12h-2v-12z"/><path class="st3" d="M55.3 49.1c-.2-.1-.7-.2-1.3-.2h-.8c-1.1.1-2 .3-3.1 1.1-.3.2-.6.6-.8.8-.1.1-.2.3-.4.1-.3-.4-.7-1.2-1.4-1.8-.5-.4-1.5-1.1-3.4-1.1h-.8c-2.3.2-6 1.2-8.6 2-2.3.7-12.2 4-12.3 4 0 0-.8.3-.7.7.1.3.7.3.9.2 1.2-.2 11.8-1.4 14.1-1.5 1.6-.1 2.4.4 2.6 1.3.1.6-.8 3.8-1.8 5.1-.6.3-4.5 2.3-6.2 3-.3.1-1.1.5-2 .9-4.5 1.9-13.3 5.7-14.3 6.2-.6.3-.7 1.2-.5 1.2.5-.2 1.1-.4 1.3-.5 1-.4 10.5-4.1 13-4.8 1.7-.4 2.9-.7 3.7-.7.1 0 .6 0 .7.4.2.6-.5 1.6-1.1 2.4-.1.1-.1.2-.2.3-.7 1.1-2.7 3.9-3.6 5-1 1.1-7.3 8.6-7.4 8.8-.1.2.6.1.6.1.2-.1.9-.2 1.3-.8.5-.7 14.5-15 15.7-16.1.5-.4 1.8-1.3 3-1.1 1.4.1 2.7 1.5 2.7 3 0 .9-.1 2.1-.4 3.8-.4 2-.6 2.8-1.1 5.1-.1.4-.2.9-.4 1.5s-.3 1.3-.5 2c-1 4-1 4.4-.8 4.6.1.1.4 0 1-.8.3-.4.9-1.1 1.6-1.9 1.2-1.5 2.9-3.7 4.5-6.1 2-2.9 5.5-10.6 5.9-12.2.1-.5.9-2.9.3-3.9-.1-.1-1-1.1-.9-1.6 0-.5.4-1.2.9-1.9.4-.6.9-1.4 1.2-2.3.6-1.4.6-2.5.7-3l.4-1.6-1.3.3z"/><path class="st3" d="M55.4 50.4s-.6 2.3-1.5 3.5C53 55.1 50 58 51.5 59s2.3.9 1.4 4.2c-.9 3.3-4.2 9.3-4.8 10.3-1.4 2.3-4.5 4.4-4.3 1.5.1-1.5.4-2.4.7-4.1.3-1.7.5-3 .5-3.9 0-1.4-1.5-3.8-1.7-4-.2-.2-.5-.6-1-.6-1.4-.1-3.5 1.9-4 2.3-.3.2-1.2 1.1-2.4 2.3-1.2 1-3 2.5-3.5 2.8-.7.5-1.3 1.4-.1-.7.1-.1.5-.8.6-.9.7-1.1 1.4-2.2 1.1-3.1-.1-.4-.6-.7-1.3-.7-.9 0-2.1.3-3.8.7-.8.2-4.1 1.3-4.1 1.2 0-.2 3.7-1.7 4.8-2.1 1-.4 1.7-.7 2.1-.9 1.8-.8 6.2-3 6.3-3h.1v-.1c1.3-1.7 2-5.1 1.9-5.6-.1-.8-.7-1.8-2.8-1.8h-.4c-.7 0-2 .1-3.5.3-2.2.1-5 .2-5.3-.1 0 0 0-.1.1-.2 2.7-.9 5.7-1.9 6.9-2.2 1.6-.5 3.5-1 5.2-1.4 2.9-.6 4.6-.5 5.5-.3 2.2.7 2.1 2.7 2.5 3.2.6.7 1.4-.5 1.9-1 .4-.4.8-.7 1.2-1 1-.7 2.7-.7 2.9-.7.7 0 1.2.2 1.2.2h.1l.5-.1-.6.9z"/></svg>