<svg xmlns="http://www.w3.org/2000/svg" viewBox="0 0 72 96"><style type="text/css">  
	.st0{fill:#4D1B9B;}
	.st1{fill:#FFFFFF;}
</style><path class="st0" d="M0 2l0 92c0 1.1 0.9 2 2 2h68c1.1 0 2-0.9 2-2V28H50c-1.1 0-2-0.9-2-2V0L2 0C0.9 0 0 0.9 0 2z"/><path class="st0" d="M71.9 24c-0.1-0.4-0.2-0.7-0.4-1L52 1.2V24H71.9z"/><rect x="6" y="41" class="st1" width="60" height="49"/><path class="st1" d="M8.9 9.3H5.7V6.4h9.6v2.9h-3.2v11.4H8.9V9.3z"/><path class="st1" d="M19.4 6.4H23l3.6 14.3h-3.3l-0.6-3h-3l-0.6 3h-3.3L19.4 6.4zM22.2 15l-0.6-2.8c-0.2-0.9-0.4-2.5-0.4-2.5h-0.1c0 0-0.2 1.5-0.4 2.5L20.2 15H22.2z"/><path class="st1" d="M29.1 6.4h4.5c0.6 0 1.3 0.1 1.9 0.4 1.4 0.6 2.4 2.1 2.4 4 0 1.7-0.8 3.3-2 4v0c0 0 0.2 0.2 0.5 0.9l2.3 5h-3.6l-2-4.8h-0.8v4.8h-3.3V6.4zM33 13c0.9 0 1.6-0.7 1.6-1.9 0-0.7-0.2-1.2-0.6-1.5 -0.3-0.2-0.6-0.3-0.9-0.3h-0.7V13H33z"/><path class="st0" d="M43.6 68.3l-7.3-3.4L51 58l7.3 3.4L51 64.9 43.6 68.3zM51 51.2l-7.3-3.4 -7.3 3.4L51 58.1l7.3-3.4L51 51.2zM28.9 61.4L21.6 58l-7.3 3.4 14.7 6.9 7.3-3.4L28.9 61.4zM28.9 54.6l7.3-3.4 -7.3-3.4 -14.7 6.9 7.3 3.4L28.9 54.6zM51 66.9l-6.6 3 -0.8 0.4 -0.8-0.4 -6.6-3 -6.6 3 -0.8 0.4 -0.8-0.4 -6.6-3v10.7l14.7 7.7L51 77.6V66.9z"/></svg>