<svg id="Layer_1" xmlns="http://www.w3.org/2000/svg" viewBox="0 0 72 96"><style>.st0{fill:#999}.st1{fill:#fff}</style><path class="st0" d="M0 2v92c0 1.1.9 2 2 2h68c1.1 0 2-.9 2-2V28H50c-1.1 0-2-.9-2-2V0H2C.9 0 0 .9 0 2z"/><path class="st0" d="M71.9 24c-.1-.4-.2-.7-.4-1L52 1.2V24h19.9z"/><path class="st1" d="M6 41h60v49H6zM8.5 9.3H5.7V6.4h8.6v2.9h-2.8v11.4h-3V9.3zm11.8-3.2c1.1 0 2.4.4 3.2 1.2l-1.2 2.8c-.4-.5-1.2-.9-1.9-.9-1.9 0-2.9 1.9-2.9 4.2 0 2.3 1 4.4 2.9 4.4.9 0 1.5-.5 2.1-1l1.2 2.8c-.8.7-1.8 1.3-3.5 1.3-3.6 0-5.7-3.1-5.7-7.4 0-4.2 2.2-7.4 5.8-7.4zm5.3 10.6c.5.6 1.3 1.2 2.1 1.2s1.2-.6 1.2-1.2c0-2-4.3-2.1-4.3-6.2 0-2.4 1.5-4.3 4.1-4.3 1.1 0 2.2.3 3.1 1l-1.1 2.9c-.4-.4-1.3-.9-1.9-.9-.8 0-1.2.6-1.2 1.2 0 2.1 4.3 2 4.3 6.1 0 2.3-1.3 4.4-4 4.4-1.3 0-2.6-.5-3.6-1.4l1.3-2.8zm7.8-10.3h3v5.8h2.9V6.4h2.9v14.3h-2.9V15h-2.9v5.7h-3V6.4z"/><path class="st0" d="M54.8 46.8h-38v38h38v-38zm-30.4 7.5h-3.8v-3.8h3.8v3.8zm26.6 0H28.1v-3.8H51v3.8zm0 26.6H20.5V58.2H51v22.7z"/><path class="st0" d="M26.5 61.4l-2.7 2.7 4.4 4.4-4.4 4.3 2.7 2.7 7.1-7zm6.3 12.8h7.6V78h-7.6z"/></svg>