<svg id="Layer_1" xmlns="http://www.w3.org/2000/svg" viewBox="0 0 72 96"><style>.st0{fill:#ccc}.st1{fill:#333}.st2{fill:#999}</style><path class="st0" d="M0 2v92c0 1.1.9 2 2 2h68c1.1 0 2-.9 2-2V28H50c-1.1 0-2-.9-2-2V0H2C.9 0 0 .9 0 2z"/><path class="st0" d="M71.9 24c-.1-.4-.2-.7-.4-1L52 1.2V24h19.9z"/><path class="st1" d="M21.5 73.3h-3.1v-2.9H28v2.9h-3.2v11.4h-3.3V73.3zm9.3-2.9H38v2.9h-4V76h3.1v2.9H34v2.9h4.1v2.9h-7.4V70.4zm12.8 7.2l-3.4-7.2h3.6l1.1 2.9.6 1.8s.2-.9.6-1.8l1.2-2.9h3.6l-3.4 7.2 3.3 7.1h-3.5l-1.1-3c-.4-.9-.6-1.7-.6-1.7s-.2.8-.6 1.7l-1.1 3h-3.5l3.2-7.1z"/><path class="st2" d="M0 94V2C0 .9.9 0 2 0h48c.6 0 1.1.2 1.5.7l20 22.3c.3.4.5.8.5 1.3V94c0 1.1-.9 2-2 2H2c-1.1 0-2-.9-2-2zm68-68.9L49.1 4H4v88h64V25.1z"/><path class="st2" d="M48 26V4c0-1.1.9-2 2-2s2 .9 2 2v20h16c1.1 0 2 .9 2 2s-.9 2-2 2H50c-1.1 0-2-.9-2-2zm-33 3.9h37v4.3H15zm7 9.6h37v4.3H22zm-7 9.6h37v4.3H15zm7 9.6h37V63H22z"/></svg>