<svg id="Layer_1" xmlns="http://www.w3.org/2000/svg" viewBox="0 0 72 96"><style>.st0{fill:#8ed200}.st1{fill:#fff}</style><path class="st0" d="M0 2v92c0 1.1.9 2 2 2h68c1.1 0 2-.9 2-2V28H50c-1.1 0-2-.9-2-2V0H2C.9 0 0 .9 0 2z"/><path class="st0" d="M71.9 24c-.1-.4-.2-.7-.4-1L52 1.2V24h19.9z"/><path class="st1" d="M6 41h60v49H6zM9 8.7H5.7V6.5h8.8v2.2h-3.3v12H9v-12zm7-2.2h2.3v14.2H16V6.5zm4.8 0H27v2.2h-3.9v4.1h3.3V15h-3.3v5.8h-2.3V6.5zm7.8 0h6.2v2.2h-3.9v4.1h3.3V15h-3.3v5.8h-2.3V6.5z"/><path class="st0" d="M14 48.5v33.9h44V48.5H14zM55.5 51v14.8l-10.5-8-11.5 11.5-8.1-4.5-8.8 7V51h38.9z"/><circle class="st0" cx="23" cy="57.6" r="3.1"/></svg>