<svg xmlns="http://www.w3.org/2000/svg" viewBox="0 0 72 96"><style type="text/css">  
	.st0{fill:#7FAF4A;}
	.st1{fill:#FFFFFF;}
</style><path class="st0" d="M0 2l0 92c0 1.1 0.9 2 2 2h68c1.1 0 2-0.9 2-2V28H50c-1.1 0-2-0.9-2-2V0L2 0C0.9 0 0 0.9 0 2z"/><path class="st0" d="M71.9 24c-0.1-0.4-0.2-0.7-0.4-1L52 1.2V24H71.9z"/><rect x="6" y="41" class="st1" width="60" height="49"/><path class="st1" d="M8.8 8.7H5.7V6.5h8.4v2.2h-3.1v12H8.8V8.7z"/><path class="st1" d="M14.6 6.5h2.2l1.4 9.8c0.1 0.7 0.1 1.6 0.1 1.6h0.1c0 0 0-0.9 0.1-1.6l1.6-9.8h2.1l1.5 9.8c0.1 0.7 0.1 1.6 0.1 1.6H24c0 0 0-0.9 0.1-1.6l1.4-9.8h2.2l-2.3 14.2h-2.6l-1.3-8.4c-0.1-0.9-0.2-1.9-0.2-1.9h-0.1c0 0-0.1 0.9-0.2 1.9l-1.4 8.4H17L14.6 6.5z"/><path class="st1" d="M29 6.5h2.2v14.2H29V6.5z"/><path class="st1" d="M38.6 6.2c1.2 0 2.5 0.4 3.4 1.2l-0.9 2.1c-0.6-0.6-1.5-1-2.4-1 -2.2 0-3.4 2.1-3.4 5 0 3.1 1.4 5 3.2 5 0.8 0 1.6-0.3 2.1-1v-2.2h-1.5v-2.2h3.4v7.5h-1.7v-0.5c0-0.2 0-0.5 0-0.5h0c-0.5 0.8-1.6 1.3-2.7 1.3 -2.6 0-5.1-2.7-5.1-7.3C33.1 9.2 35.3 6.2 38.6 6.2z"/><path class="st0" d="M52.4 83.1c-2.4-20.9 2.8-15.3 2.8-15.3 -5.7-6.8-8.6 0.3-10 6.9 -0.7-10.6-4-28.2-17.2-27.9 7.1 0 7.5 14.4 6.8 24.8 -6.2-11-20.1-10.2-20.1-10.2s10.4-0.4 10.4 21.6H52.4z"/></svg>