<svg id="Layer_1" xmlns="http://www.w3.org/2000/svg" viewBox="0 0 72 96"><style>.st0{fill:#999}</style><path class="st0" d="M0 2v92c0 1.1.9 2 2 2h68c1.1 0 2-.9 2-2V28H50c-1.1 0-2-.9-2-2V0H2C.9 0 0 .9 0 2z"/><path class="st0" d="M71.9 24c-.1-.4-.2-.7-.4-1L52 1.2V24h19.9z"/><path d="M6 41h60v49H6zM5.4 6.4H9l1.6 8.1c.2.9.3 2.3.3 2.3h.1s.2-1.4.3-2.3L13 6.4h3.5l-3.9 14.3H9.3L5.4 6.4zm13.5 0h4.2c2.5 0 4.2 1.3 4.2 3.7 0 1.2-.5 2.4-1.7 3 1.6.5 2.1 1.9 2.1 3.2 0 3.1-2 4.3-4.4 4.3h-4.4V6.4zm4.2 5.6c.6 0 .9-.6.9-1.4s-.3-1.3-1-1.3h-.8V12h.9zm.2 5.8c.8 0 1.2-.7 1.2-1.6 0-.9-.3-1.5-1.1-1.5h-1.2v3.1h1.1zm8.3-1.1c.6.6 1.4 1.2 2.3 1.2.9 0 1.3-.6 1.3-1.2 0-2-4.8-2.1-4.8-6.2 0-2.4 1.7-4.3 4.5-4.3 1.2 0 2.4.3 3.4 1l-1.2 2.9c-.5-.4-1.4-.9-2.2-.9-.9 0-1.3.6-1.3 1.2 0 2.1 4.8 2 4.8 6.1 0 2.3-1.5 4.4-4.4 4.4-1.4 0-2.9-.5-4-1.4l1.6-2.8z" fill="#fff"/><path class="st0" d="M17.9 52.2v1.2l-1.4.6v-1.2l1.4-.6zm0 11.8v1.2l-1.4.6v-1.2l1.4-.6zm0 12v1.2l-1.4.6v-1.2l1.4-.6zm-.1-19.8v1.1l-1.1.5v-1.1l1.1-.5zm0 3.9v1.1l-1.1.5v-1.1l1.1-.5zm0 8.1v1.1l-1.1.5v-1.1l1.1-.5zm0 4v1.1l-1.1.5v-1.1l1.1-.5zm3.7-19.3v1.4l-1.9.7v-1.4l1.9-.7zm0 12v1.4l-1.9.7v-1.4l1.9-.7zm0 12v1.4l-1.9.8v-1.4l1.9-.8zM21.4 57v1.3l-1.6.6v-1.3l1.6-.6zm0 4v1.3l-1.6.6v-1.3l1.6-.6zm0 8v1.3l-1.6.6v-1.3l1.6-.6zm0 4v1.3l-1.6.6v-1.3l1.6-.6zm3.8-19.2v1.7l-2.5 1v-1.7l2.5-1zm0 12v1.7l-2.5 1v-1.7l2.5-1zm0 11.9v1.7l-2.5 1v-1.7l2.5-1zM25 57.9v1.5l-2.1.8v-1.5l2.1-.8zm0 4v1.5l-2.1.8v-1.5l2.1-.8zm0 8v1.5l-2.1.8v-1.5l2.1-.8zm0 3.9v1.5l-2.1.8v-1.5l2.1-.8zm4.1-20.1v2.2L26 57.1v-2.2l3.1-1.2zm0 12v2.2L26 69.1v-2.2l3.1-1.2zm0 11.9v2.2L26 81v-2.2l3.1-1.2zm-.2-19.8v2l-2.6 1.1v-2l2.6-1.1zm0 4v2l-2.6 1.1v-2l2.6-1.1zm0 8v2l-2.6 1v-2.1l2.6-.9zm0 3.9v2l-2.6 1v-2l2.6-1zm4.3-20.4v2.9l-3.4 1.4v-2.9l3.4-1.4zm0 12v2.9l-3.4 1.4v-2.9l3.4-1.4zm0 11.9v2.9l-3.4 1.4v-2.9l3.4-1.4zM33 57.7v2.4l-2.9 1.2v-2.5l2.9-1.1zm0 3.8V64l-2.9 1.2v-2.4l2.9-1.3zm0 8.2v2.5l-2.9 1.1v-2.4l2.9-1.2zm0 3.8V76l-2.9 1.2v-2.5l2.9-1.2zm4.4-21.7v4l-3.7 1.5v-3.7c1.3-.7 2.5-1.3 3.7-1.8zm0 4.4v3.5l-3.7 1.6v-3.5l3.7-1.6zm0 3.9v3.5l-3.7 1.6v-3.5l3.7-1.6zm0 4v3.5l-3.7 1.6v-3.5l3.7-1.6zm0 3.9v3.6l-3.7 1.6v-3.6l3.7-1.6zm0 3.9v3.5L33.7 77v-3.5l3.7-1.6zm0 4v3.7c-1.5.6-2.7 1.1-3.7 1.6v-3.7l3.7-1.6zM56.5 52v28c-2.4-1.6-5.3-2.3-8.9-2.3-2.9 0-6.2.6-9.8 1.8v-3.8c1.9-.7 4-1.3 6.4-1.6V65c-2 .2-4.1.9-6.4 2v-2.6c2-.9 4.1-1.5 6.4-1.9v-8.9c-2 .4-4.2 1.1-6.4 2.1v-3.9c3.2-1.4 6.4-2.1 9.5-2.1 3.3-.1 6.4.7 9.2 2.3zm-3.8 2.4c-1.5-.8-3.3-1.2-5.4-1.2h-.7v9h.8c1.8 0 3.6.3 5.4.9v-8.7zm0 11.4c-1.6-.7-3.4-1.1-5.4-1.1h-.8v9.1h.8c2 0 3.8.2 5.4.7v-8.7zm2.5 15.3v-.6H55v-.1h.6v.1h-.2v.6h-.2zm.4 0v-.7h.2l.3.6.3-.6h.2v.7h-.1v-.6l-.3.6H56l-.3-.6v.6h-.1z"/></svg>