<svg id="Layer_1" xmlns="http://www.w3.org/2000/svg" viewBox="0 0 72 96"><style>.st0{fill:#c11e07}.st1{fill:#fff}.st2{fill:#111}</style><path class="st0" d="M0 2v92c0 1.1.9 2 2 2h68c1.1 0 2-.9 2-2V28H50c-1.1 0-2-.9-2-2V0H2C.9 0 0 .9 0 2z"/><path class="st0" d="M71.9 24c-.1-.4-.2-.7-.4-1L52 1.2V24h19.9z"/><path class="st1" d="M6 41h60v49H6zM5.4 6.4H9l1.6 8.1c.2.9.3 2.3.3 2.3h.1s.2-1.4.3-2.3L13 6.4h3.5l-3.9 14.3H9.3L5.4 6.4zm19.1-.3c1.3 0 2.6.4 3.6 1.2l-1.4 2.8c-.4-.5-1.3-.9-2.1-.9-2.1 0-3.2 1.9-3.2 4.2 0 2.3 1.2 4.4 3.2 4.4 1 0 1.7-.5 2.3-1l1.4 2.8c-.9.7-2 1.3-3.9 1.3-4 0-6.3-3.1-6.3-7.4 0-4.2 2.4-7.4 6.4-7.4zm7.3 10.6c.6.6 1.4 1.2 2.3 1.2.9 0 1.3-.6 1.3-1.2 0-2-4.8-2.1-4.8-6.2 0-2.4 1.7-4.3 4.5-4.3 1.2 0 2.4.3 3.4 1l-1.2 2.9c-.5-.4-1.4-.9-2.2-.9-.9 0-1.3.6-1.3 1.2 0 2.1 4.8 2 4.8 6.1 0 2.3-1.5 4.4-4.4 4.4-1.4 0-2.9-.5-4-1.4l1.6-2.8z"/><g id="Layer_1_1_"><path class="st2" d="M52.4 81.3H19.6c-3.4 0-6.1-2.8-6.1-6.1V54.7c0-3.4 2.8-6.1 6.1-6.1h32.7c3.4 0 6.1 2.8 6.1 6.1v20.5c.1 3.3-2.7 6.1-6 6.1zM19.6 52.6c-1.1 0-2 .9-2 2v20.5c0 1.1.9 2 2 2h32.7c1.1 0 2-.9 2-2V54.7c0-1.1-.9-2-2-2H19.6z"/><path class="st2" d="M31.9 71h-8.2c-1.1 0-2-.9-2-2s.9-2 2-2h8.2c1.1 0 2 .9 2 2s-.9 2-2 2zm0-8.1h-8.2c-1.1 0-2-.9-2-2s.9-2 2-2h8.2c1.1 0 2 .9 2 2 .1 1-.9 2-2 2z"/><circle class="st2" cx="44.2" cy="61.8" r="4.1"/><path class="st2" d="M44.2 67.7c-3.2 0-5.1 1.5-5.1 2.9 0 .7 1.9 1.5 5.1 1.5 3 0 5.1-.7 5.1-1.5 0-1.5-2-2.9-5.1-2.9z"/></g></svg>