<svg xmlns="http://www.w3.org/2000/svg" viewBox="0 0 72 96"><style type="text/css">  
	.st0{fill:#CCCCCC;}
	.st1{fill:#333333;}
	.st2{fill:#999999;}
</style><path class="st0" d="M0 2l0 92c0 1.1 0.9 2 2 2h68c1.1 0 2-0.9 2-2V28H50c-1.1 0-2-0.9-2-2V0L2 0C0.9 0 0 0.9 0 2z"/><path class="st0" d="M71.9 24c-0.1-0.4-0.2-0.7-0.4-1L52 1.2V24H71.9z"/><path class="st1" d="M8.8 66.8h2.4v2.9H8.8V66.8z"/><path class="st1" d="M11.2 56.8h2.9l1.3 7.3c0.1 0.8 0.3 2.1 0.3 2.1h0.1c0 0 0.1-1.3 0.3-2.1l1.4-7.3h2.8L17 69.7h-2.7L11.2 56.8z"/><path class="st1" d="M21.6 66.1c0.5 0.6 1.1 1.1 1.9 1.1 0.7 0 1.1-0.5 1.1-1.1 0-1.8-3.9-1.9-3.9-5.6 0-2.2 1.4-3.9 3.7-3.9 1 0 2 0.3 2.8 0.9l-1 2.6c-0.4-0.4-1.2-0.8-1.8-0.8 -0.8 0-1.1 0.5-1.1 1.1 0 1.9 3.9 1.8 3.9 5.5 0 2.1-1.2 3.9-3.6 3.9 -1.1 0-2.3-0.4-3.2-1.3L21.6 66.1z"/><path class="st1" d="M33.3 56.6c1 0 2.1 0.3 2.9 1.1l-1.1 2.5c-0.3-0.4-1.1-0.8-1.7-0.8 -1.7 0-2.6 1.7-2.6 3.7 0 2.1 0.9 4 2.6 4 0.8 0 1.4-0.4 1.9-0.9l1.1 2.5c-0.7 0.6-1.6 1.2-3.2 1.2 -3.2 0-5.1-2.8-5.1-6.6C28.1 59.4 30.1 56.6 33.3 56.6z"/><path class="st1" d="M41.5 56.6c3 0 4.7 2.8 4.7 6.6 0 3.8-1.7 6.7-4.7 6.7 -3 0-4.7-2.9-4.7-6.7C36.8 59.4 38.5 56.6 41.5 56.6zM41.5 67.1c1.4 0 2-1.6 2-3.9 0-2.3-0.6-3.8-2-3.8 -1.4 0-2 1.5-2 3.7C39.5 65.5 40.1 67.1 41.5 67.1z"/><path class="st1" d="M47.7 56.8h3.4c3 0 4.8 2.4 4.8 6.4 0 4.1-1.8 6.5-4.8 6.5h-3.4V56.8zM51.1 67.1c1.4 0 2.1-1.3 2.1-3.9 0-2.5-0.8-3.8-2.1-3.8h-0.7v7.7H51.1z"/><path class="st1" d="M57.4 56.8h5.8v2.6h-3.2v2.5h2.5v2.6h-2.5v2.6h3.3v2.6h-6V56.8z"/><path class="st1" d="M11.4 72.8H14v12.9h-2.7V72.8z"/><path class="st1" d="M20.6 72.6c1.1 0 2.3 0.4 3.2 1.1l-1.1 2.5c-0.5-0.5-1.1-0.8-1.9-0.8 -1.8 0-2.6 1.7-2.6 3.8 0 2.3 1 3.9 2.3 3.9 0.5 0 1-0.2 1.4-0.6V81h-1.2v-2.6h3.5v7.3h-2.1v-0.4c0-0.2 0-0.5 0-0.5h0c-0.4 0.7-1.3 1.1-2.2 1.1 -2.3 0-4.5-2.4-4.5-6.6C15.5 75.3 17.5 72.6 20.6 72.6z"/><path class="st1" d="M25.9 72.8h2.8l2 5.9c0.3 0.9 0.6 2.1 0.6 2.1h0.1c0 0-0.1-1.4-0.1-2.2v-5.9h2.5v12.9h-2.8l-2-5.9c-0.3-0.9-0.6-2.2-0.6-2.2h-0.1c0 0 0.1 1.4 0.1 2.2v5.9h-2.5V72.8z"/><path class="st1" d="M39.9 72.6c3 0 4.7 2.8 4.7 6.6 0 3.8-1.7 6.7-4.7 6.7 -3 0-4.7-2.9-4.7-6.7C35.2 75.4 36.8 72.6 39.9 72.6zM39.9 83.1c1.4 0 2-1.6 2-3.9 0-2.3-0.6-3.8-2-3.8 -1.4 0-2 1.5-2 3.7C37.9 81.5 38.5 83.1 39.9 83.1z"/><path class="st1" d="M46.1 72.8h3.7c0.5 0 1 0.1 1.5 0.4 1.2 0.6 1.9 1.9 1.9 3.6 0 1.6-0.7 2.9-1.6 3.6v0c0 0 0.2 0.2 0.4 0.8l1.9 4.5H51l-1.6-4.4h-0.6v4.4h-2.7V72.8zM49.3 78.8c0.7 0 1.3-0.6 1.3-1.7 0-0.6-0.2-1.1-0.5-1.4 -0.2-0.2-0.5-0.3-0.7-0.3h-0.6v3.3H49.3z"/><path class="st1" d="M55 72.8h5.8v2.6h-3.2v2.5h2.5v2.6h-2.5v2.6h3.3v2.6h-6V72.8z"/><path class="st2" d="M0 94L0 2c0-1.1 0.9-2 2-2l48 0c0.6 0 1.1 0.2 1.5 0.7l20 22.3c0.3 0.4 0.5 0.8 0.5 1.3V94c0 1.1-0.9 2-2 2H2C0.9 96 0 95.1 0 94zM68 25.1L49.1 4H4v88h64V25.1z"/><path class="st2" d="M48 26V4c0-1.1 0.9-2 2-2s2 0.9 2 2v20h16c1.1 0 2 0.9 2 2s-0.9 2-2 2H50C48.9 28 48 27.1 48 26z"/></svg>