<svg xmlns="http://www.w3.org/2000/svg" viewBox="0 0 72 96"><style type="text/css">  
	.st0{fill:#666666;}
	.st1{fill:#FFFFFF;}
	.st2{fill:#265DB4;stroke:#265DB4;stroke-width:0.5;stroke-miterlimit:10;}
	.st3{fill:#CC0000;stroke:#CC0000;stroke-width:0.5;stroke-miterlimit:10;}
</style><path class="st0" d="M0 2l0 92c0 1.1 0.9 2 2 2h68c1.1 0 2-0.9 2-2V28H50c-1.1 0-2-0.9-2-2V0L2 0C0.9 0 0 0.9 0 2z"/><path class="st0" d="M71.9 24c-0.1-0.4-0.2-0.7-0.4-1L52 1.2V24H71.9z"/><rect x="6" y="41" class="st1" width="60" height="49"/><path class="st1" d="M5.6 6.4h3.2l1.2 8.9c0.1 0.7 0.1 1.6 0.1 1.6h0.1c0 0 0-0.9 0.1-1.6l1.3-8.9h3.1l1.3 8.9c0.1 0.7 0.1 1.6 0.1 1.6h0.1c0 0 0-0.9 0.1-1.6l1.2-8.9h3.2l-2.5 14.3h-3.7l-1.1-7.2c-0.1-0.9-0.2-1.7-0.2-1.7h-0.1c0 0 0 0.8-0.1 1.7l-1.1 7.2H8.1L5.6 6.4z"/><path class="st1" d="M24.3 6.4h3.6l3.6 14.3h-3.3l-0.6-3h-3l-0.6 3h-3.3L24.3 6.4zM27.1 15l-0.6-2.8c-0.2-0.9-0.4-2.5-0.4-2.5h-0.1c0 0-0.2 1.5-0.4 2.5L25.1 15H27.1z"/><path class="st1" d="M33 6.4h4.5c0.6 0 1.3 0.1 1.9 0.4 1.4 0.6 2.4 2.1 2.4 4 0 1.7-0.8 3.3-2 4v0c0 0 0.2 0.2 0.5 0.9l2.3 5H39l-2-4.8h-0.8v4.8H33V6.4zM36.9 13c0.9 0 1.6-0.7 1.6-1.9 0-0.7-0.2-1.2-0.6-1.5 -0.3-0.2-0.6-0.3-0.9-0.3h-0.7V13H36.9z"/><path class="st2" d="M44.2 75.3c7.2-3.7 3.9-7.3 1.5-6.8 -0.6 0.1-0.8 0.2-0.8 0.2s0.2-0.3 0.6-0.5c4.6-1.6 8.1 4.8-1.5 7.3C44 75.5 44.1 75.4 44.2 75.3"/><path class="st3" d="M37.8 64.8c1.8 2.1-0.5 4-0.5 4s4.7-2.4 2.5-5.5c-2-2.8-3.6-4.2 4.8-9.1C44.6 54.3 31.5 57.6 37.8 64.8"/><path class="st3" d="M39.8 46.5c0 0 4 4-3.8 10.1 -6.2 4.9-1.4 7.7 0 10.9 -3.6-3.3-6.3-6.2-4.5-8.8C34.2 54.7 41.4 52.8 39.8 46.5"/><path class="st2" d="M31 76.8c0 0-1.5 0.9 1 1.1 3 0.3 4.6 0.3 7.9-0.3 0 0 0.9 0.6 2.1 1C34.6 81.9 25.1 78.5 31 76.8"/><path class="st2" d="M30.1 72.6c0 0-1.6 1.2 0.9 1.5 3.2 0.3 5.8 0.4 10.2-0.5 0 0 0.6 0.6 1.6 1C33.7 77.2 23.6 74.8 30.1 72.6"/><path class="st2" d="M47.7 79.9c0 0 1.1 0.9-1.2 1.6 -4.3 1.3-18 1.7-21.8 0.1 -1.4-0.6 1.2-1.4 2-1.6 0.8-0.2 1.3-0.1 1.3-0.1 -1.5-1.1-9.8 2.1-4.2 3C39.1 85.3 51.7 81.7 47.7 79.9"/><path class="st2" d="M31.7 68.3c0 0-7 1.7-2.5 2.3 1.9 0.3 5.7 0.2 9.2-0.1 2.9-0.2 5.8-0.8 5.8-0.8s-1 0.4-1.8 0.9c-7.1 1.9-20.7 1-16.8-0.9C29 68.1 31.7 68.3 31.7 68.3"/><path class="st2" d="M32.4 85.4c6.9 0.4 17.5-0.2 17.7-3.5 0 0-0.5 1.2-5.7 2.2 -5.9 1.1-13.1 1-17.5 0.3C27 84.4 27.9 85.1 32.4 85.4"/></svg>