<svg id="Layer_1" xmlns="http://www.w3.org/2000/svg" viewBox="0 0 72 96"><style>.st0{fill:#8ed200}.st1{fill:#fff}</style><path class="st0" d="M0 2v92c0 1.1.9 2 2 2h68c1.1 0 2-.9 2-2V28H50c-1.1 0-2-.9-2-2V0H2C.9 0 0 .9 0 2z"/><path class="st0" d="M71.9 24c-.1-.4-.2-.7-.4-1L52 1.2V24h19.9z"/><path class="st1" d="M6 41h60v49H6zM5.6 6.4h2.7l1 8.9c.1.7.1 1.6.1 1.6h.1s0-.9.1-1.6l1.1-8.9h2.6l1.1 8.9c.1.7.1 1.6.1 1.6h.1s0-.9.1-1.6l1-8.9h2.7l-2.1 14.3H13l-.9-7.2c-.1-.9-.1-1.7-.1-1.7h-.1s0 .8-.1 1.7l-.9 7.2H7.7L5.6 6.4zm13.8 0h6v2.9h-3.3V12h2.6v2.9h-2.6v2.9h3.4v2.9h-6.2V6.4zm7.7 0h3.5c2.1 0 3.5 1.3 3.5 3.7 0 1.2-.4 2.4-1.4 3 1.4.5 1.8 1.9 1.8 3.2 0 3.1-1.6 4.3-3.7 4.3h-3.7V6.4zm3.5 5.6c.5 0 .7-.6.7-1.4s-.3-1.3-.8-1.3h-.7V12h.8zm.2 5.8c.7 0 1-.7 1-1.6 0-.9-.3-1.5-.9-1.5h-1v3.1h.9zM36 6.4h3.8c2.2 0 3.7 2 3.7 4.9 0 2.9-1.5 5-3.7 5h-1v4.4H36V6.4zm3.3 7c.9 0 1.4-.9 1.4-2.1s-.6-2-1.3-2h-.6v4.1h.5z"/><path class="st0" d="M14 48.5v33.9h44V48.5H14zM55.5 51v14.8l-10.5-8-11.5 11.5-8.1-4.5-8.8 7V51h38.9z"/><circle class="st0" cx="23" cy="57.6" r="3.1"/></svg>