<svg xmlns="http://www.w3.org/2000/svg" viewBox="0 0 72 96"><style type="text/css">  
	.st0{fill:#33CC33;}
	.st1{fill:#FFFFFF;}
</style><path class="st0" d="M0 2l0 92c0 1.1 0.9 2 2 2h68c1.1 0 2-0.9 2-2V28H50c-1.1 0-2-0.9-2-2V0L2 0C0.9 0 0 0.9 0 2z"/><path class="st0" d="M71.9 24c-0.1-0.4-0.2-0.7-0.4-1L52 1.2V24H71.9z"/><rect x="6" y="41" class="st1" width="60" height="49"/><path class="st1" d="M5.8 6.5h2.2l1.4 9.8c0.1 0.7 0.1 1.6 0.1 1.6h0.1c0 0 0-0.9 0.1-1.6l1.5-9.8h2.1l1.5 9.8c0.1 0.7 0.1 1.6 0.1 1.6H15c0 0 0-0.9 0.1-1.6l1.4-9.8h2.1l-2.3 14.2h-2.5l-1.3-8.4c-0.1-0.9-0.2-1.9-0.2-1.9h-0.1c0 0-0.1 0.9-0.2 1.9l-1.4 8.4H8.1L5.8 6.5z"/><path class="st1" d="M20 6.5h6.1v2.2h-3.9v3.8h3.1v2.2h-3.1v3.9h4.1v2.2H20V6.5z"/><path class="st1" d="M28 6.5h3.5c2 0 3.5 1.3 3.5 3.7 0 1.3-0.6 2.5-1.5 3v0c1.3 0.5 1.9 1.8 1.9 3.4 0 2.8-1.6 4.1-3.9 4.1H28V6.5zM31.5 12.3c0.7 0 1.2-0.8 1.2-1.9s-0.5-1.8-1.4-1.8h-1.2v3.7H31.5zM31.5 18.5c1.2 0 1.6-0.9 1.6-2.1 0-1.3-0.5-2.1-1.4-2.1h-1.5v4.2H31.5z"/><path class="st1" d="M37.1 6.5h3.6c2.2 0 3.8 1.9 3.8 4.6s-1.5 4.7-3.8 4.7h-1.4v4.9h-2.2V6.5zM40.3 13.6c1.2 0 1.9-1 1.9-2.5 0-1.5-0.8-2.5-1.9-2.5h-1.1v5H40.3z"/><path class="st0" d="M14 48.5v33.9h44V48.5L14 48.5 14 48.5zM55.5 51v14.8l-10.5-8L33.5 69.3l-8.1-4.5 -8.8 7V51H55.5z"/><circle class="st0" cx="23" cy="57.6" r="3.1"/></svg>