<svg xmlns="http://www.w3.org/2000/svg" viewBox="0 0 72 96"><style type="text/css">  
	.st0{fill:#999999;}
	.st1{fill:#FFFFFF;}
	.st2{fill:#999999;stroke:#999999;stroke-width:1.5;stroke-miterlimit:10;}
</style><path class="st0" d="M0 2l0 92c0 1.1 0.9 2 2 2h68c1.1 0 2-0.9 2-2V28H50c-1.1 0-2-0.9-2-2V0L2 0C0.9 0 0 0.9 0 2z"/><path class="st0" d="M71.9 24c-0.1-0.4-0.2-0.7-0.4-1L52 1.2V24H71.9z"/><rect x="6" y="41" class="st1" width="60" height="49"/><path class="st1" d="M8.8 13.5l-3-7h2.5L9.5 10c0.3 0.8 0.5 1.7 0.5 1.7h0c0 0 0.2-0.9 0.5-1.7L12 6.5h2.4l-3 7 3.1 7.2h-2.4l-1.4-3.8c-0.3-0.8-0.5-1.6-0.5-1.6h0c0 0-0.2 0.8-0.5 1.6l-1.4 3.8H5.7L8.8 13.5z"/><path class="st1" d="M18.1 6.5h2.4l3.4 14.2h-2.2L20.9 17h-3.2l-0.8 3.7h-2.2L18.1 6.5zM20.6 15l-0.8-3.8C19.6 10.4 19.4 9 19.4 9h-0.1c0 0-0.2 1.4-0.4 2.2L18.1 15H20.6z"/><path class="st1" d="M25.6 6.5h2.4l1.7 6.9c0.2 0.9 0.4 2.2 0.4 2.2h0.1c0 0 0.2-1.3 0.4-2.2l1.7-6.9h2.4l0.8 14.2h-2.1l-0.4-7.9c-0.1-0.9 0-2.2 0-2.2h-0.1c0 0-0.2 1.4-0.4 2.3l-1.4 5.4h-2.2l-1.4-5.4c-0.2-0.8-0.4-2.3-0.4-2.3h-0.1c0 0 0.1 1.3 0 2.2l-0.4 7.9h-2.1L25.6 6.5z"/><path class="st1" d="M37.6 6.5h2.2v12H44v2.2h-6.4V6.5z"/><path class="st2" d="M23.7 76c-0.5 0-1.1-0.2-1.5-0.6L13.9 67c-0.8-0.8-0.8-2.1 0-3l8.4-8.4c0.8-0.8 2.1-0.8 3 0 0.8 0.8 0.8 2.1 0 3l-6.9 6.9 6.9 6.9c0.8 0.8 0.8 2.1 0 3C24.8 75.8 24.2 76 23.7 76z"/><path class="st2" d="M48.8 76c-0.5 0-1.1-0.2-1.5-0.6 -0.8-0.8-0.8-2.1 0-3l6.9-6.9 -6.9-6.9c-0.8-0.8-0.8-2.1 0-3 0.8-0.8 2.1-0.8 3 0l8.4 8.4c0.8 0.8 0.8 2.1 0 3l-8.4 8.4C49.9 75.8 49.3 76 48.8 76z"/><path class="st2" d="M32.1 80.1c-0.2 0-0.4 0-0.7-0.1 -1.1-0.4-1.7-1.5-1.3-2.6l8.4-25.1c0.4-1.1 1.5-1.7 2.6-1.3 1.1 0.4 1.7 1.5 1.3 2.6l-8.4 25.1C33.8 79.6 32.9 80.1 32.1 80.1z"/></svg>