<svg id="Layer_1" xmlns="http://www.w3.org/2000/svg" viewBox="0 0 72 96"><style>.st0{fill:#999}.st1{fill:#fff}.st2{fill:#999;stroke:#999;stroke-width:1.5;stroke-miterlimit:10}</style><path class="st0" d="M0 2v92c0 1.1.9 2 2 2h68c1.1 0 2-.9 2-2V28H50c-1.1 0-2-.9-2-2V0H2C.9 0 0 .9 0 2z"/><path class="st0" d="M71.9 24c-.1-.4-.2-.7-.4-1L52 1.2V24h19.9z"/><path class="st1" d="M6 41h60v49H6zm2.3-27.4L5.5 6.4h3l.9 2.9c.3.9.5 1.8.5 1.8s.2-.9.5-1.8l1-2.9h3l-2.8 7.2 2.7 7.1h-2.9l-.9-3c-.4-.9-.6-1.7-.6-1.7s-.2.8-.5 1.7l-.9 3H5.6l2.7-7.1zm9.3-7.2h2.9l3 14.3h-2.7l-.5-3h-2.5l-.5 3h-2.7l3-14.3zm2.3 8.6l-.5-2.8c-.2-.9-.3-2.5-.3-2.5H19s-.2 1.5-.3 2.5l-.5 2.8h1.7zm5.2-8.6h3l1.1 6c.2.9.3 2.4.3 2.4s.2-1.5.3-2.4l1.1-6h3l.8 14.3h-2.5l-.2-6.4c-.1-1.1 0-2.4 0-2.4h-.1s-.2 1.5-.4 2.4l-.7 4.1h-2.6l-.7-4.1c-.2-.9-.4-2.4-.4-2.4H27s.1 1.3 0 2.4l-.3 6.4h-2.5l.9-14.3zm11.5 0h2.7v11.4h3.5v2.9h-6.2V6.4z"/><path class="st2" d="M23 75c-.5 0-1.1-.2-1.5-.6L13.1 66c-.8-.8-.8-2.1 0-3l8.4-8.4c.8-.8 2.1-.8 3 0 .8.8.8 2.1 0 3l-6.9 6.9 6.9 6.9c.8.8.8 2.1 0 3-.5.4-1 .6-1.5.6zm25 0c-.5 0-1.1-.2-1.5-.6-.8-.8-.8-2.1 0-3l6.9-6.9-6.9-6.9c-.8-.8-.8-2.1 0-3 .8-.8 2.1-.8 3 0l8.4 8.4c.8.8.8 2.1 0 3l-8.4 8.4c-.4.4-.9.6-1.5.6zm-16.7 4.1c-.2 0-.4 0-.7-.1-1.1-.4-1.7-1.5-1.3-2.6l8.4-25.1c.4-1.1 1.5-1.7 2.6-1.3 1.1.4 1.7 1.5 1.3 2.6l-8.4 25.1c-.2.9-1 1.4-1.9 1.4z"/></svg>