<svg xmlns="http://www.w3.org/2000/svg" viewBox="0 0 72 96"><style type="text/css">  
	.st0{fill:#33CC33;}
	.st1{fill:#FFFFFF;}
</style><path class="st0" d="M0 2v92c0 1.1 0.9 2 2 2h68c1.1 0 2-0.9 2-2V28H50c-1.1 0-2-0.9-2-2V0H2C0.9 0 0 0.9 0 2z"/><path class="st0" d="M71.9 24c-0.1-0.4-0.2-0.7-0.4-1L52 1.2V24H71.9z"/><path class="st1" d="M6 41h60v49H6V41zM9 13.6L5.5 6.4h3.6l1.1 2.9 0.6 1.8c0 0 0.2-0.9 0.6-1.8l1.2-2.9h3.6l-3.4 7.2 3.3 7.1h-3.5l-1.1-3c-0.4-0.9-0.6-1.7-0.6-1.7s-0.2 0.8-0.6 1.7l-1.1 3H5.7L9 13.6zM24.4 6.1c1.3 0 2.6 0.4 3.6 1.2l-1.4 2.8c-0.4-0.5-1.3-0.9-2.1-0.9 -2.1 0-3.2 1.9-3.2 4.2s1.2 4.4 3.2 4.4c1 0 1.7-0.5 2.3-1l1.4 2.8c-0.9 0.7-2 1.3-3.9 1.3 -4 0-6.3-3.1-6.3-7.4C18 9.3 20.4 6.1 24.4 6.1zM30.9 6.4H38v2.9h-3.8v3.1h3.1v2.9h-3.1v5.4h-3.3C30.9 20.7 30.9 6.4 30.9 6.4z"/><path class="st0" d="M47.6 71.7c0.4 0.2 0.9 0.4 1.3 0.7 1.3 0.8 2.5 1.6 3.7 2.4 0.2 0.1 0.4 0.2 0.6 0.1 1.4-0.3 2.9 0.5 3.3 1.9 0.3 0.9 0.4 1.8 0.5 2.8 0.1 1.1 0.1 2.3 0.2 3.5 -2-0.5-3.9-1.1-5.3-2.6 -0.4-0.4-0.5-1-0.8-1.5 -0.1-0.1-0.2-0.3-0.3-0.3 -2.6-0.6-5.1-1.5-7.5-2.7 -0.1-0.1-0.4-0.1-0.5 0 -2.4 1.2-5 1.7-7.7 1.5 -3.6-0.2-6.9-1.4-10.1-2.9 -0.5-0.3-1.1-0.6-1.6-0.9 2.5-1.2 3.6-3.2 3.6-5.9 -0.6-0.1-1.2-0.1-1.7-0.2 -0.1 0.5-0.1 1.1-0.2 1.7 -0.6 2.2-2.7 3.4-5 2.8 -3-0.8-5.7-4.3-5.4-7.7 0.2-2.5 2.4-4.1 4.8-3.5 0.4 0.1 0.8 0.2 1.2 0.4 0.4 0.2 0.7 0.4 1.1 0.6 0.3-0.5 0.5-1.1 0.8-1.6 0.1-0.1 0-0.3 0-0.4v-8h0.1c0.1 0.1 0.2 0.2 0.3 0.4 0.9 1.3 1.7 2.6 2.8 3.7 1.3 1.2 2.6 2.2 4.3 2.6 0.5 0.1 0.9 0.1 1.4-0.2 1.9-1.2 3.8-1.3 5.8-0.3 0.1 0.1 0.3 0.1 0.5 0.1 2.8-0.7 5.4-1.9 7.5-4 0.9-0.9 1.6-2 2.1-3.3 0.2-0.6 0.5-1.1 0.8-1.7 0.3-0.5 0.7-0.8 1.2-0.7 0.6 0.1 0.9 0.5 1 1 0.2 1 0.4 2 0.5 3 0.1 1.8 0.1 3.6 0.1 5.4 -0.1 3.7-0.5 7.4-1.8 10.9C48.6 69.5 48.1 70.6 47.6 71.7zM42.6 71.5c0.4-0.6 0.4-1.2 0.1-1.8 -0.5-0.9-1.3-1.6-2.3-2h-0.1l0.3 0.6c0.1 0.2 0.2 0.4 0.2 0.7 0.2 0.8 0.1 1.2-0.7 1.5 -0.5 0.2-1 0.3-1.4 0.4 -2.4 0.4-4.9 0.4-7.3 0.3h-0.7c0 0.1 0.1 0.1 0.1 0.1 2.4 0.8 4.8 1.4 7.3 1.6C39 73 40 73 40.9 72.7c0.3-0.1 0.5 0 0.7 0.1 2.7 1.8 5.6 3.1 8.8 3.9 0.6 0.2 0.6 0.2 0.9-0.4 0.1-0.1 0.1-0.2 0.2-0.3C48.8 74 45.8 72.6 42.6 71.5zM34.1 62.1c-0.1 1.2 0.1 1.7 0.8 1.9 0.6 0.2 1.3 0 1.5-0.5 0.2-0.3 0.2-0.7 0.2-1.1 -0.1-0.3-0.4-0.6-0.6-0.9 1.2 0.1 1.9 0.8 2.3 1.9 0.3-1-0.2-3-1.7-4 -1.6-1-3.8-0.8-5.1 0.6 -1.3 1.4-1.4 3.5-0.4 5.1 1 1.5 3 2 3.9 1.6 -1.1-0.4-1.8-1.2-1.9-2.4C33.1 63.4 33.4 62.7 34.1 62.1zM26.8 65.9c-1.8-1-2.2-2.9-0.9-3.8 -0.2 0.8 0 1.3 0.6 1.6 0.4 0.2 1.1 0.1 1.3-0.4 0.2-0.3 0.3-0.7 0.2-1 -0.1-0.3-0.4-0.5-0.6-0.9 0.5 0.2 0.9 0.3 1.3 0.5 0.3-0.9 0.3-0.9 0-1.3 -0.9-0.8-1.9-1.1-3-0.8 -1.2 0.3-1.9 1.1-2.2 2.3 -0.1 0.5-0.2 1 0.1 1.5l0.9 1.5c0.1 0.1 0.1 0.3 0.3 0.3C25.3 65.8 26 65.9 26.8 65.9zM16.3 64.7c0 0.5 0.2 1.1 0.6 1.6 0.6 0.7 1.6 0.7 2.3 0 1-1 0.9-2.7-0.2-3.6 -0.3-0.3-0.7-0.4-1.1-0.3C16.9 62.5 16.2 63.4 16.3 64.7z"/></svg>