<svg xmlns="http://www.w3.org/2000/svg" viewBox="0 0 72 96"><style type="text/css">  
	.st0{fill:#666666;}
	.st1{fill:#FFFFFF;}
	.st2{fill:#666666;stroke:#666666;stroke-width:1.5;stroke-miterlimit:10;}
</style><path class="st0" d="M0 2v92c0 1.1 0.9 2 2 2h68c1.1 0 2-0.9 2-2V28H50c-1.1 0-2-0.9-2-2V0H2C0.9 0 0 0.9 0 2z"/><path class="st0" d="M71.9 24c-0.1-0.4-0.2-0.7-0.4-1L52 1.2V24H71.9z"/><path class="st1" d="M6 41h60v49H6V41zM9 13.6L5.5 6.4h3.6l1.1 2.9 0.6 1.8c0 0 0.2-0.9 0.6-1.8l1.2-2.9h3.6l-3.4 7.2 3.3 7.1h-3.5l-1.1-3c-0.4-0.9-0.6-1.7-0.6-1.7s-0.2 0.8-0.6 1.7l-1.1 3H5.7L9 13.6zM19.3 6.4H23l1.3 6c0.2 0.9 0.4 2.4 0.4 2.4h0.1c0 0 0.2-1.5 0.4-2.4l1.3-6h3.6L31 20.7h-3l-0.4-6.4c-0.1-1.1 0-2.4 0-2.4h-0.1c0 0-0.2 1.5-0.4 2.4l-0.9 4.1H23l-0.9-4.1c-0.2-0.9-0.4-2.4-0.4-2.4h-0.1c0 0 0.1 1.3 0 2.4l-0.4 6.4h-3L19.3 6.4zM34.4 6.4h3.3v11.4H42v2.9h-7.6C34.4 20.7 34.4 6.4 34.4 6.4z"/><path class="st2" d="M23.5 76c-0.5 0-1.1-0.2-1.5-0.6L13.6 67c-0.8-0.8-0.8-2.1 0-3l8.4-8.4c0.8-0.8 2.1-0.8 3 0 0.8 0.8 0.8 2.1 0 3l-6.9 6.9 6.9 6.9c0.8 0.8 0.8 2.1 0 3C24.5 75.8 24 76 23.5 76zM48.5 76c-0.5 0-1.1-0.2-1.5-0.6 -0.8-0.8-0.8-2.1 0-3l6.9-6.9L47 58.6c-0.8-0.8-0.8-2.1 0-3 0.8-0.8 2.1-0.8 3 0l8.4 8.4c0.8 0.8 0.8 2.1 0 3L50 75.4C49.6 75.8 49.1 76 48.5 76zM31.8 80.1c-0.2 0-0.4 0-0.7-0.1 -1.1-0.4-1.7-1.5-1.3-2.6l8.4-25.1c0.4-1.1 1.5-1.7 2.6-1.3s1.7 1.5 1.3 2.6l-8.4 25.1C33.5 79.6 32.7 80.1 31.8 80.1z"/></svg>