<svg id="Layer_1" xmlns="http://www.w3.org/2000/svg" viewBox="0 0 72 96"><style>.st0{fill:#999}.st1{fill:#fff}.st2{fill:#999;stroke:#999;stroke-width:.5;stroke-miterlimit:10}</style><path class="st0" d="M0 2v92c0 1.1.9 2 2 2h68c1.1 0 2-.9 2-2V28H50c-1.1 0-2-.9-2-2V0H2C.9 0 0 .9 0 2z"/><path class="st0" d="M71.9 24c-.1-.4-.2-.7-.4-1L52 1.2V24h19.9z"/><path class="st1" d="M6 41h60v49H6zm3-27.4L5.5 6.4h3.6l1.1 2.9.6 1.8s.2-.9.6-1.8l1.2-2.9h3.6l-3.4 7.2 3.3 7.1h-3.5l-1.1-3c-.4-.9-.6-1.7-.6-1.7s-.2.8-.6 1.7l-1.1 3H5.7L9 13.6zm9.8-7.2h4.5c2.6 0 4.4 2 4.4 4.9 0 2.9-1.7 5-4.4 5h-1.2v4.4h-3.3V6.4zm3.9 7c1 0 1.6-.9 1.6-2.1s-.7-2-1.6-2H22v4.1h.7zm7.9-7h3.3v14.3h-3.3V6.4z"/><path class="st2" d="M16.8 62.4c0 .1 0 .2 0 0zm0 0zm37.6-1.5c-.2 1.3-.4 2-.5 2 0 0-.1-7-2.4-9.3.4 4.1 0 2.4 0 2.4-3.1-5.4-9-9.1-15.7-9.1-5.6 0-10.6 2.5-13.9 6.5l-.1-.1c-.5-.5-.8-2.8-.8-2.8s-1 1.3-1.3 2.7c-.2 1.1 0 0 0 0-.3 1.1-.4 2.5-.4 4.1 0 0-1.7 1.9-2 3.9-.1.4-.1.6-.1.8v.2c0 .1 0 .3.1.4l1-.8v.3c-.3.9-.6 1.9-.7 2.9-.3 3.1.3 6.1 1.9 9.1 0 0 .7 1.2 1.1 1.7.1.1.1.2.2.2 3.4 4.6 8.9 7.7 15 7.7 5.5 0 10.3-2.4 13.8-6.1h.1c.2-.3.4-.6.6-.8.6-.7 1.1-1.4 1.6-2.2 1.5-2.4 2.4-4.9 2.9-7.4 0-2.3.1-4.5-.4-6.3zm-32.6-7.3c0-.1 0-.1 0 0 0-.1 0-.1 0 0 0-.1 0-.1 0 0 0-.1 0-.1 0 0 0-.1 0 0 0 0zm27.4 6.5c-.4-.6-.9-1-1.5-1.2.8 3.1.9 5.7.2 7.7-.4-1.4-.9-2.2-1.2-2.5.5 4.2-.2 7.3-2.1 9.3.4-1.2.5-2.2.4-3-2.2 3.3-4.7 5-7.6 5.1-1.1 0-2.2-.2-3.2-.5h-.3c-.1 0-.2-.1-.2-.1-.1 0-.2-.1-.2-.1-.1 0-.2-.1-.2-.1-.1 0-.1-.1-.2-.1s-.2-.1-.2-.1c-.1 0-.1-.1-.2-.1s-.1-.1-.2-.1-.1-.1-.2-.1-.1-.1-.2-.1-.1-.1-.2-.1-.1-.1-.2-.1-.1-.1-.2-.1-.1-.1-.2-.1-.1-.1-.2-.1-.1-.1-.2-.2c-.1 0-.1-.1-.2-.2-.1 0-.1-.1-.2-.2l-.1-.1h2.9c.1 0 .1 0 .2-.1.1 0 .1 0 .2-.1.1 0 .1 0 .2-.1.1 0 .1 0 .2-.1.1 0 .1-.1.2-.1s.1-.1.2-.1.1 0 .2-.1h.1l.1-.1.2-.1.2-.1.2-.1.2-.1.2-.1.2-.1.2-.1.2-.1.2-.1.2-.1.2-.1.2-.1.1-.1c.3-.1.6-.1.9 0 .6-.1.8-.4.6-.9-.3-.4-.7-.7-1.3-1.1-1.2-.6-2.5-.5-3.8.3-1.2.7-2.5.7-3.6-.1-.8-.5-1.5-1.2-2.2-2.1v-1.3c0-.1 0-.2.1-.3.1-.2.1-.3.2-.4.1-.2.3-.3.5-.3.1 0 .2 0 .2-.1h-2 .8c.2 0 .5 0 1 .1.8.1 1.7.3 2.7.5.2-1-.1-2-.7-3-.1-.1-.1-.2-.2-.3l.1.1c0 .1.1.1.1.2v.1s.1 0 .1-.1l.1-.1.1-.1.1-.1.1-.1.1-.1.1-.1.1-.1.1-.1.1-.1.1-.1.1-.1.1-.1.1-.1.1-.1.1-.1.1-.1.1-.1s.1 0 .1-.1c0 0 .1 0 .1-.1l.1-.1s.1 0 .1-.1l.1-.1.1-.1c0-.1.1-.1.1-.2.1-.1.1-.2.1-.3.2-.3.1-.5-.2-.7-.7 0-2-.1-2-.1-1.6-.7-2.5-2.1-2.5-2.1l-.1-.1c-.3-2.4 2.9-4 2.9-4s-3.8 1.1-5 2.5h-.2.1c-2.3-.6-4.2.3-4.2.3-.3-.2-.6-.4-.9-.8 3.2-4 8.2-6.5 13.7-6.5 4.3 0 8.2 1.5 11.2 4l-1.5-.6c-1.6-.5-3.4-.7-5.5-.8.9.2 1.7.4 2.4.7h.1c.9.4 1.5 1 1.8 1.6-.9-.2-1.8-.1-2.5.2 6 1.9 8.5 4.3 8.2 7.2zm-32.3 1.6c0 .2-.1.4-.1.6 0-.2.1-.6.1-.6zm-.1.6c0 .1 0 .1 0 0 0 .1 0 .1 0 0 0 .1 0 .1 0 0z"/></svg>