<svg xmlns="http://www.w3.org/2000/svg" viewBox="0 0 72 96"><style type="text/css">  
	.st0{fill:#999999;}
	.st1{fill:#FFFFFF;}
</style><path class="st0" d="M0 2v92c0 1.1 0.9 2 2 2h68c1.1 0 2-0.9 2-2V28H50c-1.1 0-2-0.9-2-2V0H2C0.9 0 0 0.9 0 2z"/><path class="st0" d="M71.9 24c-0.1-0.4-0.2-0.7-0.4-1L52 1.2V24H71.9z"/><path class="st1" d="M6 41h60v49H6V41zM9 13.6L5.5 6.4h3.6l1.1 2.9 0.6 1.8c0 0 0.2-0.9 0.6-1.8l1.2-2.9h3.6l-3.4 7.2 3.3 7.1h-3.5l-1.1-3c-0.4-0.9-0.6-1.7-0.6-1.7s-0.2 0.8-0.6 1.7l-1.1 3H5.7L9 13.6zM18.8 6.4h4.5c2.6 0 4.4 2 4.4 4.9s-1.7 5-4.4 5h-1.2v4.4h-3.3C18.8 20.7 18.8 6.4 18.8 6.4zM22.7 13.4c1 0 1.6-0.9 1.6-2.1s-0.7-2-1.6-2H22v4.1C22 13.4 22.7 13.4 22.7 13.4zM30.6 6.4h3.3v14.3h-3.3C30.6 20.7 30.6 6.4 30.6 6.4z"/><path class="st0" d="M44.1 47.3c3.6 2.5 5.7 9 5.7 13.9 0 1.3-0.2 2.5-0.5 3.6 -0.3-2.9-1.7-5.4-3.9-7 1.2 1.6 1.9 3.6 1.9 5.8 0 5.4-4.4 9.8-9.8 9.8 -2.2 0-3.3-0.4-4.9-1.6 3.3 0 5.4-3.3 8.2-3.3 0 0-0.4-1.6-2.5-1.6s-1.1 1.6-4.9 1.6 -5.7-2.3-5.7-4.1c0-1.8 2.7-3.1 3.3-2.5 0.6-0.6 0-1.6 0-1.6l4.9-3.3c0 0-0.8 0-1.6 0 -7.3 0-3.1-5.1-1.6-6.5 -2.6 0-4.2 2.4-4.9 3.3 -0.4-0.2-3.3-0.2-4.1 0 -0.4 0.1-0.9-0.6-1.3-1.4 -0.6-1.1-1.1-2.6-1.1-3.5 -2.1 2.1-1.7 5.2-0.9 6.4 0 0-0.1 0.1-0.1 0.1 -1.5 2.7-2.3 5.7-2.3 9 0 10.4 8.4 18.8 18.8 18.8s18.8-7.6 18.8-18c0-0.2 0-1.5 0-1.6C55.5 53.9 49.3 48.9 44.1 47.3z"/></svg>