<svg xmlns="http://www.w3.org/2000/svg" viewBox="0 0 72 96"><style type="text/css">  
	.st0{fill:#55486D;}
	.st1{fill:#FFFFFF;}
</style><path class="st0" d="M0 2l0 92c0 1.1 0.9 2 2 2h68c1.1 0 2-0.9 2-2V28H50c-1.1 0-2-0.9-2-2V0L2 0C0.9 0 0 0.9 0 2z"/><path class="st0" d="M71.9 24c-0.1-0.4-0.2-0.7-0.4-1L52 1.2V24H71.9z"/><rect x="6" y="41" class="st1" width="60" height="49"/><path class="st1" d="M9 13.6L5.5 6.4h3.6l1.1 2.9c0.3 0.9 0.6 1.8 0.6 1.8h0c0 0 0.2-0.9 0.6-1.8l1.2-2.9h3.6l-3.4 7.2 3.3 7.1h-3.5l-1.1-3c-0.4-0.9-0.6-1.7-0.6-1.7h0c0 0-0.2 0.8-0.6 1.7l-1.1 3H5.7L9 13.6z"/><path class="st1" d="M18.8 6.4h4.5c0.6 0 1.3 0.1 1.9 0.4 1.4 0.6 2.4 2.1 2.4 4 0 1.7-0.8 3.3-2 4v0c0 0 0.2 0.2 0.5 0.9l2.3 5h-3.6l-2-4.8h-0.8v4.8h-3.3V6.4zM22.7 13c0.9 0 1.6-0.7 1.6-1.9 0-0.7-0.2-1.2-0.6-1.5 -0.3-0.2-0.6-0.3-0.9-0.3h-0.7V13H22.7z"/><path class="st1" d="M31 6.4h4.2c2.5 0 4.2 1.3 4.2 3.7 0 1.2-0.5 2.4-1.7 3v0c1.6 0.5 2.1 1.9 2.1 3.2 0 3.1-2 4.3-4.4 4.3H31V6.4zM35.2 12c0.6 0 0.9-0.6 0.9-1.4s-0.3-1.3-1-1.3h-0.8V12H35.2zM35.4 17.8c0.8 0 1.2-0.7 1.2-1.6 0-0.9-0.3-1.5-1.1-1.5h-1.2v3.1H35.4z"/><path class="st0" d="M43.6 68.3l-7.3-3.4L51 58l7.3 3.4L51 64.9 43.6 68.3zM51 51.2l-7.3-3.4 -7.3 3.4L51 58.1l7.3-3.4L51 51.2zM28.9 61.4L21.6 58l-7.3 3.4 14.7 6.9 7.3-3.4L28.9 61.4zM28.9 54.6l7.3-3.4 -7.3-3.4 -14.7 6.9 7.3 3.4L28.9 54.6zM51 66.9l-6.6 3 -0.8 0.4 -0.8-0.4 -6.6-3 -6.6 3 -0.8 0.4 -0.8-0.4 -6.6-3v10.7l14.7 7.7L51 77.6V66.9z"/></svg>