<svg id="Layer_1" xmlns="http://www.w3.org/2000/svg" viewBox="0 0 72 96"><style>.st0{fill:#55486d}.st1{fill:#fff}.st2{fill:#55486d;stroke:#55486d;stroke-width:1.5;stroke-miterlimit:10}</style><path class="st0" d="M0 2v92c0 1.1.9 2 2 2h68c1.1 0 2-.9 2-2V28H50c-1.1 0-2-.9-2-2V0H2C.9 0 0 .9 0 2z"/><path class="st0" d="M71.9 24c-.1-.4-.2-.7-.4-1L52 1.2V24h19.9z"/><path class="st1" d="M6 41h60v49H6zm3-27.4L5.5 6.4h3.6l1.1 2.9.6 1.8s.2-.9.6-1.8l1.2-2.9h3.6l-3.4 7.2 3.3 7.1h-3.5l-1.1-3c-.4-.9-.6-1.7-.6-1.7s-.2.8-.6 1.7l-1.1 3H5.7L9 13.6zm9.8-7.2h4.5c.6 0 1.3.1 1.9.4 1.4.6 2.4 2.1 2.4 4 0 1.7-.8 3.3-2 4 0 0 .2.2.5.9l2.3 5h-3.6l-2-4.8H22v4.8h-3.3V6.4zm3.9 6.6c.9 0 1.6-.7 1.6-1.9 0-.7-.2-1.2-.6-1.5-.3-.2-.6-.3-.9-.3h-.7V13h.6zM31 6.4h4.2c2.5 0 4.2 1.3 4.2 3.7 0 1.2-.5 2.4-1.7 3 1.6.5 2.1 1.9 2.1 3.2 0 3.1-2 4.3-4.4 4.3H31V6.4zm4.2 5.6c.6 0 .9-.6.9-1.4s-.3-1.3-1-1.3h-.8V12h.9zm.2 5.8c.8 0 1.2-.7 1.2-1.6 0-.9-.3-1.5-1.1-1.5h-1.2v3.1h1.1z"/><path class="st2" d="M30.9 999.1c-.1 0-.2 0-.3.1l-14.3 6.5c-.5.2-.6.9-.3 1.3l4.4 5.2-4.4 5.2c-.3.4-.2 1.1.3 1.3l4.4 2v8.6c0 .3.2.6.5.7l14.7 6.5c.2.1.5.1.7 0l14.7-6.5c.3-.1.5-.4.5-.7v-8.6l4.4-2c.5-.2.6-.9.3-1.3l-4.4-5.2 4.4-5.2c.3-.4.2-1.1-.3-1.3l-14.3-6.5c-.1-.1-.3-.1-.4-.1-.2 0-.4.1-.5.3l-4.7 5.1-4.7-5.1c-.2-.2-.5-.3-.7-.3zm-.1 1.8l4.1 4.4-13.1 5.8-3.8-4.4 12.8-5.8zm11 0l12.8 5.8-3.8 4.4-13.1-5.8 4.1-4.4zm-5.5 5.6l12.7 5.6-12.7 5.6-12.7-5.6 12.7-5.6zm-14.5 6.6l13.1 5.8-4.1 4.4-12.8-5.8 3.8-4.4zm28.9 0l3.8 4.4-12.8 5.8-4.1-4.4 13.1-5.8zm-15.2 7.7v13.8l-13-5.8v-7.4l8.2 3.8c.3.1.7.1.9-.2l3.9-4.2zm1.6 0l3.9 4.2c.2.3.6.3.9.2l8.2-3.8v7.4l-13 5.8v-13.8z" transform="translate(0 -952.362)"/></svg>