<svg xmlns="http://www.w3.org/2000/svg" viewBox="0 0 72 96"><style type="text/css">  
	.st0{fill:#999999;}
	.st1{fill:#FFFFFF;}
	.st2{fill:#999999;stroke:#999999;stroke-width:1.5;stroke-miterlimit:10;}
</style><path class="st0" d="M0 2l0 92c0 1.1 0.9 2 2 2h68c1.1 0 2-0.9 2-2V28H50c-1.1 0-2-0.9-2-2V0L2 0C0.9 0 0 0.9 0 2z"/><path class="st0" d="M71.9 24c-0.1-0.4-0.2-0.7-0.4-1L52 1.2V24H71.9z"/><rect x="6" y="41" class="st1" width="60" height="49"/><path class="st1" d="M9 13.6L5.5 6.4h3.6l1.1 2.9c0.3 0.9 0.6 1.8 0.6 1.8h0c0 0 0.2-0.9 0.6-1.8l1.2-2.9h3.6l-3.4 7.2 3.3 7.1h-3.5l-1.1-3c-0.4-0.9-0.6-1.7-0.6-1.7h0c0 0-0.2 0.8-0.6 1.7l-1.1 3H5.7L9 13.6z"/><path class="st1" d="M19.5 16.7c0.6 0.6 1.4 1.2 2.3 1.2 0.9 0 1.3-0.6 1.3-1.2 0-2-4.8-2.1-4.8-6.2 0-2.4 1.7-4.3 4.5-4.3 1.2 0 2.4 0.3 3.4 1l-1.2 2.9c-0.5-0.4-1.4-0.9-2.2-0.9 -0.9 0-1.3 0.6-1.3 1.2 0 2.1 4.8 2 4.8 6.1 0 2.3-1.5 4.4-4.4 4.4 -1.4 0-2.9-0.5-4-1.4L19.5 16.7z"/><path class="st1" d="M29.5 6.4h3.3v11.4h4.3v2.9h-7.6V6.4z"/><path class="st2" d="M23.7 76c-0.5 0-1.1-0.2-1.5-0.6L13.9 67c-0.8-0.8-0.8-2.1 0-3l8.4-8.4c0.8-0.8 2.1-0.8 3 0 0.8 0.8 0.8 2.1 0 3l-6.9 6.9 6.9 6.9c0.8 0.8 0.8 2.1 0 3C24.8 75.8 24.2 76 23.7 76z"/><path class="st2" d="M48.8 76c-0.5 0-1.1-0.2-1.5-0.6 -0.8-0.8-0.8-2.1 0-3l6.9-6.9 -6.9-6.9c-0.8-0.8-0.8-2.1 0-3 0.8-0.8 2.1-0.8 3 0l8.4 8.4c0.8 0.8 0.8 2.1 0 3l-8.4 8.4C49.9 75.8 49.3 76 48.8 76z"/><path class="st2" d="M32.1 80.1c-0.2 0-0.4 0-0.7-0.1 -1.1-0.4-1.7-1.5-1.3-2.6l8.4-25.1c0.4-1.1 1.5-1.7 2.6-1.3 1.1 0.4 1.7 1.5 1.3 2.6l-8.4 25.1C33.8 79.6 32.9 80.1 32.1 80.1z"/></svg>