<svg xmlns="http://www.w3.org/2000/svg" viewBox="0 0 72 96"><style type="text/css">  
	.st0{fill:#999999;}
	.st1{fill:#FFFFFF;}
</style><path class="st0" d="M0 2l0 92c0 1.1 0.9 2 2 2h68c1.1 0 2-0.9 2-2V28H50c-1.1 0-2-0.9-2-2V0L2 0C0.9 0 0 0.9 0 2z"/><path class="st0" d="M71.9 24c-0.1-0.4-0.2-0.7-0.4-1L52 1.2V24H71.9z"/><rect x="6" y="41" class="st1" width="60" height="49"/><path class="st1" d="M8.9 14.8L5.5 6.5H8l1.5 4.2c0.3 0.9 0.5 1.9 0.5 1.9H10c0 0 0.2-1 0.5-1.9L12 6.5h2.5l-3.4 8.3v5.9H8.9V14.8z"/><path class="st1" d="M17.3 6.5h2.5l3.5 14.2h-2.3L20.1 17h-3.2l-0.8 3.7h-2.3L17.3 6.5zM19.7 15l-0.8-3.8C18.7 10.4 18.5 9 18.5 9h-0.1c0 0-0.2 1.4-0.4 2.2L17.2 15H19.7z"/><path class="st1" d="M24.9 6.5h2.5l1.8 6.9c0.2 0.9 0.4 2.2 0.4 2.2h0.1c0 0 0.2-1.3 0.4-2.2l1.8-6.9h2.5l0.8 14.2h-2.1l-0.4-7.9c-0.1-0.9 0-2.2 0-2.2h-0.1c0 0-0.2 1.4-0.4 2.3l-1.4 5.4h-2.2l-1.4-5.4c-0.2-0.8-0.4-2.3-0.4-2.3h-0.1c0 0 0.1 1.3 0 2.2l-0.4 7.9h-2.1L24.9 6.5z"/><path class="st1" d="M37.2 6.5h2.3v12h4.3v2.2h-6.5V6.5z"/><rect x="14" y="48.9" class="st0" width="37" height="4.3"/><rect x="21" y="58.5" class="st0" width="37" height="4.3"/><rect x="14" y="68.1" class="st0" width="37" height="4.3"/><rect x="21" y="77.7" class="st0" width="37" height="4.3"/></svg>