<svg id="Layer_1" xmlns="http://www.w3.org/2000/svg" viewBox="0 0 72 96"><style>.st0{fill:#ccc}.st1{fill:#333}.st2{fill:#999}</style><path class="st0" d="M0 2v92c0 1.1.9 2 2 2h68c1.1 0 2-.9 2-2V28H50c-1.1 0-2-.9-2-2V0H2C.9 0 0 .9 0 2z"/><path class="st0" d="M71.9 24c-.1-.4-.2-.7-.4-1L52 1.2V24h19.9z"/><path class="st1" d="M20.3 78.8l-3.6-8.4h3.6l1.1 3.4c.3 1 .5 2.1.5 2.1h.1s.2-1.1.5-2.1l1.1-3.4h3.6l-3.6 8.4v5.9h-3.3v-5.9zm9.5-8.4h3.6l1.3 6c.2.9.4 2.4.4 2.4h.1s.2-1.5.4-2.4l1.3-6h3.6l.9 14.3h-3l-.4-6.4c-.1-1.1 0-2.4 0-2.4h-.1s-.2 1.5-.4 2.4l-.9 4.1h-3.2l-.9-4.1c-.2-.9-.4-2.4-.4-2.4H32s.1 1.3 0 2.4l-.4 6.4h-3l1.2-14.3zm15.1 0h3.3v11.4h4.3v2.9h-7.6V70.4z"/><path class="st2" d="M0 94V2C0 .9.9 0 2 0h48c.6 0 1.1.2 1.5.7l20 22.3c.3.4.5.8.5 1.3V94c0 1.1-.9 2-2 2H2c-1.1 0-2-.9-2-2zm68-68.9L49.1 4H4v88h64V25.1z"/><path class="st2" d="M48 26V4c0-1.1.9-2 2-2s2 .9 2 2v20h16c1.1 0 2 .9 2 2s-.9 2-2 2H50c-1.1 0-2-.9-2-2zm-33 3.9h37v4.3H15zm7 9.6h37v4.3H22zm-7 9.6h37v4.3H15zm7 9.6h37V63H22z"/></svg>