<svg xmlns="http://www.w3.org/2000/svg" viewBox="0 0 72 96"><style type="text/css">  
	.st0{fill:#999999;}
	.st1{fill:#FFFFFF;}
</style><path class="st0" d="M0 2l0 92c0 1.1 0.9 2 2 2h68c1.1 0 2-0.9 2-2V28H50c-1.1 0-2-0.9-2-2V0L2 0C0.9 0 0 0.9 0 2z"/><path class="st0" d="M71.9 24c-0.1-0.4-0.2-0.7-0.4-1L52 1.2V24H71.9z"/><rect x="6" y="41" class="st1" width="60" height="49"/><path class="st1" d="M8.9 14.8L5.3 6.4h3.6L10 9.8c0.3 1 0.5 2.1 0.5 2.1h0.1c0 0 0.2-1.1 0.5-2.1l1.1-3.4h3.6l-3.6 8.4v5.9H8.9V14.8z"/><path class="st1" d="M18.5 6.4h3.6l1.3 6c0.2 0.9 0.4 2.4 0.4 2.4h0.1c0 0 0.2-1.5 0.4-2.4l1.3-6h3.6l0.9 14.3h-3l-0.4-6.4c-0.1-1.1 0-2.4 0-2.4h-0.1c0 0-0.2 1.5-0.4 2.4l-0.9 4.1h-3.2l-0.9-4.1c-0.2-0.9-0.4-2.4-0.4-2.4h-0.1c0 0 0.1 1.3 0 2.4l-0.4 6.4h-3L18.5 6.4z"/><path class="st1" d="M33.5 6.4h3.3v11.4h4.3v2.9h-7.6V6.4z"/><rect x="14" y="48.9" class="st0" width="37" height="4.3"/><rect x="21" y="58.5" class="st0" width="37" height="4.3"/><rect x="14" y="68.1" class="st0" width="37" height="4.3"/><rect x="21" y="77.7" class="st0" width="37" height="4.3"/></svg>